<svg width="269" height="450" viewBox="0 0 269 450" fill="none" xmlns="http://www.w3.org/2000/svg">
<path d="M57.1799 448.33C40.7799 446.98 24.4401 445.26 9.11009 438.67C-0.609913 434.49 -2.50002 428.07 3.24998 419.25C6.60998 414.1 11.4099 410.46 16.6899 407.6C22.4499 404.49 28.0499 400.89 34.6399 399.61C38.4299 400.16 41.1099 402.82 44.1999 404.68C55.1399 411.24 65.5101 418.61 75.3701 426.7C77.9401 428.81 80.13 431.28 82.05 434.01C84 436.43 85.5099 439.06 86.2099 442.12C88.4699 448.07 88.2 448.28 81.77 448.54C73.56 448.88 65.3699 447.63 57.1699 448.33H57.1799Z" fill="#182441"/>
<path d="M182 55.66C182.85 63.65 184.9 71.4701 185.19 79.5401C184.76 79.8101 184.33 79.8401 183.88 79.5901C183.06 78.6901 182.74 77.55 182.37 76.43C181.83 73.88 182.09 70.77 178.19 70.66C177.74 70.61 177.3 70.54 176.86 70.47C175.04 70.23 174.66 71.5202 174.29 72.8502C169.19 91.2402 162.67 109.16 156.45 127.19C156.18 127.97 155.91 128.76 155.71 129.57C155.29 131.31 155.99 132.26 157.75 131.92C160.35 131.42 163.65 131.72 165.33 129.96C167.92 127.25 169.98 128.28 172.45 129.37C174.81 129.22 177.19 129.52 179.5 128.86C179.96 128.72 180.43 128.62 180.9 128.54C181.36 128.45 181.83 128.41 182.3 128.38C183.89 128.35 185.49 128.27 187.03 127.81C189.79 127.23 192.74 127.42 195.2 125.7C195.6 125.51 196.02 125.39 196.46 125.36C199.52 133.41 202.59 141.45 205.65 149.5C205.26 149.87 204.8 150 204.27 149.89C200.25 146.13 199.87 140.6 197.53 136.02C196.62 132.74 195.35 129.98 191.07 131.57C190.14 131.74 189.2 131.8 188.25 131.82C186.56 131.81 184.93 132.15 183.3 132.54C182.57 132.7 181.83 132.78 181.09 132.83C180.59 132.88 180.09 132.9 179.59 132.92C175.9 133.49 172.19 133.81 168.5 134.37C164.08 134.87 159.74 136.09 155.54 136.07C162 138.46 165.59 144.87 171.21 148.74C175.93 152.6 179.53 157.66 184.62 161.11C188.66 165.55 193.5 169.1 197.93 173.1C199.37 174.39 201.3 175.51 200.45 178.02C197.21 183.42 197.69 189.66 196.51 195.53C196.46 196.8 196.32 198.06 196.04 199.31C195.66 200.52 195.51 201.78 195.46 203.04C195.03 207.41 193.85 211.65 193.14 215.97C192.92 216.93 192.65 217.88 192.48 218.84C189.79 230.26 187.36 241.75 184.08 253.73C189.5 250.01 194.67 247.16 199.64 243.98C213.04 236.05 226.4 228.04 240.06 220.59C244.59 218.12 240.97 215.16 241.75 212.58C244.88 213.91 246.51 216.7 248.34 219.3C248.25 219.72 248.09 220.12 247.87 220.5C247.12 221.58 246.51 222.81 245.07 223.16C237.11 226.11 230.67 231.9 222.82 235.03C222.04 235.43 221.25 235.82 220.52 236.3C219.26 237.14 217.93 237.88 216.58 238.55C215.4 239.12 214.26 239.77 213.21 240.57C205.18 245.13 198.36 251.65 189.63 255.07C186.53 256.48 184.89 258.36 187.44 261.65C187.4 262.41 186.95 262.94 186.46 263.46C185.05 265.43 186.23 267.35 186.69 269.19C189.48 280.32 192.98 291.26 196.14 302.29C196.69 304.21 197.22 306.14 197.4 308.14C197.46 309.36 197.65 310.56 198.1 311.71C199.05 314.51 199.28 317.62 201.84 319.68C202.36 320.1 202.83 320.88 202.62 321.44C199.63 329.64 204.61 336.95 205.15 344.74C204.69 346.36 205.54 347.42 206.71 348.35C207.21 350.08 206.32 351.78 206.58 353.51C206.57 353.95 206.44 354.36 206.21 354.74C204.15 357.07 202.1 359.41 200.04 361.74C200.1 357.94 198.17 356.2 194.54 355.04C188.72 353.17 182.94 351.09 177.25 348.83C171.05 346.62 164.62 345.22 158.27 343.56C157.28 343.24 156.29 342.93 155.24 342.88C145.51 341.07 145.44 341.08 147.48 350.56C151.36 368.63 154.19 386.86 156.29 405.21C156.57 407.66 156.96 410.2 155.43 412.47C154.93 412.84 154.42 412.87 153.89 412.55C150.95 407.06 151.67 400.9 150.82 395.05C148.25 377.3 145.3 359.64 140.76 342.29C140.33 340.81 139.43 340.19 137.88 340.76C123.78 343.54 109.52 345.43 94.71 348.62C97.37 351.28 101.04 353.32 95.8 355.94C94.86 356.41 95.8201 358.44 96.0801 359.71C98.5401 372.09 99.91 384.64 101.46 397.15C102.12 402.51 101.89 408.08 101.07 413.53C100.88 414.03 100.57 414.45 100.14 414.78C99.5799 414.91 99.1 414.78 98.7 414.37C97.42 412.56 97.0801 410.47 96.8601 408.34C96.7901 407.81 96.78 407.27 96.8 406.73C96.62 401.64 97.2199 396.52 96.1799 391.47C96.0599 390.96 96 390.43 95.95 389.91C95.86 388.64 95.8701 387.37 95.8201 386.1C95.8001 385.11 95.51 384.18 95.27 383.23C94.93 381.83 94.8499 380.39 94.6799 378.96C93.5799 372.5 93.1 365.93 91.51 359.57C91.17 358.2 91.96 355.79 89.25 355.67C88.19 356.52 87.2399 357.6 85.6799 357.28C89.3799 350.28 93.36 343.41 96.72 336.25C103.67 321.44 108.33 305.91 110.35 289.64C111.33 289.58 111.73 290.24 112.05 291C112.89 295.57 111.5 299.92 110.56 304.27C108.01 316.03 103.8 327.23 98.8301 338.16C98.1601 339.64 97.0199 340.98 97.1299 342.75C98.1599 343.87 99.3499 343.26 100.41 343.04C111.32 340.74 122.3 338.81 133.3 337C138.47 336.15 138.56 335.86 137.95 330.44C137.6 327.29 137.04 324.19 136.36 321.1C136.15 320.4 136 319.68 135.86 318.96C132.54 304.34 125.53 291.69 115.44 280.71C112.39 282.03 114.91 286.73 111.19 287.63C110.24 283.71 110.6 279.77 110.93 275.84C113.57 275.81 114.16 273.6 115.1 271.83C124.97 253.3 132.61 233.9 137.6 213.48C138.11 211.38 138.76 209.33 139.35 207.26C139.52 206.58 139.5 205.88 139.52 205.18C139.88 202.32 138.04 200.59 136.23 198.86C127.65 190.63 118.24 183.3 110.06 174.64C108.68 173.18 106.47 172.04 107.18 169.38C107.61 169.15 108.06 169.04 108.55 169.05C113.38 171.74 117.37 175.5 121.16 179.42C127.05 185.5 133.95 190.44 140.07 197.35C141.57 192.58 140.69 188.45 141.3 184.47C143.2 172.17 144.02 159.71 146.77 147.53C147.06 146.23 147.31 144.93 146.07 143.86C144.81 142.78 144.68 141.64 146.24 140.67C149.06 138.93 148.08 136.98 146.78 134.76C142.9 128.13 136.27 124.22 131.16 118.79C128.32 115.77 125.06 113.15 122.69 109.69C121.5 107.98 119.97 106.57 118.49 105.13C115.51 101.92 111.6 99.7502 108.78 96.3602C108.3 95.8602 107.9 95.31 107.56 94.7C106.93 93.02 105.85 91.53 105.53 89.72C105.54 89.27 105.66 88.84 105.86 88.43C107.18 87.26 107.95 85.6402 109.16 84.3702C109.63 84.2602 110.05 84.3602 110.45 84.6202C109.46 92.8002 115.76 96.74 120.37 101.67C121.43 102.8 122.5 103.93 123.61 105.01C124.39 105.79 125.17 106.57 125.98 107.34C129.17 110.53 132.37 113.71 135.56 116.89C136.36 117.69 137.15 118.5 137.97 119.29C142.03 123.18 145.74 127.43 150.33 131.26C152.07 128.84 152.36 126.14 153.32 123.73C159.15 107.43 164.55 90.98 169.54 74.41C170.28 71.95 171.54 69.2501 168.85 67.0401C166.27 65.4601 163.78 63.72 161.02 62.43C158.26 60.81 155.61 59.01 152.69 57.67C149.44 55.64 146.16 53.6401 142.81 51.7801C142.42 51.5801 142.05 51.3401 141.69 51.0901C140.36 50.0001 138.86 49.19 137.31 48.46C136.92 48.27 136.56 48.0301 136.21 47.7901C134.32 46.3301 132.13 45.4302 130.03 44.3702C128.89 43.7502 127.73 43.1701 126.47 42.8001C124.35 42.0601 122.16 41.5699 119.96 41.1299C118.95 41.7899 119.02 38.5601 117.65 40.5201C116.21 41.4801 114.64 41.8399 112.94 41.6399C111.96 41.4099 111.07 41.0602 110.92 39.8702C112.6 37.3602 115.86 37.36 117.93 35.46C121.19 36.04 123.87 35.0201 126.01 32.5101C128.98 33.1201 131.72 32.84 133.93 30.49C136.63 30.82 139.28 30.7801 141.71 29.3101C142.14 29.1601 142.59 29.0701 143.05 29.0301C146.92 29.1901 146.66 25.6301 148 23.5201C148.44 23.3401 148.89 23.3401 149.33 23.5401C149.93 24.1401 150.17 24.95 150.57 25.67C151.1 26.62 151.87 27.1902 153.01 26.8702C154.21 26.5402 154.37 25.5501 154.31 24.5001C154.23 23.1801 153.99 21.85 154.86 20.67C155.24 20.4 155.67 20.31 156.13 20.4C158.05 21.77 157.47 25.78 161.23 25.19C162.29 25.02 163.13 24.18 164.25 24.18C166.67 24.61 168.99 23.8801 171.34 23.5401C171.77 23.4801 172.2 23.46 172.64 23.44C173.72 23.4 174.76 23.1001 175.84 23.0601C176.28 23.1101 176.66 23.3002 176.99 23.6002C177.09 25.2302 177.19 26.85 177.3 28.48C177.72 29.46 177.17 29.78 176.34 29.9C174.37 27.56 171.8 27.46 169.06 27.96C161.03 29.45 153.05 31.21 145.21 33.45C139.06 35.2 132.48 35.2602 126.88 38.3602C136.48 42.5402 145.24 48.6601 154.56 53.7701C156.88 55.0401 159.02 56.7601 161.97 56.0601C162.99 55.8201 163.99 56.14 164.53 57.15C167.94 63.48 174.25 64.5301 180.75 66.2801C180.71 63.2901 177.67 60.91 179.81 58.15C180.28 57.11 180.26 55.6 182.01 55.74L182 55.66Z" fill="#2A150E"/>
<path d="M156.15 341.75C156.98 341.55 157.67 341.73 158.16 342.48C161.09 344.05 163.25 347.57 167.51 345.78C168.53 345.35 169.45 346.45 169.55 347.91C169.78 351.38 171.05 352.1 173.94 350.39C175.33 349.56 176.43 348.24 178.07 347.8C184.28 350.03 190.4 352.59 196.73 354.39C201.26 355.68 202.85 357.48 200.06 361.7C197.06 365.17 194.06 368.65 191.06 372.12C185.39 380.52 179.27 388.62 173.84 397.19C172.87 398.72 171.93 400.25 171.2 401.9C170.16 403.35 169.13 404.79 168.09 406.24C166.74 408.77 165.42 411.32 164.14 413.88C164.79 415.63 162.5 416 162.48 417.44C162.43 417.7 162.38 417.97 162.34 418.23C161.67 419.74 160.86 421.19 160.01 422.61C159.19 423.98 158.43 426.02 156.49 425.43C154.63 424.86 154.95 422.72 154.88 421.11C154.79 419.13 154.75 417.14 155.16 415.18C156.57 410.01 159.03 404.91 155.16 399.64C153.89 397.91 155.42 397.01 157 396.48C159.79 395.55 162.52 395.83 165.33 396.66C161.71 395.91 159.74 393.18 157.56 390.6C155.04 387.6 154.58 384.51 156.07 380.91C156.77 379.22 155.96 377.7 154.67 376.45C153.66 375.48 151.08 374.93 151.97 373.47C153.37 371.18 153.19 368.29 155.08 366.33C155.79 365.6 156.81 365.1 157.78 365.53C159.01 366.07 158.67 367.57 159.21 368.52C160.01 369.94 157.81 371.89 160.09 372.9C160.38 373.03 160.79 372.85 160.97 372.58C162.14 370.75 160.19 369.58 159.97 368.03C159.66 365.87 158.3 364.45 156.47 363.49C153.59 361.97 152.77 359.87 154.37 356.95C154.62 356.55 154.94 356.21 155.32 355.94C159.83 353.32 160.06 352.24 157.28 347.95C156.08 346.09 154.09 344.27 156.13 341.77L156.15 341.75Z" fill="#E2842D"/>
<path d="M194.32 202.58C194.16 201.43 194.12 200.31 195 199.38C195.48 199.36 195.96 199.4 196.44 199.4C197.73 199.4 199.64 200.75 200.04 198.58C200.39 196.64 198.45 196.57 197.02 196.37C196.37 196.28 195.79 196.04 195.37 195.5C196.22 189.82 195.9 183.93 198.66 178.61C199.03 177.9 199.49 177.67 200.16 177.59C200.39 177.64 200.61 177.68 200.84 177.72C204.88 181.4 209.85 184.08 212.88 188.85C215.46 193.27 219.31 196.16 223.94 198.12C224.29 198.46 224.43 198.87 224.33 199.36C223.77 200.32 223.21 201.28 222.76 202.38C224.21 201.82 223.53 200.29 224.23 199.44C224.83 198.97 225.51 198.75 226.27 198.78C228.36 199.16 230.01 200.12 230.8 202.21C231.19 203.79 230.35 205.02 229.66 206.31C229.19 207.18 228.67 208.43 229.68 208.93C231.3 209.72 231.37 208.02 231.76 207.07C232.06 206.32 232.2 205.5 232.63 204.8C236.45 203.64 236.67 208.42 239.48 208.95C240.24 210.16 241 211.36 241.76 212.57C244.4 216.503 243.62 219.69 239.42 222.13C226.38 229.72 213.33 237.31 200.29 244.9C198.33 243.44 196.66 241.25 194.92 245.52C193.98 247.83 191.46 246.91 189.93 245.27C188.33 243.55 187.17 241.25 190.01 239.96C193.12 238.56 192.96 237.51 190.63 235.59C189.22 234.43 188.45 232.33 189.59 231.13C193.25 227.25 191.04 222.79 191.39 218.59C191.25 217.82 191.28 217.09 191.96 216.55C192.92 215.38 194.95 214.8 193.94 212.56C192.54 209.44 194.31 208.09 198.08 207.68C195.62 206.08 194.21 204.76 194.31 202.57L194.32 202.58Z" fill="#EFA030"/>
<path d="M51.1102 87.02C49.3202 86.33 49.65 84.0498 48.17 83.1298C46.26 78.6898 43.6202 74.6801 41.0702 70.6101L41.1102 70.6599C40.6102 69.8699 40.3301 69.04 40.5401 68.09C40.7101 67.67 40.9802 67.32 41.3402 67.05C42.7002 66.39 44.2701 66.22 45.5101 65.25C45.8901 65.01 46.2901 64.8299 46.7101 64.6599C49.5501 63.8199 52.0601 62.21 54.7801 61.09C55.2501 60.95 55.7201 60.8799 56.2101 60.8899C71.5601 68.6399 86.7301 76.7499 101.7 85.2099C102.88 85.8799 104.52 86.4999 104.24 88.4599C101.61 90.9699 98.1401 90.6399 94.9501 91.2099C84.4001 93.0999 73.8801 95.1499 63.5301 97.9399C59.5801 99.0099 56.8202 98.41 55.0602 94.59L55.1202 94.6599C53.7002 92.1599 52.4002 89.59 51.1102 87.02Z" fill="#94D7D4"/>
<path d="M98.22 407.6V408.56C97.45 409.52 96.67 410.47 95.26 410.42C91.96 409.97 90.73 406.83 88.47 405.02C86.65 403.56 85.51 401.59 83.71 404.83C83.12 405.89 81.7499 406.1 81.1399 405.41C77.8399 401.67 75.1 404.46 72.23 405.97C70.48 406.04 68.8801 405.73 67.8301 404.13C67.2601 398.87 62.55 397.22 59.3 394.12C59.1 396.44 61.91 398.57 59.28 400.71C57.65 401.17 56.52 400.33 55.46 399.28C53.22 396.75 53.1799 393.33 51.8799 390.41C60.2699 383.28 69.2099 376.78 76.6599 368.57C79.0999 365.88 81.3699 363.1 83.1599 359.95C83.9999 359.04 84.8399 358.13 85.6799 357.22C86.7999 356.23 87.92 355.24 89.04 354.26C88.68 358.7 92.7901 361.53 92.8701 366.24C92.9401 370.09 91.8899 371.25 88.9299 372.09C90.7399 373.31 90.45 376.72 94 376.54C95.15 376.48 94.5301 378.75 93.8101 379.9C92.3801 382.7 95.6201 382.21 96.3401 383.49C97.0001 384.01 96.9601 384.71 96.8301 385.44C94.9401 386.85 96.04 388.12 97.02 389.39C97.07 389.79 97.1299 390.18 97.1799 390.58C94.8499 391.99 92.8399 393.36 96.1899 395.94C97.9799 397.32 98.31 399.67 97.2 401.36C95.47 404.01 97 405.67 98.2 407.6H98.22Z" fill="#F0A730"/>
<path d="M81.28 434.59C68.8 420.96 53.0799 411.67 37.6599 401.98C36.5699 401.3 35.1299 401.06 34.6299 399.62C36.9499 398.09 38.7801 395.54 42.0801 396.06C43.8001 393.58 45.9599 394.07 48.1799 395.2C52.1299 397.22 55.9899 399.39 59.6299 401.93C60.1899 403.69 59.55 405.27 58.74 406.91C60.88 406.2 58.9401 402.96 61.6101 402.75C69.2101 405.62 77.5699 406.63 84.1399 412C84.8599 414.32 82.8401 414.24 81.6201 414.8C79.3801 415.82 77.5899 417.13 77.6799 419.92C77.4599 420.55 78.67 419.92 78.01 419.98C77.82 420 77.8599 419.85 77.9299 419.49C78.4999 416.55 80.5 415.09 83.22 415.56C85.51 415.96 85.7699 418.08 84.8999 420.58C86.5799 417.91 83.8299 414.26 87.6399 412.81C91.6899 412.76 95.14 414.53 98.54 416.44C100.33 420.69 98.2801 424.2 96.3701 427.74C91.2501 429.82 87.32 434.54 81.27 434.6L81.28 434.59Z" fill="#F3AB2B"/>
<path d="M32.1002 45.6002C33.0002 44.9002 33.7602 43.9102 35.1102 44.1102C42.6602 39.8002 50.9002 37.0502 58.8302 33.6002C59.8202 33.1702 60.75 33.3402 61.65 33.8502C64.76 37.6102 66.2501 42.0401 67.0701 46.7501C67.4701 48.5101 68.3802 50.1002 68.8402 51.8402C69.4802 54.2502 68.7401 55.94 66.2701 56.88C64.7701 57.44 63.53 56.9001 62.2 56.4801C62.36 58.9201 60.1401 59.0802 58.7901 60.0802C57.6501 60.8002 56.1102 60.56 55.1202 61.63L55.19 61.6002C51.8 62.1002 49.28 64.54 46.15 65.63H46.19C43.43 63.58 43.09 67.6402 41.13 67.6202L41.2 67.6002C37.45 68.0202 38.1402 63.4902 35.5902 62.5802C33.7802 59.0502 31.96 55.5101 30.15 51.9801C29.55 49.4701 28.3602 46.7902 32.0902 45.6002H32.1002Z" fill="#E66775"/>
<path d="M148.14 23.6298C148.67 27.5198 148.2 30.56 143.05 29.61C140.38 24.21 139.14 18.4999 138.61 12.8199C138.41 18.4899 141.44 23.84 142.1 29.6C139.7 31.82 137.21 33.3998 134.16 30.6398C132.9 29.6198 132.81 28.0798 132.34 26.6998C131.83 23.8498 131.35 20.9898 130.47 18.2098C130.31 17.7298 130.19 17.2499 130.09 16.7599C129.443 11.9799 131.153 9.31322 135.22 8.75989C137.14 8.04989 139.05 7.33977 140.97 6.63977C143.22 6.34977 145.46 6.01976 147.69 5.62976C149.28 5.53976 150.92 5.16994 152.33 6.30994C153.87 10.9499 155.81 15.51 155.06 20.58C154.52 22.86 157.08 25.1398 155.41 27.1898C154.62 28.1498 152.63 28.7499 151.33 28.5499C148.68 28.1399 149.43 25.5198 148.96 23.7198C146.7 20.0298 147.09 15.57 145.63 11.83C146.59 15.61 147.41 19.6 148.13 23.62L148.14 23.6298Z" fill="#E9697A"/>
<path d="M226.09 199.39C225.47 199.41 224.84 199.43 224.22 199.45L224.19 199.38C224.21 199.09 224.16 198.8 224.03 198.54C220.65 197.35 218.88 194.21 216.21 192.14C214.12 188.89 210.11 187.26 208.8 183.34C209.36 179.67 209.52 176.07 207.29 172.8C205.81 170.63 208.3 168.23 207.03 166.78C205.02 171.65 209.3 177.14 207.18 182.74C204.97 182.74 204.21 180.99 203.23 179.5C202.97 175.64 200.32 172.11 201.65 168.05C202.13 167.17 204.66 169.18 203.91 166.31C203.43 164.47 204.38 162.48 204.11 160.86C203.78 163.16 204.42 166.12 201.39 167.73C198.67 165.62 198.82 162.55 198.74 159.61C198.56 152.92 199.61 146.14 196.68 139.68C196.04 138.27 195.47 136.07 198.23 135.55C200.24 140.2 202.25 144.86 204.27 149.51C207.36 153.51 208.54 158.42 210.67 162.88C211.8 165.24 212.39 167.92 214.66 169.6C215.46 170.61 216.42 171.55 216.18 173.01C217.98 177.07 218.75 181.71 222.69 184.56C224.06 186.86 225.44 189.16 226.81 191.46C227.14 194.45 229.25 196.69 230.43 199.12C228.78 201.11 227.45 198.67 226.09 199.4V199.39Z" fill="#C44F5E"/>
<path d="M95.2 427.55C97.15 424.21 98.36 420.67 98.02 416.73C97.49 415.52 98.1699 414.95 99.1799 414.57C99.5899 414.51 99.9999 414.45 100.41 414.39C101.12 413.82 101.93 413.77 102.78 413.9C117.97 417.84 133.73 418.64 148.98 422.22C151.64 422.84 152.6 421.61 152.73 419.09C152.84 416.83 152.23 414.36 154.22 412.5C154.55 412.51 154.87 412.52 155.2 412.52C155.94 413 156.89 413.4 156.02 414.53V425.4C159.55 423.01 159.47 419.23 162.09 417.45C157.38 430.07 150.46 440.34 135.77 442.53C131.86 443.11 127.99 443.97 124.11 444.69C122.95 445.07 121.97 445.12 121.98 443.46C124.48 441.39 127.79 441.69 130.6 440.54C134.63 439.65 138.64 438.68 142.51 437.16C144.37 436.43 146.23 435.68 147.72 434.34C149.4 432.83 152.06 431.49 151.55 428.97C151 426.26 147.9 426.53 145.75 426.06C139.45 424.68 133.06 423.77 126.68 422.78C119.76 421.75 112.84 420.7 105.94 419.6C102.62 419.07 101.02 420.13 100.2 423.35C99.34 426.73 97.5701 429.82 96.3101 433.08C96.0301 433.74 95.72 434.39 95.45 435.05C94.43 437.6 93.3799 440.15 92.3799 442.72C91.3299 445.4 92.4901 446.33 95.0601 446.21C95.7101 446.15 96.36 446.07 97 446.02C97.43 445.98 97.86 446.02 98.28 446.13C99.17 446.62 100.4 446.85 100.09 448.33C97.1801 448.44 94.2801 448.55 91.3701 448.66C82.5301 449.19 73.6901 449.2 64.8501 448.66C62.2901 448.55 59.7299 448.44 57.1599 448.33C62.9699 446.46 68.9401 447.99 74.8201 447.53C75.9701 447.44 77.14 447.53 78.3 447.52C80.78 447.49 83.7499 448.29 85.6299 447.21C88.9299 445.32 82.57 443.8 84.71 441.37C87.19 442.21 88.3999 441.3 89.4099 438.83C91.0099 434.93 92.4399 430.88 95.1799 427.54L95.2 427.55Z" fill="#141B19"/>
<path d="M108.06 94.53C108.43 94.81 108.79 95.0901 109.16 95.3701C109.4 97.1901 109.34 98.97 108.88 100.78C104.75 117.16 99.95 133.34 94.54 149.34C93.62 152.06 93.69 154.1 95.95 155.96C98.63 158.17 100.86 160.89 103.7 162.92C104.07 163.22 104.41 163.56 104.74 163.9C105.88 165.78 108.68 166.67 108.17 169.55C107.66 169.61 107.16 169.68 106.65 169.74C104.21 170.47 102.95 168.6 101.66 167.23C95.9599 161.19 89.5201 155.96 83.0601 149.88C86.6601 160.5 89.9801 170.66 92.3201 181.11C92.7801 183.17 93.76 185.25 92.53 187.38C92.14 187.74 91.72 187.8 91.26 187.53C86.13 169.62 81.8899 151.42 74.1699 134.34C71.9999 129.54 69.9501 124.68 67.8401 119.84C68.1701 119.4 68.5901 119.28 69.1101 119.44C73.1701 124 75.16 129.69 77.5 135.15C79.45 139.7 81.9801 143.61 86.1001 146.5C89.8101 149.1 90.4601 149.12 91.8501 144.66C94.5801 135.93 97.3201 127.2 99.8701 118.42C101.77 111.87 103.39 105.24 105.35 98.71C105.83 97.13 105.56 94.87 108.06 94.52V94.53Z" fill="#262123"/>
<path d="M91.26 187.54C91.61 187.54 91.9601 187.52 92.3101 187.51C94.5001 187.8 94.46 189.78 95 191.23C96.86 196.21 98.0899 201.38 99.3999 206.51C100.33 210.16 101.84 211.45 106.02 210.84C116.04 209.39 126.01 207.92 135.76 205.12C137.18 204.71 138.67 204.29 139.99 205.49C140.33 205.91 140.67 206.33 141.02 206.75C137.27 209.86 132.57 210.55 128.08 211.58C121.28 213.14 114.45 214.58 107.44 215.06C102.61 215.39 102.27 215.95 103.4 220.58C106.56 233.5 110.08 246.33 111.98 259.54C112.59 263.83 112.41 268.17 113.11 272.45C113.3 273.61 113.09 274.79 111.97 275.55C110.89 279.54 110.77 283.53 111.98 287.52C113.13 288.89 113.16 290.02 111.31 290.78C110.99 290.38 110.68 289.98 110.36 289.58C112.42 259.46 103.04 231.3 95.45 202.83C94.09 197.72 92.66 192.63 91.26 187.54Z" fill="#342828"/>
<path d="M135.23 8.75994C129.02 9.49994 131.16 14.0498 131.18 17.6298C130.43 17.8598 130.02 17.4199 129.54 16.9199C128.4 15.7199 129.43 12.8599 126.7 12.9699C124.07 13.0799 123.48 15.4299 122.48 17.2699C119.32 15.9799 116.16 14.6099 113.34 17.9599C109.6 17.5532 107.41 19.9334 106.77 25.1C106.52 25.51 106.16 25.76 105.68 25.82C105.2 25.66 104.77 25.3999 104.51 24.9699C101.22 19.4599 100.83 19.4 96.2199 23.78C87.8499 23.09 80.9701 27.5998 73.6201 30.3798C71.5701 31.1598 72.69 33.26 72.83 34.84C72.92 35.85 72.9398 36.9999 71.8798 37.4299C70.9898 37.7999 70.2399 36.9899 69.9499 36.2399C67.8999 31.0499 64.7698 33.0398 61.6298 34.9098C56.3198 34.6898 51.7599 36.4598 47.9399 40.1298C47.7199 40.3398 47.82 41.29 47.33 41.02C42.28 38.3 39.58 44.77 35.1 44.09C34.57 41.98 36.58 42.0899 37.52 41.6699C67.9 28.2199 99.3 17.6699 131.27 8.74993C132.49 8.40993 133.9 8.71991 135.22 8.72991L135.23 8.75994Z" fill="#572021"/>
<path d="M99.1898 414.57C98.7998 415.29 98.4099 416.01 98.0299 416.73C94.4799 415.59 90.9398 414.46 87.3898 413.32C86.1798 413.51 84.9899 413.65 84.2399 412.34C76.7799 408.9 69.1199 406 61.2899 403.55C60.6899 402.99 59.6798 403.26 59.1898 402.49C55.1698 400.35 51.1098 398.28 47.1498 396.04C45.3698 395.03 43.78 395.19 42.09 396.04C41.44 394.63 42.7298 394.3 43.4498 393.89C58.8699 385.12 71.9298 373.6 83.1698 359.94C82.1098 364.75 78.3399 367.67 75.2399 370.98C68.3299 378.36 60.28 384.47 52.33 390.67C49.77 392.89 49.0499 394.8 52.9999 396.35C54.1499 396.8 55.1198 397.79 56.1598 398.56C57.1298 399.07 58.11 399.59 59.08 400.1C62.75 399.65 65.6599 401.19 68.2399 403.6C69.5599 404.16 70.8698 404.71 72.1898 405.27C77.0498 404.82 81.0198 407.66 85.4298 408.89C87.4898 409.46 89.4499 410.42 91.4799 411.12C93.9399 412.22 96.6098 412.8 98.9098 414.28L99.1898 414.58V414.57Z" fill="#2A150E"/>
<path d="M206.22 354.7C206.16 354.18 206.09 353.66 206.03 353.13C206.13 350.89 207.8 349.62 209.23 348.31C212.8 345.03 216.03 341.43 217.9 336.97C219.02 334.28 221.79 334.7 223.31 333.1C232.04 323.94 241.95 315.93 250.07 306.21C253.24 302.41 247.71 303.3 246.67 301.66C246.25 301.48 245.85 301.26 245.46 301.03C243.84 299.76 241.83 299.79 239.94 299.41C237.4 298.89 235.82 297.67 236.39 294.78C236.46 294.33 236.63 293.91 236.88 293.53C237.79 292.94 238.59 293.39 239.41 293.76C240.01 294.03 240.62 294.3 241.23 294.53C244.73 295.78 247.84 297.9 251.31 299.15C252.83 298.29 251.52 295.51 253.94 295.3C256.02 296.57 254.44 299.67 256.72 300.84C257.1 301.07 257.33 301.4 257.42 301.84C253.36 306.41 249.5 311.17 245.22 315.52C232.31 328.66 219.24 341.64 206.23 354.69L206.22 354.7Z" fill="#454545"/>
<path d="M55.0701 94.5901C57.5401 97.4701 60.3999 97.43 63.9099 96.5C75.5299 93.42 87.31 91.06 99.2 89.23C100.72 89 102.57 89.27 103.76 87.79C104 87.39 104.35 87.1999 104.81 87.1799C105.51 87.3499 105.93 87.8 106.13 88.48C106.11 88.93 106.09 89.3801 106.07 89.8401C104.72 91.6601 102.64 91.61 100.7 91.99C89.48 94.21 78.18 96.08 67.05 98.75C62.9834 99.7233 61.8599 102.023 63.6799 105.65C65.0899 108.47 66.5399 111.27 67.8799 114.12C68.6399 115.76 69.57 117.42 68.52 119.31C68.3 119.49 68.0701 119.68 67.8501 119.86C63.5901 111.44 59.3401 103.02 55.0801 94.6001L55.0701 94.5901Z" fill="#262123"/>
<path d="M146.87 6.49001C144.89 6.05001 142.99 8.39991 140.98 6.63991C149.74 3.65991 158.67 1.44993 167.9 0.409934C171.55 -6.57812e-05 173.5 1.18014 174.24 4.87014C175.48 11.0501 176.73 17.2201 176.99 23.5401C176.64 23.5001 176.28 23.4599 175.93 23.4199C173.35 22.1099 174.51 19.6499 174.12 17.6499C173.4 13.9199 173.14 10.11 172.05 6.43996C172.97 10.62 173.83 14.8201 174.08 19.0901C174.19 20.8501 174.68 22.7701 173.33 24.3701C172.97 24.4601 172.61 24.5399 172.24 24.6299C169.6 19.8399 170.29 14.32 168.88 9.26003C168.29 7.15003 168.87 4.35992 165.58 3.89992C162.2 3.42992 161.58 6.14005 160.45 8.28005C156.31 4.76005 151.62 5.41001 146.86 6.49001H146.87Z" fill="#6B252B"/>
<path d="M248.36 219.28C262.39 235.21 270.03 253.39 268.03 274.97C267.98 275.53 267.45 276.04 267.15 276.58C266.22 275.82 265.99 274.76 265.86 273.65C266.83 255.61 260.58 239.93 250.24 225.54C249.01 223.83 246.6 222.27 248.18 219.5L248.38 219.29L248.36 219.28Z" fill="#26353A"/>
<path d="M100.11 448.34C99.4201 447.79 98.72 447.25 98.03 446.7C99.03 445.11 100.86 444.85 102.35 444.71C105.2 444.44 107.52 443.87 107.79 439.38C110.37 442.9 112.66 444.58 115.99 442.96C116.73 442.6 117.5 442.46 117.92 441.61C118.45 440.54 118.06 438.41 119.81 438.69C121.6 438.98 121.82 441.04 122.21 442.63C122.29 442.95 122.25 443.28 122.22 443.61C122.86 443.97 123.49 444.33 124.13 444.69C118.94 446.59 113.33 446.27 108.07 447.75C105.42 447.95 102.77 448.14 100.12 448.34H100.11Z" fill="#487572"/>
<path d="M171.2 401.9C172.04 396.59 175.99 393.03 178.69 388.8C182.41 382.96 186.1 377.06 191.06 372.13C191.43 372.77 191.32 373.36 190.9 373.95C184.33 383.27 177.76 392.59 171.2 401.9Z" fill="#46291C"/>
<path d="M176.28 29.52C176.62 29.15 176.95 28.7799 177.29 28.3999C179.79 37.3199 180.58 46.5399 182 55.6599C180.94 56.4499 181.13 57.65 181.01 58.74C179.31 58.48 179.07 57.09 178.88 55.8C177.79 48.28 176.63 40.76 175.52 33.24C175.33 31.95 175.15 30.58 176.27 29.52H176.28Z" fill="#585654"/>
<path d="M226.09 199.39C226.98 197.44 228.36 200.26 229.3 199.09C229.47 196.19 225.31 194.76 226.81 191.44C230.34 197.78 234.56 203.61 239.49 208.94C236.14 209.45 235.78 205.33 233.09 204.8C231.58 204.73 230.87 203.66 230.21 202.52C229.21 200.98 227.55 200.32 226.09 199.39Z" fill="#38211E"/>
<path d="M184.15 79.54C184.5 79.54 184.84 79.54 185.19 79.54C188.4 87.14 188.99 95.42 191.2 103.27C191.59 104.67 191.75 106.14 192.02 107.58C191.49 107.87 190.99 107.83 190.5 107.49C188.87 106.1 188.45 104.08 188.17 102.17C187.05 94.5899 183.32 87.47 184.15 79.54Z" fill="#283338"/>
<path d="M266.98 273.25L267.14 276.58C267.41 286.35 263.23 294.41 257.42 301.85C257.18 301.62 256.9 301.44 256.6 301.3C256.15 299.06 257.84 297.6 258.58 295.78C261.91 289.83 264.24 283.57 264.88 276.73C265.01 275.31 265.07 273.68 266.98 273.25Z" fill="#48271E"/>
<path d="M214.65 169.58C211.82 169.29 211.73 166.65 210.89 164.88C208.51 159.83 206.45 154.63 204.26 149.49C204.72 149.49 205.18 149.49 205.64 149.49C208.64 156.19 211.64 162.88 214.64 169.58H214.65Z" fill="#51292A"/>
<path d="M64.8701 448.66C73.7101 448.66 82.5499 448.66 91.3899 448.66C82.5499 449.96 73.7101 449.89 64.8701 448.66Z" fill="#182441"/>
<path d="M222.69 184.54C216.98 182.69 217.3 177.43 216.18 172.99C218.35 176.84 220.52 180.69 222.69 184.54Z" fill="#652E34"/>
<path d="M41.0801 70.6101C44.6401 74.1101 47.2399 78.1499 48.1799 83.1299C45.3999 79.1899 42.5001 75.3201 41.0801 70.6101Z" fill="#344644"/>
<path d="M35.6101 62.5801C38.7001 62.8901 38.46 66.9201 41.22 67.6001C41.19 68.6201 41.1501 69.6399 41.1201 70.6599C37.9801 68.8599 37.4101 65.3001 35.6101 62.5801Z" fill="#523133"/>
<path d="M193.94 115.59C194.78 118.85 195.62 122.1 196.46 125.36L196.19 125.55C191.98 123.51 192.16 119.81 192.59 116.02C192.91 115.47 193.36 115.33 193.94 115.6V115.59Z" fill="#2A150E"/>
<path d="M32.1002 45.6001C29.3802 47.1001 30.51 49.76 30.16 51.98C29.06 49.32 25.7302 45.9801 32.1002 45.6001Z" fill="#674244"/>
<path d="M51.1101 87.02C53.1301 89.21 54.8801 91.5399 55.1201 94.6599C52.9001 92.5799 51.4401 90.09 51.1101 87.02Z" fill="#262123"/>
<path d="M164.14 413.87C164.08 410.61 166.1 408.43 168.09 406.23C167.88 409.35 166.18 411.7 164.14 413.87Z" fill="#523023"/>
<path d="M193.94 115.59C193.7 115.59 193.45 115.57 193.21 115.54C189.67 113.62 189.83 110.75 191.17 107.58C191.45 107.56 191.74 107.56 192.02 107.58C192.66 110.25 193.3 112.92 193.94 115.59Z" fill="#162024"/>
<path d="M95.2 427.55C93.17 432.7 91.64 438.13 88.96 442.91C86.98 446.44 86.19 441.94 84.73 441.37C83.58 439.11 82.43 436.85 81.28 434.59C85.86 432.12 90.11 429 95.2 427.55Z" fill="#F6C550"/>
<path d="M163.05 236.46C168.81 242.51 173.02 249.76 178.24 256.23C178.83 256.96 178.48 257.79 178.16 258.56C177.23 259.51 176.07 259.6 174.82 259.36C175.76 259.58 176.7 259.64 177.29 260.52C168.06 280.71 158.84 300.9 149.6 321.09C147.33 326.04 145.01 330.97 142.47 336.45C140.34 332.46 141.74 328.48 140.66 325.11C139.4 321.15 139.98 316.98 137.54 313C134.95 308.77 134.02 303.45 131.62 298.88C129.3 294.46 126.75 290.2 123.69 286.24C114.2 273.97 115.38 277.75 122.54 263.81C124.5 263.46 124.03 266.85 126.61 266.07C121.14 258.85 129.09 253.89 129.3 247.52C131.99 247.1 132.14 250.48 134.37 250.22C135.22 249.73 134.37 249.24 134.21 249.16C130.52 247.22 130.32 244.83 132.04 241.05C137.08 229.98 139.43 218.02 142.7 205.55C148.92 216.72 156.46 226.35 163.15 236.56C162.59 237.25 161.75 236.96 161.05 237.17C161.82 237.23 162.57 237.23 163.04 236.45L163.05 236.46Z" fill="#FEFCFA"/>
<path d="M108.16 169.56C107.09 167.66 104.58 166.97 104.04 164.63C104.7 163.92 105.55 163.49 106.27 162.88C105.45 163.36 104.71 163.94 104.08 164.67C99.5702 161.83 96.4502 157.45 92.3702 154.13C91.4002 153.34 91.6402 152.66 92.0602 151.59C99.0602 133.55 103.95 114.88 108.55 96.1299C108.62 95.8499 108.95 95.6201 109.15 95.3701C112.97 97.9201 115.97 101.38 119.29 104.49C119.13 107.24 121.48 107.56 123.18 108.51C129.55 114.86 135.78 121.34 142.34 127.48C144.86 129.84 146.8 132.54 148.68 135.3C151.12 138.87 149.79 141.37 145.03 142.13C148.4 142.7 148.71 144.47 148.14 147.23C144.84 163.16 142.68 179.25 142.07 195.52C142.02 196.81 141.8 198.09 141.57 200.14C129.91 189.76 119.64 178.97 108.15 169.55L108.16 169.56Z" fill="#FEFBF8"/>
<path d="M180.73 259.7C186.46 284.89 196.47 308.85 200.23 334.49C201.02 339.89 202.67 345.16 203.87 350.5C204.56 353.57 204.39 355.37 200.28 353.82C182.87 347.26 165.23 341.43 146.86 338.14C144.91 337.79 143.27 337.3 144.64 334.65C157.25 310.31 168.04 285.1 179.62 260.27C179.72 260.05 180.16 259.99 180.74 259.71L180.73 259.7Z" fill="#DC6369"/>
<path d="M120.08 102.48C117.05 99.5 114 96.54 111.01 93.52C108.29 90.78 110.76 87.5999 110.36 84.6599C110.75 84.3699 111.16 84.33 111.6 84.5C112.7 84.93 113.39 84.7499 113.72 83.4299C114.16 81.6799 112.97 81.14 111.84 80.49C111.49 79.85 111.45 79.17 111.62 78.47C112.44 76.69 113.44 74.9799 113.45 72.9299C113.45 71.5499 113.63 70.2 115.37 70.01C117.18 69.81 117.47 71.14 117.7 72.51C117.8 73.13 117.95 73.7901 118.99 74.0801C119.36 69.8401 114.4 69.42 113.53 66.26C113.55 62.82 114.2 59.5401 116.07 56.5801C117.98 55.4701 118.43 52.6799 121.26 52.4199C122.87 52.2699 122.47 50.92 121.76 49.75C118.9 45 119.12 44.49 124.5 43.02C125.47 42.75 126.44 42.5801 127.19 41.8501C128.22 42.3701 129.24 42.8899 130.27 43.3999C130.27 44.0699 130.17 44.7301 129.85 45.3301C129.03 46.8601 127.15 48.64 129.57 49.97C131.56 51.06 131.67 48.58 132.45 47.51C134.07 45.28 135.68 47.06 137.29 47.51L137.27 47.4099C139.08 49.7999 138.24 52.5 137.97 55.28C139.92 53.89 137.5 48.93 142.33 50.48L142.3 50.3799C143.48 52.2599 144.11 54.43 147.26 54.29C149.41 54.2 149.81 56 148.39 57.78C147.67 58.68 146.86 59.5501 146.87 60.8101C146.87 61.5001 147.09 62.1501 147.83 62.3701C148.6 62.6001 149.09 62.17 149.29 61.47C149.63 60.23 149.31 58.6499 150.63 57.8999C152.57 56.7999 152.65 58.1801 152.58 59.5901C153 58.6601 152.17 57.4599 153.21 56.6599C156.07 57.8599 158.85 59.19 161.19 61.3C161.46 61.91 161.36 61.07 161.46 61.71C162.23 66.54 164.8 67.83 169.16 65.71C171.65 66.45 172.67 68.0501 171.92 70.5901C166.58 88.8001 161.04 106.95 154.07 124.62C153.74 125.22 153.13 126.02 152.61 125.69C149.62 123.76 146.56 122.64 142.88 123.32C141.68 123.54 140.67 122.61 141.4 121.04C141.85 120.08 143.18 119.09 141.77 118.04C140.32 116.95 139.37 118.28 138.38 119.09C137.99 119.41 137.56 119.63 137.06 119.73L135.12 117.7C134.47 113.24 129.37 108.12 125.07 107.6L123.12 105.64C122.29 103.92 123.85 102.19 123.14 100.43C121.6 100.43 121.55 102.5 120.1 102.49L120.08 102.48Z" fill="#E7952C"/>
<path d="M237.02 295.06C236.61 298.19 239.91 298.52 240.99 298.42C243.21 298.23 244.33 299.47 245.84 300.33C245.3 302.09 244.23 303.58 243.36 305.12C244.65 303.93 244.66 301.77 246.39 300.84C249.25 300.72 251.04 303.11 254.01 303.8C249.28 307.86 245.87 312.57 241.92 316.76C240.58 318.18 240.11 321 236.62 319.97C235.11 319.52 236.04 323.03 234.22 324.45C230.57 327.28 227.99 331.68 224.11 333.96C220.27 336.22 218.35 339.47 215.86 342.69C212.95 346.46 209.33 349.67 206.02 353.13C204.28 351.57 206.66 350.12 206.14 348.59C206.56 346.72 207.11 344.89 208.16 343.11C206.78 343.94 206.9 347.09 204.24 345.33C202.69 338.81 201.54 332.16 199.43 325.83C198.35 322.59 203.84 323.65 201.86 320.71C200.84 319.19 197.44 320.31 197.97 316.86C198.23 315.2 197.34 313.36 196.97 311.6C197.15 308.06 200.65 305.89 200.65 302.63C198.92 304.14 199.92 308.09 196.17 308.48C192.25 294.22 188.3 279.97 184.51 265.67C184.27 264.77 181.92 261.65 186.1 262.55C192.9 265.25 193.99 266.59 193.82 272.19C194.38 270.67 194.61 268.68 196.82 269.17C199.15 269.69 201.03 271 201.87 273.44C202.08 274.05 201.16 276.5 203.31 274.42C203.64 274.1 204.26 274.33 204.74 274.5C207.77 275.58 209.43 280.06 211 280.2C214.88 280.55 216.88 282.07 218.36 285.18C217.33 286.48 216.96 288.17 215.11 290.29C216.98 288.33 217.25 286.74 218.15 285.51C219.01 284.67 220.05 284.8 220.92 285.3C222.83 286.42 225.51 286.93 225.17 290.07C227.04 288.76 228.55 289.7 230.01 290.87C230.81 291.51 231.53 292.33 231.49 293.37C231.36 296.44 232.15 294.23 232.97 293.75C234.67 292.77 236.14 293.17 237.02 295.06Z" fill="#FDFCFB"/>
<path d="M154.24 412.5C154.3 415.64 154.24 418.79 154.44 421.92C154.58 424.18 153.85 424.91 151.62 424.35C136.7 420.59 121.32 419.43 106.3 416.23C104.9 415.93 102.77 416.42 102.25 414.15C101.74 412.47 102.75 411.39 103.76 410.3C107.58 405.86 110.71 400.9 113.14 395.65C121.19 378.32 131.67 362.2 138.52 344.29C139.05 342.91 139.68 341.5 141.29 340.97C144.69 348.03 145.38 355.81 146.99 363.32C150.46 379.54 152.49 396 154.24 412.49V412.5Z" fill="#8DD5D1"/>
<path d="M195.78 181.02C192.36 206.14 187.03 230.35 180.73 254.13C179.3 254.81 178.87 253.9 178.44 253.3C167.42 237.92 155.22 223.39 145.45 207.09C143.1 203.16 143.71 202.45 147.85 201.08C164.23 195.65 180.08 188.85 195.78 181.02Z" fill="#EC8D58"/>
<path d="M259.1 296.54C258.26 298.13 257.43 299.71 256.59 301.3C251.5 301.43 255.37 297.39 254.02 295.78C252.45 290.34 252.24 284.67 251.8 279.12C250.72 265.37 248.52 251.91 244.17 238.99C248.42 255.3 251.32 272.03 253.02 288.97C253.42 292.94 252.83 296.88 252.13 300.79C248.19 298.96 244.25 297.13 240.31 295.31C238.16 287.04 238.93 278.37 236.72 271.99C237.6 278.24 239.79 286.26 239.11 294.54C238.43 294.3 237.75 294.05 237.08 293.81C235.46 294.31 234.44 293.4 233.51 292.28C231.8 284.06 230.72 275.73 229.09 267.49C228.66 263.31 227.18 259.29 226.64 255.13C227.33 259.45 228.36 263.7 229.4 267.96C230.02 273.95 231.24 279.84 232.2 285.77C232.45 287.34 233.3 288.92 232.25 290.5C228.95 291.63 227.09 289.15 224.87 287.57C224.69 287.11 224.6 286.63 224.61 286.13C224.16 278.44 224.48 270.67 221.55 263.26C220.76 261.26 222.19 258.61 220.02 256.83C219.73 256.44 219.54 256.01 219.44 255.54C219.88 251.23 217.29 247.7 216.37 243.74C215.91 241.74 214.43 239.77 216.19 237.7C217.47 236.95 218.74 236.2 220.02 235.45C223.42 237.91 222.62 241.72 223.6 244.94C223.86 242.67 222.58 240.5 222.16 238.23C221.92 236.94 221.22 235.74 222.04 234.44C229.23 230.23 236.43 226.01 243.63 221.8C244.23 221.45 244.83 221.3 245.22 222.12C248.96 228.79 250.26 236.26 252.2 243.51C252.58 244.93 252.67 246.42 253.16 247.83C255.09 256.93 256.18 266.18 257.9 275.32C259.15 282.01 258.25 288.91 259.12 295.67C259.12 295.95 259.11 296.24 259.1 296.52V296.54Z" fill="#84C9C8"/>
<path d="M68.5 119.3C65.39 112.74 62.29 106.19 58.97 99.1899C74.72 95.5599 90.3101 92.3201 106.06 89.8201C107.4 91.1001 108.16 92.63 108.06 94.53C103.11 111.12 98.2199 127.72 93.1699 144.28C90.9499 151.55 90.9599 151.28 84.9199 147.08C81.0399 144.38 78.6601 140.96 76.8401 136.72C74.3101 130.81 71.3 125.1 68.5 119.31V119.3Z" fill="#96D5D1"/>
<path d="M103.64 411.54C103.17 412.41 102.71 413.29 102.24 414.16C101.63 414.24 101.02 414.31 100.42 414.39C100.67 394.87 97.7801 375.7 94.1201 356.6C93.9301 355.62 92.8499 354.49 94.2099 353.46C95.8199 352.24 96.2901 354.7 97.8501 354.43C98.2901 352.46 96.7499 350.59 95.6299 351.15C92.6099 352.65 92.75 349.83 92.56 348.96C92.04 346.66 94.5101 347.07 95.5801 346.87C107.47 344.65 119.39 342.62 131.3 340.57C133.9 340.12 136.52 339.76 139.13 339.36C141.91 340.27 140.05 341.83 139.57 343.06C135.64 353.11 130.76 362.72 125.53 372.13C118.62 384.58 113.45 397.96 105.27 409.71C104.8 410.38 104.48 411.17 103.65 411.52L103.64 411.54Z" fill="#FEFBFA"/>
<path d="M111.31 290.78C111.53 289.69 111.76 288.61 111.98 287.52C112.12 284.03 112.42 280.59 115.55 278.31C125.39 290.26 133.95 302.93 136.97 318.55C136.54 320.26 134.75 320.31 133.44 321.39C134.99 321.47 135.97 320.28 137.26 320.43C139.17 325.1 138.98 330.18 140.13 335C140.59 336.91 139.9 337.59 137.95 337.81C123.34 339.45 109.01 342.83 93.71 345.61C102.58 327.83 109.52 310.1 111.32 290.79L111.31 290.78Z" fill="#F2B138"/>
<path d="M139.98 205.51C128.47 208.53 116.82 210.84 105.02 212.49C101.19 213.03 99.46 212.32 98.49 208.35C96.77 201.32 94.4 194.45 92.3 187.52C90.03 174.47 85.77 161.96 81.74 149.4C81.5 148.66 81.3401 147.89 80.8501 146C90.0101 154.43 98.3299 162.09 106.65 169.76C117.3 179.76 127.97 189.74 138.59 199.77C140.23 201.32 142.42 202.9 139.99 205.51H139.98Z" fill="#DF616C"/>
<path d="M175.24 188.56C165.15 193.64 154.63 197.56 143.09 200.77C144.15 178.87 146.77 157.74 152.16 136.25C165.66 147.33 178.08 158.72 190.13 170.53C191.95 173.71 190.5 175.92 188.38 178.44C185.68 181.65 181.87 183.54 179.32 186.82V186.75C176.67 187.85 175.19 186.08 173.57 183.3C173.08 186.21 174.76 187.16 175.24 188.55V188.56Z" fill="#F3B334"/>
<path d="M111.96 275.56C111.3 256.56 106.66 238.28 101.62 220.1C100.44 215.83 100.89 214 105.67 213.81C117.8 213.31 129.38 209.88 141 206.76C136 224.4 131.02 242.05 123.05 258.66C120.55 263.88 117.92 269.04 115.23 274.16C114.62 275.32 114.28 278.04 111.95 275.55L111.96 275.56Z" fill="#87CDCA"/>
<path d="M176.28 29.5199C177.86 39.2599 179.44 48.9999 181.01 58.7399C178.74 61.9099 184.15 64.22 181.51 67.33C175.88 67.41 170.8 64.6599 165.88 61.5199C164.53 60.6599 162.2 60.36 163.99 57.59C164.77 56.38 162.64 55.95 162.27 56.57C160.25 59.95 158.47 57.2898 156.84 56.4098C145.76 50.4198 135.46 43.0199 122.66 37.7699C129.74 36.9799 135.34 34.59 141.4 33.37C148.97 31.85 156.88 30.1599 164.32 27.4999C167.39 26.3999 170.52 27.0299 173.57 25.9799C176.55 24.9599 175.67 28.0599 176.27 29.5099L176.28 29.5199Z" fill="#FDFCFC"/>
<path d="M189.03 254.27C191.42 253.23 192.72 249.4 196.31 251.41C196.47 251.5 196.83 251.57 196.85 251.54C200.07 244.53 208.15 244.14 213.15 239.56C215.33 238.23 215.84 240.24 216.19 241.41C217.69 246.41 220.24 251.15 220.15 256.57L220.12 256.53C222.86 266.35 225.78 276.14 225.13 286.53H225.15C223.96 287.68 223.09 286.68 222.12 286.11C214.9 281.85 207.98 277.11 201.34 272.01C198 269.44 193.32 268.68 191.16 264.52C190.58 261.08 188.09 258.03 189.03 254.27Z" fill="#87CCC9"/>
<path d="M181.06 129.47C180.81 129.62 180.55 129.67 180.27 129.63C176.47 131.04 176.05 128.37 175.71 125.77C174.33 115.21 172.74 104.67 172.7 93.99C172.7 91.22 172.35 88.49 172.31 85.74C172.33 98.48 173.34 111.19 173.63 123.93C173.68 126.24 173.84 128.64 172.16 130.6C170.28 131.8 169.01 131.42 168.43 129.19C168.99 132.33 166.41 131.56 164.88 131.93C162.97 132.39 161 132.62 159.06 132.95C157.29 133.26 155.53 133.59 152.84 134.07C154.28 129.76 155.51 126.11 156.72 122.46C161.86 107.04 167.02 91.6299 172.12 76.1999C172.64 74.6399 173.1 72.9901 173.19 71.3601C173.38 68.0501 174.8 67.7101 177.3 69.3201C179.3 72.4801 178.27 76.0099 178.5 79.3799C178.71 82.4699 178.15 85.5899 178.97 88.6499C179.15 89.2299 179.27 89.8099 179.34 90.4099C179.83 101.92 180.25 113.44 182.12 124.84C182.4 126.54 182.34 128.14 181.04 129.46L181.06 129.47Z" fill="#7FC4BF"/>
<path d="M251.93 247.58C249.7 239.1 247.47 230.62 245.23 222.13C246.18 221.22 246.05 219.12 248.15 219.49C251 224.11 253.8 228.76 256.7 233.36C264.4 245.56 267.67 258.89 266.97 273.25C265.42 279.4 265.2 285.9 262.17 291.66C261.27 293.36 260.84 295.37 259.09 296.54L259.11 296.56C257.21 288.78 258.87 280.72 257.16 272.9C255.32 264.48 255.06 255.74 251.92 247.58H251.93Z" fill="#6DBDBE"/>
<path d="M198.23 135.52C197.16 136.1 196.91 137.11 197.4 138.04C201.24 145.26 200.05 153.05 200.08 160.7C200.09 163.18 200.29 165.6 202.12 167.54L202.15 167.58C201.57 171.81 204.9 175.41 204.11 179.68C202.22 179.99 201.53 178.05 200.09 177.54L200.16 177.58C199.17 174.25 195.96 173.12 193.68 171.09C190.34 168.12 186.61 165.58 184.04 161.81C183.63 161.09 182.99 160.39 182.99 159.57C183.01 151.44 181.2 143.39 181.79 135.23C181.89 133.87 182.2 132.61 183.14 131.57C184.66 130.63 186.33 130.56 188.05 130.7C189.89 132.57 189.52 134.94 189.59 137.24C189.78 144.14 188.98 151.1 190.89 157.9C189.01 150.25 189.72 142.48 189.71 134.74C189.71 133.22 190.1 131.79 191.25 130.68C196.45 128.8 196.79 129.04 198.24 135.52H198.23Z" fill="#DF646C"/>
<path d="M156.03 414.54C155.76 413.87 155.49 413.2 155.21 412.53C154.25 392.7 150.66 373.25 146.66 353.87C145.72 349.31 144.75 344.76 143.72 339.86C148.08 339.14 152.02 341.21 156.14 341.77C155.57 344.6 157.4 346.91 159.08 348.16C161.91 350.26 160.28 352.33 159.95 354.33C159.5 357.07 157.06 356.46 155.14 356.55C152.68 354.35 154.05 352.26 155.43 349.99C153.91 350.89 153.93 353.56 150.47 352.52C152.59 354.34 154.02 355.29 155.15 356.54C154.61 359.12 154.23 361.26 157.58 362.69C161.38 364.3 161.04 369.15 163.48 372.03C163.99 372.63 163.08 374.04 162.07 374.31C160.48 374.72 158.73 375 157.28 373.94C156.06 373.05 156.98 372.18 157.68 371.51C159.54 369.74 156.3 368.09 157.6 366.35C157.14 366.43 156.61 366.38 156.25 366.6C154.77 367.5 154.41 368.8 154.99 370.44C155.74 372.57 154.39 373.29 152.42 373.6C157.59 375.92 158.39 377.86 156.51 383.01C155.29 386.35 159.82 393.44 164.31 395.27C165.34 395.69 166.35 396.19 168.61 397.22C163.34 397.87 159.36 396 155.51 398.41C161.17 403.62 158.47 409.09 156.02 414.56L156.03 414.54Z" fill="#F3A035"/>
<path d="M96.36 23.7199C95.68 19.0999 99.7199 19.9799 101.99 19.1799C105.22 18.0499 103.75 21.4701 104.72 22.6201C105.41 23.4301 104.79 25 106.17 25.55C106.79 27.55 107.02 29.6499 107.66 31.6499C107.08 29.6499 106.88 27.5501 106.13 25.5901C106.13 24.6001 106.04 23.5901 106.17 22.6201C106.38 21.0101 103.74 19.0801 106.37 17.8501C108.74 16.7501 111.41 15.15 113.8 18.03C115.25 18.53 115.13 19.84 115.36 20.98C115.71 24.7 116.8 28.25 117.91 31.79C118.27 32.87 119.08 33.93 118.09 35.08C117.88 39.72 113.38 37.9899 111.21 39.7099C110.62 39.9599 110 40.0899 109.43 40.4599C104.13 43.8999 102.22 43.3199 99.9999 37.6399C99.7599 37.0299 99.4999 36.44 99.2599 35.83C97.8899 31.89 95.98 28.0799 96.37 23.7199H96.36Z" fill="#E46475"/>
<path d="M178.19 69.6C183.84 68.97 183.13 72.9999 183.21 76.4499C185.47 92.2199 186.16 108.15 188.35 123.93C188.59 125.63 188.31 127.25 187.16 128.62C185.65 129.72 183.9 129.44 182.2 129.49C180.74 122.1 180.05 114.64 179.49 107.13C179.06 101.28 179.09 95.36 178.12 89.55L178.15 89.62C177.35 82.95 177.3 76.28 178.18 69.62L178.19 69.6Z" fill="#7EC6C1"/>
<path d="M187.16 128.62C185.89 116.69 184.46 104.77 183.42 92.8101C182.95 87.3901 183.26 81.91 183.21 76.46C183.52 77.49 183.83 78.52 184.15 79.54C186.82 88.8 188.01 98.4401 191.17 107.58C191.51 110.32 191.63 113.12 193.21 115.54C193.26 119.15 193.99 122.57 196.19 125.54C194.28 129.8 190.38 128.2 187.16 128.61V128.62Z" fill="#6DB0AE"/>
<path d="M183.14 131.57C182.42 141.68 184.81 151.7 184.04 161.81C179.22 158.23 174.59 154.46 171.18 149.43C169.36 147.53 169.74 145.1 169.78 142.84C169.84 139.63 168.64 136.68 168.23 133.58C172.05 132.07 176.15 132.29 180.12 131.72C176.89 139.01 180.57 146.27 180.16 153.55C180.77 148.84 181.01 144.13 180.21 139.41C179.77 136.8 179.32 134.14 181.11 131.77C181.79 131.7 182.46 131.63 183.14 131.56V131.57Z" fill="#DA646A"/>
<path d="M191.4 218.6C192.74 221.04 191.78 224.11 193.84 226.48C194.79 227.58 193.4 228.78 192.23 229.6C189.28 231.65 189.01 233.77 192.53 235.46C194.08 236.21 195.03 237.3 194.72 238.9C194.41 240.45 192.9 240.62 191.52 240.62C190.22 240.62 188.97 240.98 189.38 242.53C189.81 244.15 191.03 245.44 192.69 245.93C193.43 246.14 194.62 245.53 194.47 244.67C194.11 242.59 194.21 240.67 196.72 240.75C198.96 240.82 199.97 242.76 200.31 244.89C194.45 248.63 188.59 252.38 182.35 256.36C185.43 243.51 188.42 231.05 191.41 218.59L191.4 218.6Z" fill="#F6C151"/>
<path d="M160.18 8.62997C160.13 2.82997 161.44 1.74008 167.26 2.00008C169.44 2.10008 169.06 3.62004 169.28 4.71004C170.6 11.3 172.1 17.86 172.25 24.63C169.49 24.27 166.75 27.02 163.97 24.69C160.76 20.08 160.51 14.7 160.03 9.37997C160.08 9.12997 160.14 8.87997 160.19 8.62997H160.18Z" fill="#E56374"/>
<path d="M118.08 35.08C117.77 34.3 117.47 33.52 117.16 32.74C116.4 28.6 115.37 24.53 114.14 20.51C114.02 19.68 113.91 18.85 113.8 18.03C113.24 14.09 116.75 14.72 118.68 14.03C121.75 12.95 120.27 17.0901 122.18 17.6201C122.36 17.7901 122.53 17.9501 122.72 18.1101C124.39 21.3301 124.14 25.25 126.41 28.25C127.15 29.72 127.43 31.17 126.15 32.51C126.69 35.95 123.7 35.61 121.87 36.56C119.96 37.56 118.91 36.68 118.08 35.08Z" fill="#E86777"/>
<path d="M126.14 32.5099C125.98 31.2099 125.83 29.91 125.67 28.61C123.43 25.26 123.66 21.1199 122.13 17.5399L122.18 17.61C122.85 15.97 120.81 13.7799 123.61 12.4799C127.86 10.5099 129.12 10.96 130.09 15.62C130.26 16.43 130.25 17.2598 131.18 17.6298L131.13 17.5399C132.23 20.4899 131.66 23.91 133.67 26.6C133.84 27.94 134 29.2898 134.17 30.6298C132.03 34.6098 129.09 35.2899 126.14 32.4999V32.5099Z" fill="#E76A79"/>
<path d="M172.15 130.61C172.32 114.94 170.6 99.2899 171.88 83.6699C172.7 83.8699 172.98 84.9501 173.01 85.8201C173.45 99.2501 176 112.45 177.13 125.79C177.32 128.05 177.45 129.78 180.27 129.63C177.69 130.96 174.89 130.53 172.16 130.6L172.15 130.61Z" fill="#6CA6A1"/>
<path d="M192.09 264.71C203.1 271.99 213.37 280.39 225.15 286.51C226.61 288.65 229.08 289.29 231.12 290.56C232.32 290.88 233.44 291.34 234.28 292.3C235.22 292.8 236.15 293.3 237.09 293.8C237.07 294.22 237.05 294.64 237.03 295.06C235.04 294.32 233.04 293.25 232.25 296.62C232.04 297.5 231.19 299.06 229.75 298.05C228.49 297.17 229.85 296.41 230.27 295.63C231.46 293.4 230.4 292.28 228.48 291.01C225.29 288.89 226.07 293.13 224.02 293.29C225.46 288.14 222.14 286.59 218.16 285.58L218.26 285.68C216.79 283.32 214.22 282.36 211.97 280.65C210.6 281.38 212.15 284.14 210.29 283.87C208.39 283.59 209.59 281.86 209.6 280.64C209.65 277.4 206.5 276.86 204.57 275.49C201.45 273.26 203.4 279.08 200.53 277.87C202.24 273.26 199.78 270.92 195.46 269.8C194.15 271.41 196.27 275.36 193.37 274.92C190.85 274.54 192.23 271.45 193.14 269.47C193.86 267.91 192.41 267.54 191.55 266.87C189.74 265.44 187.93 264.01 186.12 262.58C186.44 262.31 186.77 262.05 187.09 261.78C189.85 260.94 190.7 263.29 192.09 264.75V264.71Z" fill="#313233"/>
<path d="M100.16 35.6001C100.4 35.8201 100.74 36 100.85 36.27C103.47 42.49 103.44 42.4599 109.16 38.4399C110.39 37.5699 110.15 39.83 111.19 39.7C111.9 40.04 112.62 40.38 113.33 40.72C111.1 44.1 107.14 43.65 103.97 44.96C100.47 45.8 97.0999 47.06 93.7199 48.26C92.4399 48.76 91.17 49.2699 89.86 49.6899C89.02 49.9799 88.18 50.26 87.34 50.54C85.66 51.03 84.1199 51.87 82.4899 52.46C81.6699 52.76 80.8399 53.0401 80.0299 53.3401C78.5699 53.8301 77.1098 54.3 75.6598 54.79C74.1898 55.26 72.71 55.7001 71.3 56.3401C70.05 56.8901 68.7999 57.4199 67.5099 57.8799C64.3899 58.7799 61.7999 61.4 58.1999 60.77C57.9399 60.5 57.8498 60.23 57.9198 59.95C57.9898 59.66 58.0598 59.52 58.1498 59.52C60.7098 58.07 62.7899 56.4401 60.7099 52.8701C61.1799 53.4901 61.81 54.04 62.1 54.73C63.26 57.49 65.05 55.8399 66.62 55.4199C68.71 54.8699 68.34 53.3499 67.84 51.8799C67.21 50.0299 66.51 48.2001 65.84 46.3601C68.39 45.9701 68.67 48.2499 69.54 49.6599C70.88 51.8199 72.53 52.1899 74.55 50.8999C76.41 49.7099 78.38 48.9801 80.54 48.6001C82.88 48.1901 83.4099 46.7501 82.7299 44.5601C82.0999 42.5301 80.9799 40.56 81.5099 38.3C81.6999 37.86 82.0099 37.5301 82.4399 37.3201C84.9699 38.0201 84.98 40.44 85.83 42.28C86.48 43.69 86.53 45.77 88.8 45.51C91.1 45.25 91.52 43.53 91.35 41.54C91.31 41.05 91.43 40.5701 91.58 40.1001C91.8 39.6701 92.15 39.4 92.62 39.3C93.3 39.46 93.8199 39.8599 94.2099 40.4199C95.1099 41.7099 96.0598 42.8799 97.8798 42.1299C99.7298 41.3699 99.3299 39.76 99.2699 38.28C99.2199 37.27 99.3099 36.2801 100.19 35.5701L100.16 35.6001Z" fill="#572021"/>
<path d="M168.22 133.58C171.27 135.09 170.7 138.14 171.01 140.65C171.36 143.54 171.14 146.49 171.18 149.42C164.86 146.11 161.06 139.77 154.01 135.97C159.28 134.25 163.66 133.43 168.22 133.57V133.58Z" fill="#EE6771"/>
<path d="M103.11 43.98C106.52 42.9 109.93 41.81 113.34 40.73C114.92 40.38 116.51 40.0399 118.09 39.6899C120.77 44.4699 117.96 48.9301 116.96 53.3501C116.22 56.6301 115.03 59.9099 113.95 63.1499C112.35 65.2699 110.26 65.6599 108.4 63.8799C106.6 62.1599 107.88 60.92 109.47 59.47C110.83 58.22 108.54 57.9901 107.95 57.3101C106.78 55.9501 105.94 54.53 106.72 52.79C107.43 51.2 108.5 50.2501 110.64 50.6001C112.49 50.9001 112.55 50.54 111.74 45.96C109.5 47.38 107.78 50.54 104.53 48.54C102.91 47.55 101.68 46.09 103.12 43.98H103.11Z" fill="#EEBF4A"/>
<path d="M146.87 6.48994C148.75 5.96994 150.75 5.69007 152.48 4.87007C156.78 2.82007 159.34 3.84983 160.18 8.62983L160.11 8.52998C160.94 12.63 161.41 16.79 162.53 20.85C163.01 22.59 163.57 24.7001 161.9 26.3701C156.46 28.0601 156.57 24.0099 156 20.6699C153.47 16.3099 154.15 11.01 151.88 6.58003C150.21 6.55003 148.54 6.51994 146.88 6.48994H146.87Z" fill="#E76A7B"/>
<path d="M103.64 411.54C116.31 389.18 128.11 366.37 138.87 343.02C139.33 342.01 141.55 340.72 139.12 339.36C141.19 338.09 141.05 339.78 141.28 340.97C131.89 363.72 119.91 385.16 108.14 406.7C107.11 408.59 106.25 410.97 103.64 411.53V411.54Z" fill="#222C2C"/>
<path d="M137.04 119.72C138.1 118.18 138.24 115.62 140.83 115.7C142.65 115.76 143.79 117.3 144.52 118.7C145.84 121.24 141.85 120.05 142.05 122.79C146.67 119.8 150.05 123.57 154.04 124.6C153.22 127.4 152.4 130.19 151.39 133.66C146.11 128.99 141.32 124.62 137.04 119.71V119.72Z" fill="#F6B43A"/>
<path d="M93.1101 379.44C93.4101 378.71 94.2999 377.97 93.6699 377.19C92.8499 376.17 91.93 376.64 91.2 377.49C90.47 378.34 89.5999 378.82 88.6899 377.88C88.0299 377.2 88.1999 376.35 88.9299 375.72C89.5999 375.14 90.16 374.55 89.49 373.64C88.94 372.9 88.2701 373.72 87.8501 373.6C86.4901 373.2 87.3001 372.22 87.8201 371.87C89.3201 370.87 90.96 370.08 92.77 369.07C91.33 367.18 90.67 365.81 91.46 363.03C92.91 357.93 88.06 362.32 86.48 360.65C86.79 358.41 90.02 357.09 89.05 354.26C89.51 353.61 89.9599 352.41 90.4199 352.41C91.7699 352.41 91.54 353.83 91.7 354.68C93.04 362.02 95.3901 369.19 95.3101 376.76C95.3101 377.36 95.7199 377.96 95.9399 378.56C95.3199 379.91 94.4801 380.54 93.1101 379.43V379.44Z" fill="#F5C552"/>
<path d="M179.32 186.82C180.14 185.05 177.53 180.47 182.99 182.46C184.24 182.92 184.58 181.89 184.34 180.68C184.09 179.43 184.54 178.08 185.75 177.91C190.4 177.24 189.9 173.7 190.14 170.53C198.9 176.83 198.87 177.65 189.23 182.51C186.02 184.13 182.63 185.39 179.33 186.82H179.32Z" fill="#F1CE5F"/>
<path d="M181.11 131.78C181.26 140.05 182.9 148.29 181.85 156.67C179.19 156.8 178.09 155.37 178.23 153.03C178.55 147.52 177.75 142.09 177.14 136.66C176.85 134.03 177.94 132.66 180.11 131.72C180.44 131.74 180.77 131.76 181.11 131.78Z" fill="#EB7377"/>
<path d="M106.12 88.47C105.79 88.18 105.46 87.9001 105.13 87.6101C102.85 85.9401 99.8501 85.2301 98.3501 82.5301C98.0901 81.5401 98.1499 80.5501 98.4599 79.6001C99.2999 77.0301 100.2 73.93 103.71 75.23C106.85 76.4 105.92 79.15 104.59 82.01C105.96 80.35 105.84 78.8499 105.76 77.3799C105.51 72.5399 106.88 71.5601 111.78 73.1101C112.24 77.2301 111.47 81.0701 109.28 84.6101C108.83 86.3901 109.37 88.98 106.12 88.49V88.47Z" fill="#F3B83E"/>
<path d="M178.07 347.8C175.99 350.93 173.61 353.5 169.32 352.5C166.88 351.93 165.52 350.89 167.89 348.58C168.41 348.07 168.84 347.59 168.26 347C167.98 346.71 167.16 346.51 166.91 346.7C161.15 351.13 160.67 344.7 158.16 342.48C165.02 343.4 171.58 345.49 178.07 347.8Z" fill="#EFAA3E"/>
<path d="M153.18 56.6599C153.33 58.6699 153.49 60.6901 153.67 63.0901C151 61.9301 153.27 59.38 151.27 58.27C149.07 59.65 153.25 64.4399 148.44 64.3799C147.16 64.3599 145.76 63.8399 145.29 62.3799C144.31 59.2699 146.46 57.58 148.9 55.54C143.91 56.78 141.54 55.3299 142.27 50.3799C145.91 52.4799 149.54 54.5699 153.18 56.6699V56.6599Z" fill="#F3C33F"/>
<path d="M109.28 84.5901C109.87 80.6001 110.45 76.6101 111.04 72.6201C110.44 71.5201 110.9 70.42 111.01 69.31C111.11 68.64 111.26 67.9801 111.45 67.3301C111.84 66.0401 112.1 64.6801 112.99 63.6001C115.04 55.7001 117.71 47.9399 118.09 39.6799C119.5 38.3699 119.2 40.7201 120.05 40.6001C120.67 46.1801 119.37 51.3999 117.03 56.4199C116.18 59.8399 115.33 63.2599 114.48 66.6799C114.45 70.7699 113.7 74.7301 112.33 78.5701C112.21 79.1601 112.09 79.7501 111.97 80.3501C112.31 81.8501 112.49 83.33 111.14 84.5C110.88 84.57 110.62 84.6299 110.36 84.6699C110 84.6499 109.64 84.6301 109.28 84.6001V84.5901Z" fill="#4C350F"/>
<path d="M117.03 56.4199C118.04 51.1499 119.04 45.8801 120.05 40.6001C122.69 39.5101 124.87 41.0801 127.18 41.8501C127.64 45.0601 125.02 43.7801 123.62 44.3101C122.42 44.7601 120.8 44.7899 120.53 46.3799C120.28 47.8199 121.49 48.2601 122.66 48.6201C124.67 49.2301 124.25 50.9001 124.05 52.3201C123.86 53.6701 122.99 54.2801 121.55 53.8601C119.06 53.1301 118.45 54.8999 117.86 56.6899C117.84 56.7499 117.54 56.78 117.4 56.74C117.25 56.69 117.14 56.5399 117.02 56.4399L117.03 56.4199Z" fill="#EFCC55"/>
<path d="M98.22 407.6C95.7 405.65 91.19 404.31 96.74 400.4C98.01 399.51 96.7801 397.42 95.1001 396.45C93.5301 395.54 91.71 394.4 92.48 392.25C93.25 390.08 95.44 390.63 97.21 390.59C98.39 396.21 98.51 401.9 98.23 407.61L98.22 407.6Z" fill="#F6D075"/>
<path d="M137.27 47.5C135.62 47.89 132.8 45.8901 132.89 49.8701C132.92 50.9701 132.14 52.5899 130.4 52.3799C128.79 52.1899 127.87 50.9601 127.15 49.6201C126.49 48.4101 126.02 47.32 127.6 46.25C128.65 45.54 129.39 44.3699 130.27 43.3999C132.88 44.2999 135.38 45.38 137.28 47.5H137.27Z" fill="#F2CA46"/>
<path d="M125.05 107.59C127.8 105.42 130.1 104.98 131.1 109.22C131.33 110.2 131.37 111.42 132.63 111.4C139.11 111.33 135.99 114.93 135.1 117.69C131.75 114.32 128.4 110.96 125.05 107.59Z" fill="#F5C758"/>
<path d="M173.33 24.3701C172.89 17.0001 172.01 9.68009 170.85 2.34009C175.12 8.70009 174.17 16.4099 175.92 23.4099C175.06 23.7299 174.2 24.0501 173.33 24.3701Z" fill="#E16E7A"/>
<path d="M194.32 202.58C195.43 203.02 194.61 205.28 196.85 204.89C198.82 204.54 199.23 206.3 199.09 207.88C198.91 209.83 197.85 210.3 196 209.57C193.55 208.6 193.69 210.9 194.41 211.54C199.97 216.46 193.61 215.34 191.96 216.57C192.74 211.91 193.53 207.25 194.31 202.59L194.32 202.58Z" fill="#F2CB68"/>
<path d="M191.24 130.68C190.76 139.66 189.06 148.62 190.83 157.68C188.49 148.81 188.98 139.68 188.05 130.7C189.11 130.7 190.18 130.68 191.24 130.68Z" fill="#993B3E"/>
<path d="M192.09 264.71C190.42 263.72 188.76 262.73 187.09 261.74C185.75 260.59 184.41 259.43 182.66 257.92C184.96 256.6 186.99 255.44 189.03 254.27C190.22 257.7 191.92 260.98 192.09 264.71Z" fill="#95D6D4"/>
<path d="M178.13 89.54C180.58 93.92 179.42 98.89 179.82 103.47C180.58 112.14 181.64 120.8 182.21 129.49C181.83 129.49 181.45 129.49 181.07 129.48C180.09 119.65 179.03 109.82 178.18 99.98C177.88 96.53 178.13 93.03 178.13 89.55V89.54Z" fill="#4E8481"/>
<path d="M195.37 195.49C197.12 196.22 199.21 193.52 200.76 195.98C201.63 197.37 202.82 199.08 201.37 200.47C199 202.76 196.96 200.75 195 199.37C195.12 198.07 195.25 196.78 195.37 195.49Z" fill="#F4DB69"/>
<path d="M169.13 65.71C169.03 65.84 168.95 66.0401 168.82 66.0901C166.61 66.8401 164.58 70.16 162.64 68.76C160.77 67.4 160.76 64.0101 161.16 61.3101C163.82 62.7801 166.47 64.25 169.13 65.72V65.71Z" fill="#F3DB63"/>
<path d="M142.31 50.47C139.67 50.58 139.5 52.0299 140.08 54.1799C140.46 55.5799 139.77 56.8101 138.33 57.3501C137.51 57.6601 136.67 57.4801 136.05 56.8201C134.7 55.3601 136 54.62 136.79 53.54C138.15 51.68 136.55 49.4199 137.25 47.3999C139.22 47.9499 141 48.83 142.31 50.47Z" fill="#F2CA46"/>
<path d="M196.18 308.47C197.75 305.92 200.05 303.73 199.84 300.33C199.78 299.37 200.39 298.09 201.57 298.41C202.89 298.77 202.92 300.02 202.47 301.26C201.8 303.11 199.04 304.67 202.01 307.08C202.86 307.76 201.19 308.4 200.32 308.76C198.92 309.34 196.88 309.21 196.98 311.59C195.91 310.76 195.96 309.64 196.18 308.47Z" fill="#676865"/>
<path d="M175.24 188.56C173.57 188.48 172.46 187.68 172.15 185.99C171.91 184.67 170.53 183.06 172.5 182.14C174.28 181.31 175.39 182.86 175.79 184.16C176.39 186.08 177.53 186.74 179.33 186.76C178.16 187.8 176.81 188.43 175.24 188.56Z" fill="#F1CE5F"/>
<path d="M220.15 256.57C218.78 252.05 217.44 247.53 216.01 243.03C215.54 241.54 215.32 239.71 213.15 239.56C214.17 238.94 215.2 238.32 216.22 237.7C216.66 242.03 218.4 245.99 220.02 249.93C220.99 252.3 220.97 254.33 220.16 256.56L220.15 256.57Z" fill="#609497"/>
<path d="M98.9099 414.28C95.9299 414.96 93.61 413.15 91.05 412.22C91.07 409.16 93.85 410.5 95.23 409.61C96.23 409.26 97.23 408.92 98.24 408.57C98.46 410.47 98.6899 412.38 98.9099 414.28Z" fill="#F2D7A2"/>
<path d="M120.08 102.48C120.4 101.73 120.82 101.01 121.02 100.23C121.34 99.0099 121.1 97.3299 123.28 98.1999C124.72 98.7699 125.42 99.83 124.98 101.28C124.52 102.78 123.74 104.19 123.11 105.63C122.1 104.58 121.1 103.53 120.09 102.47L120.08 102.48Z" fill="#F4CC5A"/>
<path d="M204.25 345.33C206.42 344.93 206.17 342.52 207.5 341.43C208.04 340.99 208 339.63 209.22 340.23C210.35 340.79 210.47 341.84 209.94 342.76C208.77 344.76 207.43 346.65 206.15 348.59C204.61 348.03 203.86 347.01 204.25 345.33Z" fill="#4D504E"/>
<path d="M148.14 23.6299C145.63 18.8399 145.67 13.5701 144.22 8.59009C144.74 8.48009 145.27 8.37002 145.79 8.27002C146.85 13.42 147.91 18.58 148.97 23.73C148.69 23.73 148.42 23.6899 148.14 23.6399V23.6299Z" fill="#802A33"/>
<path d="M142.11 29.6001C139.81 23.8501 137.83 18.0201 138.59 11.6201C140.08 17.6201 141.57 23.6101 143.06 29.6101L142.59 29.6399L142.12 29.6001H142.11Z" fill="#6F1E25"/>
<path d="M161.9 26.3701C162.88 22.3501 161.23 18.6701 160.47 14.8601C160.06 12.8101 160.22 10.64 160.12 8.53003C162.34 13.69 162.68 19.2999 163.97 24.6899C163.28 25.2499 162.6 25.8101 161.91 26.3701H161.9Z" fill="#6B252B"/>
<path d="M93.1102 379.44C94.2102 379.67 95.06 379.08 95.94 378.57C96.08 380.21 96.2202 381.86 96.3602 383.5C94.6802 382.97 92.3001 384.58 91.3201 382.09C90.7701 380.71 91.4802 379.62 93.1202 379.44H93.1102Z" fill="#F7DA85"/>
<path d="M137.25 320.43C136.93 320.79 136.65 321.21 136.27 321.49C135.04 322.38 134.15 324.14 132.16 323.2C131.29 322.79 131.11 321.96 131.26 321.16C131.71 318.77 133.85 319.88 135.2 319.34C135.8 319.1 136.38 318.82 136.97 318.56C137.06 319.18 137.16 319.81 137.25 320.44V320.43Z" fill="#F9DB8A"/>
<path d="M151.87 6.58012C154.53 6.50012 153.27 8.84992 153.59 9.87992C154.69 13.3799 155.23 17.06 155.99 20.68C155.68 20.66 155.37 20.6301 155.06 20.5901C153.15 16.1101 152.68 11.3101 151.86 6.59013L151.87 6.58012Z" fill="#6B252B"/>
<path d="M178.19 69.6C178.18 76.27 178.17 82.9401 178.16 89.6C175.96 82.9201 177.5 76.09 177.31 69.33C177.64 69.29 177.94 69.38 178.19 69.6Z" fill="#4E8481"/>
<path d="M222.07 234.45C222.22 238.21 224.62 241.6 223.99 246.28C222.03 242.37 222.23 238.46 220.05 235.45C220.72 235.12 221.4 234.78 222.07 234.45Z" fill="#56858B"/>
<path d="M123.19 108.51C122.08 108.54 120.91 108.81 119.89 108.54C118.89 108.27 117.6 107.65 117.21 106.82C116.32 104.93 119.41 106.05 119.3 104.5C121.03 105.42 122.27 106.81 123.19 108.52V108.51Z" fill="#727273"/>
<path d="M97.04 389.4C95.95 388.38 93.3899 389.05 93.4299 386.99C93.4699 384.92 95.6201 385.84 96.8501 385.45C96.9101 386.77 96.98 388.09 97.04 389.4Z" fill="#F6D075"/>
<path d="M177.29 260.52C175.5 260.43 173.73 260.28 171.9 259.19C173.87 256.73 176.17 258.95 178.16 258.56C178.26 259.39 178.3 260.19 177.29 260.52Z" fill="#626261"/>
<path d="M170.79 373.77C165.15 371.85 165.68 364.37 160.01 362.3C158.85 361.88 157.5 359.95 158.97 358.61C160.37 357.34 163.01 358.3 163.22 359.48C163.87 363.2 167.17 364.03 169.21 366.21C171.27 368.41 171.69 371.13 170.8 373.76L170.79 373.77Z" fill="#F3A035"/>
<path d="M222.87 215.66C222.5 216.75 221.9 217.26 220.96 216.84C219.31 216.1 217.21 215.36 217.59 213.16C217.88 211.47 218.92 209.78 220.01 208.4C221.04 207.08 222.67 207.17 224.03 208.16C224.97 208.84 224.85 209.68 224.42 210.77C223.78 212.41 217.59 212.38 222.87 215.66Z" fill="#F6D35C"/>
<path d="M230.21 202.52C231.17 203.28 232.13 204.04 233.09 204.8C232.92 206.09 232.9 207.42 232.54 208.65C232.24 209.66 232.28 211.08 230.81 211.35C229.48 211.6 228.69 210.73 227.98 209.8C227.07 208.59 227.07 207.38 228.07 206.23C229.02 205.13 230.27 204.2 230.22 202.52H230.21Z" fill="#F5D973"/>
<path d="M217.13 192C220.24 193.32 221.69 196.4 224.04 198.53C219.31 198.44 212.56 193.02 212.02 188.87C214.77 188.21 215.51 190.82 217.13 192Z" fill="#ECD174"/>
<path d="M206.79 197.46C204.99 197.18 204.09 196.2 204.13 194.42C204.19 192.08 205.97 191.24 207.74 190.98C209.7 190.7 210.05 192.4 210.13 193.98C210.25 196.36 208.62 197.03 206.79 197.46Z" fill="#F5E263"/>
<path d="M209.12 203.67C209.24 205.42 208.68 206.55 206.69 206.55C204.85 206.55 203.36 206.08 203.21 203.95C203.08 202.02 204 200.75 206.02 200.66C208.04 200.57 209.01 201.72 209.12 203.67Z" fill="#F7E463"/>
<path d="M213.11 222.51C213.03 224.36 212.09 225.92 210.37 226.12C208.49 226.35 207.31 224.75 207.36 222.97C207.4 221.19 208.72 219.89 210.49 219.67C212.38 219.44 213.01 220.83 213.11 222.5V222.51Z" fill="#F4DA5C"/>
<path d="M217.13 192C215.27 191.21 214.16 189.19 212.02 188.87C208.58 184.53 203.25 182.18 200.09 177.54C202.01 177.16 202.53 179.43 204.11 179.68C204.75 181.02 205.83 181.85 207.16 182.4C208.25 182.17 208.79 182.67 208.9 183.73C211.45 186.68 215.49 188.14 217.12 192H217.13Z" fill="#2A150E"/>
<path d="M206.1 216.61C205.99 218.47 205.09 219.48 203.27 219.47C201.38 219.46 200.49 218.17 200.56 216.57C200.63 214.96 201.78 213.76 203.49 213.72C205.38 213.67 206.01 215.02 206.11 216.61H206.1Z" fill="#F2DB73"/>
<path d="M199.18 231.69C199.18 233.81 198.69 235.23 196.79 235.3C195.11 235.36 194.62 233.88 194.41 232.58C194.12 230.76 195.16 229.74 196.92 229.61C198.67 229.48 199.22 230.59 199.18 231.69Z" fill="#F9DB6A"/>
<path d="M214.04 197.59C215.93 197.68 216.22 198.88 216.15 200.36C216.07 202.2 214.84 203.13 213.26 203.16C211.59 203.19 211.16 201.77 211.22 200.32C211.29 198.51 212.36 197.66 214.05 197.59H214.04Z" fill="#F5E761"/>
<path d="M219.16 223.46C216.98 223.29 217.09 221.7 217.1 220.21C217.1 219.03 217.22 217.72 218.81 217.79C220.9 217.88 221.47 219.68 221.7 221.23C221.94 222.85 220.58 223.39 219.15 223.46H219.16Z" fill="#F8DE66"/>
<path d="M206.14 228.47C206.04 229.98 205.5 231.33 203.87 231.09C202.35 230.86 201.24 229.65 201.29 227.95C201.33 226.68 202.16 225.76 203.47 225.7C205.34 225.61 206 226.86 206.14 228.47Z" fill="#F3D96F"/>
<path d="M216.96 208.55C216.4 209.77 216.37 211.42 214.88 211.15C213.37 210.88 212.34 209.59 212.3 207.94C212.27 206.87 212.93 205.91 214.04 205.9C215.84 205.87 216.42 207.31 216.96 208.56V208.55Z" fill="#F5E26D"/>
<path d="M224.22 199.44C224.52 200.37 224.96 201.28 225.09 202.23C225.27 203.54 224.67 204.47 223.23 204.58C222.26 204.65 221.13 204.81 220.56 203.83C219.76 202.46 220.83 201.78 221.81 201.11C222.62 200.56 223.4 199.95 224.19 199.37L224.22 199.44Z" fill="#ECD174"/>
<path d="M99.1799 82.52C100.75 84.7 104 84.9101 105.13 87.6101C104.67 87.6701 104.21 87.73 103.75 87.78C88.43 78.36 71.8201 71.2799 56.6001 61.6799C56.2501 61.4599 55.6299 61.6399 55.1399 61.6399C55.3599 59.8199 56.5099 59.34 58.1399 59.54C58.2499 59.94 58.36 60.34 58.48 60.74C61.52 61.18 63.72 63.4099 66.47 64.4599C68.01 65.2799 69.6001 66.0101 71.1201 66.8701C72.0101 67.4301 72.82 68.1099 73.74 68.6299C74.66 69.1399 75.6201 69.57 76.5601 70.03C77.9101 70.74 79.3099 71.36 80.6899 72.01C86.3699 75.08 92.3499 77.5701 97.9199 80.8401C98.4399 81.3201 98.6499 82.03 99.1599 82.52H99.1799Z" fill="#2A150E"/>
<path d="M46.1699 65.6298C48.8599 63.5698 50.98 60.21 55.21 61.6C52.75 64.19 49.4799 64.9498 46.1699 65.6298Z" fill="#572A2D"/>
<path d="M41.1499 67.6298C41.5699 67.1698 42.2599 66.7799 42.3799 66.2499C43.1599 62.6599 44.68 64.2198 46.21 65.6298C45.13 67.8198 43.1299 67.7198 41.1499 67.6298Z" fill="#523133"/>
<path d="M95.23 409.61C94.1 410.9 91.8701 410.44 91.0601 412.23C84.7701 409.91 78.49 407.59 72.2 405.27C72.98 404.67 74.04 404.23 74.5 403.44C76.15 400.62 77.4999 399.55 79.6799 403.13C80.5799 404.61 82.2499 406.61 83.4399 402.58C84.4599 399.12 86.8599 400.96 88.1799 402.75C90.1699 405.46 93.03 407.19 95.24 409.61H95.23Z" fill="#F2BD51"/>
<path d="M68.25 403.6C65.2 402.44 62.1501 401.27 59.0901 400.1C59.5701 398.66 60.1001 397.27 58.0701 396.47C56.9601 396.03 55.95 395.18 56.7 393.83C57.56 392.28 59.93 391.9 60.52 392.73C62.86 395.99 67.0501 397.46 68.5901 401.33C68.8301 401.95 68.38 402.84 68.25 403.6Z" fill="#EFBD5D"/>
<path d="M81.1499 390.51C86.8699 391.34 89.1499 395.28 91.9099 398.52C92.5499 399.27 92.4 400.54 91.47 401.21C90.75 401.73 89.46 401.6 89.24 400.88C87.93 396.63 82.6599 395.58 81.1499 390.51Z" fill="#F3D66E"/>
<path d="M89.97 392.06C87.83 389.49 84.7799 388.02 84.4299 384.48C84.3499 383.64 82.7899 382.76 83.9299 381.99C84.7599 381.42 86.14 381.53 87.27 381.55C88.53 381.58 89.06 382.35 88.55 383.57C87.91 385.1 88.59 386 89.76 386.93C91.44 388.26 91.67 389.91 89.97 392.07V392.06Z" fill="#F5D66C"/>
<path d="M56.1599 398.56C53.0999 397.16 50.03 395.76 46.76 394.26C48.48 392.23 50.2401 391.2 52.3301 390.68C55.4401 392.42 53.7499 396.48 56.1599 398.56Z" fill="#EFBD5D"/>
<path d="M86.2501 368.14C84.8601 367.64 84.4102 366.42 84.3302 365.14C84.2402 363.7 85.3901 363.09 86.5501 363.17C87.9401 363.26 88.24 364.47 88.15 365.68C88.06 366.87 87.6601 367.87 86.2401 368.14H86.2501Z" fill="#F7E37F"/>
<path d="M84.24 412.34C85.39 412.35 86.5099 412.44 87.3899 413.32C86.5599 414.58 85.97 415.75 86.48 417.46C87.31 420.25 85.6699 421.87 83.4399 423.07C82.0099 421.69 83.35 421.1 83.71 420.3C84.23 419.15 85.3199 418.07 83.9199 416.75C82.9699 415.85 82.1501 415.97 81.3601 416.83C80.4601 417.82 77.5399 417.68 79.3999 420.26C80.0799 421.21 80.0201 422.13 79.0801 422.87C78.5201 423.31 77.87 423.39 77.27 422.9C76.41 422.2 76.3799 421.29 76.3799 420.23C76.4099 414.97 80.5 413.85 84.24 412.33V412.34Z" fill="#F5CF64"/>
<path d="M59.1898 402.49C60.0598 402.5 60.8399 402.68 61.2899 403.55C59.9999 404.47 61.4998 405.69 60.9298 406.73C60.2798 407.92 59.5398 409.03 58.1498 409.29C57.6198 409.39 56.6499 409.12 56.4699 408.74C55.7399 407.21 56.8199 406.29 57.9699 405.56C59.1499 404.81 59.0098 403.61 59.1998 402.5L59.1898 402.49Z" fill="#EDCF76"/>
<path d="M72.95 412.3C72.59 413.6 72.4301 415.03 71.0501 415C69.6601 414.98 68.6401 413.83 68.5201 412.46C68.4201 411.34 68.9101 410 70.2801 409.97C71.7901 409.93 72.3101 411.33 72.9601 412.3H72.95Z" fill="#F7D47F"/>
<path d="M82.1699 37.6002C81.8899 40.0202 83.07 42.08 84 44.14C85.71 47.93 84.12 49.38 80.49 50.13C79.07 50.42 77.68 49.8902 76.03 51.3102C71.9 54.8702 70.4499 54.15 67.9099 48.92C67.4299 47.94 67.2201 46.65 65.8201 46.39C65.6001 42.14 62.8799 38.8 61.6399 34.93C62.1399 31.25 65.71 31.3801 67.76 31.2001C71.3 30.8901 69.2001 35.8102 71.8401 36.8702C71.8801 36.8002 72.2001 36.4201 72.1201 36.2701C68.9801 30.6501 72.05 28.9102 77.02 27.5902C81.94 26.2902 86.7199 24.38 91.4199 22.4C93.6799 21.45 95.1001 21.8101 96.3601 23.7101C98.3801 27.4301 98.7999 31.6702 100.16 35.6002C100.19 36.5902 99.9301 37.7102 100.31 38.5502C101.49 41.2102 101.16 42.55 98.0601 43.68C94.8501 44.85 94.0001 43.5801 93.3101 41.0201C93.1601 40.4801 92.5699 40.0602 92.1799 39.5902C91.1899 35.5502 89.39 31.7302 88.76 27.5902C89.46 31.7102 91.0799 35.5902 92.1599 39.6102C91.0199 41.6202 94.6799 43.7701 91.9199 45.7801C88.3199 48.4001 86.69 47.8202 85 43.5802C84.19 41.5502 84.3099 39.0202 82.1699 37.6002C81.4799 35.9502 80.7599 34.3001 80.4299 32.5301C80.7699 34.3001 81.3599 35.9902 82.1699 37.6002Z" fill="#E56374"/>
<path d="M47.74 56C45.2 53.01 43.32 49.6899 42.46 45.8799C45.15 48.7799 46.47 52.37 47.74 56Z" fill="#671C1D"/>
<path d="M54.46 54.6899C51.89 52.4299 50.8099 49.5299 50.8799 46.1499C52.0699 48.9999 53.26 51.8399 54.46 54.6899Z" fill="#65181A"/>
<path d="M36.02 46.9099C38.29 50.4499 39.5501 52.9501 39.8601 55.8401C38.0801 53.5601 36.56 51.1799 36.02 46.9099Z" fill="#7D2429"/>
<path d="M133.67 26.6001C130.85 24.1301 131.23 20.77 131.13 17.54C133.12 20.24 132.84 23.5701 133.67 26.6001Z" fill="#62131A"/>
<path d="M208.9 183.73C208.32 183.29 207.74 182.84 207.16 182.4C205.9 176.23 205.79 170 206.77 163.62C208.15 169.57 209.54 175.52 210.88 181.48C211.23 183.04 210.13 183.48 208.9 183.74V183.73Z" fill="#DF646C"/>
<path d="M202.12 167.54C202.58 163.83 203.05 160.13 203.51 156.42C205.77 160.41 205.92 164.93 204.6 168.79C203.61 171.69 203.46 167.16 202.15 167.58L202.12 167.54Z" fill="#DF646C"/>
<path d="M122.22 443.61C120.3 442.77 120.6 440.58 119.23 438.67C121.68 447.43 114.39 443.59 111.59 445.03C108.48 446.62 109.64 442.81 108.59 440.8C108.33 449.51 101.54 444.74 98.03 446.71L98.01 446.7C94.59 442.84 95.4699 438.05 95.1499 433.52C96.1799 430.95 97.19 428.36 98.25 425.8C99.35 423.12 98.6799 419.07 101.42 417.94C103.65 417.02 106.85 418.32 109.6 418.77C115.45 419.73 121.29 420.78 127.14 421.8C129.14 428.29 132.84 434.43 131.21 441.66C128.21 442.31 125.22 442.97 122.22 443.62V443.61Z" fill="#85D0CA"/>
<path d="M131.21 441.65C131.12 437.42 129.25 433.62 128.22 429.63C127.55 427.03 126.86 424.5 127.14 421.79C134.62 423.04 142.13 424.11 149.57 425.59C154.42 426.55 155.04 429.2 151.57 432.92C146.08 438.82 138.51 439.93 131.21 441.65Z" fill="#7EC8C5"/>
<path d="M96.0401 447.37C95.0601 447.4 94.0602 447.34 93.0902 447.47C89.6702 447.91 89.6 446.31 90.68 443.77C91.96 440.77 93.0901 437.7 94.2901 434.66C96.9801 438.61 97.2601 442.89 96.0401 447.38V447.37Z" fill="#85D8CF"/>
<path d="M96.04 447.37C96.21 443.03 96.28 438.7 94.29 434.65C94.58 434.27 94.8599 433.89 95.1499 433.5C97.6399 437.56 96.43 442.43 98.01 446.68C97.35 446.91 96.7 447.13 96.04 447.36V447.37Z" fill="#487572"/>
<path d="M252.14 300.78C253.09 279.2 246.15 258.73 243.11 237.54C249.55 245.17 254.96 274.3 254.02 295.77C251.87 296.87 254.82 299.89 252.14 300.78Z" fill="#63A0A2"/>
<path d="M239.12 294.53L236.15 270.59C239.55 278.51 239.48 286.98 240.32 295.29C239.92 295.03 239.52 294.78 239.12 294.52V294.53Z" fill="#52898C"/>
<path d="M143.19 285.23C139.96 285.91 139.17 280.17 134.71 283.76C137.72 279.37 140.26 280.24 143.19 285.23Z" fill="#605E5C"/>
<path d="M145.79 249.39C148.49 250.05 150.55 251.55 152.09 253.79C149.46 253.11 146.87 252.37 145.79 249.39Z" fill="#52514E"/>
<path d="M137.55 253.27C140.22 254.79 141.95 256.64 142.93 259.26C141.42 257.19 137.19 257.92 137.55 253.27Z" fill="#494746"/>
<path d="M151.57 292.72C149.04 292.67 146.55 292.59 145.43 289.97C145.35 289.79 146.06 288.96 146.28 289C148.54 289.47 150.03 291.12 151.57 292.72Z" fill="#615F5D"/>
<path d="M161.02 249.43C158.22 248.5 155.88 246.92 154.26 244.3C156.88 245.49 159.57 246.56 161.02 249.43Z" fill="#514F4D"/>
<path d="M144.6 232.81C141 233.04 140.08 231.36 139.14 228.82C142.03 229.07 143.08 230.73 144.6 232.81Z" fill="#4B4642"/>
<path d="M159.3 260.38C156.26 259.72 154.63 258.5 152.62 256.16C155.94 256.44 157.54 257.72 159.3 260.38Z" fill="#666461"/>
<path d="M141.36 297.06C137.67 296.05 136.31 294.48 135.38 292.33C137.78 292.5 139.27 293.94 141.36 297.06Z" fill="#3F3C3B"/>
<path d="M159.75 273.69C162.57 273.84 164.34 274.78 166.58 276.99C163.33 276.92 161.41 276.28 159.75 273.69Z" fill="#575553"/>
<path d="M161.43 288.7C158.9 287.44 157.16 286.58 155.32 285.66C158.53 284.12 159.12 284.36 161.43 288.7Z" fill="#494846"/>
<path d="M163.05 236.46C161.6 239.04 161.05 238.92 158.37 235.28C160.39 234.41 161.45 236.86 163.16 236.58L163.05 236.47V236.46Z" fill="#50504E"/>
<path d="M148.48 276.19C150.35 276.63 152 276.96 151.98 279.12C151.98 279.34 151.2 279.76 150.79 279.74C148.44 279.66 148.42 278.08 148.48 276.19Z" fill="#3D3B39"/>
<path d="M134.46 273.55C130.99 273.7 129.96 272.07 128.82 268.95C131.22 270.47 133.03 271.06 134.46 273.55Z" fill="#403C3A"/>
<path d="M128.38 257.82C131.51 259.3 132.82 260.47 133.62 263.35C131.13 262.1 130.01 260.71 128.38 257.82Z" fill="#5D5958"/>
<path d="M144.84 302.32C146.88 303.35 148.75 303.21 149.1 305.21C149.15 305.51 148.57 306.25 148.37 306.22C146.61 305.96 145.54 304.87 144.84 302.32Z" fill="#444240"/>
<path d="M126.31 277.31C124.54 276.79 122.91 276.47 122.78 274.85C122.71 274.02 124.19 273.08 125.02 273.52C126.36 274.22 125.73 275.87 126.31 277.31Z" fill="#4E4C4D"/>
<path d="M153.4 268.79C155.85 269.24 156.73 270.56 157.92 271.93C156.18 271.83 154.673 270.783 153.4 268.79Z" fill="#565450"/>
<path d="M169.26 251.62C169.16 253.44 168.66 254.67 166.66 254.11C165.96 253.91 164.83 253.39 165.41 252.5C166.29 251.14 167.87 251.76 169.26 251.62Z" fill="#555552"/>
<path d="M145.89 237.73C148 237.97 149.61 238.78 150.91 241.75C147.76 240.84 146.7 239.42 145.89 237.73Z" fill="#4A4847"/>
<path d="M131.15 122.39C130.36 123.23 129.58 124.79 128.61 124.92C127.34 125.09 126.4 123.59 126.21 122.25C126.05 121.09 126.36 119.79 128.01 120.16C129.22 120.43 130.62 120.66 131.14 122.4L131.15 122.39Z" fill="#969290"/>
<path d="M132 126.53C134.18 127.83 136.58 125.6 137.99 128.36C138.33 129.02 138.05 129.91 137.38 129.87C135.38 129.73 133.07 129.97 132 126.54V126.53Z" fill="#827D7D"/>
<path d="M120.45 114.69C120.19 115.64 120.97 117.29 119.08 117.17C117.94 117.09 116.78 116.42 116.89 115.01C116.99 113.77 117.07 112.11 118.84 112.15C120.23 112.18 120.59 113.4 120.46 114.69H120.45Z" fill="#5C5755"/>
<path d="M111.7 113.74C113.28 116.19 108.96 117.85 111.84 119.89C112.34 120.25 111.43 121.17 110.87 121.18C110.38 121.18 109.69 120.69 109.4 120.23C107.56 117.29 110.04 115.86 111.7 113.75V113.74Z" fill="#4E4A47"/>
<path d="M114.41 136.84C114.51 134.46 110.63 135.5 111.89 132.58C112.21 131.83 113.04 131.44 113.92 131.95C115.8 133.04 116.28 134.44 114.41 136.84Z" fill="#6B6765"/>
<path d="M132.75 149.98C131.75 149.88 131.32 149.98 131.13 149.8C129.82 148.62 128.56 147.39 127.28 146.17C127.61 145.9 128.13 145.32 128.25 145.4C129.95 146.45 132.15 147.05 132.74 149.98H132.75Z" fill="#54504D"/>
<path d="M112.45 141.49C113.62 141.88 114.08 143.06 114.29 144.05C114.44 144.77 113.51 145.47 112.59 145.48C111.41 145.5 110.74 144.71 110.67 143.65C110.6 142.58 111.22 141.8 112.44 141.49H112.45Z" fill="#635F5B"/>
<path d="M116.74 123.31C118.13 123.96 118.25 125.04 117.86 126.21C117.63 126.9 117.43 128.09 116.45 127.75C115.21 127.32 115.09 126.02 115.28 124.85C115.41 124.04 115.8 123.34 116.74 123.31Z" fill="#64605D"/>
<path d="M140.12 131.26C141.7 133.77 144.45 132.47 144.86 134.99C144.91 135.32 143.81 136.26 143.55 136.15C141.98 135.52 139.94 135.23 140.13 131.25L140.12 131.26Z" fill="#514E4C"/>
<path d="M103.23 148.89C103.19 150.38 103.04 151.36 102.04 151.36C100.6 151.36 100.25 150.12 100.21 148.95C100.17 147.88 100.76 146.92 101.93 147.15C103.02 147.37 103.31 148.44 103.24 148.88L103.23 148.89Z" fill="#56524E"/>
<path d="M104.08 164.67C104.84 161.96 105.56 159.16 109.52 162.84C107.23 163.59 105.63 164.11 104.04 164.63L104.08 164.67Z" fill="#5F5E5A"/>
<path d="M138.2 165.74C139.5 165.87 140.23 166.75 140.72 167.78C141.17 168.71 140.54 169.33 139.68 169.55C138.1 169.95 137.82 168.53 137.33 167.62C136.89 166.8 137.25 166.07 138.19 165.75L138.2 165.74Z" fill="#555351"/>
<path d="M107.34 132.51C106.99 129.94 106.69 128.23 108.12 126.83C108.27 126.68 109.21 126.95 109.26 127.16C109.73 128.9 109.47 130.49 107.33 132.51H107.34Z" fill="#2F2B29"/>
<path d="M119.43 149C121.74 149.74 123.67 150.91 125.09 153.37C122.03 153.03 120.63 151.12 119.43 149Z" fill="#44403D"/>
<path d="M125.15 143.73C123.07 142.92 121.51 142.45 121.49 140.45C121.49 140.26 121.97 139.86 122.17 139.89C123.92 140.2 124.81 141.3 125.15 143.73Z" fill="#514D4A"/>
<path d="M112.33 78.5601C112.28 74.4601 113.56 70.5999 114.48 66.6699C116.25 68.1099 118.02 69.55 119.79 71C121.09 72.06 121.48 73.41 120.85 74.95C120.44 75.93 119.59 76.5801 118.51 76.3301C116.76 75.9201 116.47 74.4099 116.3 72.9099C116.21 72.0999 117.19 70.67 115.49 70.77C114 70.85 114.8 72.11 114.76 73.02C114.66 75.12 114.49 77.3101 112.34 78.5601H112.33Z" fill="#F3CE53"/>
<path d="M143.12 65.8099C143.01 67.0599 142.01 69.27 141.8 68.85C140.42 66.08 136.37 66.2598 135.75 63.4098C135.4 61.8198 137.31 60.5098 139.14 60.6398C142.24 60.8698 143.2 62.9899 143.12 65.8099Z" fill="#F3D645"/>
<path d="M164.12 76.82C163.62 78.79 161.89 80.16 159.69 80.3C157.84 80.42 158.12 78.5599 158.13 77.2599C158.13 74.6599 159.9 73.8599 162.05 73.7099C163.9 73.5799 164.16 74.92 164.12 76.81V76.82Z" fill="#F6E74E"/>
<path d="M151.16 69.2701C151.25 68.3001 151.01 66.4802 153 66.8502C155.36 67.3002 156.5 69.3201 156.78 71.5401C156.96 72.9401 155.66 73.4901 154.42 73.5101C151.78 73.5401 151.07 71.8701 151.17 69.2701H151.16Z" fill="#F3DD4F"/>
<path d="M159.72 91.06C157.93 91.33 158.18 89.94 158.19 88.87C158.22 86.62 159.39 85.0799 161.58 84.7499C163.1 84.5199 164.09 85.5998 164.03 87.1298C163.92 89.7298 162.06 90.69 159.72 91.06Z" fill="#F8E951"/>
<path d="M141.17 85.59C141.26 84.44 141.09 83.1998 141.49 82.1698C142.15 80.4498 143.78 80.3399 145.29 80.7999C146.76 81.2399 147.3 82.4998 147.11 83.9598C146.88 85.7398 145.8 86.62 144 86.35C143.03 86.2 142.09 85.8299 141.14 85.5599L141.17 85.59Z" fill="#F2C944"/>
<path d="M150.46 100.7C152.37 100.76 152.98 102.03 153.12 103.65C153.27 105.4 153.08 107.18 150.89 107.37C149.07 107.53 148.32 106.18 148.2 104.5C148.07 102.71 148.38 101.18 150.47 100.7H150.46Z" fill="#F4E34D"/>
<path d="M111.14 84.4901C111.27 83.0801 110.82 81.5502 111.97 80.3402C113.26 80.4602 115.74 78.5301 115.55 80.5001C115.36 82.4701 116.09 85.4001 114.09 86.7201C112.57 87.7201 111.43 86.2001 111.15 84.4901H111.14Z" fill="#F2D764"/>
<path d="M148.63 72.1202C148.18 73.7302 147.7 75.45 145.61 75.42C144.1 75.4 143.25 74.3401 143.21 72.8101C143.16 70.8701 144.03 69.6602 146.1 69.6102C147.77 69.5702 148.34 70.7002 148.63 72.1102V72.1202Z" fill="#F0DD53"/>
<path d="M135.17 94.5601C134.27 93.9101 133.7 92.61 134.75 92.28C138.18 91.17 137.68 87.7601 139.17 85.5601L139.14 85.6001C139.82 85.6001 140.5 85.6001 141.17 85.6001L141.14 85.5701C143.2 91.2801 137.9 92.0901 135.14 94.6001L135.17 94.5701V94.5601Z" fill="#F2C944"/>
<path d="M151.12 114.2C151 116.13 150.41 117.49 148.51 117.35C146.76 117.23 145.93 115.77 145.81 114.27C145.7 112.79 146.89 111.86 148.31 111.74C150.13 111.59 150.93 112.76 151.12 114.19V114.2Z" fill="#F6DF4B"/>
<path d="M135.14 94.5801C136.06 94.8801 137.02 95.1 137.88 95.52C139.36 96.24 139.38 97.5999 138.89 98.8799C138.35 100.28 137.1 100.76 135.68 100.45C133.94 100.06 134.06 98.57 134.22 97.3C134.34 96.36 134.84 95.4701 135.17 94.5601L135.14 94.5901V94.5801Z" fill="#F2C944"/>
<path d="M145.09 108.78C145.05 110.28 144.22 111.41 142.42 111.34C140.75 111.28 139.6 110.14 139.56 108.54C139.52 106.86 140.99 106.56 142.38 106.54C143.78 106.51 145.08 106.66 145.09 108.78Z" fill="#F7E34E"/>
<path d="M116.48 88.8799C117.94 89.5299 118.98 90.56 118.91 92.25C118.86 93.57 118.01 94.5399 116.68 94.4199C114.82 94.2399 114.44 92.5601 114.31 91.1101C114.2 89.8301 115.05 88.9699 116.47 88.8799H116.48Z" fill="#F6DD64"/>
<path d="M129.8 97.8301C131.15 97.9501 131.93 98.65 132.13 99.96C132.36 101.5 131.7 102.57 130.21 102.9C128.51 103.28 127.73 102 127.57 100.71C127.39 99.26 128.58 98.4101 129.8 97.8301Z" fill="#F5E358"/>
<path d="M126.42 55.6599C127.7 55.8099 128.8 56.31 128.73 57.73C128.66 59.11 127.99 60.34 126.38 60.48C125 60.6 124.16 59.91 124.17 58.45C124.17 56.94 124.88 55.9499 126.42 55.6599Z" fill="#F4EB53"/>
<path d="M158.71 104.83C156.79 103.17 155.44 101.5 157.09 99.23C157.65 98.46 158.71 98.2899 159.29 98.8899C161.33 100.98 158.41 102.77 158.71 104.83Z" fill="#FCE463"/>
<path d="M139.16 85.55C137.53 86.38 135.79 87.46 134.6 85.07C134.05 83.97 134.93 83.15 135.92 82.85C138.32 82.12 139.3 83.22 139.13 85.59L139.16 85.55Z" fill="#F2C944"/>
<path d="M199.26 280.27C201.18 285.19 199.64 288.37 195 290.27C198.49 287.89 195.38 282.82 199.26 280.27Z" fill="#666463"/>
<path d="M210.62 324.37C209.08 326.93 208.41 329.05 206.37 330.18C206.26 330.24 205.2 329.24 205.27 328.85C205.68 326.44 206.91 324.72 210.62 324.37Z" fill="#504E4C"/>
<path d="M220.07 317.62C220.85 321.79 219.64 323.88 216.9 326.62C216.66 322.83 218.15 320.79 220.07 317.62Z" fill="#312E2F"/>
<path d="M214.79 294.51C213.77 296.21 213.13 297.28 212.49 298.36C211.86 299.41 211.95 301.87 210.01 300.72C208.25 299.68 210.29 298.21 210.75 297.01C211.27 295.68 212.28 294.64 214.79 294.5V294.51Z" fill="#313233"/>
<path d="M221.2 312.39C222.79 310.35 222.58 307.98 224.77 307.11C225.323 310.263 224.133 312.023 221.2 312.39Z" fill="#42403F"/>
<path d="M246.4 300.85C246.3 302.85 243.54 304.16 245.06 306.64C245.72 307.73 244.83 308.45 243.72 308.65C241.75 309 241.93 307.17 242.11 306.42C242.67 304.05 244.36 302.22 245.84 300.34C246.07 300.46 246.26 300.63 246.4 300.86V300.85Z" fill="#555253"/>
<path d="M219.53 301.55C219.28 301.05 218.99 300.75 219.02 300.48C219.26 298.38 219.81 296.37 221.46 294.93C221.61 294.8 222.91 295.48 222.9 295.74C222.78 298.21 222.07 300.4 219.53 301.56V301.55Z" fill="#4E4C4B"/>
<path d="M210.84 319.47C210.29 317.09 210.93 315.21 212.7 313.81C212.82 313.72 213.76 314.24 213.82 314.57C214.26 316.97 212.61 318.25 210.84 319.48V319.47Z" fill="#504E4C"/>
<path d="M205.73 287.06C206.1 287.96 206.39 288.34 206.3 288.52C205.54 290.06 206.37 292.16 204.64 293.3C204.44 293.43 203.58 293.05 203.48 292.75C202.69 290.43 203.66 288.73 205.72 287.05L205.73 287.06Z" fill="#4F4D4C"/>
<path d="M218.15 285.57C218.37 288.7 215.89 290.72 214.79 293.3C214.33 290.07 214.9 287.27 218.25 285.67L218.15 285.57Z" fill="#313233"/>
<path d="M218.25 306.97C217.86 308.15 217.72 309.82 215.93 309.96C214.95 310.03 214.85 308.89 214.83 308.13C214.8 306.75 215.41 305.38 216.63 304.96C217.6 304.63 218.27 305.67 218.25 306.96V306.97Z" fill="#4E4C4C"/>
<path d="M215.09 328.96C215.64 332.39 214.61 334.42 212.27 336.6C212.24 333.56 211.77 331.01 215.09 328.96Z" fill="#4C4C4A"/>
<path d="M231.15 318.92C227.89 318.41 231.56 322.85 228.53 322.46C227.47 322.32 226.82 321.42 227.03 320.27C227.28 318.86 227.55 317.09 228.89 316.62C229.94 316.25 230.8 317.58 231.15 318.92Z" fill="#353432"/>
<path d="M236.26 306.36L233.06 311.85C232.37 308.91 232.74 306.63 236.26 306.36Z" fill="#403D3E"/>
<path d="M207.29 311.86C206.92 312.72 206.61 313.79 205.38 313.6C204.47 313.46 204.04 312.68 204.25 311.77C204.47 310.81 204.96 309.86 206.14 310.04C207 310.17 207.52 310.84 207.3 311.86H207.29Z" fill="#484846"/>
<path d="M251.93 247.58C254.17 244.87 252.77 248.7 253.61 248.52C255.1 256.44 256.63 264.36 258.08 272.29C259.55 280.33 259.05 288.46 259.12 296.57C257.27 294.76 257.42 292.11 257.45 290.09C257.6 275.64 253.79 261.75 251.93 247.59V247.58Z" fill="#4C848A"/>
<path d="M246.4 278.41C245.24 272.77 244.08 267.12 242.72 260.49C242.35 262.51 242.16 263.56 241.8 265.48C238.2 254.42 238.25 243.54 235.43 233.22C241.06 247.84 244.79 262.93 246.4 278.41Z" fill="#60989A"/>
<path d="M225.13 286.53C225.21 278.04 222.23 270.09 220.71 261.88C220.38 260.08 220.07 258.34 220.12 256.53C222.23 255.4 222.16 257.17 222.44 258.33C224.41 266.44 225.12 274.75 226.21 283C226.37 284.23 226.66 285.72 225.13 286.52V286.53Z" fill="#609497"/>
<path d="M234.28 292.3C233.15 291.85 231.88 291.68 231.12 290.56C233.28 287.18 230.78 283.98 230.64 280.69C230.45 276.29 228.84 272.01 229.15 267.52L229.12 267.55C232.02 275.55 232.36 284.09 234.28 292.3Z" fill="#52888A"/>
<path d="M229.85 240.52C232.82 248 234.34 255.65 234.41 263.57C232.89 255.89 231.37 248.21 229.85 240.52Z" fill="#4C7D82"/>
<path d="M229.14 267.53C227.07 263.4 227.05 258.85 226.3 254.46C227.77 258.72 229.64 262.9 229.11 267.56L229.14 267.53Z" fill="#4B797E"/>
<path d="M107.86 366.59C110.47 367.79 113.57 365.15 115.95 367.86C114.31 369.36 110.92 366.02 110.54 369.99C108.66 369.8 108.8 367.88 107.85 366.59H107.86Z" fill="#807B7B"/>
<path d="M105.72 377.61C107.59 378.53 110.08 378.59 110.82 381.32C107.63 382 106.96 379.3 105.72 377.61Z" fill="#555150"/>
<path d="M125.02 367.06C120.91 367.99 119.22 365.97 116.97 363.73C120.26 363.75 121.85 366 125.02 367.06Z" fill="#484342"/>
<path d="M109.36 346.66C110.97 349.86 112.31 351.62 114.83 353.5C110.05 353.61 109.59 351.03 109.36 346.66Z" fill="#484644"/>
<path d="M109.56 393.81C107.37 392.88 105.75 392.57 105.41 390.67C105.38 390.48 105.78 390 105.98 390C107.95 390 108.72 391.37 109.56 393.81Z" fill="#423D3F"/>
<path d="M179.08 171.23C176.05 172.45 173.93 174.2 171.61 175.6C170.69 176.16 169.9 176.61 168.99 175.68C168.07 174.74 168.35 173.72 169.18 173.1C171.36 171.49 169.73 167.01 172.88 166.98C175.13 166.96 175.62 171.32 179.08 171.23Z" fill="#F5DA60"/>
<path d="M161.17 162.54C160.52 162.59 159.86 162.6 159.22 162.71C157.6 162.98 155.82 164.8 154.48 162.48C153.79 161.28 154.83 160.28 155.75 159.6C157.3 158.47 158.9 156.84 160.99 158.25C162.81 159.48 161.98 161.1 161.13 162.58L161.18 162.54H161.17Z" fill="#F6E071"/>
<path d="M153.79 166.5C155.96 166.59 156.73 167.87 156.78 169.42C156.82 170.84 155.73 172.11 154.42 172.16C152.4 172.24 151.73 170.35 151.52 168.77C151.3 167.16 152.65 166.61 153.79 166.5Z" fill="#F8E184"/>
<path d="M154.56 183.46C152.79 183.12 152.14 181.94 152.22 180.29C152.28 179.09 152.68 177.81 154.1 177.94C156.06 178.12 156.61 179.9 156.8 181.47C156.97 182.83 155.81 183.35 154.56 183.46Z" fill="#F7DF79"/>
<path d="M161.12 162.58C162.87 162.68 165.31 162.27 164.59 165.17C164.2 166.72 162.5 168.24 160.73 167.17C158.23 165.66 160.88 164.1 161.17 162.54L161.12 162.58Z" fill="#F6E071"/>
<path d="M161.67 45.8101C160.33 45.4201 159.18 44.0899 159.5 43.8899C161.25 42.8299 162.18 41.0801 163.6 39.8001C163.97 39.4701 165.25 41.07 164.97 41.26C163.24 42.37 163.63 45.1601 161.67 45.8201V45.8101Z" fill="#959293"/>
<path d="M168.73 33.86C168.16 33.72 166.45 35.0299 166.63 32.9899C166.71 32.0499 167.36 30.4898 168.74 30.6698C169.95 30.8298 170.54 32.14 170.63 33.32C170.74 34.73 169.83 34.39 168.73 33.87V33.86Z" fill="#555251"/>
<path d="M149.25 39.2801C147.8 39.2801 147.53 38.2502 147.42 37.3502C147.32 36.5202 148.02 35.5302 148.73 35.6202C149.88 35.7602 150.86 36.73 150.94 37.92C150.97 38.35 149.81 38.8501 149.25 39.2801Z" fill="#464646"/>
<path d="M172.06 38.5201C173.81 38.5201 175.61 37.6101 176.1 39.9801C176.19 40.4101 175.63 41.35 175.21 41.46C172.83 42.08 173.02 39.9001 172.06 38.5201Z" fill="#403E3D"/>
<path d="M148.02 43.8701C149.11 44.0701 150.08 44.35 150.32 45.49C150.5 46.37 150.2 47.2299 149.24 47.3799C147.9 47.5799 147.06 46.71 146.72 45.53C146.42 44.48 147.37 44.2201 148.02 43.8701Z" fill="#4E4E4E"/>
<path d="M134.46 40.0601C134.6 39.1501 135.03 38.4702 136.06 38.5902C137.14 38.7202 137.9 39.3601 137.96 40.4901C138.01 41.3101 137.27 41.6401 136.64 41.7201C135.45 41.8701 134.87 41.0401 134.46 40.0601Z" fill="#40403F"/>
<path d="M169.08 54.3999C170.02 54.4399 170.78 54.9001 170.73 55.8201C170.69 56.6301 170.02 57.3201 169.08 57.3201C168.12 57.3201 167.55 56.55 167.47 55.77C167.37 54.8 168.15 54.4099 169.07 54.3999H169.08Z" fill="#565454"/>
<path d="M155.15 356.52C153.45 356.33 151.82 355.74 150.82 354.41C150.22 353.61 148.76 351.85 151.94 352.04C154.31 352.18 153.15 349.56 153.7 348.24C154.94 348.82 156.09 349.36 157.64 350.08C155.78 351.86 153.6 353.61 155.13 356.54L155.14 356.53L155.15 356.52Z" fill="#E2842D"/>
<path d="M114.14 20.5C116.11 24.34 117.68 28.28 117.16 32.73C115.71 28.76 114.09 24.84 114.14 20.5Z" fill="#572021"/>
<path d="M106.12 25.5901C107.83 27.7501 108.32 30.19 108.03 33.75C106.53 30.6 105.69 28.2301 106.17 25.5601L106.12 25.5901Z" fill="#631319"/>
<path d="M167.37 15.6899C166.93 13.6899 166.5 11.6801 165.78 8.3501C168.32 11.2401 168.37 13.3299 167.37 15.6899Z" fill="#842630"/>
<path d="M122.13 17.54C124.41 20.88 124.61 24.8801 125.67 28.6101C122.9 25.4301 122.22 21.58 122.13 17.54Z" fill="#572021"/>
<path d="M73.2 69.26C72.45 68.8 71.7 68.3401 70.95 67.8701C69.96 65.8001 69.2401 63.1899 66.0901 65.4399C63.3401 64.2199 60.54 63.08 58.48 60.74C61.36 59.45 64.2401 58.1601 67.1201 56.8701C67.5001 57.1601 67.9 57.43 68.26 57.74C69.42 58.72 70.54 60.6499 72.21 59.1599C73.7 57.8299 71.02 56.8299 71.25 55.3899C72.56 54.8499 73.8699 54.31 75.1799 53.77C77.6499 55.54 78.9901 54.1 80.1101 52.04C80.7701 51.92 81.4301 51.7899 82.0801 51.6699C83.7601 52.7099 82.1499 54.98 83.8999 56.23C86.7099 54.99 83.8299 50.7101 87.1399 49.8301L89 48.95C90.19 49.52 89.72 51.08 90.95 51.96C92.48 50.91 92.16 48.8 93.24 47.52C96.53 46.34 99.8201 45.16 103.11 43.97C103.11 46.21 103.98 48.1199 106.33 48.1399C108.11 48.1599 109.8 47.0699 110.18 44.8999C110.31 44.1399 110.16 43.04 111.31 43.03C112.47 43.03 113.04 44.06 113.23 45C113.82 47.97 114.65 51.01 112.31 53.78C110.46 53.94 111.34 50.2601 109.01 51.3301C107.93 51.8301 107.16 52.8499 107.29 54.1299C107.49 55.9999 108.73 57.02 110.49 57.45C111.55 57.71 112.99 57.49 112.96 59.2C112.94 59.92 112.37 60.29 111.65 60.45C110.36 60.74 108 60.0201 108.47 62.3501C108.99 64.9201 111.27 63.8401 112.98 63.5801C113.02 64.9301 113.28 66.32 112.22 67.45C110.35 68.45 108.79 67.8301 107.27 66.5901C106.38 65.8701 105.32 65.27 104.13 66.04C103.67 66.33 103.56 66.8901 103.9 67.3301C104.76 68.4301 105.87 69.1799 107.3 68.6799C109.04 68.0699 110.73 67.2 111.91 69.5C111.62 70.53 111.33 71.5701 111.04 72.6001C106.28 72.8101 105.98 75.9099 106.23 79.6499C106.32 80.9899 108.04 82.7099 106.16 83.6899C104.49 84.5699 103.16 83.0201 101.89 82.1001C102.04 80.6601 103.24 80.7899 104.07 80.3799C105.45 79.7099 105.26 78.4801 104.96 77.3701C104.69 76.3401 103.87 75.6699 102.76 75.6699C101.44 75.6699 100.59 76.4299 100.27 77.6899C99.86 79.2799 99.5299 80.89 99.1699 82.5C98.8099 82.24 98.4501 81.99 98.0901 81.73C96.8101 80.54 95.92 79.39 97 77.45C98.03 75.6 98.2599 73.3899 99.1899 71.4399C99.5699 70.6499 99.34 69.69 98.29 69.53C97.25 69.38 96.9199 70.1601 96.8799 71.0901C96.8499 71.7501 96.8 70.9501 96.96 71.5801C97.59 73.9901 97.8 76.22 95.04 77.47C94.03 77.93 93.02 77.78 92.46 76.75C91.15 74.29 89.1701 71.8301 92.1101 68.8401C88.4701 71.9501 84.35 72.66 80.03 72.71C78.57 72.27 77.1501 71.7401 76.0601 70.6001C76.1701 68.7501 78.47 67.3101 77.2 65.0901C74.77 65.5401 75.1499 68.51 73.1899 69.22L73.2 69.26Z" fill="#E79322"/>
<path d="M87.1398 49.8301C86.1898 51.1201 86.2299 52.42 86.6899 53.96C87.1999 55.66 86.28 57.1301 84.84 58.0901C83.86 58.7401 82.9499 58.05 82.1699 57.51C80.4299 56.31 81.6499 54.9401 81.9899 53.6001C82.1399 52.9901 82.07 52.3099 82.1 51.6699C83.66 50.7099 85.2998 49.9701 87.1498 49.8301H87.1398Z" fill="#EDC64D"/>
<path d="M71.25 55.3899C72.46 56.6099 75.04 56.73 74.77 59.04C74.6 60.42 72.9299 61.0101 71.6599 61.1101C68.7499 61.3501 67.7801 59.2001 67.1201 56.8701C68.5001 56.3801 69.88 55.8799 71.26 55.3899H71.25Z" fill="#F4E670"/>
<path d="M93.2401 47.52C93.2701 48.13 93.4401 48.7701 93.3001 49.3301C92.8301 51.1401 94.0802 54.4001 90.8202 54.1201C87.7102 53.8601 89.1601 50.87 89.0001 48.95C90.4101 48.47 91.8301 48 93.2401 47.52Z" fill="#EDC64D"/>
<path d="M80.1101 52.04C80.1801 54.19 79.2701 56.1499 77.3701 56.6899C76.1701 57.0299 75.9199 54.8 75.1799 53.77C76.8199 53.19 78.4601 52.62 80.1101 52.04Z" fill="#EDC64D"/>
<path d="M111.91 69.52C110.9 69.07 109.65 67.9201 108.81 69.1101C105.67 73.5601 104.24 68.7299 102.17 67.9099C101.27 67.5599 101.14 66.1799 102.11 65.3999C103.37 64.3899 104.67 63.2 106.47 64.5C108.24 65.78 109.78 67.5199 112.24 67.4699C112.13 68.1499 112.03 68.83 111.92 69.52H111.91Z" fill="#F5D64B"/>
<path d="M80.05 72.75C80.45 71.8 81.1901 70.5599 82.0801 70.8999C86.0201 72.3799 88.2699 69.9699 90.6599 67.6299C91.5299 66.7799 92.6499 66.0299 93.6499 67.1799C94.6199 68.2999 94.54 70.0399 93.28 70.6799C89.21 72.7499 93.7301 74.5801 93.3401 76.5501C93.2201 77.1701 94.38 76.8701 94.96 76.6101C95.96 76.1601 96.58 75.2901 96.53 74.2901C96.49 73.5601 95.8 72.8799 95.5 72.1399C94.89 70.6299 94.9401 69.1499 96.3501 68.1299C97.5301 67.2799 98.92 67.32 100.04 68.26C101.56 69.54 101.44 71.12 100.44 72.7C98.6799 75.47 96.8901 78.22 98.1101 81.76C91.9801 78.98 85.7701 76.37 80.0601 72.75H80.05Z" fill="#F3B83E"/>
<path d="M73.2 69.2601C73.5 68.3301 73.8601 67.42 74.0701 66.48C74.4601 64.79 75.19 63.35 76.98 62.91C77.85 62.7 78.5401 63.39 78.8601 64.17C79.5901 65.98 79.43 67.6999 77.98 69.1299C77.41 69.6899 76.7101 70.1399 76.0701 70.6299C75.1101 70.1699 74.15 69.7101 73.2 69.2501V69.2601Z" fill="#F6D451"/>
<path d="M66.0901 65.4399C66.2801 63.1299 67.81 62.0499 69.75 62.7499C72.28 63.6599 70.8 66.0898 70.95 67.8798C69.33 67.0698 67.7101 66.2599 66.0901 65.4399Z" fill="#FADE5B"/>
<path d="M92.1599 39.6001C89.6399 35.7001 88.71 31.33 88.48 26.74C89.97 30.94 92.1299 34.9401 92.1799 39.5801L92.1599 39.6001Z" fill="#6C1F25"/>
<path d="M82.1699 37.6001C80.1399 35.5401 79.8099 32.86 79.4299 30.21C81.0399 32.42 82.3399 34.7401 82.1699 37.6001Z" fill="#701B24"/>
<path d="M82.7501 60.5901C84.9601 61.1201 85.7701 62.91 85.7201 64.99C85.7001 65.98 85.1 67.66 83.63 67.2C81.54 66.53 80.81 64.44 80.38 62.49C80.03 60.91 81.3001 60.6101 82.7401 60.5901H82.7501Z" fill="#F9E654"/>
<path d="M93.13 61.49C93.06 63.17 92.4702 64.5399 90.6102 64.4099C88.9002 64.2899 88.1702 62.9901 88.1002 61.3401C88.0502 59.9501 88.2301 58.6401 90.0301 58.5701C92.0201 58.5001 93 59.59 93.13 61.49Z" fill="#F6E556"/>
<path d="M96.3601 54.6298C98.5801 54.4498 99.1599 55.4199 99.1899 57.0099C99.2199 58.5599 98.5701 59.7498 97.0601 59.8998C95.2601 60.0798 94.34 58.74 94.29 57.12C94.24 55.58 95.3001 54.7598 96.3501 54.6398L96.3601 54.6298Z" fill="#F7D84E"/>
<path d="M98.6499 60.8602C99.6199 60.7802 100.49 61.0901 100.51 62.0601C100.54 63.2801 100 64.38 98.55 64.48C97.65 64.54 96.8599 64.04 96.6399 63.17C96.2199 61.52 97.7899 61.4502 98.6499 60.8602Z" fill="#F7D84E"/>
</svg>
