<svg width="284" height="456" viewBox="0 0 284 456" fill="none" xmlns="http://www.w3.org/2000/svg">
<path d="M60.1699 87.55C53.6799 76.19 48.3701 64.2598 42.8601 52.4198C41.0301 48.4998 43.76 46.9 46.26 45.31C55.64 39.32 65.6199 34.4798 75.9699 30.4298C107.33 18.1498 139.34 8.00991 172.37 1.23991C180.17 -0.360091 182.49 1.02 183.48 8.83C184.89 20.03 185.83 31.2899 186.96 42.5199C185.74 42.7899 185 42.1699 184.46 41.1899C183.88 38.0299 182.98 36.06 178.9 37.6C162.59 43.77 145.77 48.4899 129.47 54.7199C107.24 62.4499 85.16 70.5998 62.79 77.8898C60.09 78.7698 58.6899 79.9598 60.2399 82.8898C60.7799 83.9098 61.1099 85.0399 60.9399 86.2499C60.8299 86.7699 60.5699 87.2 60.1599 87.54L60.1699 87.55Z" fill="#061E3D"/>
<path d="M231.14 202.43C238.32 209.8 245.36 217.32 253.22 223.98C253.75 224.91 253.96 225.81 253.01 226.62C251.52 227.01 250.9 225.8 250.29 224.94C247.71 221.33 245.25 221.31 241.66 224.04C227.8 234.57 214.49 245.71 202 257.85C199.15 260.63 197.22 264.23 193.93 266.6C193.13 267.22 192.41 267.98 191.3 268.02C178.16 264.63 165.08 261 151.64 258.9C141.49 257.31 131.32 255.97 121.16 254.49C119.52 254.25 117.8 253.94 116.84 255.87C115.6 267.57 115.6 267.6 126.86 269.6C151.22 273.92 175.04 280.15 197.5 290.69C210.78 296.93 223.33 304.53 235.12 313.31C239.51 316.58 243.72 320.13 248.76 322.42C242.64 328.46 235.19 332.63 228.04 337.23C225.19 331.19 219.56 328.01 214.51 324.33C190.09 306.55 162.61 295.53 133.58 287.96C129.4 286.87 125.12 285.96 121.11 284.45C117.98 283.27 114.93 284.78 111.98 283.71C114.1 270.24 115 256.75 113.42 243.13C113.16 240.91 111.28 238.9 112.5 236.51C112.73 235.6 113.28 235.16 114.24 235.29C122.32 238.34 130.91 238.1 139.3 238.76C158.91 240.32 178.21 239.38 195.89 229.19C205.29 223.77 213.8 217.14 222.11 210.23C225.17 207.69 228.08 204.98 231.15 202.44L231.14 202.43Z" fill="#0F2242"/>
<path d="M102.18 191.21C96.6899 178.31 92.9601 164.76 87.3201 151.91C83.6801 143.61 80.6899 135.03 77.4099 126.58C77.8899 125.41 78.58 124.88 79.75 125.83C81.15 130.15 83.7699 130.96 88.1899 129.84C120.85 121.56 152.83 111.28 183.89 98.2C191.44 95.02 191.36 94.83 190.7 88.76C190.89 87.2 191.88 86.54 193.35 86.45C195.55 97.84 197.74 109.22 199.94 120.61C199.41 121.67 198.8 122.4 197.65 121.26C195.61 116.17 195.58 116.1 190.49 118.38C163.22 130.62 135.24 140.77 106.07 147.47C102.17 148.37 98.22 148.99 94.3 149.76C92.77 150.06 90.54 149.76 90.77 152.26C90.96 154.34 92.7 154.74 94.51 154.67C95.35 154.64 96.17 154.7 96.97 154.98C98.23 155.78 99.6299 156.42 100.41 157.81C99.8299 159.94 97.8301 159.56 96.3601 160.1C95.5401 160.4 94.78 160.77 94.75 161.74C94.71 162.91 95.51 163.54 96.51 163.87C98.13 164.41 99.81 164.26 101.45 164.01C133.6 159 164.27 149.38 193.27 134.54C198.99 131.61 199.21 130.96 197.87 124.27C198.43 123.03 199.29 122.8 200.42 123.53C203.6 135.88 206.78 148.23 209.96 160.58C209.47 161.6 208.89 162.35 207.71 161.34C205.37 155.96 205.35 155.91 200.24 158.46C187.73 164.71 174.89 170.18 161.7 174.84C144.78 180.32 127.45 183.91 109.78 185.6C105.63 186 102.94 186.93 102.18 191.23V191.21Z" fill="#0A1E3E"/>
<path d="M262.13 230.82C291.14 250.85 288.78 287.97 265.15 308.97C255.04 300.44 243.15 294.77 231.79 288.25C224.16 283.88 216.53 279.48 208.63 275.59C207.44 275.01 206.25 274.36 205.73 273C205.66 272.52 205.73 272.05 205.92 271.61C211.3 272.73 214.18 269.54 217.17 265.71C228.37 251.32 242.37 240.03 257.56 230.12C259.16 229.84 260.54 231.03 262.14 230.81L262.13 230.82Z" fill="#122340"/>
<path d="M75.73 122.64C71.42 113.65 66.99 104.7 63.49 95.3401C64.68 94.0501 66.2999 93.6201 67.8799 93.1201C90.7199 85.9601 113.38 78.3101 135.69 69.6101C151.51 64.6501 166.95 58.6499 182.22 52.1999C184.85 51.0899 185.3 49.02 185.84 46.77C186.21 46.31 186.64 46.2501 187.13 46.5901C189.63 54.1201 189.56 62.09 191.06 69.8C191.94 74.33 192.34 78.96 192.96 83.54C192.55 83.87 192.09 83.9701 191.58 83.8601C189.64 80.0401 187.07 79.8699 183.16 81.4199C167.26 87.7299 151.37 94.11 135.11 99.49C118.23 104.81 101.27 109.89 84.22 114.65C79.6333 115.93 77.2601 118.657 77.1001 122.83C76.5901 123.11 76.13 123.04 75.73 122.61V122.64Z" fill="#091E3D"/>
<path d="M2.78014 437.49C1.99014 437.19 2.00011 436.62 2.25011 435.97C0.200109 427.16 3.30012 420.53 10.5101 415.31C17.6701 410.13 25.3401 405.83 32.9601 401.43C35.3001 400.08 37.2 400.4 39.43 401.73C58.18 412.87 72.6702 428.21 84.1002 446.61C84.5402 447.32 84.9301 448.05 85.2901 448.81C87.4401 453.37 86.96 454.14 81.89 454.52C61.15 456.06 40.7101 454.73 20.6901 448.66C13.6701 446.53 7.60014 443.07 2.78014 437.5V437.49Z" fill="#1C9F9D"/>
<path d="M210.38 162.35C213.97 170.42 217.55 178.48 221.14 186.55C220.49 187.85 222.41 189.46 220.66 190.64C212.35 197.29 204.08 203.97 194.8 209.34C179.46 218.21 163.03 222.82 145.33 222.91C136.51 222.96 127.69 222.91 118.86 222.92C116.54 222.92 114.17 222.76 112.12 224.19C111.66 224.5 111.16 224.62 110.61 224.54C108.59 216.18 106.57 207.81 104.54 199.45C122.5 203.82 139.66 198.52 156.77 194.55C174.03 190.54 189.7 182.22 205.21 173.83C210.5 170.97 210.46 170.55 207.94 164.85C207.74 163.03 209.02 162.66 210.37 162.35H210.38Z" fill="#0B2141"/>
<path d="M2.78014 437.49C27.6701 456.89 56.81 453.97 86.38 453.94C80.89 442.45 73.6402 433.47 65.8702 424.86C57.7902 415.9 48.2902 408.69 38.0702 402.37C36.5602 401.44 35.4102 400.79 33.6102 401.9C27.2502 405.82 20.74 409.48 14.38 413.41C6.05 418.57 0.570116 425.37 2.25012 435.96C-0.759884 428.89 1.31013 421.88 8.52013 415.96C16.2301 409.63 24.8602 404.69 33.7902 400.33C45.5902 394.57 56.6901 387.81 66.2201 378.68C66.5301 379.06 66.6801 379.49 66.6901 379.98C64.0401 385.11 64.0601 385.08 68.7801 388.49C82.6101 398.49 95.12 409.91 105.92 423.15C111.25 429.69 114.81 437.19 117.48 445.14C117.96 446.56 118.35 448.02 119.32 449.21C119.56 449.65 119.5 450.06 119.17 450.43C115.67 453.19 111.29 452.7 107.33 453.16C89.1802 455.31 70.95 456.74 52.67 455.43C40.91 454.59 29.35 452.35 18.17 448.55C11.98 446.45 6.25014 443.48 2.78014 437.49Z" fill="#0B1F3B"/>
<path d="M103.34 314.67C105.64 307.29 107.93 299.92 110.23 292.54C110.7 292.25 111.12 292.31 111.51 292.7C111.22 297.12 114.44 298.08 117.72 299.08C141.85 306.41 164.73 316.56 186.27 329.68C192.94 333.75 199.27 338.34 205.17 343.48C208.03 345.97 211.03 347.07 214.71 345.82C215.21 345.92 215.63 346.16 215.99 346.51C207.16 354.86 198.34 363.22 189.51 371.57C188.58 372.24 188.24 371.57 187.91 370.87C187.96 370 188.41 369.31 188.93 368.66C193.47 363.01 193.57 362.89 188.21 357.84C175.87 346.21 161.29 337.94 146.2 330.53C135.91 325.48 125.02 321.84 114.34 317.71C110.77 316.33 107.04 315.6 103.35 314.67H103.34Z" fill="#122042"/>
<path d="M68.6599 377.41C72.3099 371.1 77.9899 366.44 82.1899 360.57C82.6299 360.77 83.0101 361.04 83.3701 361.36C90.7001 365.96 99.0101 368.58 106.37 373.18C121.75 382.8 135.52 394.05 145.57 409.39C148.31 413.57 150.26 418.18 152.73 422.5C149.83 431.13 144.92 438.13 136.54 442.29C136.06 442.23 135.6 442.07 135.19 441.81C132.79 434.76 129.59 428.1 125.37 421.95C113.98 404.28 98.6001 390.71 81.3401 379.06C77.3101 376.34 73.3599 374.39 68.6699 377.4L68.6599 377.41Z" fill="#102443"/>
<path d="M187.95 373.53C180.68 382.62 173.41 391.72 166.14 400.81C159.48 385.47 146.78 375.76 133.7 366.6C124.03 359.83 113.64 354.17 102.77 349.44C98.53 347.6 94.47 345.48 89.73 347.59C93.5 339.21 97.28 330.84 101.05 322.46C101.46 322.13 101.88 322.11 102.32 322.39C102.62 323.01 102.76 323.71 102.51 324.32C101 328.06 102.79 329.56 106.17 330.85C127.92 339.18 147.85 350.68 165.88 365.46C169.37 368.32 172.42 371.6 175.63 374.73C178.457 377.49 181.147 377.473 183.7 374.68C184.37 373.94 184.96 373.13 185.75 372.51C186.88 371.97 187.58 372.38 187.96 373.51L187.95 373.53Z" fill="#122143"/>
<path d="M206.11 272.86C224.75 282.96 243.54 292.8 261.38 304.3C263.13 305.43 265.4 306.19 265.15 308.97C264.96 309.15 264.78 309.33 264.59 309.52C261.64 310.57 260.33 313.67 257.64 315.05C255.19 315.51 253.62 313.89 251.88 312.64C231.68 298.1 210.08 286.03 186.92 276.92C169.99 270.26 152.2 266.78 134.3 263.84C128.57 262.9 122.86 261.92 117.08 261.34C114.58 260.01 116.46 257.34 115.32 255.59C114.68 252.25 116.99 252.5 118.97 252.78C143.66 256.29 168.49 259.06 192.2 267.46C197.62 267.23 201.77 270.28 206.1 272.86H206.11Z" fill="#40A9AA"/>
<path d="M115.32 255.58C117.04 256.82 115.31 259.4 117.24 260.56C126.26 262.75 135.48 263.87 144.6 265.5C164.32 269.04 183.37 274.62 201.5 283.24C218.84 291.48 235.45 300.95 251.12 312.05C255.5 315.15 255.63 316.09 252.17 320.11C251.03 320.88 249.89 321.65 248.75 322.42C246.29 322.84 244.38 321.95 242.39 320.42C223.18 305.69 202.86 292.86 179.87 284.72C160.11 277.72 139.84 272.73 119.11 269.72C115.75 269.23 114.93 268.06 115.15 265.04C115.38 261.9 115.27 258.73 115.31 255.57L115.32 255.58Z" fill="#40A6A7"/>
<path d="M111.97 283.7C113.58 282.28 114.92 281.61 117.51 282.29C144.37 289.29 171.05 296.72 195.39 310.61C206.38 316.88 216.87 323.88 226.48 332.18C228.22 333.68 229.01 335.08 228.03 337.23C225.59 338.99 223.16 340.75 220.72 342.51C218.25 343.51 217.02 341.58 215.67 340.24C197.8 322.48 176.06 311.18 152.72 302.63C141.15 298.39 129.38 294.73 117.51 291.4C114.45 290.54 111.22 289.74 111.32 285.5C111.14 284.76 111.15 284.09 111.97 283.71V283.7Z" fill="#40A6A6"/>
<path d="M231.14 202.43C230.77 203.33 230.64 204.51 229.99 205.08C215.54 217.83 200.89 230.31 182.16 236.59C168 241.34 153.4 240.98 138.79 240.1C132.17 239.71 125.57 238.93 118.98 238.17C116.86 237.93 114.67 237.53 112.89 236.11C112.5 229.33 113.13 228.87 119.6 229.72C134.66 231.68 149.81 232.09 164.89 230.42C184.33 228.27 200.28 218.46 214.96 206.26C217.77 203.92 220.67 201.68 223.3 199.11C224.72 197.73 226.42 196.26 228.36 198.57C229.28 199.85 230.21 201.14 231.13 202.42L231.14 202.43Z" fill="#B7D1D3"/>
<path d="M208.16 164.45C212.7 168.04 212.8 170.92 208.39 173.51C178.99 190.79 147.64 201.69 113.21 202.56C109.83 202.65 106.71 202.52 104.55 199.45C104.15 198.24 103.76 197.03 103.36 195.82C104.2 193.03 106.58 193.29 108.69 193.25C141.85 192.58 172.46 182.94 201.33 167.08C203.45 165.91 205.4 164.07 208.15 164.45H208.16Z" fill="#3DA8AA"/>
<path d="M103.34 314.67C104.89 314.87 105.84 313.29 107.89 314.02C132.89 322.97 157.55 332.56 179.09 348.61C183.75 352.08 188.09 355.91 192.34 359.89C195.19 362.56 195.34 364.53 192.22 366.87C190.79 367.95 189.55 369.28 188.22 370.5C184.13 368.99 181.87 365.27 178.97 362.43C166.06 349.79 150.68 341.12 134.42 333.75C125.05 329.5 115.46 325.78 105.96 321.83C104.2 321.1 101.2 320.52 103.71 317.4C103.59 316.49 103.47 315.58 103.35 314.66L103.34 314.67Z" fill="#46AAAB"/>
<path d="M156.22 416.48C154.81 418.38 153.41 420.28 152 422.18C151.49 421.78 150.75 421.5 150.51 420.98C138.11 394.49 116.15 378.55 90.6299 366.47C87.7499 365.11 84.29 364.69 82.24 361.79C85.6 355.74 85.58 355.79 92.26 358.59C110.45 366.19 126.77 376.59 140.6 390.72C146.1 396.34 150.52 402.81 154.52 409.56C155.63 411.43 156.52 413.42 156.21 415.71C156.21 415.97 156.21 416.22 156.21 416.48H156.22Z" fill="#3EAFAE"/>
<path d="M89.7201 347.6C92.6001 343.67 95.9701 344.98 99.4801 346.57C120.93 356.28 141.38 367.5 157.43 385.24C161.46 389.69 166.5 393.8 166.13 400.8C165.45 401.64 164.77 402.48 164.09 403.32C162.72 405.92 161.41 404.38 160.3 403.16C158.39 401.06 157.25 398.42 155.61 396.12C145.81 382.4 132.31 373.14 118.03 364.81C110.41 360.37 102.61 356.32 94.3102 353.27C91.9702 352.41 89.6001 351.43 89.2801 348.41C89.1101 347.97 89.1801 347.66 89.7101 347.59L89.7201 347.6Z" fill="#40AEAE"/>
<path d="M136.17 70.4699C121.17 77.6899 105.14 82.0699 89.4799 87.4699C80.9299 90.4199 72.4899 93.8401 63.4899 95.3401C63.0799 94.0901 62.6699 92.8301 62.2499 91.5801C60.9599 89.5301 61.8998 88.16 63.6398 87.05C64.9098 86.24 66.2999 85.7099 67.7199 85.2099C87.5999 78.1499 107.51 71.22 127.34 64.03C129.97 63.08 132.53 61.7399 135.47 61.9699C138.24 64.5899 135.49 67.6699 136.16 70.4599L136.17 70.4699Z" fill="#CEDBDC"/>
<path d="M68.6599 377.41C71.9999 373.1 75.5999 373.85 79.6499 376.53C97.9599 388.64 114.45 402.6 126.22 421.47C124.26 423.25 121.53 424.07 117.35 424.14C112.86 420.86 110.1 416 106.6 411.87C96.6201 400.08 84.77 390.65 72.02 382.19C68.87 380.1 68.9 380.07 68.71 377.44L68.6599 377.42V377.41Z" fill="#BCD5D8"/>
<path d="M102.18 191.21C102.18 190.38 102.45 189.44 102.15 188.74C100.71 185.37 101.93 184.68 105.32 184.49C121.76 183.58 137.79 180.21 153.63 175.81C156.47 175.02 159.34 174.32 162.2 173.58C163.48 174.95 163.21 176.68 162.18 177.66C160.12 179.62 159.49 182.22 158.29 184.59C141.27 190.77 123.66 193.5 105.6 193.53C104.41 193.53 103.29 193.28 102.33 192.54L102.18 191.21Z" fill="#4AB3B4"/>
<path d="M160.24 409.56C159.64 410.5 159.03 411.44 158.43 412.37C156.26 413.6 155.92 411.43 155.34 410.45C140.38 384.99 117.57 369.27 90.91 358.27C88.76 357.38 85.7901 357.06 86.4601 353.47C86.8501 352.83 87.24 352.19 87.63 351.55C88.69 350.77 89.74 350.94 90.89 351.43C110.35 359.71 128.8 369.69 144.69 383.87C150.68 389.21 155.21 395.78 159.51 402.5C160.91 404.69 161.5 407.04 160.24 409.55V409.56Z" fill="#40AAAA"/>
<path d="M252.17 320.11C253.18 317.8 255.1 316.07 251.41 313.56C222.3 293.79 191.8 277.01 157.11 269.22C146.79 266.9 136.28 265.44 125.87 263.51C122.86 262.95 119.62 262.97 117.23 260.56C132.55 261.15 147.43 264.57 162.25 268.04C195.73 275.88 225.22 292.19 253.01 311.94C254.59 313.07 255.95 314.73 258.19 314.62C258.47 314.82 258.56 315.01 258.46 315.2C258.36 315.39 258.26 315.48 258.17 315.48C256.17 317.03 254.17 318.57 252.17 320.12V320.11Z" fill="#140C15"/>
<path d="M136.18 62.6799C118.63 68.8099 101.07 74.93 83.52 81.08C77.45 83.21 71.4101 85.44 65.3201 87.52C63.2601 88.22 61.64 88.99 62.25 91.59C60.44 90.82 60.8099 88.93 60.1599 87.56C60.1999 87.13 60.24 86.71 60.28 86.28C69.78 80.99 80.2099 77.9799 90.3799 74.4499C103.57 69.8699 116.6 64.8699 129.85 60.4499C146.5 54.1999 163.36 48.5501 179.94 42.1201C181.57 41.4901 183.23 40.29 185.11 41.55C185.72 41.88 186.34 42.21 186.95 42.54C187.01 43.9 187.07 45.2598 187.12 46.6298L186.75 46.58H186.38C184 46.27 181.82 46.97 179.62 47.79C166.75 52.62 153.92 57.53 140.96 62.08C139.42 62.62 137.9 63.4399 136.18 62.6999V62.6799Z" fill="#050D19"/>
<path d="M228.37 198.59C226.18 197.16 225.28 199.1 224.04 200.22C211.3 211.72 197.81 222.07 181.42 227.99C164.06 234.26 146.13 232.94 128.24 232.05C125.26 231.9 122.17 231.89 119.35 231.05C114.42 229.58 112.46 231.14 112.9 236.13C112.73 236.22 112.59 236.35 112.49 236.51C112.84 232.37 110.44 228.67 110.63 224.55L110.64 224.57C122.62 229.71 135.44 228.69 147.94 229.06C172.17 229.78 193.18 220.91 211.66 205.59C212.94 204.53 214.14 203.36 215.49 202.38C219.85 199.23 223.29 195.69 221.09 189.66C220.99 188.62 219.56 187.56 221.15 186.56C223.56 190.57 225.97 194.59 228.38 198.6L228.37 198.59Z" fill="#060C18"/>
<path d="M111.33 285.49C112.3 287.96 114.22 289.03 116.72 289.79C134.32 295.17 152.15 299.94 168.9 307.78C186.9 316.21 204.05 325.93 217.9 340.57C218.7 341.41 219.47 342.31 220.72 342.5C219.14 343.84 217.56 345.18 215.98 346.52C215.55 346.48 215.12 346.45 214.7 346.41C215.2 343.64 213.9 341.88 211.88 340.03C197.45 326.85 180.77 317.31 163.04 309.44C147.63 302.61 131.38 298.23 115.38 293.11C113.94 292.65 112.43 292.62 110.94 292.48L110.59 292.46L110.24 292.52C109.75 290.04 111.26 287.87 111.33 285.48V285.49Z" fill="#160C17"/>
<path d="M75.73 122.64C76.15 122.62 76.57 122.61 76.99 122.59C95.71 117.86 114.18 112.27 132.49 106.15C152.72 99.4699 172.92 92.71 192.21 83.55C192.46 83.59 192.71 83.59 192.96 83.55C193.09 84.51 193.22 85.4699 193.35 86.4299C192.63 87.1299 191.9 87.82 191.18 88.51C190.51 90.77 188.44 91.26 186.63 92.01C153.79 105.45 120.21 116.69 85.8899 125.74C83.6899 126.32 81.4 127.33 79.2 125.62C78.6 125.94 77.9999 126.25 77.4099 126.57C76.8499 125.26 76.29 123.95 75.73 122.63V122.64Z" fill="#0F0C15"/>
<path d="M102.33 192.54C121.8 192.79 140.62 189.02 159.13 183.37C160.1 181.48 162.06 181.37 163.76 180.85C177.75 176.56 190.93 170.48 203.43 162.9C204.83 162.05 206.16 160.95 207.99 161.46C208.64 161.16 209.3 160.87 209.95 160.57C210.09 161.16 210.23 161.76 210.37 162.35C209.63 163.05 208.89 163.76 208.15 164.46C190.76 175.83 171.67 183.23 151.7 188.49C137.24 192.3 122.59 194.95 107.54 194.64C105.97 194.61 104.61 194.93 103.35 195.83C103 194.74 102.66 193.65 102.31 192.55L102.33 192.54Z" fill="#110B16"/>
<path d="M100.25 157.61C99 157.39 97.38 157.77 97.2 155.77C98.66 153.81 100.95 153.78 103.03 153.39C134.81 147.35 164.97 136.55 194.01 122.45C195.34 121.81 196.59 120.82 198.2 121.57C198.78 121.25 199.36 120.92 199.94 120.6C200.1 121.58 200.26 122.55 200.43 123.53C199.61 123.59 198.73 123.47 198.15 124.27C197.12 127.58 193.99 128.51 191.41 129.73C164.21 142.57 135.97 152.37 106.4 158.18C104.32 158.59 102.15 159.38 100.24 157.62L100.25 157.61Z" fill="#060D1A"/>
<path d="M103.71 317.4C102.93 320.55 105.66 320.37 107.3 321.04C125.74 328.48 144.29 335.7 161.06 346.63C171.24 353.27 180.64 360.87 188.23 370.49C188.66 370.85 189.08 371.21 189.51 371.57C188.99 372.22 188.48 372.87 187.96 373.52C187.43 373.18 186.91 372.83 186.38 372.49C183.97 372.24 182.72 370.31 181.27 368.79C165.81 352.74 147.29 341.31 126.82 332.94C118.53 329.55 110.45 325.69 102.08 322.48C101.74 322.48 101.4 322.47 101.05 322.46C101.68 320.64 101.03 318.14 103.72 317.39L103.71 317.4Z" fill="#150C18"/>
<path d="M68.71 377.44C68.33 378.76 69.36 379.1 70.2 379.61C88.95 391 104.56 405.78 117.44 423.49C122.32 427.51 123.74 433.48 126.03 438.94C128.16 444.02 128.04 444.07 132.95 441.7C133.69 441.34 134.45 440.97 135.27 441.52C135.75 441.54 136.23 441.56 136.71 441.58C132.04 446.16 126.33 448.85 120.16 450.69C119.83 450.61 119.5 450.52 119.17 450.44C119.22 450.21 119.22 449.97 119.19 449.74C123.28 447.13 122.86 443.69 121.19 439.84C117.86 432.19 114.44 424.62 108.83 418.27C96.7801 404.64 84.38 391.42 68.55 382C67.69 381.49 66.8201 380.98 66.3201 380.06C66.2901 379.6 66.25 379.15 66.22 378.69C66.75 377.68 67.71 377.5 68.72 377.44H68.71Z" fill="#09151C"/>
<path d="M160.24 409.56C160.64 406.5 158.98 404.16 157.53 401.74C148.63 386.91 135.52 376.67 120.93 368C111.08 362.15 101 356.75 90.49 352.18C89.61 351.8 88.5899 351.75 87.6299 351.55C88.1799 350.51 88.73 349.47 89.29 348.42C90.65 350.97 93.2699 351.56 95.6599 352.55C113.61 359.97 130.35 369.39 144.97 382.33C151.27 387.9 156.33 394.45 160.64 401.63C161.4 402.89 161.76 405.18 164.1 403.33C163.71 405.96 161.93 407.73 160.24 409.55V409.56Z" fill="#0E0F1B"/>
<path d="M86.47 353.47C87.05 355.88 89.04 356.56 91.04 357.36C108.5 364.33 124.58 373.49 138.19 386.69C144.93 393.23 150.84 400.35 155.51 408.52C156.3 409.9 156.6 411.75 158.43 412.37C157.93 413.64 157.63 415.05 156.21 415.71C143.12 388.73 120.36 372.69 94.03 360.68C93.28 360.34 92.42 360.16 91.75 359.7C87.8 356.98 84.6 357.4 82.23 361.79C82.21 361.39 82.1999 360.98 82.1799 360.57C83.5999 358.2 85.03 355.83 86.45 353.46L86.47 353.47Z" fill="#0F0F1A"/>
<path d="M206.11 272.86C201.09 272.06 196.82 269.32 192.21 267.46C192.21 266.58 192.51 265.88 193.41 265.57C200.76 269.38 204.74 265.27 209.35 259.95C220.59 246.97 234.11 236.49 248.4 227.02C249.48 226.31 250.65 225.47 252.05 226.44C253.2 225.99 253.28 225.02 253.23 223.99C256.2 226.27 259.17 228.55 262.13 230.82C260.71 231.89 259.37 231.93 258.13 230.53C256.07 229.68 254.01 229.18 251.95 230.57C234.8 242.16 218.45 254.64 206.2 271.68C206.17 272.07 206.14 272.46 206.1 272.85L206.11 272.86Z" fill="#0A0F17"/>
<path d="M258.17 315.48C258.14 315.19 258.14 314.91 258.19 314.63C260.03 312.56 261.41 309.92 264.59 309.53C262.74 311.83 260.71 313.93 258.17 315.49V315.48Z" fill="#122340"/>
<path d="M130.19 61.4399C111.36 68.2099 92.5599 75.03 73.6999 81.7C69.2499 83.27 65.2499 86.2 60.2899 86.27C57.0899 78.3 57.16 78.5001 65.57 75.6101C86.03 68.5801 106.41 61.3299 126.84 54.1899C127.59 53.9299 128.4 53.8499 129.19 53.6899C130.28 56.1699 133.05 58.4399 130.2 61.4399H130.19Z" fill="#D0DADA"/>
<path d="M130.19 61.44C131.5 58.64 128.25 56.44 129.18 53.69C143.21 47.82 157.81 43.55 172.18 38.65C174.21 37.96 176.27 37.3201 178.28 36.5701C182.933 34.8568 185.21 36.5068 185.11 41.5201C166.8 48.1601 148.5 54.8 130.19 61.43V61.44Z" fill="#B8CBCC"/>
<path d="M136.62 33.68C136.97 35.07 136.3 36.11 135.28 35.91C132.15 35.3 132.61 32.2702 131.84 30.1102C131.42 28.9302 132.33 27.75 133.13 27.95C136.06 28.7 135.68 31.73 136.63 33.67L136.62 33.68Z" fill="#91BCBA"/>
<path d="M154.76 20.8101C156.86 22.3301 157.5 24.7301 158.16 27.0801C158.44 28.1101 158.16 29.45 156.99 29.3C153.78 28.9 154.12 25.7699 153.27 23.6499C152.82 22.5299 153.37 21.39 154.76 20.8V20.8101Z" fill="#5BB5B8"/>
<path d="M147.12 30.3898C147.15 31.5798 147.05 32.7798 146.06 32.4298C143.42 31.4798 143.03 28.8199 142.42 26.5299C142.15 25.5099 143.2 24.4098 144.16 24.6798C147.26 25.5398 146 28.7798 147.13 30.3898H147.12Z" fill="#8EC5C2"/>
<path d="M166.81 25.9799C165.14 25.9099 165.18 24.5399 165.01 23.4799C164.68 21.4399 162.28 18.3898 165.09 17.6298C167.31 17.0298 166.84 20.7598 167.43 22.6398C167.82 23.8898 168.62 25.1699 166.81 25.9799Z" fill="#619A97"/>
<path d="M101.82 45.6299C102.29 47.1599 101.48 47.91 100.78 47.73C97.6901 46.97 97.6601 43.9699 96.7601 41.6599C96.4301 40.8199 97.1001 39.5801 97.7401 39.8201C100.53 40.8601 100.66 43.8999 101.82 45.6299Z" fill="#DAE5E1"/>
<path d="M80.29 55.8601C79.38 56.0601 79.2001 56.1601 79.0801 56.1101C75.9101 54.8101 75.3301 51.92 74.8501 49.02C74.8301 48.92 76.18 48.27 76.48 48.48C79.12 50.29 78.95 53.3201 80.29 55.8601Z" fill="#D3E1DD"/>
<path d="M175.46 14.3999C176.11 15.1399 176.74 15.53 176.87 16.05C177.43 18.36 179.09 20.6001 177.68 23.0701C177.33 23.6901 176.32 23.5299 176.06 22.8899C175.01 20.2899 173.6 17.6499 175.46 14.3999Z" fill="#4B97A0"/>
<path d="M69.0501 60.96C65.6701 59 65.2002 56.13 64.0602 53.71C63.7102 52.96 63.5402 52.0601 64.5702 51.7201C65.2202 51.5001 65.8002 51.9302 66.1002 52.6102C67.1702 55.0702 68.9301 57.2701 69.0501 60.9701V60.96Z" fill="#D3DFDD"/>
<path d="M114.2 44.0801C110.34 43.0701 109.98 40.56 108.89 38.68C108.55 38.09 108.29 37.42 109.05 36.97C109.85 36.49 110.68 36.54 111.13 37.46C112.05 39.33 112.88 41.2301 114.19 44.0801H114.2Z" fill="#D1D9D9"/>
<path d="M123.54 39.8701C121.34 38.6301 120.86 36.35 120.28 34.19C120.03 33.27 120.92 32.3399 121.63 32.6299C124.25 33.7099 123.96 36.4999 124.74 38.6499C125.08 39.5899 124.13 39.5701 123.54 39.8701Z" fill="#D6E2E0"/>
<path d="M55.23 56.3501C57.44 58.5301 58.33 61.3299 59.48 64.4399C55.81 62.4799 55.11 61.2401 55.23 56.3501Z" fill="#C3CECF"/>
<path d="M85.9299 42.96C89.6499 46.88 89.7701 47.1401 90.5601 52.0601C87.5801 49.8301 86.3699 47.23 85.9299 42.96Z" fill="#E8EFEB"/>
<path d="M252.04 226.44C234.85 236.7 219.49 249.24 206.9 264.76C203.27 269.23 200.49 269.85 196.11 267.34C195.19 266.81 193.72 267.03 193.41 265.57C208.07 249.19 224.75 235.08 242.46 222.15C246.46 219.23 250.47 221.11 252.04 226.44Z" fill="#C8D7DA"/>
<path d="M198.2 121.57C166.3 138.19 132.65 149.65 97.2 155.77C92.16 157.06 88.72 155.85 88.25 149.6C98.27 147.86 108.32 145.81 118.23 143.15C143.26 136.43 167.4 127.32 190.99 116.67C197.78 113.61 197.9 113.77 198.21 121.56L198.2 121.57Z" fill="#CAD4D4"/>
<path d="M100.25 157.61C119.25 155.04 137.49 149.44 155.5 143.17C167.55 138.97 179.46 134.32 190.86 128.5C193.36 127.22 195.72 125.68 198.15 124.26C201.65 129.08 201.15 131.73 196.31 134.3C166.46 150.16 134.71 160.23 101.34 165.24C98.6901 165.64 94.7701 168.08 93.0001 162.92C92.0001 160 92.63 158.95 95.46 158.65C97.09 158.48 98.8201 158.68 100.26 157.6L100.25 157.61Z" fill="#C7D5D7"/>
<path d="M79.21 125.63C90.84 123.72 101.94 119.82 113.19 116.52C139.73 108.73 165.78 99.5 191.19 88.52C193.44 92.25 193.94 95.1501 188.9 97.3601C155.1 112.21 120.08 123.38 84.23 131.99C78.88 133.27 79.97 128.5 79.22 125.63H79.21Z" fill="#40ABAC"/>
<path d="M208 161.46C192.91 171.44 176.59 178.68 159.13 183.37C157.32 181.92 154.82 180.66 159.34 179.25C161.72 178.51 162.14 175.94 162.19 173.58C176.23 168.15 189.91 161.92 203.59 155.65C209.38 153 207.26 158.89 208 161.45V161.46Z" fill="#37A3A5"/>
<path d="M206.2 271.68C204.67 269.7 206.54 268.55 207.46 267.45C220.41 252 235.93 239.53 252.76 228.59C255.46 226.83 257.02 227.96 258.12 230.52C241.69 242.4 225.91 255.02 213.89 271.61C210.99 275.62 208.74 271.77 206.19 271.68H206.2Z" fill="#C1D7D6"/>
<path d="M192.21 83.55C192.16 85.7 190.43 86.0499 188.92 86.6899C170.66 94.4799 152.05 101.33 133.11 107.29C129.01 106.38 130.75 103.97 131.77 101.85C132.47 100.41 134.48 100.09 134.97 98.3898C152.25 91.8498 169.59 85.4399 186.79 78.6899C192.61 76.4099 190.11 82.3 192.22 83.54L192.21 83.55Z" fill="#38A5A6"/>
<path d="M134.96 98.3999C136.41 100.23 134.85 100.74 133.69 101.62C131.56 103.24 130.36 105.11 133.11 107.3C116.13 113.11 98.97 118.37 81.54 122.67C80.06 123.03 78.4699 124.38 76.9999 122.59C75.2533 118.263 76.7198 115.417 81.3998 114.05C99.2598 108.83 117.12 103.62 134.97 98.3999H134.96Z" fill="#46B4B4"/>
<path d="M136.18 62.68C151.89 56.78 167.6 50.88 183.3 44.96C184.98 44.33 186.21 44.3901 186.38 46.5601C187.48 50.2601 186.36 52.13 182.47 53.7C168.71 59.24 154.81 64.39 140.88 69.46C139.39 70 137.94 71.13 136.16 70.46C133.73 67.86 135.44 65.26 136.18 62.67V62.68Z" fill="#B7CED0"/>
<path d="M221.09 189.65C224.91 195.69 224.88 195.66 219.36 200.75C205.48 213.56 190 223.6 171.39 227.98C155.26 231.78 138.95 230.3 122.67 229.06C121.18 228.95 119.68 228.53 118.21 228.61C114.81 228.8 112.18 227.77 110.65 224.56C111.17 221.81 112.79 221.32 115.49 221.39C128.94 221.75 142.38 222.11 155.83 220.78C177.82 218.61 196.19 208.68 212.98 195.08C215.51 193.03 217.6 190.28 221.09 189.64V189.65Z" fill="#C0CED0"/>
<path d="M66.3101 380.05C73.0701 382.34 78.46 386.87 83.71 391.36C97.1 402.84 110.15 414.73 118.41 430.75C120.15 434.12 121.39 437.75 122.94 441.23C124.85 445.5 124.94 448.88 119.19 449.73C117.68 450.16 117.39 449.4 117.04 448.04C113.45 434.1 105.49 422.84 95.3201 412.95C86.5001 404.37 77.6001 395.88 67.3301 388.99C63.3234 386.303 62.9801 383.323 66.3001 380.05H66.3101Z" fill="#B3D1D4"/>
<path d="M97.8402 441.76C95.8902 439.42 94.77 435.71 90.91 439.06C90.04 439.82 89.4501 438.93 89.0701 438.18C88.6201 437.28 88.1102 436.31 89.3402 435.62C90.4102 435.02 90.96 433.39 92.67 434.03C96.17 435.35 98.9802 437.11 97.8502 441.77L97.8402 441.76Z" fill="#D9DFE2"/>
<path d="M63.36 405.39C63.49 404.35 62.7998 402.5 64.8998 402.74C66.4498 402.92 67.4898 404.18 67.1598 405.93C66.9098 407.26 67.2498 409.44 65.3898 409.37C63.3198 409.3 63.51 407.11 63.36 405.38V405.39Z" fill="#D8DCDC"/>
<path d="M76.3999 415.29C77.4199 417.87 79.1699 418.98 80.4399 420.56C77.4333 421.433 74.2134 420.383 70.78 417.41C73.04 417.38 76.2399 420.61 76.3999 415.29Z" fill="#DEE2E2"/>
<path d="M92.47 445.93C94.49 445.24 96.6701 446.06 97.8401 444.03C98.0801 444.35 98.27 444.48 98.26 444.6C98.05 446.94 100.65 450.15 98.5901 451.25C96.4301 452.41 96.7 448.06 94.78 447.13C94.08 446.79 93.39 446.41 92.46 445.93H92.47Z" fill="#D9DFE2"/>
<path d="M52.3201 396.9C54.6401 395.89 56.7201 395.34 58.1001 397.69C58.8001 398.87 58.5401 400.29 57.0901 401.04C56.5301 401.33 55.8 401.72 55.28 401.57C53.65 401.11 55.18 400.43 55.3 399.87C55.84 397.44 53.3301 398.25 52.3101 396.9H52.3201Z" fill="#E4E7EA"/>
<path d="M76.38 410.98C75.8 411.86 75.0701 412.89 74.0601 412.23C72.7801 411.39 70.65 411.13 70.68 409.11C70.7 408.24 71.8 407.4 72.92 407.83C74.45 408.42 75.9 409.2 76.38 410.98Z" fill="#C7CBCF"/>
<path d="M84.4499 425.85C83.0899 424.5 80.6101 423.83 81.8501 421.39C82.2001 420.69 83.1899 420.24 83.9599 420.73C86.1299 422.09 85.2299 423.98 84.4499 425.86V425.85Z" fill="#F0F4F5"/>
<path d="M47.93 401.75C43.37 400.53 47.1302 397.37 46.3402 395.3C46.2302 395.01 47.11 394.92 47.44 395.34C47.74 395.72 49.19 395.86 48.17 396.54C45.61 398.24 48.87 399.74 47.93 401.75Z" fill="#A8B2B8"/>
<path d="M82.48 427.01C85.36 428.17 87.22 428.3 87.54 430.49C87.59 430.85 86.68 431.73 86.26 431.71C84.19 431.58 84.17 429.59 82.47 427.02L82.48 427.01Z" fill="#CED4D6"/>
<path d="M54.4198 403.61C56.1798 404.86 58.7299 405.1 58.2499 407.49C57.8599 409.44 56.55 410.13 56.1 407.19C55.94 406.14 54.1098 405.98 54.4198 403.6V403.61Z" fill="#CED3D5"/>
<path d="M66.43 416.54C63.87 416.26 62.5401 415.56 62.2501 413.64C62.2001 413.33 62.7401 412.63 63.0001 412.64C65.1801 412.65 65.31 414.63 66.43 416.55V416.54Z" fill="#D8DFE6"/>
<path d="M110.93 292.49C111.72 290.35 113.31 291.15 114.68 291.56C143.96 300.24 172.96 309.58 198.29 327.47C204.14 331.6 209.56 336.21 214.85 341.02C217.11 343.07 217.17 344.68 214.7 346.41C211.65 349.25 208.98 348.29 206.12 345.88C179.96 323.86 149.39 310.44 117.15 300.23C113.57 299.1 108.46 298.7 110.92 292.49H110.93Z" fill="#40A6A6"/>
<path d="M135.27 441.52C132.76 443.1 130.25 444.68 127.37 446.48C124.86 438.21 121.43 430.72 117.43 423.48C120.53 423.54 123 420.89 126.21 421.46C130.18 427.71 135.05 433.56 135.26 441.51L135.27 441.52Z" fill="#94CDCF"/>
<path d="M102.07 322.49C103.28 320.94 104.6 322.09 105.64 322.57C120.66 329.49 136.41 334.84 150.7 343.37C164.04 351.33 176.06 360.86 186.38 372.5C185.75 375.71 182.92 377.31 181.01 379.53C179.12 381.74 178.08 378.99 177.22 378.05C167.66 367.71 156.67 359.15 144.79 351.7C132.81 344.19 120.42 337.48 107.13 332.51C99.6699 329.72 99.7001 329.65 102.08 322.49H102.07Z" fill="#43A8AB"/>
</svg>
