<svg width="1360" height="1945" viewBox="0 0 1360 1945" fill="none" xmlns="http://www.w3.org/2000/svg">
<g clip-path="url(#clip0_80_7222)">
<path d="M1350.28 220.688C1346.9 223.42 1344.4 225.407 1340.08 226.313C1332.33 227.934 1328.72 229.943 1321.28 226.488C1313.82 227.418 1305.42 229.237 1297.97 228.191C1296.44 226.605 1296.22 226.326 1295.54 224.394C1292.1 224.357 1289.7 227.991 1285.31 228.555C1275.06 229.871 1263.52 229.416 1253.1 229.91C1235.22 230.754 1217.17 229.154 1199.26 229.44C1172.76 229.86 1146.27 231.945 1119.8 232.346L971.117 234.841C966.344 234.906 929.868 234.357 928.929 234.782C927.746 235.32 927.083 236.695 925.907 237.248C925.266 237.549 860.258 240.124 852.894 240.421C821.863 241.665 786.043 238.643 755.9 243.148L753.802 240.889C752.033 241.425 750.477 242.044 748.819 242.843C746.715 243.859 747.664 243.678 745.939 243.752C745.93 249.397 745.368 254.643 744.41 260.201C742.512 271.212 743.54 283.254 743.054 294.487L739.314 371.084C739.294 371.455 739.423 371.819 739.479 372.185C740.1 377.211 740.436 383.202 738.802 388.054C739.292 400.288 739.429 428.696 737.235 439.99C735.063 456.78 735.135 474.246 734.642 491.16L732.309 561.741C731.272 591.321 727.287 621.25 728.703 650.881C727.257 658.578 730.803 667.794 728.856 674.478C727.113 675.23 726.28 675.045 725.542 676.873C725.514 685.339 725.145 693.971 725.729 702.412C727.23 711.414 723.222 745.324 722.627 758.071L715.905 897.029C715.439 905.128 715.969 913.333 715.374 921.4C715.228 923.37 714.733 925.281 714.121 927.15C711.605 948.458 713.563 970.297 711.932 991.744L709.864 1010.75L708.718 1011.8C709.565 1014.72 710.088 1015.46 709.173 1018.3C709.01 1018.65 708.805 1018.98 708.685 1019.35C708.04 1021.31 708.315 1022.6 708.461 1024.6C709.001 1031.99 707.666 1039.46 707.079 1046.82C705.482 1066.94 706.276 1082.54 692.208 1098.77C680.475 1112.31 667.438 1122.72 654.366 1134.74C647.69 1140.87 641.753 1148 634.4 1153.34C627.716 1158.2 620.112 1161.76 613.26 1166.37C601.7 1174.16 589.752 1183.24 578.767 1191.84C572.921 1196.42 569.409 1203.62 563.572 1208.23C557.067 1213.36 548.223 1215.01 541.654 1219.99C535.027 1225.03 530.415 1232.57 523.706 1237.58C506.505 1250.41 488.304 1262.09 471.086 1274.87C461.199 1282.2 452.118 1290.56 442.462 1298.2C435.641 1303.59 426.93 1304.87 420.344 1310.59C416.71 1313.38 403.934 1321.9 403.261 1326C403.097 1327 403.171 1327.74 403.21 1328.72C401.77 1330.1 401.842 1330.42 399.91 1330.74C393.337 1331.8 377.38 1343.27 373.757 1349C373.506 1349.39 373.295 1349.82 373.064 1350.22C358.673 1362.96 342.477 1374.67 327.487 1386.85C318.086 1394.77 308.705 1402.8 298.741 1410C291.099 1415.52 282.747 1420.12 275.296 1425.89C269.163 1430.64 263.969 1436.52 257.864 1441.3C251.246 1446.49 243.905 1450.73 237.295 1455.94C229.522 1462.06 222.526 1469.17 214.508 1474.99C207.763 1479.88 200.379 1483.89 193.734 1488.9C185.198 1495.32 152.265 1525.36 143.907 1525.33C140.236 1527.07 136.465 1528.8 133.234 1531.3C122.695 1539.45 69.844 1592.32 65.6195 1601.91L66.4974 1606.31C63.896 1607.85 62.9113 1606.3 60.7174 1607.11C54.3991 1609.45 24.0757 1670.01 23.5071 1670.44C23.0474 1670.78 22.3982 1670.73 21.847 1670.88C20.1411 1671.37 18.6594 1671.93 17.0516 1672.65L16.1322 1674.37C17.1191 1676.69 18.3349 1678.17 20.0038 1680.04C19.385 1682.14 18.5876 1682.98 17.3109 1684.74C14.0058 1689.3 12.5155 1693.88 10.814 1699.16C11.4269 1701.16 12.0246 1703.16 12.607 1705.16C7.7398 1710.62 3.62422 1716.57 4.38023 1724.34C4.53492 1725.92 4.90965 1727.43 5.27131 1728.97L0.0685522 1737.26C1.3017 1738.89 2.61979 1740.25 4.0926 1741.66C2.28645 1744.97 0.541385 1742.09 0.123073 1746.58C1.43248 1748.51 2.78105 1750.32 4.26693 1752.12C4.95322 1756.31 3.55236 1758.47 1.72878 1762.1C2.74624 1768.84 5.7702 1801.63 9.42607 1804.68C9.96857 1805.14 11.1059 1805.83 11.7334 1806.23L11.4589 1807.16L8.60041 1807.21L7.9076 1808.21L8.77249 1809.55C13.5351 1817.08 14.7138 1825.5 18.8839 1832.93C22.5136 1839.4 29.357 1842.96 29.9452 1850.87C30.5967 1859.64 52.1071 1880.42 59.1595 1886.39C74.112 1899.06 90.0035 1909.4 107.915 1917.39C113.209 1919.75 118.854 1921.35 124.083 1923.79C127.933 1925.6 131.933 1929.08 136.003 1930.13C140.637 1931.33 146.186 1929.83 150.681 1931.44C154.042 1932.64 155.971 1936.01 159.764 1936.02C162.383 1934.15 162.602 1933.37 165.742 1933.76C167.097 1934.76 169.945 1937.49 171.394 1937.92C171.679 1938.01 212.24 1941.25 215.149 1941.31C217.696 1941.36 226.683 1940.28 228.465 1941.11C230.382 1942.01 228.129 1944.6 232.474 1943.91C233.709 1943.72 234.829 1943.07 236.01 1942.65C244.64 1939.58 268.222 1940.61 278.933 1939.91C295.635 1938.81 314.178 1933.74 330.673 1934.97C331.376 1934.27 331.941 1933.39 332.786 1932.86C337.442 1929.97 359.604 1927.14 366.064 1925.58C375.07 1923.4 383.776 1920.09 392.727 1917.71C400.352 1915.69 408.232 1914.6 415.814 1912.45C423.052 1910.4 429.946 1906.99 437.072 1904.55C447.933 1900.82 459.064 1898.19 469.679 1893.74C479.533 1889.6 489.015 1884.63 498.854 1880.45C515.113 1873.54 531.726 1867.37 547.417 1859.21C566.934 1849.06 584.841 1837.21 603.356 1825.4C614.5 1818.29 626.097 1811.9 637.204 1804.74C651.337 1795.63 665.074 1785.76 679.003 1776.32C703.154 1759.94 728.466 1744.07 751.161 1725.72C757.863 1722.01 764.589 1719.26 768.188 1712.14C772.295 1707.94 775.574 1705.01 781.188 1702.93L790.753 1695.67C796.967 1691.6 802.585 1686.37 808.418 1681.75C810.137 1680.86 810.81 1679.82 812.017 1678.34L819.126 1676.53C826.076 1669.17 847.829 1656.1 857.596 1648.7C864.134 1643.75 870.367 1638.37 876.995 1633.54C886.222 1626.81 896.002 1620.95 905.148 1614.07C927.665 1597.14 949.448 1579.81 972.891 1564.09C986.798 1554.77 1001.58 1546.9 1015.63 1537.82C1026.02 1531.1 1035.45 1522.96 1045.98 1516.43C1054.83 1510.94 1064.56 1506.92 1073.33 1501.28C1076.25 1499.4 1076.79 1498.54 1077.94 1495.25C1078.43 1495.51 1079.8 1496.27 1080.28 1496.41C1085.35 1497.82 1093.92 1486.04 1098.92 1483.82C1106.96 1480.25 1155.99 1452.5 1159.62 1448.45L1158.14 1445.43L1159.55 1444.02C1161.93 1445.3 1163.31 1445.65 1166.01 1445.71C1168.23 1444.77 1169.16 1444.1 1170.44 1442.12C1171.47 1440.51 1172.4 1439.28 1173.79 1437.94L1177.99 1438.57C1186.16 1433.22 1200.44 1426.69 1205.93 1418.92C1206.69 1417.85 1207.53 1416.93 1208.42 1415.97L1213.57 1417.94C1218.96 1415.56 1224.83 1409.22 1229.43 1405.41C1232 1405.76 1233.28 1406 1235.62 1404.78C1236.76 1402.22 1237.44 1399.91 1240.06 1398.52L1243.04 1399.91C1280.25 1372.75 1300 1357.48 1323.59 1316.18C1325.24 1313.28 1327.77 1310.94 1329.34 1307.99C1333.28 1300.56 1345.59 1260.71 1343.73 1254.24C1341.48 1246.43 1347.44 1241.78 1348.38 1234.51C1348.99 1229.8 1343.52 1229.33 1345 1225.78C1345.54 1224.48 1349.9 1220.34 1349.38 1218.96C1348.71 1217.19 1345.11 1215.5 1344.16 1213.79C1342.21 1210.25 1346.77 1201.36 1346.33 1196.94C1345.78 1191.35 1342.55 1185.81 1341.63 1180.11C1339.5 1166.86 1338.93 1153.11 1337.55 1139.75C1335.94 1138.25 1334.71 1136.69 1333.92 1134.6C1332.44 1130.71 1332.74 1125.14 1332 1120.97C1330.63 1113.19 1328.48 1105.56 1327.14 1097.78C1325.92 1090.69 1325.75 1083.25 1324.21 1076.25C1323.03 1070.89 1318.85 1065.11 1318.79 1059.7C1318.78 1059.25 1318.87 1058.8 1318.92 1058.35C1319.21 1057.77 1319.59 1057.21 1319.8 1056.59C1320.82 1053.57 1319.87 1051.35 1318.69 1048.66C1321.6 1040.05 1320.15 1027.95 1319.75 1018.8C1320.51 1013.32 1318.85 1009.09 1321.46 1003.79C1322.8 982.757 1322.01 961.913 1323.01 940.972L1333.97 727.301C1334.39 718.881 1334.14 679.921 1336.49 676.176C1336.51 676.139 1337.78 674.217 1337.82 674.115C1338.89 671.034 1337.28 666.774 1336.44 663.746C1333.72 653.981 1337.38 638.815 1337.95 628.42C1338.83 612.239 1339.77 596.001 1340.16 579.8C1340.36 571.759 1339.44 563.192 1340.35 555.253C1340.71 552.15 1341.99 549.1 1343.14 546.218C1340.77 538.555 1342.49 471.606 1345.3 464.083C1348.37 455.858 1343.1 439.526 1345.53 428.345C1348.72 411.794 1344.64 391.449 1346.33 374.196C1351.43 368.858 1348.08 364.956 1349.44 358.969C1343.91 341.166 1348.27 318.19 1348.76 299.686L1350.28 220.688Z" fill="#FCE4B8"/>
<path d="M1187.91 1005.31C1186.58 1003.47 1185.21 1001.65 1183.81 999.875C1171.3 1003.49 1159.29 1030.78 1152.32 1041.6C1148.5 1047.51 1143.7 1053.24 1140.36 1059.39C1139.55 1060.88 1139.04 1062.53 1138.27 1064.01C1137.04 1066.38 1134.54 1067.85 1132.42 1069.35C1128.91 1079.76 1098.33 1133.43 1091.71 1140.4C1090.11 1142.09 1088.34 1143.32 1086.31 1144.42C1085.45 1146.97 1085.49 1148.71 1085.6 1151.36C1083.32 1156.02 1079.61 1158.53 1075.22 1161.12C1062.31 1168.74 1047.11 1173.15 1033.45 1179.36C1020.9 1185.06 1009.11 1192.06 996.386 1197.46C984.2 1202.64 962.915 1209.26 952.895 1217.48C949.572 1220.21 946.86 1224.95 948.112 1229.36C948.901 1232.13 951.683 1234.19 953.847 1235.92C954.858 1239.02 954.84 1240.76 954.516 1243.92C959.095 1249.89 961.834 1254.88 964.187 1262.12C964.808 1264.04 965.4 1267.52 966.37 1269.15C967.745 1271.46 971.045 1270.23 970.769 1274.13C970.708 1275 970.222 1277.03 970.019 1277.92C973.605 1282.48 977.856 1286.1 979.627 1291.73C978.817 1293.14 978.02 1294.55 977.237 1295.97L978.122 1297.82L981.625 1297.91L982.333 1299.32L980.821 1303.62C984.813 1310.12 991.094 1315.36 993.641 1322.56C994.31 1324.45 995 1326.33 995.637 1328.23L993.789 1331.38C996.752 1333.97 1001.26 1336.65 1002.97 1340.12L1001.41 1343.87C1003.43 1348.31 1005.54 1354.6 1008.64 1358.29C1010.8 1360.87 1014.62 1362.89 1015.23 1366.31L1013.38 1369.58C1015.28 1374.59 1020.74 1377.49 1023.47 1382.05C1026.65 1387.38 1031.23 1407.61 1034.79 1409.99C1046.04 1417.53 1040.63 1438.17 1054.7 1442.98L1055.64 1444.75L1054.22 1448.04C1056.07 1452.3 1063.46 1455.71 1063.76 1459.48L1061.55 1462.11C1062.33 1467.05 1068.33 1473.65 1070.86 1478.17C1073.82 1483.47 1071.13 1486.64 1074.72 1489C1075.33 1489.41 1076.11 1489.72 1076.78 1490.02L1077.94 1495.25C1078.43 1495.51 1079.8 1496.28 1080.28 1496.41C1085.35 1497.82 1093.92 1486.04 1098.92 1483.82C1106.96 1480.25 1155.99 1452.5 1159.62 1448.45L1158.14 1445.43L1159.55 1444.03C1161.93 1445.3 1163.31 1445.65 1166.01 1445.71C1168.23 1444.77 1169.16 1444.1 1170.44 1442.12C1171.47 1440.51 1172.4 1439.28 1173.79 1437.94L1177.99 1438.57C1186.16 1433.22 1200.44 1426.69 1205.93 1418.92C1206.69 1417.85 1207.53 1416.93 1208.42 1415.97L1213.57 1417.94C1218.96 1415.56 1224.83 1409.22 1229.43 1405.41C1232 1405.76 1233.28 1406 1235.62 1404.78C1236.76 1402.22 1237.44 1399.91 1240.06 1398.53L1243.04 1399.91C1280.25 1372.75 1300 1357.48 1323.59 1316.18C1325.24 1313.28 1327.77 1310.94 1329.34 1308C1333.28 1300.56 1345.59 1260.71 1343.73 1254.24C1341.48 1246.43 1347.44 1241.78 1348.38 1234.51C1348.99 1229.8 1343.52 1229.33 1345 1225.78C1345.54 1224.48 1349.9 1220.34 1349.38 1218.96C1348.71 1217.19 1345.11 1215.5 1344.16 1213.79C1342.21 1210.25 1346.77 1201.36 1346.33 1196.94C1345.78 1191.35 1342.55 1185.81 1341.63 1180.11C1339.5 1166.86 1338.93 1153.11 1337.55 1139.75C1335.94 1138.25 1334.71 1136.69 1333.92 1134.6C1332.44 1130.71 1332.74 1125.14 1332 1120.97C1330.63 1113.19 1328.48 1105.56 1327.14 1097.78C1325.92 1090.69 1325.75 1083.25 1324.21 1076.25C1323.03 1070.89 1318.85 1065.11 1318.78 1059.71C1318.78 1059.25 1318.87 1058.81 1318.92 1058.35C1319.21 1057.77 1319.59 1057.21 1319.8 1056.59C1320.82 1053.57 1319.87 1051.35 1318.69 1048.66C1321.6 1040.05 1320.15 1027.95 1319.75 1018.8C1320.51 1013.32 1318.85 1009.09 1321.46 1003.79C1319.42 1003.42 1317.78 1003.05 1315.81 1002.4C1309.78 1000.41 1283.71 1002.37 1274.46 1001.48L1271.62 1003.95C1257.41 1000.4 1265.28 999.425 1251.41 1002.61C1249.63 1003.02 1248.29 1002.63 1246.56 1002.32C1238.27 1000.86 1232.64 1000.42 1224.43 1002.2C1221.29 1002.88 1218.06 1003.19 1214.88 1003.62C1213.73 1001.64 1214.12 1002.76 1213.92 1000.17C1208.62 1001.36 1203.17 1004.14 1197.76 1004.02L1194.3 1001.3C1191.69 1002.22 1190.06 1003.64 1187.91 1005.31Z" fill="#E8C775"/>
<path d="M1321.46 1003.79C1319.42 1003.42 1317.78 1003.05 1315.81 1002.4C1309.78 1000.41 1283.71 1002.37 1274.46 1001.48L1271.62 1003.95C1257.41 1000.4 1265.28 999.424 1251.41 1002.61C1249.63 1003.02 1248.29 1002.63 1246.56 1002.32C1238.27 1000.86 1232.64 1000.42 1224.43 1002.2C1221.29 1002.88 1218.06 1003.19 1214.88 1003.62C1213.73 1001.64 1214.12 1002.76 1213.92 1000.17C1208.62 1001.36 1203.17 1004.14 1197.76 1004.02L1194.3 1001.3C1191.69 1002.22 1190.06 1003.64 1187.91 1005.31C1185.65 1006.77 1184.73 1008.01 1184.1 1010.7C1183.43 1013.55 1184.02 1017.02 1184.76 1019.77C1186.82 1020.79 1187.91 1020.29 1190.08 1019.88C1206.64 1016.75 1307.3 1021.91 1310.28 1018.81C1312.28 1018.95 1312.64 1019.17 1314.29 1020.17C1316.12 1019.74 1317.94 1019.33 1319.75 1018.8C1320.51 1013.32 1318.85 1009.09 1321.46 1003.79Z" fill="#623C27"/>
<path d="M1318.69 1048.66C1318.47 1048.38 1318.25 1048.12 1318.04 1047.83C1317.08 1046.48 1316.59 1045.13 1316.01 1043.6C1308.62 1041.37 1281.52 1043.72 1272.13 1043.87C1269.78 1045.71 1269.55 1045.73 1268.81 1048.58C1269.54 1050.77 1271.41 1054.38 1271.69 1056.54C1271.73 1056.84 1271.21 1059.59 1271.27 1059.78C1271.51 1060.56 1272.53 1060.81 1273.15 1061.33C1277.16 1061.65 1280.2 1060.83 1284.05 1059.76C1284.6 1060.02 1285.15 1060.31 1285.71 1060.56C1292.87 1063.77 1306.56 1061.02 1313.82 1058.8C1314.45 1058.61 1315.07 1058.44 1315.7 1058.25C1316.07 1058.14 1316.44 1058.02 1316.81 1057.9L1318.92 1058.35C1319.21 1057.77 1319.59 1057.21 1319.8 1056.59C1320.82 1053.57 1319.87 1051.35 1318.69 1048.66Z" fill="#623C27"/>
<path d="M1209.82 1068.82L1209.26 1068.85L1207.63 1070.05C1205.88 1070.1 1204.47 1070.26 1202.82 1070.97C1199.61 1072.35 1198.58 1074.45 1197.54 1077.57C1196.75 1079.94 1195.98 1081.52 1194.59 1083.57C1192.28 1084.05 1190.55 1084.42 1188.56 1085.7C1188.26 1089.28 1188.68 1092.78 1189 1096.34C1187.23 1096.9 1184.91 1095.75 1183.12 1095.23C1180.26 1097.05 1179.29 1100.85 1177.38 1103.64C1176.06 1105.54 1175.5 1106.29 1174.97 1108.66C1174.53 1110.6 1174.26 1111.5 1173.32 1113.21C1172.96 1113.85 1172.59 1114.5 1172.23 1115.14L1172.96 1115.6C1178.21 1116.24 1187.35 1112.02 1191.76 1109.34C1200.85 1103.81 1219.46 1084.71 1222.19 1074.24C1218.59 1073.02 1214.72 1071.93 1211.48 1069.9C1210.92 1069.55 1210.37 1069.18 1209.82 1068.82Z" fill="#623C27"/>
<path d="M1251.24 1040.93C1245.59 1046.74 1226.8 1042.64 1218.56 1043.04C1216.37 1044.37 1214.39 1045.49 1212 1046.43C1211.18 1043.84 1211.19 1043.12 1209.11 1041.44L1206.38 1041.96C1203.7 1044.35 1202.66 1046.72 1201.38 1050.08C1200.02 1053.67 1200.2 1054.51 1201.71 1057.87C1203.17 1058.34 1204.44 1058.73 1205.99 1058.83C1212.16 1059.24 1251.3 1062.52 1254.16 1060.42C1255.97 1054.37 1253.24 1046.74 1251.24 1040.93Z" fill="#623C27"/>
<path d="M143.907 1525.33C140.236 1527.07 136.465 1528.8 133.234 1531.3C122.695 1539.45 69.8441 1592.32 65.6195 1601.91L66.4975 1606.31C63.8961 1607.85 62.9114 1606.3 60.7174 1607.11C54.3992 1609.45 24.0758 1670.01 23.5072 1670.44C23.0475 1670.78 22.3983 1670.73 21.8471 1670.88C20.1411 1671.37 18.6595 1671.93 17.0516 1672.65L16.1322 1674.37C17.1192 1676.69 18.335 1678.17 20.0039 1680.04C19.3851 1682.14 18.5877 1682.98 17.3109 1684.74C14.0058 1689.3 12.5156 1693.88 10.814 1699.16C11.427 1701.16 12.0247 1703.16 12.6071 1705.16C7.73986 1710.62 3.62428 1716.57 4.38029 1724.34C4.53498 1725.92 4.90971 1727.43 5.27138 1728.97L0.0686145 1737.26C1.30176 1738.89 2.61985 1740.25 4.09266 1741.66C2.28651 1744.97 0.541448 1742.09 0.123135 1746.58C1.43254 1748.51 2.78111 1750.32 4.26699 1752.13C4.95329 1756.31 3.55242 1758.47 1.72884 1762.1C2.7463 1768.84 5.77026 1801.63 9.42614 1804.68C9.96864 1805.14 11.106 1805.83 11.7334 1806.23L11.459 1807.16L8.60048 1807.21L7.90766 1808.21L8.77255 1809.55C13.5352 1817.08 14.7139 1825.5 18.8839 1832.93C22.5137 1839.4 29.357 1842.96 29.9453 1850.87C30.5967 1859.64 52.1071 1880.42 59.1596 1886.39C74.1121 1899.06 90.0036 1909.4 107.915 1917.39C113.209 1919.76 118.854 1921.35 124.083 1923.79C127.933 1925.6 131.933 1929.08 136.003 1930.13C140.637 1931.33 146.186 1929.83 150.681 1931.44C154.042 1932.64 155.971 1936.01 159.764 1936.02C162.383 1934.15 162.603 1933.37 165.742 1933.76C167.097 1934.76 169.945 1937.49 171.394 1937.92C171.679 1938.01 212.24 1941.25 215.149 1941.31C217.696 1941.36 226.683 1940.28 228.465 1941.11C230.382 1942.01 228.129 1944.6 232.474 1943.91C233.709 1943.72 234.829 1943.07 236.01 1942.65C244.64 1939.58 268.222 1940.61 278.933 1939.91C295.635 1938.81 314.178 1933.74 330.673 1934.97C331.533 1930.33 329.644 1925.96 330.453 1921.88C330.738 1920.45 334.169 1918.98 335.464 1918.18C335.431 1913.56 331.731 1912.71 331.407 1908.27L334.344 1906.13L334.507 1903.98C328.372 1895.09 335.344 1898.51 335.276 1890.82C334.05 1889.07 332.629 1887.52 332.387 1885.33C332.202 1883.63 334.244 1882.27 335.315 1881.09C334.973 1874.76 331.932 1868.97 331.642 1862.85C331.555 1861.02 334.104 1859.18 335.346 1857.88C336.071 1852.55 332.405 1847.62 331.572 1842.48C331.045 1839.24 332.797 1837.87 334.538 1835.36C334.662 1831.15 330.917 1828.95 330.05 1825.02C329.588 1822.93 331.843 1820.85 331.483 1817.77C330.13 1806.2 325.165 1795.22 322.799 1783.92C323.115 1783.51 324.313 1782 324.479 1781.56C325.574 1778.7 323.882 1779.9 322.603 1778.39C320.518 1775.94 317.757 1764.05 316.48 1760.65L318.16 1757.47C316.568 1749.76 311.881 1742.07 308.901 1734.73C306.343 1728.44 304.84 1721.76 302.55 1715.37C301.256 1711.75 299.166 1708.53 297.72 1705C296.463 1701.92 298.687 1698.21 296.811 1695.58C294.534 1692.4 291.016 1690.17 288.698 1686.69L289.852 1684.24C289.447 1682.5 289.785 1683.15 288.785 1681.79C281.227 1671.45 277.026 1659.21 270.579 1648.27C267.941 1643.8 263.316 1640.29 260.198 1636.06L261.512 1633.95C259.849 1629.23 254.254 1625.14 251.568 1620.58C237.598 1596.89 206.963 1566.82 184.154 1551.78C171.313 1543.31 157.093 1536.24 145.227 1526.44L143.907 1525.33Z" fill="#E8C775"/>
<path d="M714.121 927.15C711.605 948.458 713.564 970.297 711.932 991.744L709.864 1010.75L708.718 1011.8C709.566 1014.72 710.088 1015.46 709.173 1018.3C712.749 1017.79 716.352 1016.93 719.921 1017.78C720.701 1019.68 720.697 1019.99 720.503 1021.93L721.921 1021.93L723.424 1020.1C727.296 1022.72 735.989 1027.13 737.758 1031.04C738.606 1032.9 739.471 1034.25 740.861 1035.78C741.224 1035.7 741.584 1035.61 741.948 1035.53C746.863 1034.5 752.58 1039.53 756.595 1042.28C759.879 1044.52 766.905 1051.46 770.639 1051.41C772.164 1051.38 773.228 1051.49 774.683 1051.85C775.568 1053.6 776.219 1055.06 776.602 1057C775.454 1062 774.441 1066.47 770.119 1069.67C769.868 1070.95 769.746 1072.18 769.565 1073.45C769.341 1075.06 768.885 1075.85 768.203 1077.26C766.232 1081.34 758.872 1102.63 760.493 1105.99C760.724 1106.47 762.138 1107.83 762.55 1108.24C761.704 1113.21 758.234 1116 755.785 1120.13C753.948 1123.22 754.504 1129.63 754.584 1133.28C754.743 1140.4 745.438 1154.79 749.558 1159.76C753.769 1160.9 755.251 1160.66 757.489 1164.6C759.175 1167.57 759.486 1169.49 762.397 1171.41C764.962 1171.56 767.796 1171.14 769.842 1172.72C773.502 1175.55 776.053 1177.05 780.62 1177.82C780.772 1178.45 780.87 1179.1 781.075 1179.73C781.851 1182.1 783.698 1184.12 785.816 1185.3C800.525 1193.44 797.888 1195.97 817.183 1202.12C816.667 1204.2 816.593 1204.7 817.024 1206.91L819.575 1206.88C821.412 1205.99 823.109 1205.3 824.27 1203.5C826.17 1200.56 825.933 1197 825.514 1193.72C825.251 1191.65 824.981 1191.24 825.774 1189.26C828.096 1188.8 828.939 1188.63 830.926 1187.23C829.998 1185.4 829.523 1184.07 829.257 1182.03C831.393 1179.13 833.504 1178.7 836.77 1177.28C839.672 1172.03 834.292 1171.14 834.787 1168.2C835.787 1162.27 848.685 1155.23 848.827 1149.53L843.796 1148.62L843.476 1146.76C846.234 1142.75 849.227 1145.01 852.127 1141.42C852.082 1139.89 851.988 1138.42 851.803 1136.9L851.613 1135.45C853.65 1132.51 855.796 1129.72 858.023 1126.92C858.507 1123.39 856.827 1124.44 855.398 1121.34C857.563 1115.06 862.496 1109.92 865.99 1104.29L863.803 1102.12L864.219 1100.54L868.025 1099.88C868.489 1098.96 868.864 1098.35 869.08 1097.29C869.917 1093.17 867.934 1090.04 866.136 1086.57L865.11 1084.6C866.145 1080.06 867.888 1083.45 869.947 1080.63C874.886 1073.88 869.688 1067.09 869.476 1064.21L872.84 1060.92C873.293 1057.31 872.535 1057.12 870.5 1054.25C870.411 1050.23 870.204 1046.44 868.934 1042.58C863.644 1026.55 842.249 1017.48 828.212 1010.23C827.114 1008.49 826.124 1006.99 824.658 1005.53C806.69 1006.92 812.033 995.797 802.021 993.977C796.026 992.886 781.424 983.844 777.53 978.979C775.84 976.866 776.544 974.933 774.071 972.968C772.587 974.208 771.334 975.097 769.574 975.901C769.245 975.759 768.905 975.644 768.591 975.476C762.271 972.108 763.589 966.672 760.68 961.351C759.445 959.092 757.959 958.349 755.724 957.412C749.785 954.924 748.896 950.525 746.458 944.983C738.022 941.03 730.054 935.884 722.045 931.135C721.531 931.13 721.015 931.152 720.501 931.122C716.553 930.893 716.52 929.978 714.121 927.15Z" fill="#E8C775"/>
<path d="M770.118 1069.67C769.868 1070.95 769.746 1072.18 769.565 1073.45C769.341 1075.06 768.885 1075.85 768.203 1077.26C766.232 1081.34 758.872 1102.63 760.493 1105.99C760.724 1106.47 762.138 1107.83 762.55 1108.24C761.704 1113.21 758.234 1116 755.785 1120.13C753.948 1123.22 754.504 1129.63 754.584 1133.28C754.743 1140.4 745.438 1154.79 749.558 1159.76C753.769 1160.9 755.251 1160.66 757.489 1164.6C759.175 1167.57 759.486 1169.49 762.397 1171.41C764.961 1171.56 767.796 1171.14 769.842 1172.72C773.502 1175.55 776.053 1177.05 780.62 1177.82C781.868 1175.15 783.136 1172.46 784.494 1169.85C788.367 1162.39 785.69 1155.12 791.871 1148.48C793.642 1146.58 794.696 1145.87 794.971 1143.16C793.174 1141.45 793.869 1142.01 792.034 1140.64C791.629 1140.33 791.219 1140.04 790.814 1139.74C791.587 1136.86 795.193 1135.04 797.431 1132.92C797.869 1130.99 798.139 1129.75 797.69 1127.78C795.293 1117.24 802.146 1118.86 804 1110.78L802.108 1107.86C801.481 1104.16 806.363 1095.15 807.817 1090.98C800.725 1086.22 777.047 1071.16 770.118 1069.67Z" fill="#623C27"/>
<path d="M711.932 991.744L709.864 1010.75L708.718 1011.8C709.566 1014.72 710.089 1015.46 709.174 1018.3C712.749 1017.79 716.352 1016.93 719.921 1017.78C720.701 1019.68 720.697 1019.99 720.503 1021.93L721.921 1021.93L723.425 1020.1C727.296 1022.72 735.989 1027.13 737.758 1031.03C738.606 1032.9 739.471 1034.25 740.861 1035.78C741.225 1035.7 741.584 1035.61 741.948 1035.53C746.863 1034.5 752.58 1039.53 756.595 1042.27C759.879 1044.52 766.905 1051.46 770.639 1051.41C772.164 1051.38 773.228 1051.49 774.683 1051.85C775.568 1053.6 776.219 1055.06 776.602 1057C778.147 1057.37 777.326 1057.32 779.409 1056.87C781.864 1056.34 780.465 1056.28 783.108 1057.09C787.11 1067.53 796.862 1063.72 802.843 1070.59C805.296 1073.4 808.667 1075.82 812.42 1076.83C821.536 1079.27 828.674 1088.72 837.946 1090.26C840.931 1087.13 845.068 1083.33 845.221 1078.67C845.502 1070.09 831.582 1067.23 827.085 1061.24C826.878 1060.97 826.684 1060.69 826.484 1060.41C825.469 1060.42 823.565 1060.47 822.608 1060.35C819.039 1059.91 818.471 1057.7 816.49 1055.02C804.344 1054.8 810.017 1049.49 805.505 1048.75C802.616 1048.27 803.27 1050.51 799.801 1048.56L800.213 1046.07C797.636 1043.07 795.681 1046.33 792.721 1043.93C792.81 1043.21 792.999 1042.5 792.989 1041.78C792.923 1037.58 789.627 1040.9 787.032 1040.2C784.093 1039.41 784.33 1035.61 781.692 1033.63C779.572 1034.17 777.881 1034.48 775.69 1034.42C771.846 1030.15 767.376 1026.67 762.935 1023.05C761.532 1023.67 760.214 1024.22 758.778 1024.73C756.702 1022.07 753.412 1016.35 750.844 1014.55C747.175 1011.98 732.327 1008.4 730.399 1005.67C728.642 1003.18 729.73 1002.39 727.091 1000.03L724.815 1001.33L723.451 999.067C719.215 997.603 715.42 994.511 711.932 991.744Z" fill="#623C27"/>
<path d="M748.71 973.489L744.795 975.422C742.959 979.818 737.959 983.537 735.081 987.575L735.558 989.424C749.188 993.62 760.898 1002.2 772.424 1010.31L775.016 1008.8C777.426 1011.77 780.021 1015.73 783.184 1017.88C784.746 1018.95 785.868 1018.03 787.555 1017.56C792.893 1020.18 798.387 1026.62 802.803 1030.78C804.063 1030.74 805.261 1030.67 806.512 1030.5C807.625 1030.34 838.979 1050.87 844.245 1053.43C846.665 1054.6 849.016 1055.86 851.38 1057.14C854.103 1056.07 854.496 1054 855.859 1051.51C855.872 1050.6 855.607 1049.45 855.478 1048.54L852.72 1048.48C851.896 1046.47 854.923 1043.13 855.759 1040.92C856.496 1038.98 855.888 1038.83 855.051 1037.07C852.833 1035.58 851.452 1035.28 848.855 1035.09C846.794 1034.95 845.293 1034.85 843.356 1034.04C838.447 1025.16 835.362 1028.2 827.129 1024.52C827.138 1023.75 827.153 1020.02 826.608 1019.57C822.693 1016.37 813.283 1016.04 809.795 1012.64C808.126 1011.01 806.409 1007.58 805.067 1005.58L800.784 1007.21C796.716 1006.54 792.263 1000.97 789.289 998.133L787.004 1000.43L785.522 999.889L786.529 997.205L785.354 995.845L780.973 996.05C781.016 994.786 781.027 993.52 781.025 992.257L779.356 991.599L776.01 993.74L774.367 993.377C771.877 990.928 770.925 987.668 769.661 984.489L768.844 986.531L769.487 984.093L767.7 983.509L765.981 987.237L764.179 987.322C764.277 985.568 764.338 984.851 763.702 983.171C761.368 983.137 759.034 983.143 756.7 983.191L754.939 978.696C752.251 977.18 750.752 975.731 748.71 973.489Z" fill="#623C27"/>
<path d="M903.922 838.479C905.767 836.847 913.5 819.177 915.537 815.548C914.619 814.079 914.404 813.715 914.223 811.924L919.027 807.735L919.055 805.382L915.643 802.549C915.373 799.414 922.443 798.061 923.809 793.693C922.463 792.978 921.11 792.278 919.75 791.591C920.07 787.34 928.029 782.738 927.206 779.274C926.502 776.303 924.408 775.479 924.439 771.954C925.567 770.814 927.219 769.433 927.931 767.982C929.406 764.975 927.862 759.847 926.777 756.949C924.668 751.315 918.563 739.334 913.133 736.471C910.414 735.038 906.807 734.528 903.865 733.214C903.144 732.079 902.384 730.968 901.665 729.831C899.769 726.833 897.678 725.515 894.802 723.602C880.455 714.057 865.106 705.954 850.45 696.886C825.97 681.742 801.392 664.992 778.762 647.203C771.777 646.752 769.853 645.179 764.646 640.931C760.805 637.793 754.364 636.756 749.473 637.388C743.745 638.127 737.599 642.133 734.279 646.73C733.063 648.417 732.335 649.471 730.351 650.279C729.81 650.502 729.253 650.68 728.704 650.881C727.257 658.578 730.804 667.794 728.856 674.478C727.113 675.23 726.281 675.045 725.542 676.873C725.514 685.339 725.146 693.971 725.73 702.412C729.078 701.919 732.274 701.436 735.671 701.518C736.59 703.501 737.527 705.476 738.479 707.442C741.51 708.335 741.828 706.623 744 706.802C746.151 706.978 749.573 713.898 751.386 714.944C753.19 715.987 756.286 714.817 758.386 716.214C761.203 718.09 770.981 727.926 772.319 728.292C773.339 728.571 776.55 727.177 777.587 726.785L778.441 728.09L776.794 730.179L777.742 731.665C779.574 731.386 781.372 731.066 783.182 730.674C785.886 733.033 784.967 735.757 788.176 737.232L791.91 736.007C794.877 738.685 797.509 744.389 801.185 745.539L804.366 743.997C808.453 746.347 810.911 753.801 815.538 752.637C816.562 752.38 817.558 752.021 818.56 751.692L820.817 753.616L820.495 754.611C820.013 756.145 820.185 755.55 819.826 757.272L823.545 757.897C825.776 761.117 824.695 767.139 823.974 771.002C823.497 773.562 823.305 773.113 821.357 774.54C831.271 778.268 849.4 784.699 855.838 793.279C852.321 816.816 838.497 837.398 832.36 859.919C831.977 861.325 832.109 860.843 831.325 862.399L831.597 864.625C836.025 871.449 845.657 873.591 852.376 877.36C856.585 879.719 860.378 883.65 865.017 885.009C867.267 884.358 868.457 883.998 870.832 884.177C872.032 886.837 873.021 888.992 875.067 891.149C877.912 891.489 878.501 891.11 881.163 889.935C883.632 887.234 884.47 884.288 885.063 880.735C886.473 872.31 889.381 867.296 893.708 860.133C895.978 856.375 895.924 855.78 900.172 854.773C900.556 854.682 900.939 854.599 901.323 854.512C902.241 849.175 903.107 843.831 903.922 838.479Z" fill="#E8C775"/>
<path d="M823.545 757.897C824.928 757.618 825.859 757.816 827.238 758.021C831.059 763.228 851.846 775.004 858.476 778.952C861.801 780.928 863.929 782.067 867.738 781.098C869.298 778.322 870.012 776.021 870.359 772.834C870.64 770.259 870.871 763.559 868.718 761.712C863.838 757.518 839.521 748.79 837.09 745.456C836.837 745.108 836.48 742.365 836.242 742.095C835.911 741.722 830.852 741.833 829.998 741.519C827.996 740.783 823.29 734.088 821.765 732.264C821.242 732.432 819.673 732.972 819.177 732.985C816.046 733.066 811.359 726.144 809.052 723.702C807.263 724.153 807.982 723.887 806.242 724.68C805.823 724.87 805.411 725.07 804.998 725.264C800.346 722.464 798.37 716.595 793.524 714.096L790.363 715.573C785.439 713.373 782.062 707.688 777.707 704.403C774.371 703.95 770.929 703.924 768.217 701.743L768.511 698.061L766.846 696.873L762.486 697.958C758.826 696.577 757.268 692.374 754.177 690.015C752.634 688.838 750.963 689.298 749.135 689.575C746.872 689.914 746.671 686.18 745.092 684.995C740.405 681.479 733.542 680.378 728.435 676.788C728.15 676.587 727.871 676.38 727.59 676.178L725.542 676.873C725.514 685.339 725.146 693.971 725.729 702.412C729.078 701.919 732.274 701.435 735.671 701.518C736.59 703.501 737.526 705.476 738.479 707.442C741.51 708.335 741.828 706.623 744 706.802C746.151 706.978 749.573 713.898 751.386 714.944C753.19 715.987 756.286 714.817 758.386 716.214C761.203 718.09 770.981 727.926 772.319 728.292C773.339 728.571 776.55 727.177 777.587 726.785L778.441 728.09L776.794 730.179L777.742 731.665C779.574 731.386 781.372 731.066 783.182 730.674C785.886 733.033 784.966 735.757 788.176 737.232L791.91 736.007C794.877 738.685 797.509 744.389 801.185 745.539L804.366 743.997C808.453 746.347 810.911 753.801 815.538 752.637C816.562 752.38 817.558 752.021 818.56 751.692L820.817 753.616L820.495 754.611C820.013 756.145 820.185 755.55 819.826 757.271L823.545 757.897Z" fill="#623C27"/>
<path d="M793.383 676.237C789.535 680.106 787.136 685.048 785.21 690.067C786.531 692.416 788.202 693.799 790.446 695.216C797.773 699.839 806.159 702.765 813.49 707.497C830.042 718.177 844.964 731.755 863.616 738.873C865.526 739.6 866.581 740.16 868.128 741.576C879.716 752.18 896.015 760.795 909.375 769.174C910.377 767.638 910.66 766.738 910.998 764.902C911.87 760.137 913.277 755.481 914.562 750.814L913.641 749.603L911.549 750.766C907.97 749.699 908.536 747.267 906.076 745.099C903.787 743.08 898.512 742.977 896.146 740.99C894.769 739.833 893.499 736.737 892.148 735.199L889.847 736.977L888.736 736.156L888.422 733.511C884.705 730.7 878.592 729.426 874.23 727.428C868.722 717.778 869.561 724.404 862.89 720.73C859.465 712.353 857.696 718.262 852.297 714.663L852.663 710.974C841.273 706.889 831.942 699.56 822.529 692.176L819.392 692.86C815.573 691.666 817.662 688.947 814.255 687.011C806.958 682.864 798.805 683.472 793.383 676.237Z" fill="#623C27"/>
<path d="M1349.44 358.968C1346.23 356.097 1344.42 354.94 1340.04 354.613C1339.36 354.563 1338.69 354.493 1338.02 354.441C1326.06 353.495 1298.16 358.897 1289.74 355.537C1287.05 354.461 1286.31 354.16 1283.66 355.461C1282.78 355.89 1281.18 356.91 1280.31 357.454C1276.46 356.145 1272.54 354.382 1268.42 354.82C1267.19 356.138 1266.68 357.075 1266.09 358.779C1265.84 358.596 1265.6 358.395 1265.34 358.225C1259.65 354.537 1219.56 357.951 1208.61 357.842C1206.48 358.927 1205.94 360.038 1204.36 361.674C1204.22 361.82 1204.02 361.879 1203.85 361.982L1201.82 359.87C1197.86 361.465 1194.48 367.858 1191 370.906C1174.86 385.069 1152.93 438.13 1142.83 459.612C1137.41 471.148 1131.52 482.157 1125.57 493.395C1133.51 500.447 1149.85 516.668 1161.28 516.003C1163.34 515.881 1165.32 514.042 1167.02 512.925C1167.01 512.764 1166.96 512.602 1166.97 512.441C1167.38 506.003 1176.82 498.118 1181.26 493.966C1183.03 483.514 1192.03 481.107 1194.13 471.497C1196.39 461.106 1203.43 462.647 1209.07 455.81C1215.3 448.25 1204.19 447.958 1223.18 435.668C1231.17 436.443 1250.4 437.11 1257.56 434.472L1259.92 432.576C1265.54 432.624 1270.32 430.448 1275.85 429.918C1283.55 429.182 1291.32 430.005 1299.03 429.526C1315.02 428.53 1329.7 424.389 1345.53 428.345C1348.72 411.793 1344.64 391.449 1346.33 374.195C1351.43 368.858 1348.08 364.956 1349.44 358.968Z" fill="#E8C775"/>
<path d="M1349.44 358.968C1346.23 356.097 1344.42 354.94 1340.04 354.613C1339.36 354.563 1338.69 354.493 1338.02 354.441C1326.06 353.495 1298.16 358.897 1289.74 355.537C1287.05 354.461 1286.31 354.16 1283.66 355.461C1282.78 355.89 1281.18 356.91 1280.31 357.454C1276.46 356.145 1272.54 354.382 1268.42 354.82C1267.19 356.138 1266.68 357.075 1266.09 358.779C1265.84 358.596 1265.6 358.395 1265.34 358.225C1259.65 354.537 1219.56 357.951 1208.61 357.842C1206.48 358.927 1205.94 360.038 1204.36 361.674C1204.22 361.82 1204.02 361.879 1203.85 361.982C1203.8 362.435 1203.78 362.888 1203.72 363.341C1203.17 367.99 1200.45 372.134 1200.98 376.806C1215.24 380.899 1247.58 376.235 1263.75 375.551C1283.13 374.713 1302.52 374.204 1321.92 374.025C1329.23 373.93 1339.3 372.553 1346.33 374.195C1351.43 368.858 1348.08 364.956 1349.44 358.968Z" fill="#623C27"/>
<path d="M1290.27 398.151L1289.47 397.874C1283.75 401.159 1267.87 400.098 1261.05 400.582C1259.61 399.318 1258.21 397.652 1256.1 397.695C1255.03 397.717 1252.89 400.133 1251.69 400.379C1244.84 401.793 1229.77 400.612 1221.88 400.822C1221.06 401.523 1220.93 401.551 1220.26 402.612C1218.27 405.767 1217.72 411.526 1218.85 415.051C1219.86 418.214 1220.98 419.445 1223.82 421.031L1226.99 417.685L1230.03 418.831C1235.66 417.833 1255.31 418.829 1257.53 418.044C1258.79 417.598 1259.38 415.981 1260.63 415.508C1261.06 415.345 1290.12 419.362 1297.56 417.916C1300.78 417.291 1303.18 416.421 1304.97 413.65C1304.44 410.351 1303.53 406.709 1304.53 403.434C1304.71 402.846 1304.92 402.273 1305.12 401.693L1304 399.815C1299.81 397.856 1294.83 398.273 1290.27 398.151Z" fill="#623C27"/>
<path d="M958.788 476.928C960.244 475.724 961.522 474.508 962.799 473.118C963.141 464.712 954.943 463.545 952.69 456.876C950.568 450.597 951.598 442.684 948.773 436.773C946.398 431.803 939.648 427.446 937.692 422.563C936.918 420.637 938.195 417.661 937.916 415.5C937.258 410.436 932.138 403.225 929.624 398.828C922.99 387.237 913.055 366.771 898.619 363.666C894.998 362.888 892.473 364.396 889.638 366.296C890.25 366.572 890.858 366.856 891.473 367.126C893.619 368.071 895.357 368.337 897.673 368.557C898.948 369.786 899.754 369.947 899.828 371.832C899.976 375.551 899.074 379.449 898.484 383.115C882.871 385.462 756.325 390.795 749.279 388.275C745.778 389.521 742.37 388.604 738.802 388.055C739.292 400.288 739.429 428.696 737.235 439.991C739.815 440.15 742.425 440.389 744.898 439.5C761.425 433.563 822.538 441.187 832.968 436.936C834.353 436.372 836.157 435.054 837.641 434.844C847.088 433.509 853.397 440.189 865.012 434.751C868.056 434.178 869.213 434.361 872.091 435.481C878.995 438.169 887.625 439.025 894.791 437.241C900.222 435.89 905.71 434.566 911.327 434.635C912.804 436.489 912.92 437.126 913.399 439.37L915.724 439.694C917.247 437.882 918.181 436.143 919.208 434.014C923.227 433.171 927.855 435.091 931.212 437.357C943.69 445.779 944.925 464.601 952.06 472.658C953.317 474.079 957.106 475.92 958.788 476.928Z" fill="#E8C775"/>
<path d="M884.592 405.798L882.346 407.266C882.078 407.146 845.384 406.626 842.118 406.658C840.639 408.846 841.399 410.554 841.661 413.103C839.266 417.338 838.009 419.321 839.12 424.269C841.92 426.539 845.955 426.114 849.406 426.286C855.476 423.692 854.476 427.509 859.892 428.395L860.674 425.295C866.175 422.585 879.457 428.304 887.254 425.522C889.847 424.596 891.32 423.411 892.483 420.892C893.882 417.864 893.547 411.384 892.069 408.471C889.74 408.203 888.102 408.027 886.078 406.763C885.577 406.449 885.089 406.12 884.592 405.798Z" fill="#623C27"/>
<path d="M804.224 408.184C801.743 407.774 799.496 407.404 796.969 407.676C792.034 408.212 786.418 408.168 781.801 410.125C779.317 411.179 777.093 412.961 776.273 415.628C775.284 418.853 776.92 423.138 778.413 426.025C779.228 427.602 782.091 427.968 783.759 428.52C784.901 428.461 785.718 427.557 786.642 426.91C791.875 428.502 795.372 428.674 800.714 427.934C805.664 424.01 802.285 415.87 803.695 410.133C803.856 409.48 804.048 408.833 804.224 408.184Z" fill="#623C27"/>
<path d="M812.017 1678.34C813.157 1675.62 814.379 1673.23 814.257 1670.2C801.93 1661.08 789.905 1651.3 778.121 1641.47C766.554 1631.82 756.175 1621.13 742.418 1614.68C741.754 1621.88 738.311 1628.23 736.311 1635.14C736.052 1636.03 735.693 1636.85 735.342 1637.71L733.93 1637.88L733.773 1639.9C732.368 1641.2 730.821 1642.15 729.231 1643.22C725.361 1643.05 724.119 1641.57 720.997 1639.38C717.058 1650.45 709.308 1654.41 705.616 1668.8L705.147 1670.57C704.104 1674.59 703.607 1678.47 703.295 1682.61C710.659 1693 722.413 1701.19 731.642 1709.98C735.974 1714.11 740.05 1719.2 744.693 1722.87C746.71 1724.47 748.732 1725.05 751.161 1725.72C757.863 1722.01 764.589 1719.26 768.188 1712.14C772.295 1707.94 775.574 1705.01 781.188 1702.93L790.753 1695.67C796.967 1691.6 802.586 1686.37 808.418 1681.75C810.137 1680.86 810.81 1679.82 812.017 1678.34Z" fill="#FECE72"/>
<path d="M808.418 1681.75C801.424 1677.37 796.309 1671.62 790.136 1666.27C777.533 1655.33 763.892 1642.74 750.057 1633.56C745.924 1633.92 741.407 1638.16 738.011 1640.58C741.318 1661.68 786.446 1678.15 790.753 1695.67C796.967 1691.6 802.586 1686.37 808.418 1681.75Z" fill="#623C27"/>
<path d="M781.188 1702.93C772.023 1695.3 739.431 1662.44 731.204 1662.34C727.22 1662.28 723.355 1665.71 720.235 1667.86C720.087 1667.96 719.936 1668.06 719.788 1668.16C728.039 1682.08 740.248 1693.06 753.484 1702.2C758.329 1705.54 762.948 1707.86 767.487 1711.7C767.698 1711.88 767.955 1711.99 768.188 1712.14C772.295 1707.94 775.574 1705.01 781.188 1702.93Z" fill="#623C27"/>
<path d="M958.788 476.928C957.106 475.919 953.317 474.078 952.06 472.658C944.925 464.601 943.69 445.779 931.212 437.356C927.855 435.09 923.227 433.171 919.208 434.014C918.181 436.143 917.247 437.881 915.724 439.694L913.399 439.369C912.92 437.125 912.804 436.489 911.327 434.635C905.71 434.565 900.222 435.89 894.791 437.241C887.625 439.025 878.995 438.169 872.091 435.48C869.213 434.361 868.056 434.178 865.012 434.751C866.489 438.439 867.875 441.886 868.596 445.803C870.173 448.084 871.775 448.442 874.272 449.385C875.437 452.919 872.143 454.753 876.252 456.952C877.293 457.507 878.416 457.986 879.49 458.483C880.603 461.98 881.276 465.564 882.017 469.152L883.313 469.769C886.531 471.329 888.836 472.41 891.076 475.229C890.303 477.66 889.47 478.338 887.73 480.127L888.215 481.974C890.81 482.338 891.1 481.53 893.248 480.196C897.51 486.109 894.098 501.012 902.283 503.28C903.784 503.696 905.935 503.504 907.508 503.504C909.791 504.875 910.896 505.888 912.382 508.097C909.754 509.994 908.471 510.323 907.517 513.491L908.691 516.127C910.669 516.528 913.173 514.84 913.434 514.914C914.56 515.241 926.349 534.18 927.983 536.647C929.382 538.756 930.807 540.695 931.615 543.111C934.282 543.954 935.328 544.353 938.082 543.148C940.027 542.298 942.149 539.403 943.306 537.74L944.186 538.753L943.873 537.274C944.932 538.416 945.664 539.407 946.507 540.697C949.134 540.468 949.378 540.49 951.391 538.819L951.875 535.25L953.372 535.287C954.751 535.309 957.812 535.601 959.071 535.161C963.418 533.638 976.667 524.692 980.227 521.363C980.495 521.112 980.732 520.829 980.985 520.563C980.553 518.217 980.741 517.247 979.118 515.422L976.457 514.72C976.146 512.485 976.03 510.317 975.965 508.062C973.854 505.641 972.721 507.007 970.769 505.646C967.122 503.103 968.198 490.573 963.762 487.116C961.424 485.294 957.734 486.647 957.52 482.673C957.426 480.913 958.289 478.619 958.788 476.928Z" fill="#623C27"/>
<path d="M428.281 1322.27C425.353 1323.01 423.2 1323.35 420.734 1325.2C417.649 1324.23 417.017 1323.72 413.982 1324.67C412.496 1327.8 412.492 1327.96 409.433 1329.55C407.699 1328.88 406.524 1328.11 405.067 1326.96C404.428 1327.53 403.703 1328.03 403.21 1328.72C401.77 1330.1 401.842 1330.42 399.91 1330.74C393.337 1331.8 377.38 1343.27 373.757 1349C373.506 1349.39 373.295 1349.82 373.064 1350.22C358.673 1362.96 342.477 1374.67 327.487 1386.85C332.873 1395.36 335.864 1401.52 343.836 1408.04L352.479 1410.12C359.462 1405.71 385.456 1392.76 388.661 1387.72C393.252 1385.91 396.271 1386.41 401.112 1387.08C404.679 1388.25 406.649 1388.66 408.522 1392.24C409.509 1394.12 410.174 1396.29 410.88 1398.29L413.546 1396.02L414.86 1397.96C417.17 1398.68 416.884 1398.4 418.967 1397.55L419.453 1394.28C422.767 1391.85 429.603 1394.48 433.976 1392.53C435.068 1390.1 435.601 1388.29 437.898 1386.76L439.634 1386.59C448.129 1385.73 454.526 1383.98 459.951 1377.21C456.09 1375.02 455.929 1366.49 453.584 1362.47C450.02 1359.45 448.613 1354.32 446.885 1350.08C446.447 1350.06 446 1350.12 445.573 1350.02C441.397 1349.12 440.532 1337.6 437.118 1333.36C437.185 1331.35 437.203 1329.95 436.567 1328C435.606 1325.07 430.978 1323.53 428.281 1322.27Z" fill="url(#paint0_linear_80_7222)"/>
<path d="M446.885 1350.08C434.965 1352.5 394.803 1366.99 384.77 1373.36C383.521 1376.58 385.33 1380.96 386.633 1384C387.197 1385.31 387.803 1386.57 388.661 1387.72C393.252 1385.91 396.271 1386.41 401.112 1387.08C404.679 1388.25 406.649 1388.66 408.522 1392.24C409.509 1394.12 410.174 1396.29 410.88 1398.29L413.546 1396.02L414.86 1397.96C417.17 1398.68 416.884 1398.4 418.967 1397.55L419.453 1394.28C422.767 1391.85 429.603 1394.48 433.976 1392.53C435.068 1390.1 435.601 1388.29 437.898 1386.76L439.634 1386.59C448.129 1385.73 454.526 1383.98 459.951 1377.21C456.09 1375.02 455.929 1366.49 453.584 1362.47C450.02 1359.45 448.613 1354.32 446.885 1350.08Z" fill="#623C27"/>
<path d="M459.951 1377.21C456.09 1375.02 455.929 1366.49 453.584 1362.47C452.443 1364.84 451.286 1367.05 449.887 1369.29C445.948 1370.08 447.188 1367.7 444.676 1367.58C443.981 1367.55 436.889 1372.35 435.56 1372.98C428.25 1376.47 419.878 1377.19 412.662 1380.87L413.344 1383.47L411.165 1384.33L406.858 1382.22C403.461 1384.15 405.485 1385.76 401.112 1387.08C404.679 1388.25 406.649 1388.66 408.522 1392.24C409.509 1394.12 410.174 1396.29 410.88 1398.29L413.546 1396.02L414.86 1397.96C417.17 1398.68 416.884 1398.4 418.967 1397.55L419.453 1394.28C422.767 1391.85 429.603 1394.48 433.976 1392.53C435.068 1390.1 435.601 1388.29 437.898 1386.76L439.634 1386.59C448.129 1385.73 454.526 1383.98 459.951 1377.21Z" fill="#FECE72"/>
<path d="M428.281 1322.27C425.353 1323.01 423.2 1323.35 420.734 1325.2C417.649 1324.23 417.017 1323.72 413.982 1324.67C412.496 1327.8 412.492 1327.96 409.433 1329.55C407.699 1328.88 406.525 1328.11 405.067 1326.96C404.429 1327.53 403.703 1328.03 403.211 1328.72C401.771 1330.1 401.843 1330.42 399.91 1330.74C393.337 1331.8 377.38 1343.27 373.757 1349C373.506 1349.39 373.295 1349.82 373.064 1350.22C374.26 1351.63 375.811 1353.73 377.445 1354.68C379.957 1356.13 380.903 1356.1 383.598 1355.7C385.681 1353.93 387.574 1352.46 389.953 1351.07C391.337 1351.09 393.021 1351.22 394.411 1351.03C397.579 1350.61 399.747 1350.41 402.941 1350.71C412.104 1344.27 422.935 1343.73 432.767 1339.3C435.989 1337.85 435.907 1336.45 437.118 1333.36C437.186 1331.35 437.203 1329.95 436.567 1328C435.606 1325.07 430.978 1323.53 428.281 1322.27Z" fill="#623C27"/>
<path d="M459.951 1377.21C454.526 1383.98 448.129 1385.73 439.634 1386.59L437.898 1386.76C435.601 1388.29 435.068 1390.1 433.976 1392.53C429.604 1394.48 422.767 1391.85 419.453 1394.28L418.967 1397.55C416.884 1398.4 417.17 1398.68 414.86 1397.96L413.546 1396.02L410.88 1398.29L408.655 1399.14C406.76 1401.69 406.561 1401.9 406.453 1405.04C409.06 1409.57 415.732 1413.05 419.985 1416.12C419.834 1417.67 420.03 1417.03 419.281 1418.54C419.096 1418.91 418.897 1419.27 418.706 1419.64C425.943 1430.97 447.421 1456.47 458.312 1464.02C472.284 1454.07 489.638 1448.19 503.795 1436.69C486.897 1418.98 479.712 1392.07 459.951 1377.21Z" fill="#623C27"/>
<path d="M1257.56 434.472C1250.4 437.11 1231.18 436.443 1223.18 435.668C1204.19 447.958 1215.3 448.25 1209.07 455.81C1203.43 462.647 1196.39 461.106 1194.13 471.497C1192.03 481.107 1183.03 483.514 1181.26 493.966C1176.83 498.118 1167.38 506.003 1166.97 512.441C1166.96 512.602 1167.01 512.764 1167.02 512.925C1173.17 518.167 1177.66 521.587 1185.76 522.664C1189.44 523.152 1196.66 530.256 1203.61 532.331C1209.69 521.025 1234.51 495.998 1232.8 483.983C1232.75 483.632 1232.55 483.303 1232.55 482.948C1232.5 480.39 1236.26 480.732 1239.18 475.575C1245.14 465.043 1250.28 452.792 1257.39 443.104C1258.42 441.692 1258.87 440.973 1259.65 439.293L1257.56 434.472Z" fill="#623C27"/>
<path d="M821.357 774.54C820.342 780.043 819.296 780.425 814.743 783.976C813.329 787.558 815.671 787.107 815.699 790.068C815.734 793.432 811.468 800.907 810.235 804.628C807.146 813.957 805.374 823.744 801.947 832.958C800.546 836.729 798.856 840.27 796.71 843.677C803.662 850.337 820.381 861.534 830.288 861.396L831.325 862.399C832.109 860.843 831.976 861.325 832.36 859.919C838.497 837.398 852.321 816.816 855.838 793.279C849.4 784.699 831.27 778.268 821.357 774.54Z" fill="#623C27"/>
<path d="M889.638 366.296L887.1 364.232C885.847 365.385 884.679 366.577 883.52 367.825C882.215 367.019 881.019 366.206 879.771 365.302L879.37 367.683C872.843 367.688 865.803 366.514 859.202 366.126L856.91 368.952L854.801 368.771L853.11 365.402C850.245 365.771 848.583 367.836 846.574 369.725L844.38 369.699C842.258 367.034 842.312 366.2 838.811 365.797C837.027 367.069 835.639 368.409 834.144 370.008C830.719 370.318 828.083 367.956 825.336 366.178C823.013 366.727 823.059 366.821 821.412 368.309C819.686 369.867 818.719 370.442 816.346 370.751C813.087 369.272 807.828 365.899 804.533 366.908L803.348 370.265C800.431 370.625 797.919 369.006 795.219 367.91L794.653 366.198C793.429 368.27 793.185 369.592 792.731 371.919C789.855 371.949 788.269 371.599 785.653 370.409L784.993 368.562L785.866 367.163L784.213 366.13L781.528 366.76C780.738 368.594 780.696 370.193 778.74 370.995C776.925 371.738 776.064 371.566 774.206 371.237L772.644 367.995C770.408 367.516 771.066 367.158 769.628 368.124C768.203 369.082 767.214 370.204 766.075 371.468C763.545 371.437 762.134 370.96 759.855 369.882C757.055 370.823 754.656 371.714 752.138 373.324C749.948 371.773 747.861 370.237 745.819 368.49C743.292 370.969 742.893 371.394 739.479 372.185C740.1 377.211 740.436 383.202 738.802 388.054C742.37 388.603 745.778 389.521 749.279 388.274C756.325 390.795 882.871 385.462 898.484 383.115C899.074 379.449 899.976 375.551 899.828 371.832C899.754 369.947 898.948 369.786 897.673 368.557C895.357 368.337 893.619 368.071 891.473 367.126C890.858 366.856 890.25 366.572 889.638 366.296Z" fill="#623C27"/>
<path d="M742.418 1614.68L740.658 1613.28L737.874 1614.64C729.788 1607.64 676.715 1561.49 671.349 1562.41C670.841 1562.49 670.382 1562.77 669.878 1562.89C667.29 1563.49 665.029 1562.6 662.562 1561.87C656.9 1565.02 655.433 1574.62 651.666 1579.85C653.66 1586.84 666.447 1591.65 672.033 1596.02C680.561 1602.7 687.317 1612.55 696.509 1618.11C698.082 1619.06 698.084 1619.01 699.515 1619.61L702.69 1618.1L703.359 1618.76C702.908 1620.39 701.927 1621.9 702.82 1623.47C706.598 1630.11 716.514 1632.99 720.997 1639.38C724.119 1641.57 725.361 1643.05 729.231 1643.22C730.821 1642.15 732.368 1641.2 733.773 1639.9L733.93 1637.88L735.342 1637.71C735.693 1636.85 736.052 1636.03 736.312 1635.14C738.312 1628.23 741.754 1621.88 742.418 1614.68Z" fill="#623C27"/>
<path d="M494.366 1645.09C475.956 1637.7 460.282 1621.6 445.918 1608.24C443.044 1605.57 438.769 1600.28 435.602 1598.62C434.138 1597.85 431.453 1598.24 430.079 1597.44C425.802 1594.94 418.871 1584.99 414.239 1580.92C410.834 1580.19 406.614 1579.86 404.174 1577.19C404.594 1575.41 404.755 1574.47 404.612 1572.61C397.304 1567.78 389.914 1562.45 382.147 1558.42C376.06 1555.25 369.404 1553.06 363.423 1549.74C358.83 1547.18 354.724 1543.85 350.002 1541.44C346.773 1539.79 342.765 1538.48 339.292 1540.22C333.693 1543.01 319.631 1559.42 318.136 1565.67C318.006 1566.22 317.927 1566.78 317.821 1567.34L315.873 1568.53C313.664 1569.49 311.47 1570.48 309.247 1571.42C306.751 1572.47 305.846 1573.36 304.393 1575.62C303.875 1579.78 305.245 1582.9 307.785 1586.15C314.498 1594.73 324.901 1601.37 334.409 1606.4C336.27 1607.38 337.516 1607.67 338.558 1609.59C339.871 1612.01 341.144 1614.52 343.033 1616.55C346.447 1620.23 353.615 1622.47 357.896 1625.74C368.534 1633.87 378.162 1643.36 388.568 1651.8L391.914 1651.41C395.095 1654.69 396.729 1661.99 401.466 1662.24C403.721 1662.36 402.819 1662.27 404.967 1662.63L405.106 1663.76C405.283 1665.12 405.52 1666.45 405.779 1667.79C411.982 1672.26 420.091 1676.37 424.449 1682.69L424.691 1685.16C425.063 1685.28 425.438 1685.4 425.808 1685.52C433.111 1687.98 432.081 1692.08 437.377 1695.87C435.181 1697.99 433.721 1699.53 430.634 1700.27C423.839 1698.01 423.571 1691.77 414.335 1690.58C411.788 1687.27 411.255 1686.34 407.283 1684.67C402.74 1684.78 399.843 1687.88 396.829 1690.99C394.195 1693.71 390.609 1697.85 389.664 1701.47C390.624 1703.59 391.093 1704.06 390.067 1706.35C388.321 1710.27 380.526 1714.88 382.051 1719.12C382.212 1719.57 382.864 1720.77 383.114 1721.24C376.922 1726.66 366.07 1734.29 365.038 1742.76C365.807 1745.7 367.031 1747.48 369.611 1749.11C371.857 1750.53 374.406 1751.29 376.687 1752.55C381.221 1755.06 384.249 1762.03 388.977 1765.44C389.337 1765.7 389.69 1765.97 390.051 1766.22C392.302 1767.83 394.245 1768.68 396.884 1769.47C401.115 1777.38 407.695 1786.82 415.12 1791.9C424.457 1791.94 420.486 1795.87 425.878 1797.58C440.554 1783.43 451.362 1768.2 464.114 1752.52C477.766 1735.73 493.582 1718.96 503.876 1699.83C507.111 1693.82 505.573 1687.35 508.989 1680.8C509.233 1680.33 509.49 1679.87 509.743 1679.41C507.721 1673.9 506.647 1668.26 504.081 1662.94C501.1 1656.76 497.157 1651.45 494.366 1645.09Z" fill="#E8C775"/>
<path d="M424.449 1682.69C424.577 1682.79 424.677 1682.95 424.836 1683C432.168 1685.38 432.582 1687.44 437.981 1692.35L440.817 1690.78L442.257 1691.29L442.397 1694.62C444.525 1695.57 446.608 1695.83 448.92 1695.23C451.347 1694.6 453.515 1692.67 454.447 1690.35C455.596 1687.48 455.075 1685.32 454.088 1682.56L450.321 1680.06C446.024 1677.25 445.695 1674.62 442.534 1671.12C438.564 1666.72 431.957 1663.48 426.906 1660.39C426.725 1659.67 426.553 1658.94 426.348 1658.22C425.355 1654.7 422.477 1654.05 419.281 1652.43C410.816 1648.15 406.544 1639.53 399.091 1633.99L395.96 1634.64C392.966 1632.54 393.437 1629.61 390.561 1627.02C379.711 1625.49 385.461 1622.84 379.051 1618.49L376.256 1619.2C373.395 1618.37 373.77 1614.83 371.473 1612.4C370.988 1612.41 370.499 1612.43 370.014 1612.41C365.026 1612.25 361.423 1604.3 357.976 1600.76C356.713 1600.71 354.018 1600.85 352.919 1600.31C351.377 1599.56 320.542 1573.5 318.814 1571.74C317.805 1570.72 316.851 1569.59 315.873 1568.53C313.663 1569.49 311.469 1570.48 309.247 1571.42C306.75 1572.47 305.846 1573.36 304.393 1575.62C303.875 1579.78 305.245 1582.9 307.785 1586.15C314.498 1594.73 324.901 1601.37 334.409 1606.4C336.27 1607.38 337.516 1607.67 338.557 1609.59C339.871 1612.01 341.144 1614.52 343.032 1616.55C346.446 1620.23 353.614 1622.47 357.896 1625.74C368.534 1633.87 378.162 1643.36 388.568 1651.8L391.914 1651.41C395.095 1654.69 396.729 1661.99 401.465 1662.24C403.72 1662.36 402.818 1662.27 404.967 1662.63L405.106 1663.76C405.282 1665.12 405.52 1666.45 405.779 1667.79C411.982 1672.26 420.091 1676.37 424.449 1682.69Z" fill="#623C27"/>
<path d="M414.335 1690.58C411.788 1687.27 411.254 1686.34 407.282 1684.67C402.74 1684.78 399.842 1687.88 396.829 1690.99C394.195 1693.71 390.609 1697.85 389.663 1701.47C390.624 1703.59 391.093 1704.06 390.066 1706.35C388.321 1710.27 380.526 1714.88 382.051 1719.12C382.212 1719.57 382.863 1720.77 383.114 1721.24C376.922 1726.66 366.07 1734.29 365.037 1742.76C365.806 1745.7 367.031 1747.48 369.61 1749.11C371.857 1750.53 374.406 1751.29 376.687 1752.55C381.221 1755.06 384.249 1762.03 388.977 1765.44C389.336 1765.7 389.689 1765.97 390.051 1766.22C392.302 1767.83 394.245 1768.68 396.883 1769.47C400.067 1756.43 406.727 1755.04 411.246 1745.82C412.535 1743.2 410.115 1741.23 411.76 1737.98C414.215 1736.75 416.734 1735.51 418.939 1733.86C424.658 1729.56 420.466 1727.77 422.17 1724.4C424.784 1719.24 433.675 1718.84 433.898 1711.15C434.115 1703.66 427.475 1702.62 423.248 1698.01C422.126 1696.79 421.237 1695.82 419.906 1694.77C418.082 1693.34 416.187 1691.97 414.335 1690.58Z" fill="#623C27"/>
<path d="M390.755 1583.24C389.502 1583.21 389.038 1583.12 387.685 1583.52C383.594 1584.75 380.491 1587.11 378.576 1590.88C377.888 1592.24 376.615 1594.9 377.249 1596.28C379.681 1601.55 385.984 1601.09 389.99 1604.08C391.884 1605.49 392.958 1608.11 394.398 1609.94C398.082 1614.63 406.193 1619.76 411.573 1622.21C414.634 1623.61 416.948 1624.73 419.314 1627.16C425.717 1633.77 431.571 1640.5 438.804 1646.32C447.48 1653.29 457.585 1659.36 465.162 1667.53C469.524 1672.24 476.644 1672.58 479.439 1678.13L479.999 1679C482.988 1678.42 487.812 1671.86 490.414 1669.46C488.666 1664.98 486.851 1658.18 482.407 1656L480.219 1657.32C477.803 1655.95 479.474 1654.88 478.429 1652.84C476.389 1648.87 466.064 1645.21 462.21 1642.25C462.18 1641.68 462.119 1640.05 461.971 1639.56C460.84 1635.83 457.217 1639.42 453.964 1636.43C449.595 1632.41 448.027 1627.33 442.669 1623.73C432.399 1616.81 421.86 1608.7 412.516 1600.57C412.418 1600 412.135 1598.15 411.906 1597.68C410.35 1594.5 408.052 1597.35 404.814 1596.04C403.877 1593.48 403.35 1591.76 401.37 1589.8C400.156 1589.52 398.936 1589.24 397.736 1588.91C393.749 1587.81 392.866 1586.83 390.755 1583.24Z" fill="#623C27"/>
<path d="M774.36 1286.25C771.145 1283.4 767.489 1281.62 763.702 1279.65C763.441 1280.1 763.173 1280.56 762.916 1281.02C757.186 1291.34 757.34 1307.88 746.303 1314.08L743.983 1313.61C743.972 1318.93 745.567 1322.91 747.408 1327.8C745.133 1333.17 742.595 1338.66 740.758 1344.19C738.967 1349.59 738.793 1355.52 741.734 1360.54C749.007 1372.96 798.71 1406.78 813.248 1410.82C815.51 1411.45 816.656 1411.37 818.087 1413.39L816.259 1416.39L817.002 1418.07C819.381 1419.34 819.211 1419.3 821.808 1418.57L822.769 1416.46C814.181 1406.89 801.148 1405.01 790.864 1397.96C783.94 1393.2 778.376 1384.62 769.887 1383.06C769.556 1383 767.005 1382.6 766.6 1382.42C764.428 1381.46 763.297 1379.7 763.086 1377.36C762.704 1373.17 765.275 1367.76 767.985 1364.7C774.421 1365.62 777.26 1368.36 782.459 1371.64C784.814 1373.13 786.762 1373.74 789.535 1373.15C793.537 1370.12 796.086 1366.79 797.431 1361.87C798.383 1358.38 797.927 1355.95 796.189 1352.77C793.757 1350.63 792.324 1350.09 789.237 1349.6C788.923 1349.55 788.607 1349.51 788.293 1349.47C783.55 1345.19 777.674 1339.51 771.127 1338.53C767.672 1338 763.491 1338.32 760.763 1340.49L761.6 1343.95C760.475 1346.48 759.985 1346.6 757.6 1348.09C754.872 1345.89 752.565 1342.99 750.281 1340.32C742.553 1331.27 748.196 1316.51 754.175 1307.53C755.985 1304.81 758.63 1302.38 760.072 1299.48C761.14 1297.33 761.081 1294.45 761.24 1292.13C761.362 1290.33 761.358 1288.51 761.796 1286.75C762.386 1284.38 762.865 1284.34 764.863 1283.14C768.724 1283.49 771.053 1285.48 774.088 1287.66L775.864 1289.01C782.239 1293.79 789.827 1298.01 796.799 1301.86C800.411 1303.86 801.176 1306.64 802.215 1310.36C803.237 1308.69 803.47 1308 803.849 1306.16L805.374 1306.12C806.396 1307.59 807.353 1309.03 808.222 1310.59C812.344 1311.71 817.425 1312.66 821.135 1314.79C824.007 1316.44 826.161 1319.1 828.887 1320.98C837.563 1326.96 846.792 1332.76 855.583 1338.57C863.145 1343.58 870.807 1348.58 878.483 1353.4C881.459 1355.28 884.958 1356.39 887.747 1358.49C889.612 1359.89 891.2 1361.55 892.42 1363.54C893.536 1365.36 893.845 1366.89 893.965 1369.02C893.259 1370.72 893.475 1371.22 891.762 1372.07C889.575 1371.41 888.021 1371.23 886.847 1369C886.403 1368.15 885.895 1366.18 885.625 1365.21C883.233 1363.9 881.766 1363.96 879.076 1364.07C877.753 1361.86 875.995 1357.32 873.424 1356.63C871.892 1356.22 869.136 1356.7 867.496 1356.78L866.367 1355.49C863.215 1351.92 861.367 1349.53 856.212 1349.21C855.718 1349.18 855.212 1349.26 854.729 1349.16C854.393 1349.08 854.036 1348.94 853.811 1348.68C853.068 1347.83 853.158 1345.15 852.397 1344.37C850.297 1342.21 848.979 1344.65 847.101 1343.9C844.489 1342.85 841.528 1337.1 838.565 1335.42C834.229 1332.97 827.46 1334.08 823.532 1330.64C821.187 1328.58 818.854 1323.84 817.318 1321.01C815.115 1320.66 813.904 1321.17 811.852 1321.96C806.618 1318.59 808.546 1313.74 800.997 1312.45C790.855 1310.71 782.058 1297.16 770.454 1299.82C766.966 1302.61 765.51 1305.75 764.913 1310.13C764.561 1312.72 764.839 1314.75 765.388 1317.28C768.916 1321.1 775.18 1323.42 779.62 1326.25C791.42 1333.78 804.217 1341.49 815.459 1349.7C817.78 1351.39 820.142 1352.13 822.841 1353C823.078 1354.09 823.272 1355.18 823.447 1356.28C825.057 1356.84 826.604 1357.31 828.251 1357.76C835.388 1359.68 890.037 1397.08 892.73 1402.52C894.477 1406.05 894.242 1408.71 892.961 1412.31C891 1413.46 890.536 1413.98 888.189 1413.31C878.459 1410.52 867.097 1398.35 858.029 1393.04C849.613 1388.11 839.78 1384.81 832.268 1378.51C828.639 1375.47 820.322 1371.55 815.629 1370.91C812.303 1374.92 807.353 1380.33 808.333 1386.05C809.326 1391.85 816.137 1395.37 820.767 1397.97C827.44 1401.72 835.667 1404.86 841.508 1409.77C846.168 1413.69 849.19 1420.25 855.879 1421.03C856.58 1420.39 857.537 1419.68 858.077 1418.91C859.032 1420.24 860.186 1421.5 861.236 1422.76C867.603 1423.93 871.797 1430.93 877.376 1431.45L878.165 1428.75L879.326 1428.22C879.819 1431.14 880.307 1433.63 881.546 1436.35C884.928 1436.37 886.61 1434.11 889.215 1432.08C890.649 1426.66 892.727 1421.73 892.483 1416.04C892.503 1415.87 892.479 1415.69 892.54 1415.53C894.632 1410.14 895.568 1406.12 895.697 1400.28C896.906 1399.32 898.096 1398.38 899.213 1397.31C904.649 1392.13 907.608 1387.71 907.826 1380.08C907.998 1379.94 908.207 1379.82 908.344 1379.64C909.918 1377.59 909.732 1377.17 909.229 1374.8C873.461 1342.17 816.368 1311.7 774.36 1286.25Z" fill="#FECE72"/>
<path d="M907.826 1380.08C907.508 1380.13 907.192 1380.19 906.872 1380.23C902.477 1380.83 897.569 1380.19 894.07 1377.23C893.292 1376.57 892.582 1375.83 891.847 1375.12C889.856 1373.19 885.048 1367.37 882.555 1367.24C879.283 1367.06 877.459 1367.04 874.834 1364.82C874.448 1362.66 874.721 1360.77 872.836 1359.49C867.448 1355.82 858.79 1355.63 853.881 1351.77C852.727 1350.86 852.28 1347.84 851.134 1346.88C843.269 1340.34 826.146 1334.66 817.089 1329.4C817.079 1328.8 817.079 1328.2 817.057 1327.6C816.963 1324.99 817.094 1326.01 816.318 1323.47C815.911 1323.66 815.505 1323.86 815.094 1324.04C813.24 1324.87 813.978 1324.59 811.856 1325.03C808.586 1322.2 806.344 1317.81 803.021 1315.5C797.459 1311.63 778.457 1307.08 776.034 1302.23C775.748 1301.66 775.417 1301.11 775.11 1300.55C770.35 1301.8 767.955 1306.06 765.515 1310.02C765.755 1312.93 766.158 1314.3 768.535 1316.2C792.675 1335.57 822.898 1349.06 848.43 1366.85C851.733 1369.15 857.744 1374.92 861.245 1376.2C862.38 1376.61 864.945 1375.8 865.93 1376.32C872.958 1380.01 877.409 1388.9 885.009 1393.09C888.654 1395.1 892.976 1397.1 895.697 1400.28C896.906 1399.32 898.096 1398.38 899.214 1397.31C904.65 1392.13 907.608 1387.71 907.826 1380.08Z" fill="#623C27"/>
<path d="M892.483 1416.04C887.479 1416.52 885.451 1415.92 881.457 1412.65C876.01 1408.17 874.509 1403.86 866.818 1404.37C864.827 1402.86 864.121 1401.24 863.021 1399.05C855.354 1395.27 847.343 1392.61 840.184 1387.86L839.804 1384.22L838.266 1383.01L833.92 1384.05C832.464 1382.62 831.554 1381.3 830.538 1379.53C829.09 1379.22 825.055 1378.82 823.959 1378.06C821.233 1376.15 820.534 1371.54 816.804 1373.39C814.032 1377.74 811.507 1381.93 809.416 1386.66C822.924 1398.06 839.423 1405.34 853.092 1416.99C854.6 1418.27 856.053 1418.32 857.886 1418.79C857.96 1418.81 858.014 1418.87 858.077 1418.91C859.032 1420.24 860.186 1421.5 861.236 1422.76C867.603 1423.93 871.797 1430.93 877.376 1431.45L878.165 1428.75L879.326 1428.23C879.819 1431.14 880.307 1433.63 881.546 1436.35C884.928 1436.37 886.61 1434.11 889.215 1432.08C890.649 1426.67 892.728 1421.73 892.483 1416.04Z" fill="#623C27"/>
<path d="M774.605 1339.02C771.896 1340.96 770.55 1341.45 767.223 1341.13C766.763 1341.08 766.306 1341.01 765.848 1340.95C763.866 1342.05 761.824 1344.28 761.195 1346.54C760.517 1348.99 760.585 1350.73 761.643 1353.02C764.21 1358.56 771.602 1363.19 777.156 1365.08C778.788 1365.63 779.156 1366.62 780.213 1367.95C780.796 1368.13 781.433 1368.19 781.964 1368.49C782.555 1368.83 782.995 1369.38 783.511 1369.82C783.936 1370.01 784.343 1370.25 784.788 1370.4C787.572 1371.29 788.415 1370.54 790.956 1369.38C793.276 1365.93 794.823 1362.7 796.248 1358.8C794.119 1350.26 782.668 1350.21 777.387 1344.44C776.328 1343.29 775.363 1340.5 774.605 1339.02Z" fill="#623C27"/>
<path d="M1093.66 630.096L1089.36 630.303C1089.15 630.04 1088.97 629.756 1088.73 629.514C1086.68 627.399 1083.51 626.166 1080.94 624.8C1076.72 622.564 1072.54 615.612 1067.27 616.863C1060.61 618.449 1056.57 628.131 1053.4 633.73C1059.61 638.02 1066.91 639.905 1072.83 644.351C1072.87 647.001 1073.04 645.672 1072.3 648.33C1076.37 650.212 1080.61 650.066 1083.96 653.018L1084.06 656.683C1087.35 657.801 1090.18 656.892 1093.37 658.389L1093.04 661.241C1097.82 664.624 1105.53 660.539 1107.74 667.644L1106.83 670.882C1110.33 674.636 1116.61 672.986 1120.45 675.37C1124.63 677.965 1127.25 684.858 1131.46 686.934C1132.34 687.374 1133.63 687.359 1134.56 687.398C1136.37 687.467 1138.19 687.49 1140 687.468L1141.1 688.778L1140.74 691.268C1144.2 694.052 1147.48 692.29 1150.09 694.013C1150.95 694.573 1151.41 697.599 1152.26 698.377C1154.83 700.741 1160.05 699.63 1162.7 701.214C1165.25 702.739 1162.63 704.885 1167.02 705.575L1169.89 704.052C1176.24 707.593 1178.25 713.878 1186.22 713.175C1189.95 715.752 1193.93 721.388 1197.45 723.277C1200.03 724.663 1204.12 722.909 1206.45 724.979C1208.93 727.193 1206.69 728.883 1210.28 730.19L1213.35 729.153C1216.09 731.328 1223.59 739.544 1226.8 739.226C1227.7 739.134 1229.64 738.48 1230.55 738.197C1233.97 741.01 1236.8 748.341 1240.41 749.178L1244.38 747.346C1247.04 750.102 1248.31 753.795 1251.6 755.609L1253.99 754.407C1258.65 757.052 1265.5 762.891 1270.98 761.35C1273.17 760.734 1274.21 759.917 1275.78 758.241C1277.42 754.076 1277.23 751.74 1276.09 747.365L1278.12 743.585C1278.83 742.627 1279 742.513 1279.46 741.23C1280.41 738.596 1280.12 734.315 1278.97 731.77C1275.56 724.186 1260.91 716.902 1253.43 713.724C1251.84 714.647 1251.28 714.852 1249.38 715.175C1243.14 706.002 1234.53 701.362 1225.4 695.549C1225.22 695.612 1221.74 696.845 1221.61 696.837C1217.05 696.505 1207.96 685.017 1202.1 684.361C1183.48 682.278 1174.89 669.01 1159.1 661.385C1154.71 659.263 1149.37 658.997 1144.73 657.539C1141.14 656.406 1140.73 655.066 1138.99 651.975C1123.94 645.521 1109.88 632.745 1093.66 630.096Z" fill="#623C27"/>
<path d="M1278.12 743.585C1278.83 742.627 1279 742.513 1279.46 741.23C1280.41 738.596 1280.12 734.315 1278.97 731.77C1275.56 724.186 1260.91 716.902 1253.43 713.724C1251.84 714.648 1251.28 714.852 1249.38 715.175C1243.14 706.002 1234.53 701.362 1225.4 695.549C1225.22 695.612 1221.74 696.845 1221.61 696.837C1217.05 696.505 1207.96 685.017 1202.1 684.361C1183.48 682.278 1174.89 669.01 1159.1 661.385C1154.71 659.263 1149.37 658.997 1144.73 657.539C1141.14 656.406 1140.73 655.066 1138.99 651.975C1123.94 645.521 1109.88 632.746 1093.66 630.096C1093.41 630.395 1093.18 630.704 1092.92 630.992C1091.9 632.12 1091.04 632.621 1089.72 633.314C1090.31 633.334 1090.9 633.332 1091.49 633.377C1096.75 633.778 1108.75 643.643 1112.92 646.994C1114.27 646.833 1115.62 646.641 1116.96 646.393C1119.27 649.574 1122.23 656.4 1125.69 657.796C1128.69 657.036 1129.22 656.387 1131.94 658.11C1134.33 659.631 1136.36 662.056 1138.32 664.095C1141.5 667.391 1145.5 667.827 1149.79 668.624C1151.55 670.544 1152.48 672.267 1153.56 674.631C1155.55 674.534 1157.54 674.418 1159.53 674.285C1162.12 677.124 1162.49 680.352 1166.07 681.882L1170.48 680.562C1174.45 682.834 1173.66 686.967 1177.49 689.276L1182.35 687.632L1184.59 688.891C1185.25 691.366 1185.11 692.932 1187.27 694.477L1192.25 693.573C1194.49 695.318 1195.38 697.261 1196.62 699.732C1199.2 700.845 1200.91 700.647 1203.64 700.486L1213.83 709.935C1218.41 714.26 1225.74 713.918 1231.16 716.9C1233.33 718.094 1235.17 720.062 1237.25 721.439C1241.54 724.271 1267.64 738.554 1271.61 739.616C1273.98 740.245 1276.58 741.574 1278.12 743.585Z" fill="#FECE72"/>
<path d="M1269.01 791.342C1269.1 787.218 1268.98 783.216 1268.64 779.106C1263.67 772.734 1234.18 755.25 1225.91 752.903C1224.65 753.953 1223.35 754.97 1222.03 755.953C1219.87 753.685 1220.46 753.132 1220.32 750.123C1217.85 746.938 1212.83 744.421 1209.16 742.707C1207.53 741.944 1203.81 739.713 1202.17 740.6C1196.1 743.879 1193 755.661 1191.11 762.001C1197.83 768.193 1202.96 776.69 1210.63 781.603C1208.58 784.089 1204.97 787.183 1205 790.529C1205 790.885 1205.46 793.384 1205.5 793.625C1206.39 798.963 1204.89 802.539 1203.59 807.656C1203.08 809.626 1203.19 808.876 1203.64 811.003C1205.87 810.872 1206.01 810.12 1207.59 808.645L1208.54 809.491C1206.66 819.663 1202.34 842.104 1207.74 850.788C1216.91 854.143 1229.6 851.773 1236.69 858.549C1244.41 860.25 1257.31 864.599 1264.33 860.122C1265.97 857.854 1266.76 855.998 1267.05 853.244C1267.98 844.215 1265.89 834.966 1266.7 826.101C1267.31 819.328 1270.06 812.049 1269.38 805.26C1268.59 800.782 1268.99 795.887 1269.01 791.342Z" fill="#623C27"/>
<path d="M1269.01 791.342C1269.1 787.218 1268.98 783.216 1268.64 779.106C1263.67 772.734 1234.18 755.25 1225.91 752.903C1224.65 753.953 1223.35 754.97 1222.03 755.953C1219.87 753.685 1220.46 753.132 1220.32 750.123C1217.85 746.938 1212.83 744.421 1209.16 742.707C1207.53 741.944 1203.81 739.713 1202.17 740.6C1196.1 743.879 1193 755.661 1191.11 762.001C1197.83 768.193 1202.96 776.69 1210.63 781.603C1216.34 783.477 1222.21 784.9 1227.98 786.575C1228.06 786.98 1228.12 787.388 1228.21 787.789C1228.64 789.636 1228.4 788.965 1229.76 790.553C1230.25 790.418 1230.74 790.27 1231.23 790.146C1232.87 789.734 1234.12 789.623 1235.79 789.623C1237.95 792.305 1236.4 793.105 1239.69 794.839C1241.58 794.159 1242.3 793.414 1244.26 794.096L1244.5 797.255C1247.49 797.772 1245.62 797.575 1247.86 797.615C1249.58 797.645 1248.83 797.56 1250.73 798.453C1251.83 801.268 1253.57 803.406 1255.38 805.776C1258.74 806.961 1260.37 806.046 1263.63 805.177C1265.71 804.624 1267.29 804.963 1269.38 805.26C1268.59 800.782 1268.99 795.887 1269.01 791.342Z" fill="#623C27"/>
<path d="M1250.03 786.39L1248.15 786.02C1246.94 784.66 1246.37 784.24 1244.6 783.667C1234.79 780.477 1225.41 774.612 1216.57 769.368C1214.35 769.609 1213.5 769.653 1211.28 769.03C1209.89 766.749 1209.22 765.357 1206.91 763.858L1204.41 765.233C1201.27 764.869 1202.08 762.217 1199.39 760.191C1196.6 760.716 1193.86 761.326 1191.11 762.001C1197.83 768.193 1202.96 776.69 1210.63 781.603C1216.34 783.477 1222.21 784.9 1227.98 786.575C1228.06 786.98 1228.12 787.388 1228.21 787.789C1228.64 789.636 1228.4 788.965 1229.76 790.553C1230.25 790.418 1230.74 790.27 1231.23 790.146C1232.87 789.734 1234.12 789.623 1235.79 789.623C1237.95 792.305 1236.4 793.105 1239.69 794.839C1241.58 794.159 1242.3 793.414 1244.26 794.096L1244.5 797.255C1247.49 797.772 1245.62 797.575 1247.86 797.615C1249.58 797.645 1248.83 797.56 1250.73 798.453C1251.83 801.268 1253.57 803.406 1255.38 805.776C1258.74 806.961 1260.37 806.046 1263.63 805.177C1265.71 804.624 1267.29 804.963 1269.38 805.26C1268.59 800.782 1268.99 795.887 1269.01 791.342C1266.78 791.011 1264.8 790.394 1262.64 791.17L1260.59 790.004C1254.78 790.318 1254.36 790.035 1250.03 786.39Z" fill="#FECE72"/>
<path d="M824.643 1418.54C821.137 1420.15 818.976 1425.34 817.3 1428.69C815.416 1432.47 804.686 1454.7 804.912 1457.47C805.019 1458.78 805.758 1459.97 806.182 1461.22C805.257 1464.18 803.021 1464.84 800.505 1466.51C799.337 1469.48 799.936 1470.59 800.91 1473.63C801.017 1473.96 801.132 1474.29 801.243 1474.62L798.217 1475.79L797.956 1477.61C804.239 1487.87 817.573 1502.59 826.856 1510.36C829.987 1512.97 834.963 1514.79 837.432 1517.82C838.447 1519.07 839.177 1519.67 840.525 1520.56L842.534 1519.95L846.728 1513.48C846.245 1510.7 845.776 1509.31 846.752 1506.55C848.6 1505.69 850.304 1504.84 852.02 1503.72C854.084 1502.38 854.367 1500.11 855.195 1497.87C858.585 1488.68 861.52 1478.4 865.709 1469.64C867.803 1465.27 872.868 1460.19 873.322 1455.33C874.267 1445.2 832.384 1427.85 825.331 1419.39C825.096 1419.11 824.872 1418.82 824.643 1418.54Z" fill="#623C27"/>
<path d="M763.702 1279.65C763.354 1279.61 763.005 1279.59 762.656 1279.55C758.898 1279.13 757.495 1278.31 754.593 1276.01C746.257 1269.43 738.85 1274.46 733.828 1263.03L731.56 1261.9L726.154 1264.06C722.289 1260.99 721.2 1255.52 716.906 1253.05L713.638 1254.68C710.463 1251.77 707.33 1248.46 703.57 1246.32L699.988 1246.95C698.289 1245.36 696.881 1243.73 695.441 1241.9C693.034 1242.13 693.445 1242.15 691.809 1243.62C690.079 1241.46 689.709 1239.79 688.946 1237.2C686.737 1235.76 685.203 1235.15 682.489 1235.78C677.438 1236.96 674.933 1240.75 672.634 1245.03C670.484 1249.03 669.39 1252.13 666.113 1255.43C665.819 1258.17 665.695 1258.74 667.662 1260.99C671.713 1265.63 680.443 1268.28 685.58 1272.04C696.027 1279.71 705.589 1289.38 715.452 1297.86C716.864 1297.72 718.278 1297.56 719.686 1297.38C721.941 1299.75 728.156 1307.69 731.326 1307.61C732.331 1307.58 733.139 1307.36 734.102 1307.14C735.146 1310.59 734.947 1311.77 737.571 1314.38C739.558 1314.32 740.893 1313.95 742.743 1313.23L743.983 1313.61L746.303 1314.08C757.34 1307.87 757.186 1291.34 762.916 1281.02C763.173 1280.56 763.441 1280.1 763.702 1279.65Z" fill="#623C27"/>
<path d="M1156.56 712.109L1155.69 712.343C1151.16 718.099 1146.38 723.053 1140.94 727.916L1140.92 729.371C1145.61 732.513 1151.15 732.269 1155.85 734.761C1159.05 736.456 1159.59 740.971 1163.37 742.901C1164.57 742.339 1165.7 741.766 1166.85 741.106L1167.89 740.494C1170.56 742.568 1170.78 743.96 1172 747.058L1176.66 745.507L1178.52 747.115L1179.57 747.117L1178.91 747.463L1179.33 744.845L1177.85 745.577L1180.66 745.228C1182.83 741.4 1184.39 737.655 1185.83 733.507C1182.44 720.863 1163.04 722.545 1156.56 712.109Z" fill="#623C27"/>
<path d="M1350.28 220.688C1352.64 217.529 1353.76 215.152 1354.15 211.2C1355.68 196.025 1354.89 180.652 1355.25 165.423L1357.3 68.1651C1357.61 52.5265 1361.24 34.3214 1359.16 19.0092C1358.49 14.0548 1357.53 6.28338 1353.52 2.78154C1348.83 -1.31466 1307.94 1.12354 1299.17 1.31788C1301.31 4.56176 1304.28 7.1712 1303.11 11.2975C1302.9 12.0095 1302.49 12.6417 1302.19 13.3204C1299.87 18.6469 1302.24 40.6281 1302.34 47.3917C1302.59 61.6226 1302.62 75.8544 1302.43 90.0872C1302.28 97.1898 1301.45 104.284 1301.64 111.388C1302.19 131.96 1302.56 152.401 1302.66 172.985C1302.71 181.39 1303.51 190.524 1302.59 198.87C1302.16 202.818 1301.49 207.287 1298.03 209.705C1295.25 209.356 1294.66 209.21 1292.82 206.82C1288.16 200.798 1287.13 176.918 1288.63 169.264C1288.93 167.736 1289.54 166.407 1290.18 165.002C1289.87 161.394 1288.58 158.989 1286.93 155.863C1287.48 152.954 1288.43 153.455 1289.5 151.2C1292.93 143.949 1284.37 126.907 1290.91 117.909C1289.97 113.524 1286.2 110.476 1287.1 106.19L1290.32 102.504C1289.54 92.5013 1284.96 91.8629 1291.02 81.9628C1289.97 76.2524 1288.44 70.078 1288.25 64.287C1287.67 45.7638 1292.47 25.3044 1288.23 7.20649L1290.63 2.40855L1289.92 1.05164C1279.46 -0.300463 1272.18 3.52012 1262.89 3.34473C1261.9 3.32621 1261.16 2.38261 1260.27 1.94644C1254.73 -0.770197 1238.48 2.11071 1231.92 2.62772C1219.03 3.64517 1181.2 2.1094 1172.37 4.64738L1169.58 7.35683C1169.1 6.79908 1168.66 6.19928 1168.14 5.68336C1168.11 5.65156 1166.19 4.18354 1165.99 4.12493C1159.79 2.34166 1148.08 5.04957 1141.33 5.34893C1123.86 6.12411 1106.14 4.80686 1088.7 6.28403L1088.43 8.56819L1087.62 6.41672L1086.43 7.86774L1086.55 6.51562L1085.51 7.52089C1087.01 8.50327 1088 8.87887 1089.68 9.40743C1089.63 9.72508 1089.57 10.0417 1089.52 10.3602C1088.96 14.3825 1089.62 17.3063 1090.73 21.1646C1089.48 23.5283 1087.98 22.6374 1088.19 25.4044C1090.49 55.1948 1087.91 86.3464 1087.79 116.227C1087.65 149.278 1089.43 182.645 1088.59 215.64C1088.55 217.176 1088.01 218.291 1087.28 219.603C1084.85 221.677 1083.17 221.588 1080.11 221.843C1077.67 220.518 1076.74 219.79 1076.09 216.962C1075.2 213.036 1075.75 209.576 1073.2 206.175C1073.36 205.578 1073.53 204.986 1073.67 204.387C1076.59 192.175 1074.5 173.547 1075.55 160.235C1073.57 157.575 1072.72 157.368 1073.31 154.028C1074.18 149.037 1077.57 144.514 1074.43 139.845C1074.04 139.265 1073.63 138.699 1073.23 138.126C1072.97 133.08 1075.29 127.26 1076.63 122.389C1075.16 121.561 1074.47 121.421 1072.85 121.171C1072.4 116.774 1075.93 114.053 1074.85 109.988C1072.73 102.022 1074.24 91.7387 1074.39 83.5162C1074.64 69.3372 1075.55 17.9486 1072.61 7.73767C1059.95 4.93411 1043.28 6.72653 1030.18 6.9126L1030.74 7.91894L1036.64 9.2852C1042.07 29.5505 1032.82 69.4723 1034.07 92.486C1034.37 97.9045 1033.13 103.955 1032.89 109.456C1032.3 123.484 1031.83 137.516 1031.47 151.551C1031.15 165.174 1030.8 178.837 1030.86 192.463C1030.89 198.53 1031.9 205.387 1031.15 211.367C1030.69 215.041 1029.41 217.285 1027.09 220.087C1024.7 221.124 1024.07 221.559 1021.53 221.25C1018.58 219.291 1017.57 217.285 1017.01 213.884C1015.91 207.217 1016.92 199.221 1017.72 192.539C1018.91 182.604 1012.8 175.743 1019.18 167.985C1018.43 164.353 1017.42 166.004 1015.84 163.575C1014.73 161.869 1018.91 156.403 1019.13 154.632C1019.74 149.536 1013.77 153.791 1019.4 144.028C1019.41 139.938 1018.06 136.093 1018.18 132.171C1018.53 120.406 1021.19 109.232 1020.96 97.277C1020.84 90.9086 1019.01 79.8015 1021.38 74.2851L1023.51 73.4114C1024.2 65.4242 1019.75 61.1533 1022.01 51.8234C1023.23 46.7677 1023.87 41.378 1023.08 36.2258C1021.71 27.299 1024.79 17.8316 1023.79 8.87256C1015.42 7.39583 1005 8.9804 996.452 9.25513L941.553 10.9676C935.862 11.1665 917.794 9.85582 913.73 11.9587L913.147 13.4864C914.722 14.5592 916.012 15.1564 917.833 15.7218C922.661 23.9338 919.284 61.8904 919.251 72.8079C919.216 83.7254 919.975 94.6691 919.935 105.621C919.924 109.031 918.735 118.524 919.794 121.114C919.933 121.458 922.282 124.184 922.347 124.432C922.604 125.43 920.704 131.59 920.36 132.986C920.253 133.42 920.129 133.849 920.025 134.282C918.495 140.616 921.983 148.806 922.153 155.42C922.515 169.658 920.332 183.321 922.349 197.609C923.105 202.973 920.962 207.086 920.247 212.206C919.628 216.644 922.77 220.195 921.639 224.958C919.264 227.152 915.617 226.318 912.41 226.381C909.584 223.718 909.168 222.034 908.974 218.165C908.438 207.592 910.323 196.833 908.218 186.443C906.737 179.12 907.621 154.35 907.369 145.115L905.774 60.8672C905.599 50.4619 904.68 39.9906 905.055 29.5886C905.24 24.4098 905.462 18.5826 907.857 13.945C908.088 13.4991 908.295 13.0413 908.517 12.5912L909.011 11.6068L907.234 12.1585C906.706 12.0101 906.196 11.7859 905.654 11.7134C905.347 11.6724 841.678 13.608 841.258 13.6962C840.663 18.4791 840.763 20.1589 843.066 24.339C842.482 34.1177 841.674 43.9986 841.842 53.7954C842.103 69.0082 845.33 85.1764 841.866 99.9023C840.619 105.205 843.177 104.186 844.051 108.127C845.26 113.58 843.776 125.086 843.857 131.402C844.245 161.521 843.223 198.343 845.842 227.736C843.264 230.194 842.243 231.886 838.683 232.525C836.138 231.342 835.014 230.692 833.92 227.993C829.451 216.969 831.467 190.271 831.129 177.395C830.998 172.471 828.493 166.144 828.972 161.551C829.266 158.743 832.667 155.165 830.168 153.045C828.632 151.743 829.19 152.302 827.987 150.597C828.952 148.747 829.909 147.912 831.556 146.651C830.584 142.69 827.669 135.441 829.051 131.81L831.861 130.091C830.87 123.777 826.597 126.158 829.103 117.223C829.737 114.966 830.323 112.635 830.419 110.282C830.857 99.5407 828.552 88.3203 828.295 77.5008C828.026 65.6397 827.898 53.7769 827.911 41.9125C827.963 36.2646 828.844 29.6187 828.168 24.1009C828 22.7329 827.284 21.4696 826.704 20.2415C827.434 17.8495 828.525 16.5434 830.136 14.6577L829.09 13.4744C811.856 14.5601 794.435 15.9808 777.18 16.3991C769.018 16.597 760.772 15.3122 752.676 16.7604C748.874 17.4399 746.493 18.4234 743.948 21.4126C743.205 22.284 742.558 23.1873 741.976 24.1712L740.856 166.695C740.641 182.027 738.314 222.331 740.536 235.455C741.052 238.51 743.983 241.46 745.939 243.752C747.665 243.678 746.715 243.858 748.82 242.843C750.478 242.044 752.033 241.425 753.802 240.889L755.9 243.148C786.043 238.643 821.863 241.664 852.894 240.42C860.258 240.124 925.267 237.549 925.907 237.248C927.084 236.695 927.746 235.32 928.929 234.782C929.868 234.357 966.344 234.906 971.118 234.841L1119.8 232.346C1146.28 231.945 1172.76 229.86 1199.26 229.44C1217.17 229.154 1235.22 230.753 1253.1 229.91C1263.52 229.416 1275.07 229.871 1285.31 228.555C1289.7 227.991 1292.1 224.357 1295.54 224.394C1296.22 226.326 1296.44 226.605 1297.97 228.191C1305.42 229.237 1313.82 227.418 1321.28 226.488C1328.72 229.943 1332.33 227.934 1340.08 226.313C1344.4 225.407 1346.9 223.42 1350.28 220.688Z" fill="#E8C775"/>
<path d="M959.383 12.0581C956.819 12.7564 953.834 13.4595 951.847 15.3414C949.572 17.4953 949.025 19.8612 948.648 22.8249C953.348 36.4159 955.147 203.326 952.182 224.172C951.919 226.028 953.433 227.686 954.367 229.301C957.546 229.967 960.261 229.135 963.05 227.645C966.024 226.056 968.401 224.261 969.39 220.932C967.945 219.052 968.462 219.636 967.061 218.098L966.172 217.139C969.246 194.982 967.183 171.268 966.891 148.93C966.518 120.287 966.845 91.6126 966.067 62.9778C965.858 55.2683 965.394 20.2165 962.742 15.2408C962.243 14.3072 960.222 12.854 959.383 12.0581Z" fill="white"/>
<path d="M1180.1 5.43799C1176.9 5.7258 1175.03 5.9112 1172.16 7.55067C1168.1 13.5343 1173.37 61.2354 1172.97 72.7473L1172.91 74.4467C1173.87 75.5905 1175.17 76.8563 1175.52 78.3618C1176.6 83.0177 1175.12 96.0834 1175.46 102.012C1177.69 140.536 1181.21 178.918 1182.25 217.527C1185.06 218.732 1187.99 219.832 1191.12 219.708C1194.09 219.588 1195.2 218.895 1197.22 216.834C1194.09 174.325 1191.26 131.795 1188.71 89.2466C1187.38 64.1065 1187.35 36.7217 1183.83 11.9247C1183.41 8.99212 1182.01 7.52781 1180.1 5.43799Z" fill="white"/>
<path d="M1126.86 6.6792C1123.77 7.00971 1119.97 7.10862 1117.34 8.86619C1114.03 11.0835 1115.84 15.9988 1116.37 19.1277C1117.34 24.7919 1115.53 29.072 1115.69 34.5909C1115.82 38.9524 1116.71 43.3214 1116.9 47.6973C1117.25 55.5967 1116.55 63.7993 1116.55 71.7451L1116.32 142.089C1116.33 164.87 1117.65 188.058 1115.47 210.749C1117.37 213.57 1118.73 213.3 1121.94 214.13C1125 213.653 1127.09 213.496 1129.43 211.237C1131.34 205.938 1129.11 199.012 1129.22 193.343C1130.54 133.234 1130.88 73.1188 1130.22 12.9974L1129.08 13.4753L1129.95 11.9101C1129.77 11.6074 1129.66 11.2473 1129.41 11.002C1129.01 10.61 1128.49 10.3608 1128.03 10.0403C1127.81 7.84763 1128.12 8.99342 1126.86 6.6792Z" fill="white"/>
<path d="M1233.98 6.55514C1229.89 6.10545 1227.34 6.0549 1223.49 7.67935C1222.73 8.59419 1221.66 9.32078 1221.21 10.4236C1217.68 19.0838 1229.71 173.534 1227.39 200.496C1227.17 203.099 1227.22 204.513 1228.01 207.052C1228.44 207.167 1228.87 207.315 1229.3 207.4C1232.62 208.047 1238.3 208.426 1241.15 206.4C1243.38 182.511 1239.69 155.848 1238.4 131.827C1237.44 113.814 1237.97 94.9722 1235.09 77.1939C1236.03 74.9455 1236.78 73.0718 1236.83 70.6033C1236.93 65.3548 1235.89 59.7775 1235.67 54.4713L1233.98 6.55514Z" fill="white"/>
</g>
<defs>
<linearGradient id="paint0_linear_80_7222" x1="331.559" y1="1388.29" x2="444.879" y2="1360.26" gradientUnits="userSpaceOnUse">
<stop stop-color="#F1AD45"/>
<stop offset="1" stop-color="#FFD468"/>
</linearGradient>
<clipPath id="clip0_80_7222">
<rect width="1360" height="1945" fill="white" transform="matrix(-1 0 0 1 1360 0)"/>
</clipPath>
</defs>
</svg>
