<svg width="265" height="454" viewBox="0 0 265 454" fill="none" xmlns="http://www.w3.org/2000/svg">
<path d="M92.06 174.1C90.69 169.28 88.26 164.78 87.65 159.73C86.25 159.04 86.27 157.51 85.84 156.35C84.06 151.58 84.13 151.56 89.16 152.06C93.78 152.52 96.91 150.44 98.2 146.03C99.33 142.19 97.6 138.1 94.08 136.27C90.3 134.31 86.59 135.4 83.74 139.32C83.08 140.22 82.83 141.74 81.44 141.65C79.71 141.54 79.82 139.83 79.32 138.65C78.93 137.73 78.6 136.79 78.24 135.86C71.96 120.93 66.87 105.54 61.11 90.4199C60.65 89.1999 60.01 87.9601 60.74 86.6101C61.46 85.6501 62.57 85.1899 63.49 84.4899C65.61 82.8699 67.16 80.9301 66.07 78.1101C65.07 75.5101 62.96 74.3699 60.22 74.1999C56.29 73.9599 52.8 70.33 52.64 66.55C52.56 64.77 53.65 64.3399 55.01 63.9199C67.87 59.9599 80.8 56.25 93.68 52.34C95.61 51.76 97.09 52.38 98.72 53.57C103.27 56.91 106.98 56.5598 109.63 51.8998C112.18 47.4198 115.93 45.5398 120.47 43.8998C130.94 40.0998 141.53 36.6799 152.12 33.2399C153.4 32.8199 154.66 32.44 156.02 32.59C157.41 32.78 158.61 33.43 158.96 34.8C159.98 38.88 162.97 41.82 164.91 45.35C166.01 47.48 165.8 49.28 164.21 51.29C158.74 58.23 158.84 66.11 161.4 74.01C162.82 78.4 166.38 81.2198 170.97 81.8898C175.53 82.5598 176.94 85.55 177.73 89.34C177.97 90.51 178.1 91.79 177.01 92.55C175.93 93.31 174.77 92.6999 173.71 92.2099C172.65 91.7199 171.71 91.0199 170.72 90.4099C162.32 85.3099 154.36 89.52 153.84 99.33C153.56 104.6 157.65 111.39 162.43 113.61C167.96 116.17 173.68 114.06 177.21 108.16C178.05 106.76 178.54 104.65 180.45 104.74C182.62 104.84 183.06 107.06 183.61 108.77C186.45 117.65 190.05 126.25 193.44 134.91C194.61 137.89 194.25 140.12 192.22 142.66C187.78 148.23 185.84 154.3 189.82 161.11C192.89 166.36 196.49 168.31 202.27 166.54C206.79 165.16 209.51 166.47 211.82 170.29C214.06 173.99 216.64 177.29 215.77 182.18C215.23 185.25 217.53 187.33 220.44 188.48C222.16 189.16 224.04 189.2 225.72 189.95C227.15 190.59 228.36 191.56 228.51 193.2C228.69 195.09 227.13 195.69 225.75 196.28C207.24 204.23 194.79 218.17 186.28 236.06C184.99 238.77 184.03 242.53 179.6 239.17C178.2 238.11 177.08 239.52 176.8 240.94C176.36 243.16 176.55 246.38 178.97 246.2C184.52 245.8 184.78 249.88 186.4 253.14C193.02 266.41 201.31 278.72 208.99 291.37C211.66 295.76 212.44 299.29 209.17 303.6C206.52 307.09 205.59 311.45 204.6 315.66C204.02 318.12 203.19 320.42 201.97 322.63C200.35 325.56 198.32 326.34 194.97 325.31C186.39 322.67 182.06 325.52 180.55 334.35C180.3 335.81 180.39 337.36 179.39 338.62C176.12 339.54 173.58 337.43 170.75 336.54C170.46 336.38 170.11 336.23 169.96 335.96C166.27 329.61 160.77 326.35 153.42 326.2C151.54 323.24 152.73 320.59 154.27 317.98C154.85 317.17 155.63 316.56 156.35 315.89C162.41 310.25 162.95 306.4 158.63 299.49C158.02 298.51 157.35 297.58 157.07 296.44C156.63 293.42 156.59 290.43 157.83 287.55C164.99 286.07 166.62 280.8 166.75 274.5C169.46 271.75 171.51 268.02 176.15 268.09C177.34 268.12 178.39 268.68 179.52 268.94C182.21 269.56 184.57 269.39 185.47 266.18C186.29 263.29 184.53 259.61 181.84 258.77C178.63 257.77 177.29 259.77 176.41 262.39C176.05 263.48 175.85 264.7 174.52 265.13C167.01 265.08 165.71 263.9 165.66 256.67C165.64 253.84 165.44 251.11 164.32 248.45C161.76 242.34 163.23 239.22 169.5 237.31C170.3 237.07 171.08 236.87 171.72 236.31C171.94 236.07 172.18 235.83 172.45 235.64C184.06 227.37 182.71 212.44 169.8 206.09C167.41 204.91 165.33 205.31 163.34 206.95C161.09 208.8 159.77 211.28 158.46 213.8C157.48 215.69 156.88 217.88 154.79 218.99C152.67 219.35 152.56 219.48 153.58 220.53C154.03 221 154.51 221.42 154.81 222.01C155.25 223.21 155.23 224.37 154.51 225.47C147.71 227.05 147.14 226.9 144.16 221.34C143.01 219.19 141.36 217.77 139.39 216.43C135.62 213.88 135.62 212.25 139.59 210.2C142.04 208.93 142.61 206.86 143.21 204.61C143.63 203.49 144.5 202.72 145.32 201.9C152.02 195.21 149.64 183.24 140.84 179.3C139.44 178.67 138.01 178.49 136.49 178.76C126.23 180.56 119.7 191.02 122.59 201.06C122.73 201.54 122.85 202.02 122.97 202.5C128.66 211.85 122.98 218.85 118.09 225.99C117.25 227.22 116.12 228.23 115.19 229.41C111.88 233.57 110.64 233.64 106.41 229.97C105.05 226.88 105.22 223.47 104.39 220.26C103.86 218.2 105.19 216.87 106.32 215.4C109.87 210.76 109.11 206.62 103.78 204.1C100.87 202.72 99.49 200.87 98.9 197.87C97.3 189.76 94.21 182.06 92.1 174.09L92.06 174.1Z" fill="#ECC085"/>
<path d="M158.08 287.92C158.08 290.85 158.08 293.77 158.07 296.7C156.36 297.46 154.82 296.45 153.21 296.24C149.15 295.7 145.28 296.37 142.94 299.88C140.2 304 139 308.88 140.55 313.67C141.68 317.17 145.06 318.26 148.71 318.22C150.81 318.19 152.96 316.97 155.02 318.41C153.43 320.47 154.35 323.22 153.1 325.38C149.04 328.79 145.03 332.07 144.1 337.92C143.13 344.04 145.65 351.07 150.77 354.6C153.67 356.6 156.79 356.78 159.75 355.15C165.38 352.04 169.64 347.82 169.76 340.77C169.79 338.97 169.56 337.05 171.12 335.64C173.85 336.24 176.48 337.12 178.85 338.64C184.85 344.15 185.23 345.86 180.46 351.84C172.58 361.73 165.57 372.23 158.38 382.61C156.67 385.07 154.74 386.84 151.58 387C146.79 387.24 143.21 389.74 139.98 393.12C136.86 396.39 135.5 399.69 138.48 403.73C140.23 406.1 138.97 408.11 137.64 410.11C134.79 414.43 131.05 418.02 127.82 422.02C124.64 425.97 123.14 425.51 121.54 420.57C119.86 415.37 115.63 412.41 109.35 412C103.76 411.63 98.61 412.26 95.7701 418.04C93.2901 423.08 94.27 429.93 97.94 433.92C99.58 435.7 101.6 436.72 103.88 437.41C106.73 438.27 106.84 439.86 104.69 441.62C101.7 444.06 98.29 445.86 94.63 447.01C91.23 448.08 89.56 445.35 87.69 443.26C79.7 431.55 69.47 422.23 57.46 414.79C55.75 413.73 53.88 413.04 51.92 412.59C49.35 411.36 46.79 410.09 44.35 408.59C37.88 404.42 30.91 401.41 23.42 399.6C22.92 399.48 22.45 399.3 21.98 399.08C19.25 397.91 16.4 397.31 13.47 396.92C11.86 396.71 9.63003 396.88 10.13 394.06C9.75003 392.35 11.27 392.47 12.14 391.95C12.78 389.3 16.39 388.55 16.31 385.44C17.4 383.61 18.66 382.02 21.1 382.17C23.67 379.35 26.66 376.95 29.16 374.06L29.35 373.65H29.81C32.92 370.81 38.79 372.89 40.47 369.48C42.27 365.83 44.28 362.74 47.19 360.11C50 357.58 52.09 354.23 55.67 352.58C55.91 350.88 57 350 58.56 349.58C60.23 347.87 61.9 345.89 63.76 349.39C66.34 357.09 70.87 358.18 76.76 352.51C83.14 346.37 83.01 341.27 76.33 335.06C75.3 334.11 73.6301 333.25 75.4601 331.56C78.2001 327.61 80.94 323.65 83.68 319.7C85.88 318.32 87.1 319.98 88.31 321.3C91.21 324.46 94.4701 324.22 97.8401 322.38C107.26 317.25 110.46 304.68 101.4 297.48C98.6501 295.29 99.47 286.97 102.42 285.5C103.79 284.82 104.68 285.81 105.2 286.87C106.76 290.03 109.15 290.87 112.19 289.31C115.31 287.7 116.78 284.87 116.39 281.44C116 278.01 114.14 275.69 110.4 275.08C108.69 274.8 105.55 276.62 105.76 272.59C106.54 269.89 106.63 267.06 107.31 264.34C108.17 261.73 106.82 258.5 109.52 256.41C111.94 256.58 112.43 258.91 113.77 260.27C116.66 263.21 121.27 264.09 125.34 262.43C128.98 260.94 130.76 258.3 130.76 254.3C130.76 250.61 129.48 247.82 126.05 246.21C122.59 244.58 119.28 244.66 116.21 247.14C114.37 248.62 112.95 250.43 111.76 252.48C111.18 253.49 110.95 255.26 108.99 254.56C107.91 246.29 106.58 238.04 107.15 229.66C109.76 231.66 111.51 232.7 114.04 228.72C116.28 225.2 119.01 221.88 121.35 218.32C124.45 213.61 125.91 209.17 121.58 204.44C121.1 203.92 121.35 203.2 121.84 202.66C128.17 205.66 134.68 205.95 141.37 204.08C142.33 203.81 143.32 203.89 144.09 204.7C144.26 208.19 143.33 210.94 139.39 211.61C136.22 212.16 137.3 214.1 138.86 214.66C143.05 216.16 144.83 219.34 146.43 223.07C147.3 225.09 149.07 226.61 151.56 224.65C152.86 223.63 153.11 225.21 153.83 225.64C154.29 225.84 154.77 226.09 154.96 226.55C157.91 233.65 162.6 237.64 170.79 235.67C171.59 235.48 172.42 235.85 173.02 236.5C172.93 238.65 171.36 238.44 169.85 238.68C164.55 239.5 162.85 242.69 165.26 247.36C166.75 250.25 167.34 253.25 167.05 256.43C166.65 260.89 167.2 264.44 173.05 263.85C173.61 263.79 174.23 264.37 174.83 264.65C176.38 265.67 176.88 267.01 176.05 268.74C171.99 269.02 170.88 273.67 167.3 274.65C165.23 274.38 164.51 272.46 163.2 271.26C159.77 268.12 156.67 269.04 155.67 273.58C154.56 278.66 155.9 283.37 158.07 287.92H158.08Z" fill="#EDC38B"/>
<path d="M106.11 272.65C106.51 275.45 108.46 273.62 109.58 273.66C114.8 273.83 118.23 277.42 117.95 282.71C117.66 288.19 113.08 292.21 108.08 291.73C104.3 291.37 104.99 287.93 103.12 285.44C101.88 288.05 100.7 290.43 99.61 292.85C98.51 295.3 101.07 295.52 102.1 296.33C113.5 305.34 107.24 320.1 97.2 324.3C92.96 326.08 88.95 325.86 86.4 321.36C85.69 320.11 84.77 319.92 83.67 319.7C93.5 305.24 100.8 289.64 105.19 272.69C105.48 272.32 105.79 272.33 106.11 272.65Z" fill="#111510"/>
<path d="M160.88 24.72C161.36 27.31 161.84 29.9 162.32 32.49C162.64 34.37 161.32 34.3301 160.24 34.0201C158.85 33.6201 157.57 32.8502 156.05 33.3602C142.7 37.8202 129.37 42.31 116 46.71C114.12 47.33 113 48.2999 112.15 50.1399C108.29 58.4999 104.23 59.3699 97.2 53.3799C96.31 52.6199 95.83 52.97 95.08 53.19C81.5 57.22 67.92 61.25 54.32 65.2C53.19 65.53 52.87 66.1202 53.36 66.8602C55.07 69.4202 54.21 74.44 60.18 72.92C64.25 71.89 67.21 74.5 67.98 78.75C68.72 82.8 66.17 85.62 61.11 86.73C60.46 86.89 59.82 87.0899 59.2 86.6499C58.42 84.8899 57.63 83.1399 57.88 81.1399C59.18 80.7699 60.61 82.86 61.79 81C62.36 80.1 62.18 79.0899 61.34 78.3899C59.55 76.8699 58.44 78.6601 57.11 79.3401C54.58 73.4101 52.05 67.4801 49.51 61.5501C53.24 60.2201 57.21 59.56 60.75 57.68C62.26 57.05 63.74 58.87 65.25 57.7C67.63 56.32 71.07 57.01 72.56 53.91C74.39 52.65 75.92 55.5601 77.76 54.2801C78.98 54.0201 80.25 54.1201 81.46 53.7901C81.85 53.6701 82.24 53.57 82.64 53.46C83.82 53.14 84.89 52.5501 85.99 52.0601C86.37 51.9001 86.76 51.79 87.16 51.7C88.14 51.5 89.13 51.28 90.07 50.93C90.44 50.78 90.82 50.6501 91.19 50.5201C92.77 50.1401 92.91 48.4101 93.98 47.5501C95.53 47.3501 97.09 48.99 98.62 47.49C98.99 47.3 99.37 47.1701 99.76 47.0701C101.46 46.5801 100.82 44.67 101.78 43.73C104.05 42.96 104.06 45.7499 105.59 46.1399C106.4 46.3399 107.18 46.19 107.96 45.98C108.54 45.81 109.13 45.6901 109.72 45.5901C110.48 45.4401 111.23 45.2401 111.91 44.8501C112.78 44.3201 113.49 43.54 114.46 43.16C115.39 42.83 116.3 42.1902 117.2 42.1102C121.18 41.7802 123.2 39.5101 123.96 35.8101C125.63 35.2601 127.6 39.81 129.04 35.5C131.98 36.69 134.27 35.0001 136.67 33.7901C138.18 32.7301 139.26 35.1901 140.76 34.2701C141.15 34.1301 141.55 34.02 141.95 33.92C144.43 33.5 143.43 30.7001 144.91 29.5901C146.53 28.7501 147.14 32.67 149.04 30.45C150.52 30.41 150.95 29.7501 150.5 28.3101C150.03 26.7801 149.69 25.2 150.79 23.73C153.02 23.13 152.99 25.1301 153.71 26.2601C154.27 27.1401 154.08 28.7702 155.88 28.3602C156.28 28.2502 156.68 28.21 157.08 28.22C159.52 28.26 158.57 25.7101 159.71 24.7601C160.08 24.4401 160.47 24.41 160.86 24.71L160.88 24.72Z" fill="#0F0F07"/>
<path d="M61.05 57.3401C60.9 60.0601 60.79 59.42 57.88 59.91C56.62 60.12 55.53 62.7001 53.24 61.5701C51.99 64.8401 50.77 61.0601 49.53 61.5501C49.1 60.5701 48.67 59.5902 48.24 58.6102C47.75 52.9302 44.65 48.1899 42.52 43.1299C39.99 37.1299 40.41 35.89 46.98 34.67C47.89 34.5 48.45 34.1201 49.06 33.5901L49.02 33.6499C50.4 32.9399 51.74 33.0202 53.04 33.8602C53.39 34.1802 53.68 34.55 53.91 34.97C55.03 37.97 55.95 41.0602 57.56 43.8702C57.78 44.2802 57.95 44.6999 58.1 45.1299C59.05 47.9199 59.6 50.8601 61.35 53.3401C62.02 54.7301 62.41 56.1101 61.04 57.3401H61.05Z" fill="#81B28E"/>
<path d="M78.79 135.8C79.74 137.46 79.69 139.63 81.31 141.12C83.27 135.37 88.55 132.4 93.43 134.14C98.35 135.9 101.13 141.64 99.52 146.73C97.46 153.22 92.83 155.22 85.23 152.76C86.06 155.16 86.86 157.45 87.66 159.73C85.23 159.96 85.82 157.68 85.4 156.62C82.81 150.04 80.49 143.36 78.07 136.71C77.51 135.77 78.05 135.7 78.79 135.79V135.8Z" fill="#12140F"/>
<path d="M51.13 452.46C46.03 452.66 41.19 450.79 36.14 450.54C27.63 447.78 19.3 444.71 12.25 438.9C-0.100002 428.73 -2.75998 415.79 4.77002 401.71C6.24002 398.96 7.59997 396.11 10.1 394.05C12.03 396.82 15.28 394.97 17.72 396.21C19.48 397.11 21.82 396.75 23.24 398.57C21.55 400.35 19.55 399.44 17.64 399.2C15.69 398.96 13.81 398.2 11.73 398.67C21.52 400.76 31.08 403.53 40.17 407.75C45.43 410.19 50.66 412.67 55.55 415.82C57.08 416.8 58.74 417.63 59.45 419.49C59.54 420.02 59.4 420.48 59.03 420.88C56.79 421.78 55.21 420.21 53.51 419.32C41.53 413.01 29.15 407.7 16.08 404.09C7.94001 401.84 5.49999 403.39 3.92999 411.7C2.09999 421.47 5.55001 429.34 12.95 435.7C22.98 444.31 34.99 447.78 47.8 449.22C49.73 449.44 51.88 448.94 53.29 450.88C53.46 452.6 51.76 451.78 51.15 452.45L51.13 452.46Z" fill="#162519"/>
<path d="M75.45 331.56C74.34 333.45 76.01 333.6 77.06 334.22C82.44 337.44 84.11 341.14 82.48 346.06C80.31 352.58 74.03 358.07 69.05 357.6C64.22 357.15 62.95 353.75 62.81 349.56C62.61 348.44 62.08 347.08 63.4 346.44C64.98 345.68 65.76 347.01 66.49 348.15C68.1 350.68 70.25 350.81 72.38 349.09C74.35 347.5 75.08 345.39 73.69 342.92C72.52 340.84 71.24 339.85 69.05 341.82C67.84 342.9 66.43 344.04 64.67 342.6C68.24 338.89 71.04 334.44 75.45 331.54V331.56Z" fill="#161614"/>
<path d="M107.15 229.66C108.12 237.98 107.92 246.44 110.08 254.62C110.62 255.31 110.62 256 110.08 256.68C107.9 258.92 108.59 261.93 107.95 264.59C107.05 264.74 106.51 264.57 106.98 263.5C108.36 247.24 105.82 231.35 102.56 215.53C102.29 214.23 102.18 212.91 101.99 211.59C103.24 210.18 104.5 208.76 101.16 208.64C98.3199 198.55 95.51 188.45 92.62 178.38C92.21 176.95 91.61 175.61 92.06 174.09C95.55 181.76 97.49 189.93 99.64 198.02C100.24 200.28 101.14 201.6 103.5 202.44C111.18 205.18 112.38 211.69 106.25 217.02C105.15 217.97 104.95 218.78 105.18 219.95C105.82 223.18 106.49 226.41 107.15 229.64V229.66Z" fill="#1E1C15"/>
<path d="M160.88 24.72L160.48 24.74L160.08 24.6899C157.44 24.6199 157.69 22.3 157.36 20.79C156.45 16.64 155.24 12.53 155.05 8.24999C155.04 7.94999 154.99 7.2401 154.91 7.3601C152.42 11.0501 151.86 5.42987 150.01 6.37987C148.71 6.40987 148.48 7.15 148.72 8.26C149.06 9.8 149.45 11.35 148.29 12.74C146.44 13.21 146.25 11.6101 145.63 10.5701C145 9.54006 144.96 7.88995 143.1 8.20995C140.41 9.86995 143.53 13.0501 141.36 14.8501C140.87 15.0901 140.15 15.0599 140.04 14.6799C138.81 10.0399 135.43 11.27 132.31 11.77C131.07 10.96 129.86 10.8599 128.69 11.9099C128.1 12.1799 127.51 12.47 126.94 12.79C124.77 13.92 126.17 15.61 126.32 17.05C126.55 19.23 127.86 21.3801 126.43 23.5901C122.58 23.5301 123.65 20.04 122.62 18.05C121.91 16.68 121.77 14.44 119.57 16.76C117.53 17.33 115.8 16.16 113.92 15.78C113.57 15.12 113.52 14.4999 114.11 13.9299C126.11 9.99992 138.07 5.92997 150.14 2.22997C152.63 1.46997 156.73 -1.3401 157.33 4.6599C158.52 11.3499 159.7 18.04 160.89 24.73L160.88 24.72Z" fill="#243623"/>
<path d="M78 54.02C77.78 55.41 77.28 56.4799 75.64 56.6699C73.24 56.9499 74.54 54.2 73.13 53.71C70.97 51.51 71.14 48.4501 70.18 45.8101C69.41 39.7901 67.5 34.1 65.16 28.53C66.58 27.21 68.46 27.2801 70.18 26.8701C72.82 28.0701 72.85 30.68 73.49 32.96C73.97 34.66 74.34 36.4099 75.29 37.9399C77.38 41.9999 77.18 46.6899 78.85 50.8799C79.28 51.9499 79.12 53.2 78.01 54.03L78 54.02Z" fill="#87B98E"/>
<path d="M99.05 47.71C96.94 51.42 96.79 51.4001 93.47 47.1101C91.28 44.4601 91.96 41.0401 91.07 38.0401C90.66 35.1201 89.91 32.27 89.08 29.45C88.87 27.18 87.52 24.8899 89.1 22.6299C89.44 22.3199 89.78 22.01 90.13 21.7C93.8 20.14 94.51 22.9301 95.04 25.3301C95.65 28.0801 95.98 30.8901 96.74 33.6201C96.93 34.1001 97.06 34.6001 97.17 35.1101C97.24 39.3901 99.82 43.31 99.05 47.72V47.71Z" fill="#89B88F"/>
<path d="M64.68 342.62C66.05 342.97 66.69 341.72 67.68 341.31C69.44 340.57 70.1 335.77 73.13 339.53C76.81 344.09 76.75 348.57 73.03 350.63C69.61 352.53 66.65 352.26 65.13 348.03C64.92 347.44 64.93 346.69 63.95 346.65C62.59 347.19 63.27 348.63 62.81 349.58C61.38 346.64 59.97 350.06 58.55 349.59C58.92 345.8 62.18 344.55 64.68 342.63V342.62Z" fill="#C8735E"/>
<path d="M89.1 22.62C89.57 24.91 90.46 27.1299 90.06 29.5399C91.17 32.5299 90.73 35.9499 92.53 38.7599C92.72 41.5599 94.07 44.23 93.47 47.11C94.21 49.42 95.28 51.9098 91.11 51.6798C89.78 50.5998 89.08 49.2099 88.74 47.5099C87.46 41.0799 86.19 34.6598 85.05 28.1998C84.69 26.1598 85.01 24.2899 86.08 22.5299C87.13 21.0899 88.11 22.13 89.1 22.62Z" fill="#8DB891"/>
<path d="M86.08 22.53C86.59 32.45 89.42 41.9699 91.11 51.6799C90.77 51.6799 90.43 51.6799 90.09 51.6799C88 50.8899 87.96 48.96 87.56 47.21C86.11 40.94 85.05 34.5901 83.63 28.3101C84.52 34.3901 85.8399 40.3899 86.9699 46.4199C87.3599 48.4999 88.17 50.59 87.06 52.71C86.72 52.7 86.38 52.6899 86.04 52.6799C83.54 52.6299 84.01 50.5101 83.59 49.0801C81.71 42.7001 80.93 36.0699 79.02 29.6499C79.08 31.6499 79.73 33.7001 78.57 35.5801C76.08 36.4801 76.14 34.28 75.65 33.02C74.89 31.08 74.55 28.9701 73.11 27.3301C72.84 26.8601 72.84 26.3899 73.09 25.9099C77.42 24.7799 81.75 23.65 86.08 22.52V22.53Z" fill="#2D4A2F"/>
<path d="M96.14 34.71C94.35 32.27 94.4 29.3701 93.9 26.5701C93.52 24.4401 93.91 21.34 90.13 21.7C97.94 18.56 106.04 16.3099 114.1 13.9299C114.1 14.4399 114.1 14.95 114.1 15.46C113.71 17.14 113.32 18.8199 112.62 20.4099C112.33 20.7799 111.95 20.9499 111.48 20.9299C111.09 21.5799 110.12 18.3899 110.07 21.1499C110.05 22.1699 109.96 23.1401 109.13 23.8701C108.97 23.8801 108.66 23.8699 108.66 23.8999C108.44 27.2799 106.98 18.9401 106.94 24.0801C106.94 24.7401 106.51 25.4201 105.87 25.5801C104.88 25.8301 104.52 24.97 104.09 24.27C103.34 23.02 103.61 20.7301 101.08 21.3101C98.22 22.1801 99.25 24.2599 99.53 26.1399C99.88 28.4599 101.26 30.8899 98.84 32.9299C95.63 30.3399 96.31 26.6101 95.77 23.3501C94.8 27.0301 98.85 30.84 96.13 34.72L96.14 34.71Z" fill="#283E28"/>
<path d="M55.65 352.58C52.59 355.61 49.57 358.68 46.44 361.64C44.43 363.55 42.23 364.94 42.98 368.57C43.55 371.34 40.85 372.34 38.4 372.7C35.54 373.12 32.57 372.53 29.78 373.63C37.73 366.61 46.35 360.38 53.86 352.85C54.39 352.32 54.99 352.25 55.65 352.58Z" fill="#26211D"/>
<path d="M78.79 135.8C78.55 136.11 78.31 136.41 78.07 136.72C70.63 120.47 65.14 103.48 59.22 86.66C59.86 86.62 60.55 85.36 61.13 86.74C65.79 102.3 71.86 117.35 77.57 132.54C77.98 133.63 78.39 134.71 78.79 135.79V135.8Z" fill="#3E2F21"/>
<path d="M49.06 33.5901V37.3701C47.09 36.8001 44.51 32.6801 43.88 38.3001C39.2 38.4101 42.53 40.8601 42.96 42.0301C44.68 46.6501 46.64 51.18 48.54 55.73C48.98 56.78 49.82 57.8101 48.24 58.6101C45.76 52.7301 43.64 46.6601 40.67 41.0401C38.61 37.1501 39.75 35.6301 43.37 34.8001C45.26 34.3601 46.97 33.0601 49.06 33.6001V33.5901Z" fill="#2A342B"/>
<path d="M57.13 79.3301C56.97 77.2201 57.63 75.7001 60.05 75.8701C62.07 76.0101 63.29 77.34 63.89 79.17C64.6 81.33 63.19 82.6201 61.64 83.5701C58.89 85.2601 59.27 81.7799 57.89 81.1399C57.64 80.5399 57.38 79.9301 57.13 79.3301Z" fill="#DF7C4F"/>
<path d="M65.15 28.5299C67.61 28.3099 67.58 30.52 67.97 31.83C69.38 36.53 70.48 41.33 71.69 46.09C69.08 46.3 68.99 44.1299 68.49 42.5199C67.53 39.3999 66.89 36.18 65.52 33.1C64.71 34.07 65.41 35.3799 64.68 36.2899C63.4 37.6599 62.74 36.49 62.17 35.58C61.33 34.25 60.87 32.6798 59.58 31.6398C59.27 31.3098 59.06 30.9199 58.94 30.4799C60.83 29.2599 62.97 28.8499 65.13 28.5199L65.15 28.5299Z" fill="#1B321C"/>
<path d="M101.16 208.64C102.3 208.36 102.65 205.63 104.47 207.54C105.64 208.77 106.63 210.19 105.57 211.89C104.31 213.91 103.23 211.28 101.99 211.59C101.1 210.78 100.9 209.77 101.16 208.64Z" fill="#BF9173"/>
<path d="M53.11 34.72C51.75 34.36 50.38 33.9999 49.02 33.6499C52.04 31.6699 55.57 31.31 58.95 30.49L59.08 30.6599C60.1 32.3699 60.47 34.1099 59.35 35.9299C57.13 36.2899 55.54 33.34 53.12 34.73L53.11 34.72Z" fill="#1E2C20"/>
<path d="M73.09 25.9199C73.06 26.1599 73.06 26.4099 73.09 26.6499C74.33 30.7099 76.31 34.6701 74.69 39.1001C71.51 35.6401 72.31 30.7101 70.17 26.8701C71.14 26.5501 72.12 26.2399 73.09 25.9199Z" fill="#1F3721"/>
<path d="M29.13 374.06C27.51 377.83 24.04 379.75 21.07 382.17C22.22 377.94 26.02 376.34 29.13 374.06Z" fill="#26211D"/>
<path d="M106.98 263.5C107.3 263.86 107.63 264.23 107.95 264.59C107.4 267.29 107.84 270.22 106.11 272.65L105.65 272.6L105.19 272.69C105.77 269.63 105.67 266.43 106.98 263.5Z" fill="#6A5D4A"/>
<path d="M16.27 385.44C17.05 389 13.74 389.94 12.1 391.95C12.1 388.89 14.99 387.68 16.27 385.44Z" fill="#4C3A2B"/>
<path d="M51.13 452.46C51.87 452.13 52.61 451.8 53.34 451.46C55.45 449.62 58.05 450.06 60.48 450.11C68.49 450.28 76.39 449.43 84.21 447.83C87.11 447.62 88.06 445.99 87.52 443.27C87.66 442.81 87.95 442.5 88.41 442.34C90.93 446.8 94.25 446.87 98.21 444.27C100.53 442.74 102.99 441.41 106.27 439.47C101.01 438.4 97.19 436.56 94.85 432.43C92.56 428.39 92.51 424.07 93.42 419.84C94.92 412.94 100.79 409.84 109.94 410.61C118.41 411.32 122.87 415.56 123.62 424.38C129.28 418.8 133.64 412.83 138.32 407.15C139.58 405.62 137.96 405.19 137.31 404.46C134.09 400.81 134.61 397.22 137.42 393.67C140.96 389.2 145.36 385.97 151.21 385.69C153.9 385.56 155.37 384.46 156.81 382.39C164.49 371.33 171.93 360.09 180.5 349.68C182.57 347.16 183.42 345.24 180.61 342.69C179.61 341.79 179.4 340.01 178.83 338.64C178.86 337.31 178.82 335.97 178.94 334.65C179.87 325.03 186.29 320.51 195.22 323.85C198.65 325.13 199.84 324.13 201.16 321.46C202.05 319.66 202.78 317.91 203.15 315.89C204.19 310.3 205.88 304.88 209.59 300.44C211.19 298.53 210.95 297.18 209.73 295.22C204.1 286.21 198.73 277.04 193.1 268.02C188.97 261.39 184.78 254.82 182.93 246.82C179.82 249.66 177.41 249.07 175.58 245.82C173.8 242.68 174.75 238.34 177.46 237.03C180.89 235.37 181.17 238.54 182.61 240.62C191.72 219.11 205.86 202.68 228.01 193.79C227.24 190.98 224.44 190.84 221.87 190.26C215.25 188.76 213.63 186.19 214.67 179.32C215.24 175.53 211.68 173.67 210.39 170.73C208.81 167.12 206.65 166.48 202.67 167.88C193.63 171.08 184.14 160.99 186.38 150.93C187.19 147.31 188.67 143.82 191.44 141.38C193.7 139.39 193.26 137.87 192.3 135.51C188.18 125.39 184.03 115.27 180.65 104.29C178.01 109.42 176.15 114.59 170.03 115.84C166.57 116.55 163.4 116.08 160.44 114.32C152.85 109.81 150.18 99.5401 154.6 92.1101C159.11 84.5101 162.62 84.5701 177.11 92.8301C175.78 88.3401 176.48 83.73 169.84 83.01C164.42 82.42 160.46 78.3901 159.51 72.8101C158.11 64.6401 156.72 56.23 164.24 49.79C165.93 48.34 163.67 47.11 164.03 45.74C163.58 44.56 162.77 43.29 164.79 42.74C167.66 53.43 170.53 64.1201 173.39 74.8101C171.29 75.4101 170.86 73.6599 170.24 72.4199C169.1 70.1299 168.84 67.4899 165.87 66.1899C163.23 65.0299 167.56 63.3499 166.18 61.6599C164.06 64.3899 163.72 70.1301 165.37 73.0701C167.42 76.7201 170.68 75.7201 173.79 75.3701C181.75 104.88 192.15 133.48 205.96 160.79C209.81 168.4 215.22 174.94 220.08 181.87C218.96 185.32 221.29 186.05 223.82 186.63C231.29 195.54 240.2 203.14 247.29 212.4C247.12 212.57 246.95 212.74 246.78 212.91C242.07 211.71 239.81 207.49 236.62 204.48C230.67 198.87 230.82 198.81 223.35 202.43C208.77 209.5 198.02 220.45 190.33 234.61C186.69 241.31 186.55 247.88 190.27 254.56C198.3 268.93 206.82 283.02 215.36 297.09C218.61 302.43 219.57 302.23 224.39 298.03C232.42 291.03 240 283.56 247.38 275.9C254.42 268.58 259.53 260.21 261.04 249.85C262 243.21 259.82 237.41 257.49 231.53C256.7 229.55 255.25 227.79 255.43 225.47C255.57 224.98 255.88 224.63 256.34 224.42C267.15 239.57 266.65 255.56 254.94 271.36C248.75 279.71 241.37 287 233.43 293.55C212.16 311.11 195.37 332.55 179.12 354.53C165.08 373.51 152.09 393.28 137.1 411.56C128.36 422.21 119.96 433.17 108 440.76C90.42 451.91 71.35 454.86 51.09 452.47L51.13 452.46Z" fill="#110F0B"/>
<path d="M151.07 62.3701C151.32 66.7401 150.62 70.9901 149.08 75.0701C146.58 81.6801 141.55 85.0101 134.47 84.8401C129.41 84.7201 125.68 81.41 123.38 74.96C120.17 65.97 123.91 53.7901 131.46 48.6101C140.72 42.2601 150.18 46.7201 151.05 57.8701C151.17 59.3601 151.07 60.8601 151.07 62.3601V62.3701Z" fill="#090E08"/>
<path d="M173.04 236.51C172.05 236.57 171.04 236.57 170.06 236.71C160.39 238.08 156.4 235.37 153.85 225.66C153.85 224.33 153.85 222.99 153.86 221.66C153.31 220.66 153.23 219.73 154.26 218.97C156.5 214.78 158.05 210.19 161.59 206.76C165.56 202.9 169.42 202.79 173.19 206.85C175.43 209.26 177.38 211.98 179.2 214.73C185.19 223.75 182.78 232.11 173.03 236.52L173.04 236.51Z" fill="#111108"/>
<path d="M121.2 113.57C119.76 108.44 122.01 104.81 126.1 102.13C130.17 99.4598 134.02 100.71 137.65 103.3C148.3 110.89 147.71 122.71 136.3 128.92C131.56 131.5 126.45 133.05 121 132.6C117.43 132.31 114.5 130.68 113.91 126.77C113.33 122.86 115.21 120.43 119.09 119.59C121.01 121.27 118.63 124.99 121.96 125.91C125.84 126.98 129.5 126.17 132.99 124.23C140.57 120.03 141.66 113.53 135.51 108.78C133.55 107.27 131.36 106.69 128.96 107.45C127.58 107.89 126.68 108.87 126.64 110.36C126.59 112.11 127.82 112.55 129.27 112.68C131.54 112.88 134.1 113.3 133.34 116.29C132.61 119.13 129.87 118.97 127.5 118.52C124.57 117.97 122.18 116.65 121.2 113.57Z" fill="#0A1007"/>
<path d="M168.48 187.54C161.38 187.49 155.32 182.53 154.34 175.95C153.5 170.3 159.18 161.6 164.85 159.97C165.78 159.7 166.84 159.62 167.79 159.77C172.02 160.44 180.48 169.19 181.09 173.42C182.28 181.6 176.93 187.6 168.48 187.54Z" fill="#0F110A"/>
<path d="M144.1 204.71C139.55 205.87 135.01 207.13 130.23 206.66C126.95 206.34 123.76 205.84 121.84 202.67C116.76 191.91 125.82 177.35 137.81 177.14C139.23 177.11 140.91 177.52 142.05 178.32C147.82 182.37 151.21 187.88 151.12 195.09C151.06 199.83 147.45 202.25 144.1 204.73V204.71Z" fill="#0A0F06"/>
<path d="M96.84 175.86C97.38 172.59 97.71 169.26 98.49 166.05C100.51 157.78 107.51 153.41 114.85 155.64C120.98 157.5 124.55 165.98 121.82 173.21C119.08 180.45 112.85 184.63 106.53 188.19C103.05 190.15 99.64 188.34 98.31 184.27C97.44 181.59 96.8 178.81 96.84 175.88V175.86Z" fill="#11140C"/>
<path d="M171.11 335.63C171.25 340.78 171.42 345.9 167.91 350.29C164.11 355.05 159.61 359.15 153.2 357.4C147.18 355.76 143.94 350.84 142.83 344.64C141.14 335.24 145.28 327.41 153.09 325.37C161.78 324.07 167.3 328.36 171.11 335.63Z" fill="#070D08"/>
<path d="M121.2 113.57C123.69 115.84 126.35 117.75 129.94 117.72C131.36 117.72 132.77 117.62 132.6 115.69C132.45 114 131.39 113.45 129.78 114.01C127.04 114.95 124.9 114.14 124.72 111.18C124.54 108.3 126.1 106.04 129.23 105.54C133.56 104.85 136.56 107.08 138.91 110.37C141.21 113.58 141.92 116.93 139.56 120.54C136.2 125.67 127.34 129.19 121.5 127.71C116.02 126.32 119.6 122.37 119.09 119.58C119.79 117.57 120.49 115.56 121.2 113.56V113.57Z" fill="#E58954"/>
<path d="M155.01 318.41C154.68 318.46 154.35 318.48 154.02 318.55C145.86 320.41 141.7 319.48 139.36 315.28C137.25 311.5 139.07 301.56 142.53 297.92C146.39 293.87 151.68 293.45 158.06 296.71C165.38 305.49 164.47 311.94 155 318.41H155.01Z" fill="#0B100A"/>
<path d="M195.66 199.61C190.69 199.7 187.19 196.54 187.13 191.92C187.06 186.22 192.41 178.92 196.71 178.87C200.81 178.82 206.92 184.26 207.08 188.11C207.32 193.89 201.75 199.5 195.66 199.61Z" fill="#16100A"/>
<path d="M92.66 89.7599C86.53 89.7499 82.05 84.6199 82.14 77.7299C82.22 70.9199 88.03 65.4699 95.23 65.4399C101.07 65.4099 104.72 69.39 104.77 75.81C104.82 83.03 98.98 89.7699 92.67 89.7499L92.66 89.7599Z" fill="#11130C"/>
<path d="M80.02 113.79C73.95 113.77 69.03 108.76 69.12 102.67C69.19 98 73.48 94.5 79.16 94.48C85.38 94.46 90.26 99.0101 90.23 104.79C90.2 110.36 86.29 113.81 80.02 113.79Z" fill="#11110A"/>
<path d="M186.04 293.71C180.08 293.66 176.38 289.56 176.28 282.91C176.18 276.13 180.48 271.54 186.81 271.68C193.89 271.83 198.61 276.72 198.47 283.77C198.35 289.95 193.57 293.77 186.04 293.71Z" fill="#110F08"/>
<path d="M141.53 157.9C134.35 157.87 130.17 154.37 130.09 148.31C130.01 142.02 134.05 137.7 140.04 137.67C146.68 137.63 152.58 142.89 152.47 148.73C152.36 154.03 147.72 157.92 141.54 157.9H141.53Z" fill="#0C0F06"/>
<path d="M115.18 86.53C120.69 86.57 125.45 91.05 125.25 96C125.09 99.93 121.28 102.88 116.44 102.81C111.46 102.74 107.15 98.4499 107.25 93.6499C107.33 89.6499 110.85 86.49 115.18 86.52V86.53Z" fill="#0D0F08"/>
<path d="M158.08 287.92C153.64 284.35 152.06 274.52 155.29 270.07C157.38 267.19 159.95 266.68 162.85 268.92C164.82 270.44 166.06 272.54 167.3 274.64C168.47 283.49 165.56 287.68 158.07 287.92H158.08Z" fill="#100F07"/>
<path d="M193.43 306.84C193.52 311.82 188.93 316.34 183.79 316.35C179.05 316.35 175.26 312.38 175.08 307.22C174.89 301.84 178.92 297.64 184.29 297.62C189.37 297.6 193.33 301.6 193.43 306.84Z" fill="#0E1008"/>
<path d="M180.02 136.51C179.97 140.44 177.14 142.96 172.8 142.93C167.73 142.89 163.67 139.31 163.8 135C163.92 131.08 167.2 128.12 171.41 128.14C176.27 128.15 180.07 131.86 180.02 136.52V136.51Z" fill="#12120A"/>
<path d="M176.06 268.74C175.65 267.38 175.25 266.01 174.84 264.65C175.22 259.04 177.21 256.4 180.84 256.72C184.66 257.06 187.74 261.61 187.12 265.99C186.38 271.23 181.26 272.5 176.06 268.74Z" fill="#21110B"/>
<path d="M187.13 210.73C187.03 206.87 190.41 202.9 194.07 202.92C197.56 202.94 199.7 204.83 199.92 208.39C200.15 212.02 196.01 216.58 192.65 216.63C189.68 216.67 187.21 214.03 187.13 210.72V210.73Z" fill="#211109"/>
<path d="M106.34 118.2C106.08 121.21 104.75 123.66 100.94 123.59C97.24 123.52 94.3 120.21 94.54 116.14C94.74 112.77 95.35 109.26 99.7 108.89C102.19 108.68 106.38 114.61 106.35 118.21L106.34 118.2Z" fill="#0D0E05"/>
<path d="M164.82 42.75C164.57 43.75 164.31 44.75 164.06 45.75C160.29 42.33 158.39 37.7101 156.06 33.3701C157.77 30.3901 160.37 33.73 162.33 32.5C163.16 35.92 164 39.34 164.83 42.76L164.82 42.75Z" fill="#4C2E25"/>
<path d="M154.26 218.96C154.13 219.86 153.99 220.75 153.86 221.65C151.98 221.4 150.8 220.08 149.33 218.66C151.21 217.17 152.76 217.24 154.26 218.95V218.96Z" fill="#EDC38B"/>
<path d="M86.0999 376.78C83.8299 375.09 81.86 373.12 83.84 370.16C85.8 367.21 88.1299 369.06 90.4099 370.03C94.3999 371.72 97.44 374.37 99.3 378.3C101.54 383.01 101.84 387.74 98.13 391.75C94.54 395.63 89.7 396.64 84.88 394.74C81.99 393.6 80.12 394.18 77.71 395.6C74.45 397.53 70.9999 399.3 67.4099 400.44C64.6599 401.32 62.43 402.5 60.25 404.4C55.44 408.58 48.87 407.21 45.9 401.76C44.77 399.69 44.54 397.68 46.23 395.8C47.93 393.91 50.07 393.19 52.52 393.76C53.45 393.98 54.5299 394.64 54.2899 395.74C54.1899 396.18 52.91 396.37 52.17 396.67C51.44 398.26 50.61 399.83 51.76 401.71C51.81 402.24 52.39 401.13 51.81 401.47C50.86 399.67 51.33 398.45 53.27 397.81C55.89 398.67 58.83 400.93 59.48 395.58C59.66 394.09 61.66 394.83 62.92 395.14C68.16 396.41 73.01 395.74 77.49 392.47C79.29 391.15 80.55 390.12 80.58 387.45C80.62 383.68 82.53 380.49 86.07 378.59C88.09 380.55 88.19 380.62 86.57 382.92C85.28 384.76 83.58 386.63 86.31 388.33C89.06 390.04 90.98 388.41 92.39 385.99C94.91 381.68 93.9 379.49 88.92 378.61C87.67 378.39 86.81 377.73 86.09 376.77L86.0999 376.78Z" fill="#0C0E0B"/>
<path d="M108.01 374.72C107.98 362.39 120.42 352.13 131.47 355.37C138.91 357.55 142.61 365.12 138.95 371.9C135.3 378.67 129.76 383.72 122.12 385.78C114.68 387.78 108.03 382.44 108 374.72H108.01Z" fill="#090F0D"/>
<path d="M95.21 347.04C95.15 336.99 104.12 325.86 113.94 323.98C118.58 323.09 122.5 324.66 125.37 328.4C128.22 332.12 128.12 336.32 125.78 340.07C120.48 348.54 112.26 353.16 102.88 355.55C98.22 356.74 95.24 353.03 95.21 347.05V347.04Z" fill="#0B100C"/>
<path d="M61.1599 392.75C55.3899 393.16 50.31 389.69 48.06 383.96C45.86 378.37 47.62 372.08 52.42 368.39C57.28 364.66 62.54 364.58 67.49 368.23C68.95 369.31 70.33 370.52 71.67 371.75C79.59 379.04 78.17 387.08 68.17 391.25C65.88 392.2 63.4999 392.97 61.1599 392.74V392.75Z" fill="#0F110F"/>
<path d="M110.08 256.68C110.08 255.99 110.08 255.3 110.08 254.62C111.61 246.23 118.86 242.66 124.22 243.99C129.23 245.24 132.28 248.96 132.42 253.93C132.57 258.93 130.08 262.38 125.18 263.98C119.95 265.69 114.29 264.17 111.75 260.28C111.03 259.18 110.62 257.89 110.07 256.69L110.08 256.68Z" fill="#12140D"/>
<path d="M132.76 238.63C127.69 239.8 120.78 231.49 120.16 226.31C119.64 222.02 125.45 216.98 130.35 217.05C138.4 217.16 143.97 221.54 143.94 227.75C143.91 233.91 139.05 238.64 132.76 238.63Z" fill="#13140D"/>
<path d="M59.1 419.66C45.06 410.34 29.85 403.86 13.28 400.61C12.63 400.48 11.86 400.55 11.36 400.21C10.53 399.64 8.63 400.24 8.93 398.46C9.2 396.83 10.65 396.61 12.05 396.76C15.81 397.14 19.36 398.81 23.22 398.59L23.09 398.56C30.87 400.82 38.15 404.25 45.3 408C47.58 409.23 50.25 409.74 52.12 411.72C63.13 416.73 72.55 423.72 79.6 433.68C79.03 435.45 77.6 435.6 76.5 434.69C70.58 429.83 63.75 426 59.1 419.67V419.66Z" fill="#33674D"/>
<path d="M154.36 241.74C159.43 241.87 164.21 247.06 164.09 252.32C163.98 257.48 160.6 260.83 155.69 260.64C150.43 260.43 146.01 255.47 146.11 249.87C146.19 245.15 149.77 241.63 154.35 241.74H154.36Z" fill="#15120A"/>
<path d="M116.67 407.89C112.26 407.84 109.32 405.27 109.31 401.47C109.31 396.74 115.17 392.16 121.15 392.23C125.09 392.27 127.94 395.03 127.84 398.71C127.71 403.61 122.43 407.95 116.66 407.89H116.67Z" fill="#090C0A"/>
<path d="M79.89 419.66C75.23 419.63 72.17 416.66 72.33 412.32C72.49 407.8 75.88 404.34 80.23 404.26C84.87 404.17 88.22 407.37 88.23 411.9C88.23 416.76 85.09 419.69 79.89 419.66Z" fill="#0E0D09"/>
<path d="M139.02 271.67C143.32 271.61 146.72 274.76 146.94 279C147.17 283.38 143.02 287.57 138.41 287.62C134.03 287.67 131.05 284.59 131.06 280.03C131.07 275.18 134.36 271.73 139.03 271.66L139.02 271.67Z" fill="#0E1008"/>
<path d="M28.13 396.46C23.55 396.41 19.82 393.41 20.09 390.13C20.43 385.99 23.3 384.65 27 384.64C31.07 384.64 35.16 387.74 34.75 390.78C34.21 394.72 31.09 395.93 28.13 396.46Z" fill="#161011"/>
<path d="M86.1 376.78C87.22 377.02 88.5 377.74 89.42 377.43C92.11 376.5 94.23 376.85 94.8 379.76C95.54 383.55 94.42 387.06 91.39 389.61C89.16 391.48 86.58 391.12 84.57 389.29C82.3 387.22 81.6 384.78 85 382.97C87.11 381.85 87.31 380.44 86.07 378.59C86.07 377.99 86.08 377.38 86.09 376.78H86.1Z" fill="#D77C5A"/>
<path d="M120.14 309.22C120.31 305.3 123.44 302.06 126.5 302.43C129.8 302.82 131 305.32 130.85 308.12C130.65 311.69 128.4 314.05 124.76 314.14C121.47 314.22 120.29 311.81 120.14 309.23V309.22Z" fill="#0E0F08"/>
<path d="M79.19 433.54C71.66 424.41 62.27 417.59 52.13 411.71C53.29 411.32 54.3 411.48 55.41 412.12C68.67 419.74 79.99 429.46 88.42 442.34L88.1 442.62C82.94 441.74 81.63 437.09 79.2 433.54H79.19Z" fill="#10110A"/>
<path d="M147.84 373.96C147.94 371.14 149.05 368.48 152.83 368.34C155.8 368.23 157.45 370.07 157.43 373.01C157.41 376.43 155.52 378.82 152.2 379.21C149.13 379.57 147.9 377.35 147.84 373.96Z" fill="#0D0B06"/>
<path d="M45.31 407.99C37.91 404.84 30.51 401.7 23.1 398.55C31.31 399.79 38.68 403.02 45.31 407.99Z" fill="#201B0F"/>
<path d="M53.28 397.82C50.69 400.25 52.46 401.76 54.63 403.29C52.07 403.7 50.5 402.61 49.93 400.47C49.45 398.7 50.17 397.2 52.18 396.69C52.55 397.07 52.92 397.44 53.29 397.82H53.28Z" fill="#AC7764"/>
<path d="M173.82 75.3701C168.37 78.7601 164.05 76.9999 163.11 70.7399C162.7 67.9799 162.98 65.11 163.03 62.29C163.07 60.18 164.69 59.4399 166.35 59.1699C168.85 58.7699 167.99 61.13 168.53 62.27C169.72 64.8 167.69 64.87 165.94 65.28C168.36 65.48 170.18 65.9799 170.5 68.9299C170.73 71.0699 170.74 73.7 173.41 74.8L173.8 74.9399V75.3501L173.82 75.3701Z" fill="#CD604B"/>
<path d="M223.85 186.63C220.36 189.12 218.91 186.8 217.88 183.97C217.12 181.89 218.71 181.88 220.11 181.87C221.36 183.46 222.61 185.04 223.85 186.63Z" fill="#A05348"/>
<path d="M247.33 212.41C251.08 215.86 254.04 219.91 256.38 224.41L256.1 224.63C251.86 223.21 246.89 216.59 247.1 212.63L247.32 212.41H247.33Z" fill="#110F0B"/>
<path d="M97.09 311.66C95.86 311.06 95.76 310.21 96.93 309.59C97.95 309.05 100.3 310.85 99.97 308.01C99.72 305.88 98.25 304.95 96.04 305.34C95.48 305.44 94.88 305.36 93.85 305.36C95.44 302.03 96.83 299.11 98.69 295.19C99.11 298.17 99.77 299.99 101.29 301.62C104.04 304.55 103.64 308.36 102.8 311.95C102.32 314.02 101.01 314.63 99.34 312.8C98.13 313.32 97.57 312.57 97.1 311.66H97.09Z" fill="#E99967"/>
<path d="M97.09 311.66C97.84 312.04 98.58 312.42 99.33 312.8C98.85 318.92 98.84 318.96 93.44 317.4C92.64 317.17 92.28 317.38 91.78 317.87C90.12 319.5 89.4 318.25 89.19 316.78C88.96 315.17 88.86 313.1 91.39 313.44C93.69 313.75 95.48 313.16 97.1 311.66H97.09Z" fill="#D28963"/>
<path d="M106.68 287.67C106.43 284.63 109.27 282.88 108.8 279.8C108.63 278.71 111.83 279.13 112.32 280.37C113 282.1 113.04 284.28 112.74 286.16C112.43 288.13 110.47 287.64 109.02 287.66C108.24 287.67 107.45 287.66 106.68 287.66V287.67Z" fill="#AE6A52"/>
<path d="M109.77 24.1799C109.58 23.3999 109.22 22.6101 109.25 21.8401C109.32 20.1901 106.84 18.0601 108.96 17.1201C111.96 15.7901 110.04 20.3099 112.14 20.6399C112.94 25.0499 114.01 29.3901 115.59 33.6001C113.86 29.4501 113.17 25.02 112.06 20.71C112.95 19.05 110.41 16.04 114.11 15.47C116.48 14.17 118.04 15.66 119.63 17.06C121.25 17.42 121.1 18.83 121.37 19.99C121.34 25.15 123.84 29.8299 124.19 34.9199C124.15 35.1599 124.11 35.3999 124.07 35.6399C123.49 37.6099 125.25 41.13 123.88 41.3C120.47 41.71 117.89 45.29 114.13 43.74C113.32 43.4 112.69 42.82 112.39 42.04C110.14 36.3 109.38 30.3299 109.79 24.1899L109.77 24.1799Z" fill="#8EB48D"/>
<path d="M132.12 11.74C132.78 10.0867 133.777 9.62677 135.11 10.3601C135.36 10.5001 135.54 10.77 135.75 10.99C135.86 10.56 136.05 10.1199 136.07 9.68993C136.11 8.55993 136.48 7.81002 137.76 7.78002C139.24 7.75002 138.82 9.13006 139.34 9.82006C140.56 11.4501 139 14.34 141.81 15.23C144.48 19.71 146.68 24.29 145.12 29.73C145.12 33.3433 144.08 35.01 142 34.73C138.98 28.36 137.49 21.6199 136.67 15.6999C136.8 21.6299 139.89 27.99 141.09 34.71C140.03 36.6233 138.66 36.2666 136.98 33.6399C134.57 32.8899 135.73 30.5301 134.89 29.0601C134.11 23.4901 131.72 18.21 131.95 12.47C132 12.23 132.06 11.99 132.12 11.75V11.74Z" fill="#93BB91"/>
<path d="M136.15 30C137.43 30.99 136.22 32.5399 136.99 33.6499C136.71 35.0899 138.27 37.23 135.78 37.81C133.67 38.31 134.41 36.0301 133.66 35.0901C132.37 36.2401 134.08 39.31 131.35 39.26C129.15 39.23 130.91 36.0899 129.04 35.4399C127.07 31.9399 125.02 28.4499 126.82 24.2099C126.06 21.3999 125.44 18.53 124.49 15.78C123.48 12.86 124.63 11.5799 127.38 11.1599C128.12 14.7599 128.98 18.35 129.52 21.55C129.69 18.22 127.07 14.62 128.2 10.75C129.8 9.94998 131.05 10.49 132.12 11.75L132.07 11.6499C133.21 17.8199 134.2 24.01 136.15 30Z" fill="#92B790"/>
<path d="M109.77 24.1799C112.06 30.5099 111.17 37.55 114.11 43.73C114.11 45.06 113.23 45.5701 112.11 45.8301C108.36 43.5101 109.24 39.72 108.69 36.79C107.71 38.84 109.85 41.06 109.82 43.51C109.81 44.51 111.33 45.49 109.83 46.51C109.28 46.61 108.72 46.7201 108.17 46.8201C105.05 47.6701 105.04 45.3099 104.76 43.4099C103.84 37.2199 103.23 30.9699 101.54 24.9099C101.13 23.6099 100.95 22.31 101.65 21.03C101.48 20.24 101.18 19.35 102.23 18.98C103.16 18.65 103.74 19.08 104 20.05C104.42 21.6 104.93 23.1401 105.44 24.8401C107.75 22.5901 103.77 20.0799 105.93 17.8799C108.44 19.2799 106.96 23.0599 109.77 24.1699V24.1799Z" fill="#90B492"/>
<path d="M64.28 36.8C64.24 36.14 64.14 35.48 64.16 34.83C64.23 33.18 61.73 30.81 63.96 30.11C66.78 29.22 66.66 32.7298 67.55 34.4398C69.47 38.1098 68.64 42.79 71.68 46.1C72.22 48.63 73.3 51.0599 73.12 53.7199C73.26 60.4799 68.05 57.22 65.02 58.05C63.6 56.5 63.52 54.6098 63.68 52.6698C66.05 49.6098 66.53 46.3099 64.47 42.9599C63.17 40.8499 63.33 38.89 64.28 36.8Z" fill="#89B991"/>
<path d="M64.11 52.6798C65.13 54.3398 65.25 56.1599 65.02 58.0399C64.65 58.9999 64.91 60.5399 63.36 60.4999C61.42 60.4499 62.5 57.91 61.05 57.34C60.91 56.14 60.76 54.9399 60.62 53.7399C58.67 51.0099 58.8 47.4698 57.09 44.6398L57.14 44.7199C55.57 41.4499 54.49 37.9798 53.09 34.6398L53.12 34.7199C54.13 31.6499 55.97 32.1498 57.65 33.9098C58.37 34.6698 58.55 35.9498 59.85 36.1998C63.19 41.1998 65.01 46.5898 64.11 52.6798Z" fill="#8AB890"/>
<path d="M126.82 24.1999C126.75 28.1099 129.36 31.4799 129.04 35.4299C129.04 36.0699 129.05 36.72 129.07 37.36C129.1 38.65 129.27 40.0699 127.56 40.4499C125.61 40.8799 125.69 39.14 125.26 38.06C124.93 37.2 125.17 36.0898 124.05 35.6298L124.13 35.7499C122.55 30.4599 121.37 25.0799 120.1 19.7099C119.94 18.8199 119.78 17.94 119.62 17.05C119.22 15.46 118.48 13.56 120.86 13.06C123.11 12.59 122.59 14.8699 123.27 16.0099C124.8 18.5999 123.47 22.4199 126.82 24.1999Z" fill="#8CB78D"/>
<path d="M74.69 39.0901C74.8 34.8601 71.38 31.0799 73.09 26.6399C75.1 26.6599 75.55 27.9199 76.11 29.6499C76.82 31.8099 76.09 34.6101 78.61 36.0701C81.55 37.9001 80.74 41.1 81.46 43.75C80.92 47.36 83.63 50.86 81.85 54.51C80.39 55.72 79.07 55.86 78 54.01C76.9 49.03 75.8 44.0601 74.7 39.0801L74.69 39.0901Z" fill="#8DBB94"/>
<path d="M150.17 5.90991C150.41 4.97991 149.51 2.46012 151.89 4.37012C152.85 5.14012 153.02 6.88002 153.59 8.27002C155.01 6.38002 152.96 4.77 153.41 2.5C156.1 3.41 155.6 5.67001 156.04 7.26001C157.62 13.02 157.21 19.24 160.09 24.7C160.13 26.01 160.58 27.5001 160.11 28.6001C159.44 30.1801 158.13 32.31 156.89 28.77C153.72 26.3 154.34 22.2801 152.99 19.0701C152.31 17.4401 151.79 15.71 151.27 14.01C150.9 11.32 149.21 8.79993 150.19 5.92993L150.17 5.90991Z" fill="#88AF93"/>
<path d="M101.65 21.0401C101.8 21.9401 101.95 22.84 102.1 23.74C103.84 29.86 104.49 36.19 105.51 42.44C105.78 44.12 106.09 46.03 105.12 47.72C102.69 47.47 103.77 44.57 102.11 43.74C99.64 40.55 98.2199 37.12 99.5999 33.02C98.9499 29.99 98.34 26.95 97.63 23.94C97.33 22.65 96.77 21.3601 98.06 20.3401C99.47 19.2201 100.43 20.8601 101.64 21.0401H101.65Z" fill="#8DB793"/>
<path d="M87.06 52.72C85.25 44.32 83.44 35.92 81.63 27.52C81.4 26.47 80.6 25.21 82.49 24.81C84.26 24.44 84.72 25.3599 85.01 26.9499C86.26 33.9399 87.63 40.9099 89 47.8799C89.25 49.1699 89.72 50.4199 90.08 51.6899C89.33 52.7999 88.23 52.89 87.05 52.72H87.06Z" fill="#8CB991"/>
<path d="M145.11 29.7299C144.01 24.8899 142.9 20.0599 141.8 15.2299C141.38 13.3199 140.96 11.3999 140.52 9.48988C140.3 8.54988 139.78 7.50992 140.77 6.77992C142.23 5.71992 142.28 8.21985 143.48 7.95985C144.51 7.97985 144.84 8.72993 145.09 9.53993C146.9 15.3999 148.01 21.44 149.59 27.37C149.89 28.5 150 29.6698 149.07 30.6498C148.86 31.9398 149.65 34.05 147.62 34.08C144.8 34.12 147.11 30.5599 145.11 29.7399V29.7299Z" fill="#95B593"/>
<path d="M80.05 43.31C79.57 40.9 79.09 38.48 78.61 36.07C78.15 33.64 77.62 31.2099 77.27 28.7499C77.13 27.7399 76.45 26.2599 78.25 25.9299C80.06 25.5899 79.89 27.1299 80.12 28.1899C81.76 35.6199 83.37 43.0599 85.04 50.4899C85.21 51.2599 85.7 51.9499 86.03 52.6799C85.14 53.2699 84.25 53.8499 83.36 54.4399C80.45 51.2699 81.53 46.9 80.04 43.3L80.05 43.31Z" fill="#8BBA92"/>
<path d="M149.08 30.6399C147.22 23.0799 145.35 15.5199 143.49 7.95994C143.29 7.18994 142.99 6.29988 143.93 5.88988C144.84 5.48988 145.45 6.20993 145.77 6.93993C146.63 8.89993 146.31 11.3399 148.18 12.8999C151.94 15.7399 151.43 19.7299 151.09 23.6699C150.64 25.5799 151.97 27.1699 152.05 28.9399C152.1 30.0599 154.1 31.2701 152.1 32.3301C150.33 33.2701 150.17 31.0699 149.09 30.6399H149.08Z" fill="#94BF97"/>
<path d="M151.08 23.6698C149.41 20.2698 150.2 16.1998 148.17 12.8998C148.43 11.0898 147.53 9.47992 147.3 7.76992C147.17 6.84992 145.76 5.73998 147.27 4.83998C148.61 4.03998 149.12 5.76981 150.17 5.90981C151.11 8.30981 152.31 10.65 152.02 13.36C153.47 18.45 155.05 23.5098 156.14 28.6998C155.78 29.6698 156.7 31.2999 155 31.5199C153.78 31.6799 153.65 30.2999 153.3 29.4699C152.49 27.5699 152.55 25.3298 151.08 23.6798V23.6698Z" fill="#91BC93"/>
<path d="M99.6 33.02C100.44 36.59 101.27 40.16 102.11 43.74C102.19 44.83 102.34 45.92 102.34 47.02C102.34 49.84 101.27 49.41 99.87 47.78C97.41 43.75 97.48 38.9899 96.07 34.6599L96.13 34.72C96.68 30.22 94.2401 25.93 94.7801 20.52C97.7201 24.87 96.19 29.89 99.6 33.03V33.02Z" fill="#89B28E"/>
<path d="M105.12 47.71C105.47 41.27 103.66 35.1199 102.5 28.8899C102.18 27.1699 101.24 25.54 102.1 23.74C105.49 29.82 105.03 36.67 105.97 43.23C106.21 44.87 105.79 46.6201 108.18 46.8301C107.36 47.8101 106.24 47.75 105.12 47.72V47.71Z" fill="#456645"/>
<path d="M141.09 34.71C138.31 27.85 136.21 20.8401 136.34 13.3501C137.83 20.5801 140.02 27.63 141.99 34.73L141.54 34.7H141.09V34.71Z" fill="#253E22"/>
<path d="M108.3 49C105.64 52.2733 102.667 53.3767 99.38 52.3101C101.73 50.2401 104.56 50.57 108.3 49Z" fill="#B5574A"/>
<path d="M156.14 28.6899C154.11 23.7499 152.4 18.7301 152.02 13.3601C154.91 18.0901 155.39 23.58 156.87 28.76C156.62 28.76 156.38 28.73 156.14 28.7V28.6899Z" fill="#243623"/>
<path d="M96.07 34.6499C98.59 38.6599 98.32 43.48 99.87 47.77C99.59 47.77 99.32 47.75 99.05 47.71C97.22 43.55 95.98 39.2499 96.07 34.6499Z" fill="#283E28"/>
<path d="M109.83 46.51C109.81 42.81 107.06 39.4301 108.41 35.3101C110.29 38.7701 109.04 43.0601 112.11 45.8301C111.5 46.5701 110.7 46.63 109.83 46.51Z" fill="#283E28"/>
<path d="M80.05 43.3101C82.36 46.6601 81.37 51 83.37 54.45C82.86 54.48 82.35 54.5 81.84 54.53C81.16 50.81 79.79 47.1901 80.05 43.3201V43.3101Z" fill="#2D4A2F"/>
<path d="M53.09 34.6399C55.36 37.6299 56.7 41 57.14 44.72C54.48 41.88 53.6 38.3299 53.09 34.6399Z" fill="#1A341E"/>
<path d="M57.09 44.6399C59.53 47.1799 59.57 50.66 60.62 53.74C57.91 51.3 57.56 47.9499 57.09 44.6399Z" fill="#183219"/>
<path d="M88.65 149.51C89.46 147.62 93.42 148.67 92.48 145.44C91.75 142.96 92.98 139.12 87.78 139.42C90 136.85 91.78 137.68 93.32 138.95C95.67 140.88 95.91 143.64 94.89 146.18C93.87 148.71 92 150.65 88.65 149.51Z" fill="#CE7E64"/>
<path d="M86.02 448.58C77.34 451.73 68.3 451.63 59.27 451.53C57.29 451.51 55.32 451.49 53.34 451.46C45.16 450.22 36.91 449.44 29.05 446.53C20.79 443.47 13.41 439.08 7.75002 432.27C1.61002 424.88 0.53003 416.45 3.70003 407.47C5.80003 401.51 7.58003 400.55 13.82 402.06C25 404.76 35.62 409.03 45.96 413.99C50.44 416.14 54.72 418.73 59.09 421.11C68.94 427.07 77.26 434.77 84.44 443.72C85.53 445.08 86.99 446.48 86.02 448.58Z" fill="#68916C"/>
<path d="M86.02 448.58C80.24 438.64 71.73 431.29 62.91 424.24C61.62 423.21 60.36 422.15 59.09 421.11C59.09 420.63 59.1 420.15 59.11 419.67C64.63 424.01 70.13 428.37 75.66 432.69C76.68 433.48 77.48 435.47 79.19 433.55C83 435.75 84.28 440.43 88.09 442.63C88.9 445.14 91.73 448.35 86.02 448.59V448.58Z" fill="#143C3F"/>
<path d="M128.2 10.74L130.23 22.9399C128.52 19.1399 127.42 15.2499 127.38 11.1599C127.6 10.9099 127.87 10.77 128.2 10.74Z" fill="#233C1F"/>
<path d="M92.54 38.76C89.9 36.17 90.09 32.83 90.07 29.54C92.08 32.29 91.71 35.69 92.54 38.76Z" fill="#1A331B"/>
<path d="M70.2 345.74C70.17 346.98 71.63 348.85 69.12 349.07C68.16 349.15 66.52 348.68 66.66 347.25C66.85 345.36 68.39 345.19 69.99 345.53L70.2 345.74Z" fill="#161614"/>
<path d="M69.99 345.54C69.8 344.46 69.6 343.37 69.36 342.04C70.79 342.6 73.01 341.55 73.11 344.06C73.19 345.93 71.49 345.72 70.19 345.75L69.98 345.54H69.99Z" fill="#161614"/>
<path d="M64.11 52.6799C62.69 47.1899 61.27 41.6899 59.85 36.1999C59.42 34.3799 58.1701 32.6598 59.0901 30.6498C63.8101 30.1698 61.61 35.55 64.29 36.79C63.13 40.69 67.15 43.0398 67.18 46.8898C67.2 49.8798 66.57 51.4899 64.12 52.6799H64.11Z" fill="#8EBA92"/>
<path d="M247.1 212.63C249.44 217.12 252.47 221.1 256.1 224.63C257.57 229.87 260.87 234.39 261.98 239.8C264.17 250.49 260.95 259.94 255.02 268.51C245.74 281.92 232.85 291.84 220.97 302.73C219.1 304.44 218.08 303.34 217.09 301.77C214.43 297.55 211.68 293.4 209.13 289.12C202.42 277.84 195.76 266.53 189.15 255.2C185.13 248.3 185.25 241.36 189 234.33C197.8 217.85 210.81 206.07 227.96 198.71C230.74 197.52 232.4 198.15 234.43 200.16C238.64 204.33 242.15 209.21 247.09 212.62L247.1 212.63Z" fill="#6B8F70"/>
<path d="M157.01 100.05C157.09 94.7301 160.23 91.37 165.09 91.42C171.11 91.48 179.23 96.8599 178.99 100.63C178.63 106.21 173.16 111.85 168.24 111.68C162.21 111.48 156.92 106 157.01 100.05Z" fill="#E47B4D"/>
<path d="M107.65 414.57C113.53 414.65 119.62 419.61 119.68 424.37C119.75 429.55 112.25 435.45 105.65 435.42C100.45 435.39 97.07 431.14 97.13 424.71C97.19 418.86 101.72 414.49 107.64 414.57H107.65Z" fill="#E08156"/>
<path d="M195.64 143.27C198.44 149.34 200.82 154.76 203.45 160.06C204.73 162.64 202.99 162.91 201.39 163.26C197.62 164.09 194.23 162.93 192.23 159.81C189.61 155.73 190.3 151.24 192.41 147.07C193.05 145.8 194.28 144.83 195.63 143.28L195.64 143.27Z" fill="#DE7953"/>
<path d="M184.9 333.54C183.25 335.62 183.81 337.24 185.23 338.91C185.76 339.53 187.54 339.47 186.64 340.93C186.26 341.55 185.38 342.26 184.74 342.24C183.69 342.21 183.3 341.09 182.87 340.18C181.08 336.46 181.94 333.17 184.21 329.93C186.72 326.34 190.33 327.41 193.71 327.38C194.44 327.38 195.17 327.91 194.95 328.56C194.65 329.43 193.91 330.81 193.34 330.83C190.74 330.89 189.71 331.26 191.01 334.23C191.76 335.93 189.79 337.48 188.25 337.7C185.39 338.12 187.12 334.64 184.9 333.54Z" fill="#DC7958"/>
<path d="M208.09 311.71C209.05 307.5 210.63 304.58 212.99 301.97C216.02 306.03 215.33 307.49 208.09 311.71Z" fill="#D36453"/>
<path d="M141.67 400.56C140.52 400.16 138.99 399.81 139.35 398.09C139.58 397.01 140.43 395.87 141.88 396.44C142.96 396.86 144.62 397.04 144.29 398.77C144.07 399.95 143.2 400.79 141.67 400.56Z" fill="#D9B296"/>
<path d="M151.47 389.92C149.41 392.233 147.27 393.257 145.05 392.99C146.36 390.8 148.48 390.75 151.47 389.92Z" fill="#934138"/>
<path d="M147.11 62.32C146.95 68.48 146.27 73.51 142.54 77.59C139.83 80.55 136.4 81.7098 132.63 80.6298C128.81 79.5298 127.52 76.22 127.02 72.58C126.04 65.4 128.19 59.1298 132.79 53.6898C134.86 51.2398 137.36 49.03 140.89 49.86C144.41 50.68 145.71 53.66 146.35 56.87C146.77 58.97 146.95 61.11 147.12 62.33L147.11 62.32Z" fill="#E38051"/>
<path d="M177.44 223.59C177.54 226.91 175.51 229.68 172.05 231.1C168.36 232.61 164.61 232.48 161.35 229.65C158.11 226.84 157.28 223.28 158.38 219.32C159.57 215.03 163 212.13 165.57 208.72C166.19 207.9 167.13 207.85 168.24 208.34C172.27 210.13 177.5 218.29 177.43 223.59H177.44Z" fill="#E48252"/>
<path d="M177.13 173.82C177.26 178.13 175.15 180.81 171.75 182.29C168.58 183.67 165.43 183.84 162.84 180.59C161.66 179.12 159.56 178.49 158.6 176.62C157.53 174.54 158.22 172.74 159.35 171.04C160.47 169.35 162.04 169.91 163.25 170.81C165.68 172.6 167.14 170.88 168.87 169.64C170.43 168.52 171.98 166.85 174.19 168.26C176.32 169.62 177.35 171.59 177.13 173.83V173.82Z" fill="#D87550"/>
<path d="M135.01 202.72C128.1 202.66 124.99 200.09 125.05 194.47C125.11 188.36 131.73 181.64 137.53 181.79C140.75 181.88 147.36 189.48 147.32 193.05C147.26 198.51 141.84 202.77 135.01 202.71V202.72Z" fill="#E78852"/>
<path d="M109.31 180.69C107.55 182 106.22 184.59 103.43 183.18C100.57 181.74 99.49 179.19 100.03 176.1C100.86 171.4 101.42 166.52 105.08 162.94C107.34 160.73 109.89 158.3 113.35 160.24C117.03 162.31 118.48 165.79 117.79 169.97C117.12 174.05 114.18 176.55 111.13 178.9C108.56 179.58 106.58 178.9 105.38 176.15C104.54 179.81 109.46 177.92 109.3 180.68L109.31 180.69Z" fill="#EA8E63"/>
<path d="M109.31 180.69C107.53 178.9 103.02 181.05 103.19 176.34C103.23 175.17 102.75 174.01 104.28 173.57C105.92 173.1 107.13 173.98 107.03 175.46C106.8 178.75 109.31 178.33 111.14 178.91C110.53 179.5 109.92 180.1 109.32 180.69H109.31Z" fill="#523222"/>
<path d="M155.89 329.57C161.84 329.63 167.1 334.95 166.97 340.78C166.82 347.23 160.94 353.76 155.37 353.67C150.16 353.59 146.09 348.27 146.07 341.52C146.05 334.26 149.95 329.51 155.89 329.57Z" fill="#E18453"/>
<path d="M158.45 307.24C158.48 311.5 153.8 314.82 147.47 314.95C143.46 315.04 141.89 312.56 141.71 308.99C141.46 304.01 145.93 299.38 150.94 299.25C155.34 299.13 158.42 302.41 158.45 307.24Z" fill="#E28356"/>
<path d="M194.93 192.74C191.83 190.64 192.66 188.21 193.66 185.98C194.75 183.57 196.67 182.26 200.36 182.92C197.84 186.12 190.65 186.41 194.93 192.74Z" fill="#B98975"/>
<path d="M197.5 187.31C198.27 189.42 201.17 188.02 201.03 190.65C200.99 191.41 200.03 192.38 199.43 192.03C198.15 191.29 196.38 190.56 197.51 187.31H197.5Z" fill="#A7705A"/>
<path d="M99.01 75.1999C99.07 80.0199 95.17 84.92 91.76 84.61C87.54 84.22 85.95 81.2398 85.8 77.3798C85.63 73.0898 88.71 69.52 92.5 69.78C96.2 70.03 98.62 71.9699 99.01 75.1999Z" fill="#DE815C"/>
<path d="M75.3401 106.04C78.2501 104.51 80.33 110.63 82.74 106.27C83.77 104.41 82.8201 102.62 81.0301 101.65C78.5601 100.31 76 99.3901 74.51 103.34C74.37 100.41 74.96 97.8299 78.01 97.8899C81.53 97.9599 84.25 100.03 85.61 103.42C86.5 105.63 86.34 108.11 84.18 109.16C80.7 110.85 77.86 109.14 75.35 106.04H75.3401Z" fill="#C88768"/>
<path d="M186.84 289.6C182.96 289.67 179.98 286.45 180.06 282.07C180.13 278.17 182.19 275.9 186.12 275.66C189.93 275.42 193.96 279.19 194.11 282.96C194.24 286.24 190.63 289.53 186.83 289.6H186.84Z" fill="#E5754B"/>
<path d="M139.93 153.71C135.89 153.65 133.84 151.45 133.75 147.54C133.66 143.72 136.66 140.56 140.06 140.6C143.77 140.65 147.97 144.27 148.06 147.5C148.16 151.08 144.7 153.73 139.94 153.71H139.93Z" fill="#C58362"/>
<path d="M116.24 99.4799C113.68 99.1799 111.93 97.81 111.29 95.32C110.72 93.09 111.9 91.51 113.67 90.33C114.34 89.88 115.15 89.3898 115.88 90.1598C116.68 90.9998 116.02 91.6599 115.39 92.1899C113.93 93.4399 113.43 94.8999 114.67 96.4899C116.12 98.3499 117.21 96.7398 118.35 95.9098C118.88 95.5198 119.46 95.1 120.03 95.79C120.59 96.46 120.84 97.27 120.24 98.04C119.23 99.35 117.81 99.6299 116.24 99.4699V99.4799Z" fill="#BE7760"/>
<path d="M162.73 283.49C160.09 285.01 158.41 284.34 157.99 281.54C157.7 279.59 157.93 277.56 158.03 275.57C158.11 274.04 158.49 272.42 160.13 271.94C161.88 271.43 162.44 273.06 162.78 274.25C163.26 275.96 163.88 277.98 162.21 279.36C159.26 281.8 159.19 281.72 162.73 283.49Z" fill="#AD684E"/>
<path d="M184.58 300.53C188.49 299.96 189.58 303.19 189.89 306.34C190.23 309.79 187.6 311.49 184.52 311.48C181.25 311.48 178.6 309.63 178.6 306.11C178.6 302.89 180.16 300.36 184.58 300.53Z" fill="#D96E4F"/>
<path d="M172.61 137.85C169.76 137.51 167.69 136.74 168.21 133.96C168.66 131.55 170.77 131.06 172.88 131.76C175.52 132.63 177.01 134.34 176.54 138.5C173.54 132.84 173.36 132.76 169.57 134.63C169.89 136.29 172.37 135.66 172.62 137.86L172.61 137.85Z" fill="#AC765C"/>
<path d="M190.01 210.3C191.13 210.24 192.01 210.39 192.71 210.11C193.77 209.67 194.3 210.19 194.67 210.92C195.13 211.83 194.64 212.65 193.78 212.84C191.02 213.45 189.75 212.34 190.01 210.3Z" fill="#99674B"/>
<path d="M102.14 117.56C101.98 118.56 101.28 118.9 100.41 118.72C99.07 118.43 97.9 117.8 98.11 116.16C98.27 114.87 99.23 115.47 99.96 115.56C101.17 115.71 102.21 116.02 102.14 117.56Z" fill="#764738"/>
<path d="M125.9 380.01C122.07 382.69 118.59 383.65 115.36 380.86C111.69 377.7 112.11 373.22 113.55 369.32C115.58 363.83 120.4 360.99 125.75 359.34C128.72 358.43 131.26 359.85 133.15 362.25C135.07 364.67 135.41 367.26 134.14 370.15C131.55 376.02 126.91 378.26 120.79 376.44C120.18 376.26 119.53 375.79 119.15 376.68C118.7 377.74 119.05 378.62 119.98 379.25C121.64 380.38 123.57 379.17 125.9 380V380.01Z" fill="#E17E57"/>
<path d="M105.17 336.56C107.45 332.27 111.4 330.39 115.82 329.18C118.25 328.52 120.53 328.82 122.2 330.77C123.9 332.74 123.6 335.16 122.78 337.39C122.03 339.43 120.68 341.2 118.95 342.53C115.42 345.26 111.84 347.94 108.19 350.5C106.67 351.56 104.79 351.79 102.93 351.63C100.25 351.4 99.94 349.49 99.89 347.35C99.83 344.88 101.47 345.4 102.96 345.5C103.93 345.56 104.96 345.62 105.79 344.46C104.14 343.24 100.87 345.61 100.44 342.76C99.95 339.49 102.85 338.01 105.25 336.51C105.8 337.47 105.33 338.44 105.25 339.47C105.55 338.45 105.83 337.49 105.17 336.57V336.56Z" fill="#DE8159"/>
<path d="M68.42 380.62C67.56 378.26 67.13 376.19 68.67 374C72.69 375.98 73.85 379.24 72.79 383.36C72.43 384.75 71.63 386.27 70.02 386.67C68.24 387.12 67.93 385.46 67.27 384.37C66.41 382.96 65.19 381.89 63.63 383.01C62.39 383.91 62.62 385.35 63.63 386.52C64.41 387.42 67.17 387.4 65.2 389.58C63.91 391 62.27 391.74 60.25 390.98C57.02 389.77 54.32 388 52.97 384.64C51.02 379.81 52.51 375.51 55.16 371.52C56.21 369.94 58.05 369.3 60.03 369.64C62.2 370.01 62.67 371.67 63.32 373.5C64.25 376.12 62.79 380.43 68.4 380.61L68.42 380.62Z" fill="#E7825A"/>
<path d="M115.92 250.96C118.42 247.04 121.42 246.46 124.85 248.7C127.96 250.73 129.05 255.42 127.28 257.89C125.53 260.35 120.4 261.06 117.72 259.15C116.43 258.23 115.55 257.04 116.03 255.34C116.32 254.34 117.2 254.35 118.05 254.36C119.92 254.37 120.77 255 120.21 257.09C119.88 258.34 121.07 259.21 121.89 258.3C123.12 256.92 126.56 257 125.25 253.77C123.6 249.68 120.99 248.81 115.9 250.96H115.92Z" fill="#C1815F"/>
<path d="M137.22 228.79C137.18 231.52 134.68 233.01 131.46 233.37C127.71 233.79 124.4 230.37 124.54 226.48C124.67 223.15 126.42 221.22 129.84 221.12C133.75 221.01 137.17 224.13 137.21 228.8L137.22 228.79Z" fill="#E4946B"/>
<path d="M159.56 255.17C158.56 253.15 157.76 251.35 156.79 249.64C156.24 248.67 155.92 247.79 157 247.14C158.02 246.52 159.17 247.22 159.54 247.94C160.66 250.11 161.46 252.43 159.57 255.17H159.56Z" fill="#C07258"/>
<path d="M150.36 246.93C150.94 249.83 153.96 252.02 152.65 256.12C149.74 253.25 147.98 250.69 150.36 246.93Z" fill="#B57058"/>
<path d="M120.71 399.52C120.31 401.62 119.03 403.2 116.86 403.21C115.02 403.21 114.06 401.58 114.03 399.8C113.99 397.61 115.47 396.51 117.46 396.39C119.43 396.27 120.32 397.66 120.7 399.52H120.71Z" fill="#C78763"/>
<path d="M82.63 408.27C84.87 410.83 84.26 412.74 82.58 414.33C81.07 415.76 79.24 415.61 77.55 414.41C76.18 413.44 75.61 412.13 76.12 410.5C76.37 409.7 76.92 409.02 77.84 408.94C78.7 408.86 79.16 409.62 78.9 410.2C78.2 411.8 77.93 413.43 80.06 413.59C82.74 413.8 81.82 411.42 82.06 409.94C82.11 409.62 82.26 409.32 82.62 408.27H82.63Z" fill="#B8886F"/>
<path d="M139.6 275.69C141.53 275.55 142.69 276.19 143.34 277.82C143.83 279.05 143.59 280.21 142.85 281.1C141.54 282.66 140.55 281.14 139.5 280.51C139.22 280.34 138.77 280.22 138.68 279.98C138.06 278.25 134.91 282.39 135.42 278.65C135.73 276.36 137.53 275.41 139.61 275.69H139.6Z" fill="#E8B682"/>
<path d="M27.96 390.53C27.89 391.83 27.16 392.18 26.33 392.14C24.66 392.07 23.56 391.16 23.42 389.46C23.35 388.6 24.05 387.6 24.81 387.98C26.04 388.59 27.02 389.73 27.97 390.54L27.96 390.53Z" fill="#BF836E"/>
<path d="M92.88 382.18C92.6 383.36 91.85 383.9 90.71 383.79C89.29 383.65 88.74 382.62 88.66 381.39C88.59 380.28 89.14 379.38 90.39 379.53C91.9 379.7 92.58 380.83 92.88 382.19V382.18Z" fill="#201410"/>
<path d="M127.02 308.33C127.02 309.69 126.55 310.46 125.69 310.51C124.29 310.59 123.72 309.49 123.59 308.31C123.49 307.45 124.07 306.68 124.94 306.6C126.41 306.47 126.68 307.71 127.02 308.34V308.33Z" fill="#915E47"/>
<path d="M153.3 371.09C154.47 371.08 155.12 371.71 155.15 372.83C155.19 374.1 154.68 375.14 153.21 374.97C152.31 374.86 151.21 374.6 151.15 373.32C151.08 371.86 152.16 371.45 153.29 371.09H153.3Z" fill="#6B4A3F"/>
<path d="M169.11 71.49C169.02 72.49 168.54 73.37 167.72 73.27C166.43 73.11 166.1 71.92 166.03 70.75C165.99 69.97 165.88 68.8799 166.92 68.8799C168.56 68.8799 168.51 70.57 169.11 71.5V71.49Z" fill="#2C0A03"/>
<path d="M116.92 19.0701C118.04 23.9101 119.16 28.7501 120.28 33.5901C117.7 29.0801 116.44 24.2701 116.92 19.0701Z" fill="#355332"/>
<path d="M120.1 19.71C122.14 24.88 123.47 30.23 124.13 35.75C121.49 30.73 120.72 25.24 120.1 19.71Z" fill="#0F0F07"/>
<path d="M112.06 20.7C114.37 25.22 114.78 30.2401 115.86 35.0801C114.1 30.4001 111.7 25.8799 112.15 20.6399L112.07 20.71L112.06 20.7Z" fill="#1F361C"/>
<path d="M136.15 30C133.24 24.23 132.14 18.0499 132.07 11.6499C134.34 17.5599 135.16 23.8 136.15 30Z" fill="#273F24"/>
<path d="M165 102.62C165.09 103.78 164.64 104.53 163.66 104.38C162.54 104.21 161.34 103.78 161.16 102.37C161.03 101.36 161.69 100.77 162.59 100.77C163.87 100.77 164.72 101.51 165 102.62Z" fill="#552E16"/>
<path d="M168.99 96.6C168.79 97.78 167.82 98.0698 166.85 98.1398C165.98 98.1998 165.2 97.6799 165.23 96.7599C165.27 95.3499 166.39 94.8398 167.57 94.9098C168.35 94.9598 169.02 95.58 168.98 96.61L168.99 96.6Z" fill="#4C311A"/>
<path d="M104.01 420.42C107.29 418.19 110.21 417.57 112.9 420.65C113.94 421.84 114.18 423.51 112.69 424.59C111.34 425.57 109.91 424.95 109.59 423.44C108.91 420.17 105.7 422.69 104.02 420.42H104.01Z" fill="#26160F"/>
<path d="M111.25 428.76C111.15 429.9 110.43 430.48 109.35 430.62C108.4 430.75 107.64 430.18 107.51 429.36C107.33 428.28 108.05 427.43 109.1 427.23C110.18 427.02 110.97 427.59 111.25 428.76Z" fill="#2F180C"/>
<path d="M199.11 159.1C195.46 160.45 193.58 159.21 192.96 154.43C195.16 156.87 196.49 158.93 199.11 159.1Z" fill="#461609"/>
<path d="M139.65 55.6101C140.71 55.6501 141.73 56.02 141.47 57.22C141.19 58.5 139.96 58.7399 138.76 58.6799C137.85 58.6399 137.09 58.13 137.16 57.25C137.26 55.81 138.48 55.6501 139.65 55.6101Z" fill="#432613"/>
<path d="M138.35 69.6899C137.22 69.7299 136.41 69.18 136.44 68.07C136.46 67.27 137.11 66.58 138.02 66.52C139.15 66.44 139.89 67.0999 139.91 68.1899C139.93 69.0599 139.29 69.6199 138.35 69.6899Z" fill="#271304"/>
<path d="M164.08 221.04C165.22 221.31 166.44 221.69 166.2 223.13C166.03 224.16 165.03 224.68 163.97 224.46C163.02 224.26 162.06 223.81 162.09 222.63C162.11 221.4 163.04 221.11 164.09 221.04H164.08Z" fill="#44250E"/>
<path d="M165.16 216.46C165.17 215.48 165.74 214.89 166.61 214.75C167.74 214.57 168.56 215.18 168.81 216.26C169.05 217.31 168.22 217.75 167.39 217.85C166.35 217.98 165.42 217.7 165.16 216.46Z" fill="#36200E"/>
<path d="M168.27 221.61C169.46 221.68 170.13 222.52 170.21 223.79C170.26 224.61 170.01 225.63 168.98 225.45C167.73 225.23 167.42 223.89 167.03 222.88C166.79 222.25 167.29 221.68 168.27 221.6V221.61Z" fill="#321405"/>
<path d="M167.41 178.39C170.07 176.07 167.76 174.63 166.43 172.9C169.14 172.09 170.15 173.87 170.66 175.47C171.27 177.39 169.39 177.81 167.41 178.39Z" fill="#0F110A"/>
<path d="M164.04 174.93C163.95 175.89 163.67 177.02 162.88 176.98C161.27 176.91 161.2 175.3 160.82 174.12C160.47 173.04 161.08 172.51 162.04 172.67C163.26 172.88 164.04 173.68 164.05 174.92L164.04 174.93Z" fill="#321508"/>
<path d="M132.28 188.5C133.51 186.29 135.28 186.47 137.05 187.09C137.72 187.32 137.83 188.22 137.41 188.76C135.53 191.19 134.09 187.94 132.28 188.5Z" fill="#64391C"/>
<path d="M138.05 196.91C138.18 198.21 137.51 198.77 136.36 198.79C135.21 198.81 134.49 198.11 134.4 197.06C134.31 195.97 135.01 195.15 136.12 195.14C137.2 195.13 137.84 195.89 138.05 196.92V196.91Z" fill="#3C1F07"/>
<path d="M112.51 167.79C111.04 167.58 110.81 166.51 110.94 165.33C111 164.77 111.03 163.92 111.88 163.92C113.42 163.91 113.41 165.34 113.77 166.28C114.15 167.26 113.41 167.68 112.51 167.8V167.79Z" fill="#221806"/>
<path d="M111.06 171.56C112.11 171.85 112.74 172.29 112.52 173.33C112.28 174.44 111.48 175.14 110.42 175.06C109.61 175 108.91 174.34 109.11 173.31C109.33 172.17 110.17 171.75 111.05 171.56H111.06Z" fill="#311C0B"/>
<path d="M155.85 338.74C156.64 338.89 157.01 339.46 156.95 340.16C156.87 341.25 156.23 342.09 155.14 342.24C154.18 342.36 153.51 341.79 153.82 340.74C154.12 339.77 154.79 339.02 155.84 338.74H155.85Z" fill="#512B14"/>
<path d="M152.76 310.07C151.96 308.2 151.29 306.81 152.63 305.38C153.1 304.88 153.87 304.93 154.24 305.64C155.12 307.34 154.45 308.58 152.75 310.07H152.76Z" fill="#411204"/>
<path d="M95.5 73.8998C94.55 75.7698 95.71 78.1799 92.95 77.9499C91.49 77.8299 90.84 77.0599 91.07 75.6799C91.33 74.0899 92.23 72.8799 93.91 72.7299C95.13 72.6199 95.56 73.4498 95.49 73.8998H95.5Z" fill="#332011"/>
<path d="M93.83 81.3602C93.61 82.3102 92.96 82.7601 92.05 82.7001C90.6 82.6001 89.49 81.9602 89.47 80.3302C89.47 79.6002 90.17 78.9901 90.77 79.1901C91.97 79.5801 93.42 79.8102 93.83 81.3702V81.3602Z" fill="#411D0F"/>
<path d="M189.19 282.8C189.18 284.03 188.41 284.48 187.33 284.51C186.28 284.53 185.29 284.13 185.31 282.98C185.33 281.81 185.91 280.73 187.38 280.89C188.43 281.01 189.1 281.67 189.2 282.8H189.19Z" fill="#4F2C17"/>
<path d="M143.09 150.65C140.36 152.72 138.3 151.57 137.23 148.93C136.34 146.72 136.31 143.98 139.1 142.98C142.08 141.9 143.94 143.32 145.18 146.38C146.27 149.09 146.15 150.44 143.03 150.71C142.34 149.89 142.37 148.76 141.96 147.47C141.11 149.32 142.83 149.66 143.09 150.66V150.65Z" fill="#2B1E13"/>
<path d="M125.01 361.81C126.74 362.13 127.82 363.23 127.97 365.12C128.08 366.5 127.05 366.72 126 366.73C124.23 366.74 123.16 365.67 122.86 364.09C122.61 362.75 123.43 361.92 125.01 361.81Z" fill="#23120A"/>
<path d="M120.3 367.68C123.33 369.28 123.4 371.07 122.11 373.15C121.69 373.83 120.82 374.68 120.18 374.03C118.11 371.93 120.92 370.17 120.3 367.68Z" fill="#411D0E"/>
<path d="M127.04 368.78C128.42 368.91 129.01 369.8 129.05 371.11C129.09 372.36 128.84 373.54 127.29 373.57C125.86 373.6 125.27 372.55 125.14 371.3C125.01 369.98 125.62 369.08 127.03 368.79L127.04 368.78Z" fill="#1C150D"/>
<path d="M116.64 373.99C115.55 373.83 114.84 373.3 114.94 372.1C115.01 371.17 115.6 370.56 116.48 370.56C117.63 370.56 118.17 371.32 118.16 372.45C118.16 373.46 117.5 373.82 116.64 374V373.99Z" fill="#190500"/>
<path d="M112.98 333.7C114.59 333.67 116.2 333.43 116.08 335.8C115.97 337.92 114.67 338.62 112.81 338.76C110.9 338.91 109.33 338.32 109.48 336.17C109.62 334.16 111.17 333.49 112.98 333.69V333.7Z" fill="#251C0F"/>
<path d="M112.48 341.5C114 341.55 114.24 342.4 113.77 343.49C113.23 344.76 113.08 346.63 111.02 346.31C109.79 346.12 108.95 345.17 109.23 343.83C109.59 342.09 111.09 341.75 112.48 341.5Z" fill="#2A1915"/>
<path d="M105.17 336.56C105 338.42 108.33 339.84 106.4 341.54C104.59 343.13 102.76 342.58 104.04 339.62C104.49 338.59 105.2 337.68 105.24 336.49L105.16 336.55L105.17 336.56Z" fill="#0B100C"/>
<path d="M62.08 379.59C61.54 381.78 60.04 382.82 57.79 382.72C55.5 382.62 53.84 381.53 54.14 379.07C54.45 376.59 56.84 376.23 58.7 376.09C60.73 375.93 62.0001 377.3 62.0901 379.58L62.08 379.59Z" fill="#211712"/>
<path d="M135.11 227.4C135.01 229.32 134.06 230.5 132.11 230.62C130.01 230.75 128.49 229.66 128.24 227.64C127.94 225.21 129.88 224.69 131.79 224.58C133.71 224.47 134.89 225.4 135.11 227.4Z" fill="#24180F"/>
<path d="M143.09 150.65C141.95 149.61 139.56 150.54 139.2 148.38C138.84 146.24 141.23 148.06 141.5 146.98C141.91 145.3 142.5 145.5 142.85 146.85C143.17 148.07 142.99 149.41 143.03 150.7L143.09 150.65Z" fill="#B07C69"/>
</svg>
