<svg width="283" height="455" viewBox="0 0 283 455" fill="none" xmlns="http://www.w3.org/2000/svg">
<path d="M264.09 308.58C263.76 309.45 263.26 310.16 262.33 310.48C257.56 314.61 256.12 308.67 253 307.12C251.87 309.53 250.86 311.74 250.11 314.07C249.45 315.68 248.18 316.23 247.15 314.79C245.3 312.21 243.24 312.63 240.63 313.3C238.06 313.96 235.3 313.85 233.89 310.79C234.96 308.85 236.84 310 238.92 309.75C233.84 303.84 227.77 300.31 221.19 297.48C219.65 296.82 218.65 296.97 218.21 298.74C217.89 300.05 216.42 301.34 218.52 302.57C221.7 304.42 224.97 306.04 228.53 307.04C230.42 307.57 232.53 307.76 233.65 309.76C232.17 314.94 232.99 320.49 231.04 325.59C228.97 326.46 227.39 324.59 225.14 324.53C225.31 327.97 225.67 331.8 220.28 330.86C217.4 331.02 217.66 329.2 217.9 327.24C218.03 326.2 217.59 325.18 216.42 325.02C215.31 324.87 215.18 325.89 215.05 326.68C214.7 328.77 213.28 329.87 211.42 330.29C208.47 330.96 207.48 332.82 207.38 335.65C207.27 338.61 206.85 341.56 205.54 344.3C203.75 345.27 203.13 343.71 202.57 342.7C200.97 339.78 198.16 337.83 196.59 334.9C196.24 334.25 195.95 333.23 194.84 333.64C193.99 333.96 193.69 334.77 193.56 335.6C193.28 337.39 193.11 339.18 192.98 340.98C193.19 345.34 197.02 347.08 199.41 349.87C197.08 352.71 194.76 351.5 192.6 349.72C191.04 348.44 190.16 346.59 189.18 344.86C187.88 342.58 186.41 341.46 184.27 344.03C183.74 344.67 183 345.26 182.17 345.29C176.93 345.45 175.7 348.89 175.55 353.25C173.88 354.33 173.1 353 172.47 351.93C170.44 348.48 169.54 350.74 168.77 352.68C167.95 354.72 169.03 357.42 166.6 358.91C167.22 359.18 168.06 358.92 168.46 359.71C172.62 365.62 176.44 367.11 183.01 365.37C185.36 367.43 185.65 367.77 183.44 370.64C179.99 375.12 179.94 380.05 180.56 385.22C180.21 388.69 177.48 390.49 175.29 392.66C172.9 393.28 170.72 392.26 168.51 391.71C165.01 390.84 163.01 391.75 162.99 395.66C162.99 396.95 163.03 398.4 161.32 398.87C158.02 396.58 156.75 399.59 155.25 401.39C153.28 403.74 155.67 404.8 157.01 406.14C157.75 406.88 159.19 407.49 157.84 408.89C154.93 409.71 152.41 408.87 150.87 406.4C149.37 403.99 149.57 401.19 151.16 398.81C152.91 396.19 154.45 393.41 156.65 391.08C160.81 386.67 159.69 382.51 153.94 380.73C153.15 380.49 152.31 380.38 151.58 379.97C152.6 375.95 150.26 373.8 147.24 371.88C144.46 370.11 142.07 367.8 139.46 365.79C137.49 364.28 135.98 363.7 135.27 366.85C135.01 367.99 134.49 369.02 133.83 369.98C132.03 372.61 133.27 374.09 135.65 375.47C138.18 376.94 141.57 376.61 143.47 379.32C142.85 382.05 140.32 383.73 139.54 386.38C137.41 387.36 135.98 385.64 134.32 384.94C132.94 384.36 131.88 384.04 131.59 386C130.34 394.47 134.38 397.68 143.31 395.28C144.14 394.85 144.82 394.08 145.87 394.15C149.1 396.26 147.71 397.85 145.17 399.01C142.86 400.06 140.3 399.65 137.84 399.74C135.93 399.81 133.96 399.49 132.11 400.23C132.74 403.32 137.23 404.77 134.98 408.57C131.42 408.39 130.47 405.06 128.2 403C126.68 402.86 127.28 404.96 126.22 405.25C120.32 406.86 124.45 408.7 126.32 409.7C129.91 411.63 133.56 414.02 138.03 412.35C139.79 412.16 139.98 413.32 139.72 414.55C139.44 415.87 138.26 416.26 137.08 416.45C133.12 417.08 129.66 415.14 125.98 414.28C124.1 413.84 121.96 411.92 120.27 414.72C118.86 415.76 117.01 415.32 115.58 416C112.24 417.6 110.42 420.3 110.71 424.17C109.89 425.6 108.57 426.59 107.49 427.78C105.27 428.93 104.41 431.65 101.98 432.59C101.05 432.95 100.94 433.83 101.41 434.64C102.58 436.65 103.73 438.73 106.64 438.26C109.51 438.1 112.42 437.5 115.14 439C115.71 439.61 115.85 440.33 115.64 441.12C114.35 442.93 112.41 442.45 110.63 442.52C109.65 442.56 108.44 442.45 108.46 443.88C108.47 444.82 109.39 445.15 110.18 445.43C112.25 446.17 114.48 445.9 116.57 446.46C117.55 446.72 118.48 447.14 118.36 448.45C111.17 452.72 104.67 450.28 98.2999 446.44C94.1599 445.23 91.3698 442.01 88.1498 439.47C77.7198 431.28 66.26 424.59 55.6 416.74C54.45 415.89 52.9299 415.24 53.0399 413.39C54.5599 411.65 56.81 413.03 58.61 412.36C55.82 404.32 54.71 404.11 46.11 409.76C41.65 409.31 38.1598 406.62 34.3998 404.6C32.6998 403.69 32.5598 402.26 34.3798 401.17C40.1898 397.68 45.5599 393.48 51.7199 390.59C55.0599 389.87 57.56 387.72 60.1 385.63C62.56 383.6 64.8099 383.34 66.5199 386.58C66.7199 387.01 66.8498 387.47 66.9098 387.94C65.7898 390.48 67.0198 393.26 66.1498 395.83C64.0998 397.02 61.64 396.76 58.57 397.89C62.04 400.9 65.5398 401.26 69.3998 401.14C68.9098 399.19 66.6899 398.43 66.7999 396.41C66.8599 391.91 69.6699 391.12 73.4799 391.08C79.2799 391.02 79.27 390.87 76.33 385.99C74.29 382.61 76.6498 381.55 79.2098 380.7C84.7298 378.87 84.7398 378.9 81.6698 374.34C78.3298 369.37 78.6398 369.21 84.1298 366.96C89.3798 364.82 84.73 362.69 83.6 360.63C81.58 358.89 83.7998 357.74 84.1898 356.34L84.1298 356.41C88.1198 351.19 90.45 345.05 93.59 339.35C95.33 335.98 94.6798 331.56 98.1698 328.98C98.8798 327.76 98.5398 325.58 100.45 325.49C102.36 325.4 101.83 327.39 102.17 328.54C102.78 330.58 104.5 330.73 106.14 330.94C108.33 331.23 110.43 330.62 113.17 329.79C110.25 328.39 107.93 326.97 105.41 325.9C102.016 324.453 100.953 321.933 102.22 318.34L102.14 318.46C103.49 315.36 104.62 311.97 109.27 313.19C107.96 312.03 104.03 314.76 105.19 310.29C105.51 309.49 105.84 308.68 106.16 307.88C107.2 304.02 108.47 300.23 109.67 296.42C110.14 294.28 110.09 291.98 111.7 290.21C112.19 290.23 112.63 290.4 113.02 290.72C117.96 295.89 127.01 296.45 132.49 292.25C126.49 289.11 120.51 286.04 113.55 285.89C112.67 285.87 111.92 285.67 111.77 284.62C113.31 281.83 111.24 277.02 117.68 276.66C114.31 274.47 113.68 272.22 113.68 269.4C113.66 260.83 114.21 252.24 113.34 243.69C113.45 242.1 114.58 241.1 115.47 239.95C119.57 234.67 117.79 229.54 111.13 227.39C109.18 216.68 105.85 206.36 102.3 196.11C102.03 195.32 101.69 194.58 101.84 193.72C105.05 191.8 108.77 190.96 111.91 188.88C112.42 188.86 112.9 188.98 113.35 189.23C114.85 191.71 116.83 191.22 118.94 190.16C121.78 188.74 124.89 187.6 124.91 183.62C124.93 180.61 125.13 177.64 126.33 174.81C127.84 171.24 130.24 168.64 134.05 167.57C140.61 165.72 145.14 169.3 145.39 176.5C143.56 177.28 142.29 175.82 140.79 175.33C137.71 174.33 135.09 174.68 132.71 177.18C130.77 179.21 130.03 181.39 131.07 183.9C132.25 186.73 134.09 188.96 137.57 189.19C139.29 189.3 141.3 188.86 142.42 190.85C142.27 191.34 142.02 191.97 141.58 192C135.12 192.49 135.36 197.02 135.54 201.68C135.64 204.35 136.13 206.95 136.35 209.59C136.73 214.17 137.52 214.79 142.24 214.18C153.16 212.75 157.15 216.48 156.84 227.81C155.39 229.75 154.57 228.04 153.86 227.15C151.56 224.29 149.51 221.2 145 222.59C140.58 223.95 138.98 227.33 138.32 231.47C138.19 232.3 137.9 233.06 137.23 233.63C133.87 232.52 134.59 229 133.2 226.72C132.27 225.18 131.86 223.34 131.23 221.65C124.27 224.68 122.28 230.42 122.53 237.42C122.64 240.45 124.08 242.13 127.14 242.1C130.67 242.06 134.08 242.91 137.55 243.26C139.7 243.48 141.82 244.34 142.02 246.56C142.4 250.86 147.55 254.02 144.76 259.11C144.03 260.45 145.79 260.88 146.96 261.02C150.74 261.47 153.95 258.26 153.62 254.17C153.42 251.69 152.74 249.27 153.43 246.75C155.4 239.56 167.05 234.9 173.63 238.75C175.64 239.92 177.55 241.27 179.58 242.41C181.62 243.55 183.37 243.33 184.86 241.43C186.45 239.41 186.01 237.8 184.04 236.36C183.36 235.86 182.82 235.22 183.15 234.25C184.03 233.42 185.17 233.3 186.29 233.1C189.78 232.47 191.66 230.4 191.88 226.84C191.97 225.39 191.92 223.91 192.71 222.6C195.19 220.48 197.91 221.05 199.92 222.88C204.13 226.72 209.21 229.75 211.48 235.54C212.73 238.73 215.25 238.62 217.55 235.85C220.95 231.77 220.34 227.53 218.23 223.18C220.95 221.83 223.98 221.72 226.84 220.96C234.97 223.39 240.13 220.91 246.05 211.78C246.91 210.45 247.06 208.48 249.14 208.18C253.68 212.33 248.8 214.64 247.32 217.62C245.42 220.25 243.26 222.65 240.91 224.89C238.82 226.87 236.79 228.93 234.78 230.99C232.84 232.78 231.14 234.84 228.9 236.3C227.58 237.12 226.51 238.25 225.37 239.28C222.13 241.85 218.69 244.12 215.12 246.19C212.12 247.62 209.08 248.99 206.06 250.37C204.53 251.07 202.88 251.75 203.19 253.91C203.48 255.89 205 256.5 206.7 256.95C211.5 258.23 216.69 257.86 221.22 260.32C222.98 261.08 224.32 262.39 225.66 263.7C227.52 265.67 229.38 267.65 231.76 269.03C238.23 274.77 245.59 279.22 252.86 283.81C255 292.01 261.85 292.39 268.45 293.21C271.17 293.55 273.99 293.81 270.99 297.51C270.41 298.4 269.82 299.3 269.24 300.19C267.71 303.09 264.72 305.08 264.12 308.54L264.09 308.58Z" fill="#EFC3AB"/>
<path d="M183.18 234.45C188.84 237.59 189.05 238.71 185.32 243.19C183.63 245.22 181.94 245.66 179.74 244.22C178.63 243.49 177.3 242.98 176.42 242.04C171.06 236.33 165.14 239.13 159.4 240.95C155.46 242.2 153.51 247.24 154.6 252.26C156.1 259.13 152.29 263.38 145.48 262.44C142.33 262.01 141.12 260.45 143.44 257.84C145.26 255.8 145.17 254.49 142.91 253.11C142.55 252.89 142.22 252.29 142.2 251.86C141.81 242.3 134.26 244.04 128.57 243.58C121.8 243.03 121.48 242.72 121.09 236.04C120.61 227.7 125.38 223.1 131.67 219.43C133.44 224.02 135.27 228.75 137.1 233.48C139.37 234.01 140.1 236.45 142.09 237.42C146.32 239.49 151.05 238.01 153.73 233.88C154.84 232.18 154.57 229.94 156.15 228.51C155.81 226.39 155.54 224.26 155.12 222.16C153.77 215.47 150.9 213.72 144.16 215.28C142.57 215.65 140.88 216.1 139.31 215.91C136.53 215.57 133.74 215.89 134.78 210.79C135.62 206.7 134.26 201.98 134.08 197.5C133.89 193.02 135.19 190.81 139.96 191.41C140.66 191.5 141.44 190.86 142.18 190.56C145.36 186.36 146.52 181.74 145.12 176.57C142.03 168.52 141.02 167.67 135.61 168.47C130.17 169.28 126.63 173.68 126.17 180.2C125.57 188.69 124.39 189.95 116.42 192.59C112.61 193.85 112.45 192.32 113.15 189.42C111.22 179.96 103.15 180.39 96.2601 178.94C95.5701 177.21 94.88 175.48 94.19 173.75C92.71 169.07 90.6099 164.61 89.1399 159.92L88.67 157.57C87.36 156.57 87.32 155 86.91 153.6C87.88 152.2 89.5299 152.41 90.8899 151.93C95.3699 150.36 97.93 145.44 96.49 141.27C95.13 137.33 91.1002 135.65 86.3502 137.03C84.6302 137.53 83.0302 138.58 81.1102 138.16C80.6702 137.95 80.3001 137.65 80.0201 137.25L78.3301 132.55C76.7701 125.67 74.5602 119.08 70.1102 113.45L70.2 113.57C68.26 108.83 66.4402 104.04 64.1102 99.4601L64.19 99.5702C63.67 97.2202 61.9 95.34 61.69 92.88C61.88 92.29 62.4402 92.0202 62.8502 91.6102C62.3102 91.3502 61.8601 91.9701 61.3001 91.7801C60.3901 90.7801 60.1002 89.3901 59.1102 88.4701L59.2 88.5702C58.57 87.7002 58.59 86.7201 58.73 85.7301C59.23 84.7901 60.2201 84.49 61.0201 83.93C65.7301 80.6 67.2802 75.7401 64.8602 72.0501C62.3502 68.2201 58.5102 67.8801 53.1202 71.0201C50.9102 71.5901 50.9502 69.5001 50.1002 68.4701L50.17 68.5702C48.02 62.6002 48.1002 62.7502 53.8702 60.3402C63.0902 56.4902 72.72 53.7901 81.96 50.0401C82.58 49.6401 83.2199 49.2801 83.8899 48.9601C85.2299 48.4001 86.7001 48.2601 88.0601 47.7301C88.5301 47.5501 89.0101 47.4101 89.5001 47.2801C110.44 41.4201 131.06 34.5602 151.71 27.8102C154.99 26.7402 158.22 25.2401 161.84 25.7901C165.56 28.4501 168.74 31.67 171.38 35.41C172.52 37.03 173.67 38.6701 172.34 40.7401C171.82 41.1501 171.23 41.5501 170.57 41.5401C163.98 41.3701 161.18 45.27 160.15 51.13C160.07 51.61 159.75 52.03 159.45 52.42C156.48 52.68 156.34 50.4201 156.4 48.5401C156.47 45.9101 156.72 43.2101 157.99 40.8001C159.04 38.8101 160.08 36.8101 157.91 34.9801C155.91 33.2801 153.45 32.25 151.02 33.63C147.28 35.75 143.6 38.01 140.03 40.42C138.1 41.72 137.6 43.8702 137.48 46.1202C137.38 47.9202 137.63 49.8 136.51 51.42C135.08 52.43 133.66 51.6502 132.24 51.3702C127.54 50.4402 123.76 52.6202 122.73 56.8502C121.72 60.9802 124.23 64.8001 128.85 66.0301C130.4 66.4501 132.2 66.1102 133.37 67.6102C128.36 70.6902 127.56 75.8201 126.83 80.9901C125.01 82.8601 123.86 80.98 122.61 80.15C118.38 77.34 114.3 77.8801 111.35 81.7401C108.55 85.4001 109.38 89.1501 113.55 92.5201C115.09 93.7701 117.37 93.8802 118.43 95.8102C113.96 101.02 115.03 106.84 116.42 112.78C117.05 115.45 118.56 116.79 121.18 117.07C123.34 117.3 125.42 117.89 127.53 118.31C132.18 119.25 135.3 121.82 137 126.23C137.42 127.31 138 128.33 138.6 129.33C139.46 130.77 140.29 132.36 142.29 132.23C144.33 132.1 145.55 130.69 146.39 128.98C147.43 126.86 147.53 124.47 148.21 122.26C150.47 114.91 154.12 108.9 162.54 107.34C168.5 106.24 170.59 107.86 170.42 113.92C170.37 115.94 170.14 117.92 168.61 119.46C166.93 120.44 165.46 119.3 163.9 119.01C159.55 118.2 156.33 120.01 154.97 123.98C153.66 127.8 155.3 131.37 159.23 133.26C160.68 133.96 162.45 134.1 163.41 135.66C159.45 139.28 159.64 144.33 158.8 149.03C156.76 150.82 155.53 148.71 154.1 147.96C149.76 145.68 146.64 146.01 144.43 149.14C141.74 152.95 142.18 157.08 145.34 160.42C146.77 161.94 149.43 162.21 149.79 164.8C147.82 170.39 149.89 176.02 149.67 181.63C149.61 183.22 150.43 184.72 152.21 184.84C155.87 185.08 159.48 184.24 163.1 183.82C164.85 183.61 164.2 182.11 163.59 181.08C162.57 179.36 161.21 177.87 160.12 176.19C156.98 171.39 157.53 166.32 161.56 162.68C167.44 157.37 173.61 156.45 178.19 160.3C181.33 162.94 183.86 166.16 184.22 170.34C184.57 174.38 186.53 176.35 190.36 176.89C198.55 178.03 203.64 182.43 205.23 190.75C205.6 192.67 206.44 194.55 207.19 196.41C207.64 197.53 208.33 198.5 209.7 198.54C211.04 198.58 211.8 197.69 212.38 196.62C212.78 195.89 213.13 195.11 213.26 194.29C214.21 188.25 213.57 181.98 216.02 176.14C216.49 175.02 215.49 173.94 214.87 172.95C214.47 172.27 214.24 171.54 214.16 170.76C214.11 169.97 214.2 169.2 214.41 168.44C215.02 167.09 215.18 165.33 217.23 165.26C219.72 169.97 223.36 174.09 224.56 179.47C221.8 181.74 218.76 183.74 219.49 188.18C220.32 193.2 224.83 195.47 229.4 192.95C229.33 191.94 229 191.01 228.77 190.05C228.46 188.78 227.96 187.17 229.47 186.57C231.1 185.92 231.45 187.85 232.32 188.71C233.62 190.15 234.92 191.59 236.22 193.03C237.43 196.02 239.83 197.87 242.42 199.56C244.89 201.53 247.21 203.65 249.09 206.21C248.97 206.96 249.95 207.81 248.89 208.49C247.11 214.57 242.35 218.39 237.74 221.97C234.63 224.39 230.47 225.07 227.12 221.39C226.57 220.84 226.52 220.18 226.67 219.46C226.81 219.01 227 218.59 227.22 218.18C228.36 215.93 229.24 213.73 228.11 211.1C226.16 206.56 221.49 203.98 217.91 205.68C213.09 207.97 211.46 212.98 213.63 217.77C214.7 220.14 217.33 221.1 218.19 223.52C222.85 227.28 222.03 236.69 216.56 239.03C214.13 240.07 211.18 240.51 210.09 236.28C208.49 230.09 199 222.64 193.29 222.49C192.28 222.71 191.83 220.71 190.6 221.81C189.43 221.54 188.89 220.65 188.42 219.67C185.51 216.24 182.4 217.55 179.6 219.58C176.71 221.67 176.14 224.39 177.67 227.93C178.92 230.81 182.44 231.43 183.2 234.48L183.18 234.45Z" fill="#EDBEA3"/>
<path d="M158.1 149.63C158.13 147.85 158.33 146.05 158.16 144.29C157.74 140.1 159.22 137.12 163.2 135.51C163.57 134.72 164.28 134.28 164.96 133.79C170.23 129.9 170.71 128.42 168.62 122.43C168.3 121.5 167.71 120.63 168.16 119.58C168.9 115.62 171.14 111.19 167.16 108.08C164.88 106.3 155.47 111.08 153.3 114.25C150.51 118.31 149.06 122.86 148.39 127.64C147.87 131.35 145.54 133.47 142.4 134.17C138.95 134.94 137.95 131.57 137.17 129.21C134.59 121.36 128.71 118.8 121.21 118.5C117.33 118.35 114.93 116.92 115.1 112.48C115.17 110.55 114.58 108.54 114.05 106.64C112.74 101.9 114.1 98.2602 118.23 95.6202C118.88 94.4802 120.42 94.1801 120.85 92.8301C121.52 91.6301 122.73 91.05 123.74 90.23C126.9 87.99 123.99 84.0401 126.2 81.5401C126.2 80.0501 126.11 78.5401 126.25 77.0601C126.65 72.5101 127.55 68.2701 133.23 67.5801C133.25 67.4201 133.21 67.1801 133.3 67.1001C138.18 62.6701 138.77 57.4499 136.16 51.6399C136.18 49.6599 136.21 47.67 136.21 45.69C136.21 42.21 137.78 39.7999 140.88 38.1599C143.64 36.6999 146.32 35.0601 148.89 33.2801C152.43 30.8301 157.62 31.5901 160.2 35.0501C161.63 36.9801 161 38.46 159.94 40.42C157.88 44.22 155.76 48.2801 159.23 52.5201C159.72 52.6401 160.17 52.87 160.53 53.22C167.31 60.03 171.79 59.56 177.17 51.47C177.45 51.05 177.74 50.6501 178.13 50.3201C182.17 51.4501 185.45 53.87 188.61 56.49C189.44 58.06 189.98 59.67 189.51 61.47C189 62.4 188.08 62.8001 187.21 63.2801C182.95 65.6001 181.57 68.5901 182.7 73.0601C183.63 76.7701 185.97 78.1501 191.19 78.0701C191.69 78.0701 192.18 78.0499 192.68 78.1399C194.14 78.9499 193.55 80.3701 193.71 81.5701C194.91 85.8401 195.76 90.1701 196.2 94.5801C196.39 95.5101 197.7 95.99 197.25 97.18C197.7 101.08 199.13 104.78 199.68 108.65C199.27 111.47 196.72 111.43 194.82 112.22C191.67 113.53 190.25 115.79 190.47 119.24C190.7 122.77 192.43 125.12 195.55 126.6C197.25 127.41 198.41 126.73 199.31 125.28C200.8 124.15 202.37 120.2 203.69 125.39C207.55 138.59 211.46 151.77 217.22 164.3C217.47 164.85 217.24 165.2 216.79 165.48C216.34 166.48 215.9 167.48 215.45 168.48C213.3 165.09 212.49 160.45 207.36 159.86C206.59 158.5 207.24 158.1 207.56 158.1C204.34 158.38 202.09 161.16 200.95 164.67C200.02 167.54 201.13 170.3 203.46 172.3C206.18 174.64 209.18 174.66 212.29 172.99C213.16 172.52 214.05 171.99 215.11 172.44C217.65 172.77 218.87 174.14 217.62 176.55C215.06 181.49 215.13 186.75 215.11 192.08C215.11 193.84 214.3 195.61 213.72 197.33C213.02 199.41 211.71 200.63 209.26 200.47C206.85 200.31 206.59 198.53 205.81 196.85C203.71 192.32 204.01 186.99 200.32 182.91C197.08 179.32 192.99 178.55 188.79 177.88C184.82 177.25 183.22 175.47 183.09 171.3C182.87 164.11 175.98 158.38 169.61 159.48C160.3 161.08 156.71 169.82 162.37 177.1C162.57 177.36 162.88 177.55 163.04 177.84C164.25 179.95 167.26 181.89 166.32 184.16C165.23 186.81 161.83 185.05 159.48 185.46C158.99 185.55 158.48 185.46 157.99 185.52C151.563 186.367 148.307 183.463 148.22 176.81C148.16 172.64 145.89 168.28 149.23 164.38C151.13 162.23 155.27 162.97 155.9 159.2C156.41 157.05 156.75 154.88 156.69 152.66C156.88 151.51 157.2 150.42 158.13 149.62L158.1 149.63Z" fill="#E9B89C"/>
<path d="M234.41 230.21C236.25 228.38 238.08 226.54 239.92 224.71C242.53 223.03 244.65 220.88 246.13 218.13C246.6 217.67 247.06 217.19 247.48 216.68C252.7 210.52 252.73 210.49 258.32 216.18C260.39 218.28 262.84 220.07 264.21 222.8C266.23 225.44 269.41 227.04 270.8 230.24C271.96 235.16 275.42 238.93 277.25 243.57C282.96 258.04 282.4 272.31 276.84 286.61C276.54 287.38 276.46 288.23 276.19 289.01C276.51 290.01 276.03 290.69 275.29 291.26C273.25 292.55 271.22 292 269.15 291.31C263.27 289.34 257.28 287.64 251.87 284.47C244.57 280.21 237.32 275.87 231.14 270.01C229.14 267.96 227.43 265.56 224.63 264.44C223.66 263.46 222.68 262.48 221.71 261.5C216.87 259.01 211.78 256.99 207.62 253.29C205.5 251.4 205.61 250.01 208.24 249C210.41 248.17 212.31 246.79 214.51 246.06C218.28 243.66 222.55 241.91 225.3 238.11C226.08 237.22 226.86 236.32 227.64 235.43C231.37 235.6 232.45 232.35 234.4 230.2L234.41 230.21Z" fill="#D4495C"/>
<path d="M52.94 413.43C63.87 421.85 75.8801 428.71 86.8601 437.13C90.4301 439.86 93.3099 444.07 98.1499 445.14C99.3499 446.63 101.24 447.02 102.75 448.01C103.64 448.59 105.3 448.7 105.07 450.17C104.84 451.62 103.42 452.25 102.1 452.44C98.3301 452.99 94.48 453.6 90.75 453.54C72.2 453.26 53.5699 454.17 35.1599 450.91C25.8199 448.74 16.38 446.88 7.74001 442.43C6.23001 440.91 4.72999 439.39 3.21999 437.87C1.38999 433.67 1.34012 429.32 2.11012 424.9C3.26012 422.72 3.46994 420.03 5.66994 418.44C9.61994 415.73 13.45 412.86 17.2 409.88C19.41 408.73 21.6101 407.57 23.8201 406.42C25.0001 405.87 26.3099 405.73 27.3999 404.85C29.7099 402.97 32.1401 403.23 34.7901 404.47C39.1001 406.49 43.0101 409.41 47.8401 410.24C49.2501 411.75 52.4299 410.45 52.9299 413.43H52.94Z" fill="#DE5A65"/>
<path d="M141.18 10.58C142 10.22 142.81 9.85993 143.63 9.49993C152.58 7.42993 161.23 4.20991 170.28 2.47991C172.23 2.10991 174.17 1.75 176.14 1.57C179.94 1.23 182.19 3.13999 182.6 6.80999C183.01 10.57 184.12 14.27 183.68 18.1C183.72 18.62 183.62 19.12 183.39 19.59C182.1 20.22 181.09 20.0299 180.79 18.4699C180.51 17.0299 180.95 15.5 180.45 14.29C180.36 16.39 181.86 18.9799 179.09 20.7699C177.27 17.6599 172.48 25.5 171.9 19.59C172.1 20.25 172.02 21.79 170.43 22.33C168.37 23.03 168.47 20.96 167.96 20.08C168.66 23.16 167.62 24.72 164.15 23.29C163.55 23.04 163.95 22.8298 163.38 23.3998C161.06 25.6698 158.18 26.01 153.87 25.08C153.57 25.01 153.8 25.3699 153.81 25.4999C154 27.1999 153.14 28.05 151.54 28.06C149.67 28.07 149.87 26.3099 149.31 25.1999C149.1 24.7799 149.05 24.28 148.8 24.06C149.87 27.25 151.22 30.1599 145.19 29.7299C144.05 29.6499 140.68 30.86 138.7 32.31C137.67 33.07 136.57 33.39 135.86 31.84C135.8 31.7 135.89 31.5098 135.71 31.4098C135.71 31.7398 135.75 32.0798 135.7 32.4098C135.42 34.1398 133.64 34.7698 132.73 34.3798C130.15 33.2598 126.41 39.5799 124.85 32.9899C124.89 36.1599 120.86 39.3199 116.22 39.9299C113.23 40.3299 113.62 37.89 113.2 37.37C114.71 39.54 113.62 41.34 110.02 41.81C107.21 42.18 104.67 44.9699 101.56 42.7699C101.26 46.6899 97.4799 44.24 95.8799 45.83C95.6999 46.01 88.4899 48.2599 88.1799 48.5199L88.25 48.4799C84.59 49.5399 84.7799 46.0498 83.4099 44.3998C82.8499 39.5398 79.81 35.4598 79.04 30.6498C99.6 23.4798 120.23 16.52 141.19 10.58H141.18Z" fill="#ED5C71"/>
<path d="M120.2 414.41C119.79 413.38 118.7 412.26 119.59 411.25C120.72 409.97 121.51 411.68 122.49 411.99C126.07 413.13 129.62 414.44 133.28 415.2C135.12 415.58 137.51 416.61 139.02 414.16C139.09 414.04 139.09 413.82 139.02 413.69C138.7 413.04 138.33 413.32 137.97 413.66C135.66 412.7 134 411.28 134.34 408.47C135.59 405.46 132.59 404.35 131.56 402.37C131.06 401.41 129.42 400.85 129.95 399.58C130.56 398.13 132.17 398.46 133.47 398.45C136.93 398.41 140.43 398.67 143.85 398.26C145.82 398.03 148.69 397.09 145.21 394.43C141.01 393.44 140.02 390.01 139.16 386.47C138.43 382.94 140.87 381.24 143.18 379.45C145.83 377.53 148.48 377.57 151.14 379.42C155 379.08 158.21 379.6 160 383.87C161.36 387.09 161.59 389.43 158.26 391.43C154.89 393.45 153.59 397.3 151.61 400.35C148.86 404.58 151.8 407.69 158.43 408.33C164.97 406.65 161.5 402.13 161.22 398.51C162.07 397.95 161.8 397.19 161.75 396.34C161.39 390.7 163.47 388.8 169.01 390.57C171.03 391.22 173.07 391.82 175.1 392.45C175.7 391.96 176.06 392.1 176.17 392.87C175.18 393.88 174.2 394.88 173.21 395.89C171.91 398.83 169.34 400.99 168.15 404C165.49 406.12 165.3 410.1 162.21 411.9C160.82 414.67 159.19 417.32 158.03 420.21C157.79 420.62 157.51 420.99 157.19 421.34C155.4 422.74 153.72 423.79 153.53 420.18C153.79 418.7 154.02 417.21 153.62 415.73C152.83 412.77 150.45 412.07 148.17 413.08C145.55 414.24 145.07 417.31 144.76 419.83C144.45 422.31 146.34 423.67 148.73 424.1C150.52 424.42 152.43 424.47 153.49 426.35C152.99 432.6 150.46 437.45 144.26 439.77C141.63 438.4 141.94 435.61 141.17 433.34C140.9 432.53 140.57 431.7 139.67 431.55C138.54 431.36 138.45 432.42 138.16 433.13C137.44 434.92 135.61 436.24 135.94 438.5C136.34 441.25 134.83 442.69 132.47 443.79C129.8 445.04 127.58 447.2 124.56 447.8C122.45 448.15 120.39 449.72 118.18 448.1C115.1 446.71 111.67 447.82 108.48 446.58C106.71 445.89 105.89 445.16 106.37 443.44C106.82 441.84 107.37 440.34 109.81 441.09C111.49 441.61 113.41 441.33 115.22 441.41C117.08 436.24 112.79 433.9 110.31 430.72C109.38 429.53 106.98 429.76 107.15 427.48C107.24 425.63 108.14 424.56 110.05 424.46C114.05 424.87 117.47 428.31 121.85 426.76C122.52 426.62 123.19 426.57 123.86 426.54C126.8 425.79 124.75 424.27 124.23 423.27C122.73 420.38 120.32 417.93 120.17 414.42L120.2 414.41Z" fill="#EBBCA1"/>
<path d="M180.45 385.5C179.21 385.34 178.04 384.91 178.43 383.39C179.63 378.66 178.38 373.16 182.78 369.39C183.63 368.66 184.36 367.69 184.03 366.39C184 366.28 183.77 366.16 183.63 366.16C183.49 366.16 183.34 366.3 183.2 366.38C178.39 364.35 176.39 359.81 173.78 355.81C173.81 354.75 174.46 354.05 175.2 353.42C174.01 346.2 174.06 346.11 181.42 344.43C182.45 344.2 183.19 343.76 183.87 342.95C186.73 339.54 187.92 339.85 190.2 344.01C192.12 347.49 193.45 352.2 199.23 349.91C200.5 347.51 203.68 351.42 204.69 348.24C204.85 346.99 204.02 345.63 205.12 344.5C205.51 340.58 205.81 336.65 206.32 332.75C206.51 331.3 207.1 329.72 208.92 329.55C212.16 329.25 214.89 328.84 213.71 324.3C213.49 323.46 215.51 322.2 216.85 323C218.53 324 220.07 325.4 219.24 327.77C218.9 328.74 216.67 330.54 220.13 329.47C224.05 331.93 227.61 335.07 232.45 335.77C233.31 335.89 233.78 336.71 234.07 337.53C229.47 341.17 224.87 344.8 220.28 348.44C218.65 349.46 217.1 350.93 215.08 349.08C214.39 348.45 213.61 347.56 212.57 348.37C211.52 349.18 211.55 350.41 211.93 351.51C212.51 353.17 212.62 354.65 211.19 355.92C208.58 358.11 205.97 360.31 203.37 362.5C202.78 362.82 202.18 363.1 201.66 363.53C198.993 365.783 196.433 365.663 193.98 363.17C192.43 364.68 191.53 366.51 192.61 368.42C193.82 370.56 192.97 372.21 192.19 374.03C192.44 374.8 191.92 375.09 191.36 375.36C189.1 376.54 187.53 378.4 186.25 380.54L186.27 380.52C184.39 382.26 183.35 384.98 180.45 385.53V385.5Z" fill="#E6AB90"/>
<path d="M79.24 31.51C82.67 34.76 83.5601 39.03 84.0501 43.46C84.9701 45.43 85.25 47.42 84.17 49.43C83.89 49.76 83.6001 50.0899 83.3201 50.4199C82.5501 51.7099 81.07 48.49 79.69 51.48C78.41 54.25 75.6701 52.57 74.7901 48.48C75.0001 49.75 76.3001 52.3401 73.7901 53.6101C71.5801 54.7301 71.31 52.32 70.73 50.69C71.2 53.58 71.13 55.7199 67.17 54.6599C66.2 54.3999 65.44 56.1701 63.74 56.5401C60.77 57.1901 58.3901 60.81 54.8301 57.75C54.6801 57.62 54.7901 58.0099 54.7701 58.1599C53.8801 62.8599 50.25 62.25 46.92 62.22C44.97 60.15 44.99 57.3601 44.2 54.8601C43.52 51.5901 41.86 48.42 43.18 44.95C44.29 43.1 46.2801 42.6499 48.0801 41.8899C51.6601 42.0899 54.13 39.2001 57.4 38.5501L61.6299 36.5C65.9899 35.11 70.3399 33.7099 74.6299 32.1399C76.0699 31.6099 77.54 30.4 79.24 31.52V31.51Z" fill="#EE5F75"/>
<path d="M234.21 310.15C236.37 312.98 239.17 313.35 241.98 311.56C244.61 309.89 246.14 310.16 247.21 313.12C247.65 314.33 248.25 316.24 249.34 313.4C252.1 314.28 254.47 315.5 254.18 319.01C252.1 321.89 249.63 324.39 246.74 326.45C243.75 327.71 241.72 329.98 240.1 332.69C239.47 333.25 238.84 333.81 238.21 334.37C234.71 332.17 230.85 330.29 230.4 325.43C231.7 323.06 230.68 320.46 230.95 317.97C231.28 315 231.83 312.29 233.22 309.7C233.92 309.03 234.08 309.54 234.21 310.14V310.15Z" fill="#E7AC92"/>
<path d="M84.1299 360.52C86.5599 361.6 88.45 363.3 88.04 366.09C87.59 369.11 84.8801 368.36 82.8301 368.47C80.0001 368.62 79.72 369.87 81.27 371.94C81.57 372.34 81.97 372.65 82.26 373.05C87.21 379.67 87.19 379.62 79.5 381.87C77.27 382.52 74.1599 383.2 78.1699 386.03C79.7899 387.17 80.7599 388.72 79.9099 390.73C79.1099 392.63 77.2999 392.44 75.6399 392.48C72.2499 392.57 68.17 391.27 67.22 396.5C66.37 396.68 66.0201 396.32 66.1201 395.47C63.5401 392.71 65.13 390.03 66.27 387.34C69.53 387.91 72.1101 392.06 76.3501 389.09C73.4601 385.05 69.95 385.83 66.3 387.37C64.41 384.41 62.4501 384.78 60.1001 386.97C57.7601 389.14 55.55 391.82 51.76 391.28C52.79 388 56.2999 387.51 58.3799 385.41C60.6199 384.34 61.4599 381.43 64.1699 380.97C66.0099 378.32 69.65 377.13 70.29 373.49C73.78 369.51 78.2299 366.35 80.6499 361.45C84.6799 360.58 81.6 365.19 84.04 365.78C85.51 364.02 82.5399 362.16 84.1299 360.52Z" fill="#F1DAC9"/>
<path d="M87.3999 153.39C87.8299 154.79 88.2599 156.18 88.6899 157.58C85.4399 155.99 85.9599 152.35 84.6299 149.74C82.6199 145.81 80.6 141.76 80.04 137.25C80.43 137.38 80.82 137.52 81.21 137.65C82.64 139.14 84.15 138.47 85.75 137.95C92.04 135.9 96.0901 137.54 97.0801 142.46C98.1301 147.69 94.64 152.12 88.78 152.96C88.29 153.03 87.8199 153.1 87.4099 153.4L87.3999 153.39Z" fill="#123053"/>
<path d="M125.36 447.53C115.01 451.23 104.18 452.35 93.3501 453.47C91.2301 453.69 89.12 454.01 87 454.28C74.85 454.2 62.6901 454.69 50.5801 453.46C44.0101 452.79 37.37 452.49 30.99 450.51C32.12 449.61 33.33 449.86 34.54 450.3C51.98 452.81 69.5401 452.62 87.0801 452.26C92.9301 452.14 98.8 451.74 104.8 450.39C102.91 447.67 99.0299 448.34 98.1499 445.13C98.6299 445.25 99.2201 445.22 99.5601 445.5C105.26 450.1 111.54 450.36 118.19 448.07C120.21 447.57 122.22 447.08 124.24 446.58C124.64 446.87 125.23 446.92 125.35 447.53H125.36Z" fill="#502C2E"/>
<path d="M50.1299 68.47C51.5199 68.7 51.0901 71.27 53.0601 70.75C58.3801 67.6 62.9299 68.3999 65.4299 72.9199C67.8699 77.3299 65.2101 82.62 59.0901 85.51C59.1301 86.53 59.17 87.5501 59.22 88.5701C55.36 82.2401 52.0999 75.65 50.1299 68.47Z" fill="#0F2B4E"/>
<path d="M203.28 125.36C202.56 123.953 201.526 124.223 200.18 126.17C195.74 128.17 192.74 127.03 190.86 122.65C189.16 118.68 190.87 113.94 194.53 112.14C196.05 111.39 198.33 111.99 199.03 109.72C199.03 105.45 196.44 101.54 197.22 97.1499C200.09 106.4 202.25 115.83 204.17 125.31C203.9 126 203.6 126.02 203.27 125.35L203.28 125.36Z" fill="#0F243E"/>
<path d="M193.27 81.3401C193.02 80.3101 193.21 79.1201 192.26 78.3201C186.39 78.5401 183.59 77.2099 182.45 73.6699C181.19 69.7399 182.7 66.4301 187.21 63.3501C187.92 62.8701 188.42 62.2401 188.94 61.6001C189.27 59.7801 188.54 58.14 188.04 56.47C186.45 54.28 186.09 51.7299 185.94 49.1299C185.94 48.0799 186.07 47.0501 186.57 46.1001C186.75 45.9101 186.93 45.72 187.11 45.53C190.18 53.07 190 61.3001 192.1 69.0601C193.17 73.0301 193.47 77.2201 194.12 81.3101C193.85 82.0001 193.56 82.0101 193.26 81.3301L193.27 81.3401Z" fill="#10253F"/>
<path d="M230.41 325.43C231.7 329.56 236.34 330.76 238.22 334.38C236.84 335.42 235.47 336.47 234.09 337.52C228.75 336.03 223.21 334.9 220.15 329.47C223.82 330.37 225.26 329.3 223.82 325.45C223.37 324.24 223.2 322.91 224.46 321.39C226.09 323.27 228.33 324.23 230.42 325.44L230.41 325.43Z" fill="#0C1F3D"/>
<path d="M111.7 189.44C109.39 192.77 106.1 193.88 102.2 193.59C101.62 192.8 101.11 191.95 100.26 191.4C99.4401 188.8 97.94 186.38 98.2 183.5C101.37 181.39 104.47 179.3 108.59 181.31C112.06 183 113.14 185.55 111.69 189.44H111.7Z" fill="#122A4C"/>
<path d="M251.89 284.47C257.3 285.08 262.04 287.79 267.14 289.36C269.82 290.18 272.37 291.54 275.31 291.27C274.1 293.53 273.45 296.17 270.96 297.55C271.14 296.6 271.31 295.65 271.52 294.55C264.79 295.9 259.33 292.22 253.51 290.14C252.51 289.78 249.15 288.58 252.92 286.49C254.36 285.69 251.8 285.42 251.9 284.48L251.89 284.47Z" fill="#0F1E3A"/>
<path d="M79.24 31.51C73.21 32.6 67.9001 36.26 61.6201 36.49C68.1101 32.71 75.4099 31.0099 82.4099 28.6399C100.14 22.6199 118.03 17.0501 135.85 11.3001C137.58 10.7401 139.28 9.95009 141.17 10.5801C129.3 15.3001 116.91 18.4601 104.86 22.6201C96.3101 25.5701 87.78 28.55 79.24 31.51Z" fill="#64262E"/>
<path d="M232.31 188.69C231.36 187.97 230.41 187.24 229.35 186.44C228.65 188.99 231.46 190.96 230.27 193.42C225.34 195.25 222.04 194.43 220.03 190.87C218.08 187.43 219.07 184.25 223.11 181.23C223.8 180.72 224.4 180.23 224.65 179.4C224.65 178.83 224.9 178.4 225.37 178.09C227.54 181.71 230.67 184.71 232.3 188.69H232.31Z" fill="#0E2444"/>
<path d="M46.9199 62.21C50.1799 60.83 55.54 61.8401 54.01 55.3601C56.03 55.8901 54.8901 59.78 57.0701 58.29C60.2601 56.11 66.25 57.5101 66.47 50.8401C67.71 51.9901 66.9001 55.0499 69.0601 54.1599C71.6801 53.0799 69.41 50.2299 70.52 48.1299C71.84 49.6199 71.0699 52.0599 73.1499 53.1899C75.7499 51.0799 73.5799 48.0001 74.6499 45.3701C75.1399 46.9201 75.54 48.3099 76.04 49.6599C76.33 50.4499 75.73 51.9601 77.29 51.8101C78.2 51.7301 79.7601 51.1599 79.8401 50.6399C80.6801 44.5599 82.3001 51.8899 83.3201 50.3999C76.0001 54.7999 67.33 55.7 59.76 59.45C58.15 60.25 56.48 61.1399 54.75 61.4099C50.35 62.0899 48.48 64.1 50.2 68.55C48.29 66.85 48.0199 64.2999 46.9199 62.1899V62.21Z" fill="#73262F"/>
<path d="M102.19 318.36C100.79 322.52 102.13 324.25 106.64 325.05C109.85 325.62 112.7 328.15 116.19 330.06C112.93 331.64 109.79 332.2 106.64 332.3C101.05 332.47 100.07 331.3 100.79 326.09C98.7 325.96 99.6199 328.56 98.1599 328.99C98.4899 325.06 99.89 321.53 102.2 318.35L102.19 318.36Z" fill="#21273E"/>
<path d="M276.21 289.01C275.45 286.3 277.43 284.28 278.03 281.91C282.19 265.65 281.42 250.06 272.32 235.39C271.46 234 269.03 232.58 270.81 230.23C282.58 247.27 285.42 265.53 278.29 285.14C277.79 286.52 277.49 288.03 276.22 289.01H276.21Z" fill="#5E3338"/>
<path d="M254.18 319.02C253.82 316.07 249.58 316.46 249.34 313.41C248.76 310.22 253.8 308.36 250.3 304.6C253.73 304.69 254.62 306.71 255.89 308.05C257.66 309.92 258.98 312.74 261.99 309.66C262.08 309.77 262.21 309.87 262.25 310C262.31 310.15 262.3 310.32 262.31 310.49C259.6 313.33 256.88 316.18 254.17 319.02H254.18Z" fill="#0C1C38"/>
<path d="M114.19 242.46C114.21 251.78 114.34 261.09 114.19 270.4C114.15 272.9 114.91 274.14 117.34 274.41C118.66 274.56 119.65 275.35 119.62 276.62C119.59 277.92 118.09 277.79 117.31 277.84C112.13 278.16 113.11 282.3 112.43 285.43C113.54 287.17 113.68 288.81 111.9 290.24C111.3 292.3 110.7 294.35 110.09 296.41C109.75 296.74 109.4 296.76 109.05 296.42C113.47 278.6 113.98 260.52 112.64 242.31C112.67 241.83 112.89 241.47 113.28 241.21C114.01 241.32 114.61 241.51 114.19 242.46Z" fill="#2F2A2F"/>
<path d="M58.3601 385.41C56.9501 388.27 53.53 388.85 51.74 391.28C45.56 395.04 39.3701 398.8 32.8401 402.77C37.5901 405.16 41.8301 407.29 46.0801 409.43C47.8601 408.99 48.42 409.85 48.25 411.48C44.69 409.85 41.0301 408.41 37.6001 406.54C33.7601 404.45 30.14 403.17 26.21 406.26C25.7 406.66 24.6401 406.37 23.8301 406.4C35.3401 399.4 46.8501 392.4 58.3601 385.4V385.41Z" fill="#4D3234"/>
<path d="M225.38 178.09L225.16 179.71C224.77 179.85 224.45 179.76 224.2 179.42C221.72 174.77 219.25 170.12 216.77 165.47C211.33 152.42 206.41 139.19 203.27 125.37C203.57 125.43 203.87 125.41 204.17 125.33C206 131.16 207.87 136.98 209.66 142.83C213.45 155.23 218.98 166.85 225.36 178.1L225.38 178.09Z" fill="#4E423B"/>
<path d="M182.95 19.2C183.69 14.99 182.21 10.9701 181.88 6.8501C181.63 3.7401 179.8 2.36003 176.46 2.53003C166.75 3.02003 157.77 6.61989 148.48 8.88989C146.85 9.28989 145.31 9.82 143.62 9.5C153.97 5.49 164.67 2.73 175.57 0.75C179.7 -1.3411e-07 182.43 2.04012 183.13 6.12012C183.88 10.5301 184.76 14.98 184.06 19.52C183.58 19.79 183.21 19.68 182.94 19.2H182.95Z" fill="#5C1B1F"/>
<path d="M192.19 374.01C191.88 372.33 192.86 370.84 191.11 368.88C188.78 366.27 192.93 363.51 192.6 360.27C194.75 362.14 197.28 363.21 197.5 366.13C200.16 365.72 200.63 362.32 203.37 362.47C199.64 366.31 195.92 370.16 192.19 374V374.01Z" fill="#182235"/>
<path d="M111.7 189.44C112.83 186 111.54 183.44 108.45 182.05C105.51 180.73 102.28 180.87 100.47 183.86C98.89 186.47 99.02 183 98.21 183.51C97.57 181.99 96.93 180.46 96.29 178.94C100.85 177.52 105.14 178.87 109.2 180.64C112.9 182.26 113.47 185.75 113.18 189.42C112.69 189.42 112.2 189.43 111.7 189.44Z" fill="#F4ECE3"/>
<path d="M100.26 191.41C101.57 191.55 102.31 192.2 102.2 193.6C106 204.8 109.51 216.09 111.99 227.67C112.36 227.91 112.48 228.25 112.37 228.67C111.87 229.37 111.28 229.86 110.35 229.54C109.13 216.59 104.29 204.61 100.39 192.38C100.29 192.07 100.3 191.74 100.26 191.41Z" fill="#5A4F47"/>
<path d="M211.2 355.9C212.15 353.14 208.88 350.58 211.04 347.59C212.45 345.63 213.47 344.05 214.9 347.15C216.3 350.17 218.18 349.38 220.29 348.43C217.52 351.25 214.67 353.96 211.2 355.91V355.9Z" fill="#151F31"/>
<path d="M110.35 229.53C110.88 229.21 111.41 228.88 111.94 228.56C115.48 228.77 117.23 231.12 117.96 234.15C118.93 238.17 115.4 239.77 113.16 242.02C112.97 242.09 112.8 242.2 112.65 242.32C112.06 238.03 111.98 233.64 110.35 229.54V229.53Z" fill="#142240"/>
<path d="M264.22 222.8C261.19 219.84 258.03 217 255.17 213.89C253.02 211.56 251.69 211.57 250.11 214.41C249.18 216.09 247.66 217.44 246.41 218.93C245.8 218.51 245.71 218 246.14 217.4C247.23 214.47 252.17 212.72 248.87 208.45C249.28 207.72 246.77 206.74 249.07 206.17C253.22 210.22 257.44 214.2 261.49 218.36C262.67 219.57 264.47 220.61 264.22 222.79V222.8Z" fill="#4C2428"/>
<path d="M70.1201 113.45C72.2201 115.2 72.4801 118.66 76.1001 119.18C77.4001 119.37 78.3 121.9 77.75 123.43C76.6 126.65 77.6001 129.55 78.3401 132.55C74.6601 126.59 71.9701 120.2 70.1201 113.45Z" fill="#282D38"/>
<path d="M34.54 450.31C33.36 450.38 32.17 450.45 30.99 450.52C22.84 448.98 14.69 447.44 7.73999 442.43C16.67 445.06 25.6 447.69 34.53 450.32L34.54 450.31Z" fill="#52272E"/>
<path d="M84.1299 360.52C84.1099 361.62 84.83 362.32 85.44 363.11C86.23 364.12 87.37 365.34 86.2 366.57C84.94 367.9 83.0801 367.85 81.5401 367.09C79.4301 366.04 81.3301 365.07 81.8001 364.03C82.3401 362.83 82.3399 361.72 80.6399 361.45C81.5299 359.55 82.41 357.65 84.17 356.36C85.24 357.76 81.8602 359.11 84.1202 360.52H84.1299Z" fill="#403C44"/>
<path d="M182.95 19.2C183.32 19.31 183.69 19.41 184.07 19.52C185.95 28.1 187.32 36.73 187.13 45.55L187.23 45.52C184.85 45.39 185.03 43.4099 184.8 41.9199C183.74 34.9399 182.83 27.9499 182.31 20.8999C182.46 20.3299 182.68 19.78 182.96 19.27V19.21L182.95 19.2Z" fill="#2E352E"/>
<path d="M93.5801 339.37C91.1401 345.45 89.1101 351.76 84.1201 356.43C86.9501 350.57 89.6001 344.6 93.5801 339.37Z" fill="#403C44"/>
<path d="M180.45 385.5C182.79 384.3 183.38 381.05 186.27 380.49C183.66 385.23 179.82 388.95 176.19 392.86C175.83 392.72 175.48 392.58 175.12 392.44C176.9 390.12 178.67 387.81 180.45 385.49V385.5Z" fill="#42322C"/>
<path d="M64.1201 99.46C67.2501 103.69 69.07 108.48 70.21 113.57C67.25 109.27 65.4401 104.47 64.1201 99.46Z" fill="#282D38"/>
<path d="M17.21 409.88C14.26 413.93 10.1999 416.5 5.67993 418.44C8.82993 414.65 12.96 412.18 17.21 409.88Z" fill="#5E3038"/>
<path d="M105.16 310.3C105.66 314.26 109.26 310.99 111.04 313.38C106.84 313.1 103.75 314.7 102.11 318.47C102.4 315.48 103.56 312.8 105.16 310.3Z" fill="#21273E"/>
<path d="M89.1599 159.93C91.5699 164.27 93.72 168.71 94.21 173.76C91.68 169.46 89.5499 165.01 89.1599 159.93Z" fill="#524943"/>
<path d="M193.27 81.3401C193.56 81.4301 193.85 81.4301 194.13 81.3201C195.49 85.6201 196.94 89.92 196.18 94.55C195.21 90.15 194.24 85.7401 193.27 81.3401Z" fill="#4E3F36"/>
<path d="M109.06 296.42C109.41 296.42 109.75 296.42 110.1 296.41C109.04 300.33 108.22 304.33 106.13 307.89C106.15 303.82 107.59 300.12 109.06 296.42Z" fill="#5F4E46"/>
<path d="M59.1299 88.46C60.7099 88.82 60.78 90.3499 61.46 91.4199C61.81 91.7099 62.0301 92.08 62.0901 92.54C62.0901 95.09 64.67 96.8701 64.2 99.5701C61.63 96.2701 60.0699 92.51 59.1299 88.46Z" fill="#0F2B4E"/>
<path d="M70.28 373.49C70.46 377.8 66.7699 378.94 64.1599 380.97C64.8099 377.34 68.83 376.46 70.28 373.49Z" fill="#4F4948"/>
<path d="M264.09 308.58C261.82 307.92 263.5 306.84 264.02 306.3C265.86 304.36 266.6 301.48 269.22 300.22C268.78 303.78 265.63 305.68 264.1 308.57L264.09 308.58Z" fill="#4A413B"/>
<path d="M2.10999 424.9C2.31999 429.24 2.24986 433.6 3.21986 437.87C0.319856 433.76 0.249992 429.41 2.10999 424.9Z" fill="#532830"/>
<path d="M242.4 199.54C241.79 201.45 240.82 200.16 240.53 199.55C239.38 197.16 235.34 196.69 236.2 193.01C238.27 195.19 240.33 197.36 242.4 199.54Z" fill="#453A32"/>
<path d="M57.3899 38.54C54.5699 40.46 51.9001 42.7899 48.0701 41.8799C51.1601 40.7299 53.8099 38.33 57.3899 38.54Z" fill="#6A2C34"/>
<path d="M240.1 332.7C240.63 328.83 243.43 327.37 246.74 326.46C244.53 328.54 242.31 330.62 240.1 332.7Z" fill="#50413C"/>
<path d="M160.15 417.36C158.64 417.91 159.02 420.23 157.21 420.5C157.57 416.86 159.98 414.42 162.23 411.89C163.12 414.32 160.3 415.33 160.15 417.36Z" fill="#41342C"/>
<path d="M168.18 404C168.46 400.42 171.01 398.25 173.24 395.89C172.94 399.46 170.32 401.58 168.18 404Z" fill="#443934"/>
<path d="M186.25 380.52C187.12 377.97 187.92 375.35 191.36 375.34C189.52 376.93 188.77 379.6 186.25 380.52Z" fill="#4B3730"/>
<path d="M43.1799 44.9399C43.5199 48.2399 43.8599 51.5501 44.1999 54.8501C42.7599 51.6601 40.2599 48.5799 43.1799 44.9399Z" fill="#702D37"/>
<path d="M234.21 310.15C233.88 310 233.55 309.85 233.22 309.7C226.69 307.88 220.13 306.16 215 301.18C215.27 299.84 217.62 301.08 217.41 299.47C216.6 293.15 220.13 295.89 222.68 296.95C229.93 299.97 236.37 304.07 241.25 310.75C238.42 311.98 236.42 310.02 234.2 310.14L234.21 310.15Z" fill="#0E1F3D"/>
<path d="M183.15 250.73C184.05 251.37 184.96 252.01 186.33 252.98C177.31 257.27 168.56 257.59 159.59 254.34C160.23 251.93 161.73 249.9 162.79 247.7C164.43 244.28 168.01 245.11 170.78 245.85C175.05 247 179.34 248.32 183.15 250.73Z" fill="#0E2142"/>
<path d="M236.92 281.26C228.66 281.73 221.83 282.62 215.33 279.3C213.59 278.41 211.87 278.43 212.71 274.88C213.98 269.46 213.11 269.27 218.3 271.48C224.33 274.05 230.18 276.92 236.93 281.26H236.92Z" fill="#112749"/>
<path d="M194.14 292.8C197.35 295.35 201.46 296.65 204.51 300.29C201.6 301.51 198.89 300.95 196.25 300.57C190.67 299.76 185.12 298.75 179.95 296.33C179.85 296.28 179.73 296.04 179.77 295.96C179.89 295.69 180.08 295.46 180.25 295.21C182.41 294.53 182.32 292.95 181.86 291.21C181.43 289.6 181.85 288.2 183.26 287.32C184.69 286.43 185.6 287.46 186.67 288.35C188.91 290.22 192.33 290.18 194.16 292.8H194.14Z" fill="#101E3D"/>
<path d="M188 320.13C195.87 320.63 188.65 313.93 192.15 312.67C199.4 316.54 206.93 320.44 213.75 327.23C204.04 326.59 196.04 324.01 188 320.13Z" fill="#101D3B"/>
<path d="M168.14 310.6C171.02 313.34 175.08 314.47 178.02 317.93C169.96 319.42 162.52 318.52 155.38 315.1C155.21 315.02 155.4 314.18 155.42 313.69C156.82 311.78 155.97 309.58 156.26 307.52C156.49 305.87 157.48 304.15 159.02 305.28C161.9 307.39 165.92 307.45 168.13 310.59L168.14 310.6Z" fill="#0F1939"/>
<path d="M130.04 351.94C132.67 351.37 132.65 350.92 132.66 348.19C132.67 346.37 133.42 344.55 133.84 342.67C140.29 346.06 146.48 349.4 152.18 354.93C144.39 357.02 137.63 355.89 130.03 351.94H130.04Z" fill="#11213F"/>
<path d="M181.96 267.59C186.69 270.75 192.59 271.83 197.13 276.07C189.86 278.21 182.97 277.1 176.09 275.54C175.05 275.3 174.1 275.12 174.44 273.7C175.41 272.25 175.17 270.95 174.07 269.64C173.23 268.63 173.26 267.43 174.16 266.46C175.06 265.49 176.4 265.36 177.38 266C178.81 266.94 180.65 266.49 181.96 267.59Z" fill="#0F1C38"/>
<path d="M160.7 336.15C165.77 336.88 164.36 333.93 164.27 331.68C164.22 330.62 163.65 329.11 165.08 328.69C165.8 328.48 166.91 329.15 167.7 329.65C172.45 332.64 177.22 335.58 181.51 339.23C182.28 339.88 183.19 340.44 182.75 341.61C182.38 342.61 181.39 342.36 180.62 342.33C173.67 342.09 167.35 339.78 160.71 336.14L160.7 336.15Z" fill="#121F3C"/>
<path d="M124.77 303.7C130.91 307.14 138.2 307.98 143.97 312.51C139.35 315.76 125.7 315.39 122.37 312.08C121.99 311.71 121.12 310.8 121.86 310.67C126.34 309.85 123.12 306.21 124.76 303.71L124.77 303.7Z" fill="#101F3E"/>
<path d="M149.3 333.21C142.55 334.14 136.68 335.04 130.79 333.37C129.33 332.96 127.43 332.55 127.28 331.12C127.02 328.7 129 331.16 129.63 330.4C129.89 330.08 130.15 329.45 130.01 329.17C129.23 327.61 128.64 325.95 130.01 324.59C132.58 322.03 131.89 326.12 132.36 325.99C138.81 324.12 142.44 329.53 147.32 331.63C147.87 331.87 148.29 332.39 149.3 333.21Z" fill="#121B37"/>
<path d="M169.59 294.58C162.71 297.46 156.54 296.89 150.48 294.06C149.72 293.71 148.09 292.51 148.54 292.33C152.68 290.62 148.93 287.53 149.98 285.08C156.1 288.77 163.51 289.41 169.59 294.58Z" fill="#121F3C"/>
<path d="M151.03 269.57C153.99 270.93 156.95 272.28 159.99 273.68C154.75 277.57 145.41 277.82 137.48 274.41C137.09 272.37 140.21 271.24 138.82 268.77C138.33 267.91 139.69 266.61 140.6 267.11C143.89 268.9 148.04 266.77 151.02 269.57H151.03Z" fill="#0E1B3A"/>
<path d="M123 218.49C117.42 218.45 113.24 214.61 113.2 209.49C113.16 204.38 117.91 199.39 122.79 199.42C128.16 199.45 133.31 204.35 133.18 209.3C133.04 214.73 128.83 218.54 123 218.49Z" fill="#F7F3EE"/>
<path d="M139.15 253.55C140.19 254.9 142.39 254.24 143.23 255.93C142.19 258.01 139.64 257.9 138.15 259.37C134.1 261.61 130.02 262.39 126.09 259.22C123.98 257.52 122.01 255.67 123.89 252.5C125.61 249.59 128.01 248.73 131.08 249.75C133.91 250.69 136.48 252.24 139.15 253.55Z" fill="#102240"/>
<path d="M135.16 293.04C127.18 297.18 117.76 297.74 112.21 291.69C117.45 284.04 116.29 286.13 124.17 288.15C127.99 289.13 132.08 290.12 135.16 293.04Z" fill="#121E3A"/>
<path d="M114.27 364.43C115.38 365.95 117.85 366.32 117.95 369.18C114 369.16 110.37 371.28 106.31 370.37C104.31 369.9 102.75 368.65 101.32 367.3C99.33 365.41 96.7198 363.37 101.92 362.16C103.71 361.74 103.54 359.93 103.76 358.46C104 356.88 105.54 356.32 106.15 357.48C107.97 360.96 112.63 360.91 114.25 364.43H114.27Z" fill="#0E1A39"/>
<path d="M144.15 396.37C139.28 398.25 134.7 397.45 130.71 394.31C129.67 393.49 125.83 391.81 130.29 389.78C130.75 389.57 130.29 387.31 130.25 386C130.54 384.72 131.08 383.83 132.62 384.43C138.27 386.62 139.27 387.51 143.16 393.8C143.65 394.6 144.62 395.2 144.16 396.37H144.15Z" fill="#0D1D40"/>
<path d="M166.73 374.89C170.96 377.53 173.23 381.72 175.69 385.77C177.23 388.3 176.59 389.38 173.65 389.42C169.31 389.48 166.01 387.38 163.31 384.32C162.46 383.36 160.67 381.18 164.47 381.6C165.75 381.74 165.15 380.39 165.07 379.76C164.84 377.84 165.24 376.21 166.74 374.89H166.73Z" fill="#0F1F41"/>
<path d="M174.32 355.61C177.28 359.2 180.24 362.79 183.2 366.38C177.09 369.23 168.34 365.54 168.11 360.02C168.92 359.13 168.36 358.16 168.3 357.21C168.16 355.04 167.95 352.32 170.28 351.65C172.94 350.89 173.41 353.79 174.32 355.61Z" fill="#0E1E3C"/>
<path d="M134.35 408.46C135.56 410.19 136.77 411.92 137.98 413.65C133.41 414.74 125.13 411.83 123.06 408.52C122.31 407.32 120.51 406.42 121.49 404.76C122.73 402.64 124.38 405.64 126.12 404.5V399C129.4 402.77 131.88 405.62 134.35 408.47V408.46Z" fill="#0A1738"/>
<path d="M206.14 348.97C206.31 350.67 206.09 351.9 203.86 351.17C202.34 350.67 200.78 350.32 199.24 349.9C194.96 348.66 192.56 345.86 192.17 341.39C192.68 340.94 192.9 340.36 193.08 339.71C193.61 337.81 192.16 334.87 194.97 334.21C197.33 333.65 197.75 336.61 199 337.93C202.03 341.14 204.39 344.88 206.14 348.97Z" fill="#0E1E3C"/>
<path d="M113.35 384.47C113.92 385.34 114.49 386.2 115.06 387.07C108.59 389.14 102.82 387.77 98.0099 383.1C95.4499 380.62 95.9799 379.08 99.2199 377.93C99.8499 377.71 99.1198 377.81 99.6998 377.9C101.94 378.22 101.78 373.37 104.69 375.58C108.01 378.11 112.36 379.67 113.35 384.48V384.47Z" fill="#0E1E3F"/>
<path d="M226.93 219.28C226.99 219.97 227.05 220.66 227.1 221.35C224.45 223.43 221.38 223.74 218.17 223.47C209.74 218.7 208.76 210.41 215.99 205.18C219.5 202.64 224.31 203.54 227.44 207.32C231.04 211.66 230.85 215.86 226.9 219.31C225.94 217.53 227 215.73 226.85 213.93C226.54 210.27 223.73 207.61 220.3 207.84C217.15 208.05 214.91 210.69 215.11 213.97C215.34 217.77 217.91 220.18 221.57 220.09C223.4 220.05 225.04 218.83 226.93 219.27V219.28Z" fill="#F1ECE6"/>
<path d="M156.16 228.51C156.02 233.99 153.35 238.15 149.26 239.29C143.94 240.77 140.33 239.04 137.11 233.47C136.56 229.37 138 226 140.94 223.23C144.77 219.61 150.46 220.3 153.76 224.78C154.63 225.97 155.36 227.27 156.15 228.51H156.16Z" fill="#F8F0ED"/>
<path d="M118.5 349.54C110.85 352.98 103.59 351.88 99.47 346.86C101.23 345.17 102.77 348.19 104.56 347.11C105.12 345.87 104.4 344.77 103.81 343.96C102.76 342.53 104.27 341.81 104.61 341.06C105.28 339.6 106.07 341.22 106.82 341.56C111.05 343.47 114.73 346.2 118.51 349.53L118.5 349.54Z" fill="#111A37"/>
<path d="M215.04 246.32C212.29 247.79 209.53 249.27 206.71 250.78C211.26 255.25 217.04 257.6 221.73 261.49C216.18 259.29 210.14 259.3 204.47 257.63C202.4 257.02 201.62 256.37 201.51 253.75C201.4 251.16 202.24 250.68 204.09 249.98C207.82 248.56 211.15 246.17 215.13 245.31C215.46 245.56 215.55 245.79 215.42 246.01C215.29 246.21 215.17 246.32 215.05 246.32H215.04Z" fill="#16233E"/>
<path d="M86.25 417.12C87.21 417.38 87.23 418.28 87.57 418.99C88.66 421.27 92.4601 423.4 90.8401 425.49C88.9901 427.87 85.1599 426.14 82.1999 425.67C79.6499 426.07 77.66 425.28 76.52 422.87C75.59 420.9 75.1299 419.16 78.1299 418.41C80.8199 417.73 82.79 412.93 86.25 417.12Z" fill="#0D1C39"/>
<path d="M161.24 398.5C161.89 399.44 162.68 400.31 163.15 401.33C165.58 406.59 164.33 408.41 158.45 408.32C156.94 406.57 153.43 406.83 153.5 403.53C153.53 402.38 151.53 399.99 155.05 400.53C155.75 400.64 156.58 399.99 156.18 399.38C154.74 397.14 156.73 396.11 157.88 395.69C160.02 394.9 159.39 398.36 161.24 398.51V398.5Z" fill="#0B1B39"/>
<path d="M108.31 401.87C98.3501 403.27 94.34 401.55 91.75 394.93C93.71 393.28 98.1901 396.58 98.3701 390.92C101.88 394.8 105.64 397.67 108.3 401.87H108.31Z" fill="#0B173A"/>
<path d="M48.25 411.49C47.82 410.49 47.1301 409.77 46.0801 409.44C48.0501 405.03 55.4299 402.26 57.3999 405.59C58.7299 407.83 60.2201 410.51 61.3301 413.36C58.3601 414.8 55.6299 412.98 52.9399 413.43C51.3799 412.79 49.81 412.14 48.25 411.49Z" fill="#092146"/>
<path d="M183.18 234.45C179.94 232.91 177.46 230.69 176 227.29C174.28 223.29 176.01 220.43 178.98 218.2C182.14 215.83 185.65 215.41 189.1 217.85C189.67 218.25 189.92 218.87 189.36 219.53C187.8 220.51 186.1 219.62 184.48 219.89C181.46 220.41 179.61 222 179.67 225.21C179.73 228.26 182.53 231.12 185.41 231.02C188.78 230.9 190.54 229.03 190.69 225.65C190.76 224.21 189.94 222.68 191.11 221.34C192.58 220.26 192.71 221.76 193.26 222.45C193.05 225.02 193.98 227.78 192.66 230.13C190.62 233.76 187.28 235.09 183.18 234.45Z" fill="#F7F3F0"/>
<path d="M151.16 379.42C148.51 379.42 145.85 379.44 143.2 379.45C140.26 378.43 137.19 377.67 134.41 376.31C131.6 374.93 130.04 372.69 132.53 369.59C132.74 369.33 132.96 369.09 133.19 368.85C134.88 367.07 133.14 362.78 137.04 362.85C139.76 362.9 141.09 365.94 143.34 367.31C146.27 369.08 148.75 371.58 151.56 373.58C154.79 375.87 154.91 377.73 151.15 379.43L151.16 379.42Z" fill="#EDE1DE"/>
<path d="M145.14 176.57C148.53 183.24 148.03 185.63 142.2 190.55C138.71 190.28 135.02 191.46 132.12 188.05C128.91 184.27 128.16 180.61 130.67 177.42C134.12 173.03 138.29 172.12 142.75 174.82C143.59 175.33 144.34 175.98 145.14 176.56V176.57Z" fill="#F4F0ED"/>
<path d="M85.27 406.75C86.97 406.5 89.5 407.64 89.49 404.22C89.49 403.01 91.1 403.94 91.77 404.53C94 406.49 96.24 408.43 98.3 410.56C99.13 411.42 100.57 412.57 99.7 413.88C99.25 414.55 97.63 414.61 96.53 414.66C91.14 414.88 87.05 412.06 85.27 406.76V406.75Z" fill="#0A1839"/>
<path d="M115.18 439.55C111.95 439.42 108.71 439.3 105.48 439.17C103.97 439.09 103.03 437.99 102.37 436.93C101.2 435.05 98.6199 433.11 103.38 431.61C105.29 431.01 106.44 428.07 109.31 429.8C112.87 431.95 115.12 435.06 116.28 438.98C116.4 439.37 115.71 439.66 115.17 439.55H115.18Z" fill="#0B1C3F"/>
<path d="M113.35 384.47C111.46 381.71 109.04 379.56 106.26 377.7C104.22 376.34 104.38 376.15 102.57 378.04C102.28 378.34 101.71 378.37 101.26 378.51C99.9499 378.92 97.7699 377.76 97.4599 379.77C97.1599 381.68 98.88 383.12 100.35 384.15C104.79 387.25 109.81 387.84 115.06 387.06C108.45 391.02 98.07 386.5 95.78 382.32C95.62 382.03 95.42 381.74 95.35 381.43C95.07 380.06 95.5498 377.76 96.3998 378.05C100.53 379.48 99.5399 369.65 104.93 374.43C107.13 376.38 110.23 377.25 111.98 379.8C112.92 381.16 114.82 382.35 113.35 384.46V384.47Z" fill="#EEE1DE"/>
<path d="M139.15 253.55C136.18 252.58 133.25 251.46 130.23 250.68C128.39 250.2 126.52 249.75 125.23 252.32C123.42 255.94 125.81 259.6 130.82 260.36C133.38 260.75 135.69 259.5 138.16 259.39C135.97 262.73 132.57 262.47 129.39 261.94C125.95 261.37 123.19 259.29 122.27 255.81C121.52 252.96 122.14 250.12 124.89 248.35C127.21 246.86 129.57 247.01 131.84 248.58C134.26 250.25 137.24 251.11 139.14 253.56L139.15 253.55Z" fill="#F1E7E2"/>
<path d="M122.25 427.65C117.35 429.8 113.72 427.09 110.08 424.45C108.42 417.59 111.44 414.59 120.2 414.41C122.22 417.62 124.35 420.77 126.24 424.06C127.77 426.72 127.44 427.15 124.15 427.64C123.77 424.91 122.23 422.77 120.64 420.62C119.59 419.2 118.47 418.2 116.57 418.27C114.26 418.35 115.27 421.48 113 421.93C112.24 422.08 113.77 423.29 114.35 423.9C116.5 426.14 120.1 425.38 122.25 427.66V427.65Z" fill="#EDE4E5"/>
<path d="M66.1202 395.48C66.4802 395.82 66.85 396.16 67.22 396.51C68.71 398.38 71.0501 399.54 72.0601 402.41C67.6501 402.55 63.5501 402.65 59.5701 400.67C57.8001 399.79 56.9501 398.6 57.3001 396.81C57.7801 394.36 59.3102 396.79 60.3602 396.33C62.1602 395.54 64.1002 395.06 66.1202 395.48Z" fill="#091538"/>
<path d="M114.27 364.43C111.86 363.8 110.57 360.93 107.33 361.57C105.67 361.9 107.24 358.39 104.75 357.77C103.39 359.4 106.49 365.02 100.53 363.16C99.4901 362.84 99.8301 364.8 100.46 365.4C102.32 367.15 104.35 368.73 106.32 370.38C103.13 370.74 100.98 368.68 99.2001 366.68C97.6901 364.98 96.8602 362.49 100.35 361.39C101.1 361.15 102.34 360.82 102.43 360.35C104.2 351.29 107.74 357.95 110.31 359.6C112.01 360.69 114.51 361.57 114.27 364.43Z" fill="#F1E6E2"/>
<path d="M135.16 293.04C130.01 290.73 124.72 288.83 119.22 287.53C117.1 287.03 115.14 286.63 115.46 290.04C115.74 292.93 113.09 290.7 112.21 291.69C112.11 291.21 112.01 290.72 111.9 290.24C112.07 288.64 112.25 287.03 112.43 285.43C116.11 282.93 119.42 285.13 122.51 286.59C126.78 288.6 132.23 288.41 135.16 293.04Z" fill="#F1E7E4"/>
<path d="M115.18 439.55C114.89 435.34 110.2 429.84 106.7 429.53C105.14 429.39 105.17 430.32 105.24 431.39C105.29 432.11 106.66 433.38 104.53 433.23C103.48 433.16 102.13 431.78 101.47 433.27C100.88 434.59 102.22 435.65 103.13 436.61C103.92 437.45 104.7 438.31 105.49 439.16C101.79 439.59 100.84 436.57 99.7099 434.19C98.3499 431.33 101.14 431.65 102.63 431.01C104.46 430.24 104.05 426.58 107.19 427.46C111.4 429.04 113.84 432.49 116.24 436C117.71 438.14 117.62 439.97 115.25 441.39C115.23 440.78 115.21 440.16 115.19 439.55H115.18Z" fill="#EDE2E0"/>
<path d="M206.14 348.97C202.56 344.23 198.98 339.49 195.23 334.52C193 336.23 194.13 338.31 194.5 340.24C195.13 343.52 193.47 342.07 192.17 341.39C191.17 339.63 192.39 337.87 192.19 336.08C191.96 334.03 193.06 332.44 194.87 331.81C197.39 330.92 197.05 333.56 197.91 334.72C200.32 337.97 202.73 341.23 205.14 344.49C205.48 345.98 205.81 347.48 206.15 348.97H206.14Z" fill="#EFE4E0"/>
<path d="M183.15 250.73C178.43 249.28 173.76 247.59 168.96 246.45C165.44 245.61 162.14 246.63 163.03 251.1C163.78 254.88 159.76 252.32 159.59 254.35C158.26 249.81 161.54 244.36 166 244.48C172.31 244.64 178.2 246.56 183.15 250.74V250.73Z" fill="#F1E5DF"/>
<path d="M168.14 310.6C164.91 308.53 160.59 308.85 157.88 305.36C156.84 307.64 156.7 309.62 157.6 311.36C159.26 314.55 156.76 313.5 155.43 313.69C155.31 313.57 155.08 313.43 155.1 313.33C155.74 309.81 153.44 303.76 157.36 303.41C160.78 303.11 165.93 306.04 168.14 310.59V310.6Z" fill="#F8EBE8"/>
<path d="M174.32 355.61C172.53 354.91 172.16 352.9 170.54 351.47C169.23 353.95 168.58 356.11 169.87 358.74C171.28 361.61 169.13 360.17 168.11 360.02C167.13 358.53 166.32 360.59 164.97 360.05C167.12 358.17 167.08 355.76 167.29 353.33C167.47 351.22 168.07 348.96 170.72 348.55C173.58 348.11 172.82 350.86 173.73 352.16C174.08 352.67 174.7 353 175.2 353.41C175.3 354.3 175.15 355.09 174.32 355.61Z" fill="#F5ECEA"/>
<path d="M194.14 292.8C191.32 290.99 187.48 291.19 185.25 288.23C184.81 287.64 184.22 287.4 183.61 287.94C182.51 288.9 182.21 290.16 182.63 291.51C183.33 293.76 184.06 295.93 180.24 295.22C181.43 293.56 181 291.91 180.62 290.05C179.97 286.92 182.67 284.31 184.6 285.78C187.73 288.16 192.64 288.31 194.14 292.81V292.8Z" fill="#F8EEE9"/>
<path d="M113.16 242.01C113 241.06 112.81 240.24 113.82 239.43C118.39 235.77 118.3 233.53 113.64 230.22C113 229.77 112.5 229.11 111.94 228.55C112.05 228.26 112.07 227.96 112 227.65C112.28 226.12 112.73 225.75 114.19 226.88C120.78 231.98 120.83 237.1 114.2 242.45C113.85 242.3 113.51 242.15 113.16 242V242.01Z" fill="#F5E8DF"/>
<path d="M86.2501 417.12C84.5101 417.37 81.5201 413.99 81.3301 418.81C81.3301 418.94 81.1801 419.12 81.0501 419.19C79.6401 419.86 76.6701 417.42 76.8101 420.88C76.9301 423.88 79.49 425.09 82.2 425.68C79.02 427.49 76.7902 426.44 75.6202 423.2C74.5602 420.27 74.1801 418.27 78.5301 416.75C81.7001 415.64 83.7401 412.85 86.2601 417.13L86.2501 417.12Z" fill="#F0E9E5"/>
<path d="M151.03 269.57C147.3 268.99 143.57 268.41 139.37 267.75C140.14 270.49 141.44 273.4 137.49 274.41C137.33 274.41 137.16 274.43 137 274.41C136.15 274.31 135.09 273.3 135.77 273.12C139.92 271.98 135.21 264.89 139.75 266.01C143.33 266.89 147.16 266.66 150.57 268.2C151.23 268.5 151.7 268.84 151.04 269.58L151.03 269.57Z" fill="#F7EAE3"/>
<path d="M181.96 267.59C180.51 267.51 178.99 267.68 177.65 267.26C176.47 266.89 175.25 265.54 174.33 267.06C173.56 268.32 174.83 269.57 175.7 270.45C177.87 272.63 177.49 273.63 174.45 273.71C173.94 273.24 172.17 274.21 172.8 273.16C173.71 271.64 173.89 270.79 172.83 269.33C171.82 267.95 171.53 266 173.05 264.88C174.62 263.73 176.66 263 178.3 265.08C179.32 266.37 180.9 266.26 182.24 266.76C182.3 266.78 182.32 267.08 182.27 267.22C182.22 267.36 182.07 267.47 181.96 267.6V267.59Z" fill="#F3EBE9"/>
<path d="M144.15 396.37C142.09 393.62 140.33 390.57 137.88 388.23C135.95 386.38 133.35 384.8 130.25 386.01C130.53 382.9 131.35 381.07 134.67 383.8C136 384.9 137.66 385.59 139.18 386.47C141.66 388.77 142.41 392.38 145.23 394.43C145.2 395.26 145.12 396.07 144.15 396.39V396.37Z" fill="#F0E7E5"/>
<path d="M215.04 246.32C215.07 245.99 215.09 245.65 215.12 245.32C218.52 242.92 221.91 240.52 225.31 238.12C226.43 241.07 223.41 241.02 222.21 242.02C220.08 243.79 217.8 245.52 215.04 246.32Z" fill="#5B2F30"/>
<path d="M246.14 217.41C246.23 217.92 246.32 218.43 246.41 218.93C244.56 221.2 243.74 224.63 239.92 224.7C241.99 222.27 244.07 219.84 246.14 217.4V217.41Z" fill="#4E2928"/>
<path d="M234.41 230.21C233.34 233.48 232.04 236.45 227.65 235.44C230.55 234.54 232.06 231.83 234.41 230.21Z" fill="#4E2729"/>
<path d="M224.65 264.43C228.03 264.87 230.1 266.84 231.16 270C228.78 268.38 226.5 266.66 224.65 264.43Z" fill="#502925"/>
<path d="M88.1202 91.5C89.8102 90.36 88.57 89.02 88.13 88.01C86.14 83.47 87.7 81.1299 92.41 80.4599C93.9 80.2499 95.29 79.7599 96.16 78.3899C96.29 75.9199 99.21 74.65 98.89 71.99C98.99 70.63 99.0101 69.2699 99.3101 67.9399C100.89 64.8199 96.53 63.42 97.16 60.58C97.13 60.25 97.1901 59.8601 97.0401 59.6001C92.7301 51.7801 92.7001 51.6699 102.01 49.4199C106.71 48.2899 110.02 44.0699 115.16 43.9299C116.78 43.8799 118.64 42.8099 119.76 44.3999C120.76 45.8099 120.13 47.5899 119.36 49.1499C116.96 53.9599 116.48 58.9299 117.92 64.1499C118.87 67.5899 117.97 70.2699 114.42 71.9399C112.19 72.9899 110.3 74.71 108.17 75.99C102.47 79.4 100.98 84.38 102.76 90.4799C103.43 92.7799 102.68 94.89 101.12 95.83C97.3002 98.12 95.28 102.08 91.9 104.77C89.08 107.02 87.88 110.3 88.91 114.09C90.2 118.81 88.6801 122.52 84.7801 125.4C83.0701 126.66 81.5301 126.21 81.4801 124.39C81.3101 118.74 79.4101 112.55 85.0401 108.17C90.6101 103.84 89.8201 98.2399 88.3101 92.4699C88.0501 92.2999 87.93 92.0901 87.97 91.8701C88 91.6301 88.06 91.51 88.13 91.51L88.1202 91.5Z" fill="#E9B89C"/>
<path d="M133.28 141.5C135.76 143.21 136.11 145.89 136.14 148.5C136.18 152.98 135.89 157.44 138.61 161.4C139.31 162.42 139.24 163.46 138.12 164.44C133.44 168.55 126.4 167.4 125.03 161.65C123.71 156.09 120.42 150.51 123.21 144.44C126.44 143.01 129.73 141.79 133.29 141.49L133.28 141.5Z" fill="#E9B89C"/>
<path d="M182.95 19.26C183.04 19.65 183.12 20.0299 183.21 20.4199C177.95 24.0399 171.51 24.09 165.76 26.24C164.5 26.62 163.23 26.57 161.96 26.3C141 32.82 120.05 39.3601 99.0701 45.8201C95.5001 46.9201 92.0199 48.55 88.1599 48.53C89.2599 47.87 87.59 44.9501 91.54 46.0801C95.41 47.1801 91.4301 43.25 92.5601 41.5C95.3401 45.5 98.3701 46.1901 101.31 41.5901C102.94 43.6301 104.37 41.9599 106.11 41.6499C112.58 40.4999 112.61 40.72 112.48 34.24C113.83 36.07 112.71 39.69 115.88 39.21C121.45 38.37 124.2 35.2601 124.42 30.0701C126.08 31.6801 124.64 35.22 127.62 35.3C130.02 35.36 130.09 33.05 130.14 31.28C132.03 31.35 130.18 34.4401 132.93 33.8301C136.32 33.0801 134.87 30.5401 135.32 28.5701C136.88 27.9301 135.65 37.3899 139.06 29.6799C139.52 28.6299 139.79 29.2799 140.21 29.8799C141.63 31.8899 143.82 30.53 143.87 29.52C144.09 25.51 145.09 28.3101 146.39 28.8401C148.11 29.5501 149.29 28.51 149.03 26.53C148.82 24.93 147.68 23.4499 148.46 21.6799C149.46 21.5499 149.02 22.4201 149.21 22.8201C149.95 24.4401 149.27 27.5099 151.98 27.1799C154.56 26.8599 152.44 23.99 153.5 22.3C154.89 23.23 153.71 26.27 156.11 26.05C158.34 25.85 157.66 23.4501 158.26 22.1201C159.96 22.3401 158.37 25.02 160.54 24.71C163.25 24.32 162.92 21.9401 163.24 20.1201C165.02 20.6001 163.28 23.6601 165.82 23.0701C169.65 22.1901 165.63 18.8101 167.75 17.3101C168.99 18.4101 167.66 22.03 170.2 21.47C172.45 20.97 170.42 17.8401 171.51 16.0601C173.24 17.1701 171.42 20.83 174.45 20.71C177.16 20.6 175.46 17.6101 176.63 16.3501C177.97 17.2001 176.39 20.0401 178.44 19.8201C180.57 19.5801 180.04 17.2499 179.93 15.6699C179.8 13.7699 178.8 11.88 180.17 9.45996C181.54 11.9 180.89 14.2399 181.18 16.3999C181.35 17.6299 180.83 19.26 182.97 19.23L182.95 19.26Z" fill="#5C1B1F"/>
<path d="M110.17 135.45C109.9 137.53 111.07 140.4 108.65 142.49C107.32 143.64 106.42 145.75 104.26 145.25C101.88 144.7 100.86 142.55 100.42 140.46C99.78 137.41 99.53 134.27 99.22 131.16C98.95 128.52 99.2001 125.52 102.56 125.79C105.54 126.03 109.61 125.89 110.15 130.52C110.32 131.99 110.18 133.5 110.18 135.46L110.17 135.45Z" fill="#E9B89C"/>
<path d="M161.96 26.3C162.83 25.35 164 25.55 165.1 25.48C169.79 30.53 175.78 34.1499 180.32 39.3999C182.8 42.2699 185.33 45.04 186.97 48.5C187.12 51.19 188.47 53.72 188.05 56.49C184.25 55.35 181.16 53.03 178.2 50.5C175.85 47.37 173.93 43.99 172.19 40.49C171.99 36.44 168.99 34.04 166.5 31.53C164.86 29.87 163.28 28.2201 161.97 26.3101L161.96 26.3Z" fill="#C2B9A0"/>
<path d="M182.41 199.15C182.07 200.41 181.87 201.73 181.38 202.93C180.38 205.37 178.31 206.44 175.82 206.35C173.24 206.26 172.56 204.41 171.82 202.11C170.44 197.78 172.29 193.96 173.03 190C173.44 187.84 175.52 186.71 177.56 186.72C179.63 186.72 179.9 188.79 180.15 190.41C180.61 193.36 182.49 195.96 182.41 199.15Z" fill="#E9B89C"/>
<path d="M120.12 166.62C119.52 167.21 118.92 167.79 118.32 168.38C114.49 171.15 110.16 170.83 107.41 167.56C105.01 164.71 105.46 159.45 108.34 156.69C111.35 153.8 115.64 153.53 118.68 156.04C122.72 159.38 123.12 162.37 120.11 166.62H120.12Z" fill="#0D2B4E"/>
<path d="M191.12 221.34C191.42 222.29 191.83 223.21 191.99 224.18C192.75 228.7 190.45 232.13 186.44 232.56C182.21 233.02 178.28 229.51 178.19 225.2C178.1 220.88 181.43 218 186.08 218.51C187.2 218.63 188.27 219.17 189.37 219.52C189.96 220.12 190.54 220.72 191.12 221.33V221.34Z" fill="#0F274A"/>
<path d="M207.57 159.13C213.75 159.79 214.6 160.81 215.43 168.47C215.31 169.02 215.19 169.58 215.07 170.13C211.81 174.74 207.49 175.82 203.79 172.95C200.19 170.15 199.91 164.2 203.21 160.51C204.39 159.19 205.72 158.35 207.57 159.13Z" fill="#0A2140"/>
<path d="M180.01 178.41C179.75 178.71 179.48 179 179.22 179.3C175.83 183.38 172.86 183.92 169.04 181.13C165.63 178.63 164.89 173.97 167.27 169.98C169.22 166.71 172.87 165.61 176.33 167.23C180.72 169.29 182.04 173.29 180.01 178.42V178.41Z" fill="#0A2443"/>
<path d="M151.14 202.18C151.11 196.8 154.25 192.55 158.27 192.53C163.97 192.51 169.98 198.2 170.12 203.77C170.23 208.2 165.73 212.54 161.08 212.48C155.92 212.41 151.17 207.5 151.14 202.19V202.18Z" fill="#F2E6DE"/>
<path d="M88.1201 91.4999C88.1401 91.8299 88.2 92.1499 88.3 92.4699C87.87 95.3499 89.1099 98.3998 87.1399 101.14C84.2299 105.21 80.6599 106.38 75.9099 104.58C71.5899 102.94 68.84 98.83 69.26 94.6C69.61 90.98 74.03 85.8898 77.57 85.6698C82.16 85.3898 84.7801 89.2099 88.1201 91.4899V91.4999Z" fill="#F3EEE8"/>
<path d="M133.28 141.5C130.35 143.96 127.01 144.99 123.2 144.45C117.4 139.97 115.64 135.84 117.5 131.11C119.37 126.37 123.2 124.37 127.72 125.78C133.61 127.62 136.53 132.46 134.93 137.87C134.56 139.13 133.84 140.28 133.29 141.49L133.28 141.5Z" fill="#F1E6DD"/>
<path d="M120.12 166.62C121.96 163.19 121.93 159.95 118.87 157.23C116.17 154.82 113.16 154.95 110.18 156.71C107.24 158.45 106.4 161.15 107.12 164.37C108.11 168.81 112.75 170.45 118.32 168.37C116.53 171.61 113.71 172.27 109.47 170.45C105.11 168.57 102.7 162.68 104.68 158.72C107.23 153.63 113.36 151.45 117.97 153.99C122.56 156.52 124.35 161.77 121.99 165.86C121.6 166.54 121.16 167.41 120.11 166.61L120.12 166.62Z" fill="#F6F1ED"/>
<path d="M172.19 40.4801C175.84 42.8301 177.55 46.3401 178.2 50.4901C177.38 55.8101 173.84 58.3302 168.92 59.0402C163.86 59.7702 161.07 56.7301 159.22 52.4901C159.48 43.2701 162.65 40.3401 172.2 40.4801H172.19Z" fill="#F2EEE8"/>
<path d="M136.14 51.61C141.27 58.79 140.73 61.77 133.21 67.55C125.96 67.44 121.65 64.6898 121.22 59.8798C120.47 51.5798 127.54 47.66 136.15 51.61H136.14Z" fill="#EFE8E3"/>
<path d="M180.01 178.41C180.02 175.69 181.09 172.9 178.74 170.43C175.93 167.47 172.97 166.52 169.53 169.06C166.52 171.29 166.07 176.5 168.47 179.38C171.01 182.42 174.8 182.75 178.07 180.2C178.45 179.9 178.83 179.6 179.21 179.3C178.68 183.75 175.37 183.87 172.18 183.42C167.78 182.81 164.87 179.99 164.38 175.62C163.92 171.53 166.03 167.94 169.52 166.1C172.67 164.44 176.27 164.99 179.22 167.5C182.24 170.07 182.47 173.43 181.82 176.96C181.69 177.64 181.62 179.21 180.01 178.41Z" fill="#F1ECE8"/>
<path d="M194.25 205.45C189.18 205.45 185.18 201.14 185.16 195.65C185.14 191.48 189.58 187.34 193.97 187.43C199.2 187.54 203.27 191.85 203.13 197.14C203.01 201.52 198.81 205.45 194.25 205.45Z" fill="#F6F0EB"/>
<path d="M109.03 120.3C107.7 124.53 104.15 123.65 101.16 123.48C97.2098 123.25 95.63 120.1 94.54 116.89C93.08 112.58 96.0199 107.12 100.77 105.19C104.88 103.52 107.94 105.57 110.17 108.65C113.36 113.05 112.79 116.98 108.98 120.33C107.96 118.67 109.09 117.13 109.24 115.53C109.58 111.86 107.45 109.04 104.2 108.87C100.89 108.7 97.8598 111.76 97.9298 115.21C98.0098 118.78 100.92 121.09 104.74 120.59C106.16 120.4 107.52 119.31 109.02 120.29L109.03 120.3Z" fill="#F8F3ED"/>
<path d="M97.1599 60.5902C98.0499 63.0202 102.8 63.7 100.38 67.64C98.7599 67.05 98.06 65.2901 96.55 64.5701C93.63 63.1601 91.05 63.71 88.99 66.16C87 68.51 86.98 71.1202 89.02 73.3502C91.07 75.5802 93.6399 75.6601 96.2099 74.0301C97.4399 73.2501 98.4101 71.9602 100.09 72.0802C100.46 75.2302 98.1299 76.71 96.1599 78.41C91.4599 78.98 87.0601 78.5001 84.6001 73.8001C82.6401 70.0401 84.4199 64.6001 87.9199 61.2301C90.9399 58.3201 94.0099 59.7602 97.1599 60.6002V60.5902Z" fill="#F4F2EE"/>
<path d="M168.15 119.57C173.34 127.31 171.71 132.55 163.19 135.51C154.42 135.43 150.88 127.25 154.7 121.43C157.7 116.85 161.74 116.2 168.14 119.58L168.15 119.57Z" fill="#EFE9E5"/>
<path d="M126.18 81.5199C125.97 85.0199 128.72 89.2999 123.57 91.5099C123 89.8499 123.87 88.2598 123.79 86.6298C123.63 83.4098 122.17 81.2399 118.8 80.9799C115.59 80.7299 113.3 82.1199 112.76 85.4599C112.25 88.6299 113.49 90.9198 116.72 91.8898C118.27 92.3498 120.05 92.06 121.35 93.33C121.64 95.94 119.58 95.28 118.21 95.6C112.77 94.46 108.23 90.48 108.36 86.56C108.52 81.64 111.53 78.81 115.93 77.09C120.88 75.16 123.04 79.4099 126.18 81.5199Z" fill="#F2EEEA"/>
<path d="M158.1 149.63C158.16 150.67 158.39 151.75 157.5 152.6C156 152.49 155.33 151.19 154.31 150.39C152.11 148.65 149.71 148.21 147.51 150.1C145.06 152.21 144.79 155.09 146.3 157.78C147.7 160.28 150 161.55 153.03 160.47C154.42 159.98 155.51 158.76 157.11 158.78C156.81 163.94 152.76 163.82 149.2 164.39C142.15 160.81 140.13 157.15 142.01 151.39C144.12 144.93 149.6 143.1 155.1 147.07C156.16 147.84 157.1 148.77 158.1 149.63Z" fill="#F0EFED"/>
<path d="M68.5601 76.47C70.3001 74.84 71.56 73.23 71.23 70.94C71.01 69.39 72.02 68.58 73.3 67.96C74.96 67.16 76.13 67.9001 77.22 69.0401C77.68 69.5101 78.27 69.93 78.53 70.5C79.4 72.37 81.9099 73.8199 80.9099 76.1299C79.7999 78.6999 77.1199 77.29 75.1599 77.43C73.1299 77.57 70.93 77.96 68.55 76.48L68.5601 76.47Z" fill="#E9B89C"/>
<path d="M87.3999 153.39C87.6699 151.32 89.2101 152.74 90.1101 152.45C93.3901 151.41 95.53 149.33 96.29 145.99C96.93 143.16 96.2 140.64 93.72 139C90.7 137 87.51 137.54 85 139.76C81.24 143.08 81.8 139.53 81.2 137.66C84.75 136.69 87.92 133.86 91.99 135.36C96.69 137.1 99.1399 141.36 98.1299 145.94C97.0699 150.73 93.0699 153.51 87.4099 153.39H87.3999Z" fill="#F3EBE5"/>
<path d="M207.57 159.13C203.68 160.21 201.95 162.93 201.89 166.81C201.85 169.76 203.3 171.95 205.93 173.08C209.72 174.7 212.57 172.82 215.07 170.13C215.07 170.9 215.08 171.67 215.09 172.43C208.78 178.62 200.52 174.93 199.34 167.35C198.55 162.27 203.1 156.95 207.86 157.38C208.37 157.43 209.37 157.1 209.13 158.1C209.03 158.54 208.11 158.79 207.57 159.13Z" fill="#EFEBE4"/>
<path d="M224.2 179.42C224.52 179.52 224.83 179.62 225.15 179.71C225.27 180.51 226.87 181.73 225.29 182.01C220.85 182.78 219.18 185.37 220.39 189.36C221.7 193.66 225.41 194.05 229.28 193.51C229.61 193.46 229.94 193.45 230.27 193.42C231.1 193.78 232.67 194.23 231.08 195.18C227.35 197.41 220.75 194.88 218.86 190.77C216.48 185.57 218.45 181.37 224.19 179.42H224.2Z" fill="#EFEDE9"/>
<path d="M59.1001 85.5099C60.3301 84.5199 61.7 83.6499 62.77 82.5099C65.34 79.7699 66.6701 76.5298 64.3101 73.1298C62.1401 69.9998 59.08 68.6699 55.25 70.4899C54.61 70.7899 53.8901 71.6099 53.0601 70.7499C54.6701 67.0999 57.89 66.6799 60.97 67.6999C64.49 68.8699 67.27 71.16 67.3 75.55C67.33 80.62 64.2601 84.4899 59.1001 85.5099Z" fill="#F1EBE5"/>
<path d="M84.1699 49.4199C82.7399 47.4599 85.05 45.42 84.05 43.45C85.85 44.79 85.2499 48.12 88.2299 48.47C87.1899 50.12 85.5099 49.0399 84.1699 49.4199Z" fill="#5C1B1F"/>
<path d="M62.0901 92.54C61.8801 92.17 61.67 91.7899 61.46 91.4199C62.46 90.6499 63.45 89.8801 64.51 89.0601C66.01 92.0601 64.2701 92.46 62.0901 92.54Z" fill="#E9B89C"/>
<path d="M158.37 71.5199C158.96 72.1199 159.55 72.72 160.14 73.32C163.03 77.83 162.53 81.4699 158.62 84.4299C155.63 86.6899 150.99 86.41 148.69 83.83C145.72 80.5 145.36 74.9099 147.92 71.9499C150.58 68.8799 154.66 68.7099 158.36 71.5199H158.37Z" fill="#081F41"/>
<path d="M157.11 158.78C154.66 161.52 151.99 163.58 148.07 161.59C145.12 160.09 143.65 157.71 143.95 154.37C144.24 151.13 145.72 148.48 148.92 147.66C153.13 146.58 155.81 148.91 157.5 152.6C158.32 154.72 157.42 156.73 157.12 158.78H157.11Z" fill="#0B223F"/>
<path d="M121.35 93.3301C117.62 94.5001 114.45 93.7199 112.23 90.3899C110.4 87.6399 110.43 84.7301 112.44 82.0901C114.64 79.2101 117.78 78.7799 120.92 79.9399C123.98 81.0699 125.5 83.5499 125.31 86.9499C125.21 88.6799 124.42 90.1 123.56 91.51C122.82 92.12 122.08 92.7301 121.34 93.3301H121.35Z" fill="#0A2C4E"/>
<path d="M147.09 110.6C146.79 111.03 146.48 111.47 146.18 111.9C141.98 115.29 138.94 115.22 135.41 111.65C132.45 108.66 132.26 104.18 134.94 100.83C137.47 97.6801 141.61 96.8501 144.72 98.8701C148.49 101.32 149.48 106.18 147.1 110.6H147.09Z" fill="#0D2546"/>
<path d="M186.91 155.58C181.26 155.58 178.12 152.37 178.1 146.62C178.09 141.48 183.33 134.69 187.36 134.62C190.76 134.56 196.3 141.92 196.26 146.45C196.2 152.31 192.84 155.6 186.91 155.59V155.58Z" fill="#F1E5DD"/>
<path d="M185.16 99.1599C185.06 104.42 181.9 107.6 176.84 107.53C171.5 107.45 167.21 103.24 167.24 98.1101C167.26 94.0701 172.27 88.6801 176.07 88.6001C180.98 88.5001 185.26 93.4699 185.15 99.1599H185.16Z" fill="#F3ECE8"/>
<path d="M147.09 110.6C147.4 109.49 147.94 108.38 147.99 107.26C148.15 103.85 146.93 100.96 143.69 99.5401C140.83 98.2801 138.11 99.05 136.07 101.46C133.96 103.96 133.41 106.79 135.09 109.75C136.84 112.84 139.57 114.12 143.05 113.38C144.15 113.15 145.13 112.41 146.17 111.9C144.67 115.8 141.75 115.74 138.43 114.74C133.81 113.35 131.55 109.87 131.66 105.45C131.75 101.74 133.69 98.33 137.5 96.9C141.34 95.46 144.65 96.5399 147.17 99.8799C149.7 103.24 150.06 106.81 148.34 110.6C148.27 110.75 147.52 110.6 147.09 110.6Z" fill="#F3EFE9"/>
<path d="M158.37 71.5201C155.53 70.0601 152.62 69.56 149.94 71.66C147.67 73.43 146.79 75.9601 147.41 78.7901C148.09 81.9101 149.87 84.35 153.06 85.19C155.73 85.9 157.98 84.5702 159.67 82.5902C162.15 79.6902 161.86 76.5102 160.15 73.3202C162.12 74.6402 163.3 76.5401 162.99 78.4501C162.43 81.9301 160.66 85.0202 157.37 86.1002C154.17 87.1502 150.33 87.7502 147.79 84.3302C145.08 80.6902 143.77 76.5301 146.08 72.2701C148.05 68.6401 151.62 67.7401 155.53 68.5001C157.06 68.8001 158.92 69.1201 158.38 71.5201H158.37Z" fill="#F3EBE7"/>
<path d="M188.95 61.6101C189.15 62.7301 189.58 63.8299 187.93 64.3799C183.45 65.8799 182.25 69.3999 183.56 73.4099C184.7 76.9199 187.49 78.49 191.4 77.02C192.31 76.68 192.15 77.7601 192.27 78.3301C187.59 80.3501 183.81 79.0299 181.84 74.6899C179.67 69.8999 181.41 64.22 185.65 62.5C186.7 62.07 187.85 61.8901 188.95 61.6001V61.6101Z" fill="#F0ECE8"/>
<path d="M199.04 109.72C199.41 110.79 199.79 111.85 200.31 113.33C196.99 112.72 193.94 112.31 192.28 115.69C190.85 118.59 190.88 121.51 192.65 124.24C194.52 127.11 197.27 127.08 200.19 126.17C199.24 129.08 197.18 128.84 195.04 127.86C190.62 125.83 188.78 122.29 189.14 117.47C189.46 113.02 192.38 111.34 196.21 110.49C197.17 110.28 198.11 109.97 199.06 109.71L199.04 109.72Z" fill="#F2EDE9"/>
<path d="M157.27 420.42C156.54 422.36 155.82 424.3 155.09 426.23C154.57 432.14 151.87 436.87 147.17 440.4C145.38 441.75 143.38 443.3 140.99 441.3C141.4 439.19 142.78 438.8 144.63 439.24C149.12 436.03 151.93 431.73 153 426.3C152.11 424.2 150.12 425.25 148.66 424.76C145.86 423.82 143.16 422.52 143.93 418.95C144.9 414.48 148.57 411.61 151.78 412.85C155.28 414.19 154.71 417.47 154.43 420.42C154.63 421.593 155.577 421.593 157.27 420.42Z" fill="#111F3A"/>
<path d="M144.63 439.24C143.4 439.86 141.99 440.2 141.22 441.52C140.18 445.17 137.13 445.2 134.18 445.42C131.24 446.13 128.3 446.83 125.36 447.54C124.99 447.22 124.62 446.91 124.25 446.59C128.32 446.22 130.48 441.97 134.52 441.49C134.82 441.45 135.18 440.78 135.27 440.36C135.7 438.4 132.14 435.98 135.64 434.5C138.37 433.34 136.69 430.47 138.61 429.01C141.65 430.17 142.8 432.72 142.97 435.9C143.04 437.28 143.25 438.54 144.64 439.25L144.63 439.24Z" fill="#12233B"/>
<path d="M122.25 427.65C117.09 427.33 112.41 426.23 110.44 420.53C111.73 419.29 112.53 420.94 113.73 420.87C114.63 419.59 111.88 417.51 113.96 416.88C115.72 416.35 118.77 416.3 119.65 417.37C121.81 419.98 124.32 422.55 125.42 425.93C125.74 426.93 125.02 427.4 124.14 427.65C123.51 427.65 122.88 427.65 122.24 427.65H122.25Z" fill="#091839"/>
<path d="M154.43 420.42C153.1 418.44 155.92 414.98 150.61 414.08C144.44 413.03 145.71 418.07 144.81 420.01C143.67 422.46 147.29 423.43 149.55 424.48C150.68 425.01 153.81 422.24 152.99 426.31C151.73 426.01 150.48 425.61 149.2 425.45C143.71 424.74 141.88 421.52 144.42 416.59C145.43 414.63 144.87 411.57 148.57 411.33C154.1 410.98 156.16 413.95 154.43 420.42Z" fill="#ECDFDE"/>
<path d="M66.29 387.38C67.06 382.74 71.6599 386.61 73.4199 384.17C74.5199 386.36 77.5899 386.81 78.1399 389.43C78.3899 390.63 77.5999 391.25 76.4199 391.3C72.4599 391.47 68.51 391.59 66.25 387.35L66.28 387.38H66.29Z" fill="#15203E"/>
<path d="M79.5901 379.97C75.7301 380.89 74.04 379.16 73.99 376.76C73.94 374.36 77.46 374.57 78.43 372.56C80.82 374.02 83.7301 375.89 83.8101 378.44C83.8901 381.29 80.4301 379.56 79.6001 379.97H79.5901Z" fill="#172444"/>
<path d="M186.97 48.49C183.36 44.64 179.75 40.7899 176.15 36.9299C173.54 34.1399 170.73 31.5901 167.44 29.6101C165.89 28.6801 164.05 27.88 165.11 25.47C170.9 22.92 177.12 21.8999 183.21 20.4199C184.16 27.5899 185.12 34.7499 186.07 41.9199C186.24 43.1899 185.89 44.62 187.22 45.52C187.14 46.51 187.05 47.51 186.97 48.5V48.49Z" fill="#94A490"/>
<path d="M131.43 209.76C131.39 213.83 127.96 216.8 123.35 216.76C118.89 216.72 115.85 213.94 115.79 209.86C115.73 205.71 119.13 202.47 123.53 202.49C127.89 202.51 131.47 205.81 131.43 209.77V209.76Z" fill="#123356"/>
<path d="M226.93 219.28C222.11 222.53 218.41 222.48 215.6 218.92C213.22 215.91 212.72 212.55 214.98 209.28C217.19 206.09 220.5 205.6 223.82 207.02C227.44 208.57 228.88 211.66 228.13 215.57C227.89 216.85 227.32 218.07 226.9 219.32L226.93 219.28Z" fill="#0C2B4A"/>
<path d="M147.01 223.36C151.04 223.36 154.4 226.53 154.46 230.43C154.53 234.52 151.05 237.72 146.64 237.61C142.86 237.52 139.44 234.38 139.3 230.88C139.15 227.11 142.99 223.37 147.01 223.37V223.36Z" fill="#102E52"/>
<path d="M137.68 364.01C137.82 369.08 142.39 367.8 144.43 370.27C146.44 372.7 149.88 373.88 151.97 376.54C147.74 379.16 136.92 377.66 133.84 374.04C132.71 372.72 132.93 371.9 134.81 372.02C136.91 372.15 136.06 371.03 135.79 370.35C134.98 368.27 135.35 366.5 137.68 364V364.01Z" fill="#0F1A3A"/>
<path d="M138.26 175.52C142.14 175.44 145.73 178.68 145.94 182.45C146.14 186.01 142.78 189.36 139 189.38C135.43 189.4 132.32 186.18 132.16 182.31C131.99 178.22 134.34 175.61 138.26 175.52Z" fill="#0C2546"/>
<path d="M100.09 72.0702C98.6302 73.8302 97.43 75.95 94.94 76.41C91.27 77.08 88.3001 75.92 86.7601 72.43C85.2301 68.96 86.1401 65.8101 89.3101 63.7601C92.3201 61.8201 95.59 61.5701 98.39 64.2801C99.29 65.1501 99.73 66.5 100.39 67.63C100.29 69.11 100.2 70.5902 100.1 72.0702H100.09Z" fill="#0C2D52"/>
<path d="M161.49 196.38C165.66 196.7 168.65 200.28 168.19 204.55C167.75 208.65 165.39 210.77 161.25 210.63C156.77 210.48 153.43 206.7 153.9 202.45C154.33 198.55 157.43 196.06 161.49 196.37V196.38Z" fill="#0D2743"/>
<path d="M86.82 96.28C86.96 100.57 84.1098 103.62 79.8898 103.7C75.5698 103.78 72.3799 100.95 72.2499 96.94C72.1099 92.56 75.2398 88.7999 79.1598 88.6399C83.0698 88.4799 86.68 92.08 86.82 96.29V96.28Z" fill="#0D2543"/>
<path d="M127.04 128.66C130.79 128.79 133.94 132.05 133.89 135.76C133.84 139.85 130.29 142.9 125.89 142.64C121.94 142.41 119.05 139.28 119.28 135.49C119.51 131.7 123.12 128.53 127.03 128.66H127.04Z" fill="#0C2947"/>
<path d="M176.18 50.3501C176.08 54.4401 172.86 57.57 168.87 57.44C164.74 57.31 161.74 54.08 161.95 49.99C162.16 45.86 165.72 42.43 169.69 42.52C173.5 42.61 176.28 45.9701 176.18 50.3501Z" fill="#092141"/>
<path d="M123.82 58.8402C123.86 55.0802 126.77 51.97 130.29 51.91C134.21 51.84 137.46 55.2302 137.42 59.3502C137.38 63.1002 134.53 65.87 130.7 65.88C126.86 65.88 123.78 62.7302 123.82 58.8502V58.8402Z" fill="#09274B"/>
<path d="M195.15 203.58C191.34 203.66 187.66 200.29 187.46 196.56C187.27 193.08 190.26 190 194.02 189.79C198.04 189.56 201.41 192.73 201.43 196.75C201.45 200.68 198.85 203.51 195.15 203.58Z" fill="#0E2C51"/>
<path d="M109.03 120.3C106.77 121.13 104.75 122.77 102.06 122.09C98.3401 121.15 95.8401 117.51 96.5801 113.91C97.4601 109.62 101.88 106.61 105.76 107.64C109.23 108.56 111.4 112.41 110.48 116.22C110.14 117.63 109.5 118.97 108.99 120.34L109.03 120.3Z" fill="#0F3153"/>
<path d="M162.23 119.59C166.09 119.45 169.71 122.82 169.8 126.64C169.89 130.33 166.76 133.42 162.8 133.54C158.9 133.66 155.73 130.72 155.62 126.87C155.5 122.95 158.43 119.73 162.23 119.58V119.59Z" fill="#092345"/>
<path d="M187.42 154.32C183.85 154.36 180.44 151.06 180.28 147.4C180.1 143.09 184.09 138.92 188.32 139C192.06 139.08 195.11 142.25 195.14 146.1C195.17 150.19 191.33 154.28 187.42 154.32Z" fill="#0A2345"/>
<path d="M177.26 105.64C173.02 105.55 169.99 102.5 170.07 98.3799C170.15 94.0999 173.29 90.98 177.31 91.18C180.84 91.36 184.08 94.9402 184.03 98.6102C183.97 102.77 181.14 105.72 177.26 105.64Z" fill="#092244"/>
</svg>
