<svg width="260" height="455" viewBox="0 0 260 455" fill="none" xmlns="http://www.w3.org/2000/svg">
<path d="M49 347.45C50.61 345.15 52.12 342.78 53.85 340.57C68.83 321.37 81.18 300.56 90.11 277.94C96.3 262.26 98.0901 245.54 98.2901 228.71C100.61 229.05 100.17 231.22 100.91 232.62C101.52 234.36 100.98 236.23 101.51 238.22C103.79 236.5 101.2 233.13 103.9 231.8C106.54 230.88 109.29 231.46 111.97 231.17C114.39 231.13 116.83 230.99 119.18 231.73C119.47 231.85 119.82 231.97 119.98 232.22C122.207 235.593 124.543 235.463 126.99 231.83C132.83 229.52 138.85 228.07 145.14 227.9C147.6 228.87 145.61 230.96 146.54 233.14C146.79 227.8 152.05 230.26 153.73 227.37C160.68 224.25 167.89 222.05 175.43 220.93C177.08 221.4 177.66 223.27 179.56 223.95C180.57 222.55 179.56 220.43 180.93 219.17C188.74 214.46 197.17 211.01 205.54 207.49C211.81 204.85 217.58 201.31 223.69 198.42C225.98 197.88 228.26 197.43 230.08 199.56H230.13C230.43 199.94 230.53 200.36 230.43 200.82C229.52 202.71 227.83 203.93 226.48 205.45C224.3 207.38 222.05 209.23 219.86 211.16C219.03 211.9 218.23 212.68 217.39 213.42C214.62 215.29 212.26 217.68 209.52 219.58C205.16 223.18 199.92 225.55 195.84 229.53C194.81 230.55 193.58 231.24 192.25 231.77C187.13 233.86 182.37 236.52 178.49 240.56C172.71 246.59 171.57 253.01 175.09 260.68C177.54 266.01 180.9 270.85 184.89 275.06C194.84 285.55 205.22 295.64 216.18 305.08C219.73 305.33 220.4 301.36 223.1 300.36C224.54 300.38 225.28 301.14 225.41 302.53C222.14 306.75 219.55 311.83 213.23 312.23C212.08 312.3 211.27 313.03 211.12 314.03C210.37 318.73 206.82 321.46 203.63 324.21C197.76 329.28 192.51 334.97 186.76 340.15C184.39 341.18 181.94 341.61 179.37 341.22C176.33 340.59 174.1 338.45 171.56 336.92C168.89 335.31 166.46 334.88 163.79 337.07C161.51 338.94 158.96 339.54 156.93 336.57C155.06 333.84 155.9 331.02 158.93 328.92C154.66 327.24 151.23 323.91 146.97 322.02C144.7 321.01 142.64 319.8 139.91 320.11C136.75 320.47 134.78 317.68 135.29 315.51C135.92 312.83 133.87 313.18 133.35 312.41C133.18 318.74 131.75 325.16 130.76 331.64C130.63 332.49 129.86 332.99 128.86 332.76C128 332.12 127.51 331.25 127.24 330.24C127.06 325.31 128.08 320.43 128.08 315.09C126.32 316.3 126.54 317.9 126.33 319.22C124.21 332.5 121.42 345.65 118.8 358.83C118.43 360.68 118.7 362.95 116.35 363.89C115.49 363.72 114.91 363.2 114.53 362.44C113.86 359.24 114.79 356.17 115.4 353.1C117.66 341.7 119.94 330.3 121.73 318.8C121.91 317.65 122.1 316.51 122.27 315.36C122.76 312.1 121.19 310.15 118.14 309.66C114.82 309.12 115.02 312.08 114.67 314C112.51 325.76 110.4 337.53 108.43 349.33C106.85 358.83 105.37 368.35 103.08 377.72C102.62 379.59 102.64 381.77 100.55 382.88C99.6501 382.83 99.04 382.34 98.6 381.6C97.89 379.6 98.49 377.64 98.88 375.71C103.25 354.21 106.28 332.46 110.43 310.92C110.83 308.83 111.49 306.68 109.17 305.06C105.73 302.65 103.12 303.42 101.69 307.46C101.25 308.7 101.07 310.07 99.7901 310.84C98.9401 311.02 98.3301 310.61 97.8101 310.01C97.4901 309.43 97.4 308.79 97.33 308.13C97.05 305.51 99.87 302.03 95.46 300.52C91.66 299.22 87.84 298.44 85.37 302.95C84.62 302.86 84.06 302.45 83.62 301.87C83.17 301.61 83 299.7 82.19 301.39C78 310.07 71.33 317.67 70.58 327.88C70.47 329.41 70.35 331.29 68.34 331.93C67.58 331.81 67.05 331.38 66.65 330.74C66.24 329.78 66.31 328.8 66.65 327.55C63.59 332.05 60.99 336.55 57.64 340.51C54.86 343.79 53.9 347.83 52.83 351.85C52.35 353.65 52.77 356 50.35 356.88C49.35 356.53 48.92 355.71 48.62 354.79C48.44 352.77 48.91 350.74 48.62 348.71C48.64 348.25 48.77 347.83 49.02 347.45H49Z" fill="#112232"/>
<path d="M225.03 302.41C224.38 301.82 223.74 301.23 223.09 300.64C219.14 299.52 216.41 296.97 214.55 293.39C213.76 292.39 212.89 291.45 212.19 290.39C211.59 289.51 210.79 288.83 209.89 288.26C204.38 283.7 199.7 278.29 194.53 273.38C193.71 272.55 192.93 271.68 192.24 270.74C188.05 265.75 183.93 260.73 181.84 254.41C181.44 253.11 180.82 251.89 180.29 250.64C179.62 250.23 180.57 248.61 178.97 248.95C178.76 249.73 178.53 250.47 178.29 251.22C177.61 252.95 177.3 254.67 178.3 256.39C179.08 258.18 179.84 259.94 180.87 261.63C182.23 263.87 181.66 265.73 178.51 265.77C169.91 256.9 171.52 243.57 182.1 236.67C185.43 234.49 188.9 232.51 192.38 230.58C193.26 230.11 194.14 229.65 195.01 229.18C198.01 226.7 201.12 224.39 204.76 222.91C207.54 223.9 209.44 222.63 211.32 220.68C213.15 218.77 215.3 217.45 217.52 220.37C217.51 222.68 215.47 223.36 214.11 224.58C211.87 226.21 209.6 227.8 207.26 229.28C209.61 227.86 211.87 226.3 214.05 224.63C215.99 223.44 217.46 221.65 219.41 220.47C222.95 218.78 224.34 214.74 227.7 212.85C230.4 212.3 231.65 210.09 233.08 208.11C234.57 204.59 229.47 203.74 230.04 200.6C230.07 200.24 230.09 199.89 230.12 199.53C232.16 199.51 233.36 200.91 234.56 202.24C245.63 214.58 254.61 228.07 257.94 244.68C261.3 251.05 258.79 257.33 257.26 263.43C254.89 272.84 248.68 280.15 242.55 287.33C238.47 292.11 233.8 296.37 229.27 300.73C228.16 301.79 227.05 303.37 225.05 302.39L225.03 302.41Z" fill="#1B2F3F"/>
<path d="M58.05 453.74C44.76 452.56 31.73 450.26 19.77 443.94C-3.22 431.79 -6.64001 406.99 12.07 388.72C12.79 388.81 13.3 389.22 13.71 389.79C16.17 392.83 20.57 391.12 23.22 393.68C25.6 395.93 29.25 395.59 31.65 397.8C33.96 399.36 36.61 400 39.28 400.59C41.84 401.21 44.11 402.49 46.38 403.76C50.97 406.18 55.5 408.72 60.38 410.53C68.61 414.47 75.65 420.29 83.41 424.97C87.8 428.81 92.4799 432.43 93.6899 438.66C92.8799 441.71 95.33 444.6 94.14 447.67C87.76 451.6 80.4799 452.65 73.3199 453.96C68.2599 454.89 63.11 455.48 58.04 453.73L58.05 453.74Z" fill="#0B253C"/>
<path d="M106.14 16.88C121.7 12.6 136.6 6.38015 151.88 1.28015C154.12 0.530148 156.03 -0.139959 157.19 2.67004C158.28 3.72004 159.15 4.91001 159.57 6.39001C162.33 16.11 165.42 25.7302 167.57 35.6102C167.89 37.0602 168.21 38.5401 167.73 40.0201C167.53 40.5201 167.17 40.8702 166.66 41.0602C164.2 41.2302 161.55 41.9802 159.58 39.8702C157.7 37.8602 156.94 35.6101 159.53 33.4601C160.77 33.7401 160.97 35.1901 162.04 35.7201C161.7 34.4101 160.39 34.1001 159.64 33.2401C158.78 31.7001 161.76 30.1102 159.82 28.8602C158.35 27.9102 156.67 29.1501 155.14 29.6901C146.77 32.6201 138.51 35.9102 129.8 37.8402C128.56 37.7402 127.36 37.5601 126.82 36.1901C128.91 33.7401 132.36 34.6401 134.38 32.9401C135.44 32.9801 134.66 31.9302 134.78 32.5902C134.84 32.9102 134.76 33.0901 134.58 33.0301C131.68 32.2101 129.91 35.28 127.22 35.18C124 35.84 124.16 33.09 123.28 31.38C123.42 33.17 125.43 34.9802 123.45 36.8602C121.49 37.4802 119.6 39.4902 117.44 37.1102C117.26 36.9102 117.66 37.7501 117.28 38.0101C116.67 38.9901 115.73 39.5 114.71 39.88C112.71 40.69 110.38 40.4202 108.57 41.8202C108.15 42.0002 107.72 42.02 107.28 41.89C106.78 42.07 107.03 40.59 106.31 41.41C105.41 42.45 104.06 42.5501 102.98 43.1901C102.33 43.4001 101.69 43.4 101.07 43.15C99.4599 41.47 100.31 45.5601 99.11 44.2801C99.73 44.5001 100.66 43.6202 101.6 44.1202C102.04 44.3602 102.31 44.7401 102.4 45.2301C102.3 45.7201 102.06 46.1401 101.69 46.4801C99.9399 47.6201 98.15 48.2302 96.23 46.8602C94.25 42.9402 92.3399 47.5201 90.5699 46.9701C92.3199 46.8401 94.25 44.88 96.21 46.88C96.34 47.39 96.21 47.8301 95.86 48.2201C90.01 51.0601 83.73 52.4701 77.41 53.7501C76.65 53.7401 75.94 53.56 75.3 53.13C73.76 51.48 76.78 50.72 75.92 49.41C74.87 51.64 73.43 51.8502 71.87 49.5902C70.85 48.1102 70.5 46.3101 69.67 44.7301C69.47 44.3201 69.33 43.8901 69.2 43.4501C68.99 39.7901 67.2301 36.6701 65.6801 33.4701C65.5201 33.0501 65.43 32.61 65.39 32.16C65.96 28.56 69.74 29.7301 71.58 28.0001C72.74 27.3001 74.61 27.79 75.05 25.9C77.71 25.13 80.36 24.3502 83.02 23.5802C83.61 23.1902 84.59 22.9802 84.77 23.5402C85.58 26.0702 83.01 25.0802 81.74 26.3702C88.9 23.7302 95.93 22.4002 102.48 19.5802C103.81 19.0102 107.19 20.7102 106.13 16.8502L106.14 16.88Z" fill="#0C1B26"/>
<path d="M45.58 404.58C43.6 403.6 41.61 402.62 39.63 401.64C36.76 400.62 33.82 399.81 31.01 398.62C28.55 397.39 26.19 396.05 23.28 395.9C21.62 395.82 22.71 395 23.25 394.5C25.92 389.48 26.9 383.89 28.61 378.54C29.26 376.5 29.71 374.37 30.78 372.89C26.27 378.06 20.94 382.97 15.83 388.09C15.01 388.91 14.09 389.65 12.82 389.63C12.57 389.33 12.31 389.03 12.06 388.72C24.64 375.2 37.34 361.8 48.98 347.44C49.03 347.9 49.09 348.36 49.14 348.83C49.88 352.13 47.6699 354.42 45.6899 356.07C34.7999 365.17 33.41 378.48 29.73 390.8C28.81 393.89 30.72 394.92 33.17 395.75C35.9 396.68 36.69 395.12 37.37 392.98C40.51 383.14 43.53 373.27 45.86 363.19C46.55 360.2 46.4 356.79 49.28 354.64C49.58 355.4 49.8899 356.16 50.1899 356.92C51.9599 359.06 51.02 361.37 50.5 363.59C48.22 373.49 45.2201 383.19 42.0601 392.84C41.2201 395.39 40.35 398.05 43.61 399.8C49.59 403 50.11 402.21 51.37 396.76C55.92 376.97 60.36 357.16 64.39 337.26C64.87 334.89 64.79 332.19 67.26 330.64C67.59 331.09 67.91 331.55 68.24 332C70.15 334.47 69.15 337.13 68.61 339.67C64.5 359.21 60.65 378.81 55.67 398.16C54.79 401.58 54.2799 404.7 58.3199 406.64C61.8499 408.33 62.9 408.03 63.89 404.12C67.51 389.93 70.74 375.65 73.45 361.25C76.74 343.74 78.99 326.08 81.76 308.49C82.14 306.09 82.03 303.43 84.21 301.65L85.21 302.98C87 305.19 86.42 307.71 86.1 310.16C81.88 342.2 76.86 374.08 68.36 405.32C67.43 408.75 67.07 411.75 70.73 414.03C73.52 415.77 74.77 415.29 75.67 412.16C78.34 402.88 80.99 393.59 83.05 384.16C87.98 361.55 92.64 338.89 95.71 315.93C96.01 313.66 96.09 311.22 98.21 309.65C98.56 310.12 98.91 310.58 99.26 311.05C100.71 312.78 100.4 314.8 100.11 316.78C95.45 348.94 89.67 380.86 80.3 412.04C79.8 413.72 78.83 415.39 79.84 418.1C85.03 413.19 89.98 408.69 92.5 402.16C94.36 397.32 95.37 392.26 96.39 387.19C96.81 385.12 96.8899 382.8 99.1899 381.65C99.4999 382.04 99.8 382.43 100.11 382.82C102.29 388.63 99.6501 393.55 97.9301 398.09C103.58 389.49 110.94 381.01 112.6 369.46C112.94 367.07 113.02 364.42 115.17 362.65C115.48 363.04 115.8 363.44 116.11 363.83C118.69 366.56 115.35 369.09 115.79 372.02C115.73 372.4 116.5 371.6 115.85 371.74C115.62 371.79 115.54 371.62 115.67 371.28C120.22 359.14 124.56 346.95 126.3 334C126.47 332.72 126.9 331.39 128.2 330.64C128.52 331.39 128.85 332.15 129.17 332.9C131.02 335.13 130.29 337.64 129.87 340.06C127.93 351.29 124.54 362.04 118.91 372.02C116.94 375.51 115.23 379.11 115.03 383.22C114.76 383.94 114.34 384.54 113.6 384.85C112.99 385.42 112.76 383.01 111.65 384.84C104.05 397.27 96.02 409.43 84.87 419.05C82.53 421.07 83.2 423.37 82.86 425.66C75.37 421 67.88 416.35 60.39 411.69C55.53 409.14 50.8 406.32 45.55 404.6L45.58 404.58Z" fill="#0E1F22"/>
<path d="M54.0899 87.6799C47.9699 76.6199 45.3799 64.2699 41.1999 52.4999C39.8799 48.7799 38.89 44.9399 37.56 41.2299C36.61 38.5699 37.44 37.2499 40.06 36.4799C43.37 35.5099 46.4899 33.93 49.9699 33.54C54.3499 36.15 58.05 32.8899 61.93 31.9299C63.76 31.4799 64.9699 30.8699 66.0899 32.7299L66.04 32.6498C67.53 36.2898 69.3899 39.7999 70.0799 43.7299L70.04 43.6599C70.68 44.8099 71.0199 46.08 71.4399 47.31C72.7599 51.09 72.7199 51.1 68.9599 50.78C68.9399 50.78 68.71 50.37 68.75 50.79C69.2 55.34 65.3799 53.1498 63.5799 54.1298C63.3099 54.2798 63.1299 54.6 62.8699 54.82C61.1099 55.11 59.5799 56.0699 58.2099 56.4399C59.8599 55.8899 61.93 55.4699 63.68 54.2499C66.24 54.6299 68.4699 52.3398 71.1099 53.3798C72.3599 54.6998 72.36 56.24 71.88 57.85C71.68 58.33 71.34 58.6899 70.88 58.9299C66.19 56.4299 61.8999 58.6801 57.5699 60.1101C50.6766 62.3701 48.57 66.8667 51.25 73.6C52.35 76.37 53.52 79.1199 54.39 81.9799C54.8 83.8299 56.29 85.49 55.38 87.58C54.99 87.96 54.5599 87.9999 54.0999 87.7099L54.0899 87.6799Z" fill="#0D1F2E"/>
<path d="M54.09 87.68C54.36 87.68 54.64 87.68 54.91 87.68C56.15 87.63 56.98 85.4401 58.54 86.9801C59.61 97.8601 65.87 106.86 69.36 116.87C69.79 118.11 69.77 120.02 72.03 119.48C72.41 119.76 72.7 120.11 72.91 120.52C73.44 121.85 73.69 123.24 73.75 124.67C74.33 130.6 77.46 135.7 79.16 141.26C80.34 144.56 81.63 147.81 82.83 151.1C83.04 151.52 83.21 151.95 83.38 152.38C84.48 155.68 86.01 158.81 87.04 162.13C87.33 163 87.65 163.86 88.02 164.7C89.19 167.48 90.0901 170.35 91.0601 173.19C91.3501 174.07 91.65 174.96 91.97 175.83C92.75 178.31 93.67 180.74 94.29 183.27C94.45 184.46 94.92 185.57 95.2 186.73C95.87 189.56 96.62 192.37 97.3 195.2C97.45 196.18 97.79 197.12 98.03 198.07C98.44 201.07 99.1 204.03 99.53 207.03C99.72 208.05 100.12 209.03 100.25 210.07C100.61 212.71 100.44 215.37 100.5 218.02C100.65 219.05 100.92 220.06 101.11 221.08C101.39 222.39 101.51 223.72 101.48 225.05C101.4 228.38 103.1 229.79 106.29 230.14C108.44 230.37 111.13 229.58 112.33 232.45C109.13 232.56 105.93 232.66 102.74 232.77C101.92 233.46 101.11 233.42 100.31 232.74C98.4601 231.97 99.55 229.74 98.28 228.68C98.55 199.94 88.4899 173.74 78.5699 147.44C70.9599 127.28 61.82 107.76 54.08 87.66L54.09 87.68Z" fill="#2C1D16"/>
<path d="M183.81 105.76C191.12 131.16 200.39 155.71 215.16 177.88C217.35 181.17 219.14 184.76 222.1 187.5C224.14 190.09 226.04 192.82 228.28 195.22C229.51 196.54 230.34 197.75 230.08 199.55C227.93 198.79 225.78 199.23 223.63 199.5C224.71 196.74 223.9 194.56 222.06 192.29C218.52 187.92 215.13 183.39 212.24 178.54C211.78 177.76 211.36 176.97 210.91 176.19C209.04 173.19 207.35 170.08 205.3 167.19C204.68 166.26 204.19 165.27 203.81 164.22C203.08 161.9 201.45 160.08 200.36 157.96C199.85 156.98 199.37 155.98 198.87 155C197.44 152.2 196.14 149.33 195.03 146.39C194.65 145.57 194.25 144.75 193.86 143.94C192.68 140.95 191.41 137.99 190.28 134.98C190.1 134.55 189.95 134.11 189.82 133.66C188.74 130.1 187.64 126.55 186.23 123.1C186.01 122.67 185.83 122.24 185.66 121.79C184.13 117.95 183.3 113.91 182.08 109.98C181.89 108.98 181.9 107.98 182.19 107C182.5 106.27 182.9 105.66 183.83 105.77L183.81 105.76Z" fill="#241610"/>
<path d="M106.14 16.8799C108.04 17.8199 107.74 19.5101 107.02 20.8101C105.68 23.2201 106.15 19.6899 105.26 20.1599C104.56 20.5299 103.8 20.7999 103.1 21.1699C97.67 23.9499 90.95 22.8599 85.95 26.9099C83.88 23.7499 80.63 31.67 78.75 25.97C80.48 25.52 82.47 25.47 83.84 24.52C85.16 23.6 83.16 24.1101 83.04 23.6201C90.54 20.6901 98.42 19.0499 106.15 16.8899L106.14 16.8799Z" fill="#67848D"/>
<path d="M66.09 32.7199C63.09 31.1599 60.99 33.93 58.39 34.34C55.48 34.8 52.38 38.15 49.97 33.54C53.07 32.85 56.4799 33.16 59.0699 30.77C62.0299 31.49 64.36 29.4399 67.04 28.9099C68.77 28.5599 70.38 27.3099 72.17 28.6599C71.89 30.0499 70.98 30.1101 69.71 30.3701C68.44 30.6401 66.13 30.2399 66.1 32.7299L66.09 32.7199Z" fill="#53787E"/>
<path d="M72.17 28.6499C68.53 27.9999 65.56 30.4301 62.13 30.8501C61.06 30.9801 60.0699 32.07 59.0699 30.76C64.3999 29.15 69.7301 27.5399 75.0601 25.9299C75.6901 28.5299 73.36 27.9899 72.16 28.6499H72.17Z" fill="#0D1F2E"/>
<path d="M206.37 166.77L211.7 175.45C208.51 178.2 204.05 177.84 200.62 179.98C191.53 182.63 182.45 185.3 173.47 188.3C171.68 188.9 169.87 188.64 168.16 188.71C179.57 186.95 190.39 183.02 201.32 179.48C205.22 179.24 208.54 175.25 212.86 177.69C216.9 183.27 220.47 189.21 225.31 194.16C228.26 197.18 224.42 197.8 223.63 199.49C210.19 207.78 195.22 212.89 181.18 219.93C179.62 221 178.25 222.58 176.02 221.77L153.55 228.1C151.24 229.51 148.73 228.88 146.27 228.86C139.74 229.16 133.59 231.55 127.15 232.37C124.8 233.78 122.44 234.69 120 232.55C117.45 232.52 114.91 232.49 112.36 232.46C111.4 232.23 110.45 231.89 109.48 231.78C103.113 231.073 99.9301 227.413 99.9301 220.8C102.4 218.29 105.54 219.3 108.44 219.25C119.67 219.07 130.82 218.85 142.03 217.14C151.67 215.67 160.96 213.15 170.37 210.92C172.49 210.42 174.14 209.39 175.05 208.69C174.22 209.61 172.29 210.25 170.25 210.91C159.28 214.51 147.94 217.24 136.62 218.18C124.37 219.19 111.86 221.2 99.5 218.25C99.36 215.38 99.23 212.52 99.09 209.65C99.59 209.2 100.17 208.74 100.84 208.79C110.84 209.55 120.6 207.22 130.5 206.65C137.37 206.25 144 204.56 150.72 203.19C156.81 201.95 162.87 200.65 168.86 199.03C174.2 197.59 179.43 195.79 184.78 194.39C176.95 196.28 169.34 198.9 161.54 200.94C157.16 202.08 152.56 202.23 148.25 204.14C144.62 205.75 140.06 205.88 136.24 206.08C124.51 206.71 112.96 209.89 101.12 208.6C100.11 208.49 99.15 208.31 98.42 207.52C97.89 204.26 97.37 201 96.84 197.75C102.8 195.02 109.31 194.26 115.52 192.49C122.07 190.61 128.87 189.76 135.26 187.29C138.43 186.06 142.21 186.96 144.41 184.99C137.05 186.91 128.82 188.74 120.75 190.97C114.18 192.79 107.26 193.35 100.97 196.23C99.45 196.93 97.72 196.98 96.33 195.61C95.64 192.59 94.94 189.57 94.25 186.55C97.76 182.96 102.71 183.66 106.98 182.39C111.52 181.04 116.31 180.59 120.79 178.93C122.97 177.94 125.51 178.73 127.64 177.51C132.96 175.71 138.53 174.81 143.81 172.86C145.72 172.22 147.84 172.36 149.66 171.35C154.48 169.89 159.35 168.6 164.03 166.73C170.43 164.65 176.9 162.8 183.25 160.56C187.09 159.48 190.79 157.99 194.62 156.91C196.92 156.26 199.19 155.89 201.22 157.66C202.65 159.54 204.11 161.39 204.79 163.71C204.42 167.06 201.55 167.74 199.16 168.48C184.87 172.9 170.86 178.23 156.85 181.53C155.68 181.99 156.64 182.78 156.27 182.22C156.21 182.13 156.3 182.01 156.56 181.92C164.11 179.61 171.72 177.48 179.22 174.99C186.85 172.46 194.57 170.19 202.04 167.22C203.5 166.64 204.91 166.52 206.41 166.75L206.37 166.77Z" fill="#EF9846"/>
<path d="M82.9 425.65C80.01 422.88 81.08 421.13 83.82 418.64C94.68 408.77 102.79 396.63 110.9 384.54C111.37 383.83 111.3 382.48 112.59 382.8C112.92 382.88 113.01 383.96 113.21 384.58C114.42 385.06 115.65 385.52 116.95 385.6C118.43 385.69 119.39 384.81 119.87 383.47C120.17 382.63 119.97 381.81 119.09 381.43C117.85 380.9 116.93 381.52 116.11 382.43C115.63 382.97 115.25 383.91 114.22 383.26C113.55 379.8 114.73 376.81 116.4 373.86C123.61 361.14 128.17 347.57 129.2 332.9C131.08 326.69 130.42 320.04 132.53 313.83C133.19 311.89 129.88 312.56 129.27 310.28C133.31 310.44 135.94 312.96 139.27 314.57C137.65 315.67 136.49 313.77 135.3 314.78C137.02 317.39 137.57 320.61 142.71 318.72C145.09 317.85 149.33 321.77 152.61 323.71C155.58 325.46 158.41 327.46 161.42 329.43C158.79 329.21 157.33 330.32 157.02 332.87C156.8 334.66 157.17 336.3 158.71 337.28C161.07 338.77 162.47 336.84 163.7 335.38C165.58 333.15 167.44 333.15 169.76 334.61C173.12 336.72 176.59 338.67 180.01 340.69C183.98 341.59 182.08 343.59 180.82 345.34C172.49 356.92 164.69 368.85 157.36 381.07C149.6 394.01 141.9 406.95 132.71 418.97C123.48 431.04 111.77 439.61 97.6601 445.08C94.9201 446.14 93.3301 445.94 93.2801 442.52C93.2601 441.24 92.28 440.04 92.77 438.65C91.59 432.71 86.34 429.86 82.88 425.66L82.9 425.65Z" fill="#F5F5F2"/>
<path d="M98.24 309.65C92.81 346.25 86.1401 382.58 75.4201 418.54C72.5901 416.76 69.8901 414.91 67.0501 413.32C64.1001 411.67 65.94 409.4 66.37 407.66C70.51 390.93 74.72 374.2 77.6 357.2C80.65 339.2 83.57 321.18 85.26 302.98C86.77 301.53 84.5201 297.85 87.5501 297.81C91.6201 297.75 95.8001 298.62 99.4201 300.66C100.75 301.41 99.1901 303.05 99.0601 304.29C98.8701 306.08 98.53 307.86 98.25 309.64L98.24 309.65Z" fill="#A1D4D6"/>
<path d="M99.22 381.63C98.48 384.86 97.4701 388.05 97.0401 391.32C95.5101 402.81 89.65 411.69 80.94 418.95C79.96 419.77 78.97 421.31 77.59 420.27C76.39 419.37 77.1 417.8 77.5 416.54C85.16 392.66 90.0101 368.12 94.5101 343.51C96.4801 332.74 98.2801 321.94 99.2801 311.03C99.5401 310.25 99.8801 309.5 100.03 308.7C100.49 306.22 99.99 302.49 102.34 301.78C105.66 300.79 108.98 303.23 112.05 304.8C113.67 305.63 112.52 307.15 112.3 308.36C107.94 332.78 103.57 357.2 99.21 381.62L99.22 381.63Z" fill="#A4D6D8"/>
<path d="M84.25 301.65C79.31 337.12 73.8 372.48 64.9 407.23C64.04 410.58 63.0599 410.93 60.0699 409.19C52.5799 404.84 52.58 405.02 54.61 396.61C59.78 375.21 64.7 353.75 68.27 332C69.51 318.61 77.2899 308.11 83.4499 296.62C85.1699 298.44 83.92 300.13 84.25 301.64V301.65Z" fill="#A8D5D7"/>
<path d="M115.21 362.64C114.22 377.59 106.56 389.35 96.75 401.44C97.98 394.44 99.9 388.77 100.15 382.81C104.07 369.78 105.63 356.27 108.07 342.95C110.27 330.93 112.29 318.87 114.38 306.92C114.79 306.84 114.98 306.74 115.12 306.79C124.24 310.06 124.51 310.11 122.96 319.62C120.61 334 117.82 348.31 115.22 362.65L115.21 362.64Z" fill="#ABD9D9"/>
<path d="M67.29 330.65C62.07 355.27 57.0101 379.93 50.9301 404.35C50.4701 404.31 50.12 404.36 49.85 404.25C42.35 400.963 39.82 395.43 42.26 387.65C45.45 377.55 48.63 367.45 50.22 356.93C51.54 343.66 61.01 334.74 67.71 323.81C68.65 326.47 67.37 328.53 67.29 330.66V330.65Z" fill="#A6D6D6"/>
<path d="M215.1 292.63C217.02 296.04 220.64 297.77 223.09 300.65C221.4 303.51 219.77 306.43 215.96 306.86C213.81 303.04 210.44 300.26 207.22 297.5C197.65 289.27 188.71 280.47 181.01 270.46C179.99 269.14 178.39 267.8 179.19 265.69C180.01 264.35 182 263.33 179.24 261.56C177.98 260.76 177.75 258.36 177.05 256.68C177.65 256 178.31 256.04 179.12 256.35C180.66 256.94 179.06 255.66 179.53 255.58C179.79 254.17 178.59 254.14 177.81 253.71C177.04 252.86 178.04 251.57 177.09 250.77L178.04 248.71C180.06 247.81 180.15 249.89 181.07 250.68C182.31 251.34 182.5 252.65 182.94 253.79C182.45 257.74 184.99 260.72 186.77 263.66C188.38 266.32 190.81 268.71 193.45 270.65C193.97 271.25 194.5 271.84 195.02 272.44C200.01 277.86 204.06 284.25 210.96 287.67C211.95 287.96 212.57 288.65 213.02 289.54C212.03 291.7 213.5 292.21 215.1 292.64V292.63Z" fill="#134F4D"/>
<path d="M49.3101 354.65C46.2001 368.52 42.31 382.18 38.11 395.76C37.43 397.97 36.79 398.91 34.45 397.65C32.86 396.8 31.12 396.08 29.36 395.74C27.41 395.36 27.5201 394.48 27.9301 392.96C30.2401 384.35 32.1001 375.59 34.9201 367.15C35.9401 364.09 39.1101 361.7 41.4301 359.12C44.3101 355.92 47.1 352.67 49.16 348.85C51.58 350.73 49.0401 352.73 49.3101 354.67V354.65Z" fill="#A7D7D7"/>
<path d="M128.23 330.64C126.15 345.15 123.02 359.33 114.94 373.51C115.45 369.38 115.8 366.6 116.14 363.83C119.86 348.42 122.43 332.79 125.18 317.19C125.51 315.32 124.6 311.71 127.59 312C131.66 312.4 129.68 315.93 129.46 318.32C129.08 322.43 128.64 326.53 128.22 330.64H128.23Z" fill="#A4DCD9"/>
<path d="M92.79 438.63C93.54 440.64 94.34 442.64 94.11 445.2C109.7 440.27 121.94 431.44 131.65 418.94C139.4 408.97 146.34 398.45 152.6 387.51C160.93 372.96 170.26 359.09 179.83 345.35C180.93 343.77 182.71 342.35 180.03 340.66C182.05 340.33 184.07 340 186.1 339.67C171.65 358.77 159.77 379.54 147.06 399.77C138.57 413.28 129.99 426.84 116.47 436.15C109.61 440.87 102.31 444.72 94.14 446.7C92.88 444.14 91.38 441.63 92.8 438.62L92.79 438.63Z" fill="#161717"/>
<path d="M227.93 213.68C225.25 216.33 223.67 220.13 219.77 221.52C218.91 221.18 217.93 221.3 217.11 220.82C213.89 217.97 212.57 221.23 211.03 222.91C208.97 225.16 207.11 226.25 204.73 223.49C205.43 220.74 208.6 220.53 209.94 218.43C212.55 216.77 215.13 215.07 217 212.52C217.63 211.89 218.27 211.26 218.9 210.64C222.3 209.58 224.47 207.16 226.08 204.12C227.4 202.95 228.73 201.79 230.05 200.62C231.76 202.35 233.45 204.11 235.19 205.8C236.55 207.12 235.28 207.79 234.58 208.62C231.7 209.43 230.74 212.75 227.94 213.68H227.93Z" fill="#10474E"/>
<path d="M179.19 265.68C186.36 277.4 196.34 286.6 206.33 295.76C209.96 299.1 213.42 302.57 216.62 306.31C216.66 306.35 216.54 306.6 216.43 306.68C216.31 306.78 216.13 306.8 215.97 306.85C206.48 297.82 196.98 288.79 187.49 279.76C182.64 275.14 178.88 269.66 175.36 264.05C169.4 254.57 170.5 246.32 178.59 238.66C182.54 234.92 186.95 231.87 192.37 230.59C190.87 232.66 188.53 233.63 186.42 234.8C172.84 242.37 170.31 253.04 179.19 265.67V265.68Z" fill="#E6EEEA"/>
<path d="M158.51 280.61C154.37 280.66 153.04 278.83 154.4 274.98C156.26 269.73 160.87 266.4 164.67 267.45C166.27 267.89 167.54 268.77 167.54 270.37C167.54 271.75 166.16 272.57 164.98 273.21C164.24 273.61 163.29 273.82 163.11 272.62C162.94 271.49 163.15 269.86 161.38 271C160.23 271.74 161.13 272.81 161.72 273.92C164.06 278.32 162.88 280.55 158.5 280.61H158.51Z" fill="#F3F4F0"/>
<path d="M158.26 247.43C155.8 250.78 151.94 252.47 154.75 256.32C154.89 256.51 153.96 257.98 153.37 258.1C152.41 258.3 152.21 257.31 152.12 256.42C152.04 255.58 152.58 254.17 151.02 254.28C150.33 254.33 149.42 255.03 149.08 255.68C148.38 257.03 149.95 256.48 150.38 256.93C151.7 258.32 152.14 259.85 150.6 261.25C149.12 262.6 147.34 263.76 145.22 262.86C143.16 261.98 143.56 260.01 144.13 258.55C146.45 252.61 151.93 250.55 158.24 247.43H158.26Z" fill="#EFEFEE"/>
<path d="M162.71 314.97C163.88 317.64 168.28 313.53 168.87 317.81C169.05 319.09 161.46 326.2 161.27 325.74C160.22 323.23 155.43 324.52 156.06 321.4C156.67 318.39 158 314.8 162.71 314.97Z" fill="#E7E9E8"/>
<path d="M170.89 230.45C171.88 234.24 169.59 235.38 166.13 236.33C169.52 238.06 170.1 240.68 168.77 243.03C167.47 245.33 164.39 245.04 162.05 245.64C160.46 246.05 160.95 244.52 160.95 243.63C160.98 236.88 165.06 233.21 170.9 230.45H170.89Z" fill="#F0F1EE"/>
<path d="M143.56 283.56C145.35 283.53 147.08 283.83 147.74 285.6C148.34 287.22 147.13 289.05 145.95 289.25C142.7 289.79 143.73 294.28 140.22 294.61C136.7 294.94 135.37 293.81 136.36 290.54C137.44 286.97 139.14 283.76 143.57 283.56H143.56Z" fill="#F2F2F1"/>
<path d="M196.41 306.32C194.74 305.64 192.01 306.21 192.09 302.91C192.18 299.35 195.33 296.17 198.78 296.44C201.01 296.61 203.07 297.18 203.05 300.11C203.03 303.28 199.8 306.4 196.41 306.32Z" fill="#F6F5F2"/>
<path d="M132 246.79C131.76 242.32 134.99 240.43 138.01 238.32C139.14 237.53 139.91 238.07 140.62 238.74C141.52 239.59 141.3 240.63 140.43 241.33C138.84 242.6 137.8 243.85 139.39 245.84C140.02 246.63 140.61 247.89 139.19 248.2C136.97 248.69 134.82 250.16 132.49 249.42C131.46 249.09 131.87 247.69 132.01 246.8L132 246.79Z" fill="#E7E8E4"/>
<path d="M177.87 289.1C174.78 290.35 173.63 293.39 171.38 295.21C169.39 296.82 167.18 297.98 164.63 296.76C162.69 295.83 163.18 294.17 163.75 292.48C164.72 289.61 166.51 287.93 169.6 288.43C172.31 288.87 175.02 288.67 177.86 289.1H177.87Z" fill="#EFEFEB"/>
<path d="M178.89 313.92C176.78 313.28 173.88 313.14 174.17 309.98C174.48 306.6 177.07 304.42 180.19 304.32C182.62 304.25 186.15 306 185.89 308.48C185.56 311.59 182.5 313.59 178.89 313.92Z" fill="#F3F4F1"/>
<path d="M133.93 273.66C134.1 275.19 135.19 276.92 132.92 277.9C131.04 278.71 129.07 278.83 127.09 278.59C126.29 278.49 126.36 277.77 126.35 277.07C126.24 272.14 129.43 268.72 134.14 268.66C137.88 268.61 137.98 270.16 136.11 272.74C135.63 273.61 134.17 272.2 133.94 273.66H133.93Z" fill="#F0F0ED"/>
<path d="M104.7 260.01C104.51 263.68 102.41 265.57 98.64 265.55C95.99 265.54 96.4 263.86 96.8 262.1C97.44 259.25 97.23 255.5 101.37 255.65C102.73 255.7 105.9 256.68 104.7 260.02V260.01Z" fill="#C1C1C2"/>
<path d="M177.22 334.23C178.06 329.64 182.93 328.23 184.39 323.97C184.92 322.41 188.64 323.32 190.72 324.67C191.57 325.23 192.69 326.06 191.94 326.99C190.44 328.85 189.17 332.45 186.8 331.76C182.75 330.58 180.25 332.42 177.22 334.22V334.23Z" fill="#F1F2EF"/>
<path d="M157.6 301.03C153.56 304.22 153 309.28 147.71 309.74C145.36 309.94 144.8 309.21 145.14 307.04C146 301.57 148.81 299.96 157.6 301.03Z" fill="#EBEEEB"/>
<path d="M90.0799 283.76C90.6499 281.49 89.8399 278.28 94.0799 278.48C97.3699 278.63 99.0499 280.28 99.0899 283.38C99.1199 285.97 98.06 288.04 94.9 287.49C92.74 287.12 89.2799 288.24 90.0799 283.76Z" fill="#EEEBE8"/>
<path d="M113.48 272.63C113.37 275.72 112.61 277.75 109.21 277.63C106.55 277.54 105.12 276.18 105.17 273.73C105.23 270.89 106.65 268.3 109.67 268.17C112.33 268.06 113.47 270.35 113.49 272.62L113.48 272.63Z" fill="#E7E6E5"/>
<path d="M119.14 286.53C121.36 289.29 119.68 291.21 117.48 292.54C115.65 293.64 113.17 293.37 112.29 291.34C111.01 288.39 111.85 285.34 114.63 283.52C116.39 282.36 118.8 281.03 119.96 284.54C118.88 286.06 116.27 285.06 115.4 287.75C116.54 285.84 117.69 285.39 119.14 286.54V286.53Z" fill="#F6F5F4"/>
<path d="M114.98 246.75C114.99 248.64 115.79 251.29 113.03 251.48C110.94 251.62 108.04 251.19 107.47 248.4C106.93 245.75 108.23 243.51 110.83 242.46C112.91 241.62 114.78 241.72 115.06 244.64C114.71 245 114.33 245.31 113.9 245.57C113.41 245.86 112.83 245.97 112.35 246.29C112.97 246.16 113.59 245.9 114.24 246.13C114.55 246.24 114.8 246.45 114.99 246.75H114.98Z" fill="#EEEEEE"/>
<path d="M198.79 324.97C196.68 324.59 196.13 323.17 196.37 321.96C196.83 319.6 197.13 316.8 200.38 316.46C202.13 316.28 203.9 317.12 204.75 318.42C205.96 320.27 203.41 320.59 202.63 321.6C201.57 322.99 199.96 323.98 198.79 324.97Z" fill="#EBE8E4"/>
<path d="M123.18 299.36C124.85 300.93 121.28 304.06 124.82 304.1C126.2 304.12 128.63 302.4 126.13 299.98C125.56 299.43 126.29 298.8 127 298.64C128 298.41 129.01 298.42 129.83 299.13C130.44 299.66 131.22 300.36 130.43 301.19C129.06 302.61 128.51 304.73 126.54 305.63C124.77 306.44 122.96 307.99 121.46 305.35C120.01 302.79 120.44 300.77 123.18 299.36Z" fill="#DEE1E0"/>
<path d="M104.99 295.02C105.03 297.72 104.49 299.32 101.97 298.87C100.3 298.57 98.2001 298.72 98.0101 296.05C97.8401 293.64 98.4901 291.47 100.67 290.67C102.7 289.92 104.82 290.58 105.99 293.96C103.51 292.78 101.85 293.45 100.44 294.77C100.26 294.94 100.38 295.75 100.63 295.99C102.14 297.46 103.43 295.63 104.99 295.02Z" fill="#EFEDEB"/>
<path d="M119.99 232.55C122.39 233.23 124.73 231.35 127.14 232.38C127.1 232.7 127.04 233.03 127.04 233.36C127.03 236.96 124.35 238.63 121.66 238.27C118.53 237.85 120.52 234.53 120 232.55H119.99Z" fill="#D8D2CD"/>
<path d="M146.25 228.87C148.6 227.92 150.94 226.84 153.53 228.12C153.6 229.01 153.25 230.04 152.49 230.12C149.59 230.41 146.83 230.61 147.16 234.68C147.18 234.95 145.9 235.67 145.72 235.54C145.12 235.08 144.48 234.39 144.35 233.69C143.98 231.76 145.2 230.33 146.25 228.88V228.87Z" fill="#D4CFCD"/>
<path d="M119.29 260.71C117.25 258.2 119.18 256.9 120.94 255.73C122.62 254.61 124.55 254.14 126.49 254.98C126.83 255.13 127.1 256.2 126.91 256.65C126.2 258.32 125.34 259.96 123.04 259.63C121.88 260.3 120.99 261.89 119.29 260.72V260.71Z" fill="#F0F0F0"/>
<path d="M119.29 260.71C120.78 261.18 121.36 258.49 123.04 259.62C125.45 264.17 125.43 264.1 119.86 264.98C118.59 265.18 117.49 265.41 117.17 263.98C116.8 262.35 116.71 260.58 119.28 260.71H119.29Z" fill="#EFEEEB"/>
<path d="M100.32 232.76C101.13 232.76 101.94 232.78 102.75 232.79C104.61 234.27 103.81 236.41 103.89 238.23C103.96 239.94 102.5 240.81 100.88 240.65C98.42 240.4 100.06 239.07 100.18 237.95C100.36 236.25 99.3599 234.49 100.32 232.77V232.76Z" fill="#D9D8D9"/>
<path d="M176 221.78C177.7 221.09 179.04 219.41 181.17 219.94C181.41 221.96 181.65 223.98 181.96 226.55C179.36 225.29 176.2 225.58 176.01 221.79L176 221.78Z" fill="#DDD5D0"/>
<path d="M180.63 286.67C181.57 282.77 182.55 280.6 185.23 280.18C186.18 280.03 187.67 281.51 187.43 282.43C186.68 285.32 183.44 284.28 180.63 286.67Z" fill="#E0E2DF"/>
<path d="M210.61 218.8C208.64 220.37 206.68 221.93 204.71 223.5C201.47 225.4 198.24 227.3 195 229.21C195.71 225.83 199.13 225.51 201.27 223.78C203.67 221.84 206.38 220.28 208.96 218.55C209.58 218.2 210.12 218.29 210.6 218.81L210.61 218.8Z" fill="#B4DDD6"/>
<path d="M195.97 218.82C197.58 219.48 199.29 219.94 199.02 221.76C198.76 223.46 196.93 223.83 195.56 223.94C194.15 224.06 193.05 223.02 193.07 221.49C193.09 219.52 195.06 219.68 195.98 218.82H195.97Z" fill="#EDECE8"/>
<path d="M119.14 286.53C118.28 286.77 116.16 286.09 116.89 287.56C117.91 289.62 117.37 290.58 115.64 290.47C113.81 290.35 114.51 288.31 114.63 287.22C115.01 283.84 117.79 284.68 119.95 284.53C119.68 285.2 119.4 285.86 119.13 286.53H119.14Z" fill="#797879"/>
<path d="M226.06 204.12C225.06 207.83 223.51 210.93 218.88 210.64C221.27 208.47 223.67 206.29 226.06 204.12Z" fill="#8FA9A9"/>
<path d="M210.61 218.8C210.06 218.71 209.51 218.63 208.97 218.54C211.64 216.53 214.31 214.53 216.98 212.53C216.74 216.53 212.97 216.95 210.61 218.8Z" fill="#96B3B5"/>
<path d="M213.61 209.78C213.49 212.1 213.3 214.23 210.61 214.57C209.63 214.7 208.99 214.12 208.94 213.24C208.69 209.41 212.69 211.93 213.61 209.78Z" fill="#96B3B5"/>
<path d="M114.98 246.75C114.11 246.83 112.87 246.1 112.6 247.55C112.4 248.62 112.3 249.57 110.91 249.13C110.54 249.01 110.15 248.49 110.05 248.08C109.77 246.98 110.35 246.08 111.29 245.68C112.48 245.19 113.79 244.98 115.05 244.64L114.98 246.74V246.75Z" fill="#767575"/>
<path d="M133.93 273.66C132.84 273.56 131.57 273.84 130.98 272.55C130.62 271.77 131.34 271.37 131.85 271.05C133.33 270.13 133.71 271.37 134.38 272.29C134.65 272.66 135.51 272.6 136.1 272.73C135.69 273.77 134.82 273.73 133.93 273.65V273.66Z" fill="#727472"/>
<path d="M193.44 270.64C189.63 270.86 189.21 266.94 186.93 265.31C183.74 263.02 184.13 258.88 181.97 256.05C181.55 255.5 181.48 254.07 182.92 253.78C184.37 259.16 187.59 263.47 191.31 267.44C192.22 268.41 193.21 269.25 193.43 270.64H193.44Z" fill="#B8D7D1"/>
<path d="M210.96 287.65C210.43 289.07 209.32 288.73 208.66 288.06C204.05 283.38 199.53 278.63 195.03 273.86C194.79 273.6 195.01 272.91 195.02 272.42C201.02 276.78 205.08 283.17 210.96 287.65Z" fill="#B1DBD1"/>
<path d="M214.3 224.96C211.47 227.85 208 229.77 204.4 231.5C206.92 228.31 210.23 226.2 213.76 224.37C214.26 224.28 214.45 224.46 214.3 224.96Z" fill="#C1D0CE"/>
<path d="M177.08 250.76C178.62 251.25 177.87 252.68 178.26 253.64C178.99 254.18 179.73 254.71 179.96 255.67C180.12 256.24 180.57 257.17 180.38 257.32C179.1 258.37 178.26 256.49 177.04 256.68C176.12 254.7 176.15 252.73 177.07 250.76H177.08Z" fill="#A4D2C4"/>
<path d="M193.11 238.82C191.19 240.84 189.11 242.25 185.45 242.8C188.15 240.19 190.11 238.43 193.11 238.82Z" fill="#A5C0BD"/>
<path d="M227.93 213.68C229.69 211.4 231.36 209 234.57 208.62C232.28 210.2 231.82 214.19 227.93 213.68Z" fill="#A8C8C2"/>
<path d="M181.06 250.66C180.05 250 179.04 249.35 178.03 248.69C177.86 247.32 178.31 246.18 179.37 245.11C180.59 246.84 180.67 248.8 181.07 250.66H181.06Z" fill="#D4E7DB"/>
<path d="M217.1 220.82C218.37 219.6 219.33 219.57 219.76 221.52C217.94 222.66 216.12 223.81 214.3 224.95C214.12 224.76 213.94 224.56 213.76 224.36C214.87 223.18 215.98 222 217.1 220.82Z" fill="#BCD2CA"/>
<path d="M215.1 292.63C212.3 294.81 211.74 291.64 211.17 290.5C210.47 289.1 212.2 289.6 213.01 289.53C213.7 290.56 214.4 291.6 215.09 292.63H215.1Z" fill="#AAD0C4"/>
<path d="M198.28 234.78C198.09 237.33 196.07 237.55 193.78 238.76C194.66 235.94 196.56 235.47 198.28 234.78Z" fill="#A5C0BD"/>
<path d="M12.84 389.63C19.85 383.33 26.8599 377.03 31.6999 372.68C30.3799 377.36 28.08 385.28 25.96 393.25C25.47 395.09 24.27 394.33 23.27 394.5C20.48 393.15 17.4699 392.77 14.4399 392.53C12.3799 392.37 11.26 391.76 12.85 389.63H12.84Z" fill="#9ED5D0"/>
<path d="M79.23 441.43C74.83 437.64 70.4401 433.84 66.0401 430.05C65.2901 429.4 65.21 428.69 65.96 428.03C66.87 427.23 67.46 428.12 67.99 428.61C72.11 432.47 76.2001 436.37 80.2901 440.25C79.9401 440.64 79.59 441.04 79.24 441.43H79.23Z" fill="#DADDDD"/>
<path d="M53.16 419.98C58.43 421.35 61.46 424.21 65 426.46C62.84 427.57 58.28 425.15 53.16 419.98Z" fill="#D6D7D9"/>
<path d="M45.58 404.58C51.25 405.43 55.98 408.25 60.42 411.67C55.04 410.22 50.37 407.27 45.58 404.58Z" fill="#A3AEB6"/>
<path d="M27.95 409.79C25.16 409.38 22.32 409.14 20.13 406.95C23.15 406.66 26.26 406.1 27.88 409.89L27.95 409.78V409.79Z" fill="#CED1D3"/>
<path d="M18.08 406.47C15.72 406.52 13.35 406.99 11.24 404.85C14.12 404.3 16.47 403.98 18.08 406.47Z" fill="#F1EDEF"/>
<path d="M46.36 416.07C46.23 416.86 45.81 417.55 45.1 417.18C43.7 416.46 41.84 416.34 41.09 414.74C40.8 414.13 41.68 413.48 42.34 413.68C43.85 414.16 45.53 414.48 46.35 416.06L46.36 416.07Z" fill="#D3D6D9"/>
<path d="M33.71 411.75C36.35 411.1 37.95 411.36 39.39 412.64C40.01 413.19 39.4899 413.69 39.1899 413.8C37.2599 414.49 35.83 413.44 33.71 411.75Z" fill="#CED1D3"/>
<path d="M86.3101 448.01C82.5101 446.85 81.25 445.1 80.47 442.93C80.44 442.84 81.0201 442.34 81.1601 442.4C83.3301 443.32 84.0201 445.52 86.3101 448.01Z" fill="#CAD0D2"/>
<path d="M53.39 420.57C52.28 420.52 51.85 420.63 51.68 420.47C50.42 419.32 48.1099 419.62 47.5699 417.52C47.5199 417.34 47.98 416.8 48.14 416.83C50.25 417.19 52.08 417.99 53.4 420.56L53.39 420.57Z" fill="#D1D6D6"/>
<path d="M10.08 404.24C9.76001 405.31 9.00002 405.66 8.21002 405.15C7.23002 404.51 5.27002 405.5 5.21002 403.52C5.18002 402.64 6.07998 402.12 6.97998 402.44C8.10998 402.84 9.68 402.61 10.07 404.23L10.08 404.24Z" fill="#D6D7DB"/>
<path d="M27.87 409.9C30.2 407.51 31.62 409.72 34.61 410.62C31.06 412.4 29.5499 410.91 27.9399 409.79L27.86 409.9H27.87Z" fill="#CED1D3"/>
<path d="M31.01 398.63C34.16 398.85 37.04 399.81 39.63 401.65C36.29 401.97 33.6 400.45 31.01 398.63Z" fill="#A9B8BE"/>
<path d="M182.87 107.05C182.87 107.95 182.86 108.84 182.85 109.74C179.78 112.94 175.82 114.65 171.83 116.31C150 125.41 127.5 132.32 104.31 137C97.6301 138.35 91.05 140.11 84.46 141.88C82.41 142.43 80.3201 143.45 78.3101 141.75C76.3801 137 74.4301 132.27 72.5601 127.5C72.2201 126.64 71.05 125.41 73.07 124.93C73.7 124.74 74.3 124.46 74.95 124.35C76.75 123.86 78.65 123.31 77.97 120.85C77.39 118.78 75.5601 119.01 73.9101 119.18C73.2501 119.25 72.61 119.24 71.98 119.04C70.92 119.82 71.13 121.12 70.6 122.91C66.03 112.16 61.7701 102 57.3801 91.8999C56.5301 89.9399 59.05 88.6101 57.95 86.7701C56.02 85.7301 54.99 83.7 53.24 82.46C51.15 76.76 49.1901 71.0099 46.9001 65.3899C45.8401 62.7999 46.4801 62.12 49.0501 61.44C54.1201 60.11 59.1501 58.5001 64.0301 56.5801C67.2401 55.3201 69.5 55.3702 70.87 58.8702C75.31 59.2102 76.5101 56.25 77.1601 52.72C83.4301 50.99 89.69 49.2501 95.96 47.5201C97.85 47.1201 97.38 48.93 97.97 49.72C99.32 51.54 101.11 51.7 102.8 50.66C104.92 49.35 103.17 48.1901 102.3 47.0801C101.99 46.6701 101.85 46.22 102.08 45.72L102.02 45.6399C106.82 41.9299 112.65 40.7801 118.26 39.0501C118.88 38.8601 119.66 38.9201 120.18 39.2801C124.49 42.2301 127.51 40.19 130.19 36.76C139.27 33.69 148.32 30.5701 157.43 27.6101C159.03 27.0901 160.96 24.9899 162.52 27.8899C163.94 30.5299 162.05 31.3101 160.26 32.2701C159.99 32.4201 160.04 33.1599 159.94 33.6299L160.02 33.5301C158.11 35.1801 158.74 36.9901 159.93 38.6001C161.07 40.1501 162.64 40.9801 164.58 39.7801C165.67 39.1001 165.95 39.8299 166.23 40.6399C168.85 45.7299 170.78 51.8901 170.09 56.7901C169.3 62.4101 170.61 65.6701 173.34 70.0501C175.86 74.1001 177.8 79.86 176.8 84.25C175.57 89.62 177.15 92.3102 180.16 96.1202C182.29 98.8202 182.76 103.18 182.87 107.04V107.05Z" fill="#F5F9F7"/>
<path d="M182.87 107.05C182.06 104.38 181.26 101.71 180.44 99.0499C179.7 96.6399 179.9 93.54 175.72 94.12C174.46 94.3 172.9 92.9398 172.85 91.1698C172.79 89.3298 173.06 87.0699 175.11 86.7999C177.5 86.4799 176.7 85.5099 176.35 84.2199C175.28 80.2199 174.29 76.1998 173.29 72.1798C172.74 69.9698 172.22 68.3199 169.47 67.2199C166.37 65.9799 165.42 62.5398 168.41 59.9398C170.26 58.3298 169.9 56.9898 169.47 55.1698C168.33 50.3398 167.3 45.4898 166.23 40.6398C166.51 40.6198 166.79 40.6298 167.06 40.6598C171.08 53.3898 173.68 66.4798 176.98 79.3998C179.23 88.1898 181.52 96.9699 183.8 105.75C183.49 106.18 183.18 106.61 182.87 107.04V107.05Z" fill="#2C3130"/>
<path d="M130.2 36.77C127.91 43.1 126.21 43.85 120.39 40.46C118.83 39.55 117.9 40.3199 116.77 40.6899C111.84 42.2899 106.94 43.9799 102.03 45.6499C102.07 45.3299 102.07 45.0099 102.04 44.6899C101.45 44.1199 100.31 43.7501 101.23 42.6001C101.77 42.6001 102.31 42.6101 102.85 42.6201C104.66 42.6201 106.38 42.0999 108.1 41.6499L107.99 41.7C109.74 40.07 112.76 40.9899 114.15 38.6399C115.05 38.2999 115.94 37.9601 116.84 37.6101C119.21 38.8601 121.08 37.35 123.06 36.47C124.38 33.97 121.63 31.94 122.26 29.27C124.66 30.49 123.91 34.3799 127.04 34.6699C127.62 35.1299 127.62 35.58 127.04 36.03C128.09 36.27 129.14 36.5 130.19 36.74L130.2 36.77Z" fill="#344345"/>
<path d="M102.09 45.72C103.46 47.09 107.24 46.4901 106.08 49.8101C105.09 52.6401 102.39 53.2601 99.53 52.8601C96.33 52.4201 95.5499 50.38 95.9699 47.53C95.9699 47.24 96.0099 46.9499 96.0999 46.6699L96.04 46.73C98.06 46.39 100.07 46.05 102.09 45.71V45.72Z" fill="#6E7678"/>
<path d="M63.09 54.74C63.47 54.05 63.05 52.0599 63.67 52.6799C65.79 54.8299 66.89 51.18 68.66 52.99C68.29 50.67 66.9 49.43 67.27 47.55C69.2 48.23 68.88 51.05 71.33 51.54C72.15 48.61 69.64 46.3199 70.05 43.6599C71.74 44.2799 71.51 46.06 72.12 47.3C72.67 48.43 72.64 50.39 74.11 50.24C76.29 50.02 74.54 47.6801 75.61 46.3101C76.52 48.7001 78.39 50.8799 74.95 52.6599C74.92 53.3499 74.56 53.8299 73.98 54.1699C73.13 54.4499 72.32 54.4799 71.71 53.6699C68.74 53.2899 66.09 55.7399 63.04 54.6799L63.1 54.75L63.09 54.74Z" fill="#53787E"/>
<path d="M127.04 36.0599C127.04 35.6099 127.04 35.1498 127.04 34.6998C128.42 33.0798 134.52 35.6098 130.83 30.1398C132.81 28.9998 132.41 36 135.19 30.85C135.82 29.69 136.44 31.44 136.69 31.83C137.51 33.11 136.53 33.3598 135.44 33.6398C132.62 34.3698 129.83 35.2399 127.02 36.0599H127.04Z" fill="#799798"/>
<path d="M74.25 53.55C74.48 53.25 74.7099 52.9599 74.9399 52.6599C75.6799 52.6899 76.43 52.71 77.17 52.74C76.99 60.79 76.56 61.1999 70.88 58.8899L71.03 58.72C75.15 58.89 73.62 55.55 74.25 53.55Z" fill="#0D1F2E"/>
<path d="M159.95 33.6398C163.54 31.6698 163.45 34.9299 164.17 36.7599C164.38 37.2999 164.11 38.4498 163.07 38.6698C162.21 38.8498 161.54 38.5499 160.97 37.7899C159.99 36.4899 160.15 34.9899 160.03 33.5399L159.95 33.6398Z" fill="#9EA8B0"/>
<path d="M96.1099 46.6799C93.8799 46.2499 91.8999 47.19 89.8399 47.77C89.0499 47.99 87.9899 47.93 87.9799 46.8C87.9699 44.72 89.05 46.4301 89.65 46.3101C91.67 45.9101 95 46.09 92.27 41.98C94.04 43.49 96.13 44.23 96.05 46.74L96.1099 46.6799Z" fill="#608991"/>
<path d="M70.08 43.72C67.95 40.31 66.73 36.5799 66.04 32.6399C68.58 35.8999 70.62 39.34 70.08 43.72Z" fill="#53787E"/>
<path d="M101.23 42.5901C101.5 43.2901 101.77 43.9899 102.04 44.6799C100.77 44.9299 99.52 45.2599 98.24 45.4199C96.34 45.6499 96.4599 43.58 96.5999 43.06C96.9899 41.63 97.4799 43.2501 97.9799 43.3501C98.8199 43.5201 99.3399 43.94 99.4599 42.49C99.5799 41.03 99.8599 41.0501 101.22 42.5901H101.23Z" fill="#688A8B"/>
<path d="M108.1 41.6499C106.43 42.4199 105.02 44.5801 102.85 42.6201C104.89 41.4701 106.86 40.2801 105.49 37.3501C106.36 38.7901 107.23 40.2199 108.11 41.6599L108.1 41.6499Z" fill="#779397"/>
<path d="M123.07 36.49C121.27 38.39 119.4 39.8399 116.85 37.6299C116.92 36.5199 115.61 35.6399 116.6 33.9199C117.32 39.1499 120.66 36.31 123.07 36.5V36.49Z" fill="#69898E"/>
<path d="M114.16 38.6499C113.04 41.5599 110.4 41.4 108 41.71C108.96 38.48 112.44 40.3299 114.16 38.6499Z" fill="#779397"/>
<path d="M114.23 383.25C114.58 380.6 115.79 379 118.76 379.24C120.5 379.38 121.8 380.26 121.89 381.86C122 383.83 121.48 385.9 119.4 386.87C116.65 388.14 114.68 386.97 113.22 384.58C113.56 384.14 113.89 383.7 114.23 383.26V383.25Z" fill="#3E6C73"/>
<path d="M74.2499 53.55C75.9299 56.99 76.34 59.63 71.03 58.72C70.83 56.98 70.3099 55.1999 71.6999 53.6699C72.5499 53.6299 73.4 53.59 74.26 53.55H74.2499Z" fill="#7C99A1"/>
<path d="M53.25 82.47C55.94 82.68 57.75 83.86 57.96 86.78C57.01 87.29 56.59 89.6599 54.91 87.6799C54.36 85.9399 53.81 84.2 53.26 82.47H53.25Z" fill="#737779"/>
<path d="M63.0301 54.6799C62.9701 54.8299 62.96 55.0499 62.85 55.1299C60.87 56.5299 58.56 57.0701 56.25 57.6001C56.23 57.6001 55.91 56.5 55.94 56.49C58.26 55.67 60.51 54.49 63.09 54.74L63.0301 54.6699V54.6799Z" fill="#7A9CA1"/>
<path d="M46.88 35.5801C46.43 39.8201 43.35 37.22 41.1 38.99C42.75 35.75 45.07 36.4801 46.88 35.5801Z" fill="#789CA6"/>
<path d="M78.3199 141.75C97.0299 137.32 116.01 133.77 134.37 128.19C150.11 123.41 166.1 118.73 180.47 110.2C181.12 109.81 182.05 109.88 182.85 109.74C184.77 113.43 185.53 117.51 186.74 121.44C183.82 125.76 178.56 125.85 174.55 128.22C174.11 128.46 173.65 128.64 173.17 128.8C163.56 132.17 153.8 135.07 144.06 138.03C131.49 141.36 118.93 144.64 106.18 147.27C98.1301 148.93 90.2701 151.52 81.9301 151.47C80.7201 148.23 79.5201 145 78.3101 141.76L78.3199 141.75Z" fill="#F2994C"/>
<path d="M191.34 134.84C192.48 137.73 193.61 140.62 194.75 143.51C194.32 145.9 192.28 146.37 190.46 147.11C183.88 149.76 177 151.56 170.36 154.04C155.53 158.69 140.64 163.11 125.6 167.01C123.98 166.98 122.5 167.54 121.04 168.15C111.96 170.31 102.8 172.08 93.79 174.52C92.44 174.88 91.17 174.66 90.14 173.6C89.07 170.66 87.99 167.73 86.92 164.79C89.74 161.19 94.24 161.74 97.97 160.4C99.16 159.97 100.59 160.17 101.8 159.56C111.77 157.19 121.63 154.38 131.66 152.26C133.15 151.95 134.47 151.26 135.89 150.81C147.15 148.18 158.18 144.73 169.13 141.07C175.24 139.03 181.55 137.51 187.44 134.82C188.7 134.24 190.04 134.5 191.35 134.84H191.34Z" fill="#F29946"/>
<path d="M187.37 122.94C188.52 126.42 189.66 129.89 190.81 133.37C183.21 137.77 174.67 139.74 166.47 142.51C156.22 145.97 145.82 149.07 135.27 151.55C128.36 153.43 121.41 155.08 114.45 156.74C109.38 157.95 104.3 159.17 99.3 160.65C95.45 160.49 92.26 163.35 88.34 163C87.54 162.93 86.74 163.27 86.17 162.45C84.91 159.29 83.64 156.13 82.38 152.96C83.11 151.7 84.36 151.05 85.64 150.88C95.46 149.58 104.97 146.85 114.65 144.93C124.02 143.07 133.05 139.93 142.47 138.37C143.27 138.24 143.97 137.66 144.66 137.21C154.67 134.67 164.46 131.43 174.07 127.66L174.02 127.69C178.56 126.36 182.7 123.88 187.38 122.94H187.37Z" fill="#F29B45"/>
<path d="M195.89 145.97C197.2 148.81 198.51 151.66 199.82 154.5C199.01 157.71 195.76 156.84 193.76 157.72C190.4 159.2 186.81 160.42 183.14 161.18C176.59 163.33 170.04 165.46 163.45 167.46C158.77 169.32 153.74 170.08 149.12 172.13C147.26 173.06 144.98 172.2 143.2 173.51C139.33 174.58 135.55 176.03 131.57 176.6C129.86 176.85 128.46 177.5 127.05 178.34C124.77 179.09 122.13 178 120.03 179.71C113.23 181.51 106.32 182.78 99.5 184.52C97.59 185.01 95.19 185.34 93.28 183.77C92.39 181.14 91.07 178.63 90.89 175.78C96.08 172.3 102.29 172.17 108.08 170.73C112.66 169.59 117.3 168.74 121.8 167.28C123.73 166.17 126.07 167.19 128 166.06C134.52 163.79 141.39 162.74 147.9 160.56C155.53 158.01 163.47 156.41 170.89 153.22C178.23 151.23 185.32 148.46 192.56 146.14C193.68 145.78 194.73 145.26 195.89 145.97Z" fill="#EF9846"/>
<path d="M99.4699 218.25C101.45 218.08 103.49 217.48 105.38 217.8C113.35 219.17 121.26 217.64 129.18 217.55C140.08 217.43 150.6 214.69 161.21 212.34C166.94 211.07 172.3 208.46 178.23 208C173.8 211.05 168.65 212.16 163.65 213.66C142.83 219.89 121.42 220.78 99.9 220.8C99.32 220.03 99.0299 219.2 99.4699 218.25Z" fill="#EABA90"/>
<path d="M98.39 207.54C128.33 208.1 157.23 201.99 185.83 193.94C157.86 204.4 128.98 209.85 99.0699 209.65L98.4 207.54H98.39Z" fill="#E8B68B"/>
<path d="M145.29 137.86C139.17 140.93 132.39 141.85 125.88 143.46C111.48 147.02 96.89 149.83 82.37 152.96C82.23 152.46 82.0801 151.97 81.9301 151.46C86.4801 148.18 92.11 149.12 97.15 147.99C112.84 144.46 128.44 140.62 144.01 136.6C144.71 136.74 145.15 137.14 145.29 137.86Z" fill="#EFC5A3"/>
<path d="M96.3001 195.63C103.62 194.03 110.96 192.53 118.25 190.79C124.91 189.2 131.45 187.03 138.16 185.76C142.26 184.98 146.05 182.32 150.84 184.48C146.81 185.55 142.78 186.63 138.75 187.68C131.81 189.48 124.88 191.35 117.91 193.03C110.9 194.71 103.85 196.19 96.8101 197.76C96.0201 197.2 96.2001 196.4 96.3001 195.63Z" fill="#E9BD96"/>
<path d="M122.25 167.81C119.05 170.65 114.7 170.37 111.01 171.17C104.29 172.62 97.6001 174.27 90.9001 175.79C90.1201 175.24 90.07 174.44 90.14 173.6C97.73 171.86 105.32 170.11 112.92 168.4C115.63 167.79 118.36 167.28 121.08 166.73C121.53 167.03 122.15 167.15 122.25 167.82V167.81Z" fill="#ECC29C"/>
<path d="M93.28 183.77C102.58 184.03 111.09 180.17 120.07 178.71C120.51 179.02 121.14 179.13 121.24 179.8C117.41 182.81 112.49 182.1 108.17 183.53C103.67 185.01 98.8799 185.6 94.2099 186.58C93.6499 185.73 93 184.91 93.28 183.78V183.77Z" fill="#E9C09D"/>
<path d="M71.99 119.05C73.86 116.59 76.07 117.36 78.17 118.54C79.54 119.31 80.53 120.7 79.95 122.29C78.98 124.95 76.87 126.05 74.04 125.68C73.71 123.88 75.1601 121.38 72.0601 120.69C72.0401 120.14 72.02 119.6 72 119.05H71.99Z" fill="#454F56"/>
<path d="M86.1601 162.45C90.4601 161.52 94.7601 160.6 99.0601 159.67C99.9201 160.71 101.52 159.59 102.32 160.79C97.19 162.12 92.0501 163.45 86.9201 164.78C85.7801 164.29 86.1101 163.33 86.1701 162.45H86.1601Z" fill="#ECC5A1"/>
<path d="M72.0601 120.69C73.1401 119.76 75.22 119.08 75.42 120.18C75.74 121.88 75.51 124.1 74.04 125.68C73.48 125.74 73.12 125.54 73.08 124.93C72.74 123.51 72.4001 122.1 72.0601 120.68V120.69Z" fill="#A8B4BD"/>
<path d="M206.37 166.77C189.19 173.25 171.65 178.51 153.81 182.9C157.18 179.55 161.84 179.18 165.94 178.05C177.29 174.94 188.26 170.68 199.49 167.26C201.51 166.65 203.57 165.75 204.74 163.72C205.28 164.73 205.82 165.75 206.37 166.77Z" fill="#EFCBAD"/>
<path d="M135.09 150.73C152.98 146.03 170.65 140.64 187.87 133.85C188.77 133.49 189.83 133.52 190.81 133.37C190.98 133.86 191.16 134.35 191.34 134.84C174.58 141.31 157.33 146.28 140.14 151.41C138.9 151.78 137.51 151.68 136.19 151.79C135.1 152.2 134.9 151.66 135.09 150.73Z" fill="#F2CEAF"/>
<path d="M195.89 145.97C187.69 148.69 179.68 152.01 171.19 153.8C170.1 154.17 169.89 153.66 170.09 152.72C178.22 149.39 187.03 147.91 194.75 143.5C195.17 144.3 196.21 144.82 195.89 145.97Z" fill="#F2D5BC"/>
<path d="M183.03 160.56C188.63 158.54 194.22 156.53 199.82 154.51C200.27 155.56 200.72 156.62 201.18 157.68C194.71 157.1 189.29 161.23 183.06 161.72C182.79 161.47 182.69 161.22 182.77 160.96C182.85 160.7 182.94 160.57 183.03 160.57V160.56Z" fill="#F1D5BB"/>
<path d="M187.37 122.94C183.26 125.49 178.98 127.54 174.01 127.69C177.68 124.45 182.7 123.95 186.74 121.43C186.95 121.93 187.16 122.43 187.37 122.93V122.94Z" fill="#F3D4B8"/>
<path d="M201.08 179.68C204.14 177.05 207.98 176.4 211.7 175.45C212.08 176.2 212.47 176.94 212.85 177.69C208.69 176.98 205.18 180.24 201.03 179.63L201.07 179.68H201.08Z" fill="#EBC3A0"/>
<path d="M201.04 179.63C200.06 182.03 197.73 181.33 195.93 181.9C188.49 184.28 181.08 186.76 173.65 189.17C171.75 189.78 169.81 189.99 167.53 189.29C169.35 186.48 172.46 187.44 174.66 186.84C183.46 184.45 191.94 180.81 201.07 179.68L201.03 179.63H201.04Z" fill="#EDBB8A"/>
<path d="M126.84 177.52C131.88 174.7 137.7 174.47 143.06 172.7C143.51 173.03 144.16 173.14 144.28 173.83C139.18 176.48 133.44 176.99 128.05 178.66C127.39 178.55 126.98 178.18 126.84 177.52Z" fill="#EDC3A0"/>
<path d="M183.03 160.56C183.03 160.94 183.05 161.33 183.06 161.71C176.97 164.4 170.64 166.37 164.13 167.75C163.08 168.15 162.9 167.66 163.12 166.76C169.75 164.69 176.39 162.62 183.02 160.55L183.03 160.56Z" fill="#F6D5B6"/>
<path d="M163.12 166.77C163.46 167.1 163.79 167.43 164.13 167.75C159.85 170.59 154.69 170.88 150.03 172.6C149.59 172.3 148.96 172.19 148.86 171.52C153.27 168.89 158.34 168.26 163.13 166.76L163.12 166.77Z" fill="#EBC49F"/>
<path d="M126.84 177.52C127.24 177.9 127.65 178.28 128.05 178.66C125.99 180.32 123.52 179.48 121.24 179.8C120.85 179.44 120.46 179.07 120.07 178.71C122.16 177.38 124.53 177.63 126.84 177.52Z" fill="#EAC3A4"/>
<path d="M148.85 171.53C149.24 171.89 149.63 172.25 150.02 172.61C148.27 173.79 146.26 173.76 144.27 173.83C143.86 173.45 143.46 173.08 143.05 172.7C144.82 171.54 146.83 171.54 148.84 171.53H148.85Z" fill="#E9C2A6"/>
<path d="M98.8001 431.09C96.2201 430.86 94.06 430 94.37 427.28C94.7 424.37 96.9301 423.27 99.8001 423.41C102.2 423.53 104.34 424.21 104.03 427.04C103.7 430.02 101.24 430.84 98.8001 431.09Z" fill="#2F3940"/>
<path d="M124.25 400.82C123.94 404.07 121.88 405.41 119.51 405.36C117.28 405.31 115.41 403.77 115.74 401.07C116.04 398.61 117.54 397.2 120.11 397.28C122.61 397.35 124.12 398.56 124.25 400.83V400.82Z" fill="#44535D"/>
<path d="M158.1 373.12C158.23 376.42 155.37 376.08 153.57 376.49C151.34 377 150.25 375.4 150.23 373.23C150.21 370.49 151.72 369.4 154.36 369.45C156.83 369.5 157.98 370.75 158.1 373.12Z" fill="#37444C"/>
<path d="M101.58 403.29C104.08 403.33 106.08 403.93 105.8 406.55C105.56 408.78 104.27 410.68 101.67 410.65C99.47 410.62 97.91 409.6 97.91 407.06C97.91 404.36 99.22 403.12 101.58 403.3V403.29Z" fill="#3B4852"/>
<path d="M153.79 354.35C153.2 357.01 151.8 358.7 149.06 358.56C147.4 358.48 145.23 357.64 145.79 355.85C146.45 353.76 147.3 350.82 150.47 350.99C152.38 351.09 153.84 352.22 153.79 354.34V354.35Z" fill="#35434A"/>
<path d="M134.83 361.49C132.97 365.04 130.16 364.89 127.61 362.76C125.39 360.91 125.36 358.54 128.18 356.8C131.29 357.1 134.92 356.65 134.83 361.49Z" fill="#5E6C70"/>
<path d="M168.57 346.44C170.1 346.28 171.63 347.36 171.56 349.13C171.47 351.41 170.66 353.81 167.62 353.92C165.57 354 164.5 352.56 164.45 350.83C164.38 348.53 165.37 346.65 168.57 346.43V346.44Z" fill="#374347"/>
<path d="M143.89 341.51C142.13 341.11 139.79 340.93 140.15 338.5C140.51 336.06 141.77 333.71 144.75 333.42C147.3 333.17 148.38 334.7 148.33 337.06C148.27 339.88 146.47 341.1 143.89 341.51Z" fill="#2E2F33"/>
<path d="M123.31 419.67C122.93 422.49 121.28 424.18 118.57 424.59C116.16 424.96 114.68 423.41 114.55 421.23C114.38 418.29 116.31 416.76 119.11 416.49C121.37 416.27 122.91 417.26 123.31 419.66V419.67Z" fill="#252E34"/>
<path d="M132.85 375.49C134.75 373.35 137.04 372.68 139.28 374.61C141.02 376.1 140.81 378.31 139.43 379.98C137.14 382.74 134.82 381.36 132.64 379.62C133.36 378.36 134.72 378.17 136.01 377.65C135.16 376.55 132.55 378.07 132.85 375.49Z" fill="#202931"/>
<path d="M135.12 392.78C136.83 391.42 138.62 390.93 140.42 392.54C141.69 393.68 141.69 395.29 141.06 396.64C139.82 399.29 137.47 399 135.14 398.44C138.75 396.55 134.22 394.68 135.12 392.79V392.78Z" fill="#101920"/>
<path d="M132.85 375.49C133.95 376.27 135.19 376.02 136.33 375.77C137.86 375.43 139.01 375.46 138.89 377.41C138.8 378.93 138.25 379.7 136.37 379.12C135.28 378.79 133.9 379.42 132.65 379.62C131.52 378.18 131.55 376.8 132.86 375.49H132.85Z" fill="#6E7E8A"/>
<path d="M135.12 392.78C135.48 393.33 135.71 394.12 136.21 394.39C137.36 395.01 139.57 392.72 139.84 395.01C140.12 397.37 137.38 397.1 135.79 397.73C135.52 397.83 135.35 398.19 135.14 398.42C132.41 396.55 132.59 394.66 135.12 392.77V392.78Z" fill="#466279"/>
<path d="M134.83 361.49C134.38 357.43 130.66 357.99 128.18 356.8C134.02 355.65 135.4 356.62 134.83 361.49Z" fill="#0E1517"/>
<path d="M179.96 255.67C178.72 255.55 178.02 254.99 178.26 253.64C179.04 253.25 179.34 251.43 180.39 252.34C181.42 253.24 181.23 254.7 179.96 255.67Z" fill="#1B2F3F"/>
<path d="M161.94 317.57C163.16 317.64 164.65 317.73 164.5 319.18C164.38 320.34 163.44 321.85 161.87 321.36C160.97 321.08 159.15 321.43 159.24 319.83C159.31 318.41 160.52 317.64 161.95 317.57H161.94Z" fill="#343B42"/>
<path d="M167.3 242.3C165.8 243.22 164.52 244.07 163.47 242.83C162.27 241.41 163.58 240.19 164.68 237.79C164.66 240.63 166.78 240.6 167.3 242.31V242.3Z" fill="#535753"/>
<path d="M139.52 291.84C139.6 286.69 140.14 286.15 144.7 286.69C143.09 288.71 139.9 288.9 139.52 291.84Z" fill="#404345"/>
<path d="M196.38 303.57C195.27 303.35 194.98 302.72 195.36 301.8C195.93 300.39 196.75 299.13 198.4 298.99C199.54 298.89 200.34 299.73 200.03 300.83C199.53 302.59 197.74 302.88 196.39 303.58L196.38 303.57Z" fill="#32353D"/>
<path d="M172.75 290.6C169.72 292.02 169.69 295.21 166.82 294.5C166.51 294.42 166.06 293.67 166.15 293.4C167.07 290.83 169.34 291.17 172.74 290.6H172.75Z" fill="#4A4E4F"/>
<path d="M182.62 308.89C181.72 310.22 180.2 310.69 178.69 311.09C177.78 311.33 176.94 310.81 177.07 309.87C177.33 307.98 178.9 307.24 180.52 307.01C181.46 306.88 182.34 307.6 182.61 308.89H182.62Z" fill="#333D45"/>
<path d="M189.21 327.02C189.21 328.63 187.96 328.82 186.85 328.88C185.77 328.94 185.04 328.32 185.03 327.09C185.02 325.87 185.81 325.22 186.8 325.12C188.04 324.99 189 325.62 189.21 327.02Z" fill="#272F36"/>
<path d="M148.18 307.53C149.9 306.33 148 302.98 151.1 302.75C151.38 302.73 152.03 303.48 151.97 303.59C151.11 305.22 150.95 307.45 148.18 307.53Z" fill="#3E484A"/>
<path d="M96.15 281.91C96.36 284.07 95.86 284.92 94.37 284.83C92.76 284.73 92.17 283.61 92.12 282.21C92.07 280.94 92.73 279.89 94.06 279.97C95.58 280.07 96.06 281.35 96.15 281.91Z" fill="#6D6B6D"/>
<path d="M108.71 275.52C110.54 274.2 106.87 271.77 109.6 270.79C109.87 270.69 110.58 271.12 110.72 271.46C111.49 273.34 111 274.8 108.7 275.52H108.71Z" fill="#403E3D"/>
<path d="M102.13 110.53C105.11 110.63 107.19 111.75 107.08 114.9C106.97 118 105.08 119.7 101.99 119.83C99.15 119.95 97.53 118.13 97.4 115.64C97.24 112.61 99.14 110.83 102.13 110.53Z" fill="#3C454C"/>
<path d="M173.27 108.94C173.49 110.94 171.27 112.15 168.73 112.33C166.47 112.49 164.43 111.27 164.57 108.57C164.72 105.78 165.84 103.22 169.09 103.13C171.85 103.05 173.02 105.05 173.27 108.93V108.94Z" fill="#3C4345"/>
<path d="M149.07 115.35C149.3 118.87 147.27 120.26 144.59 120.58C141.47 120.96 140.49 118.4 140.43 116.11C140.37 113.92 141.55 111.8 144.37 111.96C146.74 112.09 149.24 112.27 149.07 115.36V115.35Z" fill="#4D5458"/>
<path d="M152.25 72.27C152.35 75.62 150.77 76.9599 148.33 76.9299C145.33 76.8899 143.16 75.0598 142.97 72.1298C142.81 69.5498 144.96 68.64 147.39 68.58C150.39 68.51 151.96 69.98 152.25 72.27Z" fill="#40484A"/>
<path d="M80.16 84.9701C77.76 85.6201 76.5899 83.9801 75.4499 82.2601C74.5199 80.8501 75.18 79.65 76.11 78.68C76.8 77.96 78.03 75.57 78.5 78.95C78.61 79.76 79.64 79.6401 79.65 78.9901C79.67 76.9201 80.38 76.2301 82.38 77.0301C84.18 77.7601 85.12 79.23 84.65 80.94C84.21 82.53 84.1699 84.7801 81.7099 85.0501C81.2299 85.1001 80.73 85.0001 80.17 84.9601L80.16 84.9701Z" fill="#4C5051"/>
<path d="M153 53.6002C154.13 50.2802 156.46 50.6201 158.74 52.0001C160.22 52.8901 162.63 53.4002 161.36 56.3302C160.29 58.8102 158.64 60.0101 156.06 59.7601C153.4 59.5101 152.05 57.7001 151.62 55.2401C151.49 54.4901 151.86 53.6002 152.98 53.6202C153.57 54.1802 153.43 55.05 153.84 55.69H153.86C153.5 55.03 153.57 54.1902 153 53.6102V53.6002Z" fill="#4E5355"/>
<path d="M96.67 86.3202C99.67 85.8602 101.12 87.3602 101.17 90.1202C101.23 93.3102 98.95 94.1901 96.26 94.5001C93.11 94.8601 91.91 92.4402 91.78 90.3002C91.61 87.4302 93.66 85.9402 96.67 86.3102V86.3202Z" fill="#434C51"/>
<path d="M123.31 123.13C122.7 126.08 121.38 128.01 118.33 127.8C115.67 127.61 113.89 125.87 114.08 123.34C114.29 120.54 116.45 119.19 119.31 119.32C121.87 119.43 123.11 120.87 123.3 123.14L123.31 123.13Z" fill="#545E62"/>
<path d="M143.19 90.92C143.07 92.71 142.26 94.7802 139.3 94.8502C136.49 94.9202 134.17 93.27 134.26 90.7C134.33 88.46 135.83 85.93 138.96 85.92C141.75 85.91 143.25 87.29 143.19 90.92Z" fill="#4C5E63"/>
<path d="M63.34 77.4399C61.16 76.9799 58.9301 76.1699 59.2601 73.4499C59.6201 70.5599 61.3901 68.6901 64.6701 68.8701C67.3401 69.0101 68.76 70.62 68.58 73.03C68.36 75.92 66.23 77.2199 63.34 77.4399Z" fill="#3B3E40"/>
<path d="M95.95 65.1101C95.44 68.1101 93.8901 69.8901 90.9301 69.6001C88.5301 69.3701 86.15 68.2699 86.36 65.4099C86.58 62.4399 88.5399 60.6199 91.6899 60.6899C94.5799 60.7499 95.54 62.7701 95.95 65.1101Z" fill="#3F4344"/>
<path d="M91.8699 127C94.1999 126.95 96.0499 128.01 95.8699 130.34C95.6699 132.98 94.7299 135.67 91.1299 135.45C89.0199 135.32 86.9799 134.76 87.0699 132.15C87.1799 129.2 88.5999 127.14 91.8699 127Z" fill="#31383F"/>
<path d="M137.17 64.05C136.88 67 135.1 68.54 132.55 68.34C129.89 68.13 127.84 66.3499 127.81 63.4799C127.78 60.6899 129.63 59.3499 132.39 59.4899C135.33 59.6399 136.81 61.36 137.18 64.05H137.17Z" fill="#3C4548"/>
<path d="M161.37 84.9499C157.81 83.9499 157.08 81.4298 158.78 78.6398C160.23 76.2598 163.02 75.7298 165.21 77.6298C167.99 80.0498 168.42 82.89 164.96 85.36C163.88 84 163.67 82.4099 163.88 79.9699C163.3 82.3299 162.19 83.5599 161.37 84.9599V84.9499Z" fill="#333E43"/>
<path d="M71.13 100.72C68.76 102.78 66.91 101.93 65.99 99.3701C65.23 97.2601 65.4801 94.82 68.0501 94.05C70.1701 93.41 73.01 92.9401 74.01 95.6201C74.85 97.8501 75.13 100.8 71.09 100.75C70.47 99.76 69.62 98.8799 69.96 96.8899C69.04 99.1499 70.55 99.7299 71.13 100.72Z" fill="#4C575B"/>
<path d="M107.16 77.9601C103.23 79.1101 103.75 74.4101 103.3 72.2901C102.85 70.1601 105.82 69.1102 108 69.0902C110.66 69.0702 113.12 69.9201 113.08 73.2401C113.04 76.2601 111.09 77.6 107.16 77.95V77.9601Z" fill="#394245"/>
<path d="M84.78 102.37C86.57 104.29 90.9999 100.96 91.1299 105.78C91.2199 109.06 89.4199 110.6 86.3499 110.76C83.5799 110.91 81.92 109.18 81.66 106.72C81.45 104.74 82.7 103.06 84.78 102.37Z" fill="#334148"/>
<path d="M138.1 42.7499C140.2 41.8499 142.34 41.7499 144.12 43.2799C146.08 44.9599 146.83 47.18 144.93 49.34C142.13 52.54 139.47 51.3698 137.03 48.6998C136.83 45.8998 140.33 47.9198 140.63 45.6998C140.79 44.0398 137.45 45.0599 138.09 42.7499H138.1Z" fill="#474F52"/>
<path d="M121 55.87C120.81 58.82 118.06 60.19 116.34 60.37C114.5 60.57 111.49 59.0999 111.33 56.4299C111.15 53.3199 113.85 52.19 116.41 52.12C118.67 52.05 120.49 53.39 121 55.87Z" fill="#3A3E43"/>
<path d="M127.54 82.3001C127.07 84.7201 126.19 86.81 123.24 86.73C120.4 86.65 118.35 85.0601 118.19 82.3201C118.01 79.2501 120.65 78.1 123.16 77.95C125.83 77.79 127.25 79.6601 127.55 82.2901L127.54 82.3001Z" fill="#3A474D"/>
<path d="M151.18 99.57C151.05 97.52 150.22 95.1199 153.91 95.5199C156.69 95.8099 158.23 97.1298 158.07 99.9098C157.91 102.65 156.32 104.12 153.48 103.76C152.15 103.59 150.99 102.93 150.42 101.57C151.35 101.16 153.12 101.07 151.18 99.57Z" fill="#39434B"/>
<path d="M133.44 106.96C133.15 109.43 132.33 111.78 129.41 111.53C126.79 111.3 124.67 109.59 124.82 106.69C124.96 103.99 127.07 102.67 129.6 102.78C131.99 102.88 133.52 104.32 133.43 106.97L133.44 106.96Z" fill="#3C4344"/>
<path d="M138.1 42.75C139.38 44.58 141.87 42.8601 143.3 44.5601C142.16 47.3801 140.27 49.04 137.03 48.7C134.99 46.29 135.24 44.28 138.1 42.75Z" fill="#8D969B"/>
<path d="M109.96 96.6101C111.75 93.4101 114.38 93.9301 116.45 95.7801C118.19 97.3401 117.9 99.8101 116.3 101.6C114.48 103.64 112.01 103.61 110.05 102.07C108.11 100.56 107.2 98.4401 109.98 96.5801C111.33 97.3301 111.54 100.37 113.35 99.3401C114.99 98.4101 113.22 97.71 112.14 97.51C111.33 97.36 110.53 97.2801 109.95 96.6001L109.96 96.6101Z" fill="#2C3333"/>
<path d="M161.37 84.95C160.71 82.29 163.22 80.73 163.37 78.21C166.73 80.23 164.64 83.0301 164.96 85.3601C163.65 86.2001 162.63 84.55 161.37 84.95Z" fill="#8B9CA4"/>
<path d="M151.18 99.5701C152.7 101.12 155.96 97.27 155.95 100.17C155.93 103.7 152.25 100.67 150.43 101.58C149.61 100.51 150.53 100.09 151.19 99.5801L151.18 99.5701Z" fill="#A8B3B6"/>
<path d="M171.89 66.7C169.32 66.14 167.75 65.0299 168.13 62.3799C168.27 61.3899 169.25 60.1 170.08 60.76C171.79 62.12 172.05 64.29 171.89 66.71V66.7Z" fill="#7D9099"/>
<path d="M145.29 137.86C144.86 137.44 144.44 137.02 144.01 136.6C154.13 133.97 163.77 129.73 174.06 127.66C171.17 130.97 166.81 131.12 163.09 132.46C157.27 134.56 151.53 137.1 145.28 137.86H145.29Z" fill="#F1CCAE"/>
<path d="M170.09 152.73C170.46 153.09 170.82 153.45 171.19 153.81C163.58 157.52 155.31 159.23 147.29 161.68C141 163.6 134.57 165.07 128.21 166.73C126.97 166.95 125.4 168.15 125.06 165.67C140.07 161.35 155.08 157.04 170.09 152.72V152.73Z" fill="#ECC6A6"/>
<path d="M135.09 150.73C135.46 151.08 135.83 151.43 136.19 151.79C132.69 154.62 128.14 154.17 124.14 155.46C117.03 157.75 109.61 159.07 102.32 160.8C101.17 160.61 99.8601 160.89 99.0601 159.68C111.07 156.7 123.08 153.72 135.09 150.74V150.73Z" fill="#EDC4A2"/>
<path d="M125.06 165.68C125.83 166.86 127.08 166.62 128.21 166.74C126.41 168.13 124.26 167.59 122.25 167.81C121.86 167.45 121.47 167.08 121.08 166.72C122.28 165.9 123.63 165.6 125.06 165.68Z" fill="#EAC4A2"/>
<path d="M146.02 335.85C147.09 337.35 146.56 338.81 145 339.3C143.98 339.62 141.34 340.27 142.53 337.22C144.87 339.61 144.3 335.17 146.02 335.85Z" fill="#A3A4AC"/>
<path d="M119.25 418.19C120.26 418.28 121.38 418.36 121.36 419.7C121.34 421.39 120.45 422.53 118.69 422.68C117.47 422.79 116.23 422.51 116.25 420.96C116.28 419.11 117.78 418.62 119.24 418.19H119.25Z" fill="#5A7289"/>
<path d="M153 53.6001C153.39 54.1301 153.82 54.6199 154.16 55.1799C154.8 56.2399 157.17 54.5599 156.89 56.9099C156.85 57.2699 156.19 57.8801 155.9 57.8301C154.36 57.5801 153.16 56.87 153.19 55.03C153.19 54.56 153.06 54.0901 152.99 53.6201L153.01 53.6001H153Z" fill="#C3CCCF"/>
<path d="M94.22 91.72C92.92 88.33 94.76 87.5201 98.18 87.8601C97.72 89.9401 94.52 89.59 94.22 91.72Z" fill="#B7C0C7"/>
<path d="M117.73 126.3C118.81 124.96 121.07 124.18 120.11 121.66C121.76 124.22 120.74 125.65 117.73 126.3Z" fill="#C7D0D4"/>
<path d="M136.76 89.07C137.64 87.51 138.96 87.7299 140 87.9199C141.61 88.2099 141.1 89.68 141.1 90.77C141.1 91.19 140.89 91.61 140.77 92.03C140.44 91.35 140.07 90.69 139.79 90C139.16 88.42 137.66 90.38 136.76 89.07Z" fill="#C1D3DC"/>
<path d="M67.02 73.3799C66.86 73.8699 66.83 74.4 66.56 74.75C66.04 75.43 64.52 75.62 64.55 75.48C65.19 72.43 61.2 73.8 61.28 72.3C61.38 70.34 63.5 71.01 64.88 70.79C67.25 70.41 64.98 73.5199 67.02 73.3799Z" fill="#A5A9AC"/>
<path d="M92.8499 66.56C92.8899 67.83 91.7599 67.7199 91.0999 67.7399C89.4999 67.7799 88.03 67.26 88.05 65.35C88.06 63.96 88.94 62.69 90.37 62.58C93.58 62.32 91.0699 65.61 92.8499 66.56Z" fill="#ACB0B4"/>
<path d="M92.4 133.38C91.3 132.68 89.5499 133.32 89.4999 131.45C89.4799 130.39 89.9999 129.25 90.8499 129.22C92.4899 129.16 93.4 130.5 93.66 131.99C93.77 132.61 93.34 133.6 92.4 133.39V133.38Z" fill="#CCCED7"/>
<path d="M135.76 64.6101C134.92 66.2101 133.66 66.58 132.34 66.58C131.42 66.58 130.09 65.33 130.3 65.27C132.81 64.58 128.38 60.58 132.62 60.77C135.74 60.9 131.39 65.9101 135.76 64.6101Z" fill="#B1B9BE"/>
<path d="M71.13 100.72C68.51 99.8899 68.46 99.8899 68.65 97.7899C68.72 96.9799 65.47 96.0299 68.65 95.4599C70.26 95.1699 70.8499 96.2498 70.6099 97.9198C70.4799 98.8198 70.9099 99.7999 71.0899 100.75L71.12 100.72H71.13Z" fill="#BEC8CC"/>
<path d="M112.08 73.7299C111.15 74.7899 110.9 76.3599 109.16 75.7499C107.63 75.2099 105.2 75.7498 106.01 72.6298C106.42 71.0498 107.13 70.09 108.63 70.59C110.16 71.1 111.52 72.1199 112.08 73.7299Z" fill="#8C949E"/>
<path d="M83.26 106.43C85.47 105.92 87.55 104.27 89.61 105.63C90.21 106.03 89.41 106.97 88.5 107.71C86.01 109.72 84.72 108.23 83.26 106.43Z" fill="#ABC0C5"/>
<path d="M118.67 56.4298C118.33 58.3898 116.4 57.91 115.24 58.12C114.48 58.26 112.67 57.71 112.98 56.11C113.3 54.43 114.79 53.8 116.35 53.62C118.34 53.39 118.04 55.2298 118.67 56.4198V56.4298Z" fill="#A8ADB1"/>
<path d="M125.89 82.4699C125.54 84.1899 124.61 85.3699 122.91 85.1799C121.28 84.9999 121.16 83.5399 121.2 82.1599C121.24 80.7599 121.45 79.51 123.28 79.6C125.14 79.69 125.6 81.0399 125.88 82.4699H125.89Z" fill="#B3C0CC"/>
<path d="M129.24 104.41C130.82 104.67 132.06 105.26 132.03 107.2C132 108.89 130.89 109.68 129.48 109.67C127.9 109.66 126.51 108.77 126.3 107.07C126.06 105.07 127.66 104.69 129.24 104.41Z" fill="#C5CFD2"/>
<path d="M109.96 96.6101C110.43 96.6001 110.99 96.7501 111.35 96.5501C113.46 95.3501 115.28 95.4901 115.88 98.0501C116.27 99.7301 115.58 101.51 113.47 101.65C111.06 101.81 109.78 100.59 110.1 98.02C110.16 97.55 110.03 97.0601 109.99 96.5801L109.97 96.6001L109.96 96.6101Z" fill="#B2BABC"/>
</svg>
