<svg width="220" height="431" viewBox="0 0 220 431" fill="none" xmlns="http://www.w3.org/2000/svg">
<path d="M169.27 321.57C168.78 322.34 168.16 322.88 167.16 322.72C165.05 321.44 165.01 319.1 164.35 317.1C162.65 311.95 161.51 306.56 157.79 301.79C152.39 308.57 147.81 315.45 143.14 322.26C136.47 331.99 129.4 341.44 122.95 351.32C121.48 353.58 120.41 355.37 124.29 356.11C125.69 356.38 127.56 356.9 127.39 358.78C127.17 361.14 125.06 360.8 123.48 360.63C121.55 360.42 120.33 361.31 119.25 362.67C118.9 363.01 118.55 363.36 118.19 363.7C115.46 361.71 114.49 363.88 113.26 365.7C102.89 380.98 93.36 396.73 86.27 413.85C85.51 415.69 84.84 417.6 82.95 418.66C81.62 419.35 82.5999 422.18 80.0699 421.75C78.2999 419.19 79.9699 416.93 80.8199 414.7C86.8999 398.74 95.3 383.99 104.54 369.69C105.9 367.59 107.34 365.55 108.69 363.44C111.29 359.39 111.18 359.09 106.33 358.3C91.36 355.87 76.46 353.12 61.79 349.23C59.37 348.59 57.24 348.66 55.34 350.57C53.25 352.66 54.0201 354.8 54.9301 357.02C59.7401 368.75 64.35 380.54 66.15 393.2C66.48 395.49 67.09 397.84 65.28 399.86C63.24 400.29 62.53 398.89 61.89 397.39C60.2 384.44 56.19 372.17 51.05 360.2C49.74 357.15 48.48 357.04 45.96 359C39.82 363.78 34.14 369.23 26.88 372.43C25.4 372.42 24.54 371.75 24.53 370.2C24.97 368.2 26.67 367.34 28.12 366.28C32.95 362.77 37.85 359.35 42.48 355.55C47.32 351.58 46.59 346.38 40.7 343.9C37.95 342.74 34.9301 342.36 32.0601 341.53C30.1901 340.99 28.06 340.8 27.15 338.62C27.51 338.31 27.86 338 28.22 337.68C30.32 336.753 33.3767 336.643 37.39 337.35C37.03 333.91 32.5199 332.61 33.0699 328.83C33.6899 327.69 34.48 328.55 35.21 328.65C38.61 328.4 39.59 331.28 40.97 333.37C43.65 337.41 46.89 340.42 51.77 341.6C54.29 342.21 56.23 341.97 58.13 340.12C67.19 331.29 75.26 321.6 83.46 311.07C71.23 314.27 59.8599 317.93 48.4399 321.39C46.1599 322.08 43.85 323.69 41.34 321.95C39.99 320.66 42.36 320.87 42.12 320.02C43.57 317.72 45.99 317.02 48.35 316.2C59.67 312.25 71.26 309.23 82.78 305.99C89.37 304.13 89.62 303.7 85.78 297.84C83.13 293.8 80.01 290.11 77.23 286.17C76.12 284.59 74.47 283.17 75.05 280.87C74.88 279.96 74.19 278.81 76 278.8C78.12 278.91 79.07 280.6 80.21 281.98C84.01 286.6 87.6801 291.32 90.9301 296.34C92.3601 298.54 93.4201 298.5 94.9301 296.37C100.87 287.94 106.12 279.09 111.2 270.13C113.02 266.92 111.9 265.66 108.52 265.29C103.57 264.75 98.65 263.91 93.72 263.2C91.63 262.9 89.34 262.84 88.15 260.57C88.96 259.52 90.23 260.03 91.25 259.67C93.18 257.69 95.54 258.4 97.8 258.66C102.57 259.2 107.3 260.01 112.09 260.31C113.07 260.37 114.31 260.51 114.82 259.59C115.56 258.25 114.26 257.48 113.41 256.79C108.91 253.14 104.08 249.92 99.65 246.18C98.16 244.92 96.3 243.91 96.14 241.62C95.94 240.95 95.13 240.23 96.29 239.67C98.77 238.92 100.36 240.65 102.08 241.86C106.57 245.02 110.76 248.58 115.13 251.9C117.14 253.43 118.23 253.18 119.06 250.7C121.97 242.03 124 233.17 125.45 223.62C120.2 224.18 115.86 226.45 111.23 227.45C107.33 228.29 103.64 231.27 99.3199 229.02C97.8099 227.64 100.13 227.76 100.12 226.97C101.42 224.64 103.9 224.41 106.06 223.76C111.63 222.09 117.19 220.36 122.78 218.76C124.92 218.15 126.87 217.31 127.37 214.76C128.74 207.78 129.81 200.75 131.11 193.27C126.19 194.23 122.94 197.19 119.31 199.31C115.58 201.48 112.11 204.09 108.6 206.6C107.01 207.74 105.41 209.11 103.16 208.39C103.14 207.88 103.12 207.37 103.1 206.87C102.47 204.43 104.62 203.82 105.94 202.81C112.39 197.85 119.22 193.44 126.36 189.51C127.81 188.71 129.32 187.98 130.55 186.85C133.73 183.92 133.53 180.12 129.89 177.78C123.19 173.46 116.7 168.85 110.16 164.31C108.43 163.11 106.3 162.18 106.12 159.62C106.03 158.58 103.2 158.59 105.03 156.8C107.92 155.96 109.73 158.06 111.67 159.44C117.89 163.89 124.31 168.05 130.65 172.31C131.96 173.19 133.61 174.78 134.19 171.67C136.5 159.3 138.89 146.95 140.49 133.59C131.47 139.26 123.38 144.99 115.03 150.33C112.61 151.88 110.57 154.5 107.14 153.9C106.8 153.59 106.47 153.28 106.13 152.97C105.65 149.74 108.5 148.92 110.32 147.62C118.97 141.45 127.86 135.6 137 130.2C142.25 127.1 142.71 122.48 142.83 117.43C142.88 115.04 140.78 114.18 139.19 113.06C129.54 106.29 119.99 99.39 110.09 92.99C108.11 91.71 106.3 90.31 105.21 88.16C105.54 87.68 105.87 87.19 106.2 86.71C109.98 86.03 112.44 88.7 115.09 90.49C123.22 95.98 131.4 101.4 139.31 107.22C143.74 110.48 143.89 110.28 144.63 104.87C146.44 91.53 148.05 78.1699 148.48 64.6999C148.54 62.9299 148.92 61.04 147.68 59.11C143.67 60.74 140.4 63.58 136.91 66C128.85 71.59 121.08 77.6 112.8 82.87C111.07 83.97 109.49 85.85 107 84.83L106.08 83.83C105.8 81.02 108.28 80.42 109.89 79.22C120 71.66 130.44 64.57 140.75 57.3C144.01 55 143.65 53.72 140.58 51.75C132.76 46.71 124.86 41.82 116.77 37.23C115.01 36.23 111.96 35.72 113.34 32.34C115.06 31.32 116.72 31.7501 118.35 32.5601C127.33 37.5801 136.08 42.9899 144.64 48.6999C145.56 49.3199 146.56 50.5201 147.71 49.8101C149.04 48.9901 148.4 47.41 148.34 46.13C148.17 41.93 146.02 37.78 148.01 33.52C148.7 33.17 149.4 33.16 150.1 33.47C153.27 37.71 152.04 43.03 153.61 47.93C161.44 42.84 168.93 37.4 177.1 33.05C178.4 32.82 179.58 32.92 180.32 34.22C180.26 37.11 177.85 37.97 175.91 39.08C169.42 42.81 163.47 47.34 157.25 51.47C154.18 53.51 154.09 55.17 157 57.49C165.18 64.02 173.78 69.96 182.38 75.89C187.57 79.47 192.77 83.04 197.93 86.66C199.98 88.1 201.98 89.57 203.03 91.96C203.03 92.53 203.03 93.11 203.03 93.68C202 96.15 199.85 97.3899 197.7 98.6899C186.63 105.39 175.47 111.96 164.73 119.19C160.73 121.88 160.72 122.13 164.55 125.05C173.66 131.99 183.17 138.38 192.37 145.2C194.89 147.07 196.16 146.61 196.68 143.52C197.09 141.07 197.48 138.59 198.23 136.22C198.68 134.8 198.58 132.69 201.03 132.84C201.09 134.23 201.15 135.62 201.22 137.01C202.1 140.66 200.76 144.17 200.56 147.75C200.45 149.81 199.6 152.08 201.89 153.61C203.33 154.26 202.26 155.02 201.98 155.74C198.83 159.35 197.66 163.79 196.59 168.32C194.35 177.84 191.82 187.28 189.09 196.67C187.65 201.62 188.2 201.95 193.42 201.59C197.29 201.32 201.23 199.84 205.07 201.85C205.93 202.63 206.06 203.35 204.91 203.98C202.74 207.11 199.28 206.2 196.29 206.69C185.14 208.51 187.04 206.38 183.8 217.22C182.62 221.16 182.26 225.38 179.9 228.93C179.16 229.74 178.29 230.24 177.15 230.07C174.97 227.79 176.53 225.36 176.92 223.01C177.27 220.88 178.13 218.85 178.5 216.72C179.21 212.64 176.55 209.62 172.49 210.49C159.47 213.27 146.61 216.73 133.94 220.83C131.57 221.6 130.66 223.52 130.22 225.74C128.39 235.05 126.34 244.31 123.06 253.25C122.06 255.97 122.89 258.01 125.06 259.84C136.13 269.18 146.87 278.87 156.12 290.07C157.7 291.98 158.79 291.42 159.96 289.7C162.4 286.12 164.5 282.33 166.92 278.75C168.19 276.87 169.19 274.57 171.94 274.3C173.67 274.72 173.46 275.98 173.25 277.26C171.07 282.45 167.34 286.76 164.63 292.12C168.84 292.44 172.71 292.23 176.6 291.66C179.18 291.28 181.88 290.69 184.2 292.64C184.4 293.11 184.44 293.58 184.3 294.07C180.6 297.68 175.73 297.05 171.27 297.34C161.47 297.97 161.62 297.72 165.63 306.59C167.76 311.3 170.76 315.95 169.22 321.6L169.27 321.57Z" fill="#F4F9F8"/>
<path d="M63.0501 396.7C63.2001 397.93 63.74 398.9 64.9 399.46C72.24 405.66 77.3499 413.13 78.1899 423C71.5499 428.13 63.5101 428.82 55.6701 429.66C37.2401 431.63 21.3 426.04 8.07996 412.93C-0.500037 402.42 -1.22005 390.7 2.81995 378.29C4.19995 374.05 5.43002 369.74 7.76002 365.87C14 364.92 19.6 366.39 24.57 370.28C24.92 371.39 25.6501 371.84 26.8001 371.58C31.1301 372.43 34.83 374.76 38.46 377C45.09 381.1 51.64 385.35 57.73 390.27C59.98 392.08 61.8901 394.05 63.0501 396.7Z" fill="#EB5F6A"/>
<path d="M209.43 7.86001C208.45 14.57 210.49 21.5 207.99 28.11C206.14 30.48 203.53 30.8001 200.8 30.8001C169.54 30.8301 138.27 30.86 107.01 30.77C104.8 30.77 102.7 30.4501 100.96 28.9101C99.61 27.9701 99.23 26.6101 99.12 25.0301C98.66 18.7401 98.31 12.45 98.25 6.13003C98.21 2.14003 99.58 1.05001 103.46 1.05001C127.88 1.08001 152.31 0.87004 176.73 0.77004C184.87 0.74004 193.01 0.759998 201.15 0.789998C207.98 0.819998 208.35 1.16 209.43 7.85V7.86001Z" fill="#E25C6A"/>
<path d="M105.2 88.16C118.1 96.09 130.31 105.01 142.72 113.66C144.47 114.88 144.57 116.19 144.58 118.24C144.62 125.51 141.29 129.76 134.97 133.39C124.92 139.17 115.06 145.43 106.13 152.96C103.88 151.77 104.99 149.72 105.03 148.07C105.49 128.1 106.75 108.13 105.2 88.16Z" fill="#14586C"/>
<path d="M106.99 84.82C120.22 75.62 133.45 66.42 146.68 57.22C148.34 56.07 150.15 54.14 150.16 58.35C150.22 76.53 147.43 94.42 145.27 113.09C131.76 104.21 119.58 94.53 106.18 86.7C106.45 86.07 106.72 85.4401 106.98 84.8101L106.99 84.82Z" fill="#125A6D"/>
<path d="M113.03 33.25C124.3 40.2 136.15 46.23 146.91 54.53C133.25 64.32 119.66 74.0699 106.07 83.8199C103.89 79.0399 104.84 73.88 104.44 68.91C103.5 57.22 103.02 45.5 102.36 33.79C105.8 30.21 109.06 30.04 113.03 33.25Z" fill="#125368"/>
<path d="M88.13 260.57C97.08 261.99 106.03 263.42 115.29 264.89C109.07 278.24 101.27 290.1 92.7 302.33C87.84 293.66 81.67 286.41 75.98 278.8C79.89 272.63 82.89 265.85 88.14 260.57H88.13Z" fill="#10576A"/>
<path d="M106.11 159.6C114.48 165.32 122.83 171.09 131.24 176.76C135.94 179.93 135.91 185.54 130.91 188.48C121.32 194.13 111.63 199.62 103.1 206.86C100.99 205.77 102.05 203.84 102.21 202.43C103.62 189.5 103.91 176.51 104.35 163.53C104.4 162.09 103.48 159.97 106.12 159.6H106.11Z" fill="#13576C"/>
<path d="M41.3199 321.96C56.3399 317.44 71.37 312.92 87.76 307.99C77.77 321.06 68.1 332.35 57.62 342.96C56.76 343.83 55.9301 344.36 54.5601 343.93C49.2701 342.28 43.5101 341.7 40.6801 335.65C39.4401 333.01 37.65 330.5 35.2 328.66C35.54 324.87 38.8699 323.81 41.3199 321.95V321.96Z" fill="#10586D"/>
<path d="M107.14 153.88C118.62 146.06 130.03 138.12 142.56 130.75C140.44 146.43 137.81 161.41 134.74 176.7C124.32 170.68 114.96 163.28 105.02 156.78C105.72 155.81 106.43 154.85 107.13 153.89L107.14 153.88Z" fill="#14576B"/>
<path d="M24.5601 370.28C18.9601 368.81 13.35 367.34 7.75 365.87C11.56 356.77 16.81 348.55 23.2 341.06C24.24 339.84 25.05 338.19 27.13 338.63C31.46 339.74 35.81 340.75 40.1 342C41.6 342.44 43.22 342.53 44.45 344.06C49.58 350.44 49.5301 351.87 43.1801 356.93C37.2001 361.69 31.1301 366.33 24.5601 370.28Z" fill="#115D6F"/>
<path d="M75.03 280.87C80.03 287.28 84.92 293.75 89.47 300.5C91.87 304.06 91.23 305.49 87.21 306.5C71.97 310.33 56.93 314.81 42.11 320.03C42.56 316.65 45.33 314.79 47.28 312.48C55.63 302.6 64.59 293.23 72.37 282.87C73.05 281.97 73.64 280.87 75.04 280.88L75.03 280.87Z" fill="#0F586C"/>
<path d="M103.15 208.38C112.65 201.72 122.11 195.02 133.29 189.47C132.03 197.28 130.53 204.5 129.81 211.79C129.28 217.19 127.08 219.78 121.63 220.89C114.35 222.37 107.28 224.88 100.12 226.95C99.72 220.53 99.26 214.1 103.16 208.38H103.15Z" fill="#125569"/>
<path d="M99.3101 229.01C108.65 226.4 118 223.78 127.75 221.06C125.47 233.21 123.05 244.83 118.68 256.37C111.11 250.73 103.69 245.2 96.28 239.67C96.73 235.96 97.3101 232.29 99.3101 229.02V229.01Z" fill="#11586B"/>
<path d="M113.03 33.25C109.48 33.53 105.86 32.54 102.35 33.8C101.88 32.17 101.42 30.54 100.95 28.92C134.17 28.89 167.39 28.87 200.6 28.84C203.08 28.84 205.59 29.08 207.98 28.11C207.33 30.11 206.68 32.11 206.03 34.11C204.7 35.23 203.11 35.74 201.43 35.64C194.41 35.24 187.26 37.05 180.37 34.46C179.33 33.6 178.19 33.86 177.05 34.15C169.49 36.95 161.65 35.62 153.91 35.63C152.36 35.63 151.06 34.84 149.85 33.92C149.28 33.9 148.7 33.88 148.13 33.86C146.31 35.62 143.99 35.71 141.67 35.72C133.81 35.74 125.92 36.27 118.18 34.28C116.63 33.09 115.01 32.23 113.02 33.27L113.03 33.25Z" fill="#F19E8F"/>
<path d="M96.1199 241.61C102.61 246.53 109.06 251.51 115.64 256.33C117.39 257.61 118 258.75 117.16 260.87C116.31 263.01 115 262.19 113.52 262.02C106.1 261.17 98.6599 260.44 91.2299 259.67C89.3099 258.93 87.95 258.21 89.43 255.66C92.03 251.17 93.0199 245.89 96.1199 241.62V241.61Z" fill="#115769"/>
<path d="M33.06 328.84C36.13 332.04 38.9 335.47 41.37 339.66C36.57 340.07 32.6399 336.97 28.2099 337.69C26.0999 335.54 28.6899 334.62 29.4699 333.35C30.4699 331.72 31.85 330.33 33.06 328.84Z" fill="#135767"/>
<path d="M184.1 293.34C183.92 293.24 183.85 293.09 183.88 292.89C178.77 288.33 174.64 283.06 172.23 276.57C172.23 275.88 172.69 275.08 171.76 274.61C169.84 273.96 168.99 272.29 168.1 270.7C164.42 264.15 161.17 257.41 159.19 250.13C157 242.07 158.76 237.43 166.06 233.39C169.43 231.53 172.56 228.57 176.98 229.38C177.94 229.53 178.5 228.88 179.11 228.33C186.21 222.36 195.04 220.66 203.65 218.45C205.31 218.02 206.93 218.55 208.26 219.73C211.21 222.21 210.02 225.95 210.89 229.04C213.38 237.94 216.25 246.72 218.27 255.77C220.47 265.62 217.84 274.04 212.11 281.87C206.57 289.43 199.67 295.55 192.01 300.86C187.41 300.42 185.54 297.12 184.1 293.35V293.34Z" fill="#EC6173"/>
<path d="M78.1801 423C75.2701 414.3 69.93 406.96 64.89 399.46C65.03 387.56 60.77 376.7 56.84 365.78C55.83 362.98 54.2001 360.37 53.4201 357.52C52.8601 355.47 49.63 353.84 52.52 350.99C55.34 348.21 57.48 346.18 62.25 347.56C79.11 352.43 96.49 355.01 114.25 358.03C100.54 378.36 87.56 398.6 80.07 421.76C79.44 422.18 78.8101 422.6 78.1801 423.01V423Z" fill="#0D576D"/>
<path d="M180.37 34.45C188.92 33.71 197.48 34.05 206.03 34.1C206.12 48.98 204.18 63.75 203.61 78.59C203.44 83.04 203.24 87.5 203.06 91.95C186.85 80.64 170.35 69.76 154.66 57.71C151.16 55.02 151.48 53.4201 155.04 51.1601C163.58 45.7301 171.94 40.03 180.37 34.44V34.45Z" fill="#105267"/>
<path d="M201.07 132.82C198.14 137.94 199.22 144.11 196.25 149.83C183.64 140.72 170.95 131.55 157.87 122.09C172.67 111.75 188.04 102.99 203.06 93.6801C202.99 105.21 202.95 116.75 202.84 128.28C202.82 129.95 203.55 132.06 201.07 132.83V132.82Z" fill="#12556A"/>
<path d="M119.25 362.67C117.95 359.82 118.68 358.53 121.98 358.87C123.56 359.03 125.19 360.01 127.47 358.48C124.14 357.47 121.27 356.61 118.05 355.64C131.29 336.7 144.4 317.95 157.77 298.82C163.21 306.38 165.42 314.46 167.17 322.73C163.98 328.56 158.35 332.15 153.98 336.91C145.32 346.35 136.5 355.64 128.48 365.65C124 371.24 123.7 371.15 120.44 364.81C120.07 364.09 119.65 363.39 119.26 362.68L119.25 362.67Z" fill="#0E5268"/>
<path d="M82.95 418.66C90.75 397.14 103.03 378.08 115.79 359.23C117.32 360.16 117.42 362.12 118.19 363.7C123.19 371.93 119.62 378.15 114.35 384.91C106.06 395.54 98.15 406.46 88.33 415.77C86.89 417.13 85.7599 419.64 82.9399 418.66H82.95Z" fill="#0A5067"/>
<path d="M205.12 201.83C199.58 202.49 194.03 203.07 188.51 203.87C186.03 204.23 185.59 203.31 186.16 201.2C189.82 187.47 193.52 173.74 197.06 159.98C197.78 157.17 199.94 156.63 202.03 155.73C202.3 156.3 202.81 156.87 202.8 157.44C202.52 172.3 204.14 187.05 205.12 201.84V201.83Z" fill="#105569"/>
<path d="M184.1 293.34C186.74 295.84 189.37 298.35 192.01 300.85C184.43 307.76 176.85 314.66 169.27 321.57C167.11 313.06 163.81 304.99 159.33 297.15C167.72 294.64 176.39 297.01 184.11 293.34H184.1Z" fill="#0F5168"/>
<path d="M208.26 219.73C199.44 219.78 191.71 223.68 183.73 226.68C182.2 227.25 180.66 227.79 179.12 228.34C180.77 222.12 182.62 215.94 183.99 209.66C184.63 206.7 186.25 206.06 188.82 205.82C194.21 205.31 199.59 204.59 204.97 203.96C207.27 208.97 207.68 214.37 208.28 219.73H208.26Z" fill="#0E4E66"/>
<path d="M201.93 153.59C198.87 155.07 197.55 154.69 198.49 150.85C199.61 146.28 200.35 141.61 201.25 136.99C203.28 142.45 202.36 148.03 201.93 153.6V153.59Z" fill="#12556A"/>
<path d="M176.98 229.39C174.06 230.92 171.16 232.49 168.21 233.98C159.85 238.19 158.35 242.33 161.07 251.26C163.6 259.56 168.1 266.88 171.76 274.62C167.14 280.32 163.71 286.79 159.9 293.01C158.84 294.74 157.95 295.73 156.42 293.4C147.88 280.36 135.57 271.08 124 261.08C121.18 258.65 119.92 256.9 121.58 252.89C125.41 243.68 127.08 233.79 129.07 224.05C129.65 221.21 130.88 219.91 133.66 219.11C146.25 215.49 158.83 211.85 171.62 208.96C177.75 207.57 181.66 211.75 179.99 217.87C178.94 221.7 177.98 225.56 176.98 229.41V229.39Z" fill="#12576B"/>
<path d="M137.07 175.18C138.85 164.78 140.73 153.84 142.59 142.9C143.12 139.8 143.86 136.7 144.01 133.57C144.16 130.31 145.92 128.83 148.41 127.04C153.97 123.03 158.06 123.9 163.32 128.19C172.96 136.05 183.44 142.88 193.5 150.22C197.78 153.34 197.51 155.74 192.65 157.99C176.56 165.45 160.46 172.87 144.33 180.26C140.49 182.02 136.92 179.72 137.06 175.19L137.07 175.18Z" fill="#125569"/>
<path d="M201.24 92.83C186.15 101.09 172.63 110.19 158.83 118.82C157.37 119.73 155.8 121.47 154.06 119.56C151.84 117.12 146.72 116.72 147.31 112.46C149.74 94.72 151.65 76.95 152.23 58.24C168.38 70.46 184.44 81.53 201.24 92.83Z" fill="#13576C"/>
<path d="M156.65 296.92C143.1 316.45 129.87 335.52 116.38 354.98C112.92 346.83 109.56 338.94 106.23 331.05C103.13 323.72 100.26 316.28 96.35 309.32C95.58 307.95 94.23 306.45 97.33 305.86C115.44 302.41 133.51 298.75 151.88 296.95C153.29 296.81 154.73 296.93 156.65 296.93V296.92Z" fill="#0F566C"/>
<path d="M114.83 355.78C95.74 352.77 77.21 350.14 58.66 344.43C67.56 334.94 76.16 325.72 83.91 315.78C84.32 315.26 84.7801 314.77 85.1801 314.24C93.1901 303.75 92.6899 305.06 97.4399 315.44C103.44 328.54 108.88 341.91 114.82 355.78H114.83Z" fill="#0E566C"/>
<path d="M155.65 294.62C134.45 296.49 114.35 300.2 94.31 304.78C94.08 302.14 95.6399 300.92 96.6899 299.5C103.41 290.39 109.61 280.95 114.65 270.79C117.37 265.31 122.57 263.24 127.57 266.96C137.96 274.67 147.31 283.61 155.65 294.64V294.62Z" fill="#0F556B"/>
<path d="M143.78 182.87C160.65 174.41 177.43 166.91 195.22 159.59C192.61 169.94 190.14 179.81 187.63 189.67C186.73 193.21 185.72 196.72 184.78 200.24C183.26 205.91 178.45 207.5 173.63 204.06C163.9 197.09 154.11 190.2 143.78 182.88V182.87Z" fill="#12566A"/>
<path d="M174.31 206.45C159.69 209.89 146.22 213.28 132.99 217.53C130.91 218.2 130.47 217.46 130.86 215.32C132.4 206.68 133.65 198 135.22 189.37C135.92 185.54 141.14 183.54 144.26 185.68C153.94 192.35 163.61 199.05 174.32 206.45H174.31Z" fill="#12566C"/>
<path d="M63.05 396.7C52.42 387.57 41.23 379.29 28.45 373.35C27.77 373.04 27.35 372.18 26.8 371.58C34.52 365.87 42.44 360.42 49.87 353.9C55.99 367.82 61.83 381.53 63.04 396.7H63.05Z" fill="#0E5B71"/>
<path d="M118.19 34.26C119.42 32.43 121.25 33.4399 122.76 33.4499C131.22 33.4899 139.67 33.6999 148.13 33.8399C148.8 38.7699 149.53 43.6799 150.12 48.6199C150.29 50.0199 150.97 51.8 149.44 52.78C147.76 53.85 146.72 52.1 145.61 51.28C136.9 44.91 127.56 39.5499 118.18 34.2499L118.19 34.26Z" fill="#0D4F67"/>
<path d="M149.85 33.91C158.92 33.45 167.98 33.77 177.05 34.13C168.93 39.52 160.81 44.9099 152.28 50.5699C151.42 44.6799 150.63 39.29 149.85 33.91Z" fill="#0D546C"/>
<path d="M172.24 276.58C176.78 281.55 180.21 287.32 183.89 292.9C176.5 293.34 169.11 293.78 161.29 294.25C164.99 288.27 168.61 282.43 172.24 276.58Z" fill="#0C556E"/>
<path d="M146.49 116.3C149.25 118.54 153.03 119.29 153.15 121.92C153.24 123.82 149.27 124.34 147.32 125.8C146.82 126.17 146.12 126.28 145.28 126.59C145.67 123.31 146.03 120.24 146.5 116.3H146.49Z" fill="#256474"/>
<path d="M55.05 346.36C53.21 348.12 51.96 349.32 50.45 350.77C48.94 348.25 47.61 346.05 45.95 343.29C49.25 343.66 51.71 344.94 55.05 346.36Z" fill="#265C6E"/>
<path d="M181.58 211.13C180.44 210.21 179.44 209.39 178.05 208.26C179.7 207.7 180.98 207.26 182.31 206.8C183.27 208.54 182.09 209.65 181.58 211.13Z" fill="#49656A"/>
<path d="M123.66 263.05C121.68 263.92 120.07 263.13 118.53 262.26C118.43 262.2 118.78 260.68 119.14 260.57C121.43 259.88 121.99 262.37 123.66 263.04V263.05Z" fill="#3F565F"/>
<path d="M139.9 182.24C138.89 183.69 137.76 184.54 136.3 184.03C136.01 183.93 135.88 181.85 136.36 181.37C137.84 179.89 138.58 181.96 139.9 182.24Z" fill="#2D5567"/>
</svg>
