<svg width="1205" height="1768" viewBox="0 0 1205 1768" fill="none" xmlns="http://www.w3.org/2000/svg">
<g clip-path="url(#clip0_80_7277)">
<path d="M581.36 131.778C581.379 131.484 581.403 131.187 581.416 130.893C582.475 105.812 554.646 18.3853 562.65 5.89459C567.285 1.76952 578.329 1.95038 584.345 1.74773C614.04 0.751868 643.881 1.8022 673.584 2.0942L836.434 3.49755C887.513 3.74814 938.528 1.02643 989.583 0.241949C1019.91 -0.226561 1050.2 1.03297 1080.51 1.08309C1085.19 4.66992 1088.25 8.0955 1091.72 12.8068C1085.71 33.5672 1089.07 57.5593 1087.31 79.2089C1086.06 94.6458 1080.22 118.193 1080.83 131.832C1090.08 140.292 1092.3 151.2 1092.78 163.284C1093.28 175.881 1091.82 187.958 1082.94 197.557C1081.41 199.207 1079.79 200.623 1078.06 202.044C1080.09 228.435 1082.1 255.428 1082.7 281.869C1083.51 317.838 1082.31 353.965 1083.03 390.008C1084.34 469.02 1088.08 547.918 1094.23 626.702C1094.6 631.677 1093.74 636.759 1093.98 641.771C1094.67 655.872 1097.15 670.095 1098.2 684.226C1100.08 709.622 1100.46 734.993 1104 760.293C1106.96 782.142 1110.94 803.805 1115.94 825.281C1120.93 846.758 1126.92 867.955 1133.9 888.872C1137.94 901.04 1142.23 913.12 1146.77 925.111C1149.69 932.777 1153.84 940.541 1155.3 948.604C1177.02 1008.68 1224.86 1081.83 1194.7 1146.63C1173.38 1192.43 1091.44 1244.25 1047.44 1270.3C1038.14 1276.61 1028.34 1282.25 1019.2 1288.76C965.937 1326.67 916.798 1369.36 869.269 1414.12C851.194 1431.14 832.492 1447.82 815.905 1466.35C808.041 1475.07 801.823 1485.24 792.458 1492.45L785.914 1499.39C778.004 1511.52 767.332 1521.96 757.472 1532.52C752.371 1538.35 746.053 1547.5 739.529 1551.39L737.313 1552.16C737.101 1552.71 736.907 1553.26 736.676 1553.8C732.013 1564.66 718.174 1575.31 709.954 1583.69C690.133 1603.91 670.109 1623.94 647.989 1641.74C623.38 1661.54 570.852 1694.63 541.543 1704.83L538.939 1705.73C528.645 1711 517.76 1715.07 507.366 1720.16C494.635 1723.88 482.232 1728.55 469.656 1732.75C452.375 1737.64 434.496 1741.7 417.398 1747.02C397.12 1751.91 376.882 1756.71 356.381 1760.6C337.29 1759.77 318.455 1765.29 299.425 1766.41C236.368 1770.12 141.554 1768.24 83.9407 1742.84C56.7366 1730.85 37.6149 1717.89 19.4345 1694.14C13.7644 1686.73 8.1466 1678.9 4.93022 1670.07C-1.62021 1652.09 -0.277863 1630.02 7.84372 1612.78C14.1675 1599.35 26.2115 1589.6 36.9676 1579.81C67.5254 1551.99 99.2992 1525.78 138.704 1511.58C145.863 1505.8 156.394 1501.39 164.642 1497.15C180.539 1488.97 196.804 1480.89 212.391 1472.15C269.17 1440.32 310.656 1405.44 355.37 1358.65C372.259 1340.71 388.399 1322.12 403.79 1302.88C419.18 1283.64 433.771 1263.81 447.562 1243.39C454.727 1232.7 482.131 1184.18 487.814 1180.06C487.871 1172.47 493.406 1165.29 497.095 1158.88C503.637 1145.39 511.95 1132.76 519.226 1119.65C526.901 1105.83 533.415 1091.29 542.009 1078.01C558.631 1048.03 572.425 1016.86 586.572 985.699C593.635 970.149 601.414 954.923 608.008 939.162C635.452 873.548 640.913 826.161 637.605 755.78C637.117 745.39 639.037 734.793 637.614 724.579C637.396 724.496 637.141 724.477 636.96 724.331C634.43 722.287 634.648 718.332 634.264 715.296C633.382 708.308 632.641 704.37 637.104 698.615C633.417 689.772 630.32 607.517 630.553 593.207C627.762 572.152 627.37 550.226 626.195 529.01L620.889 447.43C619.799 431.346 617.627 415.34 616.075 399.298C612.249 357.884 607.673 316.554 602.349 275.308C599.965 256.724 597.579 219.27 593.175 203.451C591.606 202.251 590.176 201.048 588.808 199.612C576.64 186.84 575.332 166.518 576.104 149.714C576.372 143.874 576.864 135.949 581.36 131.778Z" fill="#7CD2C2"/>
<path d="M581.36 131.778C581.379 131.484 581.403 131.187 581.416 130.893C582.475 105.812 554.646 18.3853 562.65 5.89459C567.285 1.76952 578.329 1.95038 584.345 1.74773C614.04 0.751868 643.881 1.8022 673.584 2.0942L836.434 3.49755C887.513 3.74814 938.528 1.02643 989.583 0.241949C1019.91 -0.226561 1050.2 1.03297 1080.51 1.08309C1085.19 4.66992 1088.25 8.0955 1091.72 12.8068C1085.71 33.5672 1089.07 57.5593 1087.31 79.2089C1086.06 94.6458 1080.22 118.193 1080.83 131.832C1090.08 140.292 1092.3 151.2 1092.78 163.284C1093.28 175.881 1091.82 187.958 1082.94 197.557C1081.41 199.207 1079.79 200.623 1078.06 202.044C1074.85 204.689 1071.73 206.228 1067.68 207.208C1051.7 211.076 1033.03 211 1016.65 211.922C978.694 214.055 941.069 215.264 903.033 215.53C899.513 215.554 877.064 214.665 875.68 215.386C874.438 216.036 873.761 217.651 873.157 218.827C870.644 217.984 870.187 217.322 868.443 215.424C864.83 215.82 866.402 216.886 863.907 218.069C863.233 218.387 799.899 217.855 794.916 217.483C791.503 217.228 788.683 218.843 785.726 220.351C783.689 219.886 782.567 219.087 780.908 217.842L778.718 218.058C765.41 219.311 751.989 219.028 738.636 219.054C718.411 219.093 698.006 219.18 677.818 217.738C664.144 216.759 650.547 214.19 636.953 212.456C628.143 211.331 619.228 211.043 610.431 209.884C604.088 209.05 599.176 204.343 593.175 203.451C591.606 202.251 590.176 201.048 588.808 199.612C576.64 186.84 575.332 166.518 576.104 149.714C576.372 143.874 576.864 135.949 581.36 131.778Z" fill="#F1E164"/>
<path d="M581.36 131.778C617.269 137.052 652.608 142.911 688.923 145.049C736.43 147.845 782.763 147.257 830.217 146.973C905.423 146.527 979.57 144.999 1054.27 135.115C1061.82 134.117 1074.22 134.805 1080.83 131.833C1090.08 140.292 1092.3 151.201 1092.78 163.284C1093.28 175.882 1091.82 187.958 1082.94 197.557C1081.41 199.207 1079.79 200.623 1078.06 202.044C1074.85 204.69 1071.73 206.228 1067.68 207.209C1051.7 211.077 1033.03 211 1016.65 211.922C978.694 214.055 941.069 215.265 903.033 215.531C899.513 215.555 877.064 214.666 875.68 215.387C874.438 216.036 873.761 217.651 873.157 218.828C870.645 217.984 870.187 217.322 868.444 215.424C864.831 215.82 866.402 216.886 863.907 218.069C863.233 218.387 799.899 217.856 794.916 217.483C791.503 217.228 788.683 218.843 785.726 220.351C783.689 219.887 782.567 219.087 780.908 217.843L778.718 218.058C765.41 219.311 751.989 219.028 738.636 219.054C718.411 219.093 698.006 219.181 677.819 217.738C664.145 216.76 650.547 214.19 636.954 212.456C628.143 211.331 619.229 211.044 610.431 209.885C604.088 209.05 599.176 204.343 593.175 203.452C591.606 202.251 590.176 201.048 588.808 199.612C576.64 186.84 575.332 166.518 576.104 149.715C576.372 143.875 576.864 135.949 581.36 131.778Z" fill="#5FA894"/>
<path d="M138.704 1511.58C192.759 1514.59 240.591 1555.09 275.159 1593.82C306.989 1629.48 332.121 1676.67 345.324 1722.56C347.963 1731.74 350.652 1754.66 356.381 1760.6C337.29 1759.77 318.456 1765.29 299.425 1766.41C236.368 1770.12 141.555 1768.24 83.9408 1742.84C56.7366 1730.85 37.6149 1717.89 19.4345 1694.13C13.7644 1686.73 8.1466 1678.9 4.93022 1670.07C-1.62021 1652.09 -0.277863 1630.02 7.84372 1612.78C14.1675 1599.35 26.2115 1589.6 36.9676 1579.81C67.5254 1551.99 99.2992 1525.78 138.704 1511.58Z" fill="#F1E164"/>
<path d="M1047.44 1270.3C1016.47 1232.13 994.257 1199.17 977.297 1152.69C968.262 1127.93 957.086 1091.29 969.095 1065.94C992.669 1016.18 1103.12 967.139 1155.3 948.604C1177.02 1008.68 1224.86 1081.83 1194.7 1146.63C1173.38 1192.43 1091.44 1244.25 1047.44 1270.3Z" fill="#F1E164"/>
<path d="M525.389 1585.43C538.856 1630.8 522.247 1677.55 507.365 1720.16C494.635 1723.88 482.232 1728.55 469.656 1732.75C452.375 1737.64 434.496 1741.7 417.398 1747.02C412.742 1743.27 408.412 1743.84 403.047 1741.84C396.337 1739.34 389.556 1735.9 383.626 1731.88C379.024 1728.76 374.053 1724.54 373.461 1718.63C372.94 1713.42 377.183 1707.73 380.207 1703.82C383.806 1699.28 387.496 1694.82 391.277 1690.43C395.06 1686.04 398.931 1681.73 402.89 1677.5C406.848 1673.28 410.893 1669.13 415.023 1665.07C419.153 1661 423.365 1657.03 427.658 1653.14C431.95 1649.25 436.322 1645.45 440.772 1641.74C445.22 1638.03 449.743 1634.41 454.341 1630.89C458.939 1627.37 463.607 1623.94 468.346 1620.61C473.085 1617.27 477.891 1614.04 482.763 1610.91C496.215 1602.16 511.447 1595.82 524.293 1586.27C524.661 1585.99 525.023 1585.71 525.389 1585.43Z" fill="#E86665"/>
<path d="M380.207 1703.82C396.764 1712.52 414.204 1720.54 432.275 1725.52C442.508 1728.34 461.321 1727.85 469.656 1732.75C452.375 1737.64 434.496 1741.7 417.398 1747.02C412.742 1743.27 408.412 1743.84 403.047 1741.84C396.337 1739.34 389.556 1735.9 383.626 1731.88C379.024 1728.76 374.053 1724.54 373.461 1718.63C372.94 1713.42 377.183 1707.73 380.207 1703.82Z" fill="#5FA894"/>
<path d="M480.963 1699.54C484.899 1699.8 491.574 1701.48 494.494 1704.34C496.816 1706.62 496.749 1707.32 496.799 1710.36C494.997 1713.63 492.177 1714.85 489.052 1716.61C487.231 1716.88 485.278 1717.23 483.434 1717.12C480.595 1716.97 477.451 1714.97 475.731 1712.75C475.541 1712.51 475.367 1712.25 475.208 1711.99C475.05 1711.72 474.908 1711.45 474.783 1711.16C474.66 1710.88 474.554 1710.59 474.465 1710.29C474.377 1710 474.307 1709.7 474.256 1709.39C474.205 1709.09 474.174 1708.78 474.162 1708.47C474.149 1708.16 474.155 1707.85 474.18 1707.54C474.206 1707.24 474.251 1706.93 474.315 1706.63C474.379 1706.32 474.461 1706.03 474.561 1705.73C475.644 1702.59 478.29 1701.12 480.963 1699.54Z" fill="#020A08"/>
<path d="M508.242 1659.2C510.211 1659.47 512.754 1659.7 514.565 1660.49C516.819 1661.47 518.457 1663.41 518.939 1665.85C520.037 1671.41 516.041 1676.79 512.741 1680.79C509.769 1680.78 506.978 1680.29 504.788 1678.08C502.556 1675.83 501.852 1673.03 502.127 1669.96C502.565 1665.08 504.681 1662.36 508.242 1659.2Z" fill="#020A08"/>
<path d="M472.946 1649.28C474.626 1649.47 476.2 1649.89 477.841 1650.29C479.695 1652.45 480.678 1653.65 480.536 1656.64C480.235 1662.98 475.06 1668.52 470.769 1672.59C468.841 1671.1 466.655 1669.55 465.191 1667.58C463.347 1665.09 462.528 1662.1 463.441 1659.08C464.875 1654.35 469.03 1651.81 472.946 1649.28Z" fill="#020A08"/>
<path d="M440.253 1703.99C442.924 1704.93 444.066 1705.64 445.921 1707.78C446.37 1709.85 446.834 1710.68 446.204 1712.77C444.838 1717.31 441.011 1719.68 437 1721.65C434.622 1720.76 433.01 1719.82 431.009 1718.26C430.312 1716.66 429.506 1715.77 429.926 1713.98C431.09 1708.99 436.228 1706.45 440.253 1703.99Z" fill="#020A08"/>
<path d="M695.62 1395.86C735.977 1398.96 787.82 1432.17 813.113 1462.62C814.122 1463.83 815.003 1465.05 815.905 1466.35C808.04 1475.07 801.823 1485.24 792.458 1492.45L785.914 1499.39C778.003 1511.52 767.332 1521.96 757.472 1532.52C731.983 1531.18 708.274 1527.11 689.801 1507.97C671.235 1488.73 666.879 1466.08 667.417 1440.16C670.531 1422.14 681.44 1406.99 695.62 1395.86Z" fill="#E86665"/>
<path d="M785.914 1499.39C784.168 1499.33 782.421 1499.26 780.682 1499.09C777.435 1498.79 773.183 1497.68 771.405 1494.61C769.875 1491.98 770.368 1490.59 771.037 1487.88C772.88 1485.82 774.375 1484.56 777.26 1484.26C783.972 1483.55 788.117 1488.16 792.458 1492.45L785.914 1499.39Z" fill="#020A08"/>
<path d="M708.374 1490.64C713.687 1490.34 719.468 1489.81 724.506 1491.88C726.45 1492.68 728.226 1494.1 728.814 1496.16C729.93 1500.09 728.235 1502.84 726.28 1506.04C722.952 1506.81 719.069 1507.19 715.692 1506.51C712.362 1505.83 708.925 1504.29 707.372 1501.05C705.628 1497.42 706.995 1494.06 708.374 1490.64Z" fill="#020A08"/>
<path d="M738.513 1437.62C741.492 1439.02 743.772 1440.35 745.77 1443.04C747.818 1445.81 748.666 1448.91 747.77 1452.3C746.877 1455.7 744.469 1457.33 741.767 1459.18C739.121 1458.35 735.7 1457.66 733.739 1455.57C731.834 1453.55 730.647 1451.24 731.028 1448.37C731.656 1443.69 735.173 1440.55 738.513 1437.62Z" fill="#020A08"/>
<path d="M691.981 1429.56L692.543 1429.57C697.487 1429.6 702.031 1429.27 705.718 1433.15C707.13 1434.64 706.648 1435.22 706.598 1437.11C704.741 1440.36 701.813 1441.4 698.601 1442.98C698.028 1443.08 697.461 1443.22 696.881 1443.27C694.321 1443.52 690.974 1442.92 689.032 1441.02C686.709 1438.74 686.781 1437.8 686.583 1434.75C688.104 1431.76 689.165 1431.12 691.981 1429.56Z" fill="#020A08"/>
<path d="M542.009 1078.01C577.102 1098.23 604.273 1134.63 620.597 1171.17C613.622 1173.6 606.594 1176.17 599.446 1178.06C561.543 1188.1 529.878 1178.16 497.095 1158.88C503.637 1145.39 511.95 1132.76 519.226 1119.65C526.901 1105.83 533.415 1091.29 542.009 1078.01Z" fill="#E86665"/>
<path d="M558.03 1136.93C560.693 1137.09 562.94 1137.24 564.984 1139.19C566.886 1141 567.631 1143.19 567.424 1145.77C566.903 1152.22 562.667 1155.89 557.862 1159.52C555.561 1159.6 553.166 1159.41 551.199 1158.03C549.187 1156.62 548.298 1154.51 548.427 1152.09C548.747 1146.01 554.036 1140.88 558.03 1136.93Z" fill="#020A08"/>
<path d="M630.553 593.207C639.207 598.552 648.204 603.111 656.561 608.945C689.462 631.91 722.573 665.661 748.147 696.707C747.797 696.726 747.446 696.737 747.097 696.765C736.09 697.602 725.611 702.719 714.811 704.852C693.164 709.128 658.267 705.447 637.104 698.615C633.417 689.773 630.32 607.517 630.553 593.207Z" fill="#E86665"/>
<path d="M644.689 635.924C648.893 636.035 652.035 637.159 654.946 640.212C657.335 642.714 658.252 645.911 657.738 649.319C657.187 652.975 655.018 654.81 652.408 657.072C648.337 656.357 644.151 654.682 641.486 651.354C639.584 648.981 638.756 646.497 639.209 643.444C639.708 640.073 642.308 638.044 644.689 635.924Z" fill="#020A08"/>
<path d="M686.178 681.675C690.185 682.682 693.608 684.305 696.197 687.624C698.089 690.045 699.163 693.165 698.287 696.227C697.269 699.794 695.349 700.629 692.554 702.566C689.23 701.993 685.811 701.08 683.196 698.838C681.111 697.048 679.544 694.486 679.588 691.657C679.662 686.946 682.887 684.434 686.178 681.675Z" fill="#020A08"/>
<path d="M525.389 1585.43C529.29 1581.64 534.055 1582.75 537.694 1579.1C540.377 1579.24 541.691 1579.57 543.626 1581.54C553.484 1591.58 556.339 1631.17 554.927 1644.89C553.67 1657.11 552.822 1670.32 548.49 1681.88C545.524 1689.79 540.747 1697.49 538.939 1705.73C528.645 1711 517.76 1715.07 507.365 1720.16C522.247 1677.55 538.856 1630.8 525.389 1585.43Z" fill="#5FA894"/>
<path d="M497.095 1158.88C529.878 1178.16 561.543 1188.1 599.446 1178.06C606.594 1176.17 613.622 1173.6 620.597 1171.17C623.319 1176.5 628.143 1183.89 626.611 1189.99C622.14 1196.88 612.979 1199.4 605.35 1201.04C596.892 1202.86 587.819 1205.74 579.3 1206.68C549.486 1209.94 514.103 1198.32 489.298 1182.09C488.148 1181.34 488.645 1181.72 487.814 1180.06C487.871 1172.47 493.406 1165.29 497.095 1158.88Z" fill="#5FA894"/>
<path d="M748.147 696.706C751.963 700.827 757.958 706.168 757.583 712.278C757.352 716.024 755.053 718.885 752.111 720.96C733.294 734.222 681.115 735.274 658.939 730.757C651.837 729.31 644.175 727.704 637.614 724.579C637.396 724.496 637.141 724.477 636.96 724.331C634.43 722.287 634.648 718.332 634.264 715.296C633.382 708.308 632.641 704.37 637.104 698.615C658.267 705.447 693.164 709.127 714.811 704.852C725.611 702.718 736.09 697.602 747.097 696.765C747.446 696.737 747.797 696.726 748.147 696.706Z" fill="#5FA894"/>
<path d="M739.529 1551.39C709.143 1540.9 691.944 1541.09 673.58 1510.59C663.384 1493.65 658.995 1471.52 664.038 1452.19C664.583 1450.11 665.023 1448.42 664.953 1446.24C664.868 1443.49 666.019 1442.46 667.418 1440.16C666.879 1466.08 671.235 1488.72 689.801 1507.97C708.274 1527.11 731.983 1531.18 757.472 1532.52C752.371 1538.35 746.053 1547.5 739.529 1551.39Z" fill="#5FA894"/>
<path d="M479.948 1283.77C496.2 1293.13 506.256 1319.1 511.053 1336.65C518.734 1364.75 516.873 1397.69 502.083 1423.22C489.344 1445.21 464.226 1464.95 439.608 1471.47C435.261 1472.62 415.843 1478.64 413.112 1476.57C412.74 1476.28 411.903 1475.12 411.593 1474.71C407.86 1475.06 407.553 1477.72 403.853 1478.25C390.746 1480.13 367.549 1479.37 355.655 1472.76C356.05 1465.56 356.516 1458.56 358.989 1451.7C372.615 1400.77 428.863 1326.32 467.377 1291.02C471.423 1288.07 475.409 1285.88 479.948 1283.77Z" fill="#E86665"/>
<path d="M479.948 1283.77C496.2 1293.13 506.256 1319.1 511.053 1336.65C518.734 1364.75 516.873 1397.69 502.083 1423.22C489.344 1445.21 464.226 1464.95 439.608 1471.47C435.261 1472.62 415.843 1478.64 413.112 1476.57C412.74 1476.28 411.903 1475.12 411.593 1474.71C407.86 1475.06 407.553 1477.72 403.853 1478.25C390.746 1480.13 367.549 1479.37 355.655 1472.76C356.05 1465.56 356.516 1458.56 358.989 1451.7C385.361 1454.04 410.258 1455.39 435.291 1445.38C456.61 1436.86 472.846 1424.95 481.894 1403.24C498.032 1364.51 482.123 1327.14 467.377 1291.02C471.423 1288.07 475.409 1285.88 479.948 1283.77Z" fill="#5FA894"/>
<path d="M409.883 1416.25C412.373 1416.19 415.075 1416.05 417.527 1416.59C421.19 1417.4 425.437 1419.71 427.069 1423.2C428.854 1427.03 427.662 1430.15 425.978 1433.61C423.918 1433.71 421.77 1433.86 419.717 1433.63C415.873 1433.2 411.377 1431.01 409.431 1427.54C407.191 1423.55 408.375 1420.16 409.883 1416.25Z" fill="#020A08"/>
<path d="M461.709 1402.16C462.186 1402.27 462.667 1402.36 463.142 1402.48C466.429 1403.34 468.948 1404.48 470.484 1407.72C471.558 1409.99 471.438 1412.34 470.604 1414.66C469.131 1418.76 466.516 1420.64 462.792 1422.58C459.83 1421.58 456.936 1420.23 455.025 1417.66C453.395 1415.46 452.635 1412.85 453.317 1410.15C454.467 1405.61 457.847 1404.01 461.709 1402.16Z" fill="#020A08"/>
<path d="M466.263 1346.25C468.958 1346.35 470.584 1346.72 473.033 1347.85C474.668 1349.97 475.742 1350.91 475.193 1353.81C474.11 1359.54 468.542 1363.32 464.045 1366.21C462.755 1365.96 461.907 1365.85 460.641 1365.32C458.126 1364.27 457.2 1362.54 456.309 1360.17C457.056 1353.81 461.774 1350.21 466.263 1346.25Z" fill="#020A08"/>
<path d="M802.859 818.781C807.818 817.127 812.266 814.976 817.31 817.63C822.782 820.507 825.726 826.804 827.232 832.503C836.179 866.412 832.967 910.589 814.944 941.193C800.056 966.473 767.908 985.285 740.076 992.119C725.929 995.592 711.403 994.984 697.023 993.398C692.179 992.862 687.062 991.504 682.225 991.875C674.82 992.441 659.283 984.098 653.918 979.014C651.248 976.484 648.564 972.818 648.854 968.935C649.165 964.795 653.765 959.898 657.032 957.503C657.387 957.242 657.821 957.107 658.217 956.909C667.302 948.525 674.589 937.028 682.678 927.58C695.918 912.117 710.584 897.164 725.373 883.182C739.32 869.994 754.619 858.641 769.982 847.207C778.343 840.984 787.561 834.993 794.985 827.665C797.552 824.649 800.071 821.598 802.859 818.781Z" fill="#E86665"/>
<path d="M802.859 818.781C807.818 817.127 812.266 814.976 817.31 817.63C822.782 820.507 825.726 826.804 827.232 832.503C836.179 866.412 832.967 910.589 814.944 941.193C800.056 966.473 767.908 985.285 740.076 992.119C725.929 995.592 711.403 994.984 697.023 993.398C692.179 992.862 687.062 991.504 682.225 991.875C674.82 992.441 659.283 984.098 653.918 979.014C651.248 976.484 648.564 972.818 648.854 968.935C649.165 964.795 653.765 959.898 657.032 957.503C657.387 957.242 657.821 957.107 658.217 956.909C662.373 958.972 666.908 960.57 671.248 962.21C699.082 972.729 728.867 974.239 756.273 961.748C757.569 961.156 758.85 960.532 760.115 959.876C761.38 959.221 762.629 958.535 763.861 957.817C765.093 957.101 766.306 956.354 767.5 955.577C768.694 954.8 769.869 953.994 771.024 953.158C772.179 952.323 773.312 951.46 774.425 950.569C775.537 949.677 776.626 948.759 777.692 947.815C778.76 946.869 779.803 945.898 780.821 944.902C781.839 943.905 782.833 942.884 783.802 941.838C784.77 940.793 785.711 939.725 786.626 938.632C787.541 937.54 788.429 936.426 789.289 935.29C790.149 934.154 790.981 932.996 791.784 931.818C792.588 930.641 793.361 929.445 794.105 928.229C794.849 927.015 795.562 925.782 796.245 924.531C796.928 923.28 797.58 922.013 798.202 920.729C798.822 919.446 799.41 918.149 799.965 916.837C800.521 915.525 801.045 914.2 801.536 912.862C811.63 885.346 806.988 853.88 794.985 827.665C797.552 824.649 800.071 821.598 802.859 818.781Z" fill="#5FA894"/>
<path d="M717.786 933.422C720.185 934.193 722.384 935.063 724.081 937.044C726.306 939.641 727.093 943.04 726.411 946.361C725.31 951.716 722.264 954.864 717.788 957.684C715.297 956.614 712.883 955.427 711.137 953.254C709.363 951.04 708.62 948 708.973 945.209C709.673 939.654 713.408 936.348 717.786 933.422Z" fill="#020A08"/>
<path d="M781.823 883.115C784.776 883.244 786.934 883.477 789.614 884.957C792.822 886.728 795.131 890.197 795.565 893.813C796.119 898.421 794.314 901.771 791.808 905.445C788.847 905.506 786.367 905.273 783.9 903.442C780.403 900.849 778.324 897.34 777.94 892.991C777.548 888.532 779.13 886.31 781.823 883.115Z" fill="#020A08"/>
<path d="M759.141 929.602C762.05 930.151 764.58 930.835 767.175 932.317C770.738 934.354 774.142 937.128 774.992 941.375C775.67 944.766 773.787 946.884 772.072 949.497C769.734 950.255 767.337 951.07 764.852 950.447C761.956 949.719 759.845 947.876 758.424 945.307C755.565 940.144 757.082 934.64 759.141 929.602Z" fill="#020A08"/>
<path d="M1006.92 356.955C1007.28 356.367 1007.63 355.772 1008.01 355.192C1009.85 352.322 1012.49 349.919 1015.85 349.047C1018.32 348.402 1020.81 349.396 1022.81 350.841C1035.94 360.335 1045.54 403.56 1046.6 419.394C1048.71 451.122 1037.74 479.784 1016.83 503.553C993.142 530.47 959.875 548.289 923.822 550.269C919.76 550.494 898.422 550.686 895.43 549.881C893.388 549.335 892.085 548.458 890.433 547.199C887.581 542.344 889.359 536.802 890.662 531.703C891.926 526.757 892.725 524.111 896.358 520.381C912.355 466.63 963.272 392.654 1006.92 356.955Z" fill="#E86665"/>
<path d="M1006.92 356.955C1007.28 356.367 1007.63 355.772 1008.01 355.192C1009.85 352.322 1012.49 349.919 1015.85 349.047C1018.32 348.402 1020.81 349.396 1022.81 350.841C1035.94 360.335 1045.54 403.56 1046.6 419.394C1048.71 451.122 1037.74 479.784 1016.83 503.553C993.142 530.47 959.875 548.289 923.822 550.269C919.76 550.494 898.422 550.686 895.43 549.881C893.388 549.335 892.085 548.458 890.433 547.199C887.581 542.344 889.359 536.802 890.662 531.703C891.926 526.757 892.725 524.111 896.358 520.381C911.666 525.502 931.333 526.641 946.92 522.048C972.17 514.606 998.903 494.305 1011.46 471.004C1032.31 432.318 1018.72 395.898 1006.92 356.955Z" fill="#5FA894"/>
<path d="M983.229 460.873C985.077 460.832 986.938 460.753 988.783 460.899C992.065 461.158 994.301 463.364 996.31 465.778C998.552 468.474 999.494 471.629 998.884 475.12C998.276 478.589 996.576 479.929 993.978 481.893C989.792 481.01 986.552 480.054 983.248 477.175C980.662 474.92 978.779 472.065 978.829 468.493C978.877 465.033 980.96 463.12 983.229 460.873Z" fill="#020A08"/>
<path d="M993.527 410.509C996.711 410.346 999.805 410.152 1002.59 412.061C1005.3 413.929 1007.55 416.7 1007.9 420.078C1008.32 424.168 1006.75 426.892 1004 429.679C999.79 430.204 996.24 430.797 992.531 428.136C990.274 426.515 988.838 424.393 988.598 421.582C988.186 416.796 990.487 413.868 993.527 410.509Z" fill="#020A08"/>
<path d="M946.299 492.161C948.557 492.937 950.832 493.527 952.608 495.208C955.427 497.875 958.624 502.697 958.197 506.735C957.82 510.307 956.43 510.623 953.654 512.351C950.191 511.093 947.491 509.697 944.774 507.156C942.037 504.6 940.891 502.405 940.666 498.592C942.255 494.911 943.166 494.464 946.299 492.161Z" fill="#020A08"/>
<path d="M793.708 281.29C793.804 280.579 793.887 279.867 793.996 279.161C794.476 276.051 795.532 273.82 798.409 272.218C800.812 270.882 803.384 270.595 805.957 271.641C818.603 276.779 828.021 306.208 831.8 318.069C840.235 344.541 839.98 377.293 826.679 402.096C811.621 430.174 784.787 447.99 754.72 456.67C734.476 462.514 715.938 464.477 695.018 463.19C690.612 462.919 684.393 463.026 680.51 460.738C677.385 458.897 675.075 454.9 674.613 451.374C674.012 446.798 675.975 442.564 678.647 438.966C685.48 411.427 727.762 364.637 745.583 342.305C753.92 331.856 761.399 320.74 769.784 310.359C777.587 300.697 787.075 291.784 793.708 281.29Z" fill="#E86665"/>
<path d="M793.708 281.29C793.804 280.579 793.887 279.867 793.996 279.161C794.476 276.051 795.532 273.82 798.409 272.218C800.812 270.882 803.384 270.595 805.957 271.641C818.603 276.779 828.021 306.208 831.8 318.069C840.235 344.541 839.98 377.293 826.679 402.096C811.621 430.174 784.787 447.99 754.72 456.67C734.476 462.514 715.938 464.477 695.018 463.19C690.612 462.919 684.393 463.026 680.51 460.738C677.385 458.897 675.075 454.9 674.613 451.374C674.012 446.798 675.975 442.564 678.647 438.966C714.26 438.195 739.551 441.492 772.623 422.026C790.819 411.318 806.65 390.893 811.889 370.379C819.272 341.475 808.313 306.206 793.708 281.29Z" fill="#5FA894"/>
<path d="M758.705 343.833C760.451 344.597 762.569 345.707 763.841 347.201C765.781 349.483 766.576 351.686 766.315 354.663C765.792 360.62 760.926 365.155 756.52 368.555C753.735 367.585 751.325 366.698 749.374 364.297C747.583 362.091 747.134 359.67 747.533 356.918C748.402 350.926 754.057 346.84 758.705 343.833Z" fill="#020A08"/>
<path d="M793.708 347.406C796.678 348.053 799.108 348.76 801.139 351.185C803.399 353.885 804.061 356.576 803.634 360.093C803.05 364.889 799.965 367.692 796.369 370.496C794.288 369.988 792.022 369.265 790.302 367.942C790.042 367.74 789.793 367.525 789.555 367.297C789.317 367.069 789.091 366.829 788.877 366.576C788.665 366.325 788.466 366.062 788.28 365.789C788.094 365.518 787.924 365.237 787.768 364.946C787.611 364.655 787.47 364.358 787.345 364.053C787.22 363.747 787.112 363.437 787.021 363.12C786.928 362.803 786.851 362.483 786.792 362.159C786.734 361.834 786.692 361.507 786.668 361.178C786.293 355.513 789.984 351.154 793.708 347.406Z" fill="#020A08"/>
<path d="M762.209 394.85C765.92 394.994 768.945 395.855 771.776 398.3C774.225 400.418 775.471 403.105 775.384 406.36C775.29 409.834 773.453 411.719 771.242 414.081C768.611 413.994 765.362 414.164 763.042 412.749C760.743 411.348 759.052 409.596 758.538 406.859C757.688 402.325 759.865 398.507 762.209 394.85Z" fill="#020A08"/>
<path d="M713.809 413.002C717.622 413.586 720.263 413.922 722.998 416.785C725.221 419.113 726.857 422.139 726.334 425.474C725.764 429.115 723.857 430.1 721.275 432.272C717.411 431.63 714.569 430.44 711.909 427.524C709.823 425.24 708.113 422.081 708.851 418.875C709.586 415.691 711.364 414.781 713.809 413.002Z" fill="#020A08"/>
<path d="M1059.43 778.029C1059.72 778.26 1060.04 778.454 1060.3 778.72C1063.3 781.849 1065.77 791.441 1065.99 795.85C1066.1 798.066 1065.78 802.13 1064.01 803.651C1055.04 811.372 1008.8 810.053 997.003 808.813C971.758 806.163 947.347 790.648 931.62 771.11C912.353 747.177 911.801 722.017 914.597 692.69C915.994 678.027 920.198 661.167 925.24 647.312C927.21 641.899 929.289 635.227 934.817 632.642C941.002 631.991 944.307 634.011 949.245 637.571C993.924 658.14 1022.3 697.852 1042.83 741.067C1048.53 753.065 1052.98 766.514 1059.43 778.029Z" fill="#E86665"/>
<path d="M1059.43 778.029C1059.72 778.26 1060.04 778.454 1060.3 778.72C1063.3 781.849 1065.77 791.441 1065.99 795.85C1066.1 798.066 1065.78 802.13 1064.01 803.651C1055.04 811.372 1008.8 810.053 997.003 808.813C971.758 806.163 947.347 790.648 931.62 771.11C912.353 747.177 911.801 722.017 914.597 692.69C915.994 678.027 920.198 661.167 925.24 647.312C927.21 641.899 929.289 635.227 934.817 632.642C941.002 631.991 944.307 634.011 949.245 637.571C940.317 673.845 926.929 718.779 948.021 753.322C957.99 769.652 975.591 779.391 993.889 783.549C1016.13 788.6 1038.41 786.296 1059.43 778.029Z" fill="#5FA894"/>
<path d="M1006.67 748.323C1009.97 748.541 1012.8 748.726 1015.35 751.171C1017.42 753.163 1018.26 755.486 1018.24 758.317C1018.19 764.566 1014.6 768.415 1010.33 772.418C1007.11 772.429 1004.08 772.433 1001.54 770.117C999.535 768.291 998.884 765.88 998.884 763.252C998.886 757.177 1002.41 752.23 1006.67 748.323Z" fill="#020A08"/>
<path d="M966.456 683.902C968.72 684.063 971.374 684.482 973.246 685.887C975.142 687.312 976.062 689.528 975.809 691.869C975.207 697.423 970.187 700.967 965.946 703.719C963.15 703.632 961.387 703.011 958.825 702.013C957.068 700.032 955.855 699.103 956.236 696.186C956.962 690.64 962.318 686.841 966.456 683.902Z" fill="#020A08"/>
<path d="M954.894 736.641C958.929 736.403 964.187 735.717 967.737 738.109C970.211 739.776 969.945 741.106 970.137 743.78C968.783 747.358 966.842 749.325 964.172 752.014C963.072 752.439 961.804 752.978 960.646 753.193C958.254 753.638 955.654 752.529 953.83 751.038C951.858 749.428 950.723 746.676 950.83 744.141C950.982 740.509 952.697 739.147 954.894 736.641Z" fill="#020A08"/>
<path d="M894.569 1235.4C897.045 1241.83 901.348 1246.9 903.209 1253.95C903.604 1255.44 904.262 1257.75 903.22 1259.04C898.805 1264.5 881.56 1264.54 874.528 1265.12C844.772 1267.61 810.919 1259.34 787.908 1239.69C766.768 1221.65 756.304 1195.39 754.364 1168.08C752.671 1144.2 758.581 1122.17 768.001 1100.43C770.571 1094.5 773.264 1087.53 777.755 1082.76C780.218 1080.15 783.292 1078.4 787.001 1078.59C792.582 1078.88 798.479 1084.62 802.205 1088.39C840.714 1116.55 869.786 1166.74 886.334 1210.68C889.341 1218.66 892.841 1227.06 894.569 1235.4Z" fill="#E86665"/>
<path d="M894.569 1235.4C897.045 1241.83 901.348 1246.9 903.209 1253.95C903.604 1255.44 904.262 1257.75 903.22 1259.04C898.805 1264.5 881.56 1264.54 874.528 1265.12C844.772 1267.61 810.919 1259.34 787.908 1239.69C766.768 1221.65 756.304 1195.39 754.364 1168.08C752.671 1144.2 758.581 1122.17 768.001 1100.43C770.571 1094.5 773.264 1087.53 777.755 1082.76C780.218 1080.15 783.292 1078.4 787.001 1078.59C792.582 1078.88 798.479 1084.62 802.205 1088.39C786.526 1114.26 771.616 1150.75 779.176 1181.55C783.92 1200.88 797.975 1218.38 815.04 1228.31C835.031 1239.95 863.19 1244.64 885.654 1238.65C888.76 1237.82 891.762 1237.03 894.569 1235.4Z" fill="#5FA894"/>
<path d="M805.11 1162.07C808.163 1162.09 811.196 1162.59 813.416 1164.91C815.118 1166.7 815.748 1168.91 815.532 1171.34C815.029 1176.98 812.2 1180.04 808.093 1183.62C804.868 1183.38 802.009 1182.79 799.651 1180.37C797.489 1178.16 797.071 1175.83 797.417 1172.85C797.993 1167.87 801.536 1165.06 805.11 1162.07Z" fill="#020A08"/>
<path d="M840.601 1202.67C843.464 1202.63 847.021 1202.56 849.413 1204.35C851.621 1206 852.584 1208.52 852.747 1211.19C853.02 1215.58 850.291 1220.19 847.687 1223.49C845.321 1224.03 843.774 1223.99 841.381 1223.6C838.875 1221.98 837.707 1220.9 836.848 1217.95C835.312 1212.67 837.905 1207.01 840.601 1202.67Z" fill="#020A08"/>
<path d="M799.705 1112.94L801.636 1113.53L802.758 1116.09C802.63 1122.25 800.677 1126.87 796.33 1131.23C795.068 1130.75 793.852 1130.08 792.641 1129.49C791.972 1127.82 791.303 1126.29 791.532 1124.44C792.179 1119.21 795.746 1115.93 799.705 1112.94Z" fill="#020A08"/>
</g>
<defs>
<clipPath id="clip0_80_7277">
<rect width="1205" height="1768" fill="white"/>
</clipPath>
</defs>
</svg>
