<svg width="265" height="447" viewBox="0 0 265 447" fill="none" xmlns="http://www.w3.org/2000/svg">
<path d="M144.94 403.8C131.74 427.53 111.17 440.28 84.78 444.88C67.24 447.93 50.09 447 33.08 442.02C26.07 439.49 18.97 437.18 12.78 432.8C1.03004 424.49 -2.49005 410.59 3.68995 397.55C8.22995 387.96 14.0201 379.33 22.1801 372.51C40.4301 357.26 55.2701 339.04 68.8001 319.65C69.2901 319.87 69.5799 320.25 69.6899 320.78C69.7299 323.7 67.84 325.73 66.25 327.81C60.41 335.5 54.95 343.49 48.65 350.83C48.13 351.43 47.4699 352.01 47.6899 353.07C63.9399 353.76 76.5 361.95 87.65 372.98C90.28 375.58 92.49 378.53 94.22 381.75C95.84 384.78 97.84 385.95 101.4 385.64C107.89 385.07 114.33 385.35 120.5 388.13C129.02 391.98 136.81 402.98 136.75 411.55C134.11 414.64 132.49 412.43 131.86 410.14C130.68 405.82 127.73 402.68 125.44 399.11C122.55 394.61 118.12 393.49 113.72 395.83C111.96 396.19 110.28 396.16 108.86 394.86C108.16 394.42 108.6 393.27 107.67 392.96C107.78 393.96 107.67 394.87 106.7 395.45C105.22 396.02 103.87 395.9 102.75 394.68C102.23 393.89 102.12 393.01 102.19 392.08C101.93 392.75 102.1 393.51 101.78 394.17C99.93 396.57 97.57 395.77 95.25 395.24C93.82 393.56 94.56 392.22 96.09 391C93.37 390.75 95.2 395.17 92.22 394.49C89.96 393.83 90.4 391.22 88.95 389.97C88.82 389.48 88.9201 389.03 89.1801 388.61C89.5201 388.08 90.36 387.45 90.08 387.05C89.61 386.41 88.7 387.36 87.96 387.01C86.39 385.59 84.79 384.19 84.83 381.8C87.09 378.32 83.4501 376.57 82.3101 374.33C80.0801 369.92 75.22 367.81 71.6 368.74C67.64 367.89 63.5101 367.38 59.8001 365.85C55.4901 364.07 51.22 363.04 46.58 363.33C45.6 363.39 44.74 362.69 43.9 362.17C41.92 360.14 41.33 363.69 39.74 363.22C38.67 363.35 38.69 361.05 37.87 361.9C31.04 368.91 22.68 374.33 16.84 382.34C16.62 382.64 16.56 382.94 16.73 383.44C23.8 383.79 30.53 385.87 37.22 388.27C41.35 389.75 45.77 390.38 49.29 393.36C50.28 394.2 51.7 394.57 51.63 396.24C50.61 398.91 48.87 398.58 46.83 397.47C37.95 392.6 28.05 390.9 18.4 388.47C15.84 387.82 13.07 387.54 10.96 391.67C27.52 392.35 42.02 398.06 55.57 406.46C66.35 412.34 75.23 420.42 82.73 430.07C83.83 431.49 85.84 432.92 83.77 435.09C81.1 434.91 79.86 432.8 78.34 431.08C61.99 412.65 41.94 400.73 17.5 396.65C8.59001 395.16 6.03002 397.13 4.76002 405.97C3.15002 417.19 7.08998 426.21 16.97 431.7C38.25 443.53 60.9901 445.97 84.6801 441.25C85.6801 441.05 86.52 440.51 87.34 439.94C90.66 439.37 94.3101 439.44 96.0601 435.64C96.5101 435.49 96.95 435.5 97.38 435.71C98.96 438.4 101.16 437.69 103.44 436.88C114.79 432.83 124.2 426.16 131.28 416.33C132.56 415 133.59 413.36 135.6 412.96C138.97 410.05 139.77 405.19 143.53 402.57C144.4 402.53 144.79 403.07 145 403.81L144.94 403.8Z" fill="#192625"/>
<path d="M162.17 26.8801C168.84 50.9201 175.98 74.82 184.11 98.41C190.82 117.87 200.38 136.03 210 154.15C211.29 156.58 213.38 158.57 215.1 160.77C218.95 167.71 224.52 173.39 228.97 179.89C228.73 180.6 228.34 181.14 227.49 181.13C227.17 181.03 226.78 180.95 226.61 180.69C223.97 176.77 220.91 175.92 217.24 179.37C215.01 178.94 215.47 177.42 215.89 175.95C216.38 174.24 217.46 172.65 216.95 170.74C216.03 167.5 214.35 164.74 211.89 162.45C211.57 162.13 211.3 161.77 211.05 161.4C210.03 158.59 206.22 158.11 205.63 154.94C205.56 154.51 205.59 154.07 205.7 153.65C205.88 151.67 204.17 151.37 202.97 150.62C198.38 149.26 195.46 152.08 193.3 155.2C189.69 160.4 185.21 160.68 179.7 159.22C175.25 158.04 170.89 156.36 166.05 156.71C158.9 157.24 154.69 161.99 150.42 166.78C149.54 167.77 148.94 168.99 148.08 170.01C146.11 171.99 144.53 174.3 142.84 176.52C141.24 177.64 140.89 181.4 137.61 179.05C137.45 175.17 141.93 173.29 141.75 169.4C142.19 167.96 143.71 167.55 144.51 166.45C148.33 161.46 151.75 156.03 157.83 153.4C163.04 151.15 168.39 150.87 173.87 152.51C182.097 154.977 188.853 152.867 194.14 146.18C195.8 144.5 197.78 145.03 199.73 145.36C201.29 145.4 201.91 144.77 201.27 143.21C200.51 141.35 199.42 139.68 198.23 138.06C197.94 137.64 197.71 137.21 197.5 136.75C187.44 116.21 179.1 95.0301 172.84 73C169.2 60.19 164.84 47.59 161.43 34.7C160.76 32.18 159.38 29.69 160.73 26.97C161.17 26.54 161.64 26.51 162.14 26.85L162.17 26.8801Z" fill="#2A1C15"/>
<path d="M90.2 186.81C82.46 158.35 70.34 131.44 60.7 103.65C56.31 90.9999 51.3699 78.54 46.6899 66C47.0599 65.61 47.51 65.4501 48.04 65.5301C50.11 66.4301 50.54 68.4901 51.28 70.2801C53.8 76.3701 56.1 82.55 58.29 88.76C59.48 92.15 61.38 94.1599 65.24 93.3999C66.95 93.7799 67.88 94.7101 67.48 96.5701C66.79 97.8401 64.89 96.95 64.23 98.24C64.85 100.66 68.47 101.57 67.25 104.59C66.86 105.56 65.73 105.5 65.58 105.39C66.87 106.02 69.25 103.82 71.24 105.46C73.1 107.83 76.7901 110.04 71.9301 113.02C69.2601 113.25 69.32 109.67 66.97 109.43C65.82 109.93 66.32 110.78 66.58 111.48C71.95 126.3 77.25 141.15 83.08 155.79C85.12 160.9 85.27 160.97 89.25 157.31C92.88 153.97 96.7 153.34 101.12 155.48C106.07 157.87 110.74 160.71 115.28 163.78C116.8 164.86 118.31 165.95 120.05 166.67C122.13 168.12 125.37 168.46 125.17 172.07C120.41 173.1 117.21 169.56 113.42 167.89C110.09 166.42 107.18 165.88 104.22 168.35C103.51 168.66 102.78 168.73 102.02 168.57C101.28 168.32 100.75 167.83 100.47 167.1C99.95 164.31 102.37 164.01 104.15 163.15C98.65 158.81 96 158.69 91.23 162.4C87.2 165.54 87.0901 166.69 90.0601 174.31C90.7701 178.06 92.6299 181.61 91.9399 185.59C91.5999 186.35 91.1501 186.97 90.1801 186.81H90.2Z" fill="#2E2017"/>
<path d="M228.11 180.81C228.4 180.5 228.69 180.2 228.98 179.89C237.88 193.09 251 202.9 258.82 216.96C264.47 229.32 266.38 242 262.14 255.21C260.34 260.83 257.26 265.71 253.5 270.21C244.71 280.72 234.48 289.73 224.02 298.5C222.9 296.32 224.57 295.04 225.8 293.91C228.44 291.48 228.06 289.21 226.13 286.6C224.28 284.1 222.56 281.5 220.96 278.83C220.06 277.34 218.79 275.81 220.11 273.89C222.21 273.29 223.12 274.86 224.05 276.18C225.19 277.81 226.28 279.48 227.41 281.13C231.91 287.7 232.41 287.85 238.07 282.4C242.61 278.02 246.88 273.37 251.19 268.76C264.1 254.94 264.38 229.43 253.34 214.55C250.27 210.42 247.53 206.05 244.1 202.17C241.54 199.27 239.24 198.44 236.37 201.79C235.14 203.24 233.71 204.92 231.3 204.17C229.98 201.17 232.69 200 234.16 198.57C237.86 194.96 234.72 192.65 232.89 190.07C230.7 186.98 228.9 189.28 227.15 190.64C223.4 193.59 219.78 196.53 216.67 200.37C214.81 202.67 210.9 204.08 208.07 206.15C205.23 208.21 202.57 210.34 201.09 213.74C200.53 215.03 199.45 217.84 197.47 214.55C197.4 213.4 197.49 212.26 197.64 211.12C200.4 205.56 205.92 202.75 210.24 198.8C214.72 194.7 219.52 190.86 224.59 187.48C227.18 185.75 228.34 183.76 228.12 180.78L228.11 180.81Z" fill="#0A1C20"/>
<path d="M96.82 246.84C98.1 230.37 94.9901 214.25 92.9201 198.05C92.4701 197.07 93.01 196.74 93.86 196.61C94.58 196.94 94.9801 197.56 95.3001 198.24C95.6001 198.91 95.8501 199.6 96.0301 200.31C96.4801 202.4 96.45 204.58 97.13 206.63C97.39 209.1 97.91 211.55 98.13 214.04C100.05 211.27 102.86 209.42 105.65 207.63C107.85 206.22 109.73 207.58 111.53 208.93C118.53 214.22 125.65 219.34 132.3 225.08C133.68 226.27 135.11 227.41 136.75 228.28C141.29 230.68 144.7 229.85 147.35 225.33C148.69 223.04 150.04 221.12 153.02 221.26C153.67 221.29 153.93 221.07 154.26 220.28C156.69 214.48 158.07 214.09 163.08 217.49C163.89 219.62 162.1 220.42 160.94 221.47C156.02 225.89 150.69 229.86 146.23 234.81C143.75 237.56 141.2 237.67 138 235.25C129.01 228.47 119.58 222.26 110.98 214.98C106.69 211.35 104.82 216.83 101.53 217.2C99.4901 217.43 101.35 220.16 102.32 221.63C102.63 223.03 103.18 224.51 101.35 225.35C98.94 225.32 99.51 227.1 99.49 228.49C99.42 234.4 99.66 240.32 99.35 246.25C99.05 247.34 98.88 248.77 97.5 248.77C96.49 248.77 96.6001 247.65 96.7901 246.83L96.82 246.84Z" fill="#191810"/>
<path d="M40.25 48.9499C40.22 48.5899 40.19 48.2199 40.16 47.8599C40.42 44.6099 38.64 41.8199 38.12 38.7399C37.18 36.5699 37.93 35.26 40.14 34.64C43.4 33.73 42.02 36.9899 43.16 37.9699C43.65 41.7099 45.21 45.2499 45.36 47.4499C44.78 45.2699 43.9701 41.53 43.0501 37.81C42.2401 35.6 41.99 33.8799 45.09 33.0899C48.64 32.1799 48.64 34.92 49.61 36.79C49.82 37.24 49.97 37.7199 50.08 38.1999C50.54 41.0099 50.77 43.8899 52.37 46.3799C54.14 49.5299 54.24 52.9599 54.13 56.4399C54.22 58.9299 53.86 61.4099 50.77 61.4499C48.08 61.4899 44.57 63.3801 43.67 58.1201C43.14 55.0401 42.42 51.6099 40.24 48.9399L40.25 48.9499Z" fill="#7FB490"/>
<path d="M156.74 2.0601C158.67 8.6201 160.84 15.1201 161.93 21.9101C161.54 22.2401 161.09 22.3501 160.59 22.2701C157.01 18.1701 157.33 12.67 155.49 7.93998C154.42 5.18998 153.7 2.26 149.68 3.96C148.79 4.21 147.9 4.48007 147.03 4.78007C144.39 5.33007 143.61 6.84008 144.42 9.41008C145 11.2401 145.71 13.15 144.28 14.97C140.98 14.82 141.35 11.8501 140.69 9.9301C139.69 7.0101 138.4 7.17009 136.51 8.92009C134.83 9.20009 133.37 9.58007 133.89 11.9001C134.2 13.3001 134.37 14.78 133.25 16C132.55 16.23 132.02 15.96 131.55 15.44C130.47 14.26 130.06 11.23 128.98 11.72C126.45 12.87 123.2 11.54 121.23 14.1C117.85 13.9 117.42 15.7701 117.95 18.5501C118.19 19.7901 118.34 21.5201 116.62 21.7701C115.27 21.9701 115.01 20.36 114.49 19.36C112.73 15.99 107.84 15.37 106.33 18.71C105 21.65 103.79 20.9501 101.98 19.5201C101.22 21.7601 103.34 24.76 100.83 25.62C98.76 26.33 98.91 23.0001 97.23 21.6501C96.64 23.3301 97.6301 25.25 96.4001 26.61C94.5201 27.59 94.23 25.89 93.74 24.88C92.98 23.29 92.1201 21.77 91.0601 20.37C90.8401 19.92 90.85 19.4801 91.12 19.0501C111.18 12.8601 131.26 6.73008 151.28 0.410076C153.8 -0.379924 155.4 -0.0799093 156.76 2.05009L156.74 2.0601Z" fill="#233627"/>
<path d="M96.8199 246.84C97.0699 247.19 97.4701 247.87 97.5601 247.83C98.6001 247.38 97.9 246.3 98.29 245.58C99.37 243.56 101.07 242.36 103.27 241.85C107.32 240.92 111.22 243.06 111.82 246.51C112.38 249.78 109.58 254.15 105.97 253.6C100.14 252.72 97.57 255.2 95.88 259.97C94.85 260.21 94.53 259.53 94.28 258.75C95.13 254.77 95.98 250.8 96.83 246.82L96.8199 246.84Z" fill="#71292F"/>
<path d="M94.27 258.77C94.61 259.18 94.95 259.58 95.29 259.99C96.87 262.05 95.8 264.1 95.25 266.13C91.45 280.25 85.51 293.52 79.23 306.65C76.36 310.55 75.86 315.22 75.01 319.77C73.64 322.52 71.67 318.8 70.16 320.22C69.71 320.28 69.3499 320.14 69.0699 319.79L68.79 319.65C76.91 305.29 83.92 290.41 89.34 274.82C91.18 269.54 92.64 264.12 94.27 258.77Z" fill="#281B13"/>
<path d="M40.25 48.95C43.98 50.58 42.4699 54.75 44.3199 57.27C45.3899 58.73 45.3099 62.72 47.0699 61.48C49.1099 60.05 55.31 61.8401 53.03 55.8201C56 57.0301 57.96 56.19 58.74 52.99C60.47 51.86 61 54.49 62.71 54.24C63.33 51.22 61.06 48.25 62.51 45.3C62.79 44.88 63.1899 44.68 63.6899 44.67C65.9799 46.21 65.71 48.84 66.39 51.05C66.69 53.44 68.7601 53.1201 70.3101 53.6101C70.9201 54.0101 71.34 54.53 71.39 55.29C69.65 58.35 66.2901 58.1301 63.5601 58.8501C58.2501 60.2501 54.4 62.4201 55.48 68.8501C55.62 69.7101 55.05 70.4099 54.3 70.8799C51.48 70.9399 51.98 68.51 51.63 67C50.96 64.09 49.66 64.4799 47.89 65.9099C47.49 65.9399 47.0901 65.97 46.6801 66C42.8401 60.96 42.06 54.76 40.25 48.96V48.95Z" fill="#2E422E"/>
<path d="M91.1 19.0601C91.1 19.3701 91.11 19.68 91.1 19.98C91.44 21.24 90.29 22.04 90.11 23.14C89.73 25.59 88.91 26.96 86.49 24.66C85.4 23.62 84.11 23.83 82.85 24.39C82.45 24.57 82.03 24.6999 81.61 24.8199C79.45 24.9099 78.32 26.43 77.23 28C72.97 27.17 69.3001 28.46 66.0101 31.13C62.0401 29.86 61.63 31.5 62.37 35.01C63.04 38.22 65.5101 41.44 63.0401 44.9L63.12 44.86C59.61 44.2 60.27 40.97 59.49 38.73C58.48 35.81 58.4201 32.41 54.8901 31.01C54.6401 30.55 54.6901 30.13 55.0101 29.72C67.0301 26.17 79.06 22.6101 91.08 19.0601H91.1Z" fill="#2E422E"/>
<path d="M93.97 196.91C93.62 197.29 93.27 197.67 92.92 198.05C91.36 194.46 90.99 190.58 90.2 186.81C90.56 186.41 90.91 186.02 91.27 185.62C94.69 186.43 92.7 184.14 92.37 183.4C90.93 180.24 91.7199 179.02 95.1899 179.69C96.1999 179.85 97.0099 180.51 98.3199 180.85C98.4999 178.73 96.11 177.52 96.52 175.53C96.65 175.06 96.9101 174.69 97.3101 174.41C99.7301 174.74 101.37 176.63 103.52 177.51C104.28 178.17 104.78 178.98 104.88 180C104.84 182.71 102.55 183.84 100.92 185.33C97.42 188.52 94.11 191.73 93.98 196.91H93.97Z" fill="#4E5243"/>
<path d="M55.03 29.72C55.05 30.09 55.0799 30.46 55.0999 30.83C54.7199 31.96 53.87 32.6499 52.87 33.1899C49.83 33.3499 50.55 36.48 49.12 37.92C48.8 37.59 48.3499 37.3201 48.1999 36.9301C47.6799 35.6101 48.34 33.56 45.68 33.77C42.77 34 43.0999 36 43.0799 37.9L43.15 37.85C41.75 37.5 42.61 34.08 39.64 35.55C37.51 36.61 38.5399 37.72 38.8499 38.98C38.6399 39.42 38.6 39.99 37.99 40.13C36.02 36.7 36.4 34.54 40.81 33.61C45.62 32.6 50.31 31.04 55.05 29.72H55.03Z" fill="#283F2D"/>
<path d="M37.97 40.12C38.26 39.74 38.55 39.36 38.83 38.97C38.79 42 42.13 44.53 40.15 47.85C39.42 45.27 38.69 42.69 37.97 40.11V40.12Z" fill="#203023"/>
<path d="M219.96 273.86C221.77 279.03 225.32 283.17 228.35 287.57C230.13 290.16 230.14 291.61 227.69 293.57C226.13 294.82 224.05 295.99 224.01 298.5L223.88 298.88L223.47 298.9C221.7 299.17 220.88 301.17 219.05 301.33C217.9 301.1 217.48 300.32 217.43 299.24C218.39 296.3 218 293.76 215.35 291.81C213.72 290.61 212.89 288.74 211.67 287.2C210.62 285.72 209.38 284.37 208.39 282.84C205.74 279.3 202.37 276.35 200.08 272.51C199.19 271.01 197.64 270.37 195.99 269.99C195.12 269.74 194.3 269.39 193.81 268.57C193.42 266.98 193.07 265.36 191.74 264.21C191.21 263.56 190.78 262.84 190.32 262.15C189.71 261.27 188.94 260.51 188.38 259.6C186.84 255.98 183.26 255.18 180.18 253.7C174.64 252.68 170.67 249.65 168.51 244.41C167.89 242.9 166.59 242.75 165.34 242.37C164.9 242.15 164.53 241.85 164.23 241.46C163.4 240.1 162.9 238.49 164.29 237.42C169.32 233.55 174.08 229.13 180.76 228.16C183.92 229.21 185.59 231.94 187.63 234.24C190.97 237.95 195.07 240.94 198.07 244.98C200.38 247.4 203.1 249.47 204.74 252.49C208.01 257.06 211.74 261.27 215.16 265.73C215.46 266.07 215.72 266.44 215.97 266.82C217.13 269.02 218.86 270.86 219.91 273.13C219.93 273.36 219.95 273.58 219.96 273.81V273.86Z" fill="#78C5B2"/>
<path d="M218.98 301C220.68 300.75 221.33 298.25 223.46 298.92C207.02 314.74 191.07 330.93 178.23 350C167.54 365.87 158.36 382.63 148.21 398.81C147.15 400.5 146.03 402.14 144.94 403.8C144.63 403.49 144.32 403.17 144.01 402.86C143.26 401.25 144.11 399.91 144.86 398.66C158.52 375.65 170.98 351.87 188.19 331.14C194.04 324.1 200.07 317.24 206.67 310.89C206.98 310.54 207.32 310.22 207.66 309.9C210.27 307.37 213.1 305.05 215.03 301.89C215.95 299.84 217.64 301.18 218.99 301H218.98Z" fill="#1D130F"/>
<path d="M208.1 310.85C200.77 319.62 192.41 327.46 185.4 336.56C169.4 357.31 157.15 380.35 144.01 402.86C140.89 406.14 139.91 411.06 135.81 413.58C135.63 413.15 135.56 412.71 135.6 412.25C135.98 400.49 123.32 387.4 110.83 386.81C106.03 386.58 100.51 388.41 96.66 387.03C93.13 385.77 91.63 379.48 88.66 375.88C80.28 365.72 69.2 359.55 56.89 355.36C53 354.03 48.96 355.56 44.36 354.42C47.64 350.18 50.96 346.36 53.74 342.19C58.76 334.66 66 328.64 69.08 319.79C69.42 319.82 69.75 319.85 70.09 319.88C72.94 322.33 75.87 324.69 77.89 327.95C81.29 333.37 87.12 335.49 92.46 337.79C104.61 343.02 117.32 343.59 129.76 338.92C142.69 334.07 149.63 323.55 152.52 310.72C155.86 295.89 153.57 281.36 147.39 267.44C144.4 260.71 140.73 254.46 135.76 249.01C131.55 244.56 127.49 239.95 122.41 236.43C117.04 232.04 111.67 227.64 105.22 224.87C103.75 224.24 102.87 223.11 102.01 221.89C99.9 221.51 97.98 220.75 98.95 218.12C99.65 216.22 100.02 213.23 103.53 215.31C104.36 215.8 106.2 215.49 106.2 213.98C106.23 208.43 108.22 211.3 110.25 212.84C120.13 220.36 130.09 227.76 139.95 235.3C141.23 236.28 142.58 236.68 143.46 235.62C149.27 228.63 157.35 224.08 163.19 217.14C162.57 216.56 162.64 215.9 162.95 215.2C166.52 210.52 169.58 210.33 173.76 214.83C175.43 216.62 176.81 218.29 179.36 219.24C183.01 220.61 183.28 224.59 180.23 227.03C176.22 230.23 171.58 232.47 167.19 235.1C164.73 236.57 161.62 238.35 165.12 241.87L165.05 241.8C166.07 242.55 167.19 243.27 166.16 244.78C164.58 246.33 162.73 245.4 160.96 245.35C158.27 245.28 155.31 245.03 154.78 248.68C154.46 250.9 156.14 251.85 158.1 252.29C161.67 253.09 164.53 251.72 165.26 248.78C165.54 247.67 165.12 246.45 165.65 245.35C167.12 243.79 167.9 245.2 168.83 246.08C177.32 254.18 185.98 262.1 194.03 270.64C194.34 270.98 194.61 271.34 194.86 271.72C195.75 273.23 196.69 274.71 198.01 275.9C198.34 276.19 198.64 276.51 198.94 276.83C199.94 278 201.25 278.87 202.25 280.04C202.54 280.38 202.78 280.75 203.01 281.13C204.74 284 207.31 286.09 209.69 288.37C210.8 289.58 211.51 291.02 212.1 292.53C212.96 295.81 215.87 298.24 216.03 301.82C215.13 306.39 211.27 308.36 208.04 310.87C206.86 309.09 206.41 306.96 205.3 305.15C204.67 304.13 203.77 303.45 202.47 303.6C201.76 303.68 201.22 304.04 201.14 304.79C200.99 306.13 201.85 306.9 202.85 307.52C204.61 308.6 207.01 308.68 208.1 310.83V310.85Z" fill="#E98956"/>
<path d="M95.03 394.7C96.95 393.48 99.31 395.83 101.14 393.94C101.76 393.23 102.39 393.23 103.02 393.92C104.1 395.29 105.5 394.95 106.89 394.63C107.59 394.46 107.93 393.1 108.95 394.01C110.34 395.78 112.45 394.19 114.03 395.1C118.19 394.63 120.89 396.07 123.35 399.85C126.28 404.37 129.03 408.97 131.68 413.63C132.26 414.66 132.71 415.72 132.11 416.91C124.63 427.92 114.16 434.67 101.66 438.79C98.21 439.93 96.83 439.4 96.73 435.83C91.93 432.85 89.56 427.61 85.59 423.86C85.21 423.6 84.86 423.3 84.54 422.98C81.07 418.84 77.01 415.32 72.84 411.93C71.81 411.46 70.7901 410.99 69.9301 410.24C68.9201 409.12 68.5401 407.48 67.0601 406.73C66.6701 406.49 66.31 406.23 65.95 405.97C61.99 403.66 58.6701 400.26 54.0601 399.09C52.8401 398.38 51.7199 397.58 51.4399 396.06C46.0399 392.61 40.14 390.62 34 388.68C27.49 386.63 20.9899 385.27 13.9399 384.39C18.2899 377.32 24.72 372.58 30.39 367.15C32.19 365.43 34.1801 363.87 35.8101 362.01C38.1401 359.34 39.04 361.18 40.05 363.1C41.99 363.5 42.4799 361.05 44.1899 360.99C46.3999 362.48 50.96 362.63 54.5 361.39C54.85 361.27 55.53 361.28 55.67 361.49C58.36 365.58 62.26 365.67 66.62 365.48C67.67 365.44 68.92 368.33 71.17 368.21C71.28 367.87 71.66 367.45 71.76 367.54C76.47 372.01 83.47 374.38 84.95 381.83C85.6 383.64 88.76 384.13 87.61 386.89C88.53 387.56 88.8 388.6 89.14 389.6C92.75 389.15 91.0199 392.53 92.1899 393.84C92.9399 394.79 94.27 393.84 95.05 394.7H95.03Z" fill="#F1D2A2"/>
<path d="M88.0699 439.31C88.2199 441.16 87.88 442.32 85.6 442.75C63.78 446.82 42.54 445.2 22.15 436.14C13.95 432.5 6.64002 427.66 4.04002 418.16C2.11002 411.12 2.84995 404.38 5.71995 397.73C6.86995 395.07 8.77993 394.7 11.3199 394.74C27.6999 395.05 41.88 401.69 55.56 409.87C65.08 415.57 73.37 422.64 80.36 431.27C81.58 432.78 82.65 434.61 84.88 434.95C86.8 435.77 87.9899 437.13 88.0799 439.3L88.0699 439.31Z" fill="#2B888D"/>
<path d="M51.4399 396.06C52.1899 396.65 52.95 397.23 53.7 397.82C55.5 399.15 57.19 400.53 56.66 403.15C56.46 404.71 56.4901 406.35 55.1801 407.53C44.5301 402.19 34.29 395.86 22.12 394.3C17.71 393.74 13.3 393.17 8.69995 392.58C10.3 387.56 13.16 385.36 18.37 386.97C28.55 390.11 39.55 390.81 48.58 397.36C49.53 398.05 50.8001 397.24 51.4301 396.06H51.4399Z" fill="#5FBAB1"/>
<path d="M55.1899 407.52C54.9099 405.81 55.32 404.21 56 402.66C56.21 402.63 56.42 402.59 56.62 402.56C57.88 402.7 58.1099 405.23 59.9599 403.97C61.1199 403.37 62.9499 402.61 63.2199 404.13C63.7599 407.21 66.03 404.95 67.14 405.85L67.05 405.79C69.07 406.23 67.67 409.48 70.14 409.56C71.06 409.98 71.98 410.4 72.9 410.82C76.67 415.26 80.7 419.44 85.43 422.89L85.87 422.95C87.79 428.23 92.09 431.75 95.47 435.95C96.7 438.56 94.19 439.62 93 440.72C91.2 442.38 89.4099 440.93 88.0699 439.31C86.9999 437.86 85.93 436.41 84.87 434.96C76.81 423.83 67.1499 414.44 55.1899 407.53V407.52Z" fill="#89D1C5"/>
<path d="M132.12 416.92C130.94 415.23 130.23 413.28 128.51 411.86C126.78 410.43 128.42 406.81 125.18 406.03C125.95 403.13 122.27 403.09 121.96 401.3C121.15 396.62 117.12 396.56 114.03 395.1C116.29 390.99 122.24 391.62 125.67 396.9C128.37 401.07 132.32 404.64 132.95 410C133.13 411.52 133.92 412.42 135.59 412.25C135.7 412.55 135.83 412.83 135.9 413.13C135.93 413.27 135.84 413.44 135.81 413.59C133.86 413.91 133.78 416.29 132.12 416.93V416.92Z" fill="#2B6761"/>
<path d="M84.9301 381.83C81.6601 375.95 75.44 373.05 71.16 368.21C71.4 366.43 72.3 365.21 74.1 366.32C78.4 368.97 83.61 370.78 84.73 376.69C84.84 377.25 84.96 377.79 85.5 377.55C86.93 376.92 88.02 376.41 87.83 378.82C87.68 380.72 87.1599 382.03 84.9399 381.83H84.9301Z" fill="#447671"/>
<path d="M95.4699 435.94C93.6699 435.82 92.6699 438.35 90.5699 437.47C90.2599 435.22 93.35 435.9 93.4 434.01C91.83 433.61 90.12 434.53 88.63 433.55C88.01 431.6 91.24 432.25 90.79 430.37C89.37 429.28 88.01 431.53 86.61 430.42C86.23 429.17 87.88 428.71 87.93 427.87C86.92 426.19 83.62 431.52 84.37 426.36C84.53 425.28 86.11 424.43 85.87 422.93C90.59 426.3 93.53 431.18 96.73 435.83C96.31 435.86 95.8899 435.9 95.4599 435.93L95.4699 435.94Z" fill="#427469"/>
<path d="M95.03 394.7C93.94 394.85 92.82 395.1 92.17 393.83C94.41 393.19 92.11 388.11 96.49 389.44C97.28 389.68 98.59 388.66 98.9 390.1C99.18 391.35 98.33 392.74 97.13 392.55C95.02 392.21 94.97 393.26 95.02 394.71L95.03 394.7Z" fill="#487A72"/>
<path d="M44.4 356.04C45.32 356.04 45.95 355.84 46.24 356.07C47.76 357.29 50.2599 355.73 51.3199 357.87C51.4999 358.24 51.2 359.44 50.36 359.18C48.27 358.53 44.6 361.15 44.4 356.03V356.04Z" fill="#556869"/>
<path d="M89.12 389.6C88.02 389.03 87.15 388.33 87.59 386.89C89.48 386.86 89.73 382.32 91.78 384.61C93.35 386.36 91.02 388.41 89.12 389.6Z" fill="#4F7774"/>
<path d="M108.96 394.01C108.27 394.22 107.59 394.42 106.9 394.63C106.37 392.95 105.83 391.26 105.23 389.37C109.35 388.89 109.15 391.46 108.96 394.01Z" fill="#6C8B84"/>
<path d="M103.02 393.93C102.39 393.93 101.77 393.93 101.14 393.95C101.06 393.14 101.11 392.29 100.88 391.52C100.6 390.61 99.81 389.66 101.24 389.13C101.82 388.91 102.62 388.85 103.16 389.09C104.53 389.68 103.71 390.63 103.42 391.53C103.17 392.3 103.14 393.13 103.01 393.94L103.02 393.93Z" fill="#698D85"/>
<path d="M44.18 360.98C42.99 362.06 42.78 365.05 40.04 363.09C39.94 359.49 41.12 358.4 44.18 360.98Z" fill="#958A77"/>
<path d="M111.89 389.77C112.77 390.01 114.11 389.9 113.78 391.35C113.58 392.2 113.34 393.47 112.12 393.45C110.86 393.43 110.85 392.11 110.57 391.26C110.24 390.23 110.94 389.82 111.89 389.76V389.77Z" fill="#75A094"/>
<path d="M71.26 55.1001C70.87 54.6901 70.4799 54.2801 70.0899 53.8701C68.7099 52.4601 68.54 50.6601 69.81 49.4301C71.46 47.8301 71.75 50.2499 72.62 50.8999C74.16 52.0599 75.43 50.9 76.8 50.54C78.88 50 80.91 49.3 82.86 48.38C88.97 47.16 94.63 44.82 99.99 41.67C105.17 40.31 110.92 40.62 115.26 36.76C117.14 35.09 119.71 35.78 121.75 35.25C124.17 34.63 124.72 33.41 125.76 31.96C127.49 31.6 130.32 35 130.86 30.34C130.97 29.37 132.26 29.92 132.86 30.51C134.15 31.75 134.9 30.87 135.65 29.88C135.98 29.57 136.36 29.36 136.78 29.23C138.9 29.89 140.44 27.06 142.65 28.23C144.16 29.92 145.61 28.57 147.07 28.13C148.99 27.74 150.55 26.66 152.08 25.52C155.39 25.37 158.56 24.8799 160.71 21.9399C161.11 21.9299 161.52 21.91 161.92 21.9C162.12 23.55 163.29 25.16 162.16 26.88C161.77 26.89 161.38 26.9 160.99 26.92C153.47 31.5 144.81 33.23 136.76 36.5C131.3 38.72 131.2 38.48 132.33 44.01C132.32 45 132.12 45.94 131.55 46.77C129.57 48.25 128.19 46.89 127.58 45.4C125.59 40.53 122.17 40.89 118.27 42.46C111.63 44.76 104.75 46.33 98.1899 48.86C93.9299 49.52 92.52 51.56 94.54 55.7C95.48 57.64 95.5699 59.88 95.2199 62.04C94.8999 64.07 94.26 66.0099 92.03 66.6499C89.81 67.2899 88.22 66.0899 86.92 64.4299C85.04 62.0299 83.6999 59.38 83.8299 56.24C83.9599 53.24 82.63 53.08 80.13 53.77C77.26 54.55 74.58 57.2301 71.26 55.1101V55.1001Z" fill="#1E1E16"/>
<path d="M130.94 44.39C131.67 41.74 129.81 40.12 128.04 37.91C139.44 34.83 149.76 29.56 161 26.92C170.8 62.56 180.37 98.28 196.6 131.73C197.4 133.37 198.09 135.06 198.83 136.73C196.61 139.95 193.29 141.43 189.71 142.53C187.43 142.02 185.21 142.17 182.9 142.69C180.38 143.26 177.68 143.92 175.59 141.48C174.59 132.42 171.75 131.23 164.12 136.67C163.72 136.96 163.31 137.22 162.85 137.42C156.34 137.3 155.09 132.08 153.17 127.5C148.95 122.51 145.25 122.96 140.08 129.12C137.41 129.16 136.23 127.02 135.38 125.21C133.83 121.92 131.95 118.9 129.75 116.05C130.15 114.27 131.72 113.49 132.87 112.34C139.73 105.45 145.07 97.3 143.97 87.49C143.42 82.62 146.34 78.09 144.1 73.47C143.23 71.79 142.85 69.9499 142.3 68.1599C142.16 67.7199 142.06 67.2601 141.98 66.8101C141.22 61.6001 137.92 57.3599 136.47 52.4199C136.05 51.6299 135.66 50.82 135.26 50.02C134.24 47.83 133.08 45.74 130.94 44.4V44.39Z" fill="#E69162"/>
<path d="M154.28 126.86C155.97 131.23 157.33 135.89 162.94 136.85C166.17 141.94 170.97 141.82 176.04 140.79C178.62 142.83 181.37 142.05 183.93 140.98C186.35 139.97 188.32 140.27 190.22 141.92C192.04 143.32 193.62 144.97 194.93 146.85C194.4 147.67 193.91 148.54 193.32 149.32C186.94 157.75 186.88 157.77 176.91 154.87C161.35 150.35 155.33 152.83 145.13 167.99C140.12 169.73 135.33 168.36 130.54 166.93C128.08 166.2 126.02 164.98 124.61 162.68C123.39 160.67 121.88 158.62 119.13 159.14C116.47 159.64 117.19 162.26 116.58 164.03C116.34 164.73 115.9 165.12 115.11 164.85C111.55 162.73 108.02 160.55 104.41 158.51C96.04 153.78 93.64 154.1 87.21 161.14C85.55 162.96 84.75 163.64 83.66 160.74C77.1 143.23 70.43 125.75 63.83 108.34C69.69 105.1 69.55 111.23 72.15 112.86C72.37 112.89 72.5901 112.91 72.8101 112.93C75.2001 114.09 77.7 114.99 80.17 115.98C80.6 116.16 81 116.37 81.41 116.6C88.27 121.18 96.0599 122.79 104.07 123.41C107.52 123.68 110.66 122.34 113.99 121.19C119.28 119.37 124.32 116.43 130.08 116.02C135.56 117.32 134.57 123.42 137.77 126.44C138.56 127.19 138.94 128.4 140.1 128.84C140.59 128.65 141.06 128.71 141.48 128.98C148.82 133.72 149.09 133.67 154.26 126.83L154.28 126.86Z" fill="#E38B5A"/>
<path d="M93.9699 196.91C90.6999 189.46 97.7699 187.34 101.1 183.36C101.98 182.31 103.65 181.93 104.17 180.4C104.5 177.84 106.89 177.58 108.54 176.48C108.97 176.29 109.42 176.18 109.89 176.13C113.54 176.55 116.26 178.92 119.11 180.82C125.46 185.05 132.18 188.78 137.96 193.82C139.39 195.06 140.06 194.45 141.28 193.61C145.75 190.54 148.46 185.8 152.39 182.24C154.77 180.09 151.92 178.77 151.63 177.04C151.57 176.56 151.63 176.1 151.81 175.65C152.73 174.39 154.01 174.33 155.39 174.57C166.42 176.53 175.76 181.75 183.84 189.36C186.37 191.75 188.89 194.15 191.48 196.48C194.38 199.09 196.49 198.92 198.75 195.94C199.44 195.02 200.36 194.26 201.18 193.44C201.65 192.93 202.15 192.44 202.65 191.96C202.87 191.71 203.28 191.51 203.33 191.25C204.22 185.73 209.77 184.44 212.71 180.79C213.88 179.34 215.59 179.38 217.11 178.88C218.57 177.2 220.04 175.52 221.65 173.66C223.81 176.05 225.95 178.43 228.1 180.8C229.92 183.63 229.51 185.52 226.54 187.67C216.39 195.01 206.46 202.66 197.75 211.74C197.48 214.17 195.78 215.16 193.68 215.36C191.41 215.57 190.64 213.63 189.91 211.97C189.23 210.43 188.29 209.08 187.34 207.73C180.58 201.22 173.93 194.58 165.48 190.18C162.93 189.11 161.34 190.54 160.02 192.38C155.45 198.76 148.92 203.36 144.3 209.72C142.52 212.17 140.33 212.85 137.53 210.57C129.91 204.38 121.72 199 113.36 193.86C108.18 190.67 105.99 190.85 102.52 195.78C100.28 198.96 97.65 199.8 94.13 198.68C94.07 198.08 94.0199 197.49 93.9599 196.89L93.9699 196.91Z" fill="#ECCA98"/>
<path d="M212.09 161.75C215.91 163.57 217.43 166.91 218.07 170.83C212.65 178.77 205.72 185.35 198.93 192.06C197.64 193.34 196.03 193.57 194.34 192.77C193.91 192.58 193.5 192.33 193.12 192.05C191.38 190.05 188.75 189.16 186.9 187.33C186.53 188.76 186.73 191.21 183.86 189.89C180.94 188.54 180.69 185.95 182.93 181.47C183.33 180.94 182.12 181.04 182.74 181.27C182.91 181.33 182.74 181.45 182.64 181.76C182.44 182.43 182.04 183.37 181.52 183.18C178.13 181.9 173.57 183.53 171.38 179.21C170.91 177.83 171.52 176.73 172.09 175.49C172.71 174.13 172.25 172.75 170.51 172.62C165.89 172.3 164.84 168.83 163.82 165.28C165.29 163.16 167.2 163.84 169.05 164.53C170.72 165.16 172.15 166.3 173.82 166.95C178.61 169.89 183.12 173.21 187.45 176.81C190 178.94 192.82 180.74 194.83 176.03C195.33 174.86 196.46 174.42 197.64 174.25C200.32 173.85 200.81 171.68 201.42 169.62C201.98 168.23 203.32 167.67 204.4 166.82C207.28 165.61 209.84 163.91 212.1 161.75H212.09Z" fill="#EBCD9C"/>
<path d="M173.55 167.86C171.47 168.2 170.35 166.39 168.72 165.71C167.03 165 165.39 164.11 163.79 165.86C162.86 168.66 160.06 166.93 158.45 168.1C156.33 168.92 154.48 170.41 152.21 170.8C150.49 171.09 148.62 171.52 147.45 169.54C148.71 166.18 151.31 164.08 153.77 161.61C155.91 159.45 157.57 157.44 160.63 156.46C166.87 154.47 172.78 155.58 178.65 157.64C184.55 159.71 189.36 159.48 193.23 153.46C195.59 149.79 199.06 146.2 204.27 149.99C204.36 151.09 205.1 151.97 205.31 153.03C205.23 153.26 205.24 153.48 205.34 153.69C203.3 156.15 201.92 159.25 198.67 160.55C198.07 160.79 197.35 161.18 197.45 161.89C198.11 166.45 195.11 166 192.25 165.78C187.97 164.28 183.54 164.03 179.05 164.22C176.88 164.31 175.14 164.91 174.63 167.32C174.44 167.83 174.07 167.99 173.56 167.85L173.55 167.86Z" fill="#E27550"/>
<path d="M102.85 177.61C99.4299 178.66 98.6099 175.73 97.0999 173.85C95.2299 171.74 95.2599 169.39 96.7199 167.21C97.9599 165.37 99.75 165.81 101.42 166.83C101.68 167.16 101.95 167.48 102.21 167.81C102.65 169.33 101.64 169.82 100.42 170.29C102.15 170.09 103.32 169.28 103.92 167.72C105.73 164.06 108.42 164.26 111.63 165.75C116.35 167.94 120.75 170.86 125.87 172.18C130.81 172.73 133.7 177.02 137.94 178.84C140.93 180.18 140.41 176.5 142.08 175.94C143.85 177.71 143.12 179.79 142.81 181.81C141.98 183.97 143.31 185.63 144.14 187.4C145.16 189.58 144.57 191.11 142.56 192.44C140.68 193.67 139.22 193.67 137.9 191.78C137.53 191.26 137.24 190.19 136.73 190.35C130.22 192.38 132.38 187.96 132.73 184.81C132.49 187.91 130.72 188.13 128.56 187.15C125.98 185.99 123.77 184.22 121.53 182.51C120.22 181.51 120.4 180.27 120.64 178.93C121 176.95 122.33 177.28 123.68 177.56C124.54 178.17 125.13 179.04 125.42 179.51C125.12 179.27 124.8 178.39 124.09 177.85C123.07 177.27 121.63 176.57 121.04 177.74C118.37 183.04 117.13 178.36 115.83 176.93C114.12 175.06 114.56 171.93 112.44 170.16C112.79 170.71 112.06 170.26 112.1 170.29C114.11 171.75 114.99 173.62 114.04 175.98C113.75 176.71 112.69 176.8 111.83 176.68C110.89 176.54 109.92 176.03 109.06 176.91L109.18 176.86C106.98 176.25 104.56 173.89 102.88 177.62L102.85 177.61Z" fill="#D5CEAC"/>
<path d="M172.06 178.91C173.94 182.46 178.24 180.31 180.73 182.57C181.11 182.91 181.73 182.18 182.05 181.5C182.35 180.85 179 179.57 182.3 179.69C184.87 179.78 183.89 181.64 183.2 182.7C181.04 186.01 181.93 188.2 185.36 189.74C185.89 188.76 186.2 187.67 185.21 187.05C182.94 185.64 185.07 184.52 185.66 184.17C187.14 183.3 186.89 184.85 187.19 185.68C188.4 188.94 193.43 188 194.09 191.91C192.78 193.23 191.24 191.66 189.83 192.12C190 193.71 191.21 193.53 192.12 193.59C193.32 193.67 194.22 194.51 195.36 194.67C194.62 193.86 193.37 193.29 194 191.82C196.86 193.41 198.23 191.36 199.91 189.59C205.9 183.28 212.01 177.07 218.07 170.83C219.7 173.74 215.48 175.97 217.12 178.88C215.05 179.94 212.12 180.23 212.83 183.74C211.28 183.98 211.38 188.98 208.33 185.22C207.51 184.2 206.01 185.44 206.52 186.23C209.53 190.83 204.3 191.17 202.99 193.5C202.38 193.09 201.33 192.12 201.13 192.62C200.75 193.6 202.45 192.94 202.71 193.77C195.62 201.92 195.34 202.2 187.73 194.76C181.62 188.79 175.16 183.47 167.57 179.61C164.79 178.19 162.34 175.8 158.41 177.4C157.11 177.93 154.87 174.34 152.25 176.22C150.9 176.32 150.46 175.46 150.68 174.39C150.98 172.92 152.11 172.16 153.58 172.3C155.55 172.48 157.5 172.65 159.43 172.13C159.89 172.09 160.35 172.11 160.81 172.19C162.25 172.78 163.84 172.91 165.26 173.57C166.08 174.25 166.86 175 167.93 175.31C169.08 175.83 170.14 176.49 171.08 177.34C171.46 177.83 171.66 178.43 172.05 178.91H172.06Z" fill="#2E3525"/>
<path d="M137.94 178.84C132.66 178.89 129.95 174.3 125.87 172.18C124.16 169.9 121.66 168.77 119.2 167.59C120.13 164.74 122.92 164.41 124.79 164.95C130.54 166.61 136.55 167.27 142.13 169.54C142.68 169.99 144.5 169.54 143.29 171.24C141.49 173.76 139.72 176.31 137.94 178.84Z" fill="#E5C4A5"/>
<path d="M159.88 172.64C158.08 173.98 156.22 174.81 154.08 173.38C153.1 172.73 152.25 172.82 151.53 173.78C150.69 174.91 151.53 175.55 152.25 176.22C152.19 176.43 152.19 176.63 152.25 176.84C152.59 178.54 153.81 180.44 152.06 181.86C150.44 183.17 149.08 181.76 147.7 180.86C145.69 179.54 147.01 182.16 146.16 182.26C145.94 182.68 145.65 183.05 145.33 183.38C142.94 185.15 142.01 183.32 141.03 181.63C142.47 179.93 142.04 177.9 142.07 175.94C143.66 173.64 144.67 170.86 147.44 169.54C151.77 171.36 154.75 167.11 158.67 167.05C161.94 168.29 161.72 170.29 159.88 172.64Z" fill="#D9DEC6"/>
<path d="M192.88 164.81C195.9 164.02 195.89 164.02 195.55 161.99C195.5 161.68 195.5 161.09 195.58 161.07C199.98 160.11 200.76 154.35 205.35 153.69C206.37 157.12 210.89 157.29 211.91 160.72C211.4 161.81 211.29 164.17 209.71 163.23C205.77 160.88 205.14 164.56 203.33 166.16C199.64 166.25 201.79 168.81 201.56 170.36C201.27 173.85 199.35 173.27 197.18 172.13C195.14 171.1 193.24 169.82 191.75 168.1C190.43 166.57 190.23 165.13 192.88 164.81Z" fill="#D7DCBE"/>
<path d="M142.13 169.53C137.52 169.15 133.05 168.05 128.64 166.74C125.31 165.74 122.22 165.92 119.2 167.59C117.84 166.68 116.48 165.76 115.12 164.85C115.29 164.26 115.72 163.6 115.58 163.1C114.85 160.48 115.54 158.49 118.02 157.35C120.36 156.28 122.72 157.31 123.71 159.1C128.56 167.88 137.26 166.84 145.13 167.99C144.13 168.51 143.12 169.02 142.12 169.54L142.13 169.53Z" fill="#852D2F"/>
<path d="M194.94 146.86C192.48 146.06 190.56 144.75 190.23 141.93C192.52 139.24 195.92 138.39 198.83 136.73C198.91 137.09 199 137.46 199.08 137.82C200.96 140.58 201.94 143.46 200.21 146.68C198.47 147.27 196.63 144.8 194.94 146.86Z" fill="#842432"/>
<path d="M203.09 165.89C202.54 164.51 204.15 163.97 204.39 162.71C204.64 161.4 206.17 158.55 208.48 161.69C210.28 164.13 211.07 162.18 211.9 160.74C211.96 161.08 212.03 161.42 212.09 161.76C211.6 166.05 207.65 166.3 204.88 167.93C203.35 168.08 203.17 167.04 203.08 165.9L203.09 165.89Z" fill="#6C7150"/>
<path d="M200.21 146.67C199.55 143.75 200.39 140.65 199.08 137.81C201.91 140.01 202.6 143.41 204.14 146.32C202.74 147.4 201.44 146.5 200.21 146.67Z" fill="#D28071"/>
<path d="M205.3 153.03C202.8 152.75 203.05 151.53 204.26 149.99C205.1 151.01 207.32 150.62 207.12 152.58C207 153.72 206.02 153.28 205.3 153.04V153.03Z" fill="#E1D9CC"/>
<path d="M97.9699 47.67C104.76 45.49 111.55 43.31 118.34 41.13C120.89 42.14 122.77 44.16 125.81 44.73C127.88 45.12 128.68 48.9299 129.91 51.1699C133.3 57.3799 136.39 63.69 138.12 70.77C142.5 88.6 138.67 100.67 123.99 111.87C106.01 122.81 85.89 117.98 72.65 105.37C71.36 103.66 69.77 102.26 68.06 100.97C67.15 100.28 66.1699 99.5099 67.0899 98.1499C66.6499 96.2199 66.4199 94.1499 64.0899 93.4099C62.5299 93.1299 62.26 92.06 62.42 90.72C62.58 90.26 62.86 89.8901 63.27 89.6201C68.39 90.1101 73.24 91.4099 77.52 94.4299C78.73 96.6199 80.43 98.32 82.64 99.51C85.79 102.93 88.6 100.95 91.42 98.97C92.43 100.2 92.3 101.72 92.54 103.16C92.76 104.47 92.9799 105.9 94.7199 105.91C96.5399 105.91 97.2 104.56 97.51 103.03C98.18 99.78 97.1199 96.53 97.4499 93.28C98.8899 90.28 100.86 91.6001 102.8 92.6101C104.18 93.5001 104.28 95.0999 104.92 96.4199C106.1 98.8699 106.38 102.01 109.63 102.92C110.29 103.1 111.01 102.65 111.18 101.98C111.98 98.85 109.84 96.7101 108.48 94.3301C107.42 92.4901 105.93 90.83 106.15 88.48C106.41 87.13 107.15 86.2899 108.57 86.1699C110.6 86.2599 111.64 87.97 113.12 88.97C115.04 90.27 116.91 91.6799 119.25 92.1299C120.64 92.3999 121.94 92.08 122.69 90.76C123.48 89.37 122.81 88.2199 121.87 87.1799C120.72 85.9199 119.23 85.2399 117.67 84.6399C116.19 84.0699 114.31 84.0701 113.71 82.0901C113.83 80.3001 114.59 78.8201 115.85 77.5801C117.57 76.5101 119.39 77.4301 121.16 77.3301C123.62 77.1801 126.77 77.14 126.85 73.96C126.93 70.79 124.02 70.3899 121.39 70.4299C120.57 70.4399 119.74 70.51 118.94 70.24C117.78 69.57 117.25 68.55 117.25 67.23C117.38 65.46 118.65 64.3 119.58 62.96C120.33 61.88 121.3 60.6799 120.3 59.3799C119.2 57.9599 117.62 58.37 116.21 58.96C114.52 59.66 113.06 60.75 111.75 62.03C110.58 63.18 109.56 64.5401 107.79 64.8501C106.21 65.0401 104.87 64.64 103.91 63.3C103.12 61 104.66 59.24 105.35 57.29C107.08 52.44 106.5 51.6 101.37 51.77C100.71 51.79 100.07 51.73 99.43 51.53C97.91 50.65 96.9899 49.54 97.9699 47.71V47.67Z" fill="#E48C55"/>
<path d="M72.9599 103.97C85.0499 115.62 103.88 120.96 120.44 112.26C121.52 111.69 122.62 110.58 124.06 111.56C125.48 113.22 124.49 114.77 123.84 116.34C117.46 119.9 110.8 122.29 103.3 121.62C98.1 121.16 92.9999 119.57 87.6999 120.27C87.1999 120.34 86.3999 120.29 86.3399 119.95C85.6399 116.05 82.1499 117.84 80.0699 116.79L80.18 116.85C78.38 113.72 74.8499 114.02 72.0899 112.78L72.18 112.86C75.92 109.87 70.8099 108.44 70.9799 106.08C70.5599 104.36 71.3499 103.77 72.9699 103.96L72.9599 103.97Z" fill="#E0E4CB"/>
<path d="M101.42 166.82C94.99 166.11 97.77 171.04 97.11 173.85C96.77 174.19 96.4399 174.53 96.0999 174.87C95.5999 176.23 98.33 178.61 94.78 179C92.91 177.27 92.2299 174.2 89.0999 173.86C85.0299 167.07 85.28 165.47 91.13 160.83C95.93 157.02 100.95 157.83 106.49 163.24C105.55 165.51 101.59 163.36 101.43 166.81L101.42 166.82Z" fill="#D5704F"/>
<path d="M63.09 91.43C62.91 92.35 63.54 92.87 64.1 93.41C62.05 96.03 60.0599 95.9701 58.7099 92.7901C55.9599 86.3001 53.61 79.6602 51.03 73.1002C50.07 70.6702 48.94 68.3 47.89 65.9C46.29 63.42 48.8 63.4999 49.89 62.8799C51.16 62.1599 51.79 62.59 52.09 64.19C52.52 66.49 53.4 68.7 54.09 70.95C54.26 71.09 54.42 71.2202 54.59 71.3602C55.34 72.8502 55.91 74.48 57.62 75.23C58.13 75.69 58.45 76.24 58.3 76.96C56.86 78.58 57.76 79.5401 59.25 80.3401C59.97 80.9401 60.43 81.6699 60.48 82.6299C60.03 85.9499 62.1399 88.52 63.0799 91.43H63.09Z" fill="#D9CDB2"/>
<path d="M72.96 103.97C72.3 104.68 71.63 105.38 70.97 106.09C69.35 105.94 67.7 105.51 66.12 105.69C63.71 105.96 62.87 104.81 62.57 102.6C64.5 102.27 64.78 104.76 66.53 104.82C68.08 101.97 64.79 102.11 63.97 100.78C63.13 99.41 60.34 98.2999 62.5 96.4899C63.9 95.3199 66.27 95.5298 67.1 98.1298C68.27 100.88 71.92 101.11 72.96 103.97Z" fill="#D7D6BF"/>
<path d="M89.1 173.87C95.33 170.36 93.28 176.94 95.1 178.8C95.71 179.47 95.67 180.14 95.09 180.81C94.2 180.63 93.3 180.44 92.17 180.21C92.03 182.05 94.3601 182.6 94.4301 184.22C94.5001 185.65 94.4901 187.49 93.0601 187.96C91.6401 188.42 92.35 186.09 91.27 185.63C90.55 181.71 89.82 177.8 89.1 173.88V173.87Z" fill="#EAE3BB"/>
<path d="M103.92 167.71C104.74 173.38 100.4 170.12 98.4399 171C99.3299 169.45 101.78 169.86 102.21 167.8C102.78 167.77 103.35 167.74 103.92 167.71Z" fill="#8E806A"/>
<path d="M203.52 252.84C202.14 249.88 199.05 248.47 197.25 245.89C196.51 242.37 193.31 240.81 191.13 238.48C189 236.2 189.1 234.52 191.52 232.78C193.81 231.14 196.19 229.63 198.51 228.03C206.72 221.88 215.87 216.96 222.98 209.37C225.46 207.5 227.08 204.43 230.55 203.93C234.08 203.55 235.66 200.48 237.98 198.46C239.26 197.34 240.25 196.56 241.72 198.09C256.21 213.18 266.53 229.12 261.22 252.12C259.36 260.18 254.91 266.74 249.44 272.66C244.81 277.67 239.87 282.38 234.78 286.95C232 289.45 230.69 288.57 228.95 286.14C226 282.01 224.19 277.04 219.95 273.86L220.02 273.91C218.35 271.56 216.89 269.05 214.99 266.86L215.03 266.91C211.54 261.93 208.09 256.93 203.51 252.85L203.52 252.84Z" fill="#187C87"/>
<path d="M230.56 203.94C228.37 205.71 226.8 208.22 224.08 209.36C216.73 216.87 207.55 221.97 199.19 228.15C196.12 230.05 193.14 232.1 190.17 234.15C189.23 234.8 188.31 235.6 187.06 234.84C184.68 233.02 182.67 230.86 180.94 228.42C180.92 228.26 180.84 228.06 180.9 227.93C181.78 226 195.73 214.57 197.87 214.01C197.92 215.87 199.4 216.26 199.67 214.7C200.95 207.24 207.89 205.12 212.52 201.09C214.8 199.11 216.96 196.81 219.48 195.01C222.71 192.7 225.9 190.29 228.82 187.62C230.92 185.7 231.79 186.24 233.3 188.32C239 196.13 239.09 196.06 231.9 202.49C231.41 202.93 231 203.46 230.56 203.94Z" fill="#67BFAC"/>
<path d="M197.86 214.02C192.23 218.84 187.2 224.36 180.93 228.43C175.56 231.1 170.53 234.3 165.57 237.69C163.24 239.28 165.14 240.49 165.13 241.88C161.75 240.15 162.08 238.31 164.55 235.8C166.97 233.34 170.28 232.58 173.07 230.88C175.64 229.32 177.66 227.18 180.17 225.69C183.15 223.92 180.77 220.99 180.23 220.91C176.44 220.38 174.55 217.83 172.36 215.18C169.14 211.27 165.92 211.68 163.36 216.14C159.54 216.14 159.04 214.51 161.19 211.63C164.78 206.8 167.03 206.62 171.83 210.25C174.97 212.62 178 215.15 181.17 217.48C183.17 218.95 185.04 220.06 187.27 217.89C189.96 215.27 185.38 215.02 185.77 213.17C186.93 211.11 184.13 208.37 186.89 206.56C187.35 206.4 187.75 206.51 188.09 206.84C189 207.99 190.49 209.04 190.71 210.31C191.88 217.25 194.85 214.17 197.78 211.76C199.07 212.46 199.24 213.21 197.88 214.03L197.86 214.02Z" fill="#2A2B1F"/>
<path d="M78.05 306.6C81.53 297.37 86.4199 288.74 89.5999 279.37C91.7699 272.98 94.03 266.63 95.29 259.98C96.25 256.87 97.1999 253.76 98.3199 250.15C100.36 251.61 102.18 253.24 104.82 252.89C107.3 252.56 109.2 251.68 110.35 249.37C111.28 247.5 111.05 245.81 109.6 244.39C107.76 242.59 105.41 242.4 103.13 243.13C101.43 243.68 99.9 244.74 98.29 245.58V222.86C99.84 223.07 100.29 225.45 102.08 225.07C104.08 224.6 105.73 224.99 107.64 226.06C113.08 229.11 117.68 233.33 123 236.5C125.16 237.59 124.56 239.97 125.43 241.67C127.84 245.23 131.69 247.92 132.1 252.69C132.95 256.29 130.48 256.9 127.88 257.42C125.07 257.39 121.83 254.79 119.56 257.89C117.15 261.19 120.87 263.13 122.11 265.61C123.69 268.76 124.06 271.91 121.43 274.79C118.83 275.5 118.51 273.18 117.72 271.78C116.25 269.18 114.83 266.57 112.63 264.5C111.8 263.71 110.83 262.68 109.63 263.47C108.47 264.23 108.86 265.59 109.25 266.66C110.9 271.14 112.25 275.86 117.2 278.06C117.83 278.34 118.21 278.88 118.36 279.57C118.22 280.33 117.77 280.85 117.13 281.24C110.93 282.6 110.65 282.35 107.48 276.62C105.81 273.6 105.25 269.68 101.22 267.81C100.31 271.17 102.56 273.09 103.55 275.4C104.13 276.75 105.05 278.23 103.38 279.41C102.07 280.33 100.66 280.45 99.2199 279.41C98.1999 278.67 96.8399 276.5 95.9499 279.3C95.2799 281.43 93.2199 283.97 96.3699 285.95C98.0699 287.01 100.05 287.49 101.81 288.43C103.97 289.58 105.99 291.18 105.46 293.8C104.89 296.65 102.13 295.95 100.07 296.07C97.7199 296.21 95.4699 295.48 93.1999 295C90.4999 294.42 89.4699 295.67 89.6899 298.24C89.7999 299.57 90.1099 300.87 90.4499 302.15C91.1599 304.83 92.6199 305.81 95.1899 304.18C98.6899 301.96 102.75 300.38 105.32 297.04C108.17 293.35 111.6 292.45 115.86 293.5C117.98 294.57 117.77 297.59 120.06 298.52C122.81 301.36 126.27 303.31 129.27 305.84C130.03 310.73 129.21 311.35 123.59 310.2C120.31 308.98 118.44 306.41 117.07 303.36C115.74 300.4 114.17 300.82 112.48 303.04C112.1 303.35 111.68 303.58 111.23 303.76C105.88 303.2 102.4 305.62 99.78 310.22C98.16 313.05 95.1299 314.9 93.0699 317.5C92.0099 318.83 91.0599 320.47 92.6099 321.93C93.9799 323.21 95.41 322.05 96.65 321.27C99.38 319.55 100.47 316.83 101.15 313.84C101.66 311.59 101.83 309.23 102.94 307.15C103.42 306.25 104.06 305.4 105.21 305.52C106.36 305.64 106.77 306.62 107.07 307.59C107.22 308.07 107.32 308.56 107.33 309.05C107.39 316.28 106.38 323.47 106.55 330.7C104.78 332.46 102.83 331.8 100.89 331.13C100.45 330.97 100.02 330.76 99.5999 330.54C97.1799 329.02 94.67 328.67 92.01 329.94C83.63 325.65 77.03 314.62 78.03 306.59L78.05 306.6Z" fill="#ED9660"/>
<path d="M185.68 212.75C185.97 214.35 187.53 213.87 188.47 214.36C191.03 215.72 191.05 217.06 188.76 218.61C187.48 219.47 185.69 219.65 185.2 221.56C185.14 221.81 184.07 221.81 183.46 221.92C182.93 218.95 178.59 218.38 178.53 218.02C177.83 213.63 173.44 213.86 171.17 211.63C166.51 207.04 166.04 207.27 162.04 212.01C160 214.42 161.16 215.33 163.35 216.15C163.3 216.49 163.25 216.83 163.2 217.16C161.09 219.13 158.19 213.75 156.27 217.9C156.08 218.31 155.22 218.55 155.21 218.88C155.19 220.18 158.4 220.77 155.84 222.8C154.03 224.23 152.8 221.79 151.31 222.64C150.89 222.88 150.35 223.24 150.24 223.65C149.27 227.26 145.64 228.38 143.69 230.8C141.3 233.76 141.17 232.4 138.82 231C134.54 228.46 131.17 224.95 127.21 222.23C121.46 218.27 115.9 214.09 110.66 209.53C108.38 207.55 106.69 207.31 104.78 209.48C102.62 211.93 99.19 212.94 97.51 216.15C97.62 212.9 95.3301 210.1 96.5401 206.91C96.5201 206.44 96.5601 205.97 96.6801 205.51C105.66 193.83 105.72 193.74 117.88 201.94C124.35 206.3 130.93 210.51 137.23 215.13C140.217 217.317 142.917 216.817 145.33 213.63C147.6 211.37 148.64 208.16 151.17 206.1C152.85 204.99 154.24 203.55 155.61 202.09C156.89 200.83 158.14 199.54 159.44 198.32C162.52 195.414 165.663 195.247 168.87 197.82C169.26 198.06 169.62 198.35 169.97 198.64C174.06 202.27 177.99 206.1 182.74 208.92C184.14 209.88 185.56 210.83 185.67 212.76L185.68 212.75Z" fill="#EACC9A"/>
<path d="M146.33 213.85C142.8 220.27 142.5 220.29 136.82 216.42C128.09 210.47 119.23 204.7 110.53 198.7C107.13 196.35 104.73 196.57 102.41 200.15C100.9 202.48 98.82 204.44 96.99 206.57C95.89 204.92 95.69 203.1 96.65 201.43C97.76 199.49 95.4 200.82 95.45 199.99C95.01 199.56 94.57 199.13 94.13 198.7C99.09 198.79 101.56 194.83 104.39 191.9C107.01 189.18 109.1 189.69 111.75 191.35C121.68 197.61 131.77 203.64 140.73 211.69C146.96 204.78 153.2 197.93 159.36 191.02C161.23 188.92 163 187.01 166.02 189.06C166.25 189.29 166.34 189.53 166.29 189.78C166.23 190.04 166.17 190.16 166.1 190.16C164.91 191.02 163.94 192.06 163.42 193.46C159.37 195.34 158.28 199.6 155.87 202.8C155.07 204.63 154.26 206.45 152 206.89C151.32 206.36 150.5 205.91 149.83 206.69C147.36 209.54 144.02 211.51 141.68 214.77C143.467 213.237 145.02 212.93 146.34 213.85H146.33Z" fill="#253125"/>
<path d="M123.04 236.97C121.7 237.2 117 234.49 116.74 233.14C116.58 232.3 116.25 231.86 115.54 231.97C112.19 232.45 110.7 228.37 107.42 228.74C107.46 224.87 103.54 226.78 102.09 225.08C101.54 224.03 100.99 222.98 102.01 221.9C109.91 225.17 116.89 229.87 123.2 235.61C123.62 236.12 123.57 236.58 123.04 236.98V236.97Z" fill="#3A352A"/>
<path d="M95.46 199.98C96.65 200.74 97.67 197.52 99.07 199.93C100.56 202.5 97.7101 201.16 97.5401 201.82C97.1601 203.35 97.15 204.97 97 206.56C96.98 206.84 96.8301 206.95 96.5501 206.9C95.0101 204.78 94.69 202.47 95.46 199.98Z" fill="#8EB0A0"/>
<path d="M49.12 37.9101C49.77 35.7001 46.56 30.3901 53.12 32.9101C53.3 33.0501 53.4901 33.19 53.6801 33.33C55.8101 36.66 55.9301 40.83 58.1501 44.13C59.3001 46.9 61.26 49.6099 58.74 52.6299C58.89 53.7599 59.0501 54.8801 59.1701 56.0201C59.3701 57.8901 57.69 57.92 56.63 58.45C53.82 59.87 54.5001 56.3301 53.0201 55.8201C52.8601 52.7701 52.94 49.6601 51.23 46.9201C50.17 43.9701 50.06 40.8 49.08 37.83L49.12 37.9001V37.9101Z" fill="#84B78F"/>
<path d="M43.07 37.9C45.32 41.59 45.4 45.79 45.86 49.9C44.7 45.94 42.5601 42.21 43.1401 37.84L43.07 37.89V37.9Z" fill="#2E563C"/>
<path d="M49.08 37.84C50.81 40.63 51.07 43.7701 51.23 46.9301C49.51 44.1401 48.92 41.08 49.08 37.84Z" fill="#283F2D"/>
<path d="M126.09 31.88C126.19 36.1 126.19 36.1499 121.73 36.0799C120.82 36.0699 121.3 36.63 121.17 36.91C120.05 39.18 118.82 40.22 117.08 37.42C116.92 37.16 116.38 36.46 116.43 36.8C117.24 42 111.85 38.9999 110.35 41.3299C110 41.8799 107.44 44.07 106.04 41.31C105.61 40.46 105.42 40.27 105.14 41.38C103.83 46.51 101.82 43.38 99.94 41.81C97.8 41 99.05 38.82 98.19 37.5C97.59 34.18 96.2201 31.03 96.0201 27.62C96.0501 27.39 96.0901 27.1699 96.1301 26.9399C96.5101 25.2099 95.6701 23.71 95.2901 22.11C95.0501 21.1 94.33 19.72 95.95 19.12C97.45 18.57 98.51 19.1199 99 20.7099C99.43 22.1199 99.94 23.5 100.47 25.03C101.63 23.95 100.63 22.98 100.64 22.02C100.64 20.56 97.8201 18.9699 100.91 17.5699C103.95 16.1999 103.32 19.4199 104.71 20.3299C105.9 19.1199 102.29 16.48 106.44 15.81C113.89 14.6 113.83 14.2 116.76 21.06C118.55 18.45 113.43 15.2499 117.57 12.6999C119.59 11.4499 119.97 13.5299 121.14 13.9699C124.29 19.5299 127.34 25.11 126.11 31.88H126.09Z" fill="#7FB28B"/>
<path d="M99.45 37.96C100.93 39.07 99.07 40.61 99.94 41.8C99.85 42.87 100.62 44.8199 99.2901 44.8199C93.5001 44.7999 89.12 50.12 83.1 48.88C82.1 48.6 81.03 47.9599 80.94 47.0699C80.27 40.6299 76.95 34.72 77.19 28.12C76.27 23.82 78.88 23.62 81.98 23.99C83.34 26.19 83.65 28.79 84.82 31.4C83.91 28.64 82.9501 26.23 82.2901 23.73C85.4001 20.73 87.3401 22.1 88.8901 26.67C89.3001 23.53 87.45 20.58 91.11 19.99C95.53 20.32 93.4601 25.3399 96.1201 26.9399L96.07 26.85C97.55 30.45 97.43 34.53 99.45 37.97V37.96Z" fill="#7FB08A"/>
<path d="M126.09 31.88C124.43 25.91 122.78 19.94 121.12 13.97C121.2 13.02 120.92 11.3 121.85 11.36C124.58 11.56 126.7 10.61 128.97 9.29004C130.37 8.48004 130.58 10.21 131.05 11.27C131.75 12.88 131.55 14.95 133.34 16.04C135.27 16.17 135.06 17.78 135.41 19.01C135.05 22.69 137.39 26.1801 136.2 29.9301C135.76 31.3101 136.94 33.5501 134.35 33.8001C132.04 34.0301 132.54 31.63 131.59 30.51C130.06 31.86 133.37 34.8801 129.59 35.5501C126.14 36.1601 127.87 32.49 126.09 31.88Z" fill="#81B38D"/>
<path d="M142.12 28.88C140.6 29.84 139.36 32.2499 137.19 29.8299C136.34 29.0399 136.22 28.07 136.51 27.01C137.23 25.53 138.61 24.98 140.03 24.49C145.31 23.22 143.95 18.7299 144.53 15.1899C144.07 13.2799 143.66 11.3499 143.13 9.44992C141.64 4.14992 141.77 3.96994 147.38 4.08994C150.06 5.86994 150.02 8.98994 150.83 11.5899C152.04 15.4699 153.07 19.4399 153.15 23.5699C153.02 24.3699 152.68 25.05 152.02 25.54C151.78 29.07 149.76 29.34 147.01 28.27C145.24 27.3 143.91 29.99 142.12 28.87V28.88Z" fill="#82B58F"/>
<path d="M144.54 15.1899C147.14 19.9599 146.04 23.53 141.08 25.85C139.39 24.72 138.15 23.45 138.36 21.11C138.58 18.61 137.43 16.3399 136.52 14.0799C135.83 12.3699 135.28 10.71 136.12 8.91001C135.59 5.83001 138.17 5.86995 139.87 5.59995C141.95 5.26995 140.77 7.47 141.4 8.4C142.81 10.47 142.04 13.5899 144.55 15.1999L144.54 15.1899Z" fill="#83B591"/>
<path d="M152.08 23.89C151.22 17.12 149.11 10.65 147.38 4.08996C147.61 3.14996 148.32 3.01005 149.13 3.06005C151.83 2.85005 153.55 4.19001 154.28 6.65001C155.58 11.03 157.35 15.28 157.75 19.92C158.15 24.6 156.81 25.62 152.08 23.89Z" fill="#7FB791"/>
<path d="M152.08 23.8901C155.1 23.8201 158.13 24.81 156.18 19.2C155.11 16.12 154.43 12.4101 153.8 8.9301C153.3 6.1801 151.77 4.1401 149.12 3.0501C152.8 0.850097 155.12 1.47003 156.21 5.98003C157.51 11.35 159.19 16.62 160.71 21.94C160.24 26.05 156.06 27.7801 152.02 25.5501C152.04 24.9901 152.06 24.4401 152.08 23.8901Z" fill="#7BB595"/>
<path d="M136.1 8.90007C138.59 14.3001 139.27 20.24 141.07 25.85C139.61 26.24 138.15 26.6201 136.69 27.0101C134.41 24.7301 135.22 21.46 134.07 18.82C134.04 17.84 134.29 16.7801 133.34 16.0401C132.99 14.4301 132.54 12.83 132.33 11.2C132.2 10.17 131.41 9.01009 132.76 8.05009C134.31 6.94009 135.1 8.20007 136.11 8.90007H136.1Z" fill="#87B691"/>
<path d="M78.05 306.6C81.01 318.37 83.18 321.81 92.1 328.89C94.8 328.97 97.45 329.46 100.11 329.85L100.06 329.82C101.54 331.75 100.21 333.75 100.23 335.72C100.14 336.22 99.97 336.69 99.77 337.15C98.93 338.71 97.45 340.34 95.9 339.34C91.26 336.34 85.43 335.52 81.48 331.32C80.76 329.19 79.19 327.57 77.48 326.42C74.98 324.73 74.1001 322.58 74.1801 319.78C73.8301 314.91 75.14 310.52 78.05 306.6Z" fill="#BAC5A4"/>
<path d="M74.17 319.78C75.91 323.07 77.67 326.29 81.52 327.68C82.67 328.09 82.13 329.39 82.3 330.29C79.22 332.33 77.9499 330.4 76.9399 327.86C74.8199 325.06 70.65 324 70.08 319.87C71.3 316.55 72.3799 316.48 73.3199 320C73.3399 320.07 73.64 320.11 73.78 320.07C73.93 320.03 74.04 319.88 74.17 319.77V319.78Z" fill="#676251"/>
<path d="M58.05 76.8999L57.1 75.8C54.76 74.98 55.22 72.4299 54.05 70.8899L54.1 70.95C54.31 67.81 54.51 64.68 54.72 61.54C54.81 60.24 55.98 60.28 56.78 60.01C61.6 58.33 66.44 56.7301 71.28 55.1001C76.26 54.5901 80.59 51.8101 86.13 50.8601C83.66 56.0301 85.2 60.3 88.29 64.22C89.11 65.25 90.05 66.48 91.55 66.04C92.92 65.64 93.49 64.25 93.84 62.96C94.68 59.91 94.05 56.7801 92.5 54.3401C89.8 50.1101 91.58 48.73 95.53 48.05C96.35 47.91 97.16 47.79 97.98 47.65C98.15 49.31 98.9301 50.5 100.56 51.04C100.68 52.93 99.44 54.4001 98.98 56.1101C97.46 61.7001 98.44 63.0301 104.05 62.8401C105.32 63.5201 106.65 64.0001 108.13 63.8701C109.13 65.6801 107.65 67.35 107.71 69.27C111.56 69.49 114.09 65.4199 117.97 66.4199C118.33 67.4699 118.69 68.5301 119.06 69.5801C118.73 70.6701 117.73 70.99 116.86 71.45C112.853 73.5566 112.593 75.7601 116.08 78.0601C115.85 79.6401 115.27 81.03 113.88 81.96C112.51 83.68 110.64 84.93 109.39 86.76C107.87 86.86 107.09 87.72 106.94 89.2C102.86 87.08 103.6 91.43 102.12 92.79C100.86 93.32 99.58 91.0701 98.34 92.8301C95.85 91.2301 94.21 91.7901 93.15 94.6201C92.6 96.0901 92.5101 97.8701 90.9301 98.8201C89.0101 99.5801 91.59 103.27 88.38 102.97C86.01 102.75 82.94 103.43 82.15 99.8501C83.49 96.2201 86.91 93.9799 88.37 90.4399C88.87 89.2399 89.8601 87.91 88.6801 86.8C87.3801 85.57 86.3 87.0201 85.21 87.6201C81.96 89.3801 80.39 93.0201 77.17 94.8201C72.58 93.1601 67.99 91.5001 63.4 89.8401C60.63 88.2801 60.28 85.5901 60.14 82.8101C59.84 82.2101 59.54 81.6 59.23 81C58.03 79.86 57.2999 78.5899 58.0699 76.8899L58.05 76.8999Z" fill="#EE9F68"/>
<path d="M77.1899 28.11C79.1499 33.77 81.51 39.3 81.53 45.48C81.53 46.61 82.55 47.75 83.1 48.88C80.28 51.91 76.15 52.04 72.61 53.26C69.65 54.28 72.31 50.31 70.27 49.74C70.21 51.04 70.15 52.4501 70.09 53.8701C67.78 54.8701 65.38 56.0801 65.33 51.8301C68.22 48.0201 69.52 44.31 66.83 39.52C65.61 37.33 65.57 34.06 66.66 31.28C66.2 27.15 66.51 26.78 69.89 27.75C70.32 27.87 70.59 28.99 71.1 27.92C73.3 23.32 75.2301 25.77 77.1801 28.12L77.1899 28.11Z" fill="#82B58D"/>
<path d="M66.67 31.27C68.12 35.27 67.7799 39.62 69.6999 43.64C71.5499 47.52 68.3399 49.8901 65.3399 51.8201C64.4699 49.5501 64.6999 46.92 63.0699 44.9C63.6399 41.28 61.43 38.18 61.14 34.73C60.98 32.84 58.66 30.9001 61.29 29.0501C64.3 26.9201 64.89 30.52 66.68 31.28L66.67 31.27Z" fill="#85B58D"/>
<path d="M58.74 52.6299C59.27 49.9299 58.2 47.46 57.63 44.92C55.35 41.18 55.1199 36.67 53.0699 32.85L53.12 32.92C53.41 31.88 53.91 31.0299 55.09 30.8299C57.41 29.6499 58.4 30.25 59.27 32.88C60.59 36.86 60.49 41.31 63.13 44.86C62.45 47.55 63.93 49.9801 64.09 52.5801C64.19 54.1901 65.01 55.88 62.64 56.5C60.3 57.11 60.54 55.1899 60.02 53.9099C59.81 53.3999 59.17 53.0599 58.72 52.6399L58.74 52.6299Z" fill="#84B590"/>
<path d="M102.85 177.61C102.45 174.35 104.76 173.19 107.53 171.66C107.61 173.76 106.9 175.93 109.15 176.85C108.24 179.08 105.46 178.69 104.17 180.4C103.73 179.47 103.29 178.54 102.85 177.62V177.61Z" fill="#2A3327"/>
<path d="M95.09 180.81C95.09 180.14 95.09 179.47 95.1 178.8C97.67 178.07 93.12 175.51 96.1 174.88C97.34 176.2 98.75 177.4 99.76 178.88C100.66 180.2 101.5 181.88 99.36 183.07C97.37 184.18 97.4701 182.32 96.8101 181.37C96.5401 180.97 95.68 180.98 95.08 180.81H95.09Z" fill="#D1E0C5"/>
<path d="M194.11 271.85C186.8 264.73 179.48 257.62 172.2 250.48C170.21 248.52 168.67 246.08 166.03 244.82L166.09 244.88C165.74 243.85 165.39 242.83 165.04 241.8C167.17 242.21 170.95 240.65 169.4 245.5C169.31 245.79 170.18 246.59 170.75 246.84C174.16 248.38 175.99 252.48 180.23 252.66C180.25 256.2 184.6 256.18 185.47 259.03C186.53 261.52 188.97 261.28 191.02 261.82C192.42 261.84 192.03 262.82 191.99 263.62C190.99 265.93 193.32 266.56 194.16 267.94C194.64 268.24 195.12 268.55 195.61 268.85C196.87 270.73 195.16 271.13 194.11 271.85Z" fill="#3A2E1F"/>
<path d="M194.11 271.85C193.28 270.18 195.27 269.93 195.61 268.85C196.59 268.96 197.97 268.69 198.48 269.24C202.45 273.42 206.38 277.65 209.08 282.83C208.9 283.02 208.72 283.2 208.54 283.39C205.43 284.89 203.65 283.06 202.04 280.79L202.1 280.88C201.29 279.01 199.85 277.81 198.03 277.01L197.91 276.88C197.59 276.32 197.31 275.75 197.42 275.08C195.74 274.98 201.54 273.27 197.12 273.72C195.67 273.87 194.75 272.96 194.06 271.79L194.11 271.86V271.85Z" fill="#CCBF9E"/>
<path d="M211.08 292.46C210.38 291.27 209.67 290.07 208.97 288.88C208.73 286.91 210.24 286.99 211.47 286.73C211.69 286.74 211.91 286.76 212.12 286.77C214.24 289.04 216.37 291.3 218.48 293.58C220.24 295.48 220.11 297.28 218.12 298.94C216.85 299.73 214.78 299.76 214.97 298.42C215.44 294.97 212.44 294.36 211.08 292.45V292.46Z" fill="#CCBF9E"/>
<path d="M184.86 259.68C183.72 257.29 180.89 257.16 179.22 255.45C177.46 253.65 177.7 252.79 180.24 252.66C183.86 254.21 188.62 254.38 188.94 259.89C187.52 261.07 186.16 260.95 184.86 259.68Z" fill="#D6CE9D"/>
<path d="M187.05 234.84C191.04 232.46 195.04 230.09 199.03 227.71C199.55 228.08 199.57 228.47 199.09 228.88C196.19 231.02 191.57 232.69 190.85 235.41C190.01 238.57 195.09 240.58 197.13 243.47C197.68 244.25 198.54 245.02 197.24 245.89C193.84 242.21 190.44 238.52 187.05 234.84Z" fill="#0B3637"/>
<path d="M211.08 292.46C213.27 293.44 217.62 292.25 215.46 297.45C214.61 299.5 217.24 298.34 218.12 298.94C218.41 299.63 218.7 300.31 218.99 301C218.38 302.61 216.71 300.47 216.04 301.84C214.13 298.85 211.36 296.31 211.09 292.46H211.08Z" fill="#5D4031"/>
<path d="M203.52 252.84C208.81 256.34 212.44 261.2 215.04 266.9C210.59 262.72 207.32 257.56 203.52 252.84Z" fill="#0A1C20"/>
<path d="M194.17 267.94C192.17 268.1 190.46 267.42 189.84 265.5C189.31 263.84 190.93 263.88 192 263.62C194.33 264.25 195.26 265.59 194.17 267.94Z" fill="#DBDBC5"/>
<path d="M184.86 259.68C186.22 259.75 187.58 259.82 188.94 259.89C190.26 259.86 190.89 260.57 191.03 261.82C187.48 263.56 186.6 263.26 184.86 259.68Z" fill="#D9D8C0"/>
<path d="M209.09 282.83C210.71 283.68 212.04 284.74 212.11 286.77L211.85 286.99C210.01 287.23 207.84 288.45 206.68 286.03C205.75 284.09 207.47 283.54 208.87 283L209.09 282.83Z" fill="#CCBF9E"/>
<path d="M215 266.86C217.74 268.45 219.25 270.92 220.03 273.91C217.58 272.11 215.99 269.7 215 266.86Z" fill="#0A1C20"/>
<path d="M76.9499 327.86C78.7399 328.66 79.5201 331.7 82.3101 330.29C83.9101 333.85 88.34 333.02 90.73 335.7C91.59 336.66 93.94 336.07 95.24 338.16C96.56 340.28 97.83 337.69 99.05 336.95C104.49 336.78 109.28 341.15 115.15 339.06C116.29 338.65 117.42 339.1 117.87 337.5C118.12 336.6 119.01 336.13 119.83 336.71C124.96 340.26 129.4 336.62 133.33 334.61C136.47 333 139.77 330.13 140.71 325.95C145.6 322.53 148.5 317.93 149.39 311.97C149.63 310.38 148.77 309.94 147.86 309.26C147.03 308.31 146.25 307.36 147.8 306.36C152.14 306.8 150.9 302.7 151.49 300.93C152.65 297.43 153.31 293.25 148.97 290.74C148.82 290.27 148.89 289.84 149.2 289.45C151.09 288.46 150.72 287.12 149.78 285.69C150.61 281.04 150.85 276.6 145.86 273.88C145.44 272.2 146.86 269.77 143.93 269.08C143.69 264.05 141.52 259.8 138.6 255.83C136.97 253.61 134.57 251.66 135.6 248.36C135.76 248.2 135.93 248.03 136.1 247.87C153.91 264.97 160.82 299.48 150.41 320.76C147.53 326.66 143.48 331.77 137.98 335.78C123.45 346.36 108.02 344.74 92.4399 339.33C87.6599 337.67 83.38 334.5 79.02 331.79C77.81 331.04 75.27 330.38 76.93 327.85L76.9499 327.86Z" fill="#292519"/>
<path d="M132.44 363.89C128.52 363.79 125.44 362.09 123.4 358.76C121.38 355.45 122.53 353.05 126.31 352.27C129.67 351.57 135.8 354.44 137.42 357.46C139.34 361.05 137.14 363.89 132.44 363.89Z" fill="#6E242C"/>
<path d="M166.96 338.64C162.63 338.69 158.08 334.72 158.1 330.89C158.12 327.65 160.64 327.28 162.9 327.11C167.64 326.75 172.27 330.31 172.21 333.97C172.16 336.75 170.09 338.59 166.97 338.63L166.96 338.64Z" fill="#64252A"/>
<path d="M145.96 367.75C150.93 367.71 155.13 371.15 155.04 374.89C154.98 377.67 153.26 379.16 150.69 379.31C146.75 379.55 140.95 374.69 141.09 371.44C141.24 367.93 143.97 367.99 145.96 367.75Z" fill="#70272B"/>
<path d="M166.04 244.82C166.81 247.35 167.89 249.8 165.33 252.13C162.93 254.32 160.17 254.35 157.38 253.79C154.76 253.26 152.8 251.72 152.89 248.67C152.98 245.57 155.14 244.47 157.76 243.91C160.65 243.29 163.28 244.86 166.1 244.88L166.04 244.82Z" fill="#651E28"/>
<path d="M183.3 295.85C178.97 295.74 174.78 292.63 175.38 290.2C176.34 286.27 179.77 285.3 183.18 285.37C186.32 285.44 189.34 286.72 189.14 290.63C188.93 294.6 185.96 295.68 183.3 295.86V295.85Z" fill="#71212A"/>
<path d="M180.46 309.74C183.41 309.91 187.44 310.41 187.87 314.58C188.26 318.33 184.55 318.87 181.51 319.08C177.7 319.34 174.77 317.77 174.39 313.88C174.05 310.37 176.96 309.79 180.46 309.75V309.74Z" fill="#70212C"/>
<path d="M130.8 382.81C126.37 382.71 122.93 379.22 122.89 375.56C122.86 372.32 124.74 371.69 127.41 371.82C131.37 372.02 135.19 375.52 135.02 378.94C134.88 381.94 132.81 382.69 130.8 382.81Z" fill="#7A272C"/>
<path d="M160.33 349.81C163.65 349.73 167.86 352.9 168.02 355.66C168.18 358.59 166 359.28 163.83 359.51C160.74 359.83 156.23 356.28 156.19 353.62C156.15 350.9 157.88 349.91 160.34 349.81H160.33Z" fill="#77252B"/>
<path d="M166.05 265.93C168.88 266.45 170.85 267.95 170.87 270.8C170.88 273.63 168.96 275.51 166.21 275.66C163.22 275.83 161.67 273.64 161.59 270.91C161.5 268.07 163.29 266.42 166.05 265.93Z" fill="#652226"/>
<path d="M110.31 374.84C110.15 374.84 109.98 374.85 109.82 374.84C106.7 374.72 104.57 373.16 103.43 370.3C102.83 368.81 103.51 367.6 104.88 367.11C107.6 366.14 110.17 366.67 111.98 368.98C112.98 370.26 115.73 370.74 114.62 373.06C113.89 374.6 112.07 375 110.31 374.84Z" fill="#672029"/>
<path d="M67.3101 349.88C64.3001 349.26 60.92 348.92 60.98 344.23C61.02 341.73 62.5301 341.69 64.2501 341.71C67.2301 341.73 71.37 345.25 71.22 347.64C71.07 350.09 69.2201 349.82 67.3001 349.88H67.3101Z" fill="#6E1E24"/>
<path d="M208.1 310.85C205.79 309.99 203.4 309.29 201.2 308.2C199.68 307.45 198.7 305.97 199.06 304.08C199.3 302.8 200.23 302.11 201.48 301.91C203.21 301.63 204.84 301.85 205.96 303.36C207.61 305.59 208.04 308.18 208.06 310.88L208.12 310.84L208.1 310.85Z" fill="#611D24"/>
<path d="M143.4 388.85C146.06 389.05 147.79 390.11 147.81 392.44C147.83 395.23 145.86 396.65 143.25 396.57C141.17 396.51 139.27 395.43 139.17 393.03C139.05 389.98 141.53 389.47 143.39 388.84L143.4 388.85Z" fill="#762427"/>
<path d="M80.7199 350.76C78.2599 350.31 76.32 349.12 76.18 346.38C76.06 344.09 77.77 343.07 79.75 343.16C82.24 343.28 84.3 344.31 84.29 347.33C84.29 349.64 82.7399 350.41 80.7199 350.76Z" fill="#72222A"/>
<path d="M167.84 310.78C167.13 312.98 165.58 313.87 163.36 313.85C160.8 313.82 159.88 312.33 159.97 310.02C160.07 307.4 161.8 306.71 164.02 306.9C166.32 307.1 167.4 308.64 167.84 310.79V310.78Z" fill="#6E2425"/>
<path d="M87.7 359.55C86.47 358.75 83.83 359.38 84.34 356.91C84.89 354.24 87.16 353.57 89.69 353.74C91.43 353.85 92.71 354.73 92.5 356.43C92.17 359.1 90.02 359.57 87.7 359.55Z" fill="#792927"/>
<path d="M123.04 236.97C123.09 236.51 123.14 236.05 123.2 235.6C128.12 239.05 132.25 243.32 136.11 247.89L136.14 247.84C131.91 249.19 129.62 245.73 126.85 243.8C125.98 243.2 125.08 242.57 124.15 242.02C121.63 240.81 125.56 238.18 123.04 236.97Z" fill="#3F3827"/>
<path d="M208.88 282.99C208.37 283.91 206.62 284.31 207.22 285.6C208.15 287.6 210.34 286.37 211.86 286.98C210.89 287.61 209.93 288.24 208.96 288.87C206.06 286.68 202.87 284.75 202.05 280.79C204.12 282.14 206.09 283.82 208.87 282.99H208.88Z" fill="#483321"/>
<path d="M194.07 271.78C194.62 272.11 195.19 272.75 195.71 272.71C199.7 272.42 198.3 274.9 197.92 276.87C195.76 275.84 194.42 274.18 194.07 271.78Z" fill="#3A2E1F"/>
<path d="M198.04 277C201.13 276.47 202.54 277.71 202.11 280.87C200.51 279.83 198.53 279.19 198.04 277Z" fill="#423323"/>
<path d="M92.3 402.91C94.34 405.77 96.62 402.19 98.72 403.45C98.63 401 100.65 402.08 101.51 402.1C106.3 402.23 111.5 401.05 115.08 405.82C115.94 406.97 116.35 405.49 116.92 405.18C117.87 404.66 118.94 404.44 119.71 405.09C120.89 406.08 119.71 406.74 119.06 407.4C118.94 407.52 118.76 407.64 118.75 407.77C118.46 410.5 117.01 411.6 113.69 410.52C111.07 409.67 109.8 409.92 108.71 412.55C108.1 414.03 106.57 415.01 104.6 414.51C102.94 414.09 102.04 413.25 102 411.43C101.95 409.26 100.81 408.51 99.31 410.31C97.6 412.36 94.25 409.47 92.99 412.7C92.8 413.19 91.5099 412.46 90.9499 411.8C90.2499 410.98 89.83 410.09 90.75 409.18C92.46 407.48 91.79 405.2 92.3 402.9V402.91Z" fill="#4C7267"/>
<path d="M61.14 373.79C62.82 373.28 62.86 371.49 64.1 369.95C64.97 372.49 66.87 373.52 68.91 374.69C73.45 377.29 75.47 382.29 78.6 386.23C80.04 388.04 78.39 389.88 76.71 389.63C72.23 388.98 67.58 389.65 63.26 387.92C62.3 387.25 62.2701 386.33 62.5401 385.32C63.9601 383.56 66.3801 384.88 67.9201 383.51C66.0601 382.04 64.38 384.66 62.51 383.87C58.92 379.9 58.62 377.69 61.15 373.79H61.14Z" fill="#AFAB92"/>
<path d="M110.83 428.03C115.37 428.11 112.29 423.97 114.08 421.9C115.63 424.58 115.35 427.1 115.29 429.57C115.26 430.87 114.85 431.67 113.26 431.77C106.29 432.24 99.61 431.86 94.28 426.49C95.38 424.71 96.97 426.6 98.22 425.97C100.01 426.89 103.26 422.55 103.9 427.56C106.28 426.57 108.58 426.94 110.82 428.03H110.83Z" fill="#3A4934"/>
<path d="M61.14 373.79C58.32 377.8 61.57 380.61 63.11 383.76C63.4 384.01 63.5 384.27 63.41 384.53C63.32 384.79 63.22 384.92 63.13 384.92C63.17 385.92 63.21 386.92 63.25 387.92C58.41 389.33 55.27 387.42 55 382.85C54.96 382.2 55.0001 380.99 55.1701 380.96C60.9601 379.84 57.72 373.89 60.33 371.13C61.75 371.78 61.04 372.89 61.14 373.8V373.79Z" fill="#4B5A4C"/>
<path d="M80 405.9C79.17 406 77.7999 406.11 77.8199 405.35C77.9099 401.37 75.48 399.89 72.22 398.85C71.47 398.61 72.08 397.43 72.65 397.49C75.63 397.79 74.34 392.37 77.91 393.65C76.42 397.12 83.87 397.72 80.53 401.65C79.41 402.96 80.2101 402.72 81.0601 402.78C82.2601 402.87 83.71 403.13 83.4 404.59C83.04 406.27 81.21 405.59 80 405.9Z" fill="#75715A"/>
<path d="M40.0401 368.86C40.6401 369.4 41.4201 370.52 41.8101 370.4C46.7801 368.86 46.15 373.83 48.73 375.63C44.51 376.82 40.88 377.85 37.24 378.88C36.84 379.17 36.41 379.23 35.94 379.08C34.31 378.3 33.29 377.16 33.64 375.2C33.87 374.77 34.22 374.51 34.7 374.43C37.85 374.18 39.99 373.12 38.96 369.32C38.86 368.93 39.5 368.65 40.03 368.85L40.0401 368.86Z" fill="#434B42"/>
<path d="M110.83 428.03C109.75 427.87 108.48 427.2 108.26 429.11C108.1 430.54 107.49 430.89 106.53 429.66C105.75 428.66 105.6 425.78 103.75 428.91C102.84 424.74 101.13 427.55 99.6401 428.44C99.1701 427.62 98.7 426.79 98.23 425.97C97.45 422.8 101.19 423.15 101.96 421.2C103.26 423.69 107.49 421.24 108.11 424.86C108.71 425.47 109.83 425.13 110.26 426.05L110.83 428.03Z" fill="#929478"/>
<path d="M34.08 374.84C33.47 373.73 31.1401 373.46 32.3801 371.42C33.7901 372.42 35.19 373.41 37.21 374.83C36.28 372.31 33.9501 370.7 36.1601 368.6C38.8201 367.36 40.1134 367.447 40.0401 368.86C38.4901 371.49 42.6401 372.42 41.9001 374.84C40.0201 375.5 40.6101 372.85 38.8901 373C38.7401 376.97 36.79 376.95 34.08 374.85V374.84Z" fill="#B5B09D"/>
<path d="M85.4301 422.88C84.3101 422.96 82.83 423.67 82.2 422.46C80.51 419.22 78.0499 417.72 73.6899 419.13C74.5599 416.96 79.0101 415.56 74.1801 414.38C73.0201 414.1 73.01 412.14 72.9 410.81C78.25 413.61 82.1101 417.96 85.4301 422.88Z" fill="#427469"/>
<path d="M67.14 405.84C66.18 406.46 65.1 406.97 64.29 407.74C63.6 408.4 63.0201 408.78 62.1801 408.21C61.1201 407.5 62.02 406.89 62.26 406.15C62.87 404.27 62.79 404.25 60.16 404.69C58.54 404.52 58.13 401.89 56.05 402.67L56 402.66C56.11 400.63 53.96 399.68 53.71 397.82C59.26 398.69 63.07 402.49 67.14 405.84Z" fill="#336860"/>
<path d="M70.1401 409.55C69.5101 410.9 68.5401 410.87 67.4101 410.23C66.1201 409.5 66.75 408.75 67.36 407.96C67.99 407.15 67.1001 406.51 67.0501 405.77C69.1201 406.18 70.6001 407.06 70.1401 409.54V409.55Z" fill="#336860"/>
<path d="M110.26 426.05C109.17 426.33 107.78 427.16 108.11 424.86C109.59 425.25 108.94 421.2 111.11 423.34C112.11 424.33 112.51 425.76 110.26 426.04V426.05Z" fill="#3A4934"/>
<path d="M56.04 402.67C58.49 401.15 59.58 402.39 60.15 404.69C58.7967 406.497 57.4267 405.823 56.04 402.67Z" fill="#5FBAB1"/>
<path d="M123.11 115.94C123.42 114.48 123.74 113.01 124.05 111.56C125.07 107.94 128.7 106.59 130.88 103.93C139.14 93.8999 140.59 83.01 136.96 70.86C136.12 68.06 133.38 65.46 135.23 62.09C131.54 61.56 132.35 57.8598 130.78 55.8998C128.96 53.6398 129.75 49.5699 125.15 48.9499C123.22 48.6899 127.22 46.8599 126.14 44.8199C121.12 48.6599 120.52 43.3499 118.35 41.1199C123.27 38.4999 127.14 38.5799 128.53 45.0799C128.81 46.3999 129.87 46.7999 131.07 46.9399C131.87 47.4499 132.18 48.2999 132.55 49.0999C133.61 51.0299 134.76 52.91 135.91 54.79C136.83 57.89 141.37 60.0499 138.34 64.1799C140.66 63.9699 141.9 65.49 143.11 67.07C143.01 67.29 143.01 67.5099 143.11 67.7299C144.73 69.8299 140.81 68.54 141.39 70.76C142.02 73.15 143.41 73.24 145.08 73.6C145.86 74.83 146.06 76.75 145.28 77.33C142.67 79.26 143.44 81.8201 143.66 84.1201C144.08 88.4801 143.52 92.7299 142.95 97.0099C142.76 98.4199 142.23 99.55 141 100.31C140.13 100.85 139.46 101.44 139.3 102.59C138.63 107.32 135.98 110.71 131.64 112.45C128.79 113.59 126.5 116.13 123.12 115.94H123.11Z" fill="#DDE3CC"/>
<path d="M131.31 49.89C131.23 48.91 131.15 47.9199 131.07 46.9399C131.03 46.0899 130.98 45.24 130.94 44.39C134.91 44.14 135.31 47.2599 136.19 49.9399C134.56 50.7499 132.93 50.8 131.31 49.9V49.89Z" fill="#331C0A"/>
<path d="M142.12 28.88C143.05 28.22 144.07 27.6499 144.87 26.8599C145.38 26.3599 145.36 24.99 146.43 25.54C147.43 26.06 146.99 27.32 147.01 28.29C144.13 31.4 143.35 31.5 142.12 28.89V28.88Z" fill="#83B591"/>
<path d="M134.07 18.8199C135.95 21.2299 135.35 24.43 136.7 27.01C136.86 27.95 137.03 28.89 137.19 29.84C136.86 29.89 136.53 29.9201 136.2 29.9301C135.03 26.3201 133.92 22.6899 134.07 18.8199Z" fill="#233627"/>
<path d="M123.11 115.94C124.9 112.78 129.18 113.49 131.46 110.55C132.14 109.67 135.63 110.9 134.02 107.44C138.41 106.62 137.95 100.37 138.37 100.33C144.26 99.7801 140.1 95.44 141.27 93.74C143.17 91 143.63 89.1499 141.15 86.8799C143.69 84.5699 143.94 82.11 141.62 79.49C143.16 79.38 140.56 74.59 144.38 77.04C144.56 76.14 144.75 75.2301 144.93 74.3301C144.48 73.8001 144.53 73.3299 145.08 72.9099C146.3 75.7199 147.47 78.46 144.76 81.22C144.17 81.82 143.01 83.7401 145.7 83.5601C145.7 86.4401 146.27 89.4499 145.62 92.1799C143.3 101.9 138.95 110.47 130.1 116.02C127.4 119.14 122.6 118.46 119.88 121.68C119.33 122.34 118.06 121.84 117.13 121.3C115.64 120.43 114.12 119.68 114.82 122.72C115.06 123.78 113.88 123.84 113.1 123.97C101.14 125.92 89.9699 124.25 80.0699 116.77C81.9699 117.25 82.7199 114.33 85.3199 115.5C87.8699 116.65 87.7 117.67 86.23 120.53C89.24 118.21 90.96 116.74 94.22 119.54C96.03 121.09 100.92 120.58 104.35 120.63C110.89 120.72 116.97 117.98 123.11 115.91V115.94Z" fill="#2B3227"/>
<path d="M154.28 126.86C154.34 130.22 153 132.79 149.61 133.5C145.4 134.39 142.34 132.35 140.12 128.86C140.14 124.82 142.94 123.4 146.21 122.92C149.62 122.42 152.97 122.73 154.28 126.85V126.86Z" fill="#762930"/>
<path d="M176.04 140.79C170.04 144.75 164.43 143.07 162.94 136.85C164.4 133.26 167.7 132.43 170.91 132.17C175.49 131.79 177.37 135.21 176.03 140.79H176.04Z" fill="#6D272E"/>
<path d="M159.45 112.94C155.74 112.77 153.39 111.04 153.14 107.27C152.94 104.21 156.48 100.95 159.77 101.17C163.02 101.39 165.88 102.82 165.74 106.5C165.6 110.19 163.33 112.54 159.45 112.94Z" fill="#6C262E"/>
<path d="M154.55 46.7701C151.99 46.1101 148.72 45.8101 148.19 42.0101C147.77 39.0001 151.4 36.0001 155.33 35.8101C158.61 35.6501 160.87 36.7601 161.09 40.4001C161.3 43.8201 158.5 46.6801 154.55 46.7701Z" fill="#74222E"/>
<path d="M167.1 81.9299C170.1 82.0399 172.16 83.89 172.56 87.29C172.93 90.46 169.79 93.0101 165.87 92.8501C162.62 92.7101 159.98 91.63 159.9 87.77C159.83 84.6 162.96 81.9499 167.11 81.9299H167.1Z" fill="#71292E"/>
<path d="M180.93 120.06C177.53 119.93 174.31 118.91 174.22 115.04C174.14 111.22 177.18 109.88 180.67 109.64C184.84 109.36 186.42 112.25 186.66 115.48C186.93 119.07 184.15 120.12 180.93 120.05V120.06Z" fill="#732530"/>
<path d="M162.69 59.6498C166.71 59.5998 170.17 62.4099 169.79 65.4799C169.41 68.5999 167.13 69.92 164.12 69.86C160.35 69.78 157.47 68.0698 157.23 64.1598C157 60.3898 160.1 59.8298 162.68 59.6598L162.69 59.6498Z" fill="#69212B"/>
<path d="M143.12 67.0701C140.59 65.7501 136.86 65.8499 137.95 60.9099C138.36 59.0799 135.05 57.3499 134.6 54.8999C135 53.5099 135.49 52.19 137.09 51.74C139.92 56.53 142.2 61.5301 143.12 67.0701Z" fill="#2A2B25"/>
<path d="M145.08 72.9199C145.03 73.3899 144.98 73.8701 144.93 74.3401C144.34 72.2301 141.71 76.1799 140.81 72.6399C140.03 69.5799 140.52 68.53 143.12 67.72C145 68.99 143.97 71.3499 145.08 72.9099V72.9199Z" fill="#222E28"/>
<path d="M137.09 51.7399C136.7 53.1399 136.11 54.3898 134.6 54.8998C133.5 53.2298 132.41 51.56 131.31 49.89C132.94 50.05 134.57 48.75 136.19 49.93C137.17 50.19 137.19 50.9399 137.09 51.7399Z" fill="#92724B"/>
<path d="M114.34 142.91C110.97 142.47 108.09 140.85 107.95 136.6C107.82 132.43 111 131.97 114.09 131.96C117.68 131.96 120.95 133.12 120.95 137.34C120.95 140.97 118.6 142.95 114.34 142.91Z" fill="#6C232E"/>
<path d="M84.7801 143.68C80.7401 143.59 76.91 140.28 77.35 137.3C77.77 134.42 79.8101 133.04 82.6501 133.07C86.4701 133.1 90.3101 136.23 90.0401 139.11C89.7301 142.43 87.2101 143.28 84.7801 143.68Z" fill="#6F252D"/>
<path d="M134.77 146.82C138.27 146.95 140.36 148.23 140.08 151.6C139.77 155.41 137.29 157.01 133.68 156.87C130.64 156.75 127.85 155.66 128.08 152.08C128.35 147.9 131.8 147.24 134.78 146.82H134.77Z" fill="#722730"/>
<path d="M72.08 112.79C74.88 111.12 77.2501 112.26 79.6801 113.79C81.2001 114.75 81.27 115.63 80.17 116.86C77.51 115.44 73.81 116.07 72.08 112.79Z" fill="#2B3227"/>
<path d="M145.08 182.98C146.21 178.74 146.52 178.61 149.8 180.89C150.3 181.24 150.9 181.43 151.78 181.84C151.96 179.93 152.11 178.38 152.26 176.84C156.85 179.25 155.3 181.44 152.37 184.23C147.89 188.51 143.8 193.21 139.65 197.61C133.75 190.5 125.19 186.62 117.62 181.47C114.98 179.67 112.61 177.04 109.02 176.89C109.8 175.28 111.14 175.91 112.42 175.92C114.13 175.92 114.35 174.68 113.51 173.6C113.26 173.29 113.81 170.16 111.62 172.5C110.66 173.52 109.83 172.4 109.33 171.57C108.75 170.59 109.22 169.68 109.79 168.82C110.59 167.63 111.5 168.21 112.38 168.66C114.02 169.49 114.38 171.04 114.85 172.68C115.62 175.38 117.61 177.37 119.32 179.76C120.84 178.38 119.73 176.78 120.37 175.15C121.64 176.11 122.84 177.01 124.04 177.91L124.13 177.82C122.7 177.57 121.38 177.72 120.92 179.34C120.54 180.68 121.45 181.44 122.5 182.12C124.72 183.56 126.9 185.06 129.07 186.57C130.03 187.24 131.08 187.3 131.74 186.43C132.85 184.96 131.2 185.15 130.54 184.68C129.7 184.08 130.13 183.17 130.4 182.45C130.62 181.86 131.08 181.26 131.87 181.48C132.84 181.75 133.12 182.52 132.94 183.42C132.71 184.61 134.39 185.4 133.59 186.65C132.68 188.07 132.09 189.56 134.27 190.14C136.74 190.79 135.42 187.9 136.45 187.22C138.12 187.52 138 188.84 138.46 189.85C138.89 190.8 138.46 192.48 140.06 192.54C141.46 192.58 142.46 191.48 143.36 190.5C144.52 189.23 143.34 188.13 142.63 187.53C140.67 185.86 141.25 183.69 141.04 181.65C142.34 182.3 143.31 184.06 145.16 182.91C145.69 183.27 146.21 183.64 146.88 183.69C146.8 183.11 146.3 183.41 146 183.3C145.7 183.19 145.38 183.15 145.09 183L145.08 182.98Z" fill="#2A3327"/>
<path d="M155.87 202.8C154.53 201.61 154.99 200.68 156.11 199.57C157.61 198.09 159.03 196.51 159.18 194.18C159.4 190.78 162.13 194.16 163.13 192.78C164.11 192.01 165.2 191.38 166.01 190.4C166.01 189.95 166.01 189.5 166.02 189.05C174.7 193.33 181.39 200.07 188.06 206.83C187.57 206.86 187.07 206.89 186.58 206.92C184.73 207.37 183.61 208.95 182.07 209.87C177.15 206.87 172.57 203.47 169.05 198.82C169.47 198.33 169.7 197.73 170 197.17C170.48 196.28 170.85 195.39 169.62 194.76C169.33 194.61 168.92 194.48 168.72 194.66C167.6 195.67 169.06 196.24 169.21 197.05C169.32 197.69 169.47 198.28 169.13 198.88C166.6 199.18 166.12 196.63 164.81 195.79C161.09 197.32 159.24 200.99 155.86 202.81L155.87 202.8Z" fill="#484D3C"/>
<path d="M202.72 193.77C200.82 192.8 200.07 195.13 198.15 195.37C198.57 192.84 199.34 190.52 201.83 190.27C203.44 190.11 202.74 192.32 202.99 193.49L202.95 193.72L202.72 193.76V193.77Z" fill="#A8B592"/>
<path d="M197.97 170.9C199.65 170.05 198.47 173.54 200.29 172.44C201.28 171.83 201.18 170.92 200.81 169.99C201.21 169.5 201.65 169.46 202.13 169.88C202.8 170.74 202.73 171.35 202.1 172.41C200.08 175.8 195.37 175.64 193.53 179.78C192.57 181.95 189.04 180.09 187.06 178.55C182.52 175.03 178.04 171.43 173.54 167.86C173.53 167.55 173.56 167.25 173.62 166.94C175.8 166.4 177.76 167.41 179.11 168.67C182.44 171.78 187.65 171.09 190.65 174.78C191.46 175.77 192.53 174.79 193.08 173.97C194.27 172.2 196.07 171.51 197.95 170.9H197.97Z" fill="#383B2A"/>
<path d="M159.88 172.64C159.95 170.68 160.6 168.58 158.67 167.05C159.97 164.88 162.45 167.84 163.79 165.86C165.7 166.55 166.61 168.1 167.13 169.9C167.6 171.51 168.66 172.25 170.07 171.38C171.57 170.46 172.9 170.48 173.11 172.12C173.28 173.47 175.9 175.61 172.41 176.59C172.1 176.68 172.17 178.1 172.06 178.9C171.71 178.52 171.36 178.13 171 177.75C170.07 176.99 169.97 174.79 167.92 175.99C165.72 177.14 164.55 176.82 165.1 174.02C163.87 173.26 163.68 171.93 163.31 170.64C162.22 171.17 162.3 172.8 160.94 172.92C160.59 172.82 160.23 172.73 159.88 172.63V172.64Z" fill="#757563"/>
<path d="M202.14 169.87C201.7 169.91 201.26 169.94 200.82 169.98C199.35 169.54 200.65 168.81 200.62 168.21C200.54 166.72 196.94 166.78 198.71 164.69C200.52 162.55 201.21 166.87 203.1 165.89C203.7 166.57 204.3 167.24 204.9 167.92C205.14 170.19 202.53 168.47 202.15 169.88L202.14 169.87Z" fill="#2B3221"/>
<path d="M197.97 170.9C195.98 171.87 194.94 173.62 193.93 175.5C193.15 176.96 192.09 178.46 190.18 176.54C185.52 171.87 178.94 170.5 173.63 166.95C172.06 164 174.44 163.31 176.27 163.13C181.88 162.58 187.55 162.26 192.87 164.82C192.18 165.42 190.91 166.36 192.09 166.99C194.2 168.12 195.36 170.61 197.97 170.91V170.9Z" fill="#E4C196"/>
<path d="M124.04 177.91C126.58 178.33 127.52 180.55 128.93 182.25C128.51 182.47 127.97 182.97 127.7 182.86C125.53 181.91 124.5 180.08 124.12 177.82L124.03 177.91H124.04Z" fill="#2A3327"/>
<path d="M194 191.82C194.03 192.75 194.56 193.41 195.32 193.78C196.85 194.53 198.13 195.49 196.51 197.08C194.3 199.25 195.37 195.85 194.28 195.52C192.59 195.01 190.49 196.7 189.11 194.33C188.29 192.93 186.5 191.83 188.11 190.12C189.54 188.6 190.75 190.03 191.95 190.88C192.59 191.33 193.38 191.56 194.1 191.89L194.01 191.81L194 191.82Z" fill="#B3C4AC"/>
<path d="M160.94 172.93C161.11 172.3 161.54 171.6 161.39 171.06C160.8 169 161.87 168.21 163.59 168.23C165.91 168.26 164.9 170.09 164.78 171.17C164.66 172.2 164.7 173.11 165.11 174.03C163.69 173.81 161.69 175.76 160.95 172.93H160.94Z" fill="#D9DEC6"/>
<path d="M167.92 175.99C168.04 174.84 168.45 173.16 169.57 173.54C171.3 174.13 170.99 176.16 171 177.75C169.44 178.09 168.57 177.24 167.92 175.99Z" fill="#EBCD9C"/>
<path d="M116.07 78.0902C113.63 77.4502 109.71 78.2701 109.25 75.4601C108.75 72.4401 112.91 72.4602 114.98 71.1102C116.16 70.3402 117.68 70.0902 119.05 69.6102C120.51 69.3802 121.99 68.9101 123.44 68.9701C126.52 69.0901 128.39 71.02 128.83 73.9C129.31 77.04 126.61 77.4401 124.43 78.2601C121.58 79.3401 118.86 77.9202 116.07 78.0902Z" fill="#242223"/>
<path d="M117.97 66.45C113.91 68.03 110.38 70.8899 105.14 71.6599C106.24 68.8099 107.19 66.3599 108.13 63.8999C110.28 61.8699 112.06 59.4101 114.81 58.0601C117.09 56.9501 119.74 55.6099 121.64 57.9199C123.83 60.5599 121.48 62.78 119.79 64.79C119.26 65.41 118.58 65.9 117.96 66.45H117.97Z" fill="#312023"/>
<path d="M109.39 86.79C109.02 83.45 110.88 82.18 113.88 81.99C116.7 83.33 120.05 83.3701 122.51 85.5701C124.2 87.0901 125.61 88.7199 124.34 91.1699C123.06 93.6399 121 94.2001 118.46 93.3301C114.79 92.0601 111.52 90.22 109.4 86.79H109.39Z" fill="#292122"/>
<path d="M90.91 98.8401C91.6 96.6401 92.25 94.42 93 92.24C93.43 90.99 93.9601 89.3899 95.4301 89.3999C97.4201 89.3999 98.0399 91.1202 98.3199 92.8602C98.5699 95.9902 98.8899 99.1201 99.0699 102.26C99.2399 105.25 98.32 107.66 94.85 107.79C91.01 107.94 90.82 105.11 90.8 102.31C90.8 101.15 90.87 99.9901 90.9 98.8301L90.91 98.8401Z" fill="#271F1F"/>
<path d="M77.15 94.8401C78.9 90.7101 82.46 88.23 85.74 85.53C86.82 84.64 87.88 83.3 89.58 84.75C91.27 86.19 91.39 87.68 90.34 89.56C88.15 93.45 86 97.3398 82.14 99.8798C79.28 99.3898 77.5 97.8201 77.16 94.8401H77.15Z" fill="#191F1C"/>
<path d="M104.05 62.8602C102.22 64.4002 100.03 65.9901 97.81 64.5701C95.96 63.3901 97.12 60.88 97.17 58.97C97.24 55.93 98.27 53.1901 100.56 51.0501C102.49 50.2301 104.49 48.54 106.53 50.19C108.73 51.96 107.86 54.4602 107.03 56.6202C106.2 58.7602 105.05 60.7802 104.04 62.8602H104.05Z" fill="#211E1F"/>
<path d="M102.11 92.8199C102.1 92.3299 102.06 91.83 102.07 91.34C102.12 89.58 101.31 87.1798 103.27 86.4398C104.91 85.8298 105.52 88.4599 106.93 89.2299C108.73 92.1899 110.67 95.06 112.27 98.12C113.47 100.41 114.06 103.31 111.35 104.74C108.44 106.28 106.74 103.74 105.63 101.49C104.26 98.6899 103.26 95.7199 102.1 92.8199H102.11Z" fill="#1B1E1D"/>
<path d="M60.12 82.8201C61.21 85.1601 62.3 87.5101 63.38 89.8501C63.28 90.3801 63.19 90.8999 63.09 91.4299C59.62 89.9699 60.29 85.98 58.37 83.52C57.87 82.88 59.45 82.9701 60.11 82.8301L60.12 82.8201Z" fill="#414230"/>
<path d="M58.05 76.8999C59.06 78.0899 59.4199 79.47 59.2099 81.01C57.1699 81.34 55.73 80.72 55.43 78.48C55.11 76.03 57.13 77.3599 58.05 76.8999Z" fill="#43463A"/>
<path d="M54.04 70.89C54.54 71.44 57.74 68.8001 55.74 72.2801C54.66 74.1601 57.8099 74.1901 57.0899 75.8001C54.2499 75.3001 53.6 73.43 54.04 70.89Z" fill="#2E422E"/>
<path d="M199.09 228.89C199.07 228.5 199.05 228.11 199.03 227.72C207.38 221.6 215.73 215.49 224.08 209.37C222.44 213.73 218.21 215.39 214.88 217.9C209.77 221.76 204.37 225.25 199.09 228.89Z" fill="#08383A"/>
<path d="M182.08 209.87C182.98 207.97 182.67 204.21 186.59 206.92C186.59 207.91 185.44 208.75 186.82 209.95C188.42 211.34 188.19 211.6 185.67 212.75C184.47 211.79 183.27 210.83 182.08 209.87Z" fill="#C5C6B0"/>
<path d="M144.56 268.85C145.97 268.68 147.38 268.2 148.25 270.05C149.37 272.44 145.48 271.54 146.13 273.51C148.11 277.44 148.45 281.82 149.61 285.98C150.34 287.4 150.08 288.68 149.04 289.84L149.16 289.8C149.26 293.96 150.33 298.06 149.72 302.28C149.48 303.92 149.48 305.53 148.05 306.66C146.88 307.27 147.85 307.88 148.05 308.48C148.34 309.97 148.18 311.42 147.42 312.73C145.09 316.77 143.17 321.02 141.07 325.17C137.72 326.95 134.23 328.63 131.18 330.76C125.53 334.71 118.64 333.1 112.74 335.75C111.12 336.48 109.26 334.26 107.66 333.12C106.11 331 107.2 329.61 109.13 328.88C111.81 327.86 111.98 326.05 111.38 323.71C110.22 319.21 109.7 314.59 109.07 310C108.66 307.01 109.22 304.37 112.17 302.8L112.07 302.86C116.17 302.57 116.75 305.8 117.62 308.57C118.71 312.05 118.38 315.85 119.87 319.26C120.67 321.09 121.34 323.35 123.97 322.63C126.23 322.01 126.64 319.89 126.67 317.8C126.7 316.07 126.06 314.58 125.01 313.21C124.03 311.93 122.59 310.84 122.9 308.91C124.72 307.97 130.61 313.78 128.15 305.74C130.34 304.36 131.8 306.5 133.62 306.88C134.43 307.05 135.28 307.35 135.81 306.45C136.17 305.84 135.89 305.17 135.61 304.57C134.81 302.83 133.49 301.54 131.7 301.01C127.62 299.8 123.59 298.18 119.19 298.67C117.983 298.423 116.97 296.88 116.15 294.04C115.08 292.9 114.92 291.62 115.58 290.22C116.37 289.11 117.41 289.49 118.43 289.74C122.97 292.56 128.18 292.77 133.27 293.32C134.99 293.51 137.4 293.53 137.57 291.11C137.71 289.11 135.57 288.76 133.97 288.35C132.69 288.03 131.32 288.06 130.18 287.25C128.94 285.48 129.9 284.55 131.5 283.94C132.57 283.53 133.76 283.55 134.84 283.15C136.07 282.69 137.75 282.11 137.25 280.6C136.65 278.8 135.02 279.9 133.95 280.38C130.07 282.13 126.28 284.08 122.8 286.57C121.58 287.34 120.36 288.14 118.92 288.48C116.56 288.61 115.18 287.4 114.5 285.23C114.47 283.35 115.03 281.8 116.94 281.06C117.27 280.64 117.6 280.22 117.93 279.8C125.13 281.09 129.85 276.12 135.2 272.85C136.41 272.11 136.68 270.61 135.58 269.4C134.4 268.11 132.96 268.39 131.49 268.97C128.53 270.12 126.97 273.33 123.8 274.14C121.75 270.11 122.46 264.35 125.82 263.16C130 261.68 129.44 259.41 128.14 256.47C129.14 255.31 132.81 256.32 131.04 252.9C133.48 251.41 134.73 253.57 136.11 254.74C140.53 258.44 142.38 263.76 144.57 268.84L144.56 268.85Z" fill="#EBA86F"/>
<path d="M116.92 281.07C116.31 282.32 115.69 283.58 115.08 284.83C114.29 286.72 116.12 288.1 116.06 289.85C116.08 291.25 116.1 292.65 116.12 294.05C115.62 294.45 114.83 295.3 114.66 295.19C109.69 291.99 108.05 296.74 105.2 298.93C101.53 301.75 97.5599 304.19 93.7199 306.79C92.7199 307.46 91.85 307.07 90.99 306.47C88.96 305.06 87.5399 295.78 88.9799 293.76C89.9099 292.46 90.9999 293.01 92.0899 293.28C95.1499 294.03 98.16 295.08 101.37 294.78C102.44 294.68 104.03 295.46 104.43 294.03C104.85 292.53 104 291 102.6 290.28C99.9599 288.92 97.1899 287.8 94.4699 286.58C93.3199 286.07 91.45 285.81 92.78 283.97C94.75 281.26 94.55 278 95.41 274.9C98.88 274.7 99.25 281.38 103.99 278.42C102.51 275.96 100.88 273.54 99.55 270.95C98.72 269.32 98.1299 267.26 100.23 266.11C102.35 264.95 103.59 266.48 104.54 268.21C106.3 271.41 108.09 274.59 109.8 277.82C110.91 279.92 111.4 283.17 114.86 280.05C115.07 279.86 116.21 280.72 116.92 281.09V281.07Z" fill="#272624"/>
<path d="M112.15 302.81C108.89 307.24 110.89 312.02 111.35 316.64C111.62 319.39 112.3 322.15 113.2 324.78C114.26 327.89 114.19 329.82 110.17 329.84C108.59 329.84 106.55 330.13 108.03 332.72C107.18 334.57 106.13 335.07 104.7 333.24C104.44 331.99 105.2 331.39 106.16 330.9C103.54 322.84 107.2 314.58 105.41 305.77C102.71 308.83 102.91 312.24 102.18 315.23C101.31 318.82 99.83 321.79 96.3 323.28C94.74 323.94 92.89 325.92 91.43 324.04C89.92 322.11 89.08 319.33 91.21 317.19C95.64 312.73 100.32 308.52 103.29 302.82C103.84 301.76 104.69 302.09 105.78 302.33C107.84 302.79 110.02 302.68 112.15 302.81Z" fill="#1E211F"/>
<path d="M124.04 273.71C125.93 270.89 128.52 268.83 131.47 267.28C133.81 266.05 135.95 266.35 137.43 268.88C138.97 271.53 137.82 273.41 135.59 274.69C131.57 276.99 127.39 279.02 123.34 281.28C120.96 282.6 119.27 281.98 117.92 279.81C111.09 277.25 109.1 271.25 107.5 265.03C107.11 263.5 107.64 261.96 109.06 261.18C110.49 260.39 111.53 261.67 112.52 262.45C115.31 264.64 117.05 267.59 118.59 270.74C119.42 272.44 119.65 274.66 121.96 275.29C122.44 274.48 123.32 274.21 124.04 273.73V273.71Z" fill="#292525"/>
<path d="M122.88 308.92C125.77 311.84 129.29 314.42 128.14 319.41C127.54 321.99 126.47 324.24 123.69 324.81C120.6 325.44 119.85 322.81 118.89 320.75C117.69 318.17 117.29 315.4 116.97 312.57C116.54 308.79 116.18 304.84 112.06 302.87C112.3 301.03 112.71 298.93 114.81 298.74C117.05 298.53 117.52 300.82 118.04 302.47C118.91 305.23 120.29 307.52 122.89 308.93L122.88 308.92Z" fill="#1E211F"/>
<path d="M124.04 273.71C123.69 274.69 123.39 275.74 121.96 275.27C120.93 273.51 122.18 271.72 121.91 269.95C121.63 268.07 122.11 266.03 120.05 264.66C117.3 262.82 115.77 260.09 117.8 257.1C119.7 254.31 122.78 254.26 125.81 255.59C126.56 255.92 127.34 256.19 128.11 256.48C133.11 261.09 132.83 261.48 126.76 263.99C122.39 265.79 123.42 270.03 124.04 273.72V273.71Z" fill="#392325"/>
<path d="M144.56 268.85C141.47 266.27 140.82 262.13 138.3 259.12C136.19 256.59 134.17 254.13 131.02 252.91C130.53 248.15 126.44 245.65 124.15 242.02C125.74 241.79 128.66 238.85 127.71 243.75C127.59 244.35 127.89 244.9 128.15 244.75C131.61 242.78 131.87 246.18 133.38 247.64C133.89 248.13 135.2 247.79 136.14 247.83C136.51 250.22 136.54 252.52 139.03 254.22C142.53 256.62 142.62 261.53 145.8 264.41C147.88 266.29 143.67 266.97 144.57 268.85H144.56Z" fill="#AFB99B"/>
<path d="M119.17 298.68C124.07 295.57 135.63 299.55 137.27 304.93C137.59 305.99 138.38 307.14 137.46 308.18C136.43 309.34 134.92 309.04 133.77 308.6C131.82 307.86 130.01 306.72 128.14 305.75C124 304.86 121.74 301.57 119.18 298.68H119.17Z" fill="#2A2521"/>
<path d="M106.16 330.89C105.81 331.55 105.45 332.22 105.1 332.88C104.85 337.68 101.17 334.6 99.1899 335.45C99.4799 333.57 99.7701 331.7 100.06 329.82C102.16 329.81 103.93 331.64 106.16 330.89Z" fill="#7A6F53"/>
<path d="M100.11 329.86C97.26 331.05 94.57 330.91 92.1 328.9C95.03 327.08 97.7 327.37 100.11 329.86Z" fill="#7A6F53"/>
<path d="M146.33 213.85C143.3 212.27 143.78 215.37 142.94 216.52C142.1 217.67 141.43 218.15 140.15 217.23C138.73 216.21 139.29 215.4 140.24 214.45C143.38 211.3 146.48 208.12 149.58 204.94C150.18 204.32 150.86 203.62 151.67 204.16C152.68 204.83 152.23 205.94 151.99 206.9C149.57 208.78 149.31 212.43 146.33 213.86V213.85Z" fill="#74938C"/>
<path d="M133.06 208.88C136.03 208.06 136.76 211.03 138.55 212.18C139.2 212.6 138.96 213.4 138.39 213.83C137.92 214.19 136.93 214.68 136.79 214.53C135.22 212.85 131.55 212.45 133.14 208.78L133.06 208.87V208.88Z" fill="#AFC4B7"/>
<path d="M120.47 200.03C119.97 201.21 120.17 202.66 118.58 201.98C117.02 201.32 115.68 200.37 115.77 198.42C115.81 197.62 116.13 196.45 117.1 196.92C118.53 197.61 120.39 198.21 120.47 200.03Z" fill="#C3DAC8"/>
<path d="M114.61 196.2C114.14 197.03 114.41 198.7 113.29 198.49C111.96 198.24 110.37 197.38 109.69 196.29C109.21 195.52 110.4 194.35 111.77 194.29C113.22 194.23 114.32 194.6 114.61 196.21V196.2Z" fill="#ADC5C1"/>
<path d="M133.14 208.78C130.32 211 128.85 209.84 128.15 206.78L128.06 206.88C130.73 205.03 132.47 205.51 133.06 208.88L133.14 208.79V208.78Z" fill="#B1C3B4"/>
<path d="M124.33 202.99C127.1 202.82 128.78 203.7 128.07 206.88L128.16 206.78C124.6 207.83 123.7 206.17 124.3 202.99H124.34H124.33Z" fill="#B1C3B4"/>
<path d="M166.02 190.41C166.56 190.93 167.36 191.39 166.44 192.23C165.46 193.12 164.42 193.68 163.14 192.78C161.62 188.98 163.93 189.82 166.02 190.4V190.41Z" fill="#B4B8A7"/>
<path d="M124.33 202.99H124.29C123.24 203.36 122.08 204.88 121.17 203.03C120.73 202.15 121.26 200.89 122.34 200.79C123.62 200.67 125.05 201 124.33 202.98V202.99Z" fill="#C4D7C7"/>
<path d="M53.0699 32.85C56.0099 36.34 56.2 40.86 57.63 44.92C54.29 41.58 54.0499 37.08 53.0699 32.85Z" fill="#2A4A30"/>
<path d="M99.45 37.96C96.74 34.74 96.4799 30.77 96.0699 26.84C98.3099 30.21 98.61 34.16 99.45 37.96Z" fill="#1E3B24"/>
<path d="M90.99 29.62C91.75 32.82 92.51 36.02 93.27 39.23C91.68 36.17 90 33.15 90.99 29.62Z" fill="#26482D"/>
<path d="M82.29 23.72C84.14 26.24 84.84 29.09 84.85 32.13C83.54 29.53 82.2 26.94 81.99 23.98L82.29 23.72Z" fill="#2E422E"/>
<path d="M99.1899 335.45C100.37 333.07 100.46 333.16 103.41 334.64C104.09 334.98 103.73 332.76 105.09 332.88C106.19 335 107.04 332.83 108.01 332.71C112.85 335.5 117.75 332.76 122.52 332.48C127.85 332.17 132.68 328.98 136.87 325.61C138.36 324.41 139.37 324.55 140.78 324.82C141.37 325.11 141.48 325.53 141.1 326.07C140.33 327.91 144.02 332.69 137.87 330.98C137.78 332.58 137.62 333.78 135.81 334.82C132.28 336.85 127.13 337.25 125.02 339.22C120.13 343.78 120.57 339.17 119.45 336.84C117.61 338.48 120.76 340.76 118.35 341.64C116.95 342.15 115.3 341.9 115.05 339.75C115.02 339.52 114.71 339.33 114.53 339.12C113.32 344.14 109.68 339.7 107.44 340.89C106.83 341.21 105.54 341.13 105.1 340.69C104.01 339.61 103.76 337.4 101.57 340.05C100.84 340.94 98.89 338.91 99.02 336.93C99.07 336.43 99.12 335.93 99.17 335.43L99.1899 335.45Z" fill="#CDCBA7"/>
<path d="M72.41 67.3201C76.03 68.1101 79.32 67.9999 82.63 67.6499C84.34 67.4699 86.21 67.58 86.72 69.53C87.24 71.51 85.46 72.5799 84.01 73.1399C80.48 74.4999 76.8699 75.6599 73.2099 76.6299C70.9499 77.2299 68.5 77.31 66.78 75.23C65.44 73.61 65.9699 71.8899 66.8299 70.1499C68.0999 67.5999 70.45 67.6001 72.4 67.3201H72.41Z" fill="#2B2121"/>
<path d="M86.4 79.7901C82.06 82.9601 78.24 85.7801 74.39 88.5601C72.05 90.2501 69.29 90.44 66.81 89.49C65.49 88.98 65.73 86.8399 65.87 85.3799C66.17 82.3499 68.8199 81.72 70.9699 81.45C75.8999 80.83 80.64 77.8601 86.41 79.7901H86.4Z" fill="#181E1C"/>
<path d="M75.8499 55.56C80.5499 55.48 84.0999 59.14 84.0699 63.31C84.0599 64.8 83.2499 64.8301 82.2099 64.8601C79.5299 64.9301 76.88 64.6098 74.51 63.3798C72.53 62.3598 69.7799 61.3299 70.5999 58.4499C71.3299 55.8899 73.8999 55.5 75.8499 55.56Z" fill="#312120"/>
<path d="M98.09 79.0901C100.29 79.4401 101.92 80.6499 101.9 82.8899C101.88 85.0599 100.38 86.64 98.15 86.75C95.99 86.85 94.26 85.7601 94.11 83.3501C93.94 80.6501 95.91 79.7401 98.09 79.0901Z" fill="#29231E"/>
<path d="M102.16 70.08C101.98 72.29 100.9 73.94 98.65 74.08C96.33 74.23 95.08 72.7798 95.08 70.3898C95.08 67.9598 96.46 66.7799 98.73 66.7099C100.91 66.6399 101.94 67.98 102.15 70.08H102.16Z" fill="#2B1F1B"/>
<path d="M94.05 75.8799C93.81 78.1699 92.66 79.72 90.36 79.73C88.15 79.74 87.23 77.9801 87.21 76.0601C87.19 74.0301 87.7899 71.86 90.3199 71.9C92.5999 71.94 93.44 73.9502 94.04 75.8702L94.05 75.8799Z" fill="#231E18"/>
<path d="M108.36 77.6C108.16 79.62 107.33 80.9799 105.31 80.9499C103.28 80.9199 103.06 79.37 103.1 77.8C103.15 75.82 104.26 74.7098 106.17 74.6598C108.26 74.6098 108.37 76.19 108.36 77.6Z" fill="#241C1A"/>
<path d="M141.11 326.07C141 325.65 140.9 325.24 140.79 324.82C141.11 318.45 146.23 314.2 148.03 308.49C150.39 308.89 154.72 308.19 150.34 312.44C149.47 313.28 149.83 313.75 150.25 314.48C151.19 316.12 151.77 317.53 148.91 317.86C147.36 318.04 146.49 319.03 147.97 320.59C148.69 321.35 147.92 322.75 147.83 322.69C143.71 320.18 146.12 330.64 141.11 326.07Z" fill="#C1DBC7"/>
<path d="M148.04 306.67C148.18 302.77 148.82 298.91 148.23 294.97C147.98 293.28 147.54 291.29 149.15 289.81C151.67 291.64 156.71 292.4 152.29 297.19C156.95 299.35 149.82 302.85 153.19 305.34C153.71 305.73 152.84 307.11 151.93 307.69C150.25 308.75 149.21 307.51 148.04 306.67Z" fill="#ADC6B2"/>
<path d="M148.98 286.22C146.77 282.27 145.66 278.07 146.13 273.51C147.63 273.27 149.38 272.25 150.02 274.73C150.7 277.39 151.19 280.1 152.07 282.69C152.77 284.76 151.03 284.91 150.16 285.78C149.86 286.17 149.48 286.33 148.99 286.22H148.98Z" fill="#98B9A0"/>
<path d="M148.98 286.22C149.37 286.07 149.76 285.93 150.15 285.78C152.06 285.57 153.15 286.69 152.98 288.34C152.71 291.01 150.37 289.32 149.03 289.84C149.01 288.63 148.99 287.43 148.98 286.22Z" fill="#BFE3D0"/>
<path d="M63.13 384.92C63.13 384.53 63.12 384.15 63.11 383.76C65.63 377.67 68.04 383.87 70.53 383.77C68.17 385.02 65.94 386.96 63.12 384.91L63.13 384.92Z" fill="#4B5F56"/>
<path d="M145.08 182.98C146.5 181.71 147.95 180.5 149.48 182.81C150.25 183.97 149.3 184.92 148.57 185.26C146.32 186.29 145.19 185.26 145.15 182.89L145.08 182.99V182.98Z" fill="#CBD5C7"/>
<path d="M169.13 198.87C168.88 198.27 168.33 197.6 168.45 197.08C168.77 195.61 164.98 195.99 167.08 193.96C168.48 192.61 170.06 193.02 171.47 194.02C173.54 195.48 171.44 196.48 170.99 197.65C170.65 198.53 169.97 198.86 169.06 198.81L169.13 198.87Z" fill="#ACB5A3"/>
<path d="M176.82 199.63C175.96 200.56 176.14 202.8 174.56 202.39C173.48 202.12 171.83 200.9 172.29 199.01C172.56 197.9 172.92 196.51 174.44 196.85C175.74 197.14 176.76 198.06 176.83 199.63H176.82Z" fill="#CDC8A6"/>
<path d="M182.79 205.02C182.2 205.99 181.99 207.45 180.61 207.42C180.03 207.41 179.02 206.69 179.28 205.64C179.58 204.44 180.44 203.47 181.57 203.28C182.28 203.16 182.99 204 182.79 205.02Z" fill="#D3D4C2"/>
<path d="M119.07 287.82L121.95 285.78C124.92 284.58 127.82 284.03 130.36 286.73C134.31 286.86 140.05 286.67 139.59 291.49C139.12 296.39 133.38 294.62 129.66 294.29C125.61 293.94 121.35 294.02 118.15 290.77C116.86 289.29 118.06 288.58 119.07 287.82Z" fill="#232523"/>
<path d="M130.36 286.73C127.56 286.41 124.75 286.1 121.95 285.78C125.65 282.68 129.91 280.57 134.33 278.75C136.07 278.03 138.26 276.5 139.32 279.32C140.23 281.74 138.48 283.17 136.39 284.25C134.67 285.14 132.81 284.73 131.06 285.16C130.12 285.39 130.36 286.11 130.36 286.73Z" fill="#312B24"/>
<path d="M119.07 287.82C118.76 288.8 118.45 289.79 118.15 290.77C117.46 290.46 116.76 290.15 116.07 289.85C112.87 288.74 113.81 286.82 115.09 284.83C115.84 286.59 117.23 287.51 119.08 287.82H119.07Z" fill="#755E49"/>
<path d="M106.43 283.28C107.88 285.61 113.02 283.92 112.01 288.64C111.6 290.52 110.15 291.47 108.31 290.79C104.28 289.3 106.05 286.15 106.44 283.28H106.43Z" fill="#F6A975"/>
</svg>
