<svg width="219" height="432" viewBox="0 0 219 432" fill="none" xmlns="http://www.w3.org/2000/svg">
<path d="M105.13 172.9C104.53 166.83 103.62 160.78 103.39 154.69C103.07 146.23 103.35 137.75 103.17 129.28C103.12 126.78 103.68 125.11 106.2 124.42C106.92 122.2 109.24 122.17 110.79 121.09C116.22 117.3 122.63 114.54 124.85 107.46C126.11 104.4 130.32 104.49 132.05 100.69C122.38 101.01 113.96 98.42 105.88 93.97C107.99 99.79 112.32 102.79 117.69 104.76C119.68 105.49 122.63 105.29 122.66 108.65C116.55 112.89 109.89 115.13 102.37 114.3C102.02 112.87 101.38 111.45 101.36 110.02C101.26 98.45 101.27 86.8801 101.25 75.3101C101.25 74.1401 101.27 72.98 102.26 72.12C103.75 72.17 104.66 73.17 105.51 74.19C110.82 80.65 117.89 83.4201 126 84.0501C129.96 84.3601 133.53 83.52 136.44 80.58C135.79 78.85 134.42 79.54 133.41 79.49C121.23 78.8 111.81 72.6 103.35 64.5C102.25 63.45 101.91 61.9 101.25 60.57C99.47 53.21 99.2 45.72 99.26 38.19C99.27 36.39 99.09 34.5901 99 32.7901C99.13 31.9401 99.68 31.45 100.42 31.1C101.16 30.8 101.93 30.72 102.72 30.7C103.24 30.68 103.76 30.7 104.29 30.74C107.99 32.17 111.95 31.0801 115.71 31.9201C117.17 32.6601 119.12 33.29 118.06 35.47C117.28 37.09 115.58 36.85 114.06 36.5C113.09 36.28 112.13 35.97 111.13 35.89C109.18 35.74 108.38 36.4201 108.86 38.5301C110.39 45.1901 123.23 57.28 130.06 58.37C130.87 58.5 131.7 58.6201 132.83 58.0501C130.35 51.3701 126.17 45.61 122.63 39.51C121.59 37.73 119.69 36.0901 121.22 33.6601C123.13 32.1201 125.49 32.9201 127.6 32.4201C128.55 32.2501 129.49 32.3401 130.42 32.5301C131.32 32.5301 132.22 32.5901 133.12 32.6501C133.56 32.6501 134.01 32.6501 134.45 32.6501C135.34 32.6501 136.22 32.6501 137.11 32.6501C137.56 32.6301 138 32.64 138.45 32.63C139.35 32.57 140.24 32.59 141.14 32.63C141.59 32.63 142.04 32.63 142.5 32.63C143.41 32.55 144.31 32.6 145.22 32.63C145.9 32.63 146.58 32.63 147.26 32.63C148.17 32.63 149.08 32.63 149.98 32.63C150.43 32.62 150.89 32.62 151.34 32.63C152.25 32.59 153.16 32.56 154.07 32.63C154.53 32.63 154.98 32.63 155.44 32.63C156.36 32.55 157.28 32.6 158.21 32.63C158.68 32.63 159.15 32.63 159.62 32.63C160.82 32.63 162.02 32.53 163.22 32.61C163.72 32.61 164.22 32.6 164.71 32.58C165.74 32.42 166.76 32.61 167.79 32.6C169.91 32.74 172.11 32.26 174.07 33.48C175.49 34.48 175.6 36.2 176.31 37.59C178.81 49.07 187.59 53 197.68 55.32C199.73 55.79 202.02 55.41 203.7 57.13C206.23 63.67 205.28 70.34 204.43 77C201.08 80.19 196.21 80.54 190.71 77.95C182.18 73.93 176.16 66.99 170.13 60.11C167.73 57.38 165.8 54.27 163.72 51.07C164.84 59.94 166.98 68.0501 174.06 74.1701C180.99 80.1501 188.73 83.1401 197.89 82.1701C199.54 81.9901 201.19 81.6301 202.8 82.4301C204.67 83.7201 204.91 85.71 205.07 87.71C206.28 102.93 206.38 118.17 206.09 133.42C205.84 146.67 205.89 159.92 208 173.07C208.41 175.63 209.27 178.31 207.66 180.81C204.3 182.42 202.44 179.95 200.64 177.97C195.56 172.37 192.19 165.89 191.19 158.3C191.05 154.42 191.69 150.62 192.27 147.62C191.66 149.3 191.33 151.92 190.41 154.37C189.35 158.2 188.69 162.09 188.93 166.08C189.4 174.03 193.65 178.87 201.49 180.17C203.29 180.47 204.84 181.6 206.72 181.53C208.08 181.41 209.03 182.14 209.35 183.3C210.56 187.67 212.63 191.89 211.78 196.64C209.69 198.98 206.68 196.85 204.37 198.16C189.82 198.26 179.41 190.98 171.49 179.48C170.01 177.33 168.96 174.86 167.71 172.53C167.28 171.49 167.41 170.28 166.83 168.93C164.99 170.77 164.64 172.75 164.65 174.94C164.65 177.36 165.66 180.61 163.12 181.77C160.54 182.95 159.86 179.09 158.1 178.38C167.26 187.71 173.3 206.16 170.95 218.08C170.73 219.22 170.61 220.39 170.06 221.44C169.58 222.34 168.92 223.21 167.8 223.06C166.56 222.9 166.21 221.79 166.44 220.8C167 218.4 165.26 221.13 165.2 220.21C163.9 219.22 163.84 217.59 163.12 216.3C160.47 211.55 155.34 211.51 152.5 216.21C151.14 218.45 150.8 220.86 151.32 223.39C152.23 227.79 154.32 229.01 158.61 227.61C159.74 227.24 160.83 226.96 161.99 227.45C165.3 229.78 164.99 233.13 164.28 236.41C162.83 243.05 160.84 249.71 157.48 255.47C154.12 261.23 154.29 267.38 153 273.37C152.62 275.12 152.88 277 152.3 278.75C148.59 286.16 143.93 293.09 142.44 301.54C141.37 307.6 142.55 313.15 144.83 318.58C146.16 321.73 147.74 321.76 149.8 318.79C152.86 314.38 153.65 309.29 153.79 304.05C153.84 302.08 153.42 300.03 154.7 298.24C158.24 297.31 157.55 300.35 157.57 301.83C157.59 304.62 158.91 305.29 161.55 305.01C157.83 304.4 157.52 301.74 158.04 299.09C159.27 292.77 158.25 287 154.67 281.66C153.24 279.53 154 277.51 155.21 275.61C156.33 273.86 157.78 273 159.78 274.42C162.84 278.74 164.13 283.98 167.33 288.31C170.89 293.13 174.84 297.12 180.6 299.09C184.56 302.13 184.94 303.38 182.23 307.09C180.12 309.98 178.26 313.19 174.88 314.92C167.97 316.57 166.62 318.35 167.79 324.31C166.34 329.26 162.37 332.55 159.66 336.67C157.02 340.68 154.23 344.61 151.28 348.39C149.09 351.19 147.48 350.59 146.85 347.15C146.6 344.67 147.54 342.3 147.61 339.21C144.09 344.84 144.94 350.65 144.56 356.24C143.35 359.98 141.88 363.48 137.47 364.46C133.17 362.8 132.36 358.51 130.71 355.02C127.94 349.19 127.15 342.81 126.09 337.69C125.32 340.29 123.31 343.9 122.61 348.06C121.23 356.2 123.6 362.48 130.94 366.65C131.94 367.22 133.01 367.76 133.66 368.8C134.01 369.59 134.18 370.49 133.71 371.17C129.74 376.88 126.15 383.01 119.07 385.57C114.49 381.38 112.58 375.88 112.42 369.95C112.32 366.02 110.74 362.08 112.33 357.82C111.64 359.26 111.46 360.54 110.89 361.68C106.62 370.21 106.06 378.8 110.26 387.57C111.18 389.49 112.01 391.54 112.09 393.76C110.88 397.69 108.56 400.5 104.36 401.39C97.51 394.19 93.0999 386 93.8199 376.17C88.6799 387.39 84.01 399.11 93.66 411C90.9 417.08 85.39 419.15 79.51 420.67C76.87 419.76 75.19 417.65 73.54 415.62C69.16 410.24 65.17 404.55 60.35 399.52C59.43 398.56 58.72 397.43 58.77 396C59.65 393.59 60.68 391.27 63.85 391.55C64.62 391.62 64.78 391.51 65.2 390.86C68.27 386.06 72.33 383.65 79.01 386.88C77.36 383.2 75.7 381.3 73.01 380.09C69.33 378.43 68.83 376.52 71.9 374.46C76.16 371.61 77.35 367.56 77.77 363C78.17 358.69 80.13 355.12 82.55 351.7C84.58 349.18 83.4801 347.01 81.5601 345.22C78.3201 342.21 74.91 339.37 69.97 340.17C68.52 338.37 64.36 337.67 67.72 333.91C68.39 333.16 66.89 331.53 66.36 330.33C63.2 323.12 61.47 315.69 62.2 308.8C62 309.34 61.39 310.88 60.62 312.36C57.06 319.2 56.2 326.26 58.97 333.6C59.49 334.99 60.12 336.38 59.95 337.95C59.58 340.08 57.53 339.81 56.64 340.31C60.58 340.87 61.4 344.86 62.92 347.68C63.92 349.54 63.87 352.16 64.04 354.48C64.23 356.99 63.49 359.28 61.09 360.27C58.64 361.28 56.55 359.97 55 358.07C49.72 351.61 44.3401 345.19 43.5601 336.36C42.3701 336.46 45.11 333.29 42.24 334.8C40.29 334.9 38.77 333.98 39.01 332.06C39.34 329.4 37.98 327.33 37.36 325.01C48.56 311.26 59.89 297.62 70.91 283.73C75.95 277.38 80.4 270.55 85.12 263.94C86.13 264.25 86.72 265.06 87.41 265.78C93.68 272.25 101.25 273.13 110.01 268.09C103.31 263.12 93.96 261.35 91.38 252.07C92.93 246.16 95.35 240.76 100.3 236.83C104.75 239.21 105.61 244.49 109.03 247.72C109.71 248.36 109.93 249.52 110.73 250.12C112.45 251.43 114.52 253.07 116.48 251.41C118.17 249.98 116.52 248.03 115.68 246.51C112.65 240.98 108.81 236.01 104.76 231.19C103.25 229.39 101.77 227.64 102.16 225.06C101.38 223.36 100.99 221.63 101.82 219.82C103.61 215.93 103.16 211.76 103.38 207.67C106.06 207.7 106.83 209.63 107.73 211.7C110.21 217.41 113.64 222.42 119 225.88C123.4 228.72 127.94 229.17 132.66 226.76C133.81 226.17 135.46 225.87 135.5 224.32C135.54 223.06 134.08 222.63 133.14 221.99C132.59 221.62 133.31 222.02 132.71 221.74C125.87 218.5 118.87 215.53 112.92 210.68C112.46 210.57 112 210.49 111.54 210.44C108.23 210.19 105.73 208.39 103.39 206.25C103.35 201.45 103.3 196.65 103.28 191.85C103.28 190.2 103.08 188.43 105.22 187.8C107.97 186.72 108.56 189.24 109.76 190.6C116.03 197.69 122.86 203.8 132.81 205.04C135.33 205.36 137.76 205.43 140.74 204.08C130.62 199.61 122.26 193.18 114.5 186.09C110.52 182.46 105.41 179.22 105.11 172.82L105.13 172.9Z" fill="#F7D6B8"/>
<path d="M79.3 420.04C67.2 428.39 54.0099 432.47 39.2099 430.35C37.9199 430.16 36.59 430.24 35.27 430.19C34.81 430.69 34.2499 431.03 33.5699 431.1C27.1399 431.76 16.1399 425.93 13.1899 420.31C-4.2201 402.42 -2.13 383.49 7.54 362.34C7.77 361.83 8.56994 361.57 9.09994 361.2C13.3299 360.88 16.6999 363.2 20.1999 364.97C28.9499 369.4 37.0599 374.83 44.7199 380.94C48.5699 383.86 51.9699 387.31 55.8599 390.19C57.4799 391.86 59.45 393.33 59.28 396.04C65.95 404.04 72.62 412.04 79.29 420.04H79.3Z" fill="#096272"/>
<path d="M44.63 382.42C33.45 374.24 21.8 366.85 9.10999 361.2C9.93999 356.28 13.5 352.96 16.15 349.12C20.57 346.78 25.84 345.99 29.64 342.13C27.88 340.55 25.22 342.16 24.26 339.75C29.37 335.52 32.97 329.94 37.38 325.07C39.49 326.87 42.5499 328.09 40.1899 331.97C39.1899 333.61 41.26 333.81 42.45 334.13C42.81 338.34 40.75 342.12 40.29 346.22C38.69 360.61 53.07 374.49 67.42 372.18C68.06 372.08 68.7499 371.98 69.3199 370.95C64.0799 368.36 58.48 366.31 54.03 362.32C53.64 362.01 53.3 361.66 52.97 361.28C47.52 355.83 43.32 349.7 42.54 341.75C42.33 339.62 41.96 337.44 44.24 336.05C48.04 337.77 44.27 342.15 47.11 344.28C47.51 344.58 47.1799 345.89 47.5699 346.13C52.0599 348.91 52.91 354.37 56.34 357.9C58.55 360.18 62.97 359.33 62.61 356.62C62.16 353.22 64.18 348.48 59.13 346.5C58.8 346.37 58.44 345.69 58.49 345.32C59.46 336.72 55.28 343.73 53.1 343.63C54.06 340.38 57.08 339.63 59.28 338.03C62.78 336.86 61.6899 340.2 62.6899 341.49C63.5999 344.22 66.07 345.73 67.72 347.88C67.99 348.85 67.63 350.68 69.65 349.26C71.7 349.33 73.47 349.97 74.74 351.66C76.05 354.76 74.16 356.26 71.8 357.51C70.54 358.18 69.58 359 69.98 360.63C70.24 361.67 70.84 362.5 71.91 362.67C73.48 362.92 74.16 361.58 75.09 360.67C77.75 358.07 76.27 353.82 78.91 351.23C80.53 350.63 82.04 350.62 83.28 352.04C80.6 357 79.19 362.32 78.41 367.9C77.94 371.3 76.41 374.19 72.75 375.4C71.84 375.7 70.8 376.55 71.01 377.59C71.3 379.06 72.59 378.86 73.83 378.76C75.14 378.65 81.67 385.55 81.03 386.22C79.42 387.9 77.54 389.45 74.92 387.28C70.89 383.94 69.71 389.15 67.16 390.2C64.02 391.49 67.74 393.01 67.29 395.07C63.83 390.6 61.56 393.31 59.3 396.04C57.87 394.43 56.44 392.83 55.02 391.22C55.72 388.91 57.8301 388.66 59.6801 388.08C62.1601 387.31 64.64 386.58 67.1 384.22C61.14 383.21 55.86 382.49 50.47 382.92C48.49 383.08 46.52 383.29 44.64 382.42H44.63Z" fill="#FADFC4"/>
<path d="M138.38 33.9C137.95 33.88 137.53 33.85 137.1 33.83C134.37 32.55 134.77 30.02 134.82 27.76C135.01 19.12 133.97 10.57 133.19 2.01001C133.02 1.44001 133.03 0.869998 133.23 0.309998C158.18 0.239998 183.14 0.169976 208.09 0.0999756C208.92 0.0999756 209.76 0.130007 210.17 1.07001C206.78 3.06001 205.96 6.11999 206.08 9.85999C206.24 15.12 206.37 20.41 205.96 25.67C205.79 27.81 205.94 30.62 202.4 30.42C200.31 28.33 201.39 25.69 201.3 23.31C201.12 18.82 201.25 14.33 201.25 9.84003C201.24 15.88 201.29 21.93 201.22 27.97C201.2 29.43 201.35 31.34 199.26 31.37C197.14 31.4 197.29 29.49 197.28 28.02C197.21 21.37 197.26 14.71 197.25 8.04999C197.25 14.65 197.25 21.25 197.25 27.85C197.25 30.03 197.36 32.23 195.29 33.73C193.59 34.6 191.91 34.6 190.25 33.63C188.51 32.13 188.76 30.07 188.75 28.1C188.74 21.54 188.75 14.99 188.75 8.42999C188.75 14.89 188.76 21.36 188.75 27.82C188.75 29.62 189.01 31.51 187.6 33.01C187.13 33.37 186.62 33.4199 186.08 33.1899C184.4 31.6099 184.78 29.52 184.77 27.56C184.74 21.07 184.76 14.57 184.76 8.08002C184.76 14.71 184.79 21.34 184.74 27.97C184.73 29.8 184.77 32.2201 182.47 32.3101C179.77 32.4201 179.81 29.84 179.79 27.87C179.73 21.54 179.77 15.22 179.77 10.39C179.49 17.33 180.21 25.78 179.45 34.22C178.44 34.97 177.39 35.01 176.31 34.42C175.11 27.56 176.07 20.63 175.78 13.74C175.68 11.34 175.87 8.92999 175.72 7.10999C175.85 14.46 175.74 22.3899 175.77 30.3199C175.77 31.5099 175.55 32.62 174.94 33.64C174.74 33.82 174.54 34.0099 174.34 34.1899C172 34.0899 169.67 33.99 167.33 33.89C165.51 32.41 165.77 30.35 165.77 28.36C165.77 20.71 165.76 13.05 165.77 5.40002C165.74 13.05 165.77 20.69 165.75 28.34C165.75 30.31 166.08 32.39 164.3 33.91H163.17C161.22 32.37 161.25 30.2 161.25 28.02C161.25 21.57 161.25 15.13 161.25 8.67999C161.25 15.52 161.25 22.36 161.25 29.21C161.25 31.01 161.63 32.95 159.42 33.88C159.02 33.91 158.63 33.94 158.23 33.97C156.65 32.59 156.74 30.74 156.75 28.89C156.76 21.23 156.75 13.57 156.75 8.96997C156.71 13.39 156.78 20.86 156.75 28.34C156.75 30.31 157.08 32.3899 155.33 33.9399L154.16 33.99C152.18 32.02 152.29 29.47 152.27 26.99C152.22 20.83 152.25 14.68 152.25 9.81C152.41 15.79 151.95 23.07 152.47 30.34C152.57 31.78 152.34 32.97 151.32 33.98C150.9 33.98 150.48 33.98 150.06 33.97C147.06 31.45 148.03 27.86 147.84 24.74C147.51 19.27 147.75 13.77 147.75 9.28998C147.97 15.6 147.32 22.93 148.21 30.24C148.37 31.54 148.36 32.92 147.31 33.99C146.62 33.99 145.94 34 145.25 34.01C142.75 31.05 143.56 27.38 143.34 24.02C143.01 18.9 143.25 13.74 143.25 9.71002C143.54 15.34 142.77 22.1 143.69 28.83C143.93 30.63 143.93 32.51 142.37 33.91C141.96 33.89 141.56 33.88 141.15 33.86C139.29 32.24 139.42 29.9 139.36 27.85C139.14 20.57 139.2 13.27 139.27 8.65002C139.3 13.6 139.05 21.21 139.43 28.81C139.52 30.68 139.92 32.43 138.37 33.88L138.38 33.9Z" fill="#29979B"/>
<path d="M116.16 33.17C111.87 32.78 107.45 33.6799 103.32 31.8199C100.81 21.2899 100.85 10.75 103.3 0.210022C111.29 0.230022 119.28 0.25002 127.27 0.27002C127.53 0.64002 127.56 1.01998 127.31 1.41998C126.87 1.89998 126.34 2.26001 125.78 2.57001C124.96 3.19001 124.81 4.08003 124.77 5.03003C124.71 12.83 124.74 20.61 124.76 28.39C124.76 31.36 124.12 33.65 120.63 33.92C119.04 34.25 117.62 33.64 116.17 33.16L116.16 33.17Z" fill="#116B72"/>
<path d="M105.13 172.9C110.36 181.43 118.27 187.26 125.84 193.44C131.09 197.72 137.17 200.63 143.89 204.29C135.8 208.82 128.8 206.8 122.26 203.36C116.06 200.1 110.99 195.25 107.17 189.27C106.67 188.48 106.02 188.15 105.24 187.87C104.72 185.43 106.35 183.08 104.66 180.32C103.59 178.57 103.45 175.28 105.13 172.89V172.9Z" fill="#328882"/>
<path d="M101.23 60.59C108.24 67.3 115.47 73.64 125.09 76.52C128.83 77.64 132.55 77.95 136.37 77.66C137.5 77.57 138.82 77.05 139.18 78.71C139.43 79.86 139.18 80.93 138.2 81.85C135.1 84.75 131.21 85.79 127.24 85.71C116.67 85.48 107.98 81.44 102.25 72.14C101.15 68.36 100.88 64.5 101.23 60.59Z" fill="#258684"/>
<path d="M103.42 206.32C106.51 206.76 108.91 209.41 112.24 209.09C113.16 210.64 112.27 213.15 114.48 213.63C113.25 212.61 111.77 211.34 113.37 209.16C119.93 215.08 128.36 217.64 135.93 221.75C138.63 223.22 140.34 224.39 136.14 226.79C125.71 232.75 119.33 229.94 112.98 222.72C109.81 219.12 106.36 215.35 105.67 210.08C105.56 209.21 104.2 208.51 103.41 207.73C103.41 207.26 103.41 206.79 103.42 206.32Z" fill="#D3514D"/>
<path d="M91.4 252.13C96.15 258.71 102.85 262.67 110.06 265.92C111.22 266.44 112.96 266.69 112.96 268.18C112.96 269.98 111.01 270.33 109.71 270.79C102.28 273.44 94.93 274.75 88.16 268.95C86.57 267.59 85.35 266.14 85.13 264.01C87.22 260.05 89.3 256.09 91.39 252.14L91.4 252.13Z" fill="#D7584F"/>
<path d="M102.18 225.12C106.56 231.53 112.06 237.11 115.96 243.88C116.21 244.31 116.69 244.66 116.79 245.11C117.44 247.97 121.79 250.74 117.44 253.74C114.83 255.54 110.15 252.03 107.78 248.66C105.1 244.83 102.74 240.86 100.31 236.89C99.45 235.03 98.6499 233.2 100.96 231.72C101.86 231.15 102.25 230.97 101.03 229.78C99.71 228.49 100.85 226.48 102.17 225.12H102.18Z" fill="#3A8B84"/>
<path d="M102.36 114.32C108.99 112.4 115.81 111.08 122.18 108.3C123.06 107.2 123.99 107.26 124.96 108.17C125.42 108.73 127.73 108.02 126.47 109.6C121.07 116.35 114.76 121.96 106.19 124.44C103.61 124.56 102.15 123.68 102.41 120.75C102.59 118.63 102.39 116.48 102.36 114.34V114.32Z" fill="#2F8582"/>
<path d="M102.29 31.92C101.62 31.96 100.96 32 100.29 32.04C98.3 29.34 99.4399 26.24 99.3199 23.34C99.1199 18.58 99.26 13.81 99.27 9.03996C99.25 15.53 99.32 22.02 99.23 28.51C99.21 30.38 99.65 32.84 96.33 32.28C93.01 31.51 92.55 28.96 92.55 26.15C92.56 20.51 92.55 14.88 92.66 9.23997C92.82 1.59997 94.55 0.0300033 102.24 0.210003C103.11 10.78 103.05 21.35 102.28 31.92H102.29Z" fill="#055359"/>
<path d="M202.34 30C204.86 29.6 204.19 27.59 204.21 26.07C204.29 19.75 204.56 13.41 204.18 7.10999C203.9 2.39999 205.25 0.190012 210.18 1.07001C210.26 2.06001 210.35 3.04003 210.43 4.03003C210.3 10.51 210.19 16.99 210.04 23.48C209.88 30.61 209.59 30.88 202.32 31.22C202.02 30.81 202.03 30.4 202.34 30Z" fill="#0A6E75"/>
<path d="M133.24 0.309998C133.23 0.579998 133.24 0.849995 133.25 1.12C133.22 1.36 133.18 1.60998 133.15 1.84998C133.03 2.33998 132.92 2.83002 132.84 3.33002C132.94 9.05002 131.99 14.81 133.56 20.47C133.98 23.72 133.4 27.03 134.29 30.26C134.66 31.61 134.26 32.8501 133.18 33.8101C132.24 33.7901 131.31 33.76 130.37 33.74C128.96 32.51 127.83 31.15 127.86 29.12C127.99 20.04 127.27 10.95 128.27 1.88C128.51 1.29 128.85 0.780027 129.31 0.340027C130.62 0.340027 131.94 0.319998 133.25 0.309998H133.24Z" fill="#08555F"/>
<path d="M24.26 339.75C25.9 339.68 27.55 339.68 29.17 339.49C30.18 339.37 31.2601 339.13 31.9301 339.95C32.7301 340.92 31.7999 341.78 31.3199 342.6C29.3699 345.95 20.41 349.78 16.15 349.11C19.22 346.31 20.88 342.28 24.26 339.75Z" fill="#DB5F59"/>
<path d="M96.34 32.27C99 31.66 98.2 29.51 98.21 27.83C98.25 20.7 98.16 13.56 98.23 6.42999C98.24 4.89999 97.61 3.15998 100.29 0.539978C100.29 11.89 100.29 21.96 100.29 32.04C99.85 32.3 99.42 32.5599 98.98 32.8199C98.03 32.9799 97.05 33.26 96.34 32.27Z" fill="#339AA0"/>
<path d="M102.29 31.92C102.28 21.35 102.26 10.78 102.25 0.210022C102.6 0.210022 102.95 0.21998 103.3 0.22998C103.3 10.77 103.32 21.3 103.32 31.84C102.98 31.87 102.63 31.9001 102.29 31.9301V31.92Z" fill="#47BABD"/>
<path d="M129.3 0.330017C129.3 0.620017 129.26 0.910002 129.17 1.19C128.29 3.87 129.02 6.63003 128.73 9.34003C128.62 10.41 128.69 11.89 126.83 10.86C125.32 7.53999 125.13 4.26999 127.26 1.10999C127.27 0.839985 127.27 0.559978 127.26 0.289978C127.94 0.309978 128.62 0.320027 129.29 0.340027L129.3 0.330017Z" fill="#29979B"/>
<path d="M199.38 286.94C197.69 288.76 195.83 290.46 194.35 292.44C192.94 294.33 192.23 292.28 191.2 292.18C189.68 293.56 187.83 293.73 186.05 293.14C178.94 290.79 172.56 287.1 168.97 280.35C164.89 272.69 162.63 264.33 161.76 255.83C161.14 261.05 159.83 266.4 160.37 271.92C160.48 273.09 160.31 274.26 159.2 275.02C156.3 275.5 154.03 278.93 155.63 280.78C160.32 286.2 160.54 292.36 159.57 298.98C159.39 300.18 156.6 305.09 162.51 302.47C164.03 301.8 162.99 305.42 164.82 306.33C162.17 307.28 159.96 305.99 157.68 306.88C155.62 307.69 156.42 305.64 156.29 304.75C155.97 302.51 156.9 300.11 155.41 298.01C151.97 292.28 148.96 286.45 151.05 279.43C150.17 273.07 151.22 266.16 153.01 260.86C154.9 255.28 157.92 249.45 160.33 243.69C161.66 240.51 162.47 237.07 163.18 233.67C163.63 231.49 163.04 229.35 160.98 227.96C160.43 224.21 162.23 221.77 165.36 220.07C165.82 219.43 166.27 218.79 166.95 217.83C167.19 219.5 167.39 220.85 167.59 222.21C168.03 222.09 168.46 221.96 168.9 221.84C172.71 203.39 165.45 188.47 153.38 174.84C157.72 174.69 158.94 179.67 162.71 181.33C163.81 179.35 163.75 176.97 163.12 175.23C161.76 171.48 165.29 169.56 165.67 166.56C165.75 165.94 166.59 165.44 167.24 165.86C167.9 166.29 168.8 167.01 168.82 167.63C168.87 169.08 168.46 170.54 168.24 171.99C170.68 176.45 170.83 181.56 172.31 186.3C175.67 197.12 183.79 202.33 194.85 200C198.03 199.33 201.84 199.86 204.3 196.81C206.58 195.46 208.81 195.85 211.01 197C211.43 199.01 211.85 201.01 212.27 203.02C209.97 205.61 206.61 205.62 203.64 206.56C187.86 211.59 177.73 222.44 172.36 237.76C168.91 247.59 172.25 256.51 177.8 264.65C182.35 271.31 188.27 276.68 194.74 281.49C196.65 282.91 199.28 283.89 199.39 286.91L199.38 286.94Z" fill="#FBE2C9"/>
<path d="M136.1 118.38C135.21 127.97 131.48 136.39 129.15 145.13C128.42 147.86 128.06 150.99 126.43 153.67C124.52 156.8 122.36 159.67 119.92 162.38C118.45 164.01 116.57 166.02 114.61 165.51C112.39 164.93 113.58 162.11 113.18 160.28C111.29 151.62 114.73 144.48 118.5 137.02C122.54 129.03 127.73 122.64 136.09 118.39L136.1 118.38Z" fill="#378A81"/>
<path d="M120.46 280.69C116.79 285.65 113.75 289.85 109.63 292.8C102.37 297.99 96.77 304.65 91.25 311.47C88.89 314.38 85.9899 316.34 81.9499 316.05C78.9799 315.84 77.5899 314.91 78.9799 311.68C84.6599 298.49 93.03 288.12 107.51 284.07C111.46 282.96 115.46 281.99 120.46 280.69Z" fill="#29877D"/>
<path d="M159.19 275.03C157.6 266.84 159.74 259.05 161.53 250.02C164.04 255.92 163.58 261.23 165.2 266.05C167.3 272.32 168.31 279.33 173.52 283.86C178.49 288.19 183.7 292.85 191.2 292.18C189.17 295.43 187.99 299.71 182.61 298.71C181.9 298.58 180.96 299.68 180.12 300.21C173.33 298.74 169.45 293.65 165.48 288.58C162.31 284.53 160.87 279.73 159.2 275.02L159.19 275.03Z" fill="#30817F"/>
<path d="M175.88 107.78C164.03 123.88 160.75 142.15 155.12 159.9C143.41 141.78 153.96 114.22 175.88 107.78Z" fill="#348982"/>
<path d="M151.05 279.45C150.62 286.08 154.87 291.62 155.41 298.03C155.16 304.63 155.75 311.32 152.52 317.54C151.42 319.65 150.03 321.18 148.31 322.79C146.17 324.8 145.58 323.65 144.69 322.07C141.8 316.9 139.9 311.31 140.43 305.41C141.31 295.76 144.59 286.92 151.04 279.45H151.05Z" fill="#D35D4E"/>
<path d="M203.23 77.9399C203.58 80.0199 203.26 81.83 201.19 82.92C187.71 87.04 171.37 78.77 165.18 64.95C162.57 59.12 162.73 52.91 161.85 46.7C166.97 52.85 170.97 59.73 176.67 65.26C180.7 69.17 184.61 73.1399 189.69 75.8199C194.03 78.1099 198.53 78.4699 203.24 77.9399H203.23Z" fill="#32918A"/>
<path d="M44.24 336.07C42.46 344.7 46.31 351.49 51.59 357.67C52.53 358.77 53.52 359.84 54.36 361.04C53.73 361.63 52.79 361.44 52.12 361.92C52.8 361.47 53.75 361.67 54.32 360.97C59.34 364.88 64.91 367.72 70.99 369.62C71.8 369.87 73.24 369.73 73.12 371.18C73.02 372.36 71.84 372.51 70.95 372.9C64.37 375.76 51.4001 372.23 45.9301 366.08C37.5101 356.61 36.29 345.42 42.45 334.15C45 332.98 43.6 335.47 44.24 336.08V336.07Z" fill="#2A8B85"/>
<path d="M116.16 33.17C117.53 33.13 118.9 33.09 120.28 33.04C120.69 33.31 120.97 33.67 121.16 34.12C126.21 42.44 131.36 50.69 135.77 59.87C131.89 60.83 128.39 60.34 125.24 58.53C117.16 53.9 110.97 47.39 107.25 38.79C105.3 34.28 105.91 33.73 110.9 34.12C112.64 34.25 114.04 34.93 115.5 35.75C116.44 36.28 117.62 35.94 117.79 34.77C117.85 34.32 116.74 33.71 116.16 33.17Z" fill="#489489"/>
<path d="M104.3 400.77C101.14 404.9 97.73 408.75 93.06 411.25C86.35 405.44 85.4 398.63 87.51 389.76C89.03 383.38 91.37 377.65 95.02 371.85C93.46 383.12 98.86 391.95 104.3 400.77Z" fill="#D06753"/>
<path d="M130.33 308.04C128.67 314.3 126.08 320.12 122.07 325.26C121.66 325.78 121.41 326.45 120.95 326.91C119.11 328.72 117.51 331.97 114.58 330.69C111.54 329.37 113.08 326 113.4 323.55C114.63 314.2 120.24 306.93 125.27 299.42C127.94 295.43 130.83 291.57 135.45 287.51C133.83 294.71 132.46 300.82 131.09 306.92C130.91 307.22 130.67 307.42 130.37 307.44C129.79 307.49 129.23 307.37 128.67 307.25C129.21 307.54 129.89 307.52 130.32 308.03L130.33 308.04Z" fill="#23857E"/>
<path d="M204.29 196.84C208.37 198.67 204.46 199.27 203.68 199.54C187.67 205.01 174.59 203.95 169.53 182.31C168.75 178.96 168.65 175.45 168.23 172.01C170.41 172.51 170.43 174.6 171.29 176.1C178.61 188.84 189.35 196.19 204.29 196.84Z" fill="#2C827F"/>
<path d="M137.29 364.26C136.39 366.18 132.76 365.84 133.37 369C122.51 366.23 118.47 356.43 121.84 344.28C123.12 339.67 125.71 335.57 129.25 330.3C126.9 343.8 130.9 354.35 137.29 364.26Z" fill="#D46657"/>
<path d="M119.19 385.13C118.22 389.52 114.91 391.85 111.37 393.98C104.24 381.67 104.16 369.32 111.19 356.94C111.83 355.81 112.26 354.52 114.09 353.74C112.54 364.9 113.36 375.47 119.19 385.14V385.13Z" fill="#42958C"/>
<path d="M61.7099 342.59C59.8599 341.63 62.03 338.52 59.27 338.05C52.71 325.81 55.99 314.98 64.49 303.97C61.96 315.86 65.0299 325.77 70.6999 335.15C70.6099 336.19 69.77 335.68 69.25 335.81C68.62 335.96 67.99 336.06 66.8 336.28C68.54 337.31 70.88 337.27 70.3 339.74C68.13 342.78 65.2499 343.66 61.7099 342.6V342.59Z" fill="#2B8A81"/>
<path d="M200.45 112.89C195.41 113.73 191.8 110.84 188.28 108.22C184.71 105.57 181.53 102.4 178.2 99.43C176.95 98.32 175.42 97.03 176.39 95.22C177.48 93.17 179.08 91.34 181.72 91.24C186.16 91.06 197.93 99.6199 199.27 103.94C199.79 105.61 199.3 107.26 197.69 109.2C196.99 110.04 197.51 110.74 200.46 112.89H200.45Z" fill="#DE5146"/>
<path d="M130.79 272.3C128.05 272.14 125.02 274.87 122.62 271.01C121.1 268.55 119.56 266.14 119.56 263.31C119.56 257.75 126.02 251.92 131.55 252.13C135.15 252.27 139.37 258.55 139.18 263.47C138.98 268.77 135.3 272.66 130.79 272.3Z" fill="#F1BE73"/>
<path d="M202.45 55C202.43 55.65 202.41 56.31 202.39 56.96C190.06 58.28 178.11 50.0701 175.04 38.1601C174.43 35.7101 174.54 34.01 177.71 35.7C179.24 36.51 180.87 36.34 182.49 36.38C189.05 40.51 194.9 45.58 200.89 50.44C202.24 51.54 202.43 53.3 202.43 55H202.45Z" fill="#DD5344"/>
<path d="M137.43 141.22C137.14 148.71 140.1 154.7 139.63 161.64C139.31 166.3 140.97 171.88 142.56 176.82C143.35 179.28 142.61 180.93 140.8 181.86C138.64 182.97 138.16 180.4 137.16 179.33C133.64 175.51 132.9 170.23 133.17 165.77C133.39 162.26 131.51 159.16 132.47 155.74C133.67 151.46 134.21 146.99 136.01 142.88C136.13 142.6 136.42 142.39 137.43 141.22Z" fill="#37847F"/>
<path d="M124.97 108.17C124.04 108.21 123.11 108.26 122.19 108.3C120.9 106.41 118.68 106.65 116.86 106.13C111.52 104.6 107.7 101.17 104.36 96.9699C103.11 95.3899 102.45 93.4699 103.54 91.9699C104.79 90.2499 106.98 91.7299 107.98 92.4599C116.03 98.3399 125.18 99.5 135.07 98.88C134.3 102.62 132.12 104.59 129.16 105.89C127.7 106.53 125.86 106.47 124.98 108.17H124.97Z" fill="#E35147"/>
<path d="M182.65 117.5C180.01 125.44 177.76 132.07 176.78 139.16C175.83 145.97 178.21 152.62 176.91 159.43C162.75 150.54 169.32 131.16 182.65 117.5Z" fill="#348986"/>
<path d="M61.71 342.59C64.57 341.64 67.43 340.69 70.3 339.74C75.34 335.52 77.94 341.06 81.26 342.79C83.23 343.82 84.85 346.06 85.53 348.67C86.12 350.95 85.3 351.76 83.28 352.03C81.62 352.05 79.96 352.07 78.3 352.09C76.97 353.37 75.62 353.11 74.26 352.15L69.5601 349.83C68.4601 349.86 67.96 348.93 67.23 348.37C64.43 347.36 62.96 345.09 61.72 342.59H61.71Z" fill="#D36556"/>
<path d="M206.22 181.09C206.17 181.34 206.16 181.59 206.19 181.85C194.7 183.04 187.39 176.57 187.26 165.12C187.22 161.29 187.83 157.58 189.14 153.98C191.73 154.08 191.17 156.73 192.37 157.95C194 163.8 195.84 169.5 199.63 174.48C201.57 177.03 203.83 179.08 206.22 181.08V181.09Z" fill="#38807A"/>
<path d="M165.37 220.09C163.91 222.72 162.45 225.35 160.99 227.99C154.06 232.08 150.17 229.97 149.42 221.71C148.97 216.82 152.84 211.42 156.88 210.93C160.98 210.44 166.25 214.07 165.37 220.09Z" fill="#ECAC63"/>
<path d="M107.33 298.44C104.72 310.95 99.6601 321.83 92.6201 332.32C88.6501 323.79 96.35 306.33 107.33 298.44Z" fill="#39877F"/>
<path d="M160.26 93.09C162.09 98.13 160.76 102.61 158.02 106.96C156.69 109.06 153.67 107.68 152.63 109.99C152.14 109.74 151.82 109.82 151.37 110.24C147.01 114.39 146.52 114.38 145.03 108.49C143.3 101.65 140.69 94.4501 148.24 89.0601C150.45 91.0101 148.38 93.41 148.9 95.58C149.43 97.77 149.04 100.72 151.69 101.35C154.35 101.98 156.04 99.59 157.63 97.71C158.79 96.34 158.65 94.21 160.27 93.09H160.26Z" fill="#F5C290"/>
<path d="M160.26 93.09C160.78 97.44 158.52 100.14 155.03 102.26C151.09 104.65 148.34 103.43 147.53 98.76C146.97 95.47 147.65 92.27 148.23 89.07C149.97 86.67 151.6 83.66 155.19 84.76C159.09 85.95 159.78 89.57 160.26 93.1V93.09Z" fill="#F2A854"/>
<path d="M164.3 33.91C164.33 24.3 164.34 14.7 164.42 5.09003C164.43 3.74003 163.78 1.46997 165.82 1.46997C167.91 1.46997 167.18 3.73001 167.19 5.07001C167.27 14.68 167.28 24.28 167.31 33.89C166.31 33.89 165.3 33.91 164.3 33.92V33.91Z" fill="#085A63"/>
<path d="M155.34 33.9399C155.35 24.3099 155.34 14.68 155.42 5.06001C155.43 3.72001 154.76 1.44998 156.85 1.46998C158.94 1.48998 158.2 3.75004 158.21 5.09004C158.27 14.72 158.25 24.34 158.25 33.97C157.28 33.97 156.31 33.9499 155.35 33.9399H155.34Z" fill="#045660"/>
<path d="M147.32 33.99C146 24.4 146.4 14.75 146.45 5.11997C146.45 3.76997 145.8 1.46995 147.85 1.47995C149.92 1.48995 149.18 3.77998 149.19 5.12998C149.25 12.62 149.19 20.1099 149.2 27.5999C149.2 29.7599 149.19 31.94 150.08 33.98C149.16 33.98 148.24 33.99 147.32 34V33.99Z" fill="#085B66"/>
<path d="M133.25 1.10999C136.1 1.41999 135.26 3.64999 135.34 5.29999C135.71 13.36 135.98 21.42 136.35 29.48C136.42 30.94 136.84 32.38 137.1 33.83C136.15 33.85 135.2 33.87 134.26 33.89C132.19 24.12 132.17 14.22 132.28 4.31C132.29 3.12 132.48 2.00001 133.29 1.07001L133.24 1.12L133.25 1.10999Z" fill="#085964"/>
<path d="M148.11 346.95C146.27 349.8 148.33 354.69 143.42 355.93C142.12 348.42 143.59 341.54 148.29 335.01C150.56 339.26 148.27 343.1 148.11 346.95Z" fill="#278780"/>
<path d="M142.38 33.92V1.78998L144.2 1.71002C144.59 12.48 143.7 23.33 145.26 34.01C144.3 33.98 143.34 33.95 142.38 33.92Z" fill="#01585F"/>
<path d="M159.43 33.88C161.23 25.18 159.78 16.36 160.39 7.62001C160.53 5.53001 159.06 1.65999 161.6 1.71999C164.02 1.77999 162.17 5.53999 162.27 7.59999C162.7 16.36 161.6 25.1801 163.17 33.9101C161.92 33.9101 160.67 33.89 159.43 33.89V33.88Z" fill="#00545B"/>
<path d="M138.38 33.9C138.36 23.18 137.79 12.45 139.19 1.72998C140.91 12.39 139.29 23.25 141.16 33.88C140.23 33.88 139.31 33.9 138.38 33.9Z" fill="#015960"/>
<path d="M151.33 33.98V1.77002L152.77 1.71002C154.23 12.4 152.21 23.34 154.16 33.99C153.21 33.99 152.27 33.99 151.33 33.99V33.98Z" fill="#065660"/>
<path d="M127.39 11.16C129.55 8.11997 126.96 4.23 129.17 1.19C129.23 9.77 129.33 18.36 129.34 26.94C129.34 29.28 129.64 31.53 130.37 33.74C129.76 33.62 129.14 33.5 128.53 33.38C127.99 33.08 127.55 32.67 127.23 32.14C125.17 26.58 125.85 20.8 125.79 15.07C125.77 13.55 125.97 12.1 127.4 11.16H127.39Z" fill="#42AAAD"/>
<path d="M174.17 314.19C172.76 318.16 169.48 320.79 167.15 324.11C163.79 322.63 165.63 320.26 166.37 318.35C167.72 314.86 170.41 313.41 174.17 314.19Z" fill="#D7746E"/>
<path d="M121.16 34.12C120.87 33.76 120.57 33.4 120.28 33.04C123.63 33.4 123.37 31.2 123.36 28.93C123.32 20.05 123.39 11.18 123.41 2.29999C127.31 3.86999 125.04 7.33 125.74 9.88C126.13 16.72 124.87 23.64 126.74 30.42C127.02 31.42 127.41 32.24 128.11 32.95C128.24 33.09 128.38 33.22 128.51 33.36C126.17 34.73 123.53 33.18 121.15 34.11L121.16 34.12Z" fill="#42AAAD"/>
<path d="M192.36 157.96C191.28 156.63 190.21 155.31 189.13 153.98C189.52 149.86 191.61 146.4 192.83 142.6C193.3 142.7 193.76 142.8 194.23 142.89L192.36 157.95V157.96Z" fill="#AF3B38"/>
<path d="M133.3 1.07001C132.98 12.03 133.39 22.97 134.27 33.89C133.9 33.86 133.54 33.8401 133.17 33.8101C132.52 29.3301 131.84 24.85 132.12 20.29C131.66 13.91 131.34 7.52998 132.3 1.16998C132.63 1.13998 132.97 1.11002 133.3 1.08002V1.07001Z" fill="#42AAAD"/>
<path d="M182.37 36.86C180.46 40.34 178.4 37.2 176.41 36.98C176.07 36.94 175.99 35.48 175.38 36.77C175.18 37.19 175.15 37.7 175.05 38.16C173.98 36.99 174.55 35.5099 174.33 34.1899C174.34 34.0199 174.33 33.8599 174.33 33.6899C175.01 33.2899 175.66 33.32 176.3 33.77C177.2 33.79 178.09 33.82 178.99 33.84C179.9 32.71 180.9 32.43 182.04 33.54C182.79 34.58 183.27 35.65 182.38 36.86H182.37Z" fill="#E19988"/>
<path d="M163.71 202.08C164.35 204.8 164.87 207.39 162.36 209.28C161.52 209.92 160.5 210.22 159.76 209.25C159.19 208.51 159.53 207.66 160.31 207.16C162.14 205.97 163.44 204.42 163.71 202.08Z" fill="#FBE2C9"/>
<path d="M113.37 209.17C112.76 212.52 115.5 213.35 118.56 215.12C113.49 215 111.64 213.21 112.25 209.1C112.62 209.12 113 209.15 113.37 209.17Z" fill="#FAACA6"/>
<path d="M130.33 308.04C128.38 307.69 125.56 310.57 124.27 306.1C126.8 306.41 128.95 306.67 131.09 306.93C130.84 307.3 130.58 307.67 130.33 308.04Z" fill="#83A79E"/>
<path d="M199.38 286.94C193.2 282.21 186.81 277.75 181.46 272.01C166.13 255.53 165.81 237.45 180.25 220.31C188.72 210.27 199.43 204.8 212.26 203.05C216.3 218.67 219.43 234.38 218.33 250.67C217.32 265.59 211.22 277.74 199.38 286.94Z" fill="#145C69"/>
<path d="M182.37 36.86C181.98 35.9 181.6 34.94 181.21 33.98C182.77 33.09 184.24 31.7801 186.24 32.8101C186.54 32.9501 186.84 32.9401 187.13 32.7801C188.24 32.0901 189.34 32.1601 190.43 32.8001C192.04 32.8301 193.65 32.8601 195.26 32.8901C195.7 32.6901 196.13 32.7001 196.56 32.9101C198.6 35.0501 199.62 37.8201 201.09 40.3101C203.02 45.0701 203.51 49.9601 202.43 55.0001C201.3 51.9201 198.91 50.0801 196.23 48.3901C191.11 45.1601 186.51 41.27 182.35 36.86H182.37Z" fill="#F8DDB5"/>
<path d="M196.11 33.25C195.78 33.25 195.5 33.13 195.28 32.89C197.21 26.35 195.94 19.65 196.24 13.03C196.41 9.27003 196.27 5.50999 196.27 1.73999C196.89 1.71999 197.51 1.69999 198.12 1.67999V30.45C198.81 30.45 199.49 30.4499 200.18 30.4399V1.73999C200.9 1.73999 201.62 1.73999 202.34 1.73999C202.34 11.17 202.34 20.59 202.34 30.02C202.34 30.43 202.33 30.83 202.32 31.24C202.29 31.53 202.23 31.81 202.14 32.08C200.51 34.39 198.29 33.74 196.11 33.27V33.25Z" fill="#00595D"/>
<path d="M196.11 33.25C197.8 31.22 200.3 33.3101 202.14 32.0601C200.67 34.6701 202.37 37.6701 201.11 40.3101C197.66 39.2201 197.22 36 196.11 33.25Z" fill="#29979B"/>
<path d="M44.63 382.42C52.26 380.01 59.93 381.65 67.58 382.2C68.58 382.27 69.74 382.57 70.01 383.59C70.38 385 69 385.36 68.09 386.07C64.23 389.13 59.25 389.23 55 391.22C51.25 388.63 47.81 385.68 44.62 382.42H44.63Z" fill="#DE6A5A"/>
<path d="M74.26 352.16C75.61 352.14 76.95 352.12 78.3 352.1C79.46 356.54 77.63 362.23 74.13 364.35C71.52 365.93 69.67 364.54 68.52 362.19C67.32 359.71 67 357.12 70.41 356.29C72.82 355.7 74.48 354.96 74.26 352.17V352.16Z" fill="#F7D6B8"/>
<path d="M67.23 348.38C68.01 348.87 68.7801 349.35 69.5601 349.84C68.4801 351.13 67.4 352.41 66.23 353.8C64.33 351.28 67.46 350.22 67.23 348.38Z" fill="#F7D6B8"/>
<path d="M186.25 32.8101C184.57 33.2001 182.9 33.59 181.22 33.98C180.48 33.93 179.74 33.89 178.99 33.84C177.67 23.76 178.74 13.62 178.41 3.52005C178.38 2.52005 178.56 1.29 179.88 1.41C181.49 1.55 181.28 3.03004 181.28 4.14004C181.3 11.45 181.24 18.76 181.28 26.07C181.29 27.85 180.8 29.7201 181.97 31.5301C184.06 30.8701 183.25 29.08 183.27 27.85C183.35 20.04 183.27 12.23 183.32 4.42001C183.32 3.27001 182.77 1.33006 184.9 1.53006C186.45 1.67006 186.06 3.31005 186.07 4.40005C186.15 13.8701 186.19 23.3401 186.25 32.8101Z" fill="#066168"/>
<path d="M176.3 33.77C175.64 33.74 174.98 33.7199 174.32 33.6899C174.31 24.2099 174.26 14.74 174.32 5.25999C174.32 3.91999 173.54 1.66 175.56 1.53C177.79 1.38 177.11 3.69997 177.06 4.98997C176.65 14.58 178.01 24.22 176.3 33.77Z" fill="#07646A"/>
<path d="M190.45 32.8001C189.35 32.8001 188.25 32.79 187.15 32.78C187.22 23.47 187.27 14.15 187.39 4.84003C187.41 3.64003 186.76 1.67003 188.57 1.53003C190.97 1.34003 190.2 3.57999 190.21 4.85999C190.35 14.17 190.39 23.4901 190.46 32.8001H190.45Z" fill="#035A61"/>
<path d="M169.32 16.86C169.32 12.55 169.3 8.24003 169.34 3.94003C169.35 2.85003 169.15 1.34 170.88 1.41C172.18 1.46 172.21 2.70002 172.21 3.68002C172.21 12.63 172.21 21.58 172.17 30.52C172.17 31.49 172.17 32.7501 170.87 32.8101C169.14 32.8801 169.34 31.3801 169.33 30.2801C169.29 25.8101 169.31 21.33 169.31 16.86H169.32Z" fill="#085A63"/>
<path d="M193.66 1.73999V31.92C193.38 31.9 193.1 31.89 192.82 31.87V1.69C193.1 1.7 193.38 1.71998 193.66 1.72998V1.73999Z" fill="#035A61"/>
<path d="M128.12 32.96C125.47 33.53 125.35 31.81 125.01 29.86C123.89 23.35 124.69 16.8 124.4 10.28C125.51 7.30003 123.89 4.04998 125.31 1.09998C125.96 1.09998 126.61 1.09998 127.25 1.09998C127.29 4.44998 127.33 7.80002 127.38 11.15C126.92 18.44 127.38 25.7 128.12 32.96Z" fill="#095A64"/>
<path d="M120 2.15997V31.2C117.29 21.51 120.15 11.84 120 2.15997Z" fill="#34A3A9"/>
<path d="M110.61 31.08V2.16998C110.78 2.16998 110.95 2.16998 111.12 2.16998V31.08C110.95 31.08 110.78 31.08 110.61 31.08Z" fill="#48B9BE"/>
<path d="M115.15 2.34003V31.0601C114.98 31.0601 114.8 31.0601 114.63 31.0601V2.32001C114.8 2.32001 114.98 2.32002 115.15 2.33002V2.34003Z" fill="#51C3C5"/>
<path d="M106.47 29.88V2.21002C106.66 2.21002 106.86 2.21002 107.05 2.21002V30.04C106.86 29.99 106.66 29.94 106.47 29.88Z" fill="#4ABEC2"/>
<path d="M125.32 1.09998C124.83 4.13998 125.94 7.34003 124.41 10.28C123.76 7.66003 125.13 4.79 123.42 2.31C123.65 1.28 124.43 1.09998 125.32 1.09998Z" fill="#29979B"/>
<path d="M96.08 3.91998V29.19C95.56 29.19 95.05 29.21 94.53 29.21C94.21 20.82 94.17 12.43 94.77 4.03003C95.21 3.99003 95.65 3.95998 96.08 3.91998Z" fill="#248A97"/>
<path d="M132.3 1.15997C132.24 7.52997 132.18 13.91 132.12 20.28C131.02 13.9 130.62 7.51997 132.3 1.15997Z" fill="#29979B"/>
<path d="M149.1 299.92C150.43 301.87 151.66 303.53 154.12 304.11C151.88 304.6 148.83 303.19 150.51 308.21C148.93 305.577 148.46 302.813 149.1 299.92Z" fill="#EFA391"/>
<path d="M54.32 360.96C53.07 362.31 51.25 363.06 50.19 364.6C49.5 361.17 51.89 361.06 54.36 361.03L54.32 360.96Z" fill="#93BDBA"/>
<path d="M116.94 315.32C118.39 315.32 118.82 315.19 118.99 315.34C120.68 316.83 121.71 318.74 122.22 320.92C122.26 321.09 121.57 321.42 121.23 321.68C119.94 319.77 118.65 317.85 116.95 315.32H116.94Z" fill="#A7C0B8"/>
<path d="M60.45 327.45C60.83 325.9 61.3999 324.57 62.9399 324.24C63.1699 324.19 63.83 324.86 63.8 325.14C63.58 327.02 61.8399 327 60.4399 327.45H60.45Z" fill="#93C3BC"/>
<path d="M133.87 262.58C133.48 264.73 132.88 266.83 130.41 266.81C127.55 266.79 126.37 264.56 126.5 262.12C126.61 259.97 126.9 256.93 129.97 257.14C132.93 257.35 133.36 260.26 133.87 262.58Z" fill="#624337"/>
<path d="M184.08 45.26C185.58 44.51 186.82 44.52 187.92 45.62C188.02 45.72 187.64 46.64 187.34 46.75C186 47.2 184.78 47.1 184.08 45.26Z" fill="#F6AB94"/>
<path d="M155.53 221.76C155.57 219.5 155.58 216.52 158.22 216.35C160.66 216.2 160.89 219.17 160.94 221.22C160.99 223.39 159.57 225.31 157.67 225.47C156.29 225.59 154.78 223.9 155.53 221.75V221.76Z" fill="#734536"/>
<path d="M151.36 99.0601C151.34 95.9001 148.93 92.89 152.73 91.15C154.1 90.52 155.65 91.28 155.83 92.76C156.21 95.79 155.23 98.2301 151.36 99.0601Z" fill="#58342C"/>
</svg>
