<svg width="221" height="426" viewBox="0 0 221 426" fill="none" xmlns="http://www.w3.org/2000/svg">
<path d="M14.69 413.57C6.91 406.47 1.33 398.34 0.22 387.36C-0.4 381.25 0.39 375.53 2.01 369.82C3.45 364.74 5.38 359.8 7.8 355.08C9.08 353.05 10.35 351.01 11.62 348.98C14.71 346.74 17.39 348.81 19.94 350.03C34.83 357.19 48.34 366.46 60.85 377.21C69.92 385 78.62 393.17 85.11 403.37C86.35 405.31 87.83 407.2 87.35 409.77C86.82 411.45 85.6 412.55 84.26 413.56C66.49 426.89 40.18 430.5 21.03 419.03C18.55 417.55 16.73 415.48 14.7 413.57H14.69Z" fill="#F9E8D2"/>
<path d="M90.68 244C89.48 243.14 88.29 242.42 89.57 240.59C90.78 238.86 91.65 236.9 92.67 235.04C94.33 234.31 95.92 234.73 97.49 235.35C131.52 248.8 161.45 268.2 185.62 295.98C187.17 297.72 187.4 299.55 185.75 301.3C179.26 308.18 172.59 314.89 165.67 321.34C164.81 322.14 163.73 322.64 162.47 322.29C153.34 312.9 143.95 303.81 133.73 295.56C119.3 283.9 103.21 274.99 86.94 266.31C84.05 264.77 80.68 263.93 78.66 261.01C80.25 257.76 81.1 254.01 84.64 252.06C86.22 251.72 87.58 252.38 88.94 253.03C111.91 263.96 133.36 277.22 152.48 294.13C157.22 298.32 161.93 302.53 166.34 307.08C168.28 309.07 170.03 310.95 172.96 308.15C175.99 305.25 174.36 303.24 172.26 301.04C161.64 289.96 150.33 279.68 137.73 270.85C124.31 261.44 109.91 253.83 94.99 247.15C93.34 246.41 91.5 245.89 90.67 244.01L90.68 244Z" fill="#106071"/>
<path d="M103.82 45.27C101.76 44.74 101.68 43.15 101.7 41.44C101.73 38.02 101.67 34.59 101.65 31.17C102.93 29.29 105.03 28.94 106.95 28.82C118.88 28.08 130.82 27.36 142.79 27.54C165.17 27.8 187.56 27.3 209.93 27.79C210.54 27.92 211.1 28.18 211.6 28.55C213.43 31.38 211.93 33.63 210.32 35.86C204.59 40.33 197.85 42.92 191.16 45.34C166.08 54.42 140.57 62.04 114.3 66.93C111.76 67.4 109.05 68.42 106.75 66.14C102.87 66.52 100.99 65.06 101.59 60.9C101.86 58.98 101.65 57 101.66 55.04C103.22 53.2 105.5 53.14 107.59 52.86C131.36 49.64 154.42 43.84 175.71 34.3C153.91 35.48 132.55 42.94 110.43 46.31C108.15 46.66 105.79 47.14 103.83 45.27H103.82Z" fill="#F6F4E8"/>
<path d="M142.58 28.93C128.94 29.68 115.3 30.42 101.65 31.17C98.76 31.07 97.06 29.58 96.52 26.75C95.11 19.33 95.41 11.84 95.63 4.36C95.71 1.5 97.57 0.31 100.29 0.3C114.42 0.21 128.55 0.12 142.68 0.02C143.76 1.18 144.08 2.59 144.1 4.12C144.17 11.04 144.18 17.97 144.1 24.89C144.08 26.41 143.8 27.85 142.58 28.92V28.93Z" fill="#106C7A"/>
<path d="M184.65 297.05C159.38 268.38 128.31 248.32 92.68 235.04C94.11 232.1 95.58 229.17 95.74 225.81C97.61 224.36 99.53 225 101.43 225.7C126.11 234.76 149.42 246.4 169.91 263.1C177.26 269.09 183.69 276.12 190.1 283.13C191.65 284.83 193.19 286.66 193.62 289.08C192.24 294.6 189.31 297.21 184.66 297.06L184.65 297.05Z" fill="#F6F0E1"/>
<path d="M107.88 128.22C103.92 128.48 102.11 126.8 102.69 122.7C102.92 121.07 102.75 119.39 102.76 117.73C107.95 115.16 113.67 115.12 119.21 114.37C146.58 110.66 173.55 105.24 199.74 96.33C202.51 95.39 205.14 93.57 208.33 94.65C211.79 99.52 211.2 104.45 208.54 109.42C205.54 112 201.78 112.93 198.13 114.02C172.08 121.84 145.59 127.46 118.43 129.61C114.88 129.89 111.1 130.8 107.86 128.22H107.88Z" fill="#F3EFE2"/>
<path d="M104.85 108.2C101.76 105.46 101.69 100.74 104.7 97.27C106.37 94.91 109.08 95.14 111.44 94.72C142.52 89.14 173.24 82.25 202.79 70.84C204.84 70.05 207 68.54 209.3 70.43C211.11 75.18 211.26 79.84 208.61 84.36C204.72 87.69 199.91 89.27 195.19 90.79C167.54 99.69 139.27 105.87 110.44 109.46C108.46 109.71 106.42 109.88 104.84 108.2H104.85Z" fill="#F2EFE4"/>
<path d="M103.7 87.16C99.95 83.41 100.96 77.27 105.66 75.19C107.4 72.92 110.09 73.09 112.47 72.72C144.03 67.89 174.29 58.58 203.81 46.63C205.9 45.79 208.01 44.28 210.28 46.29C212.13 50.68 212.03 55.01 209.84 59.26C205.98 63.26 200.7 64.65 195.79 66.53C167.84 77.18 138.74 83.39 109.3 88.15C107.36 88.46 105.31 88.9 103.69 87.16H103.7Z" fill="#F3F1E6"/>
<path d="M103.74 167.14C102.03 163.45 102.17 159.74 103.66 156.03C105.08 154.66 106.84 154.34 108.74 154.38C140.17 155.05 171.2 151.9 201.76 144.39C203.54 143.95 205.33 143.52 207.19 143.97C211.5 145.96 210.38 149.94 210.57 153.39C210.68 155.35 210.47 157.33 209.48 159.12C207.7 161.7 204.86 162.25 202.1 162.78C187.56 165.53 172.87 166.94 158.12 168.12C142.67 169.36 127.24 168.73 111.8 168.95C109.01 168.99 106.08 169.32 103.76 167.14H103.74Z" fill="#F1EEE0"/>
<path d="M101.71 200.2C102.05 197.42 102.39 194.65 102.72 191.87C104.84 190 107.35 190.27 109.81 190.69C128.79 193.94 147.89 196.32 167.12 196.87C179.68 197.23 192.29 196.31 204.79 194.58C206.92 194.29 209.02 193.67 211.19 194.26C213.39 195.26 214.02 197 213.49 199.25C213.42 199.39 213.37 199.65 213.27 199.66C205.79 201.07 200.57 206.65 194.14 209.99C190.51 210.96 186.89 211.95 184.22 214.9C183.81 215.23 183.36 215.48 182.87 215.68C180.11 217.71 177.03 217.83 173.8 217.31C150.94 213.6 128.47 208.12 106.01 202.56C104.34 202.15 102.9 201.42 101.69 200.21L101.71 200.2Z" fill="#F3EFE0"/>
<path d="M90.68 244C116.48 254.12 139.78 268.31 160.26 287.01C165.05 291.39 169.35 296.32 174.27 300.53C178.29 303.96 177.49 306.17 174.07 309.46C171.18 312.24 169.73 312.54 166.74 309.48C154.37 296.84 140.72 285.66 126.13 275.67C114.03 267.39 101.06 260.63 87.96 254.1C86.79 253.52 85.42 253.27 84.65 252.06C86.42 249.19 86.61 245.14 90.68 244Z" fill="#F7EEDF"/>
<path d="M78.67 261.01C109.74 274.81 137.44 293.43 160.78 318.3C161.74 319.32 163.33 320.17 162.42 322.06C162.88 325.66 160.77 327.64 157.96 329.2C154.66 330.61 152.41 329.17 150.09 326.79C129.11 305.28 105.16 287.9 77.92 275.12C75.93 274.19 73.23 274.08 72.57 271.25C73.54 267.2 77.3 264.82 78.68 261.01H78.67Z" fill="#F6F1E3"/>
<path d="M18.74 338.73C21.06 335.81 23.38 332.89 25.69 329.96C27.75 328.49 29.52 329.85 31.26 330.65C48.18 338.37 63.31 348.76 77.36 360.92C86.18 368.55 94.16 377.01 102.45 385.17C104.56 387.25 106.85 389.36 106.39 392.83C104.26 396.52 101.45 399.52 97.6 401.47C94.59 401.31 92.98 399.01 91.27 397.06C71.39 374.44 49.46 354.41 21.67 341.75C20.34 341.14 18.84 340.59 18.74 338.73Z" fill="#F8F3E6"/>
<path d="M32.62 321C34.64 318.33 36.66 315.66 38.69 312.99C41.28 311.27 43.5 312.93 45.68 313.9C65.15 322.56 81.87 335.39 98.14 348.86C104.28 353.94 110.04 359.46 115.54 365.23C117.72 367.52 119.9 369.81 120.75 373C120.37 378.12 117.78 381.61 113.01 383.49C109.87 382.74 108.14 380.13 106.12 378.02C88.38 359.44 68.82 343.17 46.49 330.33C43.18 328.43 39.71 326.83 36.38 324.97C34.76 324.07 32.48 323.62 32.62 320.99V321Z" fill="#F7F2E6"/>
<path d="M103.62 148.02C102.49 144.58 101.55 141.16 104.7 138.19C108.65 134.97 113.55 135.85 118.01 135.45C146.67 132.88 174.91 128.1 202.56 120.07C204.74 119.44 206.99 118.36 209.19 120.13C211.21 125.06 211.46 129.89 208.42 134.55C206.5 136.3 204.04 136.82 201.64 137.45C180.07 143.09 158.1 146.12 135.92 148.07C127.99 148.77 120.01 148.52 112.12 149.67C109.2 150.1 106.11 150.33 103.63 148.02H103.62Z" fill="#F5F2E3"/>
<path d="M60.71 287.82C61.94 284.03 63.97 280.88 67.62 278.98C70.32 277.25 72.39 279.28 74.5 280.29C94.55 289.91 112.48 302.68 129.38 317.03C134.83 321.66 139.98 326.59 144.98 331.68C146.48 333.21 148.14 334.66 148.58 336.94C148.22 341.45 144.73 343.76 141.85 346.51C139.09 347.3 137.47 345.41 135.85 343.79C114.73 322.67 91.01 305.11 64.4 291.49C62.82 290.68 60.95 290.02 60.7 287.81L60.71 287.82Z" fill="#F4F0E2"/>
<path d="M46.73 304.72C47.9 301.37 51.13 299.49 52.63 296.38C55.51 293.88 58 296.15 60.36 297.27C78.93 306.14 95.71 317.7 111.38 331C118.37 336.94 124.72 343.5 131.22 349.92C132.63 351.32 134.11 352.71 134.45 354.84C133.83 359.32 131.06 362.44 127.86 365.29C125.51 365.69 124.23 364.04 122.87 362.62C102.48 341.16 79.16 323.6 52.99 309.79C50.63 308.54 47.44 308.11 46.74 304.72H46.73Z" fill="#F6F0E3"/>
<path d="M108.69 183.88C102.88 183.31 103.3 179.17 103.65 175.07C105.3 173.56 107.28 173.87 109.3 173.88C121.44 173.98 133.51 175.61 145.67 175.13C163.77 174.42 181.86 173.57 199.77 170.6C202.69 170.11 205.63 169.22 208.65 170.11C212.86 174.33 213.37 181.16 209.84 185.78C205.6 188.11 200.84 187.9 196.26 188.33C181.07 189.76 165.9 190.57 150.58 189.3C139.69 188.4 128.73 188.19 117.86 186.86C114.66 186.47 111.12 186.74 108.67 183.88H108.69Z" fill="#F8F3E4"/>
<path d="M192.74 288.95C172.01 262.08 144.34 244.88 113.52 232.08C107.71 229.67 102.01 226.9 95.74 225.81C96.6 223.16 96.53 220.16 98.64 217.96C100.99 216.78 103.19 217.86 105.4 218.45C126.25 223.99 145.52 233.3 164.47 243.36C166.52 244.45 168.51 245.66 170.62 246.63C171.09 246.78 171.53 247.01 171.95 247.28C172.47 247.69 173.05 248.14 173.26 248.76C177.85 262.27 188.54 271.03 198.04 280.73C198.85 281.56 199.73 282.33 200.46 283.25C200.6 286.57 198.06 290.32 195.34 291.09C193.29 291.67 193.34 290.01 192.77 288.96L192.74 288.95Z" fill="#0F5D6F"/>
<path d="M18.74 338.73C48.65 351.75 72.42 372.62 93.39 397.09C94.65 398.56 95.51 400.53 97.63 401.13C96.47 406.34 91.22 410.11 86.74 408.97C80.99 398.5 73.06 389.83 64.16 382.06C50.51 370.14 36 359.4 19.58 351.49C17.06 350.28 14.59 348.83 11.62 348.98C12.82 344.75 14.96 341.17 18.75 338.73H18.74Z" fill="#156378"/>
<path d="M103.7 87.16C139.71 81.62 175.34 74.7 208.6 58.94C212.2 61.76 212.21 65.29 208.65 70.25C178.98 82.52 147.87 89.56 116.51 95.71C112.62 96.47 108.63 96.76 104.69 97.26C101.23 95.8 100.76 91.03 103.7 87.16Z" fill="#0A6274"/>
<path d="M108.69 183.88C127.83 186.38 147.04 187.74 166.34 187.92C180.83 188.05 195.23 186.97 209.57 184.87C212.48 184 213.06 186.24 213.24 188.08C213.48 190.51 215.43 193.57 211.61 195.14C184.05 200.26 156.49 199.34 128.9 195.29C120.19 194.01 111.44 193 102.7 191.86C102.68 191.21 102.72 190.55 102.62 189.91C101.87 185.11 103.73 182.96 108.67 183.87L108.69 183.88Z" fill="#0D6372"/>
<path d="M104.85 108.2C126.39 106.3 147.46 101.82 168.41 96.63C181.78 93.32 195.07 89.83 207.56 83.84C211.53 86.81 211.55 91.28 207.61 94.98C181.78 105.46 154.67 110.85 127.26 114.92C119.14 116.13 111.08 118.16 102.76 117.72C103.53 114.56 100.27 110.52 104.85 108.19V108.2Z" fill="#0B6374"/>
<path d="M32.62 321C33.37 321.61 34.04 322.39 34.88 322.79C65.22 337.16 90.3 358.34 112.75 382.93C114.02 383.59 114.28 384.66 113.69 385.84C112.13 388.97 110.05 391.71 107.2 393.79C106.48 394.32 105.62 394.4 105.68 393.03C105.91 390.94 104.45 389.66 103.26 388.35C81.53 364.5 57.4 343.81 27.56 330.59C26.96 330.33 26.32 330.18 25.69 329.98C26.59 325.9 28.95 322.95 32.62 321.01V321Z" fill="#136177"/>
<path d="M208.61 170.93C173.82 177.32 138.83 178.52 103.66 175.07C103.32 172.42 103.27 169.78 103.74 167.14C126.66 167.41 149.59 167.59 172.41 165.04C184.58 163.68 196.86 162.77 208.64 159.01C212.59 162.09 212.57 167.18 208.61 170.93Z" fill="#0D6070"/>
<path d="M208.66 120.16C193.34 124.99 177.7 128.4 161.91 131.29C142.96 134.76 123.93 137.26 104.7 138.19C101.22 136.36 102.73 133.06 102.84 130.52C102.96 127.47 106.46 129.66 107.89 128.22C142.15 127.09 175.22 119.79 207.59 108.87C211.27 111.66 211.61 115.24 208.67 120.16H208.66Z" fill="#0C6574"/>
<path d="M209.66 45.81C184.2 57.47 157.4 64.99 130.24 71.33C122.15 73.22 113.93 74.44 105.65 75.19C103.7 75.02 101.11 75.83 101.61 72.21C101.93 69.88 100.5 66.63 104.93 66.81C105.52 66.83 106.14 66.37 106.75 66.14C122.65 64.4 138.06 60.31 153.34 55.88C172.59 50.31 191.9 44.75 209.66 35.08C213.47 38.02 213.47 42.21 209.66 45.81Z" fill="#096074"/>
<path d="M103.62 148.02C138.76 146.81 173.62 143.61 207.62 133.97C211.94 137.28 211.46 142.47 206.6 144.95C172.85 153.9 138.52 157.42 103.66 156.04C103.12 153.37 103.09 150.7 103.62 148.03V148.02Z" fill="#0C6373"/>
<path d="M46.73 304.72C72.45 317.57 95.62 334.04 116.5 353.79C120.3 357.39 123.28 361.82 127.7 364.77C128.5 369.51 124.94 371.62 121.99 374C121.09 374.72 120.17 374.01 119.86 372.86C97.47 347.67 71.74 326.95 40.58 313.47C39.98 313.21 39.31 313.14 38.67 312.98C40.85 309.74 41.72 305.22 46.72 304.71L46.73 304.72Z" fill="#135F73"/>
<path d="M133.92 354.84C111.54 330.94 86.29 310.88 56.39 297.08C55.24 296.55 54.07 295.61 52.64 296.38C54.74 292.96 56.09 288.85 60.71 287.82C80.85 297.95 99.76 309.99 116.97 324.59C124.2 330.73 131.09 337.28 138.19 343.57C139.19 344.46 139.72 346.36 141.71 345.66C141.82 350.81 138.29 354.98 133.92 354.85V354.84Z" fill="#125E72"/>
<path d="M147.72 336.98C133.13 320.35 115.7 307.09 97.36 294.96C87.94 288.73 78.27 282.94 67.63 278.97C66.9 274.88 69.89 273.16 72.57 271.24C103.37 284.29 130.04 303.23 152.67 327.8C155.18 330.53 156.28 327.68 158.04 327.65C157.57 332.56 153.77 335.08 150.51 337.92C149.48 338.82 148.33 338.25 147.72 336.98Z" fill="#106071"/>
<path d="M170.53 247.96C163.43 245.53 157.33 241.11 150.64 237.85C133.88 229.67 116.56 223.03 98.63 217.96C98.58 214.49 100 211.34 100.71 208.03C102.4 206.66 104.22 207.29 105.93 207.83C126.54 214.27 147.22 220.47 167.94 226.57C169.67 227.08 171.46 227.67 172.35 229.54C172.24 234.17 172.06 238.8 172.11 243.44C172.13 245.14 171.95 246.77 170.52 247.96H170.53Z" fill="#F6EFDF"/>
<path d="M171.61 229.15C149.59 223.04 127.71 216.48 105.96 209.47C104.23 208.91 102.46 208.51 100.7 208.03C100.16 205.31 101.5 202.83 101.69 200.2C113.55 201.68 124.79 205.88 136.46 208.2C149.44 210.77 162.44 213.26 175.4 215.98C178.67 216.67 181.1 215.21 183.75 214.01C184.32 215.49 183.52 216.64 182.58 217.51C178.83 220.99 176.16 225.34 172.96 229.26C172.49 229.47 172.04 229.42 171.61 229.15Z" fill="#0F5F70"/>
<path d="M103.82 45.27C119.05 43.64 133.89 39.94 148.77 36.52C159 34.17 169.24 32.36 179.92 33.63C155.23 45.76 129.03 52.46 101.67 55.04C101.33 51.55 98.9 47.6 103.83 45.27H103.82Z" fill="#076176"/>
<path d="M142.58 28.93C142.62 19.3 142.66 9.66 142.69 0.03C143.35 0.03 144.01 0.03 144.67 0.03C146.52 1.87 146.4 4.26 146.43 6.58C146.51 11.9 146.39 17.23 146.52 23.26C147.84 17.06 147.96 11.47 147.85 5.86C147.81 3.88 147.51 1.85 148.64 0.02C149.65 0.02 150.67 0.02 151.68 0.02C154.33 3.24 153.49 7.01 153.09 10.57C152.6 14.96 152.44 19.34 152.11 23.73C154.24 18.5 153.77 13.02 153.89 7.59C153.95 4.96 153.55 2.2 155.65 0.03C156.32 0.03 156.99 0.03 157.66 0.03C160.73 4.44 159.29 9.33 159.04 14.04C158.85 17.65 158.05 21.22 158.08 25.6C160.21 23.97 159.64 22.23 159.89 20.78C161.02 13.91 160.17 6.87 161.62 0.02C162.31 0.02 163 0.03 163.68 0.04C165.6 2.04 165.41 4.59 165.47 7.06C165.59 12.61 165.29 18.18 166.01 23.71C165.72 17.99 165.78 12.27 165.84 6.55C165.86 4.23 165.84 1.87 167.6 0.02C168.28 0.04 168.96 0.05 169.64 0.07C171.94 7.6 171.26 15.4 171.64 23.1C171.83 17.42 172.15 11.75 171.25 6.1C170.91 3.95 170.92 1.79 172.65 0.07C173.31 0.07 173.98 0.09 174.64 0.09C176.62 2.06 176.37 4.61 176.44 7.07C176.6 12.66 176.16 18.27 177.21 23.86C177.91 18.7 178.05 13.53 177.4 8.32C177.06 5.57 176.17 2.78 177.65 0.08C178.31 0.1 178.97 0.11 179.64 0.13C181.8 2.11 182.17 4.69 182.16 7.43C182.14 11.92 182.16 16.41 182.16 20.9C182.16 15.66 182.21 10.42 182.13 5.19C182.1 3.3 182.17 1.53 183.64 0.12C184.28 0.16 184.93 0.19 185.57 0.23C187.37 4.53 186.16 9.04 186.45 13.45C186.68 16.89 186.19 20.37 187.25 23.83C187.98 18.64 187.73 13.4 187.86 8.18C187.93 5.42 187.4 2.49 189.64 0.2C192.97 0.24 196.31 0.28 199.64 0.32C201.57 3.92 200.39 7.75 200.46 11.49C200.47 12.11 200.08 12.82 199.33 12.94C198.21 13.11 197.95 12.21 197.81 11.42C197.52 9.65 197.57 7.88 198.06 6.68C198.21 5.5 197.22 6.41 197.85 6.19C197.31 12.4 198.79 18.44 199.34 24.6C199.3 17.95 200.94 11.47 200.69 4.85C200.64 3.49 200.19 1.3 202.2 1.27C203.93 1.24 204.09 3.36 204.24 4.8C204.8 10.24 204 15.75 205.13 21.33C204.61 16.4 204.81 11.63 204.9 6.86C204.94 4.76 204.78 1.35 207.02 1.4C209.76 1.46 209.23 4.93 209.38 7.13C209.57 9.94 209.44 12.77 209.44 15.6C209.44 20.19 209.01 24.85 211.66 29C188.62 28.99 165.59 28.97 142.55 28.96L142.58 28.93Z" fill="#154754"/>
<path d="M211.69 28.97C208.66 28.06 207.38 26.36 207.57 22.89C207.94 16.12 207.68 9.31 206.66 2.5C206.66 8.76 206.66 15.03 206.66 21.29C206.66 22.62 206.68 23.95 206.63 25.28C206.6 26.26 206.63 27.5 205.37 27.65C203.62 27.85 203.8 26.36 203.65 25.25C202.77 18.66 202.45 12.05 202.66 5.41C202.69 4.44 202.66 3.47 202.07 2.5C202.07 9.93 201.96 17.37 202.15 24.8C202.19 26.47 202.62 27.81 200.41 27.99C198.42 28.16 196.64 27.95 196.68 25.3C196.81 17.61 195.93 9.84 198.63 2.3V11.63C198.96 11.63 199.3 11.65 199.63 11.66C199.63 7.88 199.63 4.1 199.63 0.32C204.45 0.3 209.37 -0.55 213.86 2.07C213.81 2.39 213.83 2.71 213.91 3.02C218.66 11.3 215.41 19.55 213.76 27.78C213.57 28.72 212.69 29.42 211.51 29.31L211.67 28.99L211.69 28.97Z" fill="#0F6572"/>
<path d="M161.63 0C163.47 4.13 162.81 8.53 162.43 12.72C162.07 16.66 161.6 20.59 161.69 24.55C161.75 27.04 160.85 28.26 158.21 28.05C155.48 27.83 155.51 26.01 155.9 24.13C157.55 16.16 157.83 8.11 157.67 0.01C158.99 0.01 160.31 0.01 161.63 0.01V0Z" fill="#0E6C78"/>
<path d="M189.65 0.18C189.65 8.15 189.65 16.12 189.63 24.09C189.63 25.91 189.88 28.01 187.1 27.96C184.27 27.92 184.63 25.72 184.72 23.97C185.1 16.05 183.68 8.07 185.58 0.21C186.94 0.2 188.29 0.19 189.65 0.18Z" fill="#106D7B"/>
<path d="M177.66 0.07C180.22 8.45 179.6 17.08 179.6 25.66C179.6 27.29 178.68 28.05 177.07 28.02C175.01 27.98 174.72 26.58 174.72 24.95C174.7 16.66 174.68 8.37 174.66 0.08C175.66 0.08 176.66 0.08 177.66 0.08V0.07Z" fill="#0E6A79"/>
<path d="M148.66 0.01C150.65 5.51 149.65 11.19 149.37 16.76C149.24 19.36 148.66 21.98 148.62 24.64C148.6 26.09 148.83 27.95 146.57 27.84C144.36 27.73 144.71 25.84 144.71 24.43C144.67 16.29 144.69 8.15 144.69 0.02C146.02 0.02 147.34 0.02 148.67 0.02L148.66 0.01Z" fill="#0C6F7D"/>
<path d="M155.67 0.02C155.58 7.96 156.21 15.93 154.64 23.82C154.25 25.8 154.05 28.28 151.34 27.8C148.79 27.34 149.68 24.87 149.92 23.23C151.01 15.53 151.89 7.82 151.7 0.02C153.02 0.02 154.35 0.02 155.67 0.03V0.02Z" fill="#0E6C7B"/>
<path d="M167.62 0C167.99 8.09 166.92 16.23 168.54 24.28C168.85 25.84 168.95 27.76 166.46 27.97C163.72 28.19 163.65 26.34 163.66 24.39C163.68 16.27 163.69 8.14 163.7 0.02C165.01 0.02 166.32 0.01 167.63 0L167.62 0Z" fill="#126C7B"/>
<path d="M172.67 0.05C173.21 7.98 174.05 15.9 173.62 23.87C173.54 25.38 174.3 27.7 171.84 27.8C168.92 27.92 169.79 25.35 169.7 23.72C169.37 17.44 170.26 11.11 168.8 4.87C168.42 3.23 168.86 1.57 169.66 0.05C170.66 0.05 171.67 0.05 172.67 0.05Z" fill="#11697A"/>
<path d="M183.65 0.1C183.65 8.08 183.68 16.06 183.61 24.04C183.6 25.38 184.25 27.64 182.11 27.58C180.05 27.53 180.71 25.3 180.69 23.93C180.54 15.98 181.17 8 179.65 0.11C180.98 0.11 182.32 0.11 183.65 0.1Z" fill="#0E6A79"/>
<path d="M212.61 200.01C215.54 213.27 219.15 226.44 220.46 239.98C221.87 254.53 215.43 266.42 206.08 276.98C203.99 279.34 201.83 281.65 199.7 283.98C190.7 276.46 182.66 268.05 175.97 258.4C173.79 255.26 172.93 251.51 171.83 247.9C170.58 241.54 170.79 235.22 172.41 228.95C174.64 222.79 179.34 218.5 183.75 214L183.63 214.01C186.4 211.1 190.53 210.78 193.73 208.7C197.85 207.4 200.15 203.56 203.76 201.52C206.58 199.92 209.3 198.47 212.61 200V200.01Z" fill="#F8E3CB"/>
<path d="M193.73 208.71C190.81 211.33 187.19 212.61 183.63 214.02C185.75 209.88 190.07 209.92 193.73 208.71Z" fill="#7E877F"/>
<path d="M172.41 228.96C171.88 235.27 171.48 241.58 171.83 247.91C171.4 247.93 170.96 247.94 170.52 247.96C170.81 241.69 169.86 235.34 171.6 229.15C171.84 228.97 172.11 228.91 172.4 228.96H172.41Z" fill="#65756D"/>
<path d="M195.64 14.81C195.64 17.8 195.47 20.8 195.69 23.77C195.89 26.45 194.03 27.54 192.24 27.65C190.04 27.78 190.58 25.44 190.75 24.17C191.68 17.41 191.66 10.63 191.66 3.84C191.66 2.64 191.85 1.42 193.39 1.28C195.23 1.12 195.59 2.4 195.6 3.85C195.62 7.5 195.6 11.15 195.6 14.8C195.6 14.8 195.61 14.8 195.62 14.8L195.64 14.81Z" fill="#126A78"/>
</svg>
