<svg width="221" height="425" viewBox="0 0 221 425" fill="none" xmlns="http://www.w3.org/2000/svg">
<path d="M9.10999 349.59C17.6 334.58 27.7 320.76 38.71 307.47C48.2 296.01 58.54 285.27 67.79 273.65C76.56 262.63 85.94 251.91 91.23 238.53C94.79 229.54 97.57 220.35 98.21 210.62C98.6 204.65 99.66 203.75 105.63 203.72C113.77 203.68 121.92 203.6 130.06 203.53C132.02 201.8 134.42 202.34 136.7 202.22C144.76 201.8 152.9 203.17 160.9 201.25C167.63 200.76 174.38 200.08 181.07 201.65C183.2 202.89 182.27 204.41 181.37 205.84C180.48 207.25 179.26 208.39 178.06 209.54C167.91 219.32 165.01 231.43 166.64 245.01C166.89 247.13 167.6 249.25 166.74 251.39C166.66 251.52 166.6 251.7 166.47 251.79C163.87 253.66 160.42 255.25 162.08 259.35C163.78 263.55 167.32 261.19 170.18 261.11C170.68 261.17 171.31 261.21 171.58 261.57C176.35 268.29 181.68 274.67 184.35 282.66C183.86 283.36 183.13 283.66 182.35 283.94C176.26 286.14 175.6 288.72 179.82 293.81C182.55 296.18 180.62 297.77 178.95 299.52C173.08 305.68 166.34 310.88 160.36 316.95C142.04 335.55 126.14 356.02 112.39 378.19C108.09 385.13 103.7 392.04 98.56 398.39C96.32 401.16 94.27 404.51 89.98 404.58C84.99 402.4 81.46 398.3 77.63 394.72C64.23 382.19 49.75 371.13 34 361.77C27.3 357.78 20.15 354.62 12.82 351.92C11.4 351.4 9.99003 350.94 9.09003 349.61L9.10999 349.59Z" fill="#0E5F6B"/>
<path d="M100.33 190.78C100.86 186.63 98.54 182.55 100.03 178.38C99.09 171.12 99.84 163.83 99.61 156.55C99.54 154.23 101.01 153.31 102.96 152.95C105.09 152.55 107.28 152.37 109.41 152.72C112.25 153.19 114.25 152.31 115.52 149.74C116.13 149.19 116.84 149.01 117.63 149.15C117.93 149.26 118.24 149.39 118.44 149.63C120.627 152.343 122.56 152.24 124.24 149.32C124.94 149.02 125.63 149.05 126.31 149.41C127.98 152.3 130.44 152.98 133.73 152.79C138.51 152.51 143.57 154.36 147.72 150.42C148.22 150.54 148.63 150.8 148.98 151.17C151.64 155.05 151.84 159.47 151.85 163.97C151.85 167.4 151.46 170.87 152.55 174.29C154.27 168.08 152.36 161.55 154.03 155.34C156.29 152.27 158.89 150.6 162.8 152.7C164.26 153.49 166.04 153.08 167.67 152.85C169.97 151.73 171.75 151.3 174.82 151.98C178.36 152.77 182.66 153.2 186.6 152.95C191.04 152.67 195.49 153.42 199.9 152.53C202.6 151.99 204.27 153.39 205.3 155.78C205.69 156.9 205.94 158.06 205.85 159.21C205.12 167.93 205.78 176.7 204.9 185.41C204.72 187.22 204.49 189.05 202.94 190.35C195.88 192.72 188.44 192.31 181.25 192.46C156.62 192.99 131.98 192.68 107.34 192.64C104.87 192.64 102.29 192.82 100.33 190.78Z" fill="#F46259"/>
<path d="M29.08 419.78C22.75 416.27 16.41 412.79 11.07 407.8C-3.74999 391.5 0.189981 371.11 7.03998 354.59C7.44998 353.6 8.29001 353.68 9.07001 353.5C11.91 352 14.23 353.89 16.55 354.86C35.95 362.96 52.8 375.03 68.7 388.58C74.27 393.33 79.45 398.5 84.91 403.37C86.28 404.59 87.75 405.74 87.75 407.83C84.84 413.57 79.19 415.73 73.9 418.29C71.54 419.43 68.92 420.02 66.52 421.15C55.23 424.15 43.94 426.2 32.54 421.64C31.3 421.14 30.12 420.6 29.07 419.79L29.08 419.78Z" fill="#082A44"/>
<path d="M99.19 83.34C99.41 71.52 98.79 59.76 97.28 48.03C96.92 45.27 97.01 42.46 96.89 39.67C96.53 38.65 96.57 37.73 97.5 37.01C99.25 35.84 101.27 35.73 103.26 35.76C131.36 36.27 159.43 34.03 187.53 34.73C189.69 34.78 191.86 34.77 193.99 35.17C195.62 35.41 197.17 36.02 198.82 36.22C204.97 36.97 205.9 37.79 205.96 43.81C206.08 54.37 206.18 64.94 205.92 75.5C205.19 79.4 205.71 83.3 205.92 87.21C206.08 90.28 206.39 93.44 204.85 96.35C203.89 97.75 202.43 98.12 200.86 98.23C195.55 97.18 195.2 96.71 194.55 89.55C195.05 87.34 193.51 86.03 192.3 84.59C191.33 82.37 191.42 79.96 191.08 77.63C190.91 76.2 191.44 74.57 189.92 73.51C187.43 72.81 187.22 69.08 184.13 69.19C183.18 69.07 182.4 68.66 181.82 67.89C181.87 65.05 180.05 63.54 177.83 62.32C176.91 61.57 176.45 60.11 174.84 60.4C169.61 61.14 165.22 58.87 160.84 56.55C160.56 55.44 160.36 55.2 159.93 55.53C159.5 56.21 158.98 56.78 158.3 57.18C157.9 57.36 157.48 57.46 157.05 57.5C156.17 57.5 155.34 57.26 154.51 57.01C153.27 56.35 152.06 56.82 150.84 57.11C149.29 57.51 147.58 58.8 146.19 57.39C143.8 54.96 141.29 56.4 138.78 56.72C137.36 56.63 136.35 57.18 135.87 58.57C134.58 60.72 133.42 63.14 130.32 62.75C128.65 62.54 129.65 63.62 129.52 64.12C129.07 65.75 127.83 66.7 126.38 67.05C121.13 68.35 118.29 71.93 116.7 76.81C115.62 78.02 114.45 79.15 113.36 80.36C112.15 81.29 110.24 81.72 110.92 83.96C111.82 86.89 110.74 89.73 110.53 92.62C110.5 93.33 110.48 94.05 110.31 94.75C109.29 96.95 109.58 99.68 107.57 101.48C105.2 102.48 102.86 102.6 100.57 101.22C100.41 101 100.25 100.78 100.09 100.55C100.12 99.28 100.16 98.02 100.19 96.75C98.9 92.34 100.21 87.74 99.17 83.32L99.19 83.34Z" fill="#136870"/>
<path d="M114.09 0.720001C120.45 0.790001 126.81 0.859993 133.17 0.929993C134.38 2.03999 134.71 3.55001 134.48 5.01001C133.2 12.96 134.26 21.11 132.35 29C132.15 29.82 131.82 30.55 131.24 31.16C130.45 31.79 129.53 32.27 128.54 32.31C118.01 32.68 107.48 33.33 96.97 31.93C94.21 31.06 94.82 28.47 94.2 26.5C92.02 23.92 92.31 20.72 91.99 17.68C91.32 13.71 91.37 9.73 91.96 5.75C93.1 1.27 97.13 2.51001 100 2.01001C104.63 1.20001 109.39 1.10999 114.09 0.709991V0.720001Z" fill="#E45B60"/>
<path d="M100.33 190.78C133.96 191.19 167.58 191.02 201.19 189.78C202.01 189.75 202.83 189.52 203.64 189.38C205.79 189.06 206.5 190.64 207.29 192.14C207.9 194.19 208.57 196.25 206.2 197.72C202.05 199.17 197.66 199.1 193.4 199.39C170.17 200.95 146.89 200.76 123.62 200.59C121.63 200.58 119.59 200.5 118.08 198.86C113.78 198.79 109.44 198.29 105.21 198.77C100.46 199.3 99.46 197.28 100.1 193.26C100.23 192.45 100.26 191.62 100.33 190.79V190.78Z" fill="#0D2547"/>
<path d="M87.17 407.6C69.75 390.84 51.58 375.06 30.36 363.13C23.53 359.29 16.32 356.35 9.06 353.5C8.46 353.2 7.86001 352.9 7.26001 352.6C7.19001 352.32 7.15002 352.04 7.15002 351.76C7.80002 351.04 8.45999 350.32 9.10999 349.6C23.84 353.2 36.37 361.13 48.77 369.43C63.72 379.43 76.54 391.96 90.05 403.67C91.14 404.85 90.6 405.91 89.82 406.95C89.05 407.63 88.23 408.13 87.16 407.6H87.17Z" fill="#FBFBFA"/>
<path d="M118.08 198.86C141.53 198.36 165 199.3 188.43 197.69C194.57 197.27 200.71 196.86 206.84 196.45C210.2 197.85 208.77 199.6 207.21 201.38C200.21 204.11 192.77 203.72 185.48 204.33C184.19 204.44 182.89 203.95 181.99 202.84C175.08 202.84 168.16 202.84 161.25 202.85C150.86 203.37 140.47 203.43 130.09 202.82C121.47 202.79 112.85 202.79 104.23 202.7C102.88 202.69 100.63 203.39 100.52 201.38C100.39 198.79 102.88 199.8 104.31 199.64C108.88 199.13 113.56 200.45 118.08 198.87V198.86Z" fill="#FCFCFB"/>
<path d="M116.47 149.68C116.6 153.96 115.48 156.78 110.45 154.53C107.78 153.34 105.21 155.42 102.36 154.34C100.81 153.75 100.1 156.07 100.11 157.93C100.15 164.75 100.07 171.58 100.03 178.4C98.0401 174.12 99.4 169.6 99.18 165.21C98.93 160.4 99.1401 155.57 99.1501 150.74C99.6501 149.49 99.96 148.13 101.22 147.33C105.41 146.14 109.58 147.33 113.76 147.52C115.05 147.58 116.38 147.96 116.48 149.69L116.47 149.68Z" fill="#ECDFDB"/>
<path d="M130.09 202.81C140.48 202.66 150.87 202.23 161.25 202.84C150.88 204.07 140.47 203.52 130.07 203.51C130.07 203.27 130.08 203.04 130.09 202.8V202.81Z" fill="#B6D9D1"/>
<path d="M133.98 0.94001C156.21 0.94001 178.44 0.849996 200.66 1.02C203.39 1.04 206.86 0.869993 208.1 4.60999C209.59 11.61 206.72 18.18 206.02 24.96C205.84 26.7 205.75 28.57 204.95 30.25C204.65 30.79 204.23 31.2 203.7 31.52C201.58 32.37 199.56 32.51 197.81 30.7C197.14 22.03 197.52 13.42 199.53 5.34003C197.08 13.43 197.88 22.21 197.24 30.88C195.92 31.95 194.52 31.97 193.07 31.17C191.1 25.15 192.8 19.04 192.99 13.01C193.06 10.65 193.28 8.09999 193.79 5.66999C192.58 13.3 192.63 21.03 192.04 28.7C191.96 29.73 191.77 30.68 190.91 31.37C184.69 33.32 178.49 33.47 172.3 31.27C170.89 29.15 171.45 26.73 171.66 24.54C172.3 17.61 172.32 10.6 173.57 3.73002C172.67 5.84002 172.61 8.15002 172.55 10.51C172.39 17.41 171.67 24.26 171.02 31.13C166.39 33.36 161.77 33.38 157.14 31.13C155.98 27.58 156.43 23.88 156.69 20.32C157.06 15.36 157.67 10.4 157.71 7.31C158.01 10.9 156.89 16.26 156.56 21.69C156.37 24.81 157.09 27.98 156.1 31.06C148.22 33.67 140.32 33.43 132.41 31.26C131.92 24.73 132.32 18.16 133.03 11.71C133.42 8.12003 132.96 4.45001 133.98 0.94001Z" fill="#E55B5E"/>
<path d="M133.98 0.939991C133.73 10.85 133.51 20.76 132.16 30.61C131.79 30.92 131.43 30.92 131.08 30.57C131.78 20.69 132.48 10.82 133.18 0.939991C133.45 0.799991 133.71 0.799991 133.98 0.939991Z" fill="#AE3136"/>
<path d="M204.18 30.41C204.54 21.67 206.47 13.16 208.09 4.60999C208.38 4.71999 208.69 4.77999 209 4.79999L208.92 4.87C209.9 5.69 210.2 6.81 210.13 8C209.69 14.64 208.16 21.12 206.96 27.63C206.72 28.91 206.34 30.72 204.19 30.42L204.18 30.41Z" fill="#845053"/>
<path d="M182 202.83C190.34 202.05 198.68 201.26 207.02 200.48C209.36 200.27 210.25 201.96 210.86 203.69C214.58 214.15 218.84 224.45 220.33 235.58C220.75 238.72 220.96 241.85 220.41 244.99C218.76 255.28 215.4 264.82 208.77 273.12C204.04 279.03 198.1 283.54 192.38 288.32C190.27 290.08 187.99 290.94 186.23 287.73C185.29 286.08 184 284.57 183.94 282.53C179.4 275.61 174.87 268.68 170.33 261.76C167.15 259.05 165.41 255.74 166.06 251.44C164.18 243.44 163.94 235.52 165.84 227.38C167.7 219.41 171.83 213.09 177.63 207.6C179.19 206.12 180.55 204.43 182 202.84V202.83Z" fill="#0F2A42"/>
<path d="M53.07 314.61C57.6 314.67 60.5899 317.64 60.4099 321.32C60.2099 325.34 57.74 327.29 53.94 327.48C50.28 327.67 47.13 324.42 47.45 320.79C47.78 316.98 49.84 314.71 53.07 314.61Z" fill="#F9F7F8"/>
<path d="M89.92 314.53C94.27 314.63 97.31 317.88 96.92 321.48C96.51 325.24 94.34 327.75 90.42 327.52C86.52 327.29 84.5 324.54 84.58 320.8C84.66 317.06 86.65 314.62 89.92 314.53Z" fill="#F9F7F7"/>
<path d="M101.18 257.02C100.69 261.08 99.04 263.63 94.93 263.71C90.91 263.78 88.57 261.52 88.44 257.73C88.32 253.93 90.48 251.5 94.55 251.42C98.52 251.35 100.58 253.52 101.19 257.02H101.18Z" fill="#FAF9FA"/>
<path d="M123.95 258.18C124.17 253.65 127.18 250.46 130.35 251.01C134.06 251.66 136.34 254.05 136.06 257.98C135.78 261.95 133.29 264.03 129.37 263.79C125.48 263.56 124.14 260.82 123.95 258.17V258.18Z" fill="#FAF9F7"/>
<path d="M109.23 295.32C105.83 295.08 103.42 293.25 103.46 289.47C103.5 285.94 105.38 283.44 109.2 283.18C112.68 282.94 116.03 286.32 115.95 289.77C115.87 292.96 113.12 295.35 109.24 295.33L109.23 295.32Z" fill="#F8F7F7"/>
<path d="M127.44 327.32C123.96 327.24 121.12 324.23 121.3 320.81C121.49 317.31 124.54 314.45 127.95 314.81C131.62 315.2 133.59 317.52 133.84 321.1C134.07 324.49 130.92 327.4 127.44 327.32Z" fill="#F8F8F8"/>
<path d="M150.95 289.45C150.61 292.63 148.96 295.08 145.18 295.31C141.69 295.53 138.95 292.57 139.05 288.99C139.15 285.45 142.05 282.52 145.31 282.67C148.36 282.8 150.97 285.78 150.94 289.45H150.95Z" fill="#F8F8F8"/>
<path d="M108.19 352.65C108.03 356.69 106.26 359.04 102.44 359.04C98.59 359.04 96.14 356.95 96.08 352.98C96.02 349.12 97.97 346.68 102.06 346.64C106.24 346.6 107.7 349.36 108.19 352.66V352.65Z" fill="#FBFAFB"/>
<path d="M73.39 352.1C73.28 356.24 71.79 358.91 67.56 358.93C63.77 358.95 61.53 356.73 61.58 353.1C61.63 349.32 64.01 346.9 67.87 346.74C71.56 346.59 73.08 349.02 73.39 352.11V352.1Z" fill="#FBF9F9"/>
<path d="M187.15 286.66C186.86 292.1 184.62 294.33 178.93 294.87C175.26 293.06 174.82 290.04 175.95 286.55C177.23 282.56 180.45 282.24 183.94 282.52C185.34 283.64 186.7 284.8 187.15 286.66Z" fill="#F9F9F9"/>
<path d="M80.18 290.11C79.82 293.48 77.45 295.2 73.89 295.21C70.39 295.23 67.7 292.09 68.04 288.61C68.39 285.07 70.53 283.36 74.01 283.37C77.57 283.37 80.34 286.26 80.18 290.11Z" fill="#FBF8F8"/>
<path d="M118.92 225.32C118.64 229.04 116.76 231.44 113.07 231.44C109.7 231.44 107.4 229.32 107.25 225.89C107.1 222.32 108.95 219.83 112.77 219.63C116.67 219.42 118.27 221.95 118.92 225.32Z" fill="#F7F8F8"/>
<path d="M154.14 224.09C154.25 228.37 151.5 231.5 148.13 231.34C144.53 231.17 143.03 228.84 142.84 225.43C142.62 221.6 144.58 219.26 148.17 219.06C151.79 218.86 153.85 221.17 154.14 224.09Z" fill="#F9F9F9"/>
<path d="M26.94 348.89C27.12 345.85 28.6 343.48 32.35 343.54C36.22 343.61 38.02 346.04 38.1 349.67C38.17 352.82 36.84 355.23 33.37 355.59C30.22 355.91 27.02 352.68 26.94 348.89Z" fill="#FAF9F8"/>
<path d="M90.24 385.41C89.88 389.08 88.22 391.11 84.82 390.95C81.16 390.78 78.96 388.57 78.92 384.95C78.88 381.6 81.23 379.78 84.36 379.78C88.07 379.78 89.86 382.22 90.25 385.41H90.24Z" fill="#FAFAFA"/>
<path d="M166.05 251.43C167.47 254.87 168.89 258.31 170.32 261.75C167.68 264.23 164.69 264.47 161.76 262.59C159.05 260.86 159.62 257.87 160.13 255.39C160.74 252.45 163.02 251.18 166.05 251.43Z" fill="#F9FAF9"/>
<path d="M101.04 148.1C100.12 146.78 100.26 145.27 100.26 143.79C100.26 129.41 100.29 115.03 100.3 100.65C102.86 100.77 105.42 101.1 107.93 100.3C111.07 100.99 114.48 99.78 117.46 101.65C118.46 102 119.48 102.3 120.52 102.53C122.18 103.07 123.98 102.76 125.64 103.34C130.88 107.02 133.47 112.73 136.7 117.92C137.54 119.27 138.59 121.21 136.94 122.44C135.47 123.54 134.45 121.35 133.11 120.87C132.25 120.56 131.41 119.89 130.81 118.95C131.15 119.79 131.88 120.23 132.48 120.49C143.91 125.32 146.14 136.44 150.14 146.32C150.85 148.07 151.35 150.39 148.18 150.74L148.02 150.64C144.86 148.13 141.61 150.71 138.49 150.85C135.58 150.98 132.94 151.83 130.2 150.08C128.98 149.3 127.28 150.68 125.89 149.72C125.41 149.7 124.93 149.67 124.45 149.65C122.18 149.87 119.9 150.11 117.63 149.66C117.24 149.66 116.84 149.66 116.45 149.66C112.76 147.68 108.63 148.49 104.78 148.4C103.59 148.37 102.27 147.49 101.02 148.08L101.04 148.1Z" fill="#EA9934"/>
<path d="M148.2 150.75C150.46 149.85 149.18 148.07 148.82 146.96C146.56 140.04 143.72 133.28 139.84 127.15C137.46 123.39 132.83 121.81 129.27 119.17C128.51 118.61 127.48 118.31 127.11 116.25C130.57 118.45 133.53 120.33 137.78 123.03C133.77 115.31 129.76 109.27 125 103.7C127.31 101.89 132.87 102.08 135.26 104.04C138.96 114.88 145.5 124.41 149.5 134.58C149.74 125.36 148.76 115.67 150.02 106.01C151.01 104.16 152.11 104.25 153.3 105.82C153.82 107.3 154.95 108.13 156.37 108.65C156.66 109.02 156.86 109.42 156.98 109.87C155.79 116.58 155.45 123.36 155.6 129.57C159.12 122.46 163.72 115.23 167.88 107.75C168.79 106.11 170.01 104.76 172.03 104.48C173.05 104.38 174.01 104.55 174.88 105.12C176.55 106.87 175.36 108.49 174.64 110.14C173.56 112.58 171.07 114.52 172.9 117.86C173.72 119.35 171.53 119.77 170.4 120.25C167.71 121.39 165.85 123.09 166.24 126.26C166.43 127.8 165.77 128.81 164.69 129.69C158.74 134.57 155.96 140.82 156.6 148.54C156.99 150.78 156.42 152.78 155.07 154.57C155.11 160.19 155.37 165.82 155.09 171.42C154.97 173.8 156.99 178.1 152.72 178.13C148.94 178.16 150.7 174.01 150.36 171.68C150.03 169.41 149.92 167.02 150.21 164.75C150.84 159.86 148.61 155.45 148.18 150.76L148.2 150.75Z" fill="#092638"/>
<path d="M203.83 147.68C203.83 150 203.83 152.32 203.83 154.64C199.52 152.74 195.17 155.47 190.69 154.36C187.27 153.52 183.29 156.32 179.85 153.21C179.65 153.03 178.3 155.09 176.55 154.67C175.34 154.38 173.29 155.38 172.81 154.25C171.56 151.3 170.98 152.66 169.96 154.25C169.74 154.59 168.78 154.45 168.16 154.52C167.38 153.35 167.54 152.09 167.79 150.82C168.56 147.61 170.77 146.07 173.9 146.16C180.64 146.36 187.35 146.58 194.06 145.48C195.97 145.17 198.39 145.58 199.7 146.82C201.17 148.22 202.55 147.09 203.83 147.65V147.68Z" fill="#F2E7E3"/>
<path d="M125.91 149.73C126.89 149.16 127.8 148.37 128.86 148.05C131.52 147.24 132.86 149.45 134.54 150.82C135.95 148.94 137.36 146.77 139.99 149.07C141.45 150.35 141.13 148.12 142 148.28C144.17 148.68 147.47 146.15 148.04 150.64C146.85 154.62 142.9 156.1 136.53 154.53C134.86 154.12 133.63 154.04 131.93 154.58C127.68 155.92 126.17 154.52 125.91 149.73Z" fill="#EEDFD7"/>
<path d="M175.95 176.01C173.9 169.65 174.54 169.77 180.98 169.2C185.18 168.83 189.48 168.37 193.72 167.81C198.38 167.19 199.87 168.83 198.89 173.26C197.55 173.31 198.22 172.24 198.06 171.69C197.89 171.1 197.88 170.46 197.27 169.85C197.16 171.43 197.05 173 196.93 174.69C194.883 173.023 193.223 173.12 191.95 174.98C191.037 173.26 189.663 171.8 187.83 170.6C186.3 171.55 187.81 173.49 186.33 174.75C186.1 173.19 185.89 171.82 185.64 170.11C183.31 171.2 184.56 173.22 183.65 174.93C183.12 170.85 178.5 177.34 178.44 172.3C176.05 172.66 178.07 175.63 175.96 176.02L175.95 176.01Z" fill="#EF827A"/>
<path d="M168.98 151.53C168.7 152.54 168.42 153.55 168.14 154.55C163.79 155.58 159.43 153.21 155.07 154.55C154.71 152.32 154.6 150.09 155.09 147.86C161.53 144.43 167.03 145.88 168.98 151.52V151.53Z" fill="#F1D1BF"/>
<path d="M117.65 149.67C119.92 147.87 122.19 147.07 124.47 149.66C124.67 151.66 126.82 154.25 122.68 154.84C118.54 155.42 117.42 153.26 117.65 149.68V149.67Z" fill="#F3EEED"/>
<path d="M175.11 105.59C173.95 105.59 172.78 105.59 171.62 105.6C170.58 104.39 169.75 105.01 168.72 105.75C166.57 107.29 164.46 107.02 162.53 105.22C161.96 104.72 161.75 103.62 161.02 103.6C160.29 103.58 160.72 104.55 160.56 105.07C159.64 106.99 158.75 108.96 156.07 108.65H156.11C154.89 108.06 154.47 106.14 152.65 106.54C152.03 106.16 152.1 104.61 150.77 105.43C149.63 107.03 148.32 106.76 146.95 105.79C146.12 103.42 144.95 104.33 143.75 105.47C140.16 106.66 137.19 104.86 134.14 103.47C131.14 105.47 128.07 104.22 125.01 103.69C123.31 104.78 121.63 104.92 119.99 103.57C119.52 102.1 118.87 101.16 117.38 102.67C115.61 102.79 114.09 101.19 111.97 102.61C110.38 103.67 108.75 102.09 107.96 100.31C106.47 98.06 108.51 96.53 109.1 94.7C109.46 94.2 110.5 94.7 110.49 94.07C110.48 93.57 109.62 93.2699 109.16 92.8499C108.83 89.5999 110.54 86.51 109.34 83.07C108.49 80.64 110.68 79.6799 113 79.7199C114.78 79.4599 114.94 77.57 116.09 76.67C116.25 71.29 119.16 67.66 124.44 66.24C128.71 65.1 129.01 64.51 126.65 60.52C130.99 63.03 133.25 61.13 134.83 57.73C136.31 57.59 136.88 55.8399 138.37 55.7199C141.29 55.3899 144.65 51.04 147.06 56.65C147.15 56.86 149.64 56.04 151.02 55.7C152.33 56.9 153.66 56.13 154.98 55.73C155.71 56.07 156.44 56.4 157.18 56.74C157.63 57.21 158 57.4 158.07 56.49C158.45 55.79 158.83 55.1 159.21 54.4C160.25 54.35 160.9 54.8 161.07 55.86C165.92 56.22 169.93 60.67 175.24 58.77C176.41 59.62 176.46 61.69 178.42 61.69C180.09 63.26 186.77 61.55 182.06 67.28C181.94 69.28 183.3 68.79 184.43 68.69C185.26 67.81 185.41 65.87 187.02 66.25C188.7 66.64 187.52 68.07 187.5 69.09C187.47 71.46 190.17 71.11 191.06 72.59C191 74.04 191.03 75.46 192.04 76.65C193.48 79.06 192.97 81.73 193.05 84.31C193.31 86.19 194.99 87.08 195.96 88.46C197.13 91.39 194.25 96.35 200.2 96.88C197.17 101.11 193.14 102.86 188.98 101.81C188.75 101.6 188.66 101.31 188.72 100.97C188.4 101.01 188.29 101.24 188.37 101.67C187.42 103.71 185.51 104.65 183.62 104.51C180.64 104.28 177.93 105.26 175.09 105.59H175.11Z" fill="#107A62"/>
<path d="M188.92 100.83C191.67 102.4 193.36 100.16 195.41 99.09C196.97 98.27 198.61 97.62 200.22 96.89C201.46 96.83 202.7 96.76 203.94 96.7C204.18 113.7 204.46 130.7 203.84 147.7C202.32 149.26 200.77 148.51 199.16 147.84C194.89 146.06 190.41 147.54 186.16 147.71C182.09 147.87 178.1 147.08 174.06 147.43C171.28 147.67 169.23 148.38 169 151.55C165.69 145.32 159.81 148.87 155.11 147.89C154.7 139.64 156.95 132.69 164.58 128.32C164.99 128.08 165.57 127.66 165.6 127.29C165.96 121.963 168.55 118.953 173.37 118.26C168.53 117.8 169 116.23 170.63 113.79C172.34 111.21 174.43 108.77 175.13 105.61C177.33 103.79 178.98 101.18 182.77 103.17C184.29 103.97 186.95 102.91 188.46 101.09C188.4 100.57 188.56 100.49 188.94 100.85L188.92 100.83Z" fill="#EB9A34"/>
<path d="M203.98 30.82C205.03 35.21 203.73 37.39 198.83 36.64C197.25 36.4 195.58 36.79 193.95 36.89C161.67 37.17 129.38 37.45 97.1 37.73C96.79 35.41 96.48 33.1 96.17 30.78C107.81 30.71 119.45 30.64 131.09 30.57C131.45 30.58 131.81 30.6 132.16 30.61C140.12 30.59 148.08 30.57 156.04 30.54C156.36 30.16 156.7 30.13 157.06 30.5C161.73 30.5 166.41 30.48 171.08 30.47C171.41 30.13 171.74 30.15 172.07 30.47C178.41 30.47 184.75 30.47 191.09 30.47C191.74 30.04 192.39 30.04 193.05 30.47C194.39 30.47 195.73 30.49 197.07 30.5C197.39 30.16 197.72 30.16 198.06 30.48C200.04 30.6 202.01 30.72 203.99 30.84L203.98 30.82Z" fill="#F7FCFB"/>
<path d="M109.15 92.84C111.25 91.91 112.53 92.8 113.25 94.77C113.4 95.17 113.45 95.94 113.25 96.08C111.35 97.3 110.6 94.85 109.09 94.7C109.11 94.08 109.13 93.46 109.15 92.85V92.84Z" fill="#B9DBCF"/>
<path d="M178.43 61.71C174.23 64.16 175.11 61.08 175.25 58.79C177.65 58.31 178.52 59.48 178.43 61.71Z" fill="#D6E8DD"/>
<path d="M192.05 76.65C188.68 76.03 188.27 74.7 191.07 72.59C193.51 73.43 193.52 74.86 192.05 76.65Z" fill="#B9D8CB"/>
<path d="M195.97 88.46C193.34 88.24 191.75 87.29 193.06 84.31C195.64 84.56 196.5 86.02 195.97 88.46Z" fill="#C3DCCD"/>
<path d="M116.08 76.66C116.38 79.03 116.94 81.65 112.99 79.71C113.41 78.08 113.99 76.6 116.08 76.66Z" fill="#C8E1D5"/>
<path d="M184.45 68.7C183.96 70.5 182.93 71.85 181.1 70.43C179.35 69.07 180.58 67.99 182.07 67.29C182.86 67.76 183.65 68.23 184.44 68.7H184.45Z" fill="#DBE9DD"/>
<path d="M158.08 56.5C159.26 57.16 160.33 57.93 159.64 59.49C159.29 60.28 158.41 60.78 157.66 60.26C156.33 59.35 156.93 57.98 157.19 56.75C157.51 56.74 157.8 56.65 158.08 56.51V56.5Z" fill="#D1E7DC"/>
<path d="M154.99 55.73C154.7 56.88 154.41 58.09 152.91 58.1C151.34 58.1 151.14 56.9 151.02 55.69C152.35 54.51 153.67 54.65 154.98 55.72L154.99 55.73Z" fill="#A6C2B8"/>
<path d="M138.37 55.71C138.09 57.96 137.16 59.08 134.83 57.72C134.87 55.03 136.12 54.5 138.37 55.71Z" fill="#C5DACE"/>
<path d="M161.08 55.87C160.46 55.38 159.84 54.9 159.22 54.41C159.32 52.94 159.85 51.6 161.52 52.57C163.48 53.71 162.33 54.9 161.08 55.86V55.87Z" fill="#DCF0E8"/>
<path d="M193.04 30.45C192.39 30.45 191.74 30.45 191.09 30.45C192.16 21.22 191.77 11.82 194.41 2.76001C193.07 11.96 193 21.2 193.05 30.45H193.04Z" fill="#B13435"/>
<path d="M172.07 30.46C171.74 30.46 171.41 30.46 171.08 30.46C170.62 21.2 172.12 12.1 173.76 3C173.2 12.15 172.63 21.3 172.07 30.46Z" fill="#B23336"/>
<path d="M198.05 30.45C197.72 30.45 197.39 30.47 197.06 30.47C196.97 21.58 196.58 12.66 199.79 4.04999C198.37 12.81 197.8 21.61 198.05 30.45Z" fill="#AE2C2C"/>
<path d="M157.06 30.49C156.72 30.5 156.38 30.52 156.04 30.53C155.48 21.91 156.96 13.41 157.56 4.85999C158.92 13.44 156.46 21.93 157.06 30.49Z" fill="#A82B2E"/>
<path d="M117.37 102.67C116.28 100.21 120.07 100.27 118.87 97.35C121.62 99.88 120.29 101.76 119.98 103.57C118.89 103.91 118.15 103.22 117.37 102.67Z" fill="#B9D6C7"/>
<path d="M147.13 104.34C148.06 105.65 149.5 105.26 150.77 105.44C150.77 116.91 150.77 128.38 150.77 140.66C145.08 128.86 139.64 117.64 134.29 106.39C133.9 105.58 134.17 104.45 134.14 103.47C136.07 102.94 137.87 101.78 139.53 104.42C140.47 105.9 142.46 104.95 143.96 104.35C145.02 103.77 146.08 103.6 147.14 104.35L147.13 104.34Z" fill="#EBA431"/>
<path d="M163.03 104.14C165.03 105.98 166.63 106.06 168.73 103.85C170.98 101.48 172.16 102.5 171.62 105.6C167.82 108.35 167.02 113.03 164.62 116.69C161.09 122.07 158.26 127.9 154.71 133.45C154.22 125.09 153.39 116.79 156.05 108.65C157.3 107.24 158.55 105.83 159.8 104.41C160.81 103.61 161.9 103.65 163.02 104.14H163.03Z" fill="#EEA235"/>
<path d="M152.64 106.54C153 105.39 153.39 104.19 154.98 104.78C157.03 105.54 155.91 107.3 156.1 108.65C155.06 109.13 154.49 110.89 153.16 110.31C151.3 109.49 152.55 107.86 152.64 106.55V106.54Z" fill="#E8C961"/>
<path d="M134.8 82.69C134.91 84.34 135.04 86.7 135.22 89.05C135.29 89.94 135.2 90.84 134.26 91.03C133.79 91.12 132.83 90.61 132.7 90.18C131.62 86.6 128.78 86.7 125.91 86.7C124.7 86.7 123.3 86.37 123.49 84.88C123.74 82.94 125.18 83.46 126.55 83.81C131.65 85.09 132.12 84.34 131.27 79.45C130.81 76.79 130.11 74.34 129.12 71.9C128.77 71.03 129 70.23 129.97 69.92C130.8 69.65 132 69.72 131.89 70.74C131.41 74.92 135.62 77.8 134.81 82.7L134.8 82.69Z" fill="#73A594"/>
<path d="M112.51 83.15C115.78 82.68 116.29 85.7 116.44 86.45C116.92 88.93 113.97 86.72 112.77 88.25C111.92 89.33 111.22 87.46 111.14 86.3C111.04 84.72 111.29 83.35 112.52 83.15H112.51Z" fill="#BADACC"/>
<path d="M174.66 72.08C173.44 71.95 172.58 70.9401 173.05 70.5301C174.8 68.9801 172.97 65.71 175.73 64.98C176.8 64.7 177.62 66.55 177.13 66.96C175.47 68.35 177.13 71.39 174.67 72.08H174.66Z" fill="#BED3C8"/>
<path d="M163.03 104.14C162 104.72 160.92 104.76 159.81 104.42C158.74 103.64 157.68 102.77 158.33 101.28C158.5 100.9 159.4 100.67 159.97 100.66C162.32 100.6 162.8 102.28 163.03 104.14Z" fill="#D3CFAA"/>
<path d="M168.6 78.83C166.93 78.64 166.64 77.32 166.59 76.03C166.55 75 167.11 74.02 168.33 74.21C169.78 74.44 170.54 75.4999 170.51 76.9699C170.49 78.1399 169.67 78.62 168.6 78.82V78.83Z" fill="#85B1A2"/>
<path d="M146.25 97.84C143.16 96.37 140.92 96 140.85 93.38C140.79 91.15 142.78 91.32 144.1 93.71C144.61 94.63 145.08 95.58 146.26 97.84H146.25Z" fill="#91B4A2"/>
<path d="M122.28 90.83C122.58 90.06 123.1 89.19 123.98 89.66C125.02 90.22 126.74 90.45 126.69 91.98C126.65 93.1 125.48 93.32 124.4 93.07C123.22 92.79 122.2 92.37 122.28 90.83Z" fill="#A7CABD"/>
<path d="M147.02 66.41C146.87 67.57 146.28 68.52 144.94 68.46C143.89 68.41 143.21 67.66 143.21 66.55C143.21 65.23 143.85 64.37 145.23 64.44C146.31 64.5 146.94 65.2 147.02 66.42V66.41Z" fill="#D6E7DD"/>
<path d="M147.13 104.34C146.07 104.89 145.01 104.86 143.95 104.34C143.55 102.52 143.85 100.8 146.04 101.01C148.02 101.21 147.88 102.84 147.13 104.33V104.34Z" fill="#CCD3B5"/>
<path d="M142.96 60.53C142.72 61.64 142.15 62.38 140.98 62.21C139.91 62.06 139.22 61.33 139.26 60.23C139.3 59.06 140.11 58.54 141.22 58.64C142.33 58.74 142.92 59.43 142.97 60.52L142.96 60.53Z" fill="#C1D6CB"/>
<path d="M180.96 75.67C180.65 76.74 180.16 77.83 178.98 78.16C177.82 78.48 177.12 77.71 177.1 76.57C177.08 75.21 177.99 74.51 179.24 74.34C180.12 74.22 180.8 74.61 180.96 75.67Z" fill="#C8DDD2"/>
<path d="M146.67 75.36C146.6 76.46 146.06 77.31 144.98 77.43C143.59 77.58 142.85 76.69 142.86 75.36C142.86 74.27 143.47 73.51 144.68 73.54C145.83 73.57 146.38 74.32 146.68 75.35L146.67 75.36Z" fill="#CEE5D2"/>
<path d="M154.99 78.19C154.79 79.04 154.37 79.77 153.42 79.7C152.04 79.6 151.45 78.6 151.57 77.35C151.66 76.47 152.43 75.97 153.35 76.14C154.44 76.33 154.99 77.08 154.99 78.19Z" fill="#B4CBBC"/>
<path d="M172.95 90.53C174.1 90.68 174.79 91.29 174.74 92.43C174.69 93.53 174.07 94.26 172.88 94.14C171.78 94.03 171.13 93.32 171.1 92.21C171.07 90.98 171.88 90.56 172.95 90.53Z" fill="#94BDAB"/>
<path d="M123.2 78.56C122.97 79.73 122.39 80.95 121.32 81.15C119.9 81.41 120.04 80.08 120.2 79.15C120.39 78.08 120.42 76.73 122.01 76.8C123.04 76.85 123.17 77.72 123.19 78.56H123.2Z" fill="#B5D7C2"/>
<path d="M163.2 90.3C162.97 91.7 161.88 92.06 160.73 92.11C159.85 92.15 159.19 91.59 159.27 90.61C159.39 89.18 160.45 88.75 161.65 88.8C162.48 88.83 163.14 89.33 163.2 90.31V90.3Z" fill="#97B8AA"/>
<path d="M152.32 91.44C152.71 90.45 153.37 89.63 154.45 90C155.32 90.3 156.17 91.07 155.81 92.2C155.56 92.96 154.92 93.62 154 93.43C152.98 93.22 152.35 92.53 152.33 91.44H152.32Z" fill="#BFD6CA"/>
<path d="M179.96 85.8C181.01 87.34 181.94 88.82 180.35 90.21C180.12 90.41 179.28 90.33 179.1 90.09C177.81 88.41 179.24 87.17 179.96 85.8Z" fill="#B2CAB8"/>
<path d="M182.51 84.17C181.32 84.26 180.97 83.5701 180.87 82.7101C180.75 81.6101 181.14 80.76 182.39 80.72C183.26 80.69 184.07 81.0601 184.08 82.0301C184.1 83.1201 183.26 83.72 182.51 84.17Z" fill="#C8E1CF"/>
<path d="M140.78 100.13C140.62 100.98 140.2 101.79 139.32 101.79C137.97 101.79 137.32 100.7 137.23 99.54C137.16 98.65 137.91 98.1 138.86 98.27C139.88 98.45 140.67 98.96 140.78 100.13Z" fill="#C8D6C7"/>
<path d="M128.84 76.88C128.8 78.07 128.08 78.61 126.99 78.69C126.05 78.76 125.38 78.27 125.33 77.33C125.26 76.17 125.95 75.52 127.1 75.49C128.01 75.47 128.61 75.97 128.84 76.88Z" fill="#CBDFD0"/>
<path d="M153.57 63.38C153.39 64.71 152.53 65.18 151.46 65.07C150.61 64.98 149.95 64.43 150 63.41C150.05 62.26 150.65 61.54 151.82 61.55C153.04 61.55 153.5 62.37 153.57 63.38Z" fill="#DAE9DF"/>
<path d="M162.89 76.03C162.8 76.97 162.22 77.6 161.35 77.54C160.16 77.47 159.09 76.88 159.17 75.49C159.22 74.6 159.98 74.13 160.91 74.29C161.9 74.46 162.8 74.81 162.9 76.03H162.89Z" fill="#C7DCCB"/>
<path d="M170.64 65.68C170.42 65.66 169.79 64.92 169.65 63.85C169.51 62.78 170.3 62.42 171.2 62.43C172.32 62.44 173.14 62.94 173.1 64.2C173.07 65.12 172.67 65.79 170.63 65.68H170.64Z" fill="#D4E8E1"/>
<path d="M137.82 73.2C139.14 73.43 139.51 74.34 139.49 75.34C139.47 76.55 138.59 77.04 137.51 76.83C136.68 76.67 136.06 76.07 136.18 75.11C136.31 74.09 136.75 73.29 137.82 73.2Z" fill="#CCE2D1"/>
<path d="M162.66 68.93C162.75 70.1 161.85 70.54 160.91 70.76C159.91 71 158.85 70.87 158.79 69.54C158.74 68.35 159.23 67.24 160.6 67.12C161.72 67.02 162.31 67.84 162.65 68.93H162.66Z" fill="#C7D8CD"/>
<path d="M140.01 68.4699C139.81 69.4099 139.16 69.88 138.28 69.83C137 69.75 136.06 69.06 136.22 67.67C136.34 66.72 137.25 66.51 138.11 66.62C139.18 66.76 139.9 67.3199 140.01 68.4699Z" fill="#E9F5E9"/>
<path d="M184.46 75C185.39 75.48 186.07 76.23 185.98 77.29C185.91 78.13 185.34 78.9 184.35 78.54C183.3 78.17 183.06 77.17 183.15 76.14C183.21 75.35 183.76 75.08 184.46 75Z" fill="#A4CCBE"/>
<path d="M188.92 100.83C188.74 100.87 188.58 100.95 188.44 101.07C186.99 100.1 186.74 98.8 187.56 97.33C187.92 96.69 188.69 96.62 189.2 97.1C190.61 98.41 190.06 99.66 188.92 100.83Z" fill="#DDF2E8"/>
<path d="M155.37 85.55C155.23 86.78 154.6 87.42 153.74 87.35C152.96 87.29 152.13 86.75 152.09 85.79C152.04 84.58 152.85 83.99 153.95 84.08C154.87 84.16 155.28 84.92 155.36 85.55H155.37Z" fill="#BCCEC0"/>
<path d="M191.25 89.45C191.15 90.61 190.45 91.55 189.53 92.12C189.07 92.4 188.16 91.68 188.3 91.02C188.56 89.85 188.53 88.29 190.18 88.06C190.98 87.95 191.08 88.79 191.25 89.46V89.45Z" fill="#BEDAC9"/>
<path d="M168.63 94.3C168.24 95.35 167.44 95.95 166.36 95.87C165.41 95.8 164.98 95.01 164.98 94.12C164.98 93.17 165.48 92.56 166.51 92.63C167.58 92.7 168.4 93.14 168.62 94.3H168.63Z" fill="#94BDAB"/>
</svg>
