<svg width="220" height="432" viewBox="0 0 220 432" fill="none" xmlns="http://www.w3.org/2000/svg">
<path d="M100.96 220.16C100.61 218.39 100.94 216.73 101.83 215.17C103.24 212.09 101.01 208.52 103.14 205.54C106.92 204.45 110.81 204.75 114.55 205.25C122.03 206.24 129.52 206.09 137 205.99C158.49 205.71 179.93 207.72 201.43 207.06C203.26 207 205.1 207.13 206.83 207.85C208.87 208.81 209.55 210.77 209.92 212.7C212.14 224.39 215.84 235.71 218.38 247.34C222.16 264.68 216.24 278.62 204.66 290.83C201.43 294.23 198.78 298.58 193.67 299.74C191.48 299.57 190.15 298 188.77 296.59C178.53 286.17 167.76 276.31 156.89 266.55C155.13 264.97 153.62 263.22 153.55 260.66C154.22 255.9 155.56 251.24 155.17 246.33C154.64 239.56 152.31 233.71 147.09 229.2C140.49 223.51 134.54 225.15 131.88 233.38C131.52 234.49 131.31 235.64 130.94 236.75C130 239.4 128.45 241.62 125.55 239.38C117.32 233.03 108.76 227.1 101 220.16H100.96Z" fill="#D24F50"/>
<path d="M211.6 2.38C212.96 12.19 211.27 21.78 209.55 31.38C207.44 33.06 204.92 33.01 202.43 33.02C170.24 33.03 138.06 33.04 105.87 33.02C103.72 33.02 101.54 33.06 99.5501 32.01C97.1901 30.51 99.03 27.8 97.82 25.96L97.86 26.02C96.32 22.43 98.13 18.54 96.84 14.93C96.8 14.29 96.75 13.66 96.71 13.02C96.9 9.01002 94.1801 5.19002 95.9301 1.08002L95.8001 1.20001C99.4001 -0.489988 103.34 1.39002 106.99 0.150024C136.7 0.210024 166.41 0.150002 196.12 0.440002C201.28 0.490002 206.75 -0.539995 211.62 2.38H211.6Z" fill="#E15958"/>
<path d="M26.11 426.82C21.38 424.65 17.0101 421.86 12.7901 418.83C-1.79994 402.16 -2.28996 383.93 7.02004 364.77C8.42004 361.89 10.86 359.52 12.82 356.92C14.54 356.32 15.63 357.52 16.82 358.36C40.29 375.03 62.6001 393.08 82.4201 414.06C84.0601 415.79 86.51 417.16 86 420.2C82.24 425.81 75.97 427.34 70.2 428.99C57.36 432.67 44.28 432.98 31.25 429.51C29.34 429 27.35 428.6 26.1 426.82H26.11Z" fill="#D44E50"/>
<path d="M208.78 35.94C208.07 44.79 207.33 53.63 206.7 62.48C206.59 63.98 205.96 64.93 204.85 65.73C200.91 67.63 196.64 68 192.39 67.97C179.58 67.88 166.75 67.7 153.95 67.75C140.48 67.8 126.99 67.95 113.51 67.9C109.35 67.88 104.82 68.69 101.04 65.83L101.02 65.9301C99.3 62.2401 100.71 58.3401 100.27 54.5601C100.05 52.6501 100.67 50.6701 99.84 48.8101C99.98 48.5501 99.9699 48.3001 99.8199 48.0501C98.3499 44.3701 100.05 40.43 98.88 36.72L99.03 36.2901C99.23 36.0201 99.42 35.75 99.61 35.48C101.79 33.89 104.34 34.0501 106.82 34.0501C138.29 34.0201 169.76 34.0301 201.23 34.0501C203.89 34.0501 206.61 33.93 208.78 35.94Z" fill="#CF494B"/>
<path d="M33.72 331.86C35.93 325.67 39.23 320.31 45.03 316.82C50.48 313.07 56.92 312.74 63.13 311.85C67.09 311.28 68.4199 314.11 68.4399 317.47C68.4899 323.97 69.72 330.39 69.66 336.91C69.61 341.85 70.26 342.39 75.23 342.11C80.55 341.82 85.84 341.18 91.13 340.57C98.36 339.74 100.39 341.32 101.29 348.65C101.96 354.11 101.43 359.62 102.19 365.1C102.76 369.24 104.49 370.33 108.51 369.72C116.56 368.51 124.47 366.31 132.67 366.13C134.91 366.93 134.75 368.69 133.82 370.15C127.59 379.93 121.01 389.45 111.92 396.89C111.4 397.31 110.71 397.4 110.04 397.44C108.09 397.11 106.86 395.7 105.61 394.39C85.29 372.97 62.82 354.07 38.63 337.16C36.67 335.79 34.16 334.73 33.72 331.86Z" fill="#F8DCC9"/>
<path d="M78.87 272.87C80.06 269.47 82.11 266.64 84.7 264.18C86.43 263.88 87.5001 262.47 88.9201 261.64C89.7601 261.15 90.66 260.4 91.64 261.1C92.62 261.8 92.32 262.89 91.99 263.83C91.33 265.75 90.43 267.68 93.2 268.74C95.27 270.63 96.28 268.91 97.53 267.57C98.98 266 99.75 263.35 102.73 263.97C104.45 266.84 101.98 268.51 100.72 270.37C99.21 272.6 98.84 274.48 101.09 276.34C103.2 278.12 104.74 277.81 106.23 275.39C107.24 273.74 108.02 271.3 110.89 272.05C112.32 274.35 110.49 275.95 109.67 277.78C108.8 279.75 106.89 281.57 108.74 283.95C112.86 284.3 113.54 283.78 116.66 277.72C113.59 279.44 113.37 284.56 108.73 283.93C107.21 280.81 110.13 279.3 111.24 277.16C112.19 275.33 114.11 273.57 110.9 272.08C109.42 270.89 109.3 268.6 107.38 267.76C105.71 266.45 104.24 264.9 102.43 263.76C101.06 262.73 99.9099 261.44 98.4399 260.52C96.3899 257.51 91.62 256.73 91.52 252.11C92.65 249.48 93.77 246.85 94.9 244.22C97.83 243.5 99.48 245.75 101.28 247.24C123.96 265.87 146.37 284.83 168.3 304.34C171.93 307.57 176.51 310.06 178.5 314.94C177.76 318.78 176.22 321.73 171.54 321.19C169.91 320.6 168.59 319.52 167.27 318.43C166.89 318.11 166.58 317.71 166.2 317.4C164.16 315.72 162.49 313.02 160.07 312.55C157.01 311.95 156.53 315.87 154.57 317.44C153.44 318.35 152.52 319.71 150.75 318.97C149.11 315.78 152.11 314.24 153.29 312.1C154.47 309.97 155.91 308.05 153.04 306.18C152.66 305.93 152.31 305.63 151.98 305.32C149.77 302.87 148.84 304.91 147.59 306.46C145.9 308.55 145.59 312.19 141.7 311.91C140.26 309.63 141.84 307.87 142.72 306C143.61 304.11 145.28 302.58 145.14 300.24C142.71 303.59 138.91 306.47 141.44 311.56C143.13 312.57 144.94 313.42 146.22 314.99C146.7 315.41 147.15 315.85 147.63 316.27C148.83 317.14 149.92 318.16 151.02 319.16C154.67 321.13 156.67 324.95 160.12 327.14C161.53 328.38 163.27 329.29 164.13 331.09C163.42 336.01 160.49 338.97 155.85 340.42C150.88 337.91 147.42 333.53 143.36 329.94C129.06 317.32 114.25 305.31 99.6801 293.01C93.3401 287.66 87.34 281.94 81 276.6C79.86 275.64 78.81 274.54 78.86 272.85L78.87 272.87Z" fill="#11243B"/>
<path d="M53.76 307.82C54.48 302.21 59.68 299.46 62.02 294.89C66.73 295.65 69.74 299.23 73.08 302.01C91.31 317.18 110.03 331.76 128.12 347.11C131.04 349.59 133.79 352.22 136.32 355.08C137.6 356.53 139.19 358.16 137.1 360.23C128.42 364.58 118.95 365.48 109.53 366.44C106.12 366.79 104.58 364.47 104.02 361.24C102.89 354.8 102.97 348.31 102.92 341.82C102.88 336.72 102.49 336.37 97.39 336.88C90.93 337.52 84.56 338.78 78.04 339C74.32 339.13 72.45 337.69 71.92 334.08C71.43 330.78 70.94 327.5 70.96 324.15C70.97 321.15 71.0401 318.15 70.8101 315.16C70.1601 306.84 69.6 306.47 61.37 308.13C58.86 308.64 56.22 309.91 53.77 307.82H53.76Z" fill="#F8E2CE"/>
<path d="M101.04 65.83C135.64 65.95 170.25 66.52 204.85 65.73C206.18 67.45 205.19 67.8699 203.6 68.0699C201.98 68.2799 200.05 67.01 198.78 69.02C199.47 70.76 198.32 71.9199 197.31 72.9399C192.53 77.7899 187.97 82.85 183.37 87.87C179.56 92.02 177.32 91.94 173.26 88.09C168.32 83.4 163.66 78.42 158.74 73.7C154.92 70.03 153.07 69.93 149.63 73.91C145.06 79.2 140.06 84.07 135.36 89.22C132.78 92.05 130.54 92.05 127.65 89.84C123.12 86.39 119.29 82.2299 115.36 78.1899C111.19 73.8899 107.12 69.57 100.89 68.35C100.94 67.51 100.99 66.67 101.04 65.83Z" fill="#F9F9F7"/>
<path d="M137.58 358.95C127.73 347.57 115.64 338.71 104.07 329.26C90.0499 317.8 76.03 306.35 62.01 294.89C64.27 290.84 67 287.15 70.53 284.1C77.05 286.69 81.6 291.95 86.62 296.43C100.13 308.47 114.38 319.65 127.75 331.85C132.9 336.55 138.46 340.79 143.25 345.88C144.72 347.44 146.4 348.88 146.7 351.21C145.79 355.45 144 359.05 139.66 360.77C138.53 360.67 137.52 360.42 137.58 358.95Z" fill="#EF854D"/>
<path d="M100.9 68.36C105.76 67.57 109.22 69.3 112.56 73.11C117.59 78.84 123.56 83.7399 128.94 89.1899C131.04 91.3199 132.15 90.91 133.95 88.86C138.99 83.1 144.26 77.55 149.45 71.92C153.32 67.72 154.62 67.63 158.81 71.65C164.33 76.95 169.89 82.23 175.15 87.79C177.64 90.42 179.14 90.18 181.42 87.63C187.08 81.31 192.98 75.22 198.79 69.03C207.41 69.07 205.88 67.9199 205.73 76.9599C197.48 84.6699 189.65 92.7999 181.6 100.7C178.92 103.33 176.49 103.03 173.78 100.61C168.31 95.71 164.01 89.74 158.78 84.63C154.42 80.38 154.45 80.43 150.29 84.91C145.2 90.39 139.85 95.62 134.47 100.81C130.81 104.35 129.26 104.19 125.9 100.29C121.01 94.62 115.68 89.4099 110.06 84.4599C107.6 82.2899 105.06 80.93 101.84 80.74C101.57 77.39 102.15 73.9699 100.94 70.6999C100.93 69.9199 100.91 69.14 100.9 68.37V68.36Z" fill="#06172D"/>
<path d="M85.66 419.19C63.76 395.65 38.59 375.94 12.84 356.91C14.07 353.64 16.84 351.51 18.86 348.82C21.21 348.77 22.95 350.19 24.67 351.46C43.04 365.02 60.94 379.16 77.89 394.48C82.46 398.61 87.33 402.41 91.46 407.02C93.12 408.88 95.07 410.57 94.83 413.43C92.95 417.21 90.4301 419.98 85.6801 419.18L85.66 419.19Z" fill="#F0C66A"/>
<path d="M94.04 412.84C91.14 407.86 86.54 404.47 82.45 400.64C62.45 381.9 40.72 365.28 18.85 348.83C21.3 346.15 22.47 342.43 25.73 340.42C26.21 340.49 26.6501 340.66 27.0601 340.9C52.3601 358.57 75.79 378.5 98.12 399.76C99.79 401.35 101.67 402.82 102.45 405.16C101.28 410.47 98.37 413.12 94.04 412.83V412.84Z" fill="#052038"/>
<path d="M96 241.84C96.97 238.92 97.94 235.99 98.91 233.07C102.23 232.57 103.93 235.27 105.99 236.93C118.61 247.09 131.14 257.37 143.57 267.75C154.92 277.75 166.75 287.22 177.47 297.92C180.73 300.64 184.41 302.97 186.22 307.09C185.48 310.62 183.38 312.78 179.8 313.44C171.61 308.29 164.71 301.53 157.56 295.13C142.82 281.94 127.67 269.26 112.4 256.7C107.53 252.69 102.87 248.42 97.7 244.78C96.7 244.07 96.16 243.06 96 241.84Z" fill="#0C213D"/>
<path d="M137.58 358.95C138.22 359.44 138.86 359.94 139.51 360.43C139.35 364.19 137.81 366.77 133.72 367.15C124.12 368.77 114.5 370.28 104.93 372.07C101.46 372.72 100.7 371.5 100.57 368.28C100.25 360.49 99.44 352.72 99.05 344.93C98.92 342.33 98.12 341.58 95.51 341.89C87.93 342.79 80.26 343.06 72.75 344.34C68.42 345.08 68.02 343.1 67.88 339.99C67.54 332.19 66.95 324.39 66.97 316.59C66.97 312.8 65.66 312.62 62.59 313.32C56.78 314.65 50.9 315.67 45.05 316.82C48.22 314.07 49.12 309.13 53.77 307.82C57.75 306.95 61.74 306.11 65.72 305.2C69.49 304.34 71.83 305.2 72.05 309.61C72.46 317.91 73.13 326.19 73.54 334.49C73.66 337.04 74.3199 337.82 77.0699 337.42C85.1199 336.24 93.24 335.57 101.29 334.41C104.28 333.98 105.06 334.83 105.07 337.71C105.07 345.85 105.44 354 105.44 362.14C105.44 364.91 106.4 365.45 108.95 365.04C118.61 363.51 128.31 362.16 137.61 358.94L137.58 358.95Z" fill="#08112D"/>
<path d="M25.74 340.43C28.42 337.59 29.25 333.02 33.73 331.87C61.38 350.94 87.14 372.21 109.96 396.93C110.67 401.46 107.94 403.03 104.15 403.69C101.75 403.06 100.33 401.11 98.6899 399.5C80.6899 381.94 62.02 365.18 41.72 350.28C36.65 346.56 31.35 343.28 25.75 340.44L25.74 340.43Z" fill="#091F3A"/>
<path d="M103.21 199.21C103.27 198.87 103.15 198.61 102.85 198.43C104.14 195.59 102.02 192.23 104.23 189.53C104.75 189.28 105.29 189.16 105.86 189.16C110.79 189.88 115.75 189.39 120.69 189.52C121.46 189.52 122.24 189.38 123.01 189.5C123.5 189.51 123.99 189.53 124.49 189.54C125.2 189.54 125.92 189.47 126.64 189.51C127.33 189.55 128.02 189.57 128.71 189.58C129.38 189.58 130.06 189.58 130.73 189.58C131.4 189.58 132.06 189.58 132.73 189.58C133.39 189.58 134.05 189.58 134.71 189.58C135.37 189.58 136.02 189.58 136.68 189.58C137.34 189.57 137.99 189.58 138.65 189.58C139.09 189.57 139.52 189.58 139.96 189.58C140.83 189.58 141.71 189.58 142.58 189.58C143.02 189.56 143.46 189.57 143.89 189.57C144.77 189.53 145.64 189.52 146.52 189.57C146.96 189.56 147.4 189.57 147.84 189.57C148.5 189.57 149.16 189.57 149.82 189.57C150.48 189.57 151.15 189.57 151.81 189.57C152.48 189.56 153.15 189.57 153.82 189.57C154.5 189.56 155.18 189.57 155.86 189.57C156.55 189.56 157.25 189.56 157.94 189.55C158.41 189.54 158.88 189.53 159.35 189.52C160.77 189.34 162.2 189.45 163.62 189.52C164.57 189.49 165.52 189.41 166.47 189.52C167.18 189.53 167.89 189.54 168.59 189.54C169.3 189.54 170 189.54 170.71 189.54C171.42 189.54 172.14 189.54 172.86 189.54C173.6 189.54 174.34 189.54 175.08 189.54C175.86 189.54 176.64 189.56 177.42 189.62C178.26 189.68 179.05 189.93 179.84 190.17C188.65 191.03 197.49 190.06 206.31 190.67C208.38 194.12 209.14 197.64 206.8 201.3C205.26 202.14 203.57 201.97 201.92 201.97C174.34 201.93 146.75 202.04 119.17 201.9C113.76 201.87 108.21 202.01 103.23 199.19L103.21 199.21Z" fill="#081833"/>
<path d="M146.13 351.08C138.79 342.39 129.74 335.54 121.22 328.15C104.76 313.87 88.04 299.9 71.45 285.78C71 285.4 70.84 284.67 70.54 284.1C72.34 281.63 74.1401 279.15 75.9301 276.68C78.0401 276.47 79.26 277.96 80.55 279.2C100.67 298.51 122.28 316.1 143.52 334.13C147.03 337.11 151.47 338.98 154.15 342.96C152.55 348.5 150.31 350.76 146.13 351.07V351.08Z" fill="#081C3B"/>
<path d="M103.21 199.21C135.3 199.83 167.39 200.62 199.49 200.16C201.95 200.12 204.44 199.72 206.78 200.89C210.68 203.15 209.79 205.9 207.58 208.78C178.85 209.51 150.14 207.74 121.41 207.68C115.4 207.67 109.15 207.75 103.17 206.08C101.18 204.15 102.53 202.02 102.8 199.96C102.89 199.68 103.02 199.43 103.21 199.21Z" fill="#ECB559"/>
<path d="M204.54 151.2C204.82 154.27 205.18 157.34 204.31 160.39C202.38 162.08 200 161.97 197.69 161.97C168.46 162.01 139.23 162.01 110 161.97C107.69 161.97 105.31 162.1 103.35 160.46C103.16 158.97 102.97 157.49 102.78 156C103.38 154.64 102.55 152.98 103.66 151.72C104.62 150.68 105.88 150.53 107.19 150.55C107.69 150.54 108.19 150.54 108.68 150.54C109.66 150.48 110.64 150.46 111.61 150.54C112.33 150.54 113.05 150.54 113.76 150.54C114.7 150.48 115.65 150.46 116.6 150.54C117.3 150.54 118 150.54 118.7 150.54C119.63 150.51 120.56 150.44 121.49 150.54C121.95 150.54 122.41 150.54 122.87 150.54C123.79 150.47 124.71 150.5 125.63 150.55C126.32 150.55 127 150.55 127.69 150.55C128.37 150.55 129.06 150.55 129.74 150.55C130.42 150.55 131.1 150.55 131.78 150.55C132.68 150.52 133.59 150.46 134.49 150.55C134.94 150.55 135.39 150.55 135.84 150.55C136.74 150.52 137.64 150.48 138.54 150.55C138.99 150.55 139.44 150.55 139.89 150.55C140.79 150.49 141.69 150.5 142.59 150.55C143.04 150.55 143.49 150.55 143.94 150.55C144.84 150.48 145.75 150.52 146.65 150.55C147.33 150.55 148 150.55 148.68 150.52C149.35 150.46 150.03 150.55 150.7 150.56C151.37 150.56 152.04 150.56 152.71 150.53C153.38 150.48 154.04 150.56 154.71 150.57C155.37 150.57 156.04 150.57 156.7 150.54C157.37 150.49 158.03 150.56 158.7 150.56C159.14 150.55 159.59 150.56 160.03 150.56C160.92 150.48 161.81 150.55 162.7 150.56C163.37 150.56 164.04 150.56 164.71 150.52C165.38 150.46 166.06 150.55 166.73 150.56C167.4 150.56 168.08 150.56 168.75 150.56C169.42 150.56 170.1 150.56 170.77 150.56C171.44 150.56 172.12 150.56 172.79 150.56C173.69 150.53 174.59 150.48 175.48 150.56C175.93 150.56 176.38 150.56 176.83 150.56C177.73 150.52 178.63 150.5 179.53 150.56C179.98 150.56 180.44 150.56 180.89 150.56C181.81 150.5 182.72 150.52 183.63 150.56C184.1 150.55 184.56 150.55 185.03 150.54C185.97 150.43 186.92 150.52 187.86 150.54C188.34 150.54 188.82 150.54 189.29 150.54C192.16 150.49 195.03 150.72 197.89 150.35C198.35 150.25 198.81 150.21 199.28 150.22C200.99 150.74 202.92 150.1 204.52 151.2H204.54Z" fill="#0B0E24"/>
<path d="M204.52 164.82C204.94 166.88 205.37 168.95 205.79 171.01C206.72 172.6 206.05 173.74 204.77 174.72C202.13 175.98 199.34 175.8 196.55 175.54C195.77 175.49 194.98 175.47 194.19 175.47C193.43 175.47 192.67 175.47 191.91 175.46C191.17 175.46 190.43 175.46 189.69 175.46C189.2 175.46 188.71 175.46 188.23 175.46C186.3 175.51 184.36 175.69 182.43 175.48C181.96 175.48 181.48 175.46 181.01 175.45C180.31 175.45 179.62 175.45 178.92 175.43C178.24 175.43 177.57 175.43 176.89 175.41C176.24 175.41 175.58 175.39 174.93 175.33C174.3 175.29 173.69 175.17 173.08 175.02C172.1 174.78 171.11 174.71 170.1 174.7C168.87 174.56 167.66 174.35 166.42 174.43C165.35 174.5 164.29 174.58 163.22 174.57C161.93 174.9 160.65 175.29 159.3 175.35C158.85 175.38 158.4 175.39 157.95 175.39C157.05 175.39 156.14 175.36 155.24 175.27C154.79 175.24 154.34 175.16 153.89 175.06C153.44 174.98 153 174.84 152.58 174.68C149.57 174.19 146.57 174.28 143.57 174.91C143.31 174.93 143.06 174.93 142.79 174.94C142.52 174.92 142.26 174.88 141.99 174.85C141.72 174.79 141.46 174.71 141.2 174.65C131.77 174.22 122.34 174.59 112.92 174.47C112.12 174.47 111.31 174.47 110.5 174.46C109.73 174.46 108.96 174.46 108.19 174.46C107.69 174.52 107.19 174.52 106.69 174.46C105.95 174.4 105.2 174.35 104.48 174.16C103.75 173.9 103.21 173.43 102.84 172.76C102.97 170.22 103.11 167.68 103.24 165.14C104.63 163.59 106.46 163.65 108.31 163.71C132.23 164.4 156.15 164.02 180.07 163.89C186.02 163.86 191.96 162.77 197.96 163.04C200.27 163.14 202.66 162.97 204.51 164.8L204.52 164.82Z" fill="#041533"/>
<path d="M185.52 307.28L176.87 298.9C176.27 294.99 174.31 291.82 171.66 288.95C164.68 281.4 158.46 273.16 150.88 266.17C140.73 257.35 130.58 248.53 120.2 239.98C115.19 235.86 109.81 232.24 104.63 228.37C103.31 227.38 101.77 226.63 101.09 224.98C100.08 223.4 101.11 221.77 100.98 220.18C110.19 224.3 117.22 231.45 125.06 237.48C126.72 238.76 128.48 240.6 129.59 236.96C132.05 235.62 132.63 237.69 133.56 239.13C134.38 241.31 135.4 243.39 137.25 244.87C142.39 248.98 146.86 253.83 151.9 258.05C153.01 258.8 153.6 260.02 154.51 260.95C155.18 263.8 157.68 265.1 159.58 266.91C170.77 277.59 182.77 287.42 192.93 299.17C192.31 304.04 190.26 306.29 185.54 307.3L185.52 307.28Z" fill="#F0C769"/>
<path d="M153.73 342.99C143.85 337.39 135.76 329.49 127.15 322.26C109.65 307.55 92.1201 292.86 75.9301 276.67C76.9901 275.47 77.2 273.6 78.88 272.87C95.65 287.17 112.4 301.5 129.21 315.75C138.43 323.57 147.73 331.29 156.16 340C156.26 341.74 155.39 342.68 153.73 342.99Z" fill="#FA8F58"/>
<path d="M204.52 164.82C197.74 165.89 190.9 165.35 184.09 165.49C157.14 166.04 130.19 166.31 103.25 165.17C102.85 163.59 102.83 162.02 103.36 160.47C126.91 160.34 150.46 160.17 174.01 160.1C184.11 160.07 194.23 159.25 204.31 160.4C204.37 161.88 204.44 163.35 204.51 164.83L204.52 164.82Z" fill="#E86F41"/>
<path d="M101.08 224.96C110.03 229.2 117.37 235.78 124.92 241.94C134.05 249.39 142.71 257.4 151.57 265.16C150.29 270.31 146.04 268.39 142.79 268.86C128.57 257.2 114.34 245.53 100.12 233.87C99.7501 233.56 99.3101 233.33 98.9001 233.06C98.4401 230.04 99.3 227.37 101.07 224.95L101.08 224.96Z" fill="#EF6951"/>
<path d="M96 241.84C125.18 264.16 152.16 289.08 180.13 312.84C180.54 314.57 180.07 315.54 178.09 315.2C156.43 295.64 134.55 276.33 111.85 257.97C106.19 253.4 100.55 248.81 94.9 244.22C95.26 243.43 95.63 242.63 95.99 241.84H96Z" fill="#F6C974"/>
<path d="M92.76 268.91C89.05 269.7 88.3 268.28 89.73 265.01C90.28 263.74 91.88 262.92 91.53 261.3C88.68 261.08 89.32 268.53 84.71 264.19C86.98 260.16 89.26 256.14 91.53 252.11C93.03 253.89 94.3 255.79 96.62 256.83C97.61 257.27 99.55 258.05 98.62 260.1C98.98 264.58 96.25 267 92.76 268.92V268.91Z" fill="#87EDEC"/>
<path d="M102.85 172.77C103.46 172.89 104.07 173.01 104.69 173.13C107.08 178.72 107.31 184.29 104.53 189.83C101.85 192.29 104.34 195.74 102.86 198.43C102.86 189.88 102.86 181.32 102.85 172.77Z" fill="#BAD6D1"/>
<path d="M99.85 48.8C101.51 54.42 100.38 60.2301 101.02 65.9301C98.41 60.3701 100.27 54.51 99.85 48.8Z" fill="#BAD6D1"/>
<path d="M102.81 199.96C102.93 202 103.05 204.04 103.17 206.08C102.21 209.03 103.36 212.3 101.83 215.17C102.18 210.1 100.65 204.91 102.8 199.96H102.81Z" fill="#BAD6D1"/>
<path d="M95.9301 1.07001C96.1901 5.05001 96.45 9.03001 96.71 13.01C96.06 9.06001 93.3101 5.24001 95.9301 1.07001Z" fill="#BAD6D1"/>
<path d="M98.8901 36.72C100.38 40.4 99.77 44.25 99.83 48.05C97.73 44.42 99.1201 40.51 98.8901 36.72Z" fill="#BAD6D1"/>
<path d="M96.8399 14.92C98.1699 18.53 97.6999 22.3 97.8599 26.01C95.6499 22.48 97.1999 18.61 96.8399 14.92Z" fill="#BAD6D1"/>
<path d="M97.8199 25.95C99.0799 27.5 98.47 29.46 99 31.17C100.42 32.78 100.15 34.48 99.26 36.22L99.03 36.29C96.6 33.08 98.1799 29.4 97.8199 25.95Z" fill="#BAD6D1"/>
<path d="M101.84 80.72C104.63 78.25 106.65 78.85 109.3 81.52C115.49 87.77 122.1 93.61 127.86 100.28C129.83 102.56 131.11 102.83 133.3 100.4C139.08 93.99 145.31 87.99 151.02 81.52C153.57 78.63 155.02 78.75 157.49 81.52C162.46 87.1 167.76 92.38 172.93 97.77C178.71 103.8 177.14 102.84 182.13 98.04C187.64 92.74 192.98 87.28 198.48 81.97C200.6 79.92 202.58 77.58 205.72 76.95C205.38 89.34 205.04 101.72 204.7 114.11C202.7 116.03 200.17 115.99 197.67 116C168.37 116.03 139.08 116.03 109.78 116C107.27 116 104.74 116 102.78 114.04C102.67 102.93 101.23 91.86 101.84 80.74V80.72Z" fill="#FAF5F3"/>
<path d="M204.28 125.95C204.39 129.01 204.5 132.06 204.62 135.12C203.23 136.57 201.31 136.4 199.57 136.82C199.03 136.87 198.5 136.83 197.98 136.72C194.75 136.23 191.49 136.57 188.25 136.48C184.29 136.48 180.34 136.48 176.39 136.48C172.64 136.57 168.88 136.23 165.13 136.7C164.87 136.76 164.61 136.81 164.36 136.87C163.84 136.96 163.32 136.97 162.79 136.94C161.75 136.94 160.76 136.56 159.73 136.5C156.65 136.44 153.58 136.47 150.5 136.5C149.75 136.56 149.01 136.59 148.26 136.5C147.54 136.48 146.82 136.47 146.1 136.48C145.4 136.56 144.7 136.5 144.01 136.46C143.56 136.46 143.1 136.46 142.64 136.46C141.74 136.5 140.84 136.51 139.94 136.46C139.49 136.47 139.04 136.46 138.59 136.46C137.69 136.52 136.79 136.51 135.9 136.46C135.45 136.47 135 136.46 134.55 136.46C133.65 136.54 132.74 136.49 131.84 136.46C131.16 136.46 130.48 136.46 129.8 136.46C129.12 136.46 128.43 136.46 127.75 136.46C127.07 136.46 126.38 136.46 125.7 136.46C124.78 136.51 123.87 136.54 122.95 136.47C122.49 136.47 122.03 136.47 121.57 136.47C120.64 136.56 119.72 136.5 118.79 136.47C118.09 136.47 117.39 136.47 116.69 136.47C115.75 136.54 114.81 136.54 113.86 136.47C113.14 136.47 112.43 136.47 111.71 136.47C110.74 136.54 109.76 136.54 108.79 136.47C108.29 136.47 107.79 136.47 107.29 136.47C105.69 136.55 104.22 136.3 103.13 134.98C103.17 132.21 103.21 129.45 103.24 126.68C105.46 124.72 108.21 125.06 110.82 125.05C126.74 125 142.67 124.77 158.58 125.11C171.37 125.39 184.07 123.73 196.83 124.07C199.44 124.14 202.21 123.72 204.29 125.95H204.28Z" fill="#091529"/>
<path d="M102.77 114.03C136.75 114.06 170.72 114.08 204.7 114.11C204.58 116.77 204.47 119.44 204.35 122.1C202.57 124.06 200.17 123.94 197.86 123.95C168.45 124.03 139.04 124.02 109.63 123.98C107.32 123.98 104.93 124.06 103.08 122.23C102.97 119.5 102.87 116.76 102.76 114.03H102.77Z" fill="#060D26"/>
<path d="M103.09 122.23C128.04 122.07 152.99 121.86 177.94 121.76C186.75 121.73 195.55 121.97 204.36 122.09C204.33 123.38 204.31 124.66 204.28 125.95C196.51 126.95 188.7 126.38 180.92 126.44C155.02 126.65 129.12 126.62 103.22 126.68C103.18 125.19 103.14 123.71 103.1 122.22L103.09 122.23Z" fill="#EC6F52"/>
<path d="M103.1 134.98C104.62 135.05 106.13 135.11 107.65 135.18C110.14 140.71 110.09 146.25 107.69 151.79C106.35 151.77 105.01 151.75 103.67 151.73C103.48 146.15 103.29 140.56 103.11 134.98H103.1Z" fill="#6CE2DF"/>
<path d="M154.49 260.93C152.07 262.06 152.46 259.52 151.55 258.68C150.09 256.88 150.97 254.87 151.08 252.96C151.39 247.26 150.9 241.71 147.85 236.72C146.08 233.83 143.73 231.22 140.05 231.42C136.76 231.6 135.74 234.61 134.59 237.18C134.12 238.22 133.77 239.36 132.58 239.87C131.55 238.92 131.64 236.81 129.57 236.93C130.03 234.84 130.24 232.65 131.01 230.69C133.37 224.67 138.98 222.47 144.71 225.48C152.62 229.64 155.95 236.81 156.68 245.35C157.14 250.67 156.49 255.91 154.48 260.92L154.49 260.93Z" fill="#EEE58E"/>
<path d="M99.26 36.22C98.63 34.57 98.69 32.87 98.99 31.17C134.19 31.17 169.38 31.18 204.58 31.2C206.24 31.2 207.9 31.31 209.55 31.37C209.29 32.89 209.04 34.4101 208.78 35.9301C174.1 35.9701 139.41 36 104.72 36.05C102.9 36.05 101.08 36.16 99.25 36.21L99.26 36.22Z" fill="#EFE08C"/>
<path d="M199.47 135.71C201.05 134.33 202.92 135.44 204.62 135.12C204.59 140.48 204.57 145.84 204.54 151.2C202.88 151.65 201.21 152.73 199.54 151.2C199.61 150.98 199.68 150.76 199.74 150.53C202.25 146.05 201.95 141.52 199.98 136.96C199.68 136.59 199.5 136.18 199.46 135.7L199.47 135.71Z" fill="#3DA3A0"/>
<path d="M150.78 319.12C154.02 317.46 155.34 314.12 157.33 311.41C158.58 309.7 159.46 309.02 160.88 311C162.81 313.7 166.87 314.3 167.75 318.03C167.73 318.26 167.7 318.49 167.68 318.72C165.51 321.92 162.85 324.72 160.44 327.74C160.23 327.83 160.01 327.91 159.8 328C156.14 325.69 152.18 323.68 150.89 319.02L150.77 319.14L150.78 319.12Z" fill="#80F7EF"/>
<path d="M101.72 276.69C96.26 275.79 95.73 274.67 98.7 270.55C100.22 268.45 102.3 266.7 102.91 264L102.79 264.12C105.83 262.63 106.65 264.98 107.69 266.95C107.69 267.18 107.69 267.41 107.7 267.64C106.75 270.78 104.47 273.15 102.84 275.9C102.53 276.25 102.15 276.52 101.72 276.69Z" fill="#61F6EF"/>
<path d="M138.54 295.51C139.91 295.32 139.83 292 142.29 293.94C144.53 295.7 142.99 297.03 142.15 298.51C141.02 300.52 139.96 302.57 138.69 304.49C137.96 305.6 137.94 308.01 136.07 307.39C134.14 306.75 133.11 304.87 133.92 302.58C133.86 299.18 135.45 296.85 138.54 295.51Z" fill="#95F9F1"/>
<path d="M150.9 319C148.98 319.31 147.7 318.24 146.49 316.99C146.37 311.46 150.25 308.33 153.69 304.94C157.47 306.39 158.11 308.33 155.4 311.72C153.62 313.95 151.21 315.97 150.78 319.11L150.9 318.99V319Z" fill="#9BF7E9"/>
<path d="M141.58 312.06C138.21 310.31 137.04 308.25 139.95 304.87C141.54 303.02 142.46 300.6 143.71 298.45C144.29 297.46 144.87 296.16 146.29 297.33C147.35 298.2 148.77 298.86 147.61 300.88C145.49 304.59 142.62 307.92 141.47 312.16L141.58 312.06Z" fill="#87F7EC"/>
<path d="M141.47 312.16C144.78 310.04 145.74 306.23 147.89 303.29C148.49 302.48 148.41 300.47 149.85 301.05C151.26 301.62 153.42 302.44 152.24 304.92C151.41 309.36 148.14 312.35 145.73 315.85C144.04 314.93 142.71 313.6 141.58 312.06L141.47 312.17V312.16Z" fill="#8EF9EE"/>
<path d="M138.54 295.51C137 297.87 135.46 300.23 133.92 302.59C133.06 303.98 132.26 303.95 130.89 302.94C128.46 301.15 130.67 299.56 130.78 297.89C130.38 294.98 131.69 293.27 134.49 292.61C135.69 292.05 136.03 289.77 137.91 290.69C140.37 291.9 138.32 293.89 138.54 295.5V295.51Z" fill="#93F9F1"/>
<path d="M92.76 268.91C94.71 265.97 96.67 263.03 98.62 260.09C101.7 259.68 103.1 261.01 102.79 264.12L102.91 264C100.13 265.45 99.2 268.51 97.16 270.61C96.42 271.37 96.13 273 94.65 272.45C93.13 271.89 92.24 270.7 92.76 268.91Z" fill="#90F5F1"/>
<path d="M171.8 320.04C169.7 324.21 166.25 327.4 163.65 331.21C161.87 330.73 160.26 330.05 159.81 327.98L159.71 328.02C162 324.33 165.1 321.29 167.78 317.92L167.76 318.02C169.69 317.53 170.59 319.11 171.81 320.04H171.8Z" fill="#66F4ED"/>
<path d="M134.5 292.61C133.26 294.37 132.03 296.13 130.79 297.89C129.28 297.89 129.21 301.02 126.91 299.52C125.26 298.44 125.81 297.06 125.88 295.67C125.95 292.26 128.17 290.34 130.74 288.68C132.05 288.61 132.96 286.69 134.58 287.92C136.74 289.56 133.92 291.04 134.49 292.61H134.5Z" fill="#94F6F1"/>
<path d="M130.75 288.68C130.09 291.68 127.53 293.36 125.89 295.67C124.65 297.14 123.39 296.85 122.21 295.64C121.04 294.44 122.12 293.58 122.74 292.66C124.47 290.09 126.9 287.98 127.81 284.88L127.7 285C128.79 284.77 129.61 283.17 131.05 284.74C132.5 286.33 131.33 287.41 130.77 288.68H130.75Z" fill="#92F8F3"/>
<path d="M101.72 276.69L101.76 276.53C103.5 273.15 105.97 270.24 107.81 266.92L107.69 266.95C110.81 267.44 112 269.05 110.68 272.11L110.79 271.99C108.64 273.41 107.94 275.94 106.37 277.79C105.61 278.68 105.81 280.94 104.02 280.28C102.75 279.81 100.73 278.99 101.72 276.69Z" fill="#86F6F1"/>
<path d="M117.68 289.93C116.06 290.69 114.81 290.01 113.94 288.73C113.04 287.39 114.47 286.69 115.07 285.8C116.54 283.61 118.04 281.43 119.54 279.26C120.32 278.12 120.77 276.41 122.78 278.03C124.54 279.45 123.59 280.45 122.75 281.76C120.99 284.49 118.41 286.73 117.58 290.04L117.69 289.93H117.68Z" fill="#81F6F0"/>
<path d="M108.51 284.22C111.48 282.48 112.84 279.36 114.89 276.83C115.71 275.82 115.82 273.13 118.31 274.78C120.93 276.52 118.66 277.84 117.85 279.19C116.92 280.75 115.6 282.09 114.78 283.7C112.88 287.41 110.92 287.78 108.6 284.13L108.51 284.22Z" fill="#82F5F0"/>
<path d="M110.68 272.11C112.09 271.43 113.46 270.36 114.92 272.07C116.48 273.92 114.4 274.68 113.77 275.78C112.14 278.66 109.67 281.01 108.52 284.21C108.52 284.21 108.62 284.11 108.62 284.12C106.02 282.95 105.19 281.57 107.18 278.87C108.69 276.82 110.71 274.86 110.8 271.99L110.69 272.11H110.68Z" fill="#7BF6F1"/>
<path d="M117.58 290.03C120.73 288.72 121.33 285.24 123.52 283.12C124.36 282.31 124.26 280.15 126.18 280.87C128.1 281.59 128.1 283.28 127.68 284.99L127.79 284.87C125.01 286.2 124.14 289.25 122.09 291.23C121.34 291.95 121.16 293.52 119.72 293.24C117.96 292.9 117.79 291.38 117.68 289.92L117.57 290.03H117.58Z" fill="#8BF7F0"/>
<path d="M145.73 315.85C147.37 311.89 149.95 308.5 152.24 304.92C152.72 304.92 153.21 304.93 153.69 304.94C152.3 309.56 148.37 312.66 146.49 316.99C146.24 316.61 145.99 316.23 145.73 315.85Z" fill="#1F6C68"/>
<path d="M104.19 403.03C103.88 404.14 103.31 404.99 102.1 405.24C79.33 384.1 56.18 363.4 30.86 345.28C28.98 343.94 26.03 343.51 25.73 340.43C28.86 340.27 31.55 341.36 34.09 343.11C59.55 360.64 82.5601 381.02 104.18 403.03H104.19Z" fill="#F7A063"/>
<path d="M142.79 268.87C145.17 266.34 149.45 268.31 151.57 265.17C157.21 268.59 160.28 274.53 164.92 278.96C168.71 282.58 171.63 287.1 175.26 290.9C177.65 293.4 178.41 295.81 176.85 298.9C165.49 288.89 154.14 278.88 142.78 268.88L142.79 268.87Z" fill="#F3914D"/>
<path d="M107.81 173.16C108.48 173.21 109.16 173.26 109.83 173.31C111.76 176.47 110.19 179.98 110.77 182.76C111.31 179.95 109.72 176.43 111.74 173.24C122.12 173.24 132.52 172.3 142.87 173.86C141.91 177.44 142.27 181.09 142.23 184.72C142.2 187.1 142.06 189.38 139.8 190.85C139.46 190.87 139.12 190.88 138.78 190.9C136.58 188.08 138.49 184.8 137.72 182.4C137.18 184.83 138.85 188.11 136.69 190.94C136.03 190.92 135.37 190.91 134.71 190.89C132.61 187.35 134.43 183.46 133.74 180.44C133.11 183.48 134.93 187.37 132.75 190.92C132.08 190.9 131.4 190.88 130.73 190.86C128.28 187.28 131.07 183.47 130.27 180.33C130.05 183.53 130.31 187.3 128.81 190.84C128.13 190.85 127.45 190.86 126.76 190.88C125.6 187.2 126.65 183.42 126.22 180.31C125.6 183.39 127.56 187.38 124.86 190.8C124.44 190.76 124.03 190.73 123.61 190.69C120.9 187.16 122.92 183.09 122.26 179.88C121.85 183.15 122.87 187.05 121.72 190.84C116.34 190.88 110.94 191.41 105.62 190.13C105.72 189.9 105.83 189.66 105.93 189.43C108.18 187.06 106.94 184.12 107.24 181.43C107.54 178.68 106.67 175.86 107.8 173.16H107.81Z" fill="#AE8C74"/>
<path d="M180.76 174.02C181.1 174.05 181.44 174.07 181.77 174.1C184.1 176.53 183.04 179.75 183.73 182.56C184.23 184.57 183.62 186.86 185.41 188.91C187.64 187.17 186.45 185.01 186.39 183.1C186.29 179.89 185.17 176.45 188.5 174.04C188.94 174.04 189.39 174.03 189.83 174.02C191.8 177.56 190.05 181.41 190.76 184.37C191.3 181.38 189.63 177.49 191.71 173.94C192.4 173.98 193.1 174.03 193.79 174.07C196.28 177.14 194.78 180.77 195.19 184.13C195.42 185.98 194.56 188.31 197.4 188.94C199.98 189.61 202.94 188.7 205.14 190.84C205.33 191 205.52 191.15 205.7 191.31C196.67 191.88 187.65 192 178.63 191.29C178.67 191.01 178.71 190.73 178.75 190.46C179.63 186.87 179.12 183.22 179.25 179.59C179.32 177.62 179.09 175.58 180.74 174.03L180.76 174.02Z" fill="#E3A77B"/>
<path d="M158.96 174.12C160.23 174.06 161.5 174 162.77 173.94C166.81 179.43 165.97 185.2 163.74 191.04L158.84 190.98C156.43 185.34 156.24 179.72 158.97 174.12H158.96Z" fill="#F6E3C6"/>
<path d="M143.66 173.9C147.06 172.66 150.45 172.73 153.84 173.91C152.93 177.59 153.31 181.34 153.22 185.07C153.17 187.16 153.46 189.34 151.71 191C151.07 191 150.44 190.98 149.8 190.98C147.66 188.15 149.34 184.89 148.75 182.29C148.2 184.9 149.82 188.16 147.71 190.99L147.24 191.15L146.77 191C144.43 188.66 145.44 185.69 145.28 182.95C145.1 179.86 145.86 176.63 143.67 173.91L143.66 173.9Z" fill="#AE8C74"/>
<path d="M163.73 191.04C163.73 185.32 164.1 179.58 162.76 173.94C163.99 173.08 165.33 173.55 166.64 173.59C167.16 173.93 167.55 174.39 167.8 174.96C168 180.28 169.46 185.7 166.76 190.83C165.75 190.9 164.74 190.97 163.73 191.04Z" fill="#F4E6CE"/>
<path d="M143.66 173.9C146.41 173.77 146.8 175.41 146.75 177.69C146.66 182.12 146.75 186.56 146.77 190.99C145.78 190.95 144.79 190.92 143.79 190.88C141.35 185.23 141.52 179.57 143.68 173.9H143.66Z" fill="#F0D5B9"/>
<path d="M121.73 190.83C119.84 185.99 121.33 180.96 120.95 176.04C120.88 175.19 121.25 174.3 122.24 174.2C123.7 174.05 123.75 175.24 123.75 176.21C123.74 181.03 123.67 185.86 123.62 190.68C122.99 190.73 122.36 190.78 121.73 190.83Z" fill="#F4DEC0"/>
<path d="M124.87 190.79C124.86 186.18 124.82 181.58 124.84 176.97C124.84 175.88 124.57 174.36 126.15 174.23C127.85 174.09 127.75 175.66 127.66 176.73C127.28 181.44 128.59 186.26 126.76 190.88C126.13 190.85 125.49 190.82 124.86 190.8L124.87 190.79Z" fill="#F4DEBE"/>
<path d="M128.82 190.84C128.82 186.02 128.82 181.21 128.85 176.39C128.85 175.41 128.87 174.18 130.24 174.23C131.52 174.28 131.67 175.46 131.62 176.47C131.36 181.27 131.04 186.07 130.74 190.87C130.1 190.87 129.46 190.85 128.82 190.85V190.84Z" fill="#FEEACA"/>
<path d="M166.75 174.26C166.61 174.06 166.57 173.83 166.64 173.59C168.08 172.72 169.38 173.58 170.73 173.9C173.09 179.63 173.1 185.36 170.69 191.07H168.83C166.94 188.74 168.06 185.97 167.75 183.42C167.38 180.37 168.64 177.14 166.75 174.26Z" fill="#D2B195"/>
<path d="M139.79 190.86C140.97 186.55 140.39 182.14 140.49 177.77C140.53 175.99 140.21 174.04 142.87 173.86C143.43 179.54 143.66 185.22 142.72 190.9C141.75 190.89 140.78 190.87 139.81 190.86H139.79Z" fill="#FDEDD3"/>
<path d="M170.69 191.07C170.7 185.35 170.72 179.62 170.73 173.9C171.41 173.16 172.1 173.22 172.78 173.9C175.08 179.62 175 185.34 172.84 191.08C172.13 191.08 171.41 191.08 170.7 191.08L170.69 191.07Z" fill="#FEF5DB"/>
<path d="M155.09 174.14C155.93 174.12 156.76 174.1 157.6 174.07C158.71 179.7 158.49 185.35 157.75 191C157.06 191.02 156.37 191.03 155.68 191.05C153.27 185.49 154.02 179.82 155.1 174.14H155.09Z" fill="#F9F5E0"/>
<path d="M176.75 173.91C177.43 173.93 178.11 173.94 178.79 173.96C180.47 179.56 180.05 185.18 179.03 190.82C178.9 190.97 178.77 191.13 178.65 191.28C178.07 191.23 177.48 191.18 176.9 191.13C174.24 185.41 174.47 179.67 176.75 173.91Z" fill="#D2AE95"/>
<path d="M176.75 173.91C176.8 179.65 176.85 185.39 176.9 191.13C176.16 191.1 175.41 191.07 174.67 191.04C173.24 185.33 173.13 179.63 174.75 173.93C175.41 173.5 176.08 173.5 176.75 173.91Z" fill="#FEF7DE"/>
<path d="M174.75 173.94C174.72 179.64 174.7 185.35 174.67 191.05C174.06 191.06 173.45 191.07 172.84 191.08C172.82 185.35 172.8 179.63 172.78 173.9C173.44 173.91 174.09 173.92 174.75 173.93V173.94Z" fill="#D1AE95"/>
<path d="M166.75 174.26C169.48 174.27 168.73 176.37 168.77 177.82C168.87 182.24 168.82 186.66 168.83 191.08C168.1 191.33 167.4 191.39 166.76 190.84C166.76 185.31 166.76 179.79 166.75 174.26Z" fill="#FEF3D9"/>
<path d="M151.7 191C151.67 186.45 151.64 181.91 151.61 177.36C151.61 175.73 151.4 173.97 153.83 173.9L153.81 173.89C155.15 179.6 155.48 185.3 153.74 191C153.06 191 152.38 191 151.69 191H151.7Z" fill="#F8F7E8"/>
<path d="M147.7 190.98V174.34C148.4 174.32 149.09 174.3 149.79 174.28C149.79 179.84 149.79 185.41 149.79 190.97C149.09 190.97 148.4 190.97 147.7 190.97V190.98Z" fill="#F4F5E9"/>
<path d="M136.69 190.94V174.39C137.39 174.37 138.08 174.35 138.78 174.33C138.78 179.85 138.78 185.38 138.78 190.9C138.08 190.91 137.39 190.93 136.69 190.94Z" fill="#FEF2D9"/>
<path d="M132.75 190.92V174.39C133.4 174.37 134.06 174.35 134.71 174.34C134.71 179.86 134.71 185.38 134.71 190.9C134.06 190.9 133.4 190.92 132.75 190.93V190.92Z" fill="#FEEFD3"/>
<path d="M153.75 191.01C153.77 185.31 153.79 179.61 153.82 173.9C154.24 173.98 154.67 174.06 155.09 174.14C155.29 179.78 155.48 185.42 155.68 191.05C155.04 191.03 154.4 191.02 153.75 191V191.01Z" fill="#AE8C74"/>
<path d="M104.53 189.83C105.1 184.27 105.08 178.7 104.69 173.13C105.36 173.15 106.04 173.17 106.71 173.19C107.21 178.75 108.37 184.33 105.99 189.76C105.87 189.88 105.75 190 105.64 190.13L104.53 189.83Z" fill="#AE8C74"/>
<path d="M142.71 190.9C142.76 185.22 142.81 179.54 142.86 173.86C143.14 173.65 143.41 173.66 143.67 173.89C143.71 179.55 143.75 185.21 143.78 190.87C143.42 190.87 143.06 190.88 142.7 190.89L142.71 190.9Z" fill="#AE8C74"/>
<path d="M157.75 191.01C157.7 185.37 157.65 179.72 157.61 174.08C158.06 174.09 158.51 174.11 158.96 174.12C158.92 179.74 158.88 185.36 158.83 190.98C158.47 190.99 158.11 191 157.75 191.01Z" fill="#AE8C74"/>
<path d="M175.62 135.32C180.03 134.72 184.43 134.85 188.84 135.3C189.28 135.69 189.62 136.16 189.86 136.7C190.32 141.3 190.57 145.89 189.81 150.49C189.52 151 189.16 151.46 188.74 151.87C188.35 151.83 187.97 151.79 187.58 151.75C184.98 148.5 186.88 144.68 186.22 141.66C185.63 144.69 187.46 148.51 184.89 151.76C184.45 151.76 184.01 151.76 183.57 151.77C180.88 148.52 183.04 144.67 182.19 141.83C181.64 144.69 183.46 148.51 180.88 151.76C180.44 151.75 180 151.74 179.55 151.72C176.98 148.51 178.89 144.72 178.21 141.81C177.63 144.77 179.5 148.58 176.81 151.8C176.41 151.8 176.01 151.8 175.61 151.8C172.92 146.97 174.54 141.83 174.55 136.8C174.79 136.23 175.14 135.74 175.6 135.33L175.62 135.32Z" fill="#137E7B"/>
<path d="M175.62 135.32C175.61 135.63 175.58 135.93 175.52 136.23C173.25 138.61 174.6 141.56 174.25 144.25C173.92 146.78 175.07 149.58 172.85 151.75C172.11 151.75 171.38 151.77 170.64 151.78C168.76 148.85 170.27 145.59 169.74 142.96C169.23 145.58 170.71 148.83 168.87 151.76C168.14 151.76 167.4 151.77 166.67 151.78C164.34 149.47 165.44 146.53 165.28 143.85C165.12 141.12 165.62 138.29 163.68 135.93C167.59 134.35 171.63 135.27 175.62 135.32Z" fill="#37A09D"/>
<path d="M149.65 135.2C153.38 135.2 157.11 135.2 160.85 135.19C161.06 140.73 162.43 146.33 159.95 151.73C159.52 151.75 159.08 151.77 158.65 151.79C156.03 148.84 157.88 145.25 157.25 142.53C156.86 145.29 157.93 148.64 156.71 151.88C156.02 151.84 155.33 151.81 154.65 151.77C152.09 148.83 153.8 145.28 153.26 142.49C152.9 145.31 153.86 148.63 152.78 151.85C152.06 151.84 151.35 151.83 150.63 151.81C147.96 146.42 149.47 140.78 149.66 135.22L149.65 135.2Z" fill="#187E7B"/>
<path d="M188.86 136.15C188.84 135.87 188.83 135.58 188.84 135.3C192.22 135.34 195.64 134.47 198.97 135.74C198.9 136.2 198.71 136.61 198.42 136.98C196.47 141.32 196.51 145.67 198.4 150.01C198.69 150.37 198.88 150.78 198.96 151.23C195.63 152.74 192.16 151.77 188.74 151.86C188.71 151.55 188.72 151.25 188.78 150.95C191.27 146.03 189.75 141.09 188.86 136.15Z" fill="#3DA3A0"/>
<path d="M108.83 135.16C109.78 135.16 110.73 135.17 111.67 135.18C114.09 140.71 114.09 146.24 111.67 151.77C110.72 151.79 109.76 151.81 108.81 151.82C107.91 146.27 107.9 140.72 108.82 135.16H108.83Z" fill="#78EEEC"/>
<path d="M113.79 135.13L116.65 135.15C119.1 140.69 119.1 146.23 116.65 151.78H113.77C112.11 146.23 112.1 140.68 113.78 135.13H113.79Z" fill="#84EDEB"/>
<path d="M118.81 135.14C119.75 135.17 120.68 135.2 121.61 135.22C124.13 140.72 124.14 146.23 121.61 151.73L118.83 151.81C117.07 146.25 117.12 140.69 118.81 135.13V135.14Z" fill="#7FEEEA"/>
<path d="M122.92 135.27C123.84 135.23 124.76 135.2 125.68 135.16C128.08 140.69 128.09 146.22 125.68 151.76L122.87 151.71C121.88 146.23 121.82 140.75 122.91 135.28L122.92 135.27Z" fill="#78E5E2"/>
<path d="M131.87 135.25L134.61 135.21C137.15 140.71 137.09 146.21 134.67 151.73C133.73 151.73 132.78 151.73 131.84 151.74C129.42 146.24 129.38 140.74 131.87 135.25Z" fill="#75E8E6"/>
<path d="M135.89 135.18C136.78 135.19 137.67 135.21 138.56 135.22C141.19 140.71 141.09 146.22 138.64 151.73C137.71 151.73 136.78 151.73 135.85 151.73C134.91 146.21 134.85 140.69 135.9 135.18H135.89Z" fill="#7DEBE6"/>
<path d="M139.93 135.23C140.79 135.23 141.65 135.25 142.52 135.25C145.24 140.72 145.05 146.2 142.65 151.71C141.72 151.71 140.79 151.71 139.86 151.71C138.91 146.21 138.81 140.72 139.93 135.23Z" fill="#7BE8E4"/>
<path d="M143.96 135.23C144.53 135.21 145.11 135.18 145.68 135.16C146.61 135.55 147.65 136.12 147.72 137.1C148.04 142.01 149.64 147.04 146.61 151.7C145.71 151.7 144.8 151.7 143.9 151.69C142.88 146.2 142.79 140.71 143.96 135.23Z" fill="#80E9E5"/>
<path d="M159.95 151.73C160.4 146.23 158.68 140.6 160.85 135.19C161.51 135.4 162.17 135.62 162.82 135.83C164.79 141.15 165.35 146.46 162.64 151.73C161.74 151.73 160.85 151.73 159.95 151.73Z" fill="#70E0DD"/>
<path d="M149.65 135.2C151.86 140.62 150.52 146.25 150.62 151.79C150.01 151.8 149.39 151.82 148.78 151.83C147.2 151.2 147.16 149.83 147.28 148.49C147.66 144.09 146.41 139.6 148 135.27C148.55 135.24 149.11 135.22 149.66 135.19L149.65 135.2Z" fill="#73E5E3"/>
<path d="M184.9 151.75C184.86 147.3 184.81 142.85 184.8 138.4C184.8 137.46 184.65 136.26 186 136.1C187.74 135.9 187.72 137.25 187.71 138.4C187.69 142.85 187.63 147.3 187.58 151.75C186.68 151.75 185.79 151.75 184.89 151.75H184.9Z" fill="#6FE9E3"/>
<path d="M180.89 151.76C180.83 147.29 180.75 142.82 180.72 138.35C180.72 137.4 180.61 136.21 181.97 136.06C183.73 135.85 183.69 137.21 183.69 138.36C183.68 142.83 183.62 147.3 183.58 151.77C182.69 151.77 181.79 151.77 180.9 151.77L180.89 151.76Z" fill="#75EDE9"/>
<path d="M172.85 151.75C172.79 147.46 172.77 143.17 172.66 138.89C172.61 136.83 173.21 135.66 175.52 136.24C175.55 141.43 175.59 146.61 175.62 151.8C174.7 151.79 173.77 151.77 172.85 151.76V151.75Z" fill="#71E6E1"/>
<path d="M176.82 151.79C176.79 147.34 176.74 142.89 176.76 138.44C176.76 137.53 176.49 136.23 177.83 136.06C179.46 135.86 179.61 137.19 179.61 138.36C179.62 142.81 179.58 147.26 179.56 151.72C178.65 151.74 177.73 151.77 176.82 151.79Z" fill="#73E1DE"/>
<path d="M163.68 135.92C165.88 135.8 166.97 136.67 166.88 139.05C166.72 143.29 166.73 147.53 166.68 151.77C166.04 151.78 165.41 151.8 164.77 151.81C162.97 151.08 163.21 149.49 163.28 148.07C163.48 144.03 162.74 139.95 163.68 135.94V135.92Z" fill="#72E9E5"/>
<path d="M156.7 151.87C154.9 147.37 156.3 142.66 155.86 138.07C155.76 137.06 156.01 135.94 157.4 136.04C158.78 136.14 158.71 137.33 158.71 138.3C158.71 142.8 158.67 147.29 158.65 151.79C158 151.82 157.36 151.85 156.71 151.88L156.7 151.87Z" fill="#74E6E2"/>
<path d="M152.77 151.83C150.84 147.23 152.32 142.4 151.84 137.7C151.76 136.86 152.08 136.03 153.12 135.96C154.5 135.87 154.7 136.89 154.7 137.92C154.7 142.53 154.65 147.14 154.63 151.75C154.01 151.77 153.38 151.8 152.76 151.83H152.77Z" fill="#7BE8E5"/>
<path d="M113.79 135.13C113.79 140.68 113.79 146.23 113.78 151.78C113.08 151.78 112.38 151.77 111.68 151.76C111.68 146.23 111.68 140.7 111.68 135.17C112.39 135.16 113.09 135.14 113.8 135.13H113.79Z" fill="#35AAAC"/>
<path d="M131.87 135.25C131.86 140.75 131.85 146.24 131.84 151.74C131.12 151.75 130.41 151.77 129.69 151.78C127.5 146.24 127.49 140.71 129.71 135.17C130.43 135.2 131.15 135.22 131.88 135.25H131.87Z" fill="#3DA9AC"/>
<path d="M129.7 135.17C129.7 140.71 129.69 146.24 129.68 151.78C129.06 151.78 128.44 151.76 127.82 151.75C126.07 146.22 126.09 140.7 127.82 135.17C128.44 135.17 129.07 135.17 129.69 135.17H129.7Z" fill="#81EEE9"/>
<path d="M127.83 135.17C127.83 140.7 127.83 146.22 127.83 151.75C127.12 151.75 126.4 151.75 125.69 151.75C125.69 146.22 125.69 140.69 125.69 135.15C126.4 135.15 127.12 135.15 127.83 135.16V135.17Z" fill="#3DAAAB"/>
<path d="M118.81 135.14C118.81 140.7 118.83 146.26 118.83 151.82C118.11 151.81 117.39 151.8 116.66 151.79C116.66 146.25 116.66 140.71 116.66 135.16C117.38 135.16 118.09 135.15 118.81 135.14Z" fill="#339E9E"/>
<path d="M168.87 151.76V136.5H170.64C170.64 141.59 170.64 146.69 170.64 151.78C170.05 151.78 169.46 151.77 168.87 151.76Z" fill="#85ECE9"/>
<path d="M147.99 135.28C148.02 140.81 147.05 146.39 148.78 151.84C148.06 151.79 147.34 151.75 146.62 151.7C146.37 146.18 147.87 140.57 145.69 135.16C146.46 135.2 147.23 135.24 148 135.27L147.99 135.28Z" fill="#187E7B"/>
<path d="M163.67 135.94C164.61 141.19 162.84 146.63 164.76 151.82C164.05 151.79 163.35 151.76 162.64 151.73C162.7 146.43 162.76 141.13 162.82 135.83C163.11 135.8 163.4 135.83 163.67 135.94Z" fill="#37A09D"/>
<path d="M108.83 135.16C108.83 140.71 108.83 146.26 108.83 151.82C108.45 151.82 108.07 151.8 107.69 151.79C107.68 146.25 107.66 140.72 107.65 135.18C108.05 135.18 108.44 135.17 108.84 135.16H108.83Z" fill="#1C9797"/>
<path d="M122.92 135.27C122.91 140.75 122.89 146.23 122.88 151.7C122.46 151.7 122.03 151.72 121.61 151.73C121.61 146.23 121.61 140.72 121.61 135.22C122.05 135.24 122.48 135.25 122.92 135.27Z" fill="#339E9E"/>
<path d="M135.89 135.18C135.88 140.7 135.86 146.21 135.84 151.73C135.44 151.73 135.05 151.73 134.66 151.72C134.64 146.21 134.62 140.71 134.6 135.2C135.03 135.2 135.46 135.18 135.89 135.18Z" fill="#087677"/>
<path d="M139.93 135.23C139.91 140.72 139.88 146.22 139.86 151.71C139.45 151.71 139.04 151.72 138.64 151.73C138.61 146.23 138.59 140.72 138.56 135.22C139.02 135.22 139.48 135.22 139.93 135.23Z" fill="#097470"/>
<path d="M143.96 135.23C143.94 140.72 143.92 146.2 143.9 151.69C143.48 151.69 143.07 151.71 142.65 151.72C142.61 146.23 142.56 140.74 142.52 135.26C143 135.26 143.48 135.25 143.96 135.24V135.23Z" fill="#097370"/>
<path d="M198.97 135.74L199.47 135.71C199.62 135.87 199.77 136.02 199.92 136.18C202.01 141.05 201.99 145.92 199.96 150.8C199.82 150.94 199.68 151.08 199.54 151.21L199.25 151.17L198.96 151.24C198.82 151.1 198.68 150.96 198.54 150.82C196.48 145.96 196.49 141.09 198.52 136.22C198.67 136.07 198.82 135.91 198.97 135.75V135.74Z" fill="#3DA3A0"/>
<path d="M205.16 190.83C202.29 190.77 199.42 190.71 196.55 190.65C195.41 190.1 194.75 189.19 194.83 187.94C195.11 183.29 193.78 178.54 195.68 173.99C198.75 173.95 201.83 173.91 204.9 173.87C206.47 179.5 205.82 185.16 205.16 190.83Z" fill="#F3D8BF"/>
<path d="M188.51 174.03C187.37 178.15 188.08 182.25 188.54 186.38C188.78 188.51 189.48 191 185.48 191.08C181.74 191.15 182.83 189 182.56 187C181.96 182.71 181.71 178.42 181.79 174.1C184.03 173.57 186.27 173.64 188.52 174.03H188.51Z" fill="#ECD2B8"/>
<path d="M105.99 189.76C105.87 184.22 104.63 178.63 106.71 173.19C107.08 173.19 107.44 173.17 107.81 173.16C109.58 178.16 108.42 183.31 108.6 188.4C108.66 190.08 107.15 189.84 106 189.76H105.99Z" fill="#F8DDC9"/>
<path d="M191.73 173.93C191.81 178.92 191.88 183.91 191.96 188.9C191.97 189.67 192.38 190.67 191.06 190.71C189.88 190.75 189.83 189.82 189.83 188.98C189.83 183.99 189.83 179 189.85 174.01C190.48 173.98 191.1 173.96 191.73 173.93Z" fill="#F6F2E4"/>
<path d="M195.68 173.99C196.14 179.53 194.77 185.18 196.55 190.65C194.05 191.39 193.82 189.92 193.84 187.99C193.88 183.35 193.83 178.7 193.81 174.06C194.43 174.04 195.06 174.01 195.68 173.99Z" fill="#F3F0DF"/>
<path d="M179.03 190.82C178.95 185.2 178.87 179.58 178.79 173.96C179.45 173.98 180.11 174 180.76 174.02C180.76 178.32 180.85 182.63 180.74 186.93C180.7 188.36 181.69 190.46 179.03 190.82Z" fill="#FEF2D9"/>
<path d="M111.74 173.25V189.66C111.21 189.66 110.67 189.66 110.14 189.66C109.3 184.26 109.93 178.77 109.84 173.33C110.47 173.31 111.11 173.28 111.75 173.26L111.74 173.25Z" fill="#F9F2E8"/>
<path d="M132.58 239.88C133.22 235.3 134.4 230.37 139.42 229.49C144.61 228.58 147.87 232.79 149.96 237.01C153.39 243.92 153.62 251.27 151.55 258.69C144.53 253.12 136.54 248.53 132.58 239.89V239.88Z" fill="#D8484D"/>
<path d="M199.96 150.79C199.95 145.92 199.93 141.05 199.92 136.17C204.85 135.94 203.03 139.97 202.66 141.7C202 144.74 206 149.4 199.96 150.78V150.79Z" fill="#87F4F1"/>
<path d="M167.78 317.92C165.94 321.97 162.99 325.12 159.71 328.02C161.08 323.6 164.22 320.59 167.78 317.92Z" fill="#196464"/>
<path d="M107.81 266.93C106.63 270.66 104.38 273.71 101.76 276.54C102.47 272.51 105.09 269.69 107.81 266.93Z" fill="#11243B"/>
<path d="M115.5 174.26V189.64C114.98 189.66 114.46 189.68 113.94 189.7C113.45 184.59 113.63 179.45 113.97 174.3C114.48 174.29 114.99 174.28 115.5 174.27V174.26Z" fill="#F7F8EB"/>
<path d="M119.28 174.32V189.61C118.99 189.64 118.69 189.66 118.4 189.69V174.37L119.28 174.33V174.32Z" fill="#F8F2DE"/>
<path d="M188.86 136.15C189.72 136.17 190.64 136.34 190.72 137.32C191.05 141.23 191.34 145.16 191.49 149.08C191.56 150.85 190.29 151.2 188.78 150.95C188.81 146.02 188.83 141.08 188.86 136.15Z" fill="#7CEFEA"/>
<path d="M198.53 136.22C198.53 141.09 198.54 145.95 198.55 150.82C195.24 151.48 195.24 148.92 195.83 147.26C197.11 143.65 192.55 138.6 198.53 136.22Z" fill="#63EDEA"/>
<path d="M193.65 136.56C195.08 141.18 194.71 145.85 193.87 150.52C192.57 145.89 192.65 141.24 193.65 136.56Z" fill="#89F0EE"/>
</svg>
