<svg width="257" height="446" viewBox="0 0 257 446" fill="none" xmlns="http://www.w3.org/2000/svg">
<path d="M164.83 361.14C152.97 379.56 141.19 398.05 128.11 415.64C123.79 421.45 118.22 425.99 111.97 429.56C94.29 439.68 75.61 446.62 54.86 445.93C42.32 445.51 30.35 442.09 18.54 438.07C10.52 433.99 3.16 429.28 1.11 419.58C-0.280004 413 1.26002 406.7 3.20002 400.49C7.51002 386.72 14.8 374.75 25.33 364.89C41.68 349.57 55.92 332.46 68.76 314.16C84.29 292.03 93.8 267.72 94.38 240.44C94.71 224.71 95.69 208.89 91.84 193.35C91.76 193.02 92.29 192.53 92.53 192.12C92.14 190.93 92.83 190.85 93.71 190.97C94.73 191.92 95.13 193.18 95.51 194.46C95.96 197.63 96.47 200.78 96.89 203.96C96.93 204.51 96.9399 205.07 96.9399 205.62C96.7899 209.89 98.07 214.05 97.98 218.32C98.38 234.57 97.88 250.74 94.32 266.69C93.74 269.28 93.04 271.83 91.98 274.26C90.95 276.66 89.93 279.07 88.93 281.49C87.02 286.76 84.5 291.79 82.57 297.05C80.87 303.31 76.73 308.17 73.13 313.32C60.75 331.05 47.17 347.76 31.34 362.57C25.03 368.47 19.27 374.9 14.63 382.25C14.15 383.05 13.74 383.88 13.38 384.74C11.87 387.29 11.37 388.97 15.36 389.9C40 395.61 61.73 406.69 79.22 425.35C81.49 427.77 84.13 429.87 86.2 432.44C89.15 436.1 92.34 436.53 96.15 434.11C113.41 427.79 126.49 416.83 134.69 400.13C136.75 395.93 141.29 393.35 143.4 389C143.89 388.28 144.37 387.56 144.79 386.8C145.62 385.53 145.65 384.02 146.06 382.63C147.76 381.1 149.93 380.03 150.86 377.74C152.18 375.93 153.43 374.08 154.6 372.17C157.66 368.39 159.21 363.44 163.55 360.65C164.05 360.62 164.47 360.79 164.83 361.13V361.14Z" fill="#2A150A"/>
<path d="M156.86 3.07993C159.76 10.4399 160.39 18.2699 161.69 25.9699C161.47 26.4499 161.17 26.87 160.78 27.23C155.13 30.73 149.27 33.68 142.86 35.65C128.76 39.99 114.98 45.3 100.96 49.87C97.36 51.04 93.82 52.5899 89.91 52.4499C89.46 52.2099 89.17 51.8299 89.04 51.3399C90.86 46.1799 88.01 41.78 86.67 37.14C86.3 35.88 85.56 34.7099 85.34 33.4399C84.57 29.1099 82.45 27.4499 78.17 29.3499C77.43 29.6799 76.57 29.69 75.74 29.53C75.01 29.25 74.52 28.7499 74.34 27.9699C90.7 22.9999 107.07 18.03 123.43 13.06C121.9 16.41 122.54 19.4999 124.13 22.7099C125.75 25.9799 126.41 29.6299 127.59 33.0899C127.9 33.9799 128.43 35.19 129.65 34.74C130.82 34.31 130.46 33.08 130.22 32.14C129.27 28.43 127.41 25.0399 126.42 21.3499C125.94 19.5599 124.55 16.9799 127.11 16.2199C129.31 15.5699 130.26 18.15 130.99 20.01C132.66 24.22 133.68 28.72 136.69 32.43C135.6 26.34 134.24 20.3299 131.92 14.5899C131.32 13.1099 129.94 13.05 128.51 13.37C126.77 13.75 124.99 14.67 123.34 13.12C132.84 9.13997 142.33 5.13993 151.85 1.20993C153.96 0.339934 155.72 1.01993 156.86 3.07993Z" fill="#4B0F19"/>
<path d="M74.32 27.97C74.72 28.27 75.13 28.58 75.53 28.88C74.53 31.2 71.87 29.93 70.41 31.25C67.54 32.47 66.46 34.22 67.79 37.45C69.23 40.97 69.64 44.86 70.82 48.49C71.41 50.29 70.84 53.97 73.78 53.13C76.25 52.43 74 49.7 73.54 47.99C72.47 43.99 70.72 40.17 70.1 36.04C69.84 34.29 68.99 32.4299 70.78 30.9399C74.43 30.1799 74.73 33.21 75.53 35.36C77.37 40.27 78.11 45.56 80.85 50.27C81.65 48.09 80.82 46.04 80.18 44.03C79.07 40.56 78.03 37.07 76.96 33.59C76.48 32.02 75.96 29.95 77.85 29.2C79.57 28.52 80.93 30.1 81.82 31.53C83.7 34.52 84.35 37.9699 85.28 41.3199C86.25 44.7699 86.32 48.62 89.52 51.11C89.52 51.34 89.52 51.5801 89.52 51.8101C88.86 53.5801 87.27 54.19 85.69 54.66C74.61 57.99 63.56 61.4701 52.24 63.9301C49.8 64.4601 47.34 64.72 44.85 64.35C43.83 64.1 42.84 63.8 42.33 62.75C46.8 59.2 46.87 58.94 43.22 54.09C40.46 50.42 38.75 46.0501 35.03 42.0601C37.2 47.6701 40.05 52.12 41.92 57.01C42.54 58.64 43.9 60.21 42.54 62.1C42.16 62.5 41.78 62.51 41.38 62.13C37.77 56.59 34.9 50.6701 32.46 44.5601C30.53 39.7401 31.44 38.25 36.84 37.13C46.86 35.06 56.82 32.78 66.66 29.96C69.19 29.24 71.75 28.62 74.3 27.95L74.32 27.97Z" fill="#490F18"/>
<path d="M93.4399 191.11C93.1399 191.45 92.83 191.79 92.53 192.12C89.2 177.77 85.24 163.63 80.34 149.71C72.74 128.11 63.74 107.11 54.28 86.29C53.81 85.26 53.02 84.29 53.59 83.03C53.84 82.96 54.09 82.9 54.35 82.83C56.08 82.99 56.9 84.16 57.55 85.61C71.74 117.07 84.8 148.95 93.26 182.52C93.95 185.25 95.5999 188.21 93.4499 191.11H93.4399Z" fill="#2A2520"/>
<path d="M41.4 62.14C41.87 62.03 42.33 61.9201 42.8 61.8101L42.62 62.11L42.85 61.85C43.05 62.96 43.95 63.12 44.83 63.3C46.74 66.41 49.46 69.16 49.16 73.24C49.02 73.71 48.73 74.06 48.31 74.29C45.51 70.53 43.45 66.34 41.4 62.14Z" fill="#2A2520"/>
<path d="M53.59 83.04C50.81 80.74 49.65 77.46 48.31 74.29C48.49 74.13 48.68 73.9799 48.86 73.8199C52.75 75.7499 54.87 78.57 53.49 83.13L53.58 83.04H53.59Z" fill="#2A2520"/>
<path d="M241.45 280.4C240.79 281.41 240.14 282.42 239.48 283.43C239.3 283.36 239.16 283.23 239.07 283.05C234.34 285.4 231.74 290.17 227.55 293.14L227.59 293.11C226.75 293.56 225.96 294.11 225.07 294.47C224.58 294.47 224.12 294.36 223.68 294.14C205.49 280.68 193.92 261.94 182.37 243.06C178.3 236.41 177.03 231 183.34 225.44C183.58 225.04 183.87 224.67 184.16 224.31C187.03 221.04 190.58 218.4 192.94 214.67C198.46 208.58 204.5 202.99 210.24 197.1C211.5 195.8 212.78 194.52 213.66 192.91C213.93 192.48 214.23 192.09 214.55 191.71C222.79 183.3 223.01 183.11 230.84 192.02C244.16 207.18 253.38 224.59 255.23 244.84C256.31 256.67 252.28 267.72 244.15 276.86C243.16 277.98 242.06 279 241.44 280.4H241.45Z" fill="#EF9751"/>
<path d="M224.55 294.02C225.58 293.77 226.28 292.45 227.59 293.11C224.7 297.36 220.61 300.44 217 303.97C200.06 320.55 182.59 336.64 168.68 356.03C167.44 357.76 166.12 359.44 164.84 361.14C164.45 361.11 164.07 361.08 163.68 361.05C163.33 360.71 163.17 360.3 163.23 359.82C165.34 355.18 168.99 351.58 171.57 347.25C183.45 332.5 196.81 319.14 210.4 306C214.24 302.28 214.43 301.62 210.68 297.62C206.14 292.78 201.78 287.79 197.65 282.6C196.83 281.57 195.98 280.51 196.03 279.06C200.08 276.89 203.36 278.05 203.94 281.9C204.28 284.17 206.47 282.75 207.42 283.75C206.91 288.31 211.41 289.52 213.34 292.45C213.74 293.05 214.92 292.58 215.48 291.89C215.98 291.28 215.83 290.41 215.15 290.29C211.39 289.65 211.58 285.34 208.91 283.74C206.31 281.42 204.39 278.5 202.27 275.8C200.25 273.22 198.96 273.13 197.17 275.74C196.53 276.68 195.67 277.53 194.36 277.54C192.24 276.9 191.34 275.3 190.96 273.28C191.46 270.21 194.32 272.33 195.57 271.25C196.85 265 192.18 267.7 189.64 267.17C188.64 265.29 192.67 261.92 187.8 261.12C187.19 261.02 187.37 259.88 187.85 259.41C190.17 257.2 187.58 255.95 186.91 254.34C184.19 251.15 182.98 246.86 179.57 244.17C179.5 244.02 179.32 243.84 179.36 243.73C179.94 242.1 179.52 240.79 177.87 240.23C177.06 239.96 176.97 240.98 176.8 241.56C176 244.23 178.83 242.93 179.49 244.01C179.8 250.12 181.96 253.45 186.48 254.78C187.01 257.28 185.18 257.17 183.74 257.43C186.12 260.38 187.99 263.79 189.74 267.29C190.86 268.42 191.67 269.62 190.57 271.22C188.34 271.77 187.2 270.34 186.17 268.77C181.52 261.69 177.19 254.43 173.03 247.05C171.04 243.52 171.17 240.24 173.37 236.76C175.42 233.52 177.59 230.4 180.06 227.49C181.21 226.13 182.28 224.47 184.52 224.98C184.46 225.46 184.58 226.16 184.31 226.37C177.71 231.52 179.72 236.72 183.53 242.64C193.6 258.27 202.8 274.49 216.88 287.13C219.44 289.43 222.89 290.76 224.56 294.04C222.37 295.52 218.84 293.49 216.93 297.44C220.58 297.99 222 294.57 224.53 293.98L224.55 294.02Z" fill="#2F2010"/>
<path d="M227.55 293.14C230.51 288.78 234.03 285.04 239.07 283.05C235.64 286.88 232.22 290.72 227.55 293.14Z" fill="#2F2010"/>
<path d="M241.45 280.4C241.11 279.47 241.64 278.82 242.2 278.2C256.59 262.22 256.59 244.05 249.92 225.09C244.77 210.46 235.76 198.17 225.46 186.74C223.93 185.05 223.12 185.2 221.5 186.62C219.08 188.74 217.76 192.12 214.29 193.04C213.24 189.44 216.4 188.1 218.19 186.19C220.2 184.06 220.34 182.41 218.36 180.22C208.78 169.6 201.88 157.28 195.77 144.46C195.09 143.01 194.37 141.57 193.72 140.11C193.37 139.39 193.34 138.13 192.75 137.98C189.29 137.09 189.24 134.31 188.92 131.63C188.31 128.69 186.59 125.91 187.69 122.73C187.91 122.28 188.25 121.95 188.68 121.71C193.08 130.96 196.83 140.51 201.36 149.72C209.02 165.28 220.26 178.11 231.25 191.22C243.69 206.06 252.99 222.53 255.72 242.1C256.16 245.41 256.11 248.72 255.74 252.03C254.27 263.15 250.01 272.87 241.43 280.41L241.45 280.4Z" fill="#34241C"/>
<path d="M188.69 121.7C188.56 122.17 188.44 122.63 188.31 123.1C184.92 123.95 186.42 120.58 185.22 119.53C177.57 99.97 171.52 79.91 166.05 59.66C164.84 55.19 163.84 50.66 162.56 46.21C162.21 44.17 161.56 42.19 161.26 40.14C161.03 38.1 161.2 36.01 160.52 34.02C160.24 31.43 159.31 28.85 160.25 26.22C160.73 26.13 161.21 26.05 161.69 25.96C164.31 37.05 165.83 48.37 168.96 59.35C174.67 79.38 180.29 99.4401 187.95 118.84C188.31 119.75 188.45 120.74 188.69 121.69V121.7Z" fill="#373938"/>
<path d="M255.75 252.03C255.75 248.72 255.73 245.41 255.73 242.1C256.99 245.41 256.95 248.72 255.75 252.03Z" fill="#E5DFD7"/>
<path d="M167.12 58.8C173 79.44 179.04 100.02 186.65 120.11C186.06 120.64 185.38 120.72 184.65 120.47C184.09 120.08 183.79 119.5 183.48 118.91C181.42 114.91 180.22 114.69 177.9 118.32C176.55 120.44 175.22 121.32 173.15 119.72C170.26 117.48 168.37 118.63 166.6 121.2C164.29 124.53 167.56 124.97 169.13 126.31C169.38 126.52 169.58 126.79 169.76 127.08C169.85 127.89 169.43 128.42 168.8 128.83C166.56 129.89 164.02 130.15 161.81 131.3C158.06 133.24 157.79 135.59 161.2 138.07C162.54 139.05 163.07 139.82 162.08 141.24C160.96 142.86 159.3 144.53 161.06 146.51C162.83 148.5 165.02 147.38 167.05 146.73C167.86 146.47 168.66 146.4 169.46 146.75C169.83 147.06 170.1 147.44 170.28 147.88C170.68 149.16 170.45 150.52 170.72 151.82C171.21 154.15 172.58 155.59 174.94 154.59C177.78 153.39 180.41 154.06 183.2 154.5C187.67 155.2 190.21 153.15 190.27 149.13C190.35 143.82 190.4 143.78 196.3 143.87C199.49 147.56 200.93 152.24 203.26 156.41C207.97 164.87 213.33 172.85 219.84 180C222.13 182.52 222.68 184.32 219.73 186.76C217.62 188.5 215.31 190.27 214.29 193.05L214.42 192.99C207.89 200.4 200.67 207.13 193.84 214.25C191.5 218.54 187.21 221.14 184.44 225.07L184.52 225.02C179.65 229.12 176.43 234.48 173.16 239.8C171.96 241.75 172.4 243.61 173.46 245.43C178.11 253.37 182.73 261.33 187.5 269.19C188.1 270.17 189.55 270.64 190.6 271.35C191.09 271.69 191.11 272.23 191.18 272.75C192.8 274.01 192.94 276.48 194.98 277.39C195.59 277.64 196 278.06 196.19 278.69C200.79 284.99 205.93 290.82 211.32 296.46C216.6 301.98 216.53 301.99 211.34 307.07C197.75 320.38 184.1 333.63 172.09 348.43C168.88 349.24 165.61 348.7 162.56 351.52C160 353.88 160.1 354.72 162.2 356.65C163.19 357.56 164.08 358.56 163.88 360.07C163.82 360.4 163.75 360.74 163.69 361.07C160.9 365.05 158.12 369.03 155.33 373.01C153.36 373.56 152.08 372.64 151.12 371.04C150.73 369.53 150.62 367.99 151.15 366.09C149.74 367.35 149.66 368.66 149.36 369.88C149.05 370.86 148.47 371.53 147.39 371.65C146.93 371.65 146.49 371.56 146.06 371.4C145.52 371.35 144.89 370.45 144.5 371.23C144.24 371.74 145.06 372.3 145.41 372.84C146.79 376.15 145.78 379.72 146.56 383.1C147.39 384.72 147.1 386.05 145.54 387.06C143.57 387.37 141.85 386.14 139.76 386.1C141.42 387.15 143.56 387.17 144.5 389.06C141.74 392.43 141.6 398.09 135.89 398.86C137.17 401.71 134.64 403.24 133.54 405.13C125.58 418.73 113.79 427.96 99.62 434.4C98.58 434.87 97.5301 435.45 96.3101 434.93C91.0301 430.85 87 425.58 82.69 420.58C79.08 416.17 74.3 413.1 69.94 409.55C60.15 401.29 48.88 395.42 37.51 389.77C34.74 388.39 31.43 388.42 28.46 387.42C24.15 386.62 20.09 384.88 15.75 384.22C14.65 384.05 13.48 383.69 13.47 382.18C18.14 373.77 24.9 367.06 31.81 360.6C48.79 344.71 62.46 326.11 75.94 307.35C78.2 304.2 79.7 300.49 81.54 297.05C83.54 293.89 87.96 293.94 89.94 290.52C90.77 289.08 92.25 290.07 92.9 291.5C93.49 292.81 92.99 294.08 92.79 295.34C93.91 291.86 92.46 288.52 92.1 285.12C93.38 282.96 95.11 282.97 97.16 283.96C99.44 285.06 101.68 286.32 104.24 286.68C99.82 285.63 96.04 282.47 91.23 282.72C90.78 282.54 90.43 282.25 90.18 281.83C89.83 279.77 91.13 279.34 92.77 279.06C95.22 278.65 97.66 278.44 99.34 278.56C98.29 278.58 96.44 278.39 94.6 278.72C93.39 278.94 92.12 279.06 91.57 277.78C90.96 276.34 92.06 275.37 92.96 274.34C95 272.04 98.51 272.17 100.99 269.03C97.1 271.5 94.14 273.93 90.49 275.12C95.76 258.76 96.4 241.85 96.55 224.88C96.57 222.72 96.62 220.56 96.66 218.4C96.82 217.92 97.11 217.53 97.53 217.26C103.53 213.39 103.57 212.03 97.76 207.53C96.97 206.92 96.28 206.26 95.9 205.32C95.92 204.85 95.94 204.38 95.96 203.9C97.29 202.47 99.27 202.49 100.87 201.65C104.79 199.59 106.82 195.27 105.48 191.73C104.25 188.47 101.88 187.96 99.47 190.45C98.05 191.92 97.45 194.44 94.67 194.14C93.6 193.39 93.89 192.1 93.45 191.09C91.5 176.2 86.03 162.32 81.45 148.15C74.52 126.68 64.94 106.31 56.15 85.61C55.59 84.29 54.49 83.83 53.51 83.1C52.89 79.54 51.17 76.52 48.88 73.79C48.72 69.83 44.58 67.4 44.85 63.27C55.98 62.76 66.25 58.5301 76.87 55.8101C81.16 54.7101 85.33 53.14 89.56 51.78C109.57 46.5 128.61 38.27 148.37 32.22C152.56 30.94 156.32 28.2301 160.27 26.1801C161.77 28.8201 161.14 31.9 162.07 34.66C160.36 35.85 158.34 34.85 156.41 35.65C152.82 37.13 151.59 39.66 154.27 42.52C156.52 44.93 156.8 46.22 153.9 48.36C151.77 49.93 153.09 56.19 155.63 57.54C158.77 59.21 161.97 61.53 165.69 58.63C166.04 58.36 166.66 58.57 167.13 58.75L167.12 58.8Z" fill="#FAF5EE"/>
<path d="M58.9 443.89C44.26 444.07 30.16 441.25 16.86 435.06C1.73998 428.03 -2.14577e-05 416.21 4.54998 401.61C5.25998 399.32 6.62998 399.06 8.73998 399.38C36.46 403.55 59.45 416.37 78.25 437.03C80.92 439.97 81.21 441.62 76.66 442.23C74.04 442.59 71.49 443.59 68.87 443.81C65.57 444.09 62.23 443.88 58.9 443.88V443.89Z" fill="#E8862E"/>
<path d="M29.85 386.31C45.23 390.38 58.36 398.57 70.56 408.48C74.2 413 79.33 415.86 83.29 420.03C88.1 424.57 92.8301 429.2 96.3101 434.91C92.9601 438.22 90.07 438.6 86.5 434.69C73.65 420.63 59.72 407.9 41.92 400.15C33.38 396.43 24.68 393.2 15.59 391.17C8.87005 389.66 8.82003 389.86 12.7 384.18C17.25 382.7 21.28 385.21 25.54 385.92C27 386.16 28.37 386.72 29.86 386.31H29.85Z" fill="#EF7727"/>
<path d="M11 392.36C25.46 394.68 38.87 399.89 51.52 407.06C64.57 414.46 75.01 424.94 84.87 436.05C85.57 436.84 87.55 437.77 85.87 439.21C84.41 440.46 83.02 440.16 81.68 438.46C66.05 418.69 45.48 406.58 21.48 399.82C17.79 398.78 14.04 398.19 10.21 397.88C8.79003 397.76 6.34001 398.34 6.87001 395.58C7.26001 393.54 8.40002 391.81 11.01 392.35L11 392.36Z" fill="#EA8730"/>
<path d="M94.65 194.16C96.1 192.82 97.5399 191.55 98.3599 189.63C99.2599 187.53 101.32 187.02 103.34 187.43C105.22 187.8 106.26 189.14 106.8 191.16C108.31 196.74 105.25 203.96 95.92 203.93C94.66 200.78 94.08 197.55 94.64 194.17L94.65 194.16Z" fill="#B53138"/>
<path d="M90.52 282.05C90.87 282.09 91.21 282.13 91.56 282.17C92.53 282.91 93.1101 283.79 92.5601 285.06C94.9601 289.39 94.66 293.91 93.74 299.06C91.14 297.14 90.79 295.2 92.03 292.97C92.65 291.86 92.43 291.1 91.47 290.51C90.74 290.06 89.96 290.65 89.9 291.15C89.37 296.39 84.15 294.88 81.52 297.05C82.9 291.45 85.83 286.45 87.78 281.07C88.99 280.57 89.78 281.26 90.52 282.06V282.05Z" fill="#B58065"/>
<path d="M90.52 282.05C89.6 281.72 88.69 281.39 87.78 281.06C88.53 279.01 88.69 276.7 90.47 275.12C92.94 271.85 98.4 271.57 99.14 266.5C99.18 266.25 100.41 265.85 100.82 266.05C102.3 266.81 102.52 268.4 102.73 269.86C102.94 271.28 101.75 271.53 100.81 272.24C98.1301 274.28 93.65 273.07 91.8 277.49C95.25 278 98.35 278.45 101.27 276.61C102.27 275.98 103.11 275.91 103.91 276.73C104.2 277.03 104.47 277.64 104.36 277.99C103.98 279.21 102.84 278.99 101.88 279.09C98.61 279.43 95.3499 279.87 92.0699 280.08C90.6099 280.18 90.61 281.06 90.51 282.04L90.52 282.05Z" fill="#9A4E43"/>
<path d="M95.88 205.33C96.78 205.76 97.69 206.15 98.57 206.62C101.48 208.16 104.29 210.09 103.6 213.81C102.94 217.35 99.68 217.94 96.64 218.4C96.46 214.04 94.97 209.76 95.89 205.33H95.88Z" fill="#B53138"/>
<path d="M146.54 383.09C144.64 381.72 146.34 378.33 143.41 377.54C143.99 376.13 146.7 375.15 144.33 373.12C144.21 371.53 144.83 370.74 146.51 371.06C147.5 371.77 147.48 373.22 149.78 372.96C152.04 372.71 152.09 375.78 151.5 377.93C151.14 380.89 149.83 382.93 146.55 383.09H146.54Z" fill="#C25A48"/>
<path d="M151.49 377.93C150.9 376.36 150.3 374.78 149.71 373.21C147.71 374.02 150.14 375.8 148.43 376.67C146.86 375.15 146.54 373.16 146.5 371.07C147.23 370.7 147.95 370.33 148.68 369.95C149.9 369.6 150.58 370.67 151.54 371.03C152.8 371.68 154.06 372.34 155.32 373C154.31 374.85 153.75 377.05 151.5 377.94L151.49 377.93Z" fill="#E0B9A3"/>
<path d="M144.48 389.05C142.27 388.39 140.06 387.76 137.87 387.06C137.09 386.81 136.27 386.31 136.45 385.34C136.64 384.35 137.58 384.05 138.39 384.35C140.78 385.22 143.88 384.25 145.52 387.06C145.5 387.9 145.68 388.84 144.48 389.06V389.05Z" fill="#B24441"/>
<path d="M29.85 386.31C25.01 387.94 20.75 384.52 16.07 384.7C14.95 384.74 13.82 384.36 12.69 384.18C12.72 383.42 12.66 382.64 13.45 382.17C18.92 383.55 24.38 384.93 29.85 386.31Z" fill="#774323"/>
<path d="M123.34 13.12C124.17 13.16 125.05 13.4199 125.81 13.2099C132.45 11.4099 132.5 11.36 134.52 17.66C135.98 22.23 137.1 26.9199 138.7 31.4499C139.42 33.4999 138.63 34.0499 137.05 34.6899C134.98 35.5299 134.44 34.28 133.92 32.73C132.55 28.65 131.06 24.6 129.76 20.49C129.24 18.85 128.62 17.41 126.61 16.23C127.27 22.14 130.24 26.8699 131.62 32.0799C132.13 34.0199 133.48 35.86 130.47 36.86C127.41 37.87 126.83 35.8899 126.29 33.5899C124.99 28.0999 123.38 22.66 120.54 17.77C118.31 13.93 123.75 15.3899 123.44 13.0699L123.36 13.12H123.34Z" fill="#F05072"/>
<path d="M70.55 31.12C71.9 29.69 73.75 29.36 75.53 28.89C81.4834 27.2633 85.4 29.2966 87.28 34.99C88.52 38.74 89.51 42.5799 91.01 46.2099C91.96 48.5299 91.39 49.9 89.52 51.12C87.22 51.18 85.84 50.8599 85.36 47.8299C84.59 42.9699 82.86 38.26 81.42 33.52C80.89 31.78 79.89 30.27 77.56 29.11C77.75 33.8 79.82 37.56 80.82 41.55C81.38 43.79 82.17 45.9699 82.76 48.2099C83.18 49.8099 84.77 51.81 82.12 52.81C79.34 53.86 78.93 51.73 78.35 49.68C76.87 44.43 75.16 39.26 73.65 34.02C73.16 32.32 72.77 30.76 70.5 31.1L70.53 31.13L70.55 31.12Z" fill="#F04D6D"/>
<path d="M150.42 24.35C150.45 29.64 147.69 32.4001 142.54 32.5001C140.24 32.5501 140.43 30.68 139.98 29.49C137.85 23.77 137.55 17.46 134.39 12.07C133.75 10.98 134.05 10.32 135.18 9.73003C136.68 8.95003 137.7 9.16003 138.37 10.73C139.97 14.55 141.53 18.3801 143.18 22.1701C143.88 23.7701 143.97 25.7301 146.17 27.2501C145.5 21.1501 142.87 16.27 140.81 11.23C140.15 9.61003 138.51 8.18004 141.53 6.99004C144.4 5.87004 144.56 8.05009 145.28 9.54009C147.18 13.4601 146.71 18.3501 150.19 21.6401C151.64 22.4301 151.38 23.36 150.41 24.35H150.42Z" fill="#F15274"/>
<path d="M150.42 24.35C150.35 23.45 150.27 22.5401 150.2 21.6401C149.03 17.0101 148.93 12.0701 146.09 7.93011C145.16 6.57011 145.39 5.67006 147.06 4.88006C155.02 1.13006 155.39 1.21004 156.91 8.98004C157.74 13.21 158.56 17.4301 159.46 21.6501C159.89 23.7001 159.56 25.3701 157.38 26.0001C154.29 26.9001 155.35 23.8901 155.03 22.8701C153.28 17.4401 151.95 11.87 149.85 6.47003C149.99 13.65 153.37 20.35 153.38 27.73C150.81 27.42 151.69 25.09 150.42 24.35Z" fill="#E64A69"/>
<path d="M111.6 41.4101C111.81 43.1501 110.84 43.68 109.41 44.24C107.66 44.92 107.13 44.26 106.54 42.76C104.14 36.57 101.7 30.4001 99.11 24.3001C98.47 22.8001 98.5999 22.0501 100.21 22.0401C102.19 22.0201 104.8 18.77 106.05 22.32C108.24 28.57 109.78 35.0401 111.6 41.4201V41.4101Z" fill="#F55879"/>
<path d="M115.3 16.9599C118.1 16.3299 118.31 17.93 118.82 19.05C121.29 24.48 122.84 30.23 124.73 35.86C125.7 38.76 123.87 38.62 122.21 39.38C119.53 40.61 119.67 38.85 119.27 37.17C117.91 31.55 116.7 25.8699 114.25 20.5799C113.21 18.3399 113.61 17.0599 115.31 16.9499L115.3 16.9599Z" fill="#F15772"/>
<path d="M98.0699 46.8001C98.3399 47.5001 97.48 47.9701 96.2 48.4101C94.43 49.0201 94.14 47.74 93.89 46.69C92.37 40.2 89.96 34.04 87.16 28.02C86.46 26.52 86.34 25.47 88.28 25.12C89.56 24.89 90.89 23.49 91.81 25.98C94.22 32.52 96.1799 39.1801 98.0699 46.7901V46.8001Z" fill="#E7486D"/>
<path d="M109.85 19.14C111.29 18.75 112.06 19.48 112.41 20.76C114.08 26.82 115.74 32.88 117.4 38.93C117.85 40.57 117.02 41.42 115.56 41.87C113.31 42.56 113.73 40.7399 113.41 39.5799C111.75 33.5399 111.04 27.21 108.12 21.54C107.1 19.57 108.35 19.27 109.85 19.14Z" fill="#F5567E"/>
<path d="M104.28 44.88C104.46 46.3 103.01 46.3499 102.02 46.7199C100.62 47.2399 99.86 46.65 99.7 45.12C99.04 38.64 96.87 32.54 94.91 26.39C94.55 25.27 93.9801 24.07 95.4201 23.39C96.2301 23 97.1001 23.3899 97.4201 24.3199C99.7001 31.0799 101.94 37.85 104.28 44.89V44.88Z" fill="#EE4F75"/>
<path d="M70.52 31.09C71.34 38.04 73.69 44.57 76.16 51.04C76.94 53.09 77.19 54.48 74.53 54.98C72.53 55.36 70.96 56.0401 70.38 52.8101C69.43 47.4801 67.86 42.25 66.28 37.05C64.55 31.37 64.42 31.41 70.55 31.11L70.52 31.08V31.09Z" fill="#F14B71"/>
<path d="M68.49 54.56C68.84 57.02 67.19 56.83 66.02 57.3C64.15 58.04 63.9 57.11 63.54 55.52C62.1 49.22 60.03 43.1 57.56 37.13C56.99 35.75 56.02 34.3099 58.52 33.8399C59.99 33.5699 61.87 31.92 62.66 34.47C64.76 41.27 66.65 48.13 68.5 54.55L68.49 54.56Z" fill="#F35178"/>
<path d="M61.5 57.4799C61.72 59.3399 60.16 58.9999 59.18 59.3299C57.97 59.7299 56.94 59.83 56.54 58.17C54.86 51.26 53.15 44.35 50.15 37.86C49.56 36.58 50.1799 36.05 51.2199 35.63C52.3999 35.15 53.51 35 54.17 36.41C57.35 43.18 59.34 50.37 61.51 57.49L61.5 57.4799Z" fill="#F54D79"/>
<path d="M42.8 61.82C40.17 56.3 37.5399 50.77 34.9099 45.25C34.0999 43.54 32.06 41.38 34.39 40.07C36.93 38.66 36.8099 41.93 37.5999 43.22C40.8399 48.54 45.28 53.1401 47.37 59.1601C47.63 59.9201 47.66 60.7601 47.8 61.5601C46.11 62.4801 44.46 61.98 42.84 61.85L42.65 62.0601L42.8 61.8101V61.82Z" fill="#E04C68"/>
<path d="M54.46 59.34C54.68 60.66 53.76 60.91 52.69 61C51.3 61.12 49.87 61.1501 49.73 59.2901C49.21 52.3701 45.43 46.54 43.43 40.12C43.14 39.19 41.75 37.96 43.7 37.36C44.9 36.99 46.54 36.53 47.14 38.23C49.64 45.21 52.01 52.24 54.46 59.34Z" fill="#F34878"/>
<path d="M42.37 46.28C41.12 44.54 39.86 42.8101 38.64 41.0501C38.03 40.1701 36.72 39.1 38.56 38.34C39.57 37.92 41.01 37.92 41.46 39.42C42.12 41.62 42.64 43.86 43.22 46.08C42.94 46.15 42.65 46.22 42.37 46.29V46.28Z" fill="#DB4C70"/>
<path d="M193.47 213.99C200.63 207.16 206.13 198.67 214.43 192.99C214.65 195.39 212.54 196.27 211.27 197.6C205.47 203.68 199.55 209.65 193.67 215.66C193.12 215.16 193.06 214.61 193.46 213.99H193.47Z" fill="#553D26"/>
<path d="M193.47 213.99C193.54 214.54 193.61 215.1 193.68 215.65C190.86 219.04 188.44 222.82 184.45 225.06C186.56 220.64 190.39 217.62 193.47 213.99Z" fill="#6F583D"/>
<path d="M163.86 360.05C162.6 358.77 161.3 357.53 160.1 356.2C157.98 353.85 158.38 352.2 161.44 350.99C161.94 350.79 162.04 350.62 162.27 350.21C163.91 347.31 168.36 346.52 172.09 348.41C169.35 352.29 166.61 356.17 163.87 360.05H163.86Z" fill="#D67744"/>
<path d="M196.19 278.68C195.46 278.54 195.08 278.08 194.97 277.37C196.33 275.14 197.73 272.94 199.96 270.98C203.18 275.18 206.29 279.22 209.39 283.27C209.26 284.87 208.42 284.73 207.37 284.11C205.4 284.65 203.4 285.96 201.78 283.35C200.33 281.03 203.55 281.11 203.66 279.04C200.77 282.08 198.84 277.56 196.2 278.68H196.19Z" fill="#E48A54"/>
<path d="M207.37 284.11C208.04 283.83 208.72 283.55 209.39 283.27C211.25 284.38 213.55 285.23 213.05 288.04C212.93 288.69 212.96 288.94 213.5 288.92C213.96 288.9 214.45 288.35 214.86 288.42C216.38 288.68 218.16 289.53 218.21 290.89C218.3 293.29 215.62 293.5 214.04 294.48C212.36 295.53 211.15 293.74 211.1 292.83C211.01 290.88 210.26 291.04 208.72 290.39C206.56 289.48 203.7 287.06 207.36 284.1L207.37 284.11Z" fill="#DC8959"/>
<path d="M186.36 255.29C184.53 254.6 181.3 257.01 180.88 253.87C180.44 250.58 174.65 247.94 179.48 243.99L179.39 244.07C181.94 243.48 183.07 245.14 183.62 247.09C184.38 249.78 187.44 251.09 187.59 254.07C187.44 254.74 187.04 255.16 186.35 255.3L186.36 255.29Z" fill="#E69C6A"/>
<path d="M186.36 255.29C186.77 254.88 187.19 254.47 187.6 254.06C189.78 256.03 193.21 257.9 186.95 260.88C189.8 260.52 192.03 259.34 192.84 261.86C193.78 264.77 189.91 264.92 189.5 267.14L189.57 267.06C186.54 265.34 185.66 262.01 183.87 259.37C181.95 256.52 185.49 256.64 186.36 255.29Z" fill="#E6995B"/>
<path d="M191.18 272.73C190.39 272.51 190.43 271.95 190.6 271.33C190.26 269.91 189.91 268.48 189.57 267.05L189.5 267.13C191.04 267.15 191.78 265.88 192.71 265.02C194.08 263.74 195.1 264.09 195.83 265.53C197.05 267.95 199.23 270.27 196.32 273.11C194.29 275.1 193.02 270.7 191.18 272.74V272.73Z" fill="#D38C58"/>
<path d="M224.55 294.02C223.17 295.45 221.59 296.73 220.45 298.33C218.59 300.92 217.04 299.51 215.67 298.08C213.56 295.88 216.32 295.5 217.23 294.44C219.56 291.73 222.1 293.69 224.58 294.07L224.55 294.02Z" fill="#C37346"/>
<path d="M179.48 243.99C175.31 246.03 173.7 245.15 175.42 241.73C176.18 240.24 174.98 238.29 176.86 237.33C181.06 240.51 181.27 241.05 179.39 244.07L179.48 243.99Z" fill="#DC8C60"/>
<path d="M196.3 143.86C194.69 145.2 192.68 145.26 190.22 145.39C192.36 148.61 192.47 151.32 189.92 154.06C187.49 156.68 184.92 156.77 181.84 155.66C179.59 154.85 177.32 154.04 175.09 156.14C173.64 157.5 171.68 156.68 170.63 155.53C168.71 153.43 168.64 150.79 169.75 148.16C171.57 142.94 176.38 141.2 180.68 138.99C181.97 138.33 183.39 137.92 184.49 136.89C185.29 136.77 185.82 137.16 186.22 137.79C186.8 139.48 187.18 141.24 188.08 143.25C188.06 141.02 185.57 138.93 188.21 137.4C191.28 135.63 193.06 137.97 194.82 139.99C195.78 141.11 196.49 142.32 196.3 143.87V143.86Z" fill="#983140"/>
<path d="M185.58 138.2L184.3 137.18C183.72 137.79 182.97 138.11 182.22 138.42C175.15 141.24 173.32 139.97 173.23 132.07C173.22 130.93 173.13 129.79 173.09 128.65C173.15 128.15 173.33 127.71 173.63 127.31C175.4 125.86 177.14 125.48 178.82 127.43C179.33 128.85 179.02 130.82 181.18 131.18C182.09 131.33 182.71 130.77 183.08 130C184.21 127.64 181.94 126.59 181.08 125C180.77 122.34 182.35 120.99 184.52 120.06C185.23 120.08 185.94 120.1 186.64 120.12C188.43 120.43 185.84 123.19 188.31 123.11C187.7 126.26 191.26 128.8 189.63 132.1C188.75 134.45 188.6 137.29 185.57 138.21L185.58 138.2Z" fill="#853843"/>
<path d="M185.58 138.2C186.93 136.16 188.28 134.13 189.64 132.09C190.52 131.69 191.26 131.22 191.91 132.61C192.96 134.82 189.79 133.74 190.13 135.57C193.89 134.55 194.11 137.51 194.82 139.97C194.5 139.93 194.13 139.97 193.86 139.83C192.07 138.93 190.32 136.22 188.33 138.32C186.99 139.73 189.5 141.59 189.48 143.45C187.647 143.703 186.347 141.95 185.58 138.19V138.2Z" fill="#C47F80"/>
<path d="M167.12 58.8001C164.76 58.9301 164.32 62.4001 161.86 62.0301C158.33 61.4901 154.66 59.57 152.86 57.22C151.11 54.94 151.04 50.73 151.53 47.21C151.88 44.71 156.21 48.88 155.17 45.01C154.78 43.57 151.96 44.27 151.24 41.94C150.64 40.01 152.27 38.68 151.47 36.47C150.7 34.34 154.99 35.35 155.5 34.83C157.94 32.35 159.8 32.42 162.05 34.69C162.18 36.6 162.31 38.4901 162.43 40.3901C160.93 41.2001 159.86 40.23 157.82 38.58C160.41 41.64 162.23 43.6701 163.6 46.0401C164.77 50.2901 165.94 54.5501 167.12 58.8001Z" fill="#41C1B7"/>
<path d="M163.6 46.04C160.73 43.55 157.16 41.58 156.9 36.64C159.27 37.44 160.06 40.21 162.43 40.38C163.05 42.22 163.78 44.03 163.6 46.03V46.04Z" fill="#C6EAE9"/>
<path d="M125.26 227.02C132.18 226.92 140.08 234.85 139.43 241.57C139.26 243.32 139.03 244.88 139.41 246.69C140.4 251.38 135.74 255.7 131.08 254.25C128.4 253.42 128.85 256.04 128.44 256.2C123.55 253.4 117.26 252.63 116.51 246.06C118.08 244.2 118.7 240.48 122.49 243.04C123.39 243.79 124.45 244.27 125.54 244.7C124.5 244.18 123.41 243.77 122.5 243.03C121.83 241.93 121.19 240.8 119.53 240.01C119.72 241.62 119.35 242.94 117.75 243.43C116.31 243.87 115.2 243.61 114.78 241.97C112.83 239.48 112.68 234.92 113.89 234.19C117.12 232.25 116.66 225.83 122.32 227.28C125.33 227.79 125.2 230.99 126.79 232.58C125.85 230.9 124.44 229.29 125.26 227.02Z" fill="#27AEA4"/>
<path d="M121.35 354.4C119.78 354.66 119.36 354.94 120.01 356.39C121.52 359.79 119.74 361.47 117.06 362.6C113.25 364.21 110.52 362.17 110.46 358.01C110.44 356.28 111.88 354.47 109.74 352.27C109.6 354.64 109.78 356.71 108.48 358.38C107.45 359.7 108.99 363.49 105.81 362.41C103.25 361.54 100.36 359.77 99.5501 356.54C99.1001 354.74 101.09 354.65 101.91 353.63C99.84 352.43 97 355.12 95.25 352.24C94.32 350.71 95.03 349.28 95.29 347.9C95.76 345.45 97.92 344.59 100.04 344.17C101.54 343.88 102.72 343.37 102.79 341.84C102.92 339.14 101.87 335.4 106.82 338.38C106.87 338.41 107.38 337.8 107.58 337.44C109.23 334.3 111.9 335.42 113.44 336.84C115.43 338.67 116.57 339.87 119.84 339.14C122.31 338.59 123.97 342.19 125.32 344.2C124.38 346.55 120.91 343.36 120.85 346.87C121.19 347.57 118.72 347.86 120.6 348.84C123.38 350.3 123.12 352.27 121.37 354.4H121.35Z" fill="#3CAB9D"/>
<path d="M73.72 347.14C75.43 353.77 73.32 356.42 66.58 356.08C64.29 356.72 62.12 356.67 60.21 355.03C60.35 353.78 59.9 352.82 58.94 351.99C57.17 350.45 53.49 349.69 56.32 346.09C52.78 344.16 54.96 341.63 56.05 339.75C57.13 337.87 58.95 335.54 60.78 335.18C63.57 334.64 66.66 335.63 69.63 335.98C70.39 339.92 74.06 342.79 73.72 347.13V347.14Z" fill="#3AAB9F"/>
<path d="M120.56 83.1501C120.2 84.4201 119.88 85.7 119.45 86.95C118.94 88.42 117.13 90.3901 116.53 89.5201C113.49 85.1901 107.7 89.1201 104.82 85.1701C104.68 84.9801 104.77 84.39 104.95 84.24C109.57 80.6 106.66 77.88 104.04 74.86C102.07 72.59 105.21 70.52 104.81 68.2C104.1 64.14 106.94 64.77 109.14 65.2C111.06 65.57 110.82 59.8501 113.64 63.7701C114.14 65.2301 114.11 66.7601 114.26 68.2701C113.95 69.5701 112.94 70.1501 111.79 70.4301C110.27 70.8101 110.39 72.0601 110.16 73.1601C110.8 73.1801 111.22 72.52 111.93 72.69C113.76 73.13 113.89 74.95 114.73 76.07C114.52 74.3 112 73.0401 113.45 70.7701C117.63 68.5101 121.07 71.3 124.74 72.45C125.4 72.66 125.76 73.28 125.9 73.95C126.01 74.45 125.93 75.23 125.61 75.34C121.73 76.56 125.71 82.8301 120.56 83.1501Z" fill="#41B6A6"/>
<path d="M107.37 112.86C107.54 111.11 108.63 109.84 109.69 108.61C111.91 106.04 114.3 105.82 115.95 108.99C117.16 111.31 118.09 112 120.19 110.05C120.97 109.32 122.21 108.61 123.22 109.87C124.03 110.89 123.34 111.97 123.22 113.08C123.09 114.27 119.54 115.99 123.47 116.9C125.38 119.33 125.4 122.27 125.73 125.13C120.98 127.7 116.23 130.29 111.63 133.13C110.16 134.04 108.54 134.54 106.96 133.54C105.16 132.4 104.7 130.18 105.53 128.71C108.23 123.95 108.05 119.16 106.73 114.17C106.61 113.73 107.07 113.27 107.37 112.88V112.86Z" fill="#F3A338"/>
<path d="M89.18 399.85C87.76 398.85 86.91 397.71 85.2 397.84C80.32 398.22 76.5 395.43 73 392.71C71.32 391.4 70.9399 388.46 71.4099 386.05C71.7199 384.45 72.14 382.88 74.74 383.63C75.32 383.8 76.25 380.62 78.53 380.03C79.49 379.78 80.08 379.46 80.95 379.99C83.2 381.38 84.8299 384.91 88.3499 382.17C88.4099 382.12 89.39 383.24 89.94 383.82C85.9 387.33 95 388.93 91.39 391.41C87.83 393.85 88.47 396.48 89.18 399.86V399.85Z" fill="#BE3334"/>
<path d="M125.53 125.07C122.51 122.93 123.83 119.7 123.47 116.9C126.22 114.4 129.13 114.09 131.81 116.78C134.29 119.27 135.83 122.34 133.68 125.72C132.46 127.64 132.73 128.63 134.09 130.37C136.34 133.23 137.39 136.41 132.55 138.13C126.55 139.35 121.31 137.74 116.61 133.96C115.46 133.04 114.32 131.89 115.75 130.79C117.92 129.11 119.94 127 123.04 126.86C124.05 126.81 126.86 128.61 125.52 125.08L125.53 125.07Z" fill="#F8A434"/>
<path d="M169.64 146.42C168.82 146.92 167.97 147.39 167.17 147.92C164.33 149.82 161.52 149.88 159.17 147.31C157.36 145.33 158.43 142.87 162.5 139.32C160.28 138.69 156.98 139.81 156.96 136.17C156.95 132.84 158.4 130.52 161.83 129.71C164.04 129.19 166.07 127.9 168.47 128.24C169.58 128.49 170.71 128.57 171.55 129.6C173.98 132.57 173.41 134.4 169.63 135.55C169.01 135.74 168.42 136.09 167.82 136.37C168.45 136.14 167.46 136.34 167.59 136.3C169.95 135.54 172.5 134.32 174.05 137.32C175.18 139.52 175.92 142.02 173.19 143.91C172 144.73 171.38 146.35 169.65 146.41L169.64 146.42Z" fill="#A93741"/>
<path d="M125.53 125.07C125.35 126.19 128.4 128.63 124.22 128.11C120.77 127.68 118.32 129.71 116.03 131.67C120.61 136.27 126.47 137.5 132.55 138.12C131.57 139.53 129.36 138.39 128.52 140.08C124.36 141.41 120.94 137.78 116.9 138.34C116.36 137.97 115.84 137.59 115.32 137.2C115.77 137.69 116.41 137.94 116.88 138.4C117.57 140.22 117.86 142.16 119.19 143.75C120.26 145.03 120.97 146.57 119.54 148.16L119.59 148.14C113.82 147.08 112.86 141.39 110.16 137.11C107.86 139.95 109.83 143.18 107.48 145.12C106.81 145.06 106.14 145 105.46 144.93C105.06 141.12 105.54 136.91 100.06 136C98.82 135.8 98.5 133.97 98.99 132.58C99.41 131.4 100.24 130.75 101.57 130.64C102.24 130.58 103.05 132.02 103.49 130.61C103.72 129.86 103.21 129.05 102.57 128.43C101.49 127.38 99.22 127.4 99.52 125.1C100.4 125 101.33 124.99 101.74 123.97C105.78 123.45 106.64 121.09 105.72 117.44C105.2 115.37 103.65 113.21 105.56 111.04C106.16 111.64 106.76 112.24 107.36 112.85C107.93 114.91 108.36 117.03 109.11 119.02C110.02 121.44 110.54 123.33 108.05 125.49C106.23 127.07 105.36 130.28 107.22 132.29C109.27 134.5 110.82 131.3 112.67 130.75C117.22 129.39 120.11 124.34 125.52 125.05L125.53 125.07Z" fill="#F4C680"/>
<path d="M99.53 125.12C100.39 126.2 101.52 127.02 102.86 127.06C107.19 127.19 103.82 130.3 104.7 131.83C105.35 132.95 103.89 132.85 103.17 132.94C102.3 133.05 102.32 132.12 101.9 131.78C100.72 130.82 100.15 131.98 99.83 132.84C99.27 134.35 99.9899 135.45 101.44 135.93C106.86 137.71 107.52 139.15 105.46 144.96C99.22 146.93 98.1 146.15 98.49 139.5C98.58 137.94 97.73 138.45 97.16 138.3C95.78 137.92 94.82 136.95 94.12 135.88C92.71 133.72 90.13 131.39 91.63 128.82C93.15 126.21 95.96 124.37 99.51 125.13L99.53 125.12Z" fill="#F39336"/>
<path d="M184.52 120.05C183.5 121.68 182.48 123.31 181.46 124.94C181.22 125.36 180.89 125.69 180.47 125.92C178.26 127 175.23 125.41 173.51 128.08C171.79 129.44 170.62 128.12 169.36 127.22C167.07 126.51 163.61 126.42 163.92 123.37C164.14 121.15 166.11 118.59 168.04 117.18C171.08 114.96 173.05 118.03 175.43 120.13C176.63 117.11 177.34 113.32 181.58 114.04C184.95 114.61 184.31 117.65 184.53 120.04L184.52 120.05Z" fill="#A22D3B"/>
<path d="M147.72 310.01C146.08 308.52 144.32 309.44 142.58 309.72C138.77 310.32 135 310.12 131.31 308.94C129.17 308.26 127.42 307.08 126.74 304.8C126.16 302.87 126.7 301.19 128.18 299.87C129.81 298.41 130.95 299.97 132.04 300.73C135.59 303.2 139.4 305.14 143.44 306.6C144.5 306.98 145.98 308.13 146.56 305.9C146.46 305.07 146.69 304.63 147.62 304.98C148.36 306 148.83 307.73 150.56 306.07L150.5 306.01C152.94 308.85 154.49 305.14 156.56 305.19C158.52 305.42 159.63 306.44 159.34 308.49C158.91 311.55 156.21 310.08 154.58 310.76C152.48 310.68 150.54 309.2 148.33 310.01C148.13 310.01 147.93 310.01 147.73 310L147.72 310.01Z" fill="#B23534"/>
<path d="M150.56 306.09C150.72 301.95 150.41 297.76 151.51 293.69C152.37 290.51 153.77 287.7 157.45 287.11C159.92 286.71 161.56 287.98 162.59 290.15C164.24 293.62 162.59 296.28 160.37 298.68C157.55 301.73 153.82 303.62 150.49 306.03L150.55 306.09H150.56Z" fill="#B73733"/>
<path d="M107.49 145.13C107.51 143.14 107.44 141.14 107.56 139.15C107.65 137.78 106.81 135.79 108.84 135.34C110.81 134.9 112.08 136.59 112.4 138.16C113.32 142.64 116.73 145.17 119.59 148.15C115.54 155.52 115.21 157.18 109.29 153.42C106.2 151.46 108.07 147.91 107.48 145.13H107.49Z" fill="#F49938"/>
<path d="M113.48 69.21C113.53 67.4 113.58 65.59 113.63 63.78C114.16 66.22 116.17 66.11 118 66.33C119.14 65.64 120.39 67.22 121.52 66.17C124.24 63.33 126.96 63.35 129.48 66.35C131.79 69.11 131.39 71.76 128.57 73.9C127.21 74.93 126.59 76 127.14 77.65C126.37 80.03 128.11 81.44 129.24 83.08C126.37 85.78 123.44 82 120.56 83.16C121.65 81.39 127.58 79.12 119.99 78.51C120.28 76.66 121.85 77.13 122.72 76.52C123.64 75.88 125.18 75.62 125.01 74.25C124.81 72.61 123.1 73.49 122.17 73.04C119.47 71.72 116.76 70.61 113.67 71.13C113.03 70.55 112.92 69.92 113.49 69.23L113.48 69.21Z" fill="#51B0A3"/>
<path d="M147.62 304.99C147.27 305.3 146.91 305.6 146.56 305.91C143.5 303.4 140.28 301.06 137.43 298.33C135.24 296.23 133.62 293.63 135.32 290.31C136.45 288.1 138.43 287.15 140.65 287.36C144.02 287.67 145.16 290.46 145.92 293.25C146.97 297.08 147.95 300.95 147.63 304.99H147.62Z" fill="#B83831"/>
<path d="M141.39 177.98C142.07 175.2 143.59 172.93 145.48 170.79C147.15 168.89 149.15 167.74 151.52 168.37C154.16 169.07 155.95 171.01 156.99 173.66C157.79 175.72 156.62 176.81 155.3 177.8C152.75 179.71 149.81 180.74 146.68 181.26C144.27 181.21 140.41 183.51 141.39 177.98Z" fill="#AF353A"/>
<path d="M154.57 310.78C157.45 309.71 160.82 308.82 156.55 305.21C159.15 303.39 162.04 302.14 165.02 301.1C168.1 300.02 171.15 299.83 172.6 303.38C174.02 306.86 171.26 308.51 168.79 309.91C167.08 310.88 165.15 311.46 162.9 312.39C164.25 313.65 165.45 314.78 166.66 315.91C162.89 313.43 158.91 311.7 154.57 310.77V310.78Z" fill="#AE3237"/>
<path d="M149.64 311.16C154.18 313.36 158.17 315.05 161.48 317.86C163.41 319.49 165.15 321.4 163.87 324.27C162.52 327.32 159.59 327.75 156.83 328.05C153.81 328.38 153.63 325.59 153.03 323.69C151.8 319.78 150.87 315.78 149.64 311.16Z" fill="#AF2F2A"/>
<path d="M147.72 310.01C147.92 310.04 148.12 310.04 148.32 310.02C147.89 313.97 147.91 317.91 148.12 321.89C148.39 327.26 146.14 330.16 142.38 330.12C138.61 330.08 136.88 327.84 138.06 324.27C139.92 318.62 143.37 314 147.72 310.01Z" fill="#A83231"/>
<path d="M105.57 111.06C106.22 113.96 107.11 116.84 107.48 119.78C108.07 124.54 106.47 125.63 101.76 123.98C96.63 121.15 95.6099 116.4 96.3199 111.35C99.0399 112.84 102.27 105.99 105.57 111.05V111.06Z" fill="#F59A29"/>
<path d="M90.14 151.63C84.81 151.7 82.8301 149.21 82.7801 142.56C82.7601 139.61 84.18 137.57 86.95 137.27C90.08 136.93 94.7701 142.28 94.8101 145.67C94.8501 148.43 92.36 151.6 90.13 151.63H90.14Z" fill="#164E4D"/>
<path d="M147.09 101.98C144.37 102.09 141.89 101.41 141.65 98.3502C141.24 93.1702 143.86 88.6901 146.94 88.5201C149.29 88.3901 153.25 92.54 153.34 95.22C153.45 98.94 150.61 102.02 147.09 101.97V101.98Z" fill="#1E6D6E"/>
<path d="M119.55 148.17C119.69 146.6 119.37 145.17 118.05 144.18C115.85 142.53 115.73 140.42 116.54 138.05L116.5 138.1C121.12 135.01 124.44 139.85 128.52 140.08C130.68 142.85 129.62 145.58 127.75 147.66C125.44 150.25 122.38 149.46 119.54 148.17H119.55Z" fill="#F49938"/>
<path d="M185.87 168.11C189.25 167.59 190.23 170.72 191.82 173.27C194.08 176.91 191.6 179.34 189.16 180.28C185.55 181.67 182.35 178.91 180.82 176.07C179.88 174.31 181.02 171.21 181.75 168.86C182.31 167.05 184.1 168.83 185.87 168.12V168.11Z" fill="#106763"/>
<path d="M175.98 207.28C175.9 210.54 174.3 211.91 171.01 211.91C167.4 211.91 165.6 209.22 163.23 207.34C166.38 205.46 164.64 199.12 170.36 199.57C173.12 199.79 176.08 203.78 175.99 207.28H175.98Z" fill="#11706D"/>
<path d="M143.67 311.82C140.32 314.73 137.01 317.68 133.61 320.52C131.72 322.1 129.58 322.83 127.25 321.34C125.7 320.35 125.19 318.86 125.31 317.08C125.52 314.23 127.84 313.76 129.86 313.33C134.35 312.37 138.9 311.69 143.42 310.89L143.66 311.82H143.67Z" fill="#B22F2C"/>
<path d="M141.39 177.98C141.34 181.99 144.46 180.89 146.68 181.26C145.58 182.56 143.9 181.8 142.23 182.54C145.18 184.06 147.92 185.47 150.65 186.87C150.4 187.99 149.62 188.43 148.56 188.52C145.86 188.35 144.43 185.41 141.77 185.29C143.61 185.73 145.25 186.53 146.03 188.51C146.07 189 145.95 189.44 145.68 189.85C144.61 189.15 143.59 188.37 142.47 187.78C139.99 186.47 141.42 188.47 141.33 189.18C140.46 189.96 139.57 189.89 138.66 189.23C138.47 188.31 138.28 187.39 138.08 186.39C135.72 186.83 137.17 189.36 135.74 190.17C134.37 189.56 134.98 188.22 134.66 187.23C135.86 184.8 135.19 183.66 132.41 183.96C131.86 183.32 130.71 183.88 130.33 182.9C131.77 181 134.9 183.99 135.42 181.74C135.96 179.35 132.74 178.5 131.42 176.76C131 176.2 129.83 176.09 130.42 174.69C133.1 174.49 133.62 177.7 136.24 178.19C136.38 176.89 136.54 175.4 136.7 173.92C137.31 173.33 136.76 171.77 138.33 171.98C138.38 173.81 138.37 175.63 138.49 177.46C138.56 178.53 137.67 180.14 139.07 180.56C141.03 181.15 140.27 178.57 141.4 177.99L141.39 177.98Z" fill="#BC9086"/>
<path d="M138.66 189.23C139.55 189.21 140.44 189.2 141.33 189.18C143.87 191.97 145.41 195.22 145.49 199.02C145.56 202.05 144.32 204.4 140.98 204.36C137.67 204.32 136.97 201.68 137.19 199.05C137.46 195.76 138.15 192.5 138.67 189.23H138.66Z" fill="#AF3532"/>
<path d="M130.63 371.48C131.56 369.45 131.58 365.9 135.36 366.64C139.06 367.37 140.97 370.03 140.63 373.95C140.34 377.21 137.96 378.16 135.32 377.74C132.22 377.25 130.32 375.22 130.63 371.48Z" fill="#A82C31"/>
<path d="M169.35 127.23C170.73 127.51 172.12 127.8 173.5 128.08C176.02 131.46 173.56 135.9 176.32 139.42C178.81 139.08 181.23 136.85 184.3 137.19C184.44 138.1 185.12 139.24 183.54 139.51C177.73 140.47 173.97 144.67 169.76 148.16C169.72 147.58 169.69 147.01 169.65 146.43C170.81 145.26 171.85 143.94 173.14 142.95C175.55 141.1 173.66 139.32 173.1 137.67C172.45 135.77 170.82 136.2 169.35 136.82C167.72 137.5 166.09 138.18 163.78 137.85C165.56 136.82 167.25 135.14 169.14 134.88C174.5 134.13 171.16 131.62 170.37 129.73C170.1 129.09 169.14 128.74 168.49 128.26C168.78 127.92 169.08 127.58 169.37 127.24L169.35 127.23Z" fill="#C47F80"/>
<path d="M160.9 227.12C161.65 228.08 162.23 229.6 163.19 229.91C166.18 230.88 167.68 233.94 166.92 235.61C165.74 238.17 162.74 240.12 159.54 240.38C156.82 240.6 155.64 236.57 157.2 233.34C158.2 231.28 161.04 230.17 160.9 227.12Z" fill="#544745"/>
<path d="M145.68 189.85C145.77 189.55 145.74 189.26 145.58 188.99C146.29 188.07 147.23 187.76 148.36 187.93C149.12 187.57 149.88 187.22 150.64 186.86C153.71 187.21 155.89 188.93 157.29 191.55C157.98 192.83 158.54 194.36 157.35 195.76C156.12 197.21 154.67 196.66 153.22 196.2C149.82 195.12 148.24 191.9 145.67 189.85H145.68Z" fill="#C43935"/>
<path d="M179.21 287.77C178.13 283.66 181.55 282.2 183.9 282.17C187.98 282.12 185.53 286.77 187.24 288.96C187.97 289.89 185.59 291.36 183.71 291.16C180.543 290.82 179.04 289.69 179.2 287.77H179.21Z" fill="#A34534"/>
<path d="M130.33 182.91C131.02 183.26 131.72 183.61 132.41 183.97C126.97 183.33 126.52 189.04 123.26 191.18C122.38 191.76 122.06 193.48 120.54 192.65C118.97 191.78 119.47 190.48 120.09 189.19C120.4 188.54 121.22 188.03 120.54 187.03C118.02 183.36 120.8 182.98 123.38 182.81C125.69 182.66 128.01 182.87 130.33 182.92V182.91Z" fill="#B7544B"/>
<path d="M156.61 258.45C157.36 256.95 159.88 256.54 157.84 254.06C156.67 252.64 158.47 250.07 159.84 249.05C161.58 247.74 163.09 248.59 163.48 251.17C163.63 252.18 167.06 250.54 166.33 253.26C165.73 255.49 163.51 256.89 162.6 259.15C162.41 259.61 158.95 258.75 156.62 258.45H156.61Z" fill="#6F5C52"/>
<path d="M182.35 321.09C184.44 322.17 184.75 324.27 185.52 325.98C186.47 328.1 187.25 330.61 184.42 331.88C181.73 333.08 180.11 330.67 178.76 329.04C177.19 327.14 178.12 325.02 180.32 324.4C182.3 323.85 180.98 321.73 182.34 321.09H182.35Z" fill="#BC3D2F"/>
<path d="M100.86 415.62C99.02 415.46 98.1999 414.12 98.0899 412.6C97.9199 410.31 99.01 408.05 101.04 407.4C102.19 407.03 102.74 407.47 103.55 405.88C104.73 403.59 106.16 406.17 106.62 406.99C107.78 409.08 103.26 415.57 100.86 415.61V415.62Z" fill="#B04A40"/>
<path d="M73.72 347.14C72.95 346.95 71.76 346.85 71.84 345.96C72.1 343.13 71.91 340.85 68.85 339.36C67.86 338.88 66.59 336.49 69.63 335.99C73.36 336.96 75.14 339.75 76.18 343.15C76.85 345.33 76.6 347.09 73.72 347.14Z" fill="#31A196"/>
<path d="M92.74 330.8C92.53 331.15 91.7 331.29 92.76 332.37C94.67 334.31 93.48 338.44 91.09 339.26C90.13 339.59 89.41 338.87 89.18 338.21C88.56 336.4 86.39 334.48 88.63 332.63C89.69 331.75 90.3299 331.48 89.1599 330.3C88.4699 329.61 88.6 328.76 89.4 328.17C90.3 327.49 91.34 327.64 92.23 328.13C93.21 328.67 93.62 329.53 92.74 330.81V330.8Z" fill="#9F6454"/>
<path d="M84.22 407.02C83.86 409.35 82.2 411.35 80.15 411.32C77.91 411.29 78.96 407.37 76.59 406.57C78.47 405.61 78.07 402.38 80.78 402.31C84.05 402.22 83.48 405.05 84.21 407.02H84.22Z" fill="#AE3732"/>
<path d="M121.53 66.16C120.51 69.68 119.2 66.64 118.01 66.32C116.83 64.99 115.55 63.72 114.5 62.29C113.72 61.23 113.24 59.95 114.52 58.79C115.22 58.16 115.74 56.94 116.84 57.34C118.19 57.83 119.68 58.6701 119.68 60.3101C119.68 62.5101 120.02 64.49 121.53 66.16Z" fill="#4CB0A3"/>
<path d="M121.35 354.4V349.98C119.85 349.61 117.75 352.19 117.12 349.52C116.46 346.71 119.27 347.36 120.83 346.87C122.52 347.33 125.29 345.63 125.66 348.65C125.94 351.03 124.91 353.44 123.25 355.26C122.69 355.88 121.72 355.3 121.36 354.39L121.35 354.4Z" fill="#309F93"/>
<path d="M65.54 82.04C64.86 81.71 64.18 81.39 63.5 81.06L63.58 81.16C62.9 76.43 67.94 75.52 69.81 72.41C70.78 70.8 73.78 72.99 74.58 75.81C72.33 76.56 67.39 74.91 70.68 80.17C68.16 80.88 67.63 78.25 65.83 77.97C64.8 79.26 65.85 80.76 65.47 82.1L65.54 82.03V82.04Z" fill="#8B867B"/>
<path d="M92.5601 285.05C92.2301 284.09 91.89 283.13 91.56 282.16C98.23 281.32 103.13 285.12 108.26 288.4C104.38 288.2 100.59 287.58 97.42 285.28C95.69 284.03 94.2599 283.61 92.5699 285.05H92.5601Z" fill="#AA5D54"/>
<path d="M138.32 171.97C137.78 172.62 137.24 173.27 136.69 173.91C135.71 170.42 136.86 166.22 133.04 163.64C132 162.94 132.26 161.44 132.97 160.47C133.54 159.69 134.51 159.13 135.59 159.57C136.74 160.04 137.47 160.92 137.52 162.21C137.66 165.47 137.15 168.78 138.31 171.96L138.32 171.97Z" fill="#A73E37"/>
<path d="M37.55 375.84C39.41 374.45 35.6 370.86 39.45 370.76C40.27 370.74 44.34 371.52 42.92 374C41.97 375.65 42.72 379.14 39.49 379.01C37.93 378.95 36.95 377.64 37.55 375.85V375.84Z" fill="#B86E4B"/>
<path d="M175.03 268.3C174.16 270 175.67 272.97 172.41 272.79C170.68 272.7 169.11 271.72 169.6 269.64C170 267.95 169.22 265.28 171.95 264.99C174.22 264.75 174.91 266.53 175.03 268.3Z" fill="#C0533A"/>
<path d="M134.65 187.23C135.79 187.92 135.39 189.18 135.73 190.17C135.29 192.59 134.89 195.02 134.4 197.43C134.13 198.72 133.31 199.48 131.91 199.13C130.14 198.69 130.82 197.47 131.12 196.39C132.01 193.22 132.81 190.03 134.65 187.23Z" fill="#C94D3E"/>
<path d="M122.55 243.05C119.3 241.57 119.04 246.07 116.53 246.06C114.35 245.38 114.35 243.77 114.8 241.97C115.76 242.51 116.57 243.33 117.86 242.4C119.58 241.16 117.63 241.03 117.34 240.49C116.74 239.39 117.18 238.46 117.86 237.85C118.94 236.88 119.41 238.2 120.16 238.7C121.78 239.78 122.84 241.04 122.52 243.1L122.56 243.05H122.55Z" fill="#79C6BF"/>
<path d="M83.43 102.96C83.55 101.83 83.49 100.64 83.84 99.5801C84.27 98.2801 84.51 96.3899 86.46 96.6399C88.2 96.8599 89.41 98.15 89.63 99.9299C89.86 101.76 88.44 102.55 86.99 102.93C85.91 103.21 84.73 103.07 83.59 103.12L83.44 102.95L83.43 102.96Z" fill="#54554B"/>
<path d="M111.76 296.14C111.74 297.75 110.99 298.93 109.47 298.89C107.56 298.85 105.88 298.04 105.71 295.75C105.6 294.25 106.16 293.01 107.87 293.09C109.82 293.18 111.37 294.03 111.75 296.14H111.76Z" fill="#D25534"/>
<path d="M151.53 371.03C149.59 373.29 149.65 370.25 148.67 369.95C146.27 366.31 150.37 365.25 151.62 363.19C152.08 362.42 153.51 364.4 153.05 364.83C151.09 366.65 152.74 369.18 151.52 371.04L151.53 371.03Z" fill="#BD7157"/>
<path d="M119.62 164.71C122.36 167.31 124.5 169.27 126.55 171.33C126.93 171.71 127.19 172.56 127.02 173.03C126.8 173.63 126.14 173.71 125.39 173.38C121.99 171.83 118.96 170.07 119.61 164.72L119.62 164.71Z" fill="#AE5A50"/>
<path d="M99.54 323.84C97.58 324.22 97.4 322.93 97.39 321.52C97.37 319.75 97.8899 318.08 99.8299 317.88C101.57 317.7 102.26 319.04 102.42 320.73C102.62 322.92 101.26 323.52 99.55 323.84H99.54Z" fill="#A94C3A"/>
<path d="M83.28 420.03C78.44 416.84 73.36 413.91 70.55 408.48C75.2 411.87 79.85 415.28 83.28 420.03Z" fill="#754C33"/>
<path d="M129.24 83.08C124.97 82.66 124.27 80.85 127.13 77.65C129.58 78.78 132.18 79.86 129.24 83.08Z" fill="#41B6A6"/>
<path d="M60.22 355.03C62.38 355.12 64.61 354.85 66.59 356.08C65.56 356.92 65.56 359.91 63.27 358.04C62.21 357.18 58.42 358.75 60.23 355.03H60.22Z" fill="#A8BFB0"/>
<path d="M125.26 227.02C126.1 229.74 128.13 232 128.49 235.22C124.21 234.09 125.25 229.13 122.33 227.28C123.31 227.19 124.29 227.11 125.26 227.02Z" fill="#B7E7E0"/>
<path d="M122.63 402.7C122.45 403.99 121.67 404.86 120.38 404.77C118.82 404.66 118.16 403.48 118.24 402.02C118.31 400.74 119.04 399.81 120.43 399.93C122.01 400.07 122.58 401.21 122.63 402.71V402.7Z" fill="#A0604D"/>
<path d="M146.51 371.07C145.64 371.6 144.55 371.91 144.33 373.13C142.99 372.03 140.77 370.83 142.98 369.04C144.86 367.51 145.67 369.75 146.51 371.07Z" fill="#E0B9A3"/>
<path d="M65.47 82.11C67.45 82.58 69.33 83.21 69.48 85.67C69.5 85.97 68.83 86.63 68.58 86.59C66.02 86.15 66.48 83.62 65.54 82.04L65.47 82.11Z" fill="#78736A"/>
<path d="M103.8 388.56C104.84 388.63 105.76 388.98 105.84 390.16C105.92 391.33 105.02 391.82 104.03 391.97C103.06 392.12 102.53 391.39 102.35 390.6C102.09 389.48 102.65 388.77 103.8 388.56Z" fill="#B46147"/>
<path d="M63.5 81.0601C63.24 82.5301 64.05 84.57 61.94 85.08C61.26 85.25 60.3 84.0001 60.4 82.9301C60.58 80.9101 61.48 79.8801 63.58 81.1601L63.5 81.0601Z" fill="#8B867B"/>
<path d="M83.58 103.13C83.8 103.58 84.09 104.01 84.21 104.48C84.48 105.47 86.27 106.13 84.94 107.44C83.97 108.39 83.23 107.44 83.2 106.75C83.14 105.51 79.28 103.91 83.42 102.97L83.57 103.13H83.58Z" fill="#54554B"/>
<path d="M180.57 125.19C180.87 125.13 181.17 125.05 181.45 124.95C183.88 125.68 185.51 126.76 184.9 129.85C184.38 132.47 183.05 134.07 180.59 133.19C178.53 132.46 176.41 130.79 178.59 127.97C178.88 126.78 179.6 125.9 180.57 125.19Z" fill="#DCD0CA"/>
<path d="M180.57 125.19C180.55 126.57 180.06 127.62 178.59 127.97C176.85 125.98 175.19 127.84 173.5 128.09C174.9 124.8 178 125.64 180.57 125.19Z" fill="#C47F80"/>
<path d="M158.01 48.17C161.22 49.65 163.2 51.65 165.13 55.6C161.65 53.14 155.82 55.22 158.01 48.17Z" fill="#E5F1F2"/>
<path d="M122.51 243.1C124.44 244.03 128.84 241.86 127.27 247.51C125.59 245.93 124.07 244.49 122.55 243.05L122.5 243.1H122.51Z" fill="#89D1D3"/>
<path d="M113.48 69.21C113.54 69.84 113.6 70.48 113.66 71.11C113.18 72.87 114.2 74.08 115.46 74.86C118.29 76.6 115.89 77.29 115.1 78.26C112.76 77.42 114.64 73.42 111.54 73.6C109.61 73.71 111.28 76.37 109.67 77.37C109.64 74.66 110.07 71.9199 106.83 69.5699C109.75 69.4099 111.62 69.3 113.49 69.2L113.48 69.21Z" fill="#A2D9D1"/>
<path d="M117.11 125.69C114.003 124.083 113.94 120.86 116.92 116.02C116.96 119.59 113.53 122.63 117.11 125.69Z" fill="#F4C680"/>
<path d="M116.55 138.06C114.937 137.953 113.74 136.927 112.96 134.98C115.46 134.58 116.74 135.47 116.5 138.11L116.54 138.06H116.55Z" fill="#F49938"/>
<path d="M148.36 187.94C147.43 188.29 146.51 188.64 145.58 189C144.81 185.71 140.07 187.11 139.07 183.22C142.64 184.53 145.7 185.82 148.36 187.94Z" fill="#F9ECDC"/>
</svg>
