<svg width="274" height="463" viewBox="0 0 274 463" fill="none" xmlns="http://www.w3.org/2000/svg">
<path d="M116.72 268.32C117.29 265.74 118.69 263.32 118.23 260.54C119.83 259.12 121.38 257.86 120.45 255.17C119.68 252.95 121.6 252.01 123.35 251.26C124.99 250.56 126.98 250.28 127.59 248.19C128.22 246.05 129.02 243.8 125.45 243.58C122.25 243.38 121.32 241.71 122.7 238.9C123.53 237.21 123.18 235.98 122.36 234.33C121.24 232.04 120.66 229.21 124.78 229.1C126.94 229.04 128.97 228.73 129.37 226.29C129.8 223.66 128.15 221.7 125.96 220.74C122.22 219.1 120.16 216.57 120.21 212.43C120.21 210.3 121.19 208.33 120.75 206.05C120.41 204.28 121.88 202.99 123.69 202.58C125.5 202.17 127.05 202.76 127.93 204.42C128.74 205.95 129.23 207.59 127.14 208.65C126.65 208.9 125.65 208.82 126.42 209.81C126.61 210.06 126.98 210.16 127.27 210.33C128.38 211 128.2 210.09 128.34 209.5C128.89 207.14 128.98 204.74 127.37 202.84C125.89 201.1 123.9 201.22 121.92 202.31C119.96 203.39 119.42 202.28 118.94 200.52C118.06 197.32 117.69 194.65 120.68 191.97C125.27 187.85 124.08 183.83 118.11 182.39C115.23 181.69 115.23 179.55 115.04 177.4C114.82 174.83 116.74 174.54 118.58 174.13C123.18 173.12 124.78 170.62 122.74 167.45C121.4 165.37 119.68 163.67 117.07 165.86C115.84 166.89 114.59 169.11 113.04 167.67C111.44 166.18 110.74 163.66 111.43 161.23C111.75 160.1 112.63 159.25 113.26 158.26C114.28 156.64 114.19 155.46 112.05 155C110.17 154.59 108.32 153.86 108.31 151.63C108.3 149.37 110.63 149.69 111.98 148.92C113.89 147.83 114.41 146.33 113.22 144.33C112.26 142.72 111.45 140.83 109.09 142.39C106.26 144.27 104.59 142.85 103.2 140.46C102.91 139.5 104.13 138.58 103.25 137.61C100.57 133.13 100.43 127.89 98.9499 123.06C98.6899 122.2 98.83 121.31 99.55 120.79C100.66 119.99 101.35 120.95 102.04 121.63C102.93 122.51 103.37 123.91 106.1 124.49C101.35 116.73 95.19 111 92.35 103.26C89.5 95.5 86.7299 87.71 83.7599 79.99C82.6899 77.46 81.62 74.9399 80.55 72.4099C79.91 70.1599 79.4198 67.83 77.1598 66.51C76.6798 65.38 76.1999 64.2501 75.7199 63.1101C75.3199 62.2501 75.3 61.3801 76.35 61.1201C89.55 57.9201 103.02 56.11 116.29 53.3C118.71 52.79 121.14 53.1399 121.78 56.1399C122.37 58.9199 120.76 60.4901 118.28 61.3601C116.19 62.0901 114.01 61.9601 111.86 62.1101C110.66 62.2001 109.45 62.4299 109.25 63.9099C109.06 65.3099 110.02 66.01 111.13 66.52C114.21 67.96 117.33 69.0699 120.64 67.2299C122.9 65.9799 125.06 65.7999 127.06 67.6799C129.53 69.9999 132.07 70.3699 134.39 67.6399C136.38 65.2899 135.93 61.2799 133.57 58.9699C132.38 57.8099 130.8 57.1001 129.7 55.8401C128.15 54.0601 127.59 52.33 130.47 51.24C134.95 50.07 139.33 50.6499 143.61 52.1599C145.1 52.6799 146.45 52.49 147.18 51.33C149.15 48.19 152.43 48.05 155.45 47.5C168.78 45.04 182.19 42.94 195.33 39.54C196.84 39.15 198.27 39.0799 199.66 39.9199C202.04 42.8599 201.6 46.5201 201.68 49.8401C201.77 53.5601 199.95 53.9399 194.67 51.6699C194.07 54.3999 195.28 55.6899 197.8 56.1299C199.67 56.4599 201.48 56.97 201.6 59.32C201.71 61.52 200.16 62.07 198.37 62.28C197.42 62.39 196.79 62.8999 196.87 63.8799C196.98 65.0899 197.58 65.94 198.76 66.55C203.4 68.96 204.31 71.1999 203.07 76.6499C201.83 77.6599 200.54 77.2199 199.34 76.6299C196.44 75.2099 194.04 75.8801 192.56 78.6101C190.89 81.7001 189.37 85.2399 191.74 88.4499C193.75 91.1699 195.97 89.6701 197.92 87.6201C199.74 85.7101 200.37 82.3299 203.96 82.4799C205.73 84.92 205.63 87.9599 206.6 90.6599C206.73 91.1299 206.79 91.6101 206.82 92.1001C206.8 93.5601 206.83 95.0399 205.63 96.1499C201.94 96.8199 200.4 98.3901 201.52 102.59C202.71 107.03 201.7 107.74 197.29 107.05C196.61 106.94 195.99 107.03 195.33 107.12C192.84 107.44 190.49 107.14 189.8 104.27C189.06 101.17 191.82 100.87 193.97 100.15C190.91 98.9799 189.2 100.18 188.83 102.91C188.47 105.55 189.57 107.46 192.57 107.67C194.9 107.83 197.72 106.82 198.5 110.45C198.66 111.18 199.65 111.04 200.19 110.65C203.69 108.15 205.74 109.54 207.57 112.94C208.17 114.06 210.07 114.48 210.75 115.93C214.05 131.49 217.82 146.89 223.78 161.7C224.75 164.12 226.59 166.88 224.05 169.57C222.52 170.82 220.57 171.62 219.5 173.38C217.85 176.09 216.2 178.84 219.12 181.8C219.94 182.63 220.38 183.74 220.88 184.8C223.28 189.91 224.49 190.39 230.12 188.55C231.85 187.98 238.58 190.68 239.79 192.55C240.6 193.8 241.31 195.12 242.11 196.39C243.41 198.48 243.15 200.77 242.98 203.04C241.99 206.2 240.06 209.15 240.86 212.71C238.75 217.14 234.85 220.17 231.79 223.84C225.41 231.49 218.83 238.96 213.34 247.31C205.11 259.83 204.24 272.78 210.28 286.57C213.78 294.57 218.02 301.98 223.54 308.69C227.52 313.52 232.7 316.83 237.99 320C239.56 320.94 241.49 321.8 240.73 324.13C240.05 326.2 238.2 327.98 236.22 327.26C228.27 324.38 224.65 328.91 221.74 335.04C221.04 336.09 220.21 336.97 218.97 337.36C218.01 337.66 216.96 337.49 216.02 337.76C214.15 338.3 212.6 339.22 215.04 340.99C217.97 343.11 216.65 344.52 214.36 345.68C212 346.87 209.64 347.73 208.56 350.64C207.59 353.25 205.11 351.6 202.87 351.61C203.97 355.82 201.91 358.6 198.63 360.65C196.86 361.75 195.69 363.26 194.59 364.96C193.41 366.79 191.95 368.16 189.8 366.02C188.91 364.69 188.7 363.17 189.17 361.72C190.45 357.74 187.82 356.5 184.97 355.13C181.57 353.5 177.46 356.41 177.27 357.3C176.5 360.9 174.67 364.53 175.07 368.15C175.41 371.21 178.42 371.4 181.04 370.44C182.68 369.84 183.98 368.09 186.05 369.1C188.68 373.25 187.31 376.5 182.28 377.38C178.86 377.98 175.53 378.65 172.53 380.48C171.58 380.86 170.64 381.31 169.64 381.57C168.58 381.73 167.59 381.59 166.71 380.94C166.39 380.55 166.23 380.09 166.23 379.59C166.39 378.14 168.04 377.27 167.98 375.44C165.3 374.72 162.69 375.39 160.14 375.21C158.41 375.09 157.1 376.48 157.44 378.53C157.6 379.5 157.75 380.45 157.78 381.44C157.84 383.09 155.35 385.08 157.65 386.23C159.86 387.33 162.26 388.84 165.14 387.7C166.98 386.97 168.99 386.71 170.79 388.1C171.11 388.49 171.31 388.92 171.41 389.41C168.64 395.75 164.6 401.07 158.79 404.94C158.11 404.92 157.57 404.62 157.08 404.14C155.62 402.71 156.87 398.92 154.87 399.21C151.53 399.71 148.22 399.15 144.96 399.78C144.67 399.84 144.47 400.19 144.29 400.48C144.13 400.89 143.96 401.29 143.81 401.7C144.22 404.95 145.55 408.1 142.95 411.31C141.73 412.81 143.11 415.04 144.06 416.78C146.32 419.96 145.52 422.6 142.8 425.1C140.96 426.79 139.17 428.49 136.96 429.73C135.4 430.6 133.83 431.08 132.28 430C130.58 428.81 131.71 427.32 132.13 425.95C132.6 424.43 132.78 423.04 131.13 422.02C129.6 421.08 128.51 421.99 127.06 422.43C121.72 424.07 120.87 429.4 117.97 432.98C116.49 434.8 118.54 435.67 120.3 436.22C124.85 437.63 124.82 437.89 121.37 441.42C118.73 444.13 115.25 445.38 112.05 447.11C110.43 447.98 108.83 447.31 107.52 446.02C106.61 445.12 106 443.78 104.41 443.72C103.49 444.58 104.22 445.1 104.8 445.68C105.67 446.56 107.37 447.08 106.54 448.8C105.83 450.28 104.38 450.8 102.82 450.96C99.62 451.3 97.4899 449.16 95.7099 447.17C93.7899 445.01 96.75 443.82 97.54 442.18C98.72 439.71 100.99 438.34 103.76 436.66C100.56 434.98 98.24 435.2 96.1 436.79C93.63 438.63 91.4 440.18 89.07 436.57C86.64 432.81 86.8 431.92 91.11 428.83C91.04 428.5 90.7899 428.12 90.4899 428.2C83.8799 429.88 83.2198 429.55 78.6598 422.62C76.0698 418.68 73.7299 414.45 68.1799 413.95C66.9099 413.84 65.9998 412.48 64.8898 411.75C62.3198 410.06 61.5299 408.16 64.2599 405.82C65.2599 404.97 65.29 403.34 66.55 402.63C68.34 401.53 69.67 402.88 71.11 403.52C73.38 404.54 75.2398 404.83 75.8898 401.63C76.3598 399.33 78.24 396.58 74.34 395.69C71.83 395.12 68.86 394.6 68.08 398.42C67.79 399.84 68.14 401.44 66.77 402.51C62.98 402.38 59.3398 401.74 55.3998 403.05C52.7098 403.94 49.95 401.46 48.36 398.7C48.34 396.71 50.02 396.52 51.31 395.85C53.99 394.45 54.4 391.41 51.78 390.24C48.78 388.9 45.4001 387.06 42.1201 390.16C39.6501 392.49 37.28 394.4 33.36 392.17C29.12 389.77 30.03 385.69 29.04 382.21C28.81 381.38 29.27 380.51 30.11 380.16C31.14 379.73 32.01 380.26 32.83 380.9C34.49 382.2 34.3499 384.53 35.9399 386.2C37.8499 384.36 37.6799 382.66 35.7499 381.25C32.0799 378.57 32.9599 376.26 35.9299 373.74C37.8299 372.14 39.4599 370.23 41.2599 368.5C43.3899 366.44 44.4001 367.47 44.8701 369.84C45.1601 371.33 44.6099 372.82 44.7299 374.31C44.8999 376.36 45.88 377.75 48.06 378C50.08 378.23 51.6698 377.47 52.6398 375.69C53.6198 373.89 52.6299 372.55 51.4299 371.27C50.3999 370.18 48.75 369.8 48.04 368.39C47.09 366.52 45.7698 364.57 48.1398 362.74C48.3298 362.5 48.54 362.3 48.79 362.12C50.2 360.52 51.0299 362.16 51.9199 362.78C53.2799 363.72 54.34 365.12 56.03 365.51C57.44 365.83 59.0901 366.61 60.1201 364.98C60.9601 363.66 60.0699 362.45 59.2299 361.37C58.8199 360.84 58.3399 360.38 57.9299 359.86C56.5799 358.15 53.9699 356.68 56.6699 354.1C58.8699 352 60.78 348.76 64.32 351.71C63.15 350.31 62.2299 348.68 63.9799 346.8C66.9399 343.64 69.69 340.46 74.84 340.89C77.38 341.1 80.1199 341.13 82.7599 340.49C80.9399 337.75 76.0599 338.79 75.6799 334.48L75.6201 334.59C78.5001 332.42 81.19 333.25 83.6 334.9C82.46 333.44 78.33 333.55 80.02 330.03C81.35 327.25 83.9 326.84 86.55 328.77C85.32 326.7 83.5199 324.09 86.4299 322.77C89.9999 321.15 90.7399 325.08 92.2199 326.76C92.2799 323.6 85.43 321.85 89.58 317.16C91.67 314.41 93.76 311.66 95.85 308.91C96.53 306.5 97.91 305.69 100.32 306.79C103.22 308.11 105.52 306.97 107.26 304.64C109.06 302.23 107.8 300.33 105.99 298.56C104.94 297.54 104.68 296.29 105.3 294.92C106.03 293.29 107.33 292.89 108.98 293.13C111.59 293.51 113.82 292.97 115.25 290.75C115.05 290.09 114.85 289.86 114.55 289.69C112.96 288.75 109.94 288.96 110.42 286.28C110.82 284.06 113.46 284.96 115.13 284.53C116.21 284.25 117.44 284.2 117.95 282.68C116.29 281.2 111.45 282.08 113.7 277.47L113.62 277.55C116.13 276.38 115.56 272.02 119.26 272.62C119.51 270.11 115.58 270.93 116.71 268.33L116.72 268.32Z" fill="#F8B642"/>
<path d="M74.6399 60.5001C69.7999 48.8501 65.7 36.9601 63.26 24.5501C65.94 21.9401 69.6 22.7101 72.71 22.2801C97.2 18.8901 121.6 15.1599 145.72 9.63995C159.74 6.42995 173.98 4.22995 188.04 1.13995C195.74 1.02995 196.26 1.6801 197.74 9.0401C199.31 16.8601 199.78 24.81 201.02 32.67C201.3 34.46 201.34 36.3301 200.68 38.0901C196.59 41.3601 191.27 40.72 186.67 42.44C185 43.07 183.11 43.2201 181.32 43.5701C175.473 44.7035 172.263 42.2801 171.69 36.3001C171.72 37.3001 171.71 38.3001 171.93 39.3001C173.07 44.5701 170.31 47.4 164.98 46.46C162.99 46.11 162.36 44.68 161.97 42.95C161.45 40.64 161.89 38.3 161.7 36.73C161.78 38.1 161.58 40.2101 161.81 42.3101C162.32 46.8801 158.94 49.66 154.66 48.23C153.49 47.84 153.23 47 153.2 45.94C153.13 42.96 152.23 40.0601 152.19 37.0701C152.19 40.0501 153.12 42.93 153.19 45.91C153.23 47.43 153.31 48.53 151.2 49.18C144.64 51.18 144.48 51.2501 143.72 44.2901C143.58 42.9901 142.92 41.8801 142.88 41.5801C142.67 43.9701 146.77 48.48 141.81 50.4C135.43 52.86 133.98 51.4801 132.32 45.0801C132.24 47.3001 135.3 50.2901 131.02 52.0301C130.03 52.1001 129.07 52.2401 128.09 52.5401C125.15 53.4301 123.15 52.79 123.19 49.18C123.21 47.53 122.51 46.02 122.07 44.46C124.1 51.85 123.9 52.96 120.35 53.66C116.357 54.4533 114.06 52.4968 113.46 47.7901C114.32 54.7601 114.23 54.8101 109.1 55.7601C103.52 56.7901 106.07 51.9301 104.74 50.3001C104.76 52.5901 107.07 55.9801 102.13 57.0401C98.1699 57.8901 96.4501 56.4102 96.5901 52.3602C96.2701 54.5202 99.5201 57.17 94.8501 58.15C87.4901 59.7 87.52 59.8601 85.8 50.7501C84.24 53.4101 91.1299 58.12 84.1699 59.98C78.4199 61.51 78.24 61.04 76.7 52.48C76.59 51.82 75.9301 52.12 76.5801 51.99C76.5901 51.99 76.5699 52.16 76.6899 52.43C77.5399 54.29 77.06 56.3401 77.73 58.2801C78.95 61.8201 76.8599 61.3901 74.6499 60.5101L74.6399 60.5001Z" fill="#DB4A5C"/>
<path d="M7.24003 405.43C7.99003 403.3 9.17005 401.45 10.7601 399.86C11.9301 396.32 16.3901 395.2 17.0301 391.28L18.49 389.71C20.37 388.61 22.4601 387.28 24.5501 388.22C32.2901 391.7 41.1202 392.7 47.8702 398.43C56.6202 403.15 63.75 410.16 71.96 415.67C77.96 419.7 82.3001 425.91 86.7801 431.64C91.4101 437.55 94.0399 444.8 98.8899 450.63C99.5899 451.47 99.3201 452.53 98.0701 452.99C83.1901 458.81 67.7401 461.77 51.7901 461.42C39.5001 461.15 27.7701 458.15 17.0501 451.89C8.83009 447.09 4.19015 439.68 1.86015 430.65C0.0301502 421.47 2.36003 413.18 7.24003 405.44V405.43Z" fill="#2DA3A1"/>
<path d="M74.6399 60.5C76.4999 60.66 77.86 60.8199 77.21 57.9399C76.4 54.3799 74.82 50.8599 76.22 46.8899C76.84 50.1699 77.68 53.42 78.04 56.72C78.47 60.78 81.21 59.66 83.55 59.52C86.42 59.35 86.5699 57.7599 85.9099 55.3799C85.1199 52.5399 84.6999 49.59 83.8899 45.51C87.2099 49 86.82 52.5799 87.55 55.6699C88.86 61.1999 92.43 57.1001 94.75 57.3101C97.68 57.5701 96.19 55.16 95.79 53.74C95.03 51.04 94.11 48.3799 94.99 45.1299C97.63 47.0099 96.3501 49.7899 97.0601 51.8999C97.8601 54.3099 97.54 57.4101 101.79 56.3701C105.59 55.4401 104.45 53.2099 104.1 50.6599C103.76 48.1199 102.17 45.6601 103.43 42.3201C105.38 45.6301 105.36 48.86 105.82 51.97C106.09 53.8 106.04 55.92 108.97 54.95C110.99 54.28 113.79 54.8599 113.02 50.8999C112.47 48.0599 111.39 45.14 112.12 41.46C114.25 44.52 114.1 47.65 114.61 50.52C114.92 52.27 114.84 54.1801 117.31 53.3401C119.35 52.6501 122.93 53.6401 122.47 49.5701C122.14 46.6301 121.23 43.7499 122.29 40.6299C122.53 42.0499 122.99 43.4699 122.97 44.8899C122.89 50.2699 125.23 52.66 130.68 51.51C131.07 51.7 131.2 51.9001 131.08 52.1101C130.95 52.3101 130.83 52.4199 130.7 52.4199C130.05 54.3199 130.28 55.2701 133.07 56.3101C136.24 57.4901 137.49 59.6099 137.62 62.6799C137.77 66.3299 137.29 69.9599 133.35 71.3799C129.06 72.9299 125.94 71.13 124.39 66.77C119.9 70.96 114.81 71.5201 109.84 68.3601C108.14 67.2801 106.49 65.93 107.27 63.53C107.98 61.36 109.71 60.1699 111.89 60.6599C114.41 61.2299 116.34 59.58 118.57 59.46C121.5 59.3 120.45 57.07 120.51 55.8C120.62 53.36 118.56 54.57 117.62 54.73C107.82 56.42 98.04 58.27 88.26 60.04C86.31 60.39 84.34 60.64 82.23 60.95C80.84 62.49 85.5099 63.0201 83.1499 64.6001C81.3199 65.8201 79.8199 64.84 78.6899 63.05C77.7799 61.61 76.62 60.4299 75.73 63.1499C75.37 62.2699 75.0099 61.39 74.6399 60.51V60.5Z" fill="#3A1E1A"/>
<path d="M103.2 140.47C105.21 141.96 106.8 142.86 109.02 140.19C110.72 138.14 113.24 138.29 113.81 141.74C113.95 142.6 114.26 143 114.77 143.66C117.32 146.95 115.38 150.33 110.75 150.86C110.06 150.94 109.01 150.09 108.92 151.49C108.84 152.57 109.37 153.49 110.64 153.43C111.46 153.39 112.26 153 113.08 152.95C114.72 152.86 115.94 153.71 116.82 155.03C117.95 156.72 116.16 157.13 115.53 158.16C113.85 160.9 109.75 163.22 113.57 167.34C113.88 167.12 114.28 166.91 114.6 166.61C116.37 164.98 117.04 161.17 120.66 163.1C123.99 164.87 126.19 168.1 125.47 171.68C124.88 174.66 122 176.26 118.47 175.66C115.66 175.18 115.5 177.13 115.84 179.11C116.04 180.29 116.09 182.25 118.13 181.16C120 180.17 121.99 178.93 123.3 181.22C124.81 183.88 126.4 186.87 124.84 190.12C124.21 191.43 123.32 193.15 122.14 193.59C117.54 195.31 118.85 198.26 120.08 201.34C123.95 198.17 128.62 199.22 129.52 203.69C130.17 206.93 130.2 210.29 130.47 213.6C130.54 214.47 130.33 215.41 129.27 215.41C127.22 215.41 122.33 206.82 123.76 205.6C126.5 203.26 125.62 207.7 127.51 207.7C126.79 206.08 127.69 203.34 124.59 203.54C121.4 203.75 121.58 205.74 122.43 208.19C123.01 209.86 120.34 210.72 120.78 212.58C120.46 213.06 120.15 213.08 119.85 212.55C117.07 187.89 112.1 163.73 103.19 140.48L103.2 140.47Z" fill="#341D1A"/>
<path d="M47.72 399.36C42.19 396.83 36.7301 394.15 31.1101 391.82C27.1201 390.16 22.95 388.93 18.5 389.71C20.02 388.53 20.7199 386.2 23.1899 386.33C23.4099 386.49 23.6201 386.6 23.8201 386.66C23.6901 386.55 23.51 386.42 23.27 386.27C23.88 383.26 26.4999 381.84 28.4399 379.94C33.5999 374.87 38.8799 369.9 44.1899 364.98C45.2999 363.96 46.0699 362.1 48.1599 362.71C48.1099 365.61 49.0001 367.63 51.8601 369.21C54.3101 370.56 57.0101 372.85 54.6101 376.48C52.8501 379.14 50.6799 381.04 47.1699 379.73C43.7099 378.44 42.1301 376.01 43.1101 372.34C43.4901 370.9 44 369.54 43.48 367.47C41.56 369.3 39.87 370.83 38.28 372.46C35.8 375 30.8901 377.47 38.1201 380.36C39.9001 381.07 39.9201 383.06 39.3101 384.74C38.6301 386.62 37.8301 388.77 35.5901 388.98C34.1601 389.11 31.56 388.43 33.03 386.21C34.46 384.05 32.9599 383.29 32.1899 382.02C31.7899 381.36 31.4499 380.34 30.3999 381.07C29.4099 381.75 29.9301 382.54 30.5901 383.08C33.1701 385.18 29.6799 390.08 34.6899 391.34C36.6499 391.84 37.9499 392.68 39.1399 390.53C42.2499 384.89 47.2701 386.29 51.8401 387.51C55.5801 388.5 55.7399 392.21 55.6299 395.33C55.4999 398.87 52.5399 397.23 50.6499 397.53C50.0599 397.62 49.53 398.09 48.97 398.38C48.84 399.05 48.26 399.17 47.75 399.36H47.72Z" fill="#2D2520"/>
<path d="M199.46 10.6699C202 35.4599 202.57 60.4099 205.52 85.1699C205.77 87.2999 206.21 89.4601 205.5 91.6001C203.84 88.9301 203.76 85.9099 203.56 82.9199C201.35 80.9699 200.93 78.74 202.51 76.19C202.19 73.57 201.88 70.9399 201.51 67.9099C196.83 70.5699 195.35 68.0199 194.47 63.9299C193.78 60.7299 195.54 60.2899 197.92 59.9299C198.82 59.7999 200.65 62.4201 200.59 59.3101C200.54 57.0901 198.55 57.1301 197.25 57.8401C194.44 59.3801 193.68 57.8901 192.9 55.6101C192.02 53.0301 190.79 50.08 194 48.74C197.02 47.48 197.98 50.58 199.18 53.21C201.42 48.74 199.57 44.59 199.61 40.52C199.07 39.83 199.08 39.15 199.63 38.48C199.28 27.71 197.36 17.11 196.14 6.43996C195.49 0.719956 191.46 1.52991 187.68 1.63991C187.47 1.45991 187.39 1.2801 187.44 1.0901C187.5 0.890103 187.56 0.790054 187.62 0.790054C193.033 0.143387 196.977 3.4366 199.45 10.6699H199.46Z" fill="#221311"/>
<path d="M119.85 212.54C120.16 212.54 120.47 212.55 120.78 212.57C121.21 215.49 122.42 217.41 125.64 218.3C128.07 218.98 130.38 220.55 131.27 223.46C132.77 228.35 129.92 231.81 124.92 230.89C123.73 230.67 122.33 229.36 122.31 231.92C122.3 233.73 122.43 234.45 124.76 233.6C126.53 232.96 126.13 234.95 126.08 236.32C125.98 238.84 122.79 239.52 122.58 242.54C125.59 241.75 129.05 239.92 130.38 243.17C131.49 245.87 129.38 248.75 127.35 250.99C126.81 251.59 126.19 252.56 125.57 252.59C120.76 252.86 119.58 253.93 123.88 257.52C125.01 258.47 123.28 259.89 121.97 260.23C120.77 260.54 119.48 260.46 118.22 260.55C121.74 244.65 121.11 228.61 119.84 212.54H119.85Z" fill="#3B261F"/>
<path d="M113.71 277.46C113.67 279.32 113.41 281.23 116.47 280.2C118.27 279.59 120.7 279.97 120.98 281.9C121.32 284.15 119.54 285.74 117.04 286.18C114.99 286.54 112.92 286.52 110.5 286.12C111.69 288.35 113.13 287.54 114.33 287.5C115.81 287.44 117.44 286.91 118.03 288.94C118.56 290.75 117.91 292.4 116.4 293.28C114 294.68 111.45 296.33 108.51 294.73C107.23 294.04 106.4 294.05 105.84 295.41C105.22 296.93 106.52 296.85 107.37 297.25C111.52 299.19 110.95 302.45 109.32 305.6C107.64 308.85 101.65 310.8 99.5501 308.45C97.4001 306.05 97.0001 308.39 95.8701 308.91C95.2701 306.51 97.3299 305.35 98.4199 303.88C104.53 295.65 108.67 286.31 113.7 277.47L113.71 277.46Z" fill="#38241D"/>
<path d="M75.7099 334.46C79.0899 336.17 82.49 337.87 85.86 339.61C86.71 340.05 87.8998 340.43 87.6498 341.64C87.3998 342.86 86.1198 342.8 85.1898 342.82C80.7098 342.88 76.1899 343.21 71.7599 342.74C67.6499 342.3 66.0798 345.35 64.3998 347.63C62.4798 350.23 66.39 350.69 67.33 352.38C67.94 353.48 69.28 354.17 69.1 356.23C64.73 355.13 60.2298 346.65 56.1398 355.99C57.1698 356.88 58.31 357.98 59.57 358.91C62.76 361.29 63.9699 364.77 61.2399 367.42C59.0799 369.51 55.4498 368.2 52.9298 366.21C51.4198 365.01 50.1599 363.49 48.7899 362.11C48.4699 361.19 48.96 360.62 49.59 360C57.05 352.56 64.4898 345.09 71.9398 337.62L72.06 337.86L71.82 337.74C73.22 336.77 73.8099 334.85 75.6999 334.46H75.7099Z" fill="#382C24"/>
<path d="M83.76 80.01C87.28 86.4 89.4901 93.3099 91.8601 100.17C92.2501 101.3 91.8901 104.37 95.0501 102.53C95.8901 102.04 96.6401 103.44 97.1201 104.29C97.8501 105.58 96.82 106.1 95.94 106.45C93.45 107.47 95.2 108.85 95.98 109.3C101.22 112.37 103.13 118.38 107.59 122.19C109.51 123.82 107.13 125.92 106.05 127.14C104.74 128.61 103.37 127.18 102.55 125.83C101.7 124.44 100.96 122.97 99.8501 120.94C100.14 127.1 102.06 132.29 103.24 137.62C100.78 136.84 101.12 134.45 100.71 132.72C96.89 116.74 91.1 101.43 85.24 86.1299C84.49 84.1599 83.11 82.32 83.76 80V80.01Z" fill="#341D1A"/>
<path d="M187.63 0.790039C187.69 1.07004 187.71 1.34989 187.69 1.63989C177.03 3.86989 166.34 5.97011 155.71 8.36011C126.11 14.9901 96.2799 20.3 66.1299 23.73C65.1599 23.84 64.23 24.27 63.27 24.55C63.35 22.3 65.16 22.7501 66.48 22.5801C99.65 18.3301 132.43 11.87 165.15 5.03003C172.62 3.47003 180.15 2.19003 187.65 0.780029L187.63 0.790039Z" fill="#542126"/>
<path d="M2.53005 430.58C6.78005 447.59 19.7199 454.55 35.1299 458.23C54.9399 462.97 74.3101 460.19 93.3701 453.9C95.0801 453.34 96.8501 452.92 98.5801 452.44C99.0401 452.13 99.4601 452.15 99.8501 452.56C76.4101 462.85 52.4199 465.5 27.6699 457.83C15.6999 453.62 6.21009 446.74 2.08009 434.09C1.83009 433.32 1.7799 432.48 1.6299 431.67C1.0299 430.57 1.67005 430.48 2.53005 430.58Z" fill="#102A2E"/>
<path d="M89.6101 317.14C89.6101 318.87 88.0201 320.43 91.3501 321.84C94.3801 323.12 94.1899 327.8 95.1899 331.06C95.3899 331.71 94.75 332.43 94.05 332.36C93.51 332.3 92.82 331.84 92.54 331.35C91.56 329.62 90.86 327.73 89.8 326.07C89.03 324.87 88.74 322.13 86.75 323.2C84.39 324.48 86.9101 325.9 87.5601 327.19C88.5701 329.18 90.77 330.56 90.72 333.63C88.08 333.29 86.6799 331.43 85.1599 329.87C82.7499 327.39 81.2401 328.36 80.0901 330.87C83.3801 333.1 86.6001 335.28 90.8201 338.14C84.3701 338.77 80.9399 332.86 75.6399 334.57C80.2899 328.76 84.9501 322.95 89.6001 317.14H89.6101Z" fill="#2F231A"/>
<path d="M116.72 268.32C116.9 269.38 117.54 269.65 118.48 269.28C120.84 268.35 122.45 269.05 122.77 271.59C123.08 274.1 121.2 274.49 119.25 274.62C118.45 274.67 117.66 274.78 116.79 274.87C117.79 276.27 119.96 274.88 120.72 277.22C118.35 278.02 115.96 277.48 113.64 277.53C113.78 274.16 115.6 271.35 116.73 268.32H116.72Z" fill="#3B261F"/>
<path d="M2.53015 430.58C2.23015 430.94 1.93 431.31 1.63 431.67C-0.979998 423.39 1.9701 409.57 7.2301 405.44C3.9501 413.5 0.450138 421.52 2.52014 430.58H2.53015Z" fill="#1B3735"/>
<path d="M17.03 391.28C17.08 395.71 12.97 397.09 10.76 399.86C11.26 395.83 14.98 394.17 17.03 391.28Z" fill="#0F3E3B"/>
<path d="M71.8302 337.74C73.2602 337.67 74.94 337.25 74.68 339.65C74.56 340.77 73.8101 341.58 72.7501 341.38C69.6901 340.81 73.01 338.72 71.95 337.61L71.8302 337.73V337.74Z" fill="#D7AC54"/>
<path d="M23.26 386.27C25.51 385.26 26.9501 386.41 28.8201 388.53C26.3401 388.01 23.8699 389.64 23.1799 386.32L23.26 386.26V386.27Z" fill="#D19C69"/>
<path d="M77.1599 66.53C81.0599 66.9 80.88 69.6199 80.55 72.4299C78.66 70.8999 78.3399 68.47 77.1599 66.53Z" fill="#483E2F"/>
<path d="M99.8601 452.56C99.4401 452.52 99.0101 452.48 98.5901 452.45C98.5901 452.12 98.5901 451.79 98.5901 451.46C94.3401 451.44 94.59 447.62 93.5 445.16C85.24 426.54 69.58 415.07 53.77 403.72C51.75 402.27 49.74 400.82 47.72 399.37C48.13 399.04 48.5299 398.72 48.9399 398.39C50.7299 399.58 52.5101 400.78 54.3201 401.95C54.9801 402.37 56.03 403.1 56.48 402.31C60.1 395.85 63.4201 400.47 66.8201 402.5L66.72 402.39C66.09 404.65 68.88 409.25 62.52 407.88C66.28 409.17 67.5699 415.54 72.9199 411.88C73.1399 411.73 74.1199 412.13 74.1399 412.31C74.4199 415.94 75.18 418.97 79.98 417.87C80.06 417.85 80.61 418.8 80.48 419.03C77.39 424.4 84.1999 424.78 85.1799 428.18C85.5499 429.46 86.45 428.31 86.95 427.31C88.02 425.18 89.91 425.6 91.71 426.23C93.17 426.74 94.6601 427.52 94.6001 429.24C94.5201 431.33 92.68 431.1 91.21 431.23C90.39 431.31 89.5699 431.49 88.4099 431.68C88.9899 434.42 90.89 436.2 92.22 438.46C96.24 432.98 99.58 431.88 104.03 434.34C105.04 434.9 106.4 435.33 106.2 436.71C106.02 438.02 105.27 439.48 103.78 439.5C100.78 439.56 99.1099 440.33 99.4199 443.85C99.6199 446.09 97.44 445.31 95.95 445.44C98.88 447.88 101.19 451.94 105.67 448.01C105.47 447.87 105.36 447.72 105.27 447.73C102.02 448.15 101.61 445.74 101.01 443.5C100.58 441.9 101.77 441.23 102.81 441.05C105.18 440.65 107.49 441.96 108 443.9C108.95 447.47 110.49 446.32 112.57 445.35C116.48 443.52 119.77 440.92 122.9 437.62C119.83 439.01 117.23 438.77 115.57 435.78C113.77 432.55 116.48 430.98 118.28 429.15C118.72 428.7 119.94 428.32 119.9 428.2C118.16 422.69 122.47 423.1 125.6 421.43C128.55 419.86 130.76 419.2 133.17 421.32C135.94 423.76 134.04 426.09 132.51 428.32C132.33 428.58 132.26 428.93 132.14 429.23C135.11 429.41 143.73 423.34 144.37 420.6C144.78 418.85 142.57 418.86 142.28 417.56C143.38 415.66 145.57 415.78 147.2 414.88C149.47 413.16 150.35 410.22 152.74 408.61C154.71 407.2 156.12 405.01 158.63 404.35C162.69 399.47 166.74 394.6 170.8 389.72C173.97 386.52 171.23 382.88 171.55 379.47C174.3 376.48 177.94 375.76 181.74 375.68C185.69 375.6 187.09 373.51 185.66 369.56C186.59 367.39 188.08 365.9 190.51 365.56C191.23 366.54 192.18 367.04 192.59 365.53C193.41 362.52 195.96 361.14 197.96 359.2C200.02 357.19 204.33 355.84 200.11 351.75C198.95 350.62 200.85 349.49 201.71 348.58C203.08 347.13 203.5 348.51 204.2 349.41C204.86 350.27 205.52 351.55 206.93 350.96C208.37 350.35 207.92 349.16 207.62 347.98C207.11 346.02 208.22 345.4 210.01 345.14C211.94 344.86 214 344.75 215.53 342.95C213.62 342.68 211.5 342.77 210.84 340.45C210.34 338.67 211.65 337.74 212.76 336.74C214.74 334.95 216.66 335.38 218.56 336.87C220.93 337.43 221.73 336.74 220.47 334.44C221.83 331.92 222.67 329.01 224.07 326.72C226.06 323.45 230.2 324.31 233.64 324.88C234.41 325.01 235.05 325.75 235.81 326.05C237.87 326.87 239.01 325.17 239.76 323.97C240.78 322.32 238.62 322.29 237.85 321.84C218.87 310.75 209.01 293.54 204.93 272.57C203.21 263.74 206.49 255.79 210.93 248.47C218.98 235.19 229.59 223.9 239.96 212.46C240.59 210.98 241.51 210.51 242.89 211.61C243.36 214.13 241.54 215.6 240.21 217.23C233.57 225.35 226.41 233.04 219.98 241.33C215.15 247.56 211.15 254.21 209.56 262.12C207.5 272.33 210.65 281.57 214.67 290.61C219.52 301.52 226.91 310.33 236.99 316.87C240.25 318.99 242.88 318.9 245.98 316.38C261.21 304 269.18 288.34 270.01 268.5C270.7 251.97 264.82 237.87 256.61 224.31C253.34 218.9 249.74 213.69 246.02 208.57C244.48 206.92 243.96 204.75 242.81 201.95C243.4 203.65 243.23 204.36 242.32 204.78C241.54 204.59 241.02 204.27 241.58 203.38C241.62 201.03 241.92 198.65 240.59 196.5C240.24 195.58 240.67 195.39 241.47 195.55C245.91 201.83 249.51 208.69 254.54 214.56C261.67 225.96 269.02 237.29 271.88 250.71C276.86 274.08 271.92 294.89 255.27 312.44C247.34 320.8 237.8 327.29 228.95 334.58C210.3 349.94 193.2 366.78 177.53 385.24C165.92 398.92 154.73 413.02 141.87 425.61C129.72 437.5 115.85 446.68 99.8401 452.54L99.8601 452.56Z" fill="#1C1914"/>
<path d="M139.82 393.62C139.48 395.44 139.16 397.17 136.98 397.87C135.18 398.45 133.48 399.07 131.88 397.55C129.85 395.61 131.93 394.38 132.86 392.86C129.33 392.68 125.96 392.27 125.28 388.05C125.01 386.4 126 385.06 127.64 384.71C130.5 384.1 131.23 386.3 131.65 389.03C133.07 386.11 131.39 383.05 128.67 382.09C126.34 381.28 123.94 380.54 121.79 379.36C119.63 378.17 119.7 375.72 119.65 373.57C119.6 371.12 122.04 371.92 123.24 371.09C122.69 370.03 121.65 368.97 121.72 367.99C121.9 365.39 120.57 362.33 123.31 360.31C125.09 359 127.03 358.26 129.34 359.3C132.41 360.69 133.1 363.17 133.06 366.21C133.01 370.02 133.58 373.82 132.85 377.64C132.69 378.48 131 379.8 132.95 380.42C134.02 380.76 135.34 381.62 136.45 379.97C139.73 375.11 142.95 379.7 146 380.42C149.01 381.12 148 383.64 146.94 385.68C146.58 386.38 146.89 386.94 147.44 387.38C148.95 388.58 149.78 390.92 148.12 391.4C145.66 392.12 144.16 396.78 140.67 393.55C139.88 391.23 138.81 388.93 140.25 386.31C137.58 388.72 141.24 391.28 139.81 393.61L139.82 393.62Z" fill="#352524"/>
<path d="M188.32 136.6C191.89 132.8 195.58 130.75 199.6 129.17C200.8 128.7 202.39 128.17 201.21 126.38C200.2 124.85 199.05 125.4 197.89 126.41C195.52 128.47 192.81 129.96 189.82 131.28C189.01 128.13 190.94 125.97 191.78 123.54C192.09 122.66 193.06 121.66 191.91 120.9C190.42 119.92 189.85 121.46 189.33 122.34C188.19 124.26 187.24 126.29 186.04 128.59C185.42 124.8 186.43 121.3 184.69 118.07C183.36 123.56 184.76 128.99 185.1 134.58C182.06 132.15 182.81 127.97 180.66 125.36C179.04 123.39 181.13 117.29 174.63 120.02C177.39 124.07 179.31 128.31 180.5 133.94C176.81 129.79 173.82 126.34 170.73 122.99C169.21 121.34 170.37 120.34 171.38 119.21C175.32 114.81 184.34 113.09 189.36 115.98C197.14 120.46 204.48 125.22 206.95 134.91C207.97 138.91 206.66 140.31 203.31 140.64C199.69 140.99 196 141.03 192.38 138.96C195.95 134.35 201.09 138.26 205.23 136.68C199.74 130.57 194.59 137.12 188.32 136.58V136.6Z" fill="#2E1F1E"/>
<path d="M192.97 246C191.46 247.72 191.13 250.73 187.57 248.73C190.85 253.93 185.76 255.29 184.04 258.34C184.92 259.2 185.84 258.35 186.74 257.72C189.41 255.84 190.99 258.03 192.83 259.3C195.07 260.86 194.6 263.36 194.89 265.54C195.01 266.43 193.91 266.76 193.1 266.98C191.98 267.27 191.24 266.7 190.56 265.87C189.54 264.63 189.92 262.56 187.9 261.5C187.79 262.34 187.73 262.92 187.64 263.5C187.43 264.83 189.73 266.44 187.61 267.4C185.69 268.27 184.44 266.38 183.77 265.01C182.91 263.27 181.95 262.02 180.12 261.26C178.78 260.7 177.84 258.77 178.93 258.03C182.09 255.89 180.1 253.9 179.34 251.74C177.69 247.03 179.32 244.58 184.19 245.16C186.13 245.39 186.32 244.21 187.23 243.45C189.13 241.88 191.2 241.16 193.67 242.3C195.87 243.31 197.4 244.84 196.84 247.3C196.27 249.81 198.2 249.36 199.34 249.99C202.02 251.47 203.95 253.41 200.6 255.92C198.71 257.34 199.12 258.38 200.02 259.94C201.17 261.95 200.39 263.76 198.5 264.46C195.96 265.4 195.88 262.79 195.7 261.46C195.39 259.23 194.85 257.5 192.98 255.95C189.24 252.85 191.97 249.45 192.98 246.01L192.97 246Z" fill="#2F1F1F"/>
<path d="M208.58 223.87C204.99 224.93 201.83 225.46 200.71 221.12C199.98 218.28 200.88 216.18 203.41 214.84C206.49 213.21 209.64 212.96 211.93 216.01C214.1 218.9 215.63 222.46 212.76 225.55C210.79 227.67 209.78 228.51 212.76 230.6C214.6 231.89 214.39 234.52 213.01 236.52C211.62 238.54 209.74 239.26 207.4 238.07C206.84 237.78 205.88 237.15 205.76 237.28C201.31 242.22 198.95 235.74 195.51 235.21C192.87 234.8 192.88 224.65 195.4 223.29C197.77 222 199.76 222.81 200.45 225.38C201.23 228.28 203.57 228.24 205.57 228.26C207.88 228.28 208.07 226.19 208.59 223.86L208.58 223.87Z" fill="#352320"/>
<path d="M118.82 310.54C118.55 313.78 119.06 315.08 122.7 313.77C126.7 312.33 130.05 314.37 130.29 317.77C130.59 322.05 127.28 323.02 124.31 322.42C119.96 321.55 117.7 324.83 114.53 326.31C113.26 324.61 114.48 323.28 115.04 322.11C116.64 318.8 118.08 315.94 112.46 315.23C110.93 315.03 109.31 313.33 109.89 311.48C110.93 308.18 113.71 310.03 116.26 309.96C111.81 306.12 114.76 303.82 117.53 301.19C121.23 297.67 123.27 300.79 125.95 302.7C130.15 305.68 124.89 306.95 125.14 309.21C126.63 309.91 127.96 308.93 129.14 308.19C130.57 307.29 131.8 306.71 133.03 308.28C133.72 309.16 134.71 310.04 134.05 311.35C133.28 312.87 131.73 313.56 130.3 313.3C127.07 312.7 123.91 311.69 120.72 310.87C120.11 310.71 119.48 310.65 118.81 310.53L118.82 310.54Z" fill="#33231E"/>
<path d="M241.49 195.58C241.2 195.9 240.9 196.22 240.61 196.53C239.51 194.91 238.42 193.29 237.23 191.53C236.32 192.56 235.77 194.22 233.95 193.6C231.5 192.76 233.5 190.15 231.78 188.78C229.64 188.63 231.45 193.94 228.21 192.11C225.08 190.34 218.84 192.6 219.42 185.65C219.49 184.76 218.95 183.69 218.4 182.89C214.51 177.16 216.13 171.82 222.73 168.8C226.1 167.89 226.45 171.7 228.65 172.6C232.93 180.26 237.21 187.91 241.49 195.57V195.58Z" fill="#2F2228"/>
<path d="M189.45 333.49C185.9 332.07 183 331.05 180.23 329.74C178.71 329.03 177.22 327.61 178.3 325.82C179.4 324.02 181.36 323.7 182.8 325.59C185.11 328.62 185.41 325.28 186.89 324.53C183.2 324.25 180.93 322.65 180.89 319.14C180.86 316.8 181.59 314.53 184.04 313.38C185.44 312.72 186.83 312.27 188.24 313.38C189.98 314.75 187.2 317.1 189.34 318.37C188.57 319.58 187.75 319.12 186.85 318.5C185.84 317.8 184.48 316.29 183.82 318.5C183.21 320.53 185.17 320.17 186.4 320.41C188.39 320.8 189.89 321.86 189.6 324.11C189.35 326.02 190.29 327.17 191.39 328.48C193.48 330.95 194.63 333.57 191.81 336.38C191.16 337.03 190.54 337.53 191.47 338.79C193.98 342.22 192.47 345.36 189.37 347.11C185.55 349.28 182.86 346.01 181.24 343.4C180.1 341.56 179.64 338.94 178.91 336.65C178.48 335.3 179.19 333.99 180.55 333.37C181.68 332.86 182.87 333.11 183.84 333.85C185.26 334.93 183.78 335.8 183.38 337.23C185.38 335.98 187.06 334.94 189.44 333.45L189.45 333.49Z" fill="#33241F"/>
<path d="M199.64 38.49C199.64 39.17 199.63 39.85 199.62 40.53C187.11 43.03 174.59 45.55 162.08 48.04C159.64 48.53 157.2 49.0101 154.74 49.3601C152.34 49.7001 150.37 49.83 149.02 52.76C147.84 55.31 144.88 56.74 142.07 53.77C141.46 53.13 142.31 50.8799 140.2 51.9299C139.1 52.4799 139.48 53.6401 139.66 54.6101C139.83 55.5101 140.64 56.41 139.51 57.55C136.56 56.31 138.05 53.8799 138.33 51.6699C135.56 51.9399 133.13 52.1699 130.69 52.3999C130.67 52.0999 130.67 51.8 130.67 51.5C132.71 50.69 132.63 49.1899 132.16 47.3999C131.61 45.3199 131.16 43.2001 130.88 41.0701C130.74 40.0001 130.7 38.41 132.34 38.53C133.49 38.61 133.54 39.97 133.46 40.98C133.4 41.8 133.02 42.5999 133 43.4099C132.85 49.3899 136.43 51.6999 142 49.4299C143.77 48.7099 142.89 47.7199 142.82 46.6399C142.6 43.2699 140.9 39.9699 142.5 35.6899C144.15 39.4999 144.69 42.8099 144.72 46.1599C144.74 48.7199 145.69 49.3199 148.06 48.6899C150.11 48.1499 153.3 49.1499 152.43 45.1799C151.53 41.0999 151.4 37.0201 152.37 32.8201C152.84 36.7801 153.49 40.74 153.72 44.72C153.88 47.37 155.25 47.6799 157.34 47.4199C159.38 47.1599 161.42 47.11 160.98 44.03C160.4 39.98 160.41 35.9 160.93 31.26C163.02 35.12 162.7 38.8499 163.14 42.3899C163.56 45.8099 165.5 45.7699 168.03 45.4199C170.79 45.0399 172.28 44.0001 171.57 40.8301C170.79 37.3401 170.37 33.7799 170.16 30.1799C172.54 33.0599 172.5 36.5799 172.97 39.9399C173.38 42.8799 174.5 44.28 177.81 43.46C185.05 41.66 192.36 40.12 199.65 38.48L199.64 38.49Z" fill="#571C17"/>
<path d="M153.78 184.6C156.1 184.79 160.02 184.35 160.52 186.99C161.25 190.84 160.72 194.77 163.05 198.47C163.54 199.25 160.88 202.2 159.46 203.97C157.64 206.23 155.76 205.62 154.03 203.71C153.49 203.12 153.07 203.35 152.41 203.75C148.88 205.89 146.67 203.81 145.32 200.92C143.86 197.8 143.81 194.67 147.94 193.29C149.15 192.89 149.33 192.6 148.81 191.26C146.55 185.49 147.38 184.39 153.79 184.59L153.78 184.6Z" fill="#372221"/>
<path d="M117.49 406.86C116.03 406.46 114.72 406.22 113.52 405.74C111.86 405.07 110.1 402.74 111.33 402.15C115.82 399.97 110.62 392.44 117.07 392.19C119.77 392.09 122.3 393.88 122.76 396.9C123.2 399.8 121.05 400.93 118.57 401.49C117.82 401.66 117.08 401.86 115.85 402.17C118.9 405.4 122.52 404.53 125.2 403.9C130.61 402.63 129.38 406.78 130.19 409.11C131.08 411.69 130.58 413.79 127.11 413.65C126.78 413.64 126.28 413.45 126.14 413.61C122.8 417.4 121.17 415.68 117.06 413.28C110.81 409.63 116.36 409.21 117.49 406.87V406.86Z" fill="#332621"/>
<path d="M189.83 190.43C191.15 192.66 189.85 193.8 188.02 194.67C186.11 195.58 184.33 195.11 183.08 193.59C181.94 192.21 181.2 190.51 180.27 188.93C178.8 189.64 178.04 192.3 175.79 190.82C173.32 189.2 175.32 187.3 175.71 185.52C175.86 185.34 176 185.16 176.15 184.97C181.18 184.4 179.64 178.8 182.82 176.66C181.09 176.25 179.84 175.53 178.94 174.27C178.87 174.05 178.8 173.82 178.73 173.6C178.71 172.04 177.41 170.28 179.16 168.97C180.76 167.78 181.9 168.91 183.01 170.01C183.31 170.31 183.88 170.45 184.33 170.46C191.44 170.62 191.9 171.1 189.7 178.3C188.97 180.7 190.96 180.65 191.75 181.58C195.15 185.58 194.49 188.77 189.74 190.5C187.89 189.6 187.34 187.85 186.98 186.41C187.42 187.8 187.74 189.71 189.84 190.4L189.83 190.43Z" fill="#3B1F1C"/>
<path d="M174.18 137.23C171.89 139.86 169.21 139.62 166.6 139.64C165.65 139.64 164.49 139.17 163.87 140.16C163.63 140.55 163.93 141.46 164.24 141.98C165.03 143.29 166.31 142.84 167.36 142.46C169.85 141.58 172.26 140.47 174.76 139.62C175.78 139.27 176.95 139.35 178.37 139.94C175.01 142.2 171.66 144.49 168.27 146.71C167.07 147.5 165.8 148.36 167.12 149.77C168.51 151.26 169 149.28 169.7 148.64C172.49 146.11 175.55 144.07 179.81 141.89C178.52 146.62 177.53 150.23 176.55 153.84C176.08 155.56 176.13 157.71 173.98 158.25C173.24 158.44 171.99 157.77 171.4 157.11C169.65 155.18 172.02 153.86 172.41 151.78C169.37 152.18 165.65 155.5 163.77 150.47C162.62 147.39 161.58 144.25 160.84 141.05C160.4 139.15 160.57 137.09 160.64 135.11C160.7 133.3 161.24 132.39 163.45 133.37C166.76 134.83 170.26 135.84 174.18 137.22V137.23Z" fill="#36231F"/>
<path d="M190.52 365.56C188.94 366.94 189.75 371.22 185.67 369.56C183.71 369.11 183.59 371.39 182.18 371.89C179.58 372.8 177.02 373.54 174.86 371.21C172.87 369.07 172.12 366.45 174.19 364.07C175.83 362.19 175.42 360.88 174.53 358.84C173.44 356.34 174.24 354.22 177.66 354.44C178.57 354.5 180.04 355.42 180.26 354.18C181.46 347.58 183.15 350.85 185.19 353.73C185.61 354.33 187.06 354.15 188 354.43C191.32 355.42 192.78 357.61 191.19 360.8C190.37 362.45 190.55 363.96 190.52 365.56Z" fill="#372624"/>
<path d="M226.74 204.56C225.16 202.25 224.03 200.07 227.06 198.64C230.44 197.04 233.31 198.36 235.38 201.04C236.8 202.88 238.83 205.23 235.59 207.31C234.54 207.98 233.98 208.01 235.32 209.04C237.75 210.9 237.33 212.65 234.54 213.62C233.46 213.99 232.61 214 233.27 215.44C233.46 215.85 233.56 216.44 233.4 216.82C233.06 217.64 231.82 218.38 231.48 217.94C228.97 214.65 224.65 219.66 222.64 216.07C221.36 213.79 225.33 214.79 225.35 212.85C223.51 211.99 220.91 215.26 219.44 211.78C218.36 209.23 218.71 206.89 220.15 204.71C221.97 201.95 224.23 203.99 226.75 204.55L226.74 204.56Z" fill="#2B1D1C"/>
<path d="M212.57 195.71C212.33 200.71 210.38 202.2 206.15 200.23C204.87 199.63 203.94 199.54 202.58 199.64C198.13 199.98 196.85 197.97 198.98 194.15C199.75 192.77 198.35 192.52 198.17 191.67C197.49 188.52 200.49 183.17 203.72 181.41C206.65 179.81 209.17 180.64 210.63 183.1C212.51 186.26 217.37 189.16 212.72 193.71C209.57 194.96 208.02 192.41 206.04 190.89C205.58 190.41 205.21 189.88 204.98 189.25C205.16 189.84 205.53 190.32 205.95 190.77C206.87 194.15 211.26 192.87 212.58 195.71H212.57Z" fill="#39201A"/>
<path d="M209.59 115.74C208.26 114.04 203.29 116.23 205.02 110.68C205.59 108.83 203.28 111.03 202.42 111.76C200.7 113.22 198.73 114.53 196.58 113.23C194.93 112.23 195.21 110.49 196.56 109.1C195.11 107.73 194.19 109.51 193.01 109.73C189.93 110.28 188.38 108.55 187.34 106.03C185.86 102.46 187.47 99.79 190.18 97.82C192.12 96.41 194.34 96.7601 196.03 98.6201C196.89 99.5701 198 100.66 196.68 102.03C195.77 102.98 194.83 103.9 193.23 103.49C192.41 103.28 192.25 100.74 190.89 102.76C190.6 103.2 190.6 104.29 190.93 104.61C191.83 105.5 193.52 106.7 194.25 105.97C196.64 103.58 198.37 105.72 200.49 106.75C200.75 103.32 198.43 100.76 198.65 97.9199C199.07 92.4099 203.43 96.7199 205.63 95.4299C205.76 97.8199 206.98 99.97 207.11 102.36C204.99 105.08 207.52 106.84 208.46 108.93C209.12 111.16 210.68 113.23 209.59 115.74Z" fill="#40231E"/>
<path d="M196.37 306.68C194.77 303.47 198.2 301.62 199.26 301.98C202.3 303.02 205.42 302.16 208.32 303.15C209.43 303.53 210.46 304.49 210.54 305.64C210.68 307.73 210.54 309.27 213.56 308.02C214.6 307.59 216.29 309.04 216.7 310.67C217.35 313.24 215.71 314.24 212.04 315.09C216.49 315.32 219.02 316.46 218.62 319.78C218.19 323.34 215.47 325.62 212.26 326.49C209.91 327.13 207.23 326.54 204.7 326.49C203.13 324.12 204.39 322.15 205.58 320.16C208.1 317.72 209.22 319.4 210.04 321.59C210.05 315.88 204.82 313.07 202.38 308.65C200.33 308.14 197.74 309.25 196.38 306.67L196.37 306.68Z" fill="#2F1D18"/>
<path d="M170.66 388.35C168.83 388.28 167.04 388.2 165.47 389.53C163.75 390.99 161.78 391.42 160.28 389.32C159.05 387.59 157.6 388.59 156.23 388.57C153.87 388.53 152.94 386.78 153.97 385.3C155.86 382.58 156.46 379.93 155.89 376.77C155.77 376.08 156.34 375.18 156.78 374.49C157.63 373.14 159.42 371.74 160.43 372.65C163.49 375.38 168.39 369.97 170.51 375.13C172 378.77 167.84 377.97 166.74 379.61C165.75 380.19 164.8 380.87 163.63 380.85C164.66 381.16 165.56 379.86 166.68 380.49L169.68 380.35C172.85 382.68 173.21 385.34 170.65 388.36L170.66 388.35Z" fill="#3D291D"/>
<path d="M202.52 76.1899C202.87 78.4299 203.22 80.6699 203.57 82.9199C202.56 86.0599 199.94 88.0799 197.94 90.4199C194.99 93.8799 190.08 92.1899 189.06 87.7199C188.08 83.3899 189.55 79.5401 191.91 76.1201C195.31 71.2101 198.98 74.5099 202.51 76.1799L202.52 76.1899Z" fill="#3E2121"/>
<path d="M140.67 179.5C141.99 183.04 141.86 187.51 140.02 191.97C138.68 195.24 136.26 196.81 133.02 195.97C129.31 195 127.51 190.08 129.08 188.63C133.39 184.66 130.5 180.79 130.8 176.85C131.05 173.66 134.07 172.35 137.1 172.62C140.59 172.92 141.04 175.56 140.66 179.5H140.67Z" fill="#37221F"/>
<path d="M89.71 391.63C86.43 390.87 83.21 390.17 80.02 389.38C77.82 388.83 77.25 387.14 77.46 385.14C77.68 382.98 78.4701 381.06 81.0801 381.31C83.3601 381.53 84.3001 380.77 84.8101 378.51C85.1901 376.83 86.9599 375.82 88.6799 375.89C90.4599 375.97 91.8999 376.96 91.4099 379.16C91.0099 380.99 92.42 380.42 93.22 380.58C96.26 381.19 98.73 382.43 98.46 386.05C98.2 389.62 95.68 390.6 92.55 390.82C91.58 390.89 90.64 391.35 89.71 391.62V391.63Z" fill="#3E2928"/>
<path d="M147.74 416.45C146.05 417.42 144.16 417.44 142.29 417.57C140.83 414.15 138.63 410.68 143.15 407.75C144.98 406.56 142.87 406.27 142.51 405.85C140.95 404 140.98 402.32 142.61 400.59C143.46 401.22 144.39 400.88 145.3 400.84C144.38 400.84 143.43 401.19 142.54 400.67C142.75 400.06 142.84 399.36 143.19 398.85C143.89 397.86 145.4 396.88 146.09 397.36C149.55 399.81 152.8 396.09 155.92 397.19C159.19 398.35 157.06 402.19 158.65 404.35C157.56 406.56 155.78 408.14 153.84 409.57C149.51 409.82 149.63 414.03 147.74 416.44V416.45Z" fill="#342526"/>
<path d="M167.08 322.72C166.29 323.4 164.18 323.51 166.15 325.29C168.45 327.37 168.39 329.96 167.03 332.46C165.72 334.89 163.9 335.6 161.44 333.59C160.52 332.84 160.19 334.1 159.83 334.75C158.46 337.22 156.66 337.24 154.57 335.7C153.8 333.74 154.45 331.62 153.8 329.57C153.37 328.24 153.16 326.17 155.83 326.4C157.3 327.15 158.8 327.83 160.22 328.66C160.97 329.1 161.72 329.71 162.28 328.7C162.81 327.71 161.9 327.09 161.14 326.92C156.85 325.93 154.67 323.06 153.95 318.94C153.5 316.37 154.92 314.45 156.7 312.85C157.85 311.82 159.2 312.08 160.37 312.93C161.63 313.85 162.6 315.13 162.41 316.71C162.16 318.77 160.66 319.76 158.08 319.66C160.81 322.63 162.13 320.82 163.48 319.14C165.43 319.57 166.61 320.77 167.06 322.71L167.08 322.72Z" fill="#422B23"/>
<path d="M169.9 351C169.91 355.64 167.04 359.64 163.91 359.69C159.95 359.76 158.53 357.39 158.56 351.41C158.56 350.04 157.56 348.69 157.29 347.28C156.79 344.7 157.26 342.83 160.59 343.95C161.15 344.14 161.95 345.03 162.22 344.39C163 342.54 163.7 341.06 166.11 342.2C168.56 343.36 168.86 345.77 169.48 347.95C169.79 349.05 169.8 350.23 169.9 351Z" fill="#352827"/>
<path d="M98.74 82.59C100.98 78.88 107.1 77.64 110.16 80.35C110.45 80.61 110.48 81.06 111.08 81.08C115.98 81.29 116.77 82.5399 114.35 86.7399C113.12 88.8799 111.48 90.7899 109.95 92.7499C109.15 93.7799 107.8 94.0499 106.78 93.5599C105.03 92.7099 106.66 91.6099 106.95 90.7099C107.7 88.4399 109.91 86.68 109.37 83.62C105.12 86.9 103.79 92.3098 99.4399 95.9098C98.0299 92.8298 99.11 90.3698 99.46 87.8998C99.72 86.0398 100.93 83.9899 98.6499 82.4799L98.73 82.57L98.74 82.59Z" fill="#3A221B"/>
<path d="M127.09 72.62C132.06 72.66 136.24 78.3699 134.77 83.2099C134.25 84.9199 133.2 86.3898 132.7 88.1698C132.17 90.0598 130.45 90.5899 128.79 89.2199C126.63 87.4399 124.61 85.5098 122.53 83.6298C120.6 81.8798 119.02 80.1199 120.54 77.1899C121.98 74.3999 124.32 72.6 127.1 72.62H127.09Z" fill="#37231D"/>
<path d="M152.71 159.17C151.16 161.8 153.09 165.17 149.48 166.69C147.25 167.63 145.79 167.88 144.39 165.89C142.98 163.89 143.45 161.91 145.34 160.72C147.04 159.65 148.27 158.88 148.81 156.56C149.52 153.52 153.06 153.46 155.39 156.36C156.74 158.04 157.62 159.72 160.35 159.62C162.59 159.54 164.02 161.32 163.47 163.71C162.71 167.01 160.27 168.7 157.03 169.02C154.8 169.24 153.78 167.82 153.54 165.69C153.31 163.67 153.91 161.51 152.71 159.17Z" fill="#36211E"/>
<path d="M200.83 338.4C199.48 336.94 198.02 335.57 196.81 334.01C195.69 332.56 195.66 330.86 196.92 329.43C198.28 327.89 199.99 328.18 201.4 329.24C202.96 330.42 204.06 331.83 206.51 330.74C207.82 330.15 208.58 331.81 208.77 333.3C209.4 338.45 203.6 345.94 198.5 346.52C196.56 346.74 194.73 346.48 193.68 344.71C192.56 342.81 193.76 341.24 194.91 339.79C196.4 337.92 197.99 338.22 199.59 339.67C199.89 339.86 200.22 339.97 200.52 339.84C201.35 339.49 202.44 339.76 203 338.78C202.2 339.15 201.43 339.29 200.84 338.41L200.83 338.4Z" fill="#36221D"/>
<path d="M164.53 244.42C162.92 237.91 157.24 239.16 153.98 236.28C156.92 234.85 159.81 235.48 162.58 235.76C166.21 236.13 169.81 236.83 173.43 237.35C175.02 237.58 176.61 238.05 176.6 239.87C176.59 241.69 174.79 242.04 173.38 242.44C171.22 243.05 169.15 242.02 166.82 241.8C166.92 243.74 167.9 245.77 165.39 246.95C163.37 247.9 161.78 247.26 160.31 246.12C157.23 243.72 153.13 242.47 151.21 237.95C156.03 238.96 159.93 241.06 164.53 244.43V244.42Z" fill="#33231B"/>
<path d="M75.0299 388.63C75.1099 390.99 74.17 392.79 72.37 392.54C69.22 392.11 65.9698 392.33 62.9198 390.73C58.3398 388.33 59.4299 384.94 60.6999 381.41C62.0199 377.74 64.06 378.07 67.62 379.1C73.18 380.7 73.8699 384.81 75.0299 388.63Z" fill="#372522"/>
<path d="M156.41 174.44C157.17 176.44 160.19 176.42 159.37 178.91C158.99 180.06 158.19 181.02 157.03 181.31C154.38 181.96 154.24 179.18 152.81 177.89C152.04 178.83 151.43 179.8 150.61 180.53C149.49 181.52 148.21 181.56 147.03 180.53C146.12 179.74 145.26 178.84 146.22 177.59C147.13 176.4 147.44 175.87 145.48 175.56C143.16 175.19 142.68 173.36 143.55 171.42C144.53 169.22 147.04 168.36 148.46 169.74C151.47 172.67 154.36 171.2 157.48 170.73C159.47 170.43 161.79 169.35 163.49 171.46C164.16 172.29 163.97 173.44 163.36 174.26C161.43 176.87 159.18 174.75 156.42 174.43L156.41 174.44Z" fill="#42211C"/>
<path d="M197.62 284.83C197.29 285.53 196.97 286.22 197.51 287.08C199.17 289.73 200.26 292.36 196.03 293.66C192.08 294.86 186.36 292.34 185.74 289.08C185.28 286.65 184.96 284.15 184.93 281.68C184.89 278.7 186.12 276.48 189.55 276.4C193.17 276.31 197.84 281.17 197.63 284.84L197.62 284.83Z" fill="#31201E"/>
<path d="M206.62 320.41L204.69 326.49C197.89 324.48 197.84 324.41 200.84 319.94C199.29 319.05 198.05 320.41 196.64 320.53C195.51 320.62 194.78 320.24 194.21 319.26C193.63 318.27 193.52 317.04 194.39 316.58C196.8 315.3 196.31 314.88 194.36 313.34C189.99 309.9 195.62 308.91 196.38 306.67C198.87 308.74 201.27 304.9 203.75 306.57C202.62 311.61 205.61 315.8 206.63 320.4L206.62 320.41Z" fill="#3E2416"/>
<path d="M114.55 382.72C115.49 387.16 112.83 388.65 109.42 389.04C106.42 389.39 101.86 384.08 101.73 380.53C101.54 375.46 103.7 372.1 107.22 371.93C111.54 371.73 114.36 375.95 114.56 382.72H114.55Z" fill="#3B2821"/>
<path d="M207.77 162.23C209.43 162.98 210.29 161.85 209.53 160.76C208.26 158.93 206.56 157.38 205.51 155.35C205.12 154.58 204.36 154.75 203.81 155.09C203.17 155.49 203.22 156.12 203.53 156.8C203.99 157.81 205.84 158.8 203.76 159.98C202.35 160.78 200.9 160.86 199.61 159.74C198.46 158.74 197.39 157.52 198.01 155.9C198.77 153.93 199.72 152.01 200.81 150.21C201.57 148.97 203.19 147.2 204.31 148.28C207.28 151.15 212.81 147.23 214.55 152.4C215.25 154.49 214.44 156.49 212.74 157.68C210.87 158.99 212.02 159.6 212.96 160.45C212.54 162.32 211.81 164.03 209.62 164.2C208.49 164.29 207.16 164.05 207.77 162.25V162.23Z" fill="#381F1B"/>
<path d="M146.06 221.24C144.34 220.67 145.54 218.36 143.95 217.66C141.47 218.28 144.18 220.3 143.05 221.23C141.22 221.44 138.64 216.27 138.69 211.59C137.37 215.32 137.93 217.91 139.14 220.46C139.56 221.34 140.18 222.39 138.89 222.94C138.13 223.26 137.23 222.72 136.82 221.94C135.11 218.65 133.86 215.16 134.8 211.46C135.88 207.23 140.36 206.07 144.48 208.7C149.53 211.93 150.22 217.36 146.05 221.25L146.06 221.24Z" fill="#2C1F1B"/>
<path d="M149.47 366.08C149.04 369.26 147.16 372.18 143.89 373.3C141.08 374.26 139.58 371.28 138.11 369.43C135.05 365.57 138.11 360.66 136.25 356.51C136.19 356.38 136.82 355.77 137.21 355.66C141.03 354.56 149.34 361.38 149.47 366.09V366.08Z" fill="#35241D"/>
<path d="M66.8101 402.48C65.1401 394.78 68.4101 391.49 75.6001 393.63C79.2501 394.72 80.1699 397.12 78.1799 400.46C78.0199 400.73 77.55 400.9 77.53 401.15C77.34 403.06 79.06 405.7 75.78 406.41C72.52 407.12 70.0699 405.38 67.9099 403.15C67.5899 402.82 67.11 402.63 66.71 402.37L66.8101 402.48Z" fill="#3A251A"/>
<path d="M196.58 213.77C192.38 213.87 187.16 209.56 187.1 206.43C187.05 203.65 191.29 200.69 195.31 200.68C198.93 200.68 202.8 204.14 202.48 207.52C202.12 211.25 199.79 213.38 196.57 213.77H196.58Z" fill="#2F2123"/>
<path d="M163.58 295.76C164.84 299.12 165.82 302.5 167.95 305.32C168.56 306.13 169.06 307.11 168.06 307.95C167.16 308.71 166.19 308.17 165.26 307.83C163.87 307.32 163.28 306.13 162.77 304.89C160.87 300.24 159.88 295.41 160.03 289.53C166.57 293.87 171.44 299.2 176.37 304.41C177.49 305.59 177.29 307.73 175.45 308.69C173.8 309.55 173.21 308.03 172.49 306.91C169.9 302.88 167.21 298.94 163.58 295.76Z" fill="#332620"/>
<path d="M164.63 83.6699C169.21 86.8499 172.88 89.03 176.08 91.76C178.03 93.42 178.07 96.28 176.15 98.02C173.77 100.19 170.01 99.85 167.43 102.27C166.41 103.23 165.34 101.26 165.03 99.9199C164.32 96.8599 163.65 93.8 162.95 90.74C162.77 89.95 162.33 88.9301 163.31 88.6201C163.93 88.4201 164.89 88.9001 165.54 89.3201C167.28 90.4401 168.24 92.19 169.07 94.03C169.77 95.57 170.66 97.0199 172.57 97.1699C172.9 97.1999 173.57 96.6799 173.57 96.3899C173.62 94.6999 172.24 93.8 171.22 92.8C168.86 90.49 166.04 88.5799 164.64 83.6699H164.63Z" fill="#321F18"/>
<path d="M209.59 115.74C208.97 113.37 208.36 110.99 207.74 108.62L207.98 108.25L208.42 108.3C211.91 113.89 212.18 120.43 213.57 126.58C217.14 142.42 222.5 157.63 228.65 172.6C225.24 173.57 225.63 168.62 222.73 168.8C226.09 167.69 223.57 165.74 223.11 164.49C218.26 151.25 213.64 137.96 210.95 124.07C210.42 121.3 210.04 118.51 209.59 115.73V115.74Z" fill="#180F0A"/>
<path d="M142.56 235.64C144.2 235.64 145.1 236.44 144.63 238.11C142.62 245.22 137.58 250.23 132.53 255.19C131.8 255.91 130.63 255.89 129.9 254.95C129.28 254.15 129.67 253.23 130.37 252.81C132.53 251.5 132.97 249.68 132.59 247.32C132.25 245.21 130.7 243.04 133.11 240.97C135.92 238.56 139.04 236.83 142.55 235.64H142.56Z" fill="#3D2B1E"/>
<path d="M138.78 160.55C138.85 164.04 134.05 170.62 131.91 169.92C127.47 168.48 126.96 164.36 126.79 160.4C126.61 156.38 129.43 154.76 132.71 154.64C136.68 154.49 138.4 157.32 138.78 160.54V160.55Z" fill="#35201F"/>
<path d="M65.8101 369.22C65.8601 366.58 66.58 364.09 68.95 362.8C71.5 361.41 72.8201 364.08 74.3501 365.3C76.6301 367.12 79.4101 369.01 78.6201 372.6C77.9201 375.77 76.66 378.9 72.76 379.02C69.65 379.12 65.5901 373.1 65.8101 369.22Z" fill="#31231D"/>
<path d="M151.11 349.01C150.6 351.61 151.34 355.54 146.55 355.45C143.03 355.38 139.38 350.05 139.71 345.72C139.97 342.21 141.9 340.19 145.47 340.22C149.11 340.25 151.3 343.64 151.11 349.01Z" fill="#2B2429"/>
<path d="M186.25 225.71C181.73 225.75 178.66 222.91 178.65 218.44C178.65 215.79 178.69 212.79 182.4 212.66C186.47 212.52 194.11 217.6 193.16 219.79C191.94 222.62 190.13 225.62 186.25 225.71Z" fill="#33231E"/>
<path d="M156.33 230.44C153.69 230.27 159.02 226.98 154.36 228.07C153.49 228.27 153.65 227.18 153.8 226.59C154.92 222.2 162.5 217.21 166.96 217.54C169.17 217.7 170.32 218.57 170.97 220.51C171.67 222.56 170.39 223.76 168.96 224.58C164.68 227.03 160.23 229.17 156.32 230.44H156.33Z" fill="#352220"/>
<path d="M112.82 111.23C113.7 113.01 115.81 114.37 113.71 116.88C110.5 120.71 109.37 120.83 106.19 116.9C104.09 114.31 102.17 111.61 100.89 108.51C100.54 107.66 99.7699 106.64 100.64 105.79C101.41 105.02 102.8 105.03 103.42 105.66C106.08 108.33 110.38 108.02 112.8 111.02L112.83 111.24L112.82 111.23Z" fill="#39241C"/>
<path d="M93.57 61.98C95.26 64.51 99.46 64.32 100.07 68.03C100.65 71.58 96.32 76.21 92.79 76.23C90.15 76.25 86.95 71.4401 86.8 67.0601C86.64 62.4901 90.91 63.74 93.57 61.97V61.98Z" fill="#371E16"/>
<path d="M139.12 295.4C137.27 294.63 136.07 295.79 134.7 296.71C133.6 297.45 132.19 299.19 131.02 297.15C130.02 295.41 131.18 293.97 132.9 293.24C137.91 291.12 142.94 289.06 148.25 286.85C149.14 289.5 146.83 290.68 146.05 292.39C144.82 295.08 143.49 297.73 142.11 300.35C141.43 301.63 140.69 303.35 138.82 302.5C136.9 301.62 137.94 300.06 138.35 298.65C138.65 297.61 139.68 296.7 139.11 295.4H139.12Z" fill="#36261D"/>
<path d="M88.0101 393.35C90.3801 393.33 93.4702 394.47 94.3702 398.29C94.9002 400.56 88.6099 405.77 85.8799 405.73C84.0699 405.7 80.3 399.75 80.64 396.99C81.09 393.33 84.0801 393.55 88.0201 393.35H88.0101Z" fill="#3C2B25"/>
<path d="M163.45 286C168.34 285.57 172.25 285.18 176.17 284.91C178.96 284.71 181.25 285.79 181.63 288.72C181.88 290.71 182.5 292.04 184.14 293.15C185.06 293.77 184.89 294.92 184.28 295.81C183.74 296.6 182.89 296.81 182.11 296.34C176.29 292.76 169.16 291.52 163.46 286H163.45Z" fill="#2F201D"/>
<path d="M207.77 162.23C210.85 165.53 210.7 159.48 212.97 160.44C215.65 162.87 217.9 165.3 212.2 166.64C211.07 166.91 211.3 167.58 211.04 168.34C209.55 172.62 205.87 171.92 202.88 171.1C199.66 170.22 198.55 167.28 200.08 164.32C201.69 161.19 204.4 159.95 207.77 162.23Z" fill="#2E1B1E"/>
<path d="M132.22 283.95C129.51 283.62 128.22 283.42 126.92 283.32C125.73 283.22 124.33 283.24 124.69 281.53C125.06 279.77 126.58 280.49 127.53 280.77C133.35 282.5 139.23 283.92 146.03 284.8C141 289.25 135.46 290 129.95 290.67C128.71 290.82 127.25 289.98 126.76 288.75C126.25 287.43 127.65 286.77 128.52 286.09C129.26 285.52 130.15 285.13 132.21 283.96L132.22 283.95Z" fill="#32211A"/>
<path d="M105.72 418.09C104.33 421.08 105.92 426.18 100.45 425.77C97.1799 425.52 94.45 423.47 93.82 420C93.44 417.95 99.8999 412.85 101.97 413.28C104.62 413.83 105.95 415.48 105.73 418.1L105.72 418.09Z" fill="#33241B"/>
<path d="M146.17 245.49C144.843 251.803 141.82 255.063 137.1 255.27C136.99 254.99 136.87 254.71 136.75 254.43C142.83 252.48 141.29 244.3 146.93 241.95C147.55 241.69 147.84 240.09 148.7 240.69C151.3 242.49 151.1 245.62 151.6 248.29C151.89 249.84 153.46 251.93 150.95 253.13C148.94 254.09 147.33 254.02 147.5 251.08C147.62 249.1 147.4 247.19 146.16 245.5L146.17 245.49Z" fill="#3F2E1D"/>
<path d="M139.74 117.94C140.02 114.69 140.28 111.62 140.56 108.54C140.65 107.61 141.46 106.6 142.07 107.2C144.54 109.59 148.4 108.63 150.78 111.13C152.13 112.55 152.66 113.92 151.1 115.4C147.99 118.33 145.04 121.48 140.61 123.79C140.84 119.5 144.14 117.74 145.91 115.07C146.55 114.11 148.57 113.16 146.84 111.92C145.14 110.7 144.89 112.96 144.09 113.8C142.78 115.18 142.3 117.4 139.74 117.94Z" fill="#2E1F1E"/>
<path d="M175.72 185.52C173.06 185.89 171.55 184.61 171.19 182.08C170.77 179.18 169.65 176.11 172.3 173.61C174.41 171.62 176.59 172.52 178.74 173.6L178.64 173.5C183.2 177.99 182.2 182.02 175.63 185.58L175.72 185.51V185.52Z" fill="#37201B"/>
<path d="M176.44 65.9899C176.49 67.6099 175.47 68.0301 174.6 68.3601C171.21 69.6401 167.73 70.72 164.7 72.81C164.23 73.13 163.31 73.3601 162.92 73.1201C162.13 72.6301 162.22 71.6799 162.64 70.9099C164.62 67.2899 166.6 63.6801 168.66 60.1001C169.13 59.2801 170.72 58.2 170.86 58.77C171.69 62.15 173.47 64.6299 176.44 65.9899Z" fill="#523621"/>
<path d="M123.98 93.9299C117.34 100.65 110.12 105.33 100.27 99.8301C107.52 95.4101 116.24 96.5699 123.98 93.9299Z" fill="#341F16"/>
<path d="M146.53 140.53C145.56 144.04 142.28 145.66 140.02 148.01C138.15 149.95 136.07 148.7 135.32 146C134.38 142.64 134.84 139.31 134.95 135.17C138.72 138.03 137.85 142.29 140.33 145.53C141.72 141.95 139.86 139.63 139.01 137.16C138.64 136.08 137.71 134.68 138.81 133.98C140.38 132.98 141.01 134.82 141.71 135.79C143.08 137.7 144.65 139.36 146.63 140.62L146.54 140.53H146.53Z" fill="#3D2D20"/>
<path d="M88.54 345.2C84.65 348.26 81.75 350.45 78.96 352.75C77.79 353.71 76.55 353.68 75.21 353.57C73.23 353.4 70.58 353.54 70.51 351C70.43 348.21 73.1901 348.75 75.0901 348.53C75.7001 348.46 76.3099 348.34 76.8999 347.77C74.6799 347.62 72.47 347.48 70.25 347.33C75.81 344.65 81.57 345.21 88.54 345.19V345.2Z" fill="#2A2623"/>
<path d="M174.09 267.39C175.41 267.38 176.24 268.1 176.81 269.2C177.67 270.89 177.36 272.67 176.13 273.8C172.19 277.41 167.02 279.06 162.53 281.81C161.27 282.58 160.19 280.84 161.09 279.86C164.97 275.67 169.11 271.72 173.17 267.7C173.38 267.49 173.78 267.48 174.09 267.38V267.39Z" fill="#2E1F20"/>
<path d="M114.65 128.55C118.67 131.22 123.24 128.5 127.07 131.45C124.42 135.04 118.22 131.42 116.76 137.06C120.03 137.78 121.92 133.02 125.42 134.93C125.37 135.31 125.46 135.89 125.22 136.17C123.36 138.35 122.33 142.99 119.42 142.08C116.07 141.04 114.85 136.77 114.66 132.95C114.6 131.8 114.66 130.65 114.66 128.54L114.65 128.55Z" fill="#382319"/>
<path d="M181.64 207.89C181.28 211.22 179.66 213.41 175.98 213.46C172.01 213.51 170.69 210.89 170.86 207.57C171.01 204.76 171.61 201.47 175.51 201.78C178.92 202.05 181.44 203.89 181.64 207.9V207.89Z" fill="#332221"/>
<path d="M160.28 275.91C161.75 271.57 163.16 267.21 164.71 262.91C165.32 261.22 165.4 258.6 168.53 259.98C170.93 261.04 172.36 262.46 171.4 265.33C169.59 270.77 164.73 273.14 160.28 275.92V275.91Z" fill="#302425"/>
<path d="M112.82 111.23L112.79 111.01C112.96 105.86 107.07 107.46 105.3 104.48C105.55 104.14 105.77 103.69 105.88 103.72C112.02 105.19 116.86 102.59 121.31 98.8001C122.12 98.1101 123 97.6699 123.97 98.3799C125.07 99.1699 124.55 100.14 124.02 100.98C123.33 102.08 122.77 103.68 121.76 104.08C118.76 105.29 115.35 105.43 116.53 110.46C116.92 112.13 114.14 111.02 112.82 111.23Z" fill="#472D1D"/>
<path d="M157.55 232.83C161.47 230.52 164.8 228.47 168.22 226.57C169.5 225.86 170.87 225.19 172.47 225.47C173.53 225.66 174.47 226.08 174.48 227.23C174.49 228.23 173.57 228.46 172.71 228.58C169.23 229.05 166.1 230.5 162.1 232.26C166.18 232.24 169.15 231.29 172.1 230.21C173.32 229.76 174.6 228.98 175.76 230.18C176.51 230.95 176.43 231.93 176.04 232.96C175.38 234.72 174.01 235.11 172.45 234.85C167.73 234.08 162.81 235.14 157.54 232.84L157.55 232.83Z" fill="#432918"/>
<path d="M110.36 344.4C112.36 341.64 107.55 343.22 108.54 340.87C113.54 338.95 118.85 339.17 124.23 340.48C126.2 340.96 127.03 342.1 126.68 344.09C126.25 346.5 124.62 345.95 122.87 345.87C120.49 345.77 118.24 342.76 115.73 345.45C113.56 347.04 112.07 345.18 110.37 344.39L110.36 344.4Z" fill="#362820"/>
<path d="M151.18 123.4C152 123.45 152.83 123.42 153.63 123.58C156.13 124.1 156.15 126.05 155.67 127.85C155.16 129.76 153.47 129.72 152.01 129.1C149.11 127.87 146.15 126.88 142.79 126.2C146.42 124.58 147.92 121.01 150.64 118.68C151.7 117.77 152.68 116.22 154.39 116.77C155.41 117.09 155.72 118.22 155.54 119.28C155.25 121.03 154.46 122.41 152.51 122.75C152.04 122.83 151.57 122.92 151.1 123C151.13 123.14 151.15 123.27 151.18 123.41V123.4Z" fill="#41251E"/>
<path d="M107.2 415.18C107.07 413.87 107.09 411.83 109.8 411.51C111.79 411.28 117.3 416.64 117.18 418.63C117 421.74 114.83 422.95 112.14 422.9C107.57 422.82 107.22 419.47 107.19 415.18H107.2Z" fill="#402B1F"/>
<path d="M91.6101 415.32C91.8401 417.47 91.2499 418.98 89.4499 419.61C87.5799 420.26 86.1201 419.24 85.3701 417.65C84.4701 415.76 83.8499 414.21 81.1499 415.2C80.0899 415.59 78.4799 414.76 78.1599 413.17C77.8799 411.78 78.39 410.48 79.52 409.68C80.76 408.8 82.08 409.06 83.03 410.28C83.76 411.22 84.1399 411.62 85.6799 411.13C89.6099 409.87 91.5801 411.59 91.6101 415.32Z" fill="#38281A"/>
<path d="M200 145.55C198.81 147.03 198.04 147.08 197.18 146.91C196.57 146.79 195.88 146.46 195.32 147.23C195.94 148.15 196.63 149.05 197.17 150.04C198 151.54 197.87 152.98 196.3 153.91C194.5 154.98 194.14 153.35 193.43 152.27C191.52 149.37 189.46 146.57 187.65 143.61C186.82 142.26 186.53 140.16 189 140.89C192.68 141.99 196.13 143.86 200 145.54V145.55Z" fill="#392217"/>
<path d="M99.3701 350.5C99.6601 350.64 100.11 350.72 100.22 350.95C102.35 355.4 104.6 359.8 106.43 364.36C107.06 365.94 105.43 367.04 103.9 367.51C102.23 368.02 101.22 366.89 100.9 365.6C99.7899 361.09 98.87 356.54 97.96 351.99C97.78 351.08 98.2501 350.38 99.3701 350.5Z" fill="#37271F"/>
<path d="M146.63 140.62C148.68 137 144.83 135.92 143.65 133.7C142.99 132.46 141.31 131.19 142.41 129.87C143.37 128.72 145.24 129.39 146.62 129.85C149.22 130.71 150.67 133.79 153.84 133.68C153.98 133.68 154.29 134.46 154.27 134.87C154.17 136.74 148.66 140.73 146.54 140.54L146.63 140.63V140.62Z" fill="#38231B"/>
<path d="M133.95 267.73C137.46 266.75 139.56 263.89 142.55 262.35C143.63 261.79 144.41 262 144.83 263.25C145.93 266.5 147.07 269.74 148.42 273.62C145.08 273.13 143.27 271.21 141.14 269.9C139.07 268.63 136.53 268.7 133.95 267.73Z" fill="#523B22"/>
<path d="M93.3301 350.05C91.7201 355.62 90.16 361.19 88.48 366.74C88.11 367.96 87 367.85 86.01 367.46C84.23 366.76 83.56 365.63 84.02 363.6C85.3 357.95 89.0001 353.92 93.3201 350.05H93.3301Z" fill="#38271B"/>
<path d="M109.97 400.68C109.81 403.57 109.09 406.08 106.31 406.22C103.23 406.37 101.4 403.87 101.11 401.15C100.78 397.96 103.4 396.17 106.12 396.08C108.89 395.99 109.59 398.67 109.97 400.69V400.68Z" fill="#39291E"/>
<path d="M96.37 352.13C96.87 356.99 97.4 361.84 97.86 366.7C98.07 368.9 96.6999 369.61 94.7699 369.58C92.7599 369.54 92.2898 368.13 92.3798 366.52C92.6398 361.56 93.42 356.7 96.37 352.14V352.13Z" fill="#37241C"/>
<path d="M152.86 292.38C152.51 294.89 151.76 297.52 151.87 300.12C152.05 304.48 150.9 304.9 146.97 303.23C144.59 302.22 144.63 301.52 145.49 299.79C146.89 296.99 148.27 294.17 149.77 291.43C150.27 290.51 150.59 288.89 152.05 289.29C153.59 289.71 152.76 291.21 152.85 292.38H152.86Z" fill="#3C281B"/>
<path d="M98.4399 346.47C96.3199 345.55 92.9701 344.95 92.8701 342.61C92.7401 339.49 96.0901 338.27 98.8301 338.01C100.82 337.82 103.54 338.28 103.61 341.11C103.69 344.22 101.21 345.49 98.4399 346.47Z" fill="#3A3032"/>
<path d="M89.6001 348.71C87.8001 352.01 85.7601 354.29 83.5901 356.48C82.3501 357.73 79.94 358.33 81.49 361.05C81.86 361.7 80.8201 362.9 79.8101 363.23C78.7201 363.6 77.78 362.9 77.22 362.14C76.39 361.01 76.07 359.5 74.46 359.01C79.53 355.88 83.0501 350.71 89.5901 348.7L89.6001 348.71Z" fill="#3F2E1C"/>
<path d="M176.21 133.77C170.83 134.73 167.1 131.31 162.69 131.27C161.73 131.27 161.78 130.11 162.02 129.27C162.85 126.26 167.42 127.24 167.85 123.8C168.23 124.03 168.92 124.24 168.94 124.51C169.37 128.79 173.34 130.37 176.22 133.78L176.21 133.77Z" fill="#36231F"/>
<path d="M102.4 350.11C107.32 351.81 110.01 355.57 112.85 359.17C114.06 360.7 113.75 361.83 112.1 362.81C110.45 363.79 108.79 364.06 107.85 362.15C105.9 358.2 104.2 354.13 102.4 350.1V350.11Z" fill="#37271B"/>
<path d="M154.58 271.23C154.65 273.05 154.74 274.71 153.22 275.04C151.64 275.38 151.1 273.76 150.74 272.5C149.85 269.35 149.17 266.13 148.19 263.01C147.58 261.08 148.37 260.21 150 259.7C152.11 259.03 152.46 260.38 152.75 262.02C153.31 265.26 154.02 268.47 154.58 271.23Z" fill="#393028"/>
<path d="M163.63 283.09C168.46 280.65 172.36 278.6 176.33 276.73C177.94 275.97 180.28 274.94 181.12 277.17C181.92 279.29 179.93 281.92 178.25 282.13C173.8 282.69 169.35 284.37 163.63 283.09Z" fill="#3B2422"/>
<path d="M186.96 147.94C189.01 151.51 191.07 155.08 193.12 158.66C193.57 159.44 193.81 160.56 192.98 160.85C190.99 161.54 188.89 162.03 186.8 162.27C185.74 162.39 185.64 161.07 185.84 160.36C186.94 156.31 185.6 152.19 186.96 147.94Z" fill="#432C1C"/>
<path d="M100.57 407.66C100.08 410.69 98.7199 412.91 95.9099 412.93C92.8999 412.95 91.6701 410.5 91.8401 407.82C92.0601 404.25 94.6001 401.65 97.7901 401.7C101.69 401.76 98.4601 406.3 100.57 407.66Z" fill="#3B291A"/>
<path d="M133.86 118.04C133.69 118.62 133.7 119.7 133.19 120.06C132.18 120.78 131.31 119.83 130.72 119.1C129.27 117.31 127.9 115.44 126.58 113.55C125.83 112.48 124.9 111.19 126.17 110C127.35 108.89 128.67 107.55 130.37 107.62C132.33 107.69 132.24 109.66 132.56 111.02C133.09 113.26 133.41 115.55 133.86 118.05V118.04Z" fill="#432817"/>
<path d="M142.45 318.65C140.65 318.29 139.94 317.06 140.21 315.39C140.48 313.74 141.73 312.97 143.29 312.54C149.05 310.96 152.53 313.28 151.58 318.22C151.2 320.19 150.58 322.3 147.69 321.31C145.76 320.78 145.28 317.4 142.45 318.65Z" fill="#3F2919"/>
<path d="M146.75 96.59C144.36 96.17 143.05 93.54 142.2 91.86C141.3 90.07 144.13 90.94 145.33 90.59C147.68 89.9 148.59 87.4299 150.55 86.2199C151.45 85.6599 152.18 84.2298 153.44 85.4098C154.49 86.3898 153.83 87.5 153.33 88.57C151.76 91.95 148.27 96.44 146.75 96.59Z" fill="#412A19"/>
<path d="M183.52 147.35C183.52 151.56 183.52 155.76 183.52 159.97C183.52 161.29 183.65 163.01 181.55 162.24C179.33 161.43 177 160.06 177.92 157.23C179.06 153.72 180.8 150.4 182.27 146.99C182.69 147.11 183.11 147.22 183.53 147.34L183.52 147.35Z" fill="#3E2614"/>
<path d="M146.9 278.09C140.39 277.06 135.21 273.41 129.12 271.99C132.76 267.7 142.2 270.95 146.9 278.09Z" fill="#2E241D"/>
<path d="M162.02 58.9599C163.53 57.9499 161.41 55.36 163.84 55.06C164.48 54.98 165.35 55.6599 165.91 56.1999C167.67 57.9399 165.79 59.14 165.13 60.49C163.98 62.84 162.78 65.1599 161.14 68.4199C160.1 64.5899 159.31 61.5801 158.45 58.5901C158.02 57.0801 157.62 55.2601 159.49 54.8701C161.47 54.4601 160.68 56.74 161.27 57.73C161.51 58.13 161.76 58.5299 162.02 58.9499V58.9599Z" fill="#302317"/>
<path d="M122.64 127.52C120.95 127.23 119.48 126.97 118 126.74C116.66 126.53 114.44 127.2 114.87 124.83C115.19 123.04 115.98 120.84 118.78 121.46C120.24 121.78 121.72 122.03 123.18 122.35C125.28 122.8 128.57 123.33 128.32 125.31C128 127.82 124.6 127.11 122.63 127.52H122.64Z" fill="#3A261B"/>
<path d="M110.93 337.51C114.65 333.06 119.71 333.16 123.61 330.95C124.97 330.18 125.7 332.03 126.25 333.23C126.82 334.47 126.61 335.85 125.41 336.15C120.91 337.28 116.35 338.46 110.93 337.51Z" fill="#2C2020"/>
<path d="M168.25 80.1599C172.57 80.9399 176.13 83.47 180 85.27C181.29 85.87 180.71 87.2901 180.15 88.3401C179.61 89.3401 178.33 90.0399 177.72 89.3799C174.74 86.1499 170.05 85.8601 167.01 82.8601C166.4 82.2501 166.05 81.4599 166.52 80.6299C166.89 79.9699 167.58 79.9499 168.25 80.1599Z" fill="#2F1E1D"/>
<path d="M146.02 280.63C140.68 281.94 135.6 281.34 130.82 278.81C129.67 278.2 127.22 278.4 128.07 276.33C128.64 274.95 130.62 274.33 132.41 275.06C136.95 276.91 141.48 278.77 146.02 280.63Z" fill="#2E2217"/>
<path d="M153.67 55.77C154.81 55.73 155.12 56.6201 155.35 57.3301C156.57 61.1001 157.75 64.8801 159.79 68.3201C160.32 69.2101 160.26 70.3901 159.44 71.0801C158.38 71.9701 157.63 71.01 157.05 70.23C154.44 66.75 152.78 62.8001 151.69 58.6201C151.27 56.9901 152.34 56.22 153.67 55.76V55.77Z" fill="#33271B"/>
<path d="M157.4 273.58C156.35 268.7 156.84 264.45 156.62 260.26C156.5 257.93 158.27 258.21 159.69 258.03C160.94 257.87 162.44 258.06 162 259.64C160.77 264.09 161.15 269.11 157.4 273.57V273.58Z" fill="#3B2E24"/>
<path d="M106.45 346.48C111.69 348.11 115.56 351.9 119.66 355.35C120.73 356.25 120.42 356.99 119.62 357.81C118.81 358.64 118.09 359.67 116.8 358.42C113.04 354.81 109.25 351.24 105.48 347.65C105.81 347.26 106.13 346.87 106.46 346.48H106.45Z" fill="#2D2620"/>
<path d="M156.19 88.4299C157.41 93.7099 155.83 98.1099 156.73 102.41C156.98 103.6 155.71 103.67 154.63 103.16C151.08 101.49 149.99 97.66 152.2 94.24C153.31 92.52 154.51 90.8599 156.19 88.4299Z" fill="#372420"/>
<path d="M98.6498 82.5C98.6898 83.66 98.8299 84.82 98.7499 85.97C98.5699 88.76 97.0399 89.14 95.1899 87.48C92.9499 85.47 91.0799 83.9601 89.4499 89.3501C89.1099 86.2601 86.5999 84.4499 88.7499 82.8999C91.7999 80.7099 95.3299 79.8001 98.7399 82.6001C98.7399 82.6001 98.6498 82.51 98.6598 82.51L98.6498 82.5Z" fill="#342319"/>
<path d="M104.53 332.36C102.85 332.14 102.59 331.26 103.09 329.9C103.77 328.06 104.37 326.18 105.09 324.35C106.18 321.61 108.35 319.36 111.07 320.97C113.42 322.37 110.25 324.15 109.7 325.78C108.78 328.52 107.86 331.51 104.53 332.36Z" fill="#312A27"/>
<path d="M117.24 118.96C117.56 116.42 118.96 115.44 120.1 114.28C122.04 112.29 123.63 112.14 125.03 114.93C126.42 117.7 129.54 119.28 130.67 122.77C125.7 122.79 122.97 116.44 117.24 118.96Z" fill="#342115"/>
<path d="M103.43 321.26C102.47 324.19 101.63 326.67 100.86 329.18C100.57 330.13 100.49 331.56 99.31 331.37C95.17 330.73 97.24 326.79 96.04 324.52C95.44 323.4 94.7399 320.69 97.6799 321.16C99.5099 321.45 101.29 320.68 103.43 321.25V321.26Z" fill="#282022"/>
<path d="M154.35 297.49C154.78 295.27 153.45 291.43 155.66 291.28C159 291.05 157.6 295.06 158.17 297.2C158.67 299.09 158.51 301.16 158.57 303.15C158.6 304.3 158.73 305.88 157.36 306.1C155.63 306.37 155.37 304.57 155.11 303.37C154.69 301.43 154.58 299.43 154.35 297.49Z" fill="#3F3125"/>
<path d="M137.32 121.51C134.37 117.01 134.75 112.45 134.11 108.18C133.9 106.8 135.31 106.4 136.58 106.45C138.08 106.51 138.55 107.53 138.55 108.79C138.55 112.82 138.58 116.86 137.32 121.51Z" fill="#38261C"/>
<path d="M154.65 71.14C151.28 69.59 148.29 67.63 146.4 64.4C145.28 62.48 144.7 60.5602 147.03 59.3702C149.29 58.2102 149.77 60.6002 150.43 61.8602C151.99 64.8802 153.27 68.04 154.66 71.14H154.65Z" fill="#402A13"/>
<path d="M133.05 135.45C132.22 139.74 133.67 143.76 133.75 147.86C133.78 149.16 134.07 150.72 132.18 150.95C130.44 151.16 129.88 149.89 129.78 148.46C129.44 143.82 130.09 139.39 133.06 135.45H133.05Z" fill="#4D361C"/>
<path d="M126.27 149.98C125.04 147.8 121.03 147.36 121.44 146.67C123.21 143.67 124.43 140.07 128.05 137.7C129.39 142.21 126.63 145.83 126.27 149.98Z" fill="#382924"/>
<path d="M150.81 73.3001C148.06 73.5901 145.65 72.55 143.31 71.51C140.37 70.2 139.71 65.5801 142 63.3601C142.5 62.8701 143.63 62.6599 143.56 63.1599C142.88 68.7699 149.83 68.7401 150.81 73.3101V73.3001Z" fill="#3E2B19"/>
<path d="M119.28 88.33C118.24 86.74 116.11 88.54 115.78 86.56C115.6 85.47 116.41 84.5299 117.43 84.4299C119.84 84.1899 120.65 86.47 122.05 87.78C122.94 88.61 122.83 89.62 121.85 90.33C121.19 90.81 120.41 91.2599 119.62 91.4199C117.54 91.8499 115.63 93.3101 113.38 92.6101C112.6 92.3701 112.67 91.5999 112.97 90.9499C114.17 88.3399 116.78 88.8 119.28 88.33Z" fill="#482B17"/>
<path d="M136.95 229.59C137.91 230.67 138.76 231.63 139.54 232.51C139.44 233.93 138.35 233.59 137.68 233.86C135.9 234.58 134.24 234.49 133.76 232.32C133.23 229.96 134.76 227.76 134.66 225.29C134.6 223.89 136.47 224.34 137.5 224.9C138.9 225.65 140.95 226.04 140.63 228.21C140.3 230.46 138.32 228.25 136.95 229.6V229.59Z" fill="#563C23"/>
<path d="M155.84 326.42C154.47 327.45 154.69 328.77 155.46 329.92C156.99 332.19 155.89 333.94 154.58 335.71C154.28 335.73 153.98 335.69 153.7 335.57C151.9 335.23 151.43 331.01 148.55 333.79C147.44 332.61 147.81 331.18 147.8 329.78C147.79 328.3 147.01 327.83 145.64 328.51C144.79 328.7 144.44 328.4 144.67 327.53C144.65 327.23 144.6 326.94 144.51 326.66C144.49 324.91 145.16 323.64 146.93 323.12C147.51 323.64 148.08 324.17 148.66 324.69C150.01 326.54 151.83 326.2 153.66 325.73C154.48 325.66 155.25 325.7 155.83 326.41L155.84 326.42Z" fill="#5B3621"/>
<path d="M175.75 75.3502C173.51 75.8702 171.25 76.33 169.03 76.93C168.13 77.17 167.35 77.2299 166.9 76.3799C166.35 75.3499 166.69 74.42 167.73 73.89C170.38 72.54 172.98 71.0201 175.75 69.9901C178.16 69.0901 178.68 70.08 177.84 73.64C176.96 73.99 176.38 74.7002 175.76 75.3602L175.75 75.3502Z" fill="#3C271F"/>
<path d="M170.47 293.55C175.25 293.83 177.94 296.41 180.91 298.43C182.39 299.43 182.09 300.7 181.36 301.9C180.69 303 179.61 302.91 178.87 302.05C176.4 299.2 172.71 297.55 170.47 293.55Z" fill="#33221B"/>
<path d="M110.36 344.4C112.15 344.75 113.93 345.11 115.72 345.46C118.35 345.97 120.58 347.4 122.88 348.65C123.86 349.19 124.11 350.05 123.71 351.16C123.26 352.42 122.38 352.65 121.43 352.02C117.7 349.53 113.01 348.44 110.36 344.39V344.4Z" fill="#281F1D"/>
<path d="M190.31 69.8999C187.61 69.8199 185.44 68.64 185.27 66.05C185.15 64.21 187.41 63.6001 189.01 63.6201C191.38 63.6401 193.13 65.2599 193.56 67.4099C194.02 69.7299 191.89 69.7799 190.31 69.8999Z" fill="#412916"/>
<path d="M167.08 322.72C164.98 322.44 163.79 321.25 163.5 319.15C163.34 316.94 164.16 315.25 166.36 314.64C167.86 314.22 169.07 315.23 169.39 316.51C170 318.98 169.88 321.41 167.08 322.72Z" fill="#402418"/>
<path d="M186.99 53.3501C187.83 51.7501 183.54 51.06 186.13 49.57C187.88 48.56 189.02 50.6301 189.71 52.1101C190.36 53.5101 192.05 56.14 191.02 56.28C188.74 56.58 186.12 58.22 183.78 56.24C183.11 55.68 182.47 54.8799 182.96 54.1299C183.96 52.5899 185.68 53.6701 186.99 53.3401V53.3501Z" fill="#3B2510"/>
<path d="M184.65 58.78C186.88 60.16 191.97 57.8201 192.07 60.8701C192.19 64.5201 187.26 61.8901 184.76 63.1101C183.19 63.8701 181.49 62.7401 181.51 60.6201C181.52 58.7901 182.98 58.75 184.65 58.79V58.78Z" fill="#452A14"/>
<path d="M149.65 283.32C152.31 282.6 153.63 277.19 157.26 280.97C158.31 282.06 159.01 283.62 157.76 285.01C154.32 288.84 152.51 283.61 149.65 283.32Z" fill="#5B4831"/>
<path d="M107.74 335.23C110.79 331.61 114.37 329.47 118.18 327.66C119.24 327.16 120.67 326.93 121.22 328.16C121.82 329.53 120.52 330.09 119.41 330.54C115.66 332.05 112.28 334.46 107.74 335.23Z" fill="#3A2515"/>
<path d="M82.71 68.1399C85.58 70.6399 88.35 72.9 88.04 76.74C87.95 77.81 87.9601 79.3401 86.6201 79.6201C84.9301 79.9801 84.3101 78.1899 84.0701 77.1899C83.3701 74.2299 83.13 71.1599 82.71 68.1399Z" fill="#321E13"/>
<path d="M159.02 90.23C162.22 94.14 161.57 97.91 162.95 100.98C163.51 102.24 162.58 102.76 161.43 102.81C159.96 102.88 158.82 102.42 158.47 100.81C157.78 97.6501 158.47 94.6 159.02 90.23Z" fill="#372018"/>
<path d="M153.37 223.52C152.27 223.62 151.79 222.81 151.97 222.03C152.65 219 153.34 215.91 155.35 213.43C156.27 212.29 157.43 212.59 158.18 213.8C159 215.14 154.96 223.24 153.37 223.52Z" fill="#36261C"/>
<path d="M146.94 323.12C146.65 324.66 146 325.94 144.52 326.66C142.26 326.71 140.35 326.22 139.16 323.98C138.18 322.14 139.07 321.24 140.53 320.45C143.14 319.46 145.53 319.1 146.66 322.51C146.88 322.66 146.97 322.86 146.94 323.13V323.12Z" fill="#422B23"/>
<path d="M175.75 75.3501C175.91 74.1301 176.68 73.6499 177.83 73.6299C177.32 74.5299 176.01 75.5 178.01 76.21C180.13 76.96 180.93 78.4999 179.85 80.4199C178.73 82.4099 176.97 81.06 175.45 80.76C174.13 80.5 172.94 80.03 171.91 79.03C172.02 76.62 175.61 77.7401 175.74 75.3501H175.75Z" fill="#3E2818"/>
<path d="M152.23 77.4899C147.86 79.1199 144.44 77.08 140.93 76.37C140.14 76.21 139.78 75.22 139.99 74.32C140.23 73.28 141.02 73.0998 141.88 73.3798C145.21 74.4698 148.85 74.7899 152.22 77.4799L152.23 77.4899Z" fill="#402C16"/>
<path d="M159.47 105.05C162.61 104.43 165.72 105.43 168.73 104.22C169.53 103.9 170.38 104.1 170.64 105.13C170.96 106.37 170.08 107 169.17 107.32C165.52 108.63 162.27 107.88 159.46 105.06L159.47 105.05Z" fill="#372411"/>
<path d="M151.74 242.19C155.58 243.81 157.03 246.48 159.04 248.45C160.03 249.42 159.39 250.24 158.23 250.56C157.09 250.87 155.73 252.2 154.88 250.28C153.85 247.95 153.02 245.53 151.74 242.19Z" fill="#392D1F"/>
<path d="M139.82 393.62C139.92 390.33 136.77 388.7 135.54 385.32C138.44 386.49 140.64 386.6 141 383.09C141.11 382.04 141.95 381.18 143.09 381.91C144.22 382.63 143.77 383.67 142.94 384.36C139.88 386.88 140.76 390.33 140.68 393.56C140.39 393.56 140.1 393.58 139.82 393.62Z" fill="#B87C48"/>
<path d="M146.47 226.57C148.53 227.13 149.65 228.3 149.66 230.13C149.66 231.7 148.9 233.25 147.19 233.37C145.32 233.49 144.02 232.19 143.89 230.34C143.76 228.48 145.25 227.52 146.47 226.57Z" fill="#513B1F"/>
<path d="M135.22 125.7C137.12 125.68 138.19 126.76 138.29 128.34C138.41 130.37 136.74 131.18 135.06 131.36C133.44 131.53 131.93 130.43 131.71 129C131.34 126.56 134.01 126.73 135.23 125.7H135.22Z" fill="#4B3C37"/>
<path d="M170.66 388.35C170.59 385.65 171.89 382.78 169.69 380.34C170.31 380.05 170.94 379.76 171.56 379.47C172.08 382.1 173.92 383.24 176.63 383.68C174.94 386.12 173.03 388.05 170.82 389.72C170.77 389.26 170.72 388.81 170.67 388.35H170.66Z" fill="#CB9444"/>
<path d="M148.55 333.8C148.64 332.65 148.62 331.48 148.86 330.36C148.98 329.81 149.46 329.09 149.94 328.91C150.85 328.57 151.53 329.26 151.83 330.06C152.51 331.88 153.08 333.74 153.7 335.58C151.36 336.78 149.62 336.27 148.55 333.8Z" fill="#422B23"/>
<path d="M95.76 93.07C95.93 95.02 95.68 96.11 94.05 95.79C91.53 95.31 90.83 93.2901 90.51 91.1201C90.29 89.6301 91.5301 88.9099 92.6001 88.9999C95.4101 89.2299 95.3 91.75 95.76 93.06V93.07Z" fill="#3D261B"/>
<path d="M157.32 85.64C155.46 83.33 153.53 81.5202 155.55 78.8702C156.42 77.7202 157.85 77.2501 158.98 78.5301C161.62 81.5501 158.17 83.03 157.32 85.64Z" fill="#53422E"/>
<path d="M146.66 322.51C144.85 321.14 142.87 320.27 140.53 320.45C141.17 319.85 141.81 319.25 142.45 318.65C142.61 318.61 142.77 318.53 142.93 318.53C145.54 318.53 141.96 313.55 145.86 314.79C149.08 315.81 145.92 318.73 147.26 320.41C147.46 320.66 147.55 321.01 147.69 321.31C147.35 321.71 147 322.1 146.66 322.5V322.51Z" fill="#5B3621"/>
<path d="M144.67 327.53C144.99 327.86 145.32 328.18 145.64 328.51C147.01 330.44 146.92 332.63 144.68 333.19C142.59 333.71 140.99 331.65 140.82 329.61C140.57 326.61 143.04 327.62 144.67 327.53Z" fill="#37251C"/>
<path d="M242.84 211.57C241.89 211.87 240.93 212.18 239.98 212.48C238.27 209.06 239.96 206.24 241.6 203.41C241.88 203.79 242.15 204.18 242.43 204.56C244.25 205.74 244.12 207.95 245.06 209.59C244.93 210.94 244.36 211.79 242.85 211.57H242.84Z" fill="#2F2228"/>
<path d="M206.73 102.28C205.6 100.12 202.04 98.3499 205.62 95.4299C205.9 94.4299 203.84 93.4099 205.65 92.4199C207.7 95.5699 208.1 98.9901 207.4 102.61C207.01 102.84 206.79 102.73 206.73 102.28Z" fill="#221311"/>
<path d="M205.59 190.66C208.74 189.86 209.59 194.43 212.71 193.71C212.66 194.38 212.62 195.04 212.57 195.71C209.59 193.95 206.62 192.32 204.27 196.75C202.46 193.74 206.67 192.94 205.67 190.59L205.6 190.65L205.59 190.66Z" fill="#C7854A"/>
<path d="M220.48 334.46C221.82 335.82 223.6 333.43 225.2 335.41C223.41 337.11 221.54 338.87 219.73 340.59C217.33 339.79 221.31 337.45 218.57 336.88C219.21 336.07 219.85 335.26 220.48 334.45V334.46Z" fill="#876436"/>
<path d="M147.3 84.45C145.39 86.46 143.74 88.85 140.62 88.5C140.37 88.47 139.91 87.51 140.04 87.3C141.71 84.64 144.67 84.92 147.3 84.45Z" fill="#654616"/>
<path d="M149 81.3C146.69 81.79 144.64 82.2698 142.56 82.6598C141.62 82.8398 140.37 83.05 140.11 81.81C139.81 80.33 141.04 79.8099 142.24 79.7299C144.53 79.5699 146.81 79.62 148.99 81.3H149Z" fill="#4F3513"/>
<path d="M200.83 338.4C204.43 338.8 202.25 334.41 204.61 333.7C205.83 338.89 204.25 340.72 199.57 339.66C199.99 339.24 200.4 338.82 200.82 338.4H200.83Z" fill="#99643D"/>
<path d="M153.67 325.74C152.67 328.33 150.55 327.71 148.78 327.16C147.45 326.74 148.4 325.56 148.67 324.7C150.55 324.02 152.14 324.75 153.67 325.74Z" fill="#422B23"/>
<path d="M166.69 380.48C163.4 382.46 160.96 381.27 158.49 378.11C161.62 378.56 163.91 380.85 166.76 379.6C166.73 379.89 166.71 380.19 166.7 380.48H166.69Z" fill="#CB9444"/>
<path d="M176.31 53.27C175.84 56.82 173.83 56.1701 171.67 56.8701C173.39 55.5301 174.49 54.68 176.31 53.27Z" fill="#523621"/>
<path d="M73.8202 39.3701C72.2902 35.7601 70.0001 32.2999 71.7401 28.1699C73.2401 31.7599 74.8102 35.3201 73.8202 39.3701Z" fill="#632D35"/>
<path d="M189.31 25.3C192.33 28.68 191.32 31.75 192.35 34.28C192.69 35.13 192.72 36.4399 191.44 36.6699C190.07 36.9199 189.98 35.64 189.9 34.71C189.68 31.97 189.55 29.22 189.31 25.3Z" fill="#641319"/>
<path d="M180.17 16.3101C180.36 17.5901 180.48 19.21 178.91 18.91C176.87 18.52 177.63 16.15 177.04 14.71C176.59 13.62 176.84 11.8601 178.21 12.0001C180.89 12.2701 179.13 15.0701 180.18 16.3101H180.17Z" fill="#5F1D25"/>
<path d="M128.64 20.3601C130.27 23.4101 131.35 26.5401 130.33 30.6101C127.72 27.1601 128.78 23.6401 128.64 20.3601Z" fill="#592121"/>
<path d="M180.59 30C181.61 33.47 183.34 36.83 182.31 41.25C180.14 37.33 180.25 33.67 180.59 30Z" fill="#62151C"/>
<path d="M149.9 24.1899C147.74 23.2899 148.97 20.95 148.02 19.51C147.33 18.47 147.95 17.2999 149.1 17.3799C151.56 17.5499 150.48 19.96 151.15 21.29C151.75 22.49 151.23 23.5299 149.91 24.1799L149.9 24.1899Z" fill="#3A2225"/>
<path d="M140.67 26.26C140.15 25.59 139.75 25.2899 139.64 24.8999C139.11 23.0499 138.02 21.21 139.08 19.25C139.48 18.5 140.36 18.7901 140.69 19.3001C142.1 21.4801 142.24 23.7 140.66 26.25L140.67 26.26Z" fill="#521B27"/>
<path d="M159.44 24.55C157.8 21.06 157.05 18.59 158.44 15.03C160.21 18.18 161.25 20.55 159.44 24.55Z" fill="#5A1E23"/>
<path d="M108.19 22.6399C110.04 26.2899 111.33 28.54 109.99 31.96C107.85 29.34 107.34 26.9299 108.19 22.6399Z" fill="#531B22"/>
<path d="M99.9899 25.8401C100.23 26.0101 100.65 26.1501 100.69 26.3601C101.11 28.5701 103 30.32 102.73 32.72C102.71 32.87 101.67 33.17 101.54 33.02C99.78 30.99 99.6299 28.4601 99.9799 25.8501L99.9899 25.8401Z" fill="#641E25"/>
<path d="M169.63 20.9199C168.48 18.7799 167.24 16.6599 168.48 13.6299C170.49 16.1099 171.25 18.2899 169.63 20.9199Z" fill="#542121"/>
<path d="M90.55 27.9099C93.33 29.7699 92.9 32.51 93.04 36.02C90.36 33.29 90.63 30.5599 90.55 27.9099Z" fill="#4A1C1E"/>
<path d="M188.09 16.42C186.79 14.05 185.84 12.11 187.03 9.95C187.35 9.36 188.39 9.53996 188.71 10.15C189.74 12.12 190.31 14.15 188.09 16.41V16.42Z" fill="#46252E"/>
<path d="M81.9799 29.8301C83.7499 32.7401 84.5699 35.0399 83.7699 38.6899C81.7099 35.6899 81.2099 33.3201 81.9799 29.8301Z" fill="#631D20"/>
<path d="M119.22 22.1599C121.27 25.3799 120.8 27.7799 120.91 31.3899C118.57 28.0999 118.41 25.6999 119.22 22.1599Z" fill="#462523"/>
<path d="M206.73 102.28C206.92 102.45 207.15 102.56 207.4 102.6C207.56 104.53 209.21 106.19 208.42 108.29C208.19 108.39 207.97 108.5 207.74 108.6C203.32 105.06 203.22 104.45 206.73 102.27V102.28Z" fill="#ED9B44"/>
<path d="M126.68 63.31C128.95 63.55 130.51 59.6001 132.54 62.3601C133.33 63.4301 133.58 66.09 131.86 66.83C128.74 68.18 129.04 63.88 126.68 63.31Z" fill="#D7953A"/>
<path d="M109.89 63.64C112.58 62.94 114.17 61.89 115.84 62.92C116.64 63.41 115.97 64.5401 115.4 64.9701C113.51 66.4001 112.38 64.66 109.89 63.64Z" fill="#CE954E"/>
<path d="M125.44 58.03C125.34 56.03 125.98 54.94 128.02 55.3C128.7 55.42 129.51 55.9701 129.21 56.5801C128.46 58.1101 126.92 57.99 125.44 58.03Z" fill="#B17934"/>
<path d="M122.45 167.45C121.75 169.75 121.33 171.88 118.58 172.2C116.76 172.41 115.94 171.01 115.92 169.93C115.89 167.65 117.29 165.69 119.42 165.03C121.11 164.5 121.8 166.3 122.45 167.44V167.45Z" fill="#734439"/>
<path d="M111.44 144.54C112.06 144.98 113.68 145.44 113.36 145.45C109.64 145.64 115.05 149.1 112.15 148.79C110.74 148.64 109.07 147.21 108.9 145.63C108.72 143.98 110.34 144.39 111.43 144.54H111.44Z" fill="#A96C47"/>
<path d="M47.6398 390.11C47.2498 391.1 47.0298 392.23 46.4098 393.05C45.6898 394.01 46.51 395.78 44.82 396.08C44.45 396.15 43.81 395.76 43.59 395.4C42.46 393.56 44.6698 393.14 45.1798 391.98C45.5498 391.14 46.3699 390.49 46.9899 389.75C47.1999 389.86 47.4198 389.98 47.6298 390.09L47.6398 390.11Z" fill="#DEA967"/>
<path d="M46.4299 375.44C46.7599 373.8 46.6799 371.51 48.8799 371.86C51.1099 372.21 52.5001 373.97 49.0801 374.81C48.1901 375.03 47.9799 376.6 46.4299 375.45V375.44Z" fill="#C07C44"/>
<path d="M123.01 247.35C123.36 246.59 123.82 245.85 124.76 245.93C125.76 246.02 126.72 246.48 126.62 247.69C126.53 248.88 125.53 248.62 124.76 248.55C123.98 248.47 123.09 248.48 123.01 247.35Z" fill="#C7834D"/>
<path d="M100.54 303.74C101.32 301.36 101.83 299.69 104.06 300.26C104.56 300.39 105.32 301.28 105.23 301.64C104.7 303.92 102.64 302.84 100.54 303.74Z" fill="#CDA046"/>
<path d="M242.84 211.57C243.82 211.27 244.52 210.72 244.55 209.6C244.72 208.2 245.56 207.52 246.92 207.4C261.67 226.74 274.16 246.85 271.7 272.82C269.82 292.7 260.07 307.83 244.78 319.93C242.11 322.05 239.75 320.78 237.44 319.36C220.94 309.28 211.87 294.11 207.79 275.62C204.65 261.38 210.85 249.88 219.27 239.36C226.85 229.88 234.96 220.81 242.83 211.57H242.84Z" fill="#2F9F9B"/>
<path d="M147.74 416.45C147.89 415.82 147.94 415.15 148.21 414.58C149.18 412.57 144.16 410.75 147.79 409.08C149.39 408.34 151.8 409.36 153.84 409.58C151.07 411.21 150.55 414.85 147.74 416.45Z" fill="#C68449"/>
<path d="M246.92 207.39C246.13 208.12 245.34 208.86 244.55 209.59C239.37 209.8 243.41 206.11 242.42 204.55C243.13 204.16 241.83 200.45 244.42 203.27C245.48 204.43 246.1 206 246.92 207.39Z" fill="#6FD0D4"/>
<path d="M129.32 433.82C128.88 435.14 127.81 435.82 126.67 436.42C125.94 434.96 123.52 435.16 123.34 434.49C123 433.16 123.99 431.67 125.83 431.6C127.45 431.53 128.59 432.36 129.32 433.82Z" fill="#D18F42"/>
<path d="M130.85 424.57C130.74 425.6 130.39 426.73 129.28 426.76C127.84 426.8 127.57 425.47 127.48 424.32C127.4 423.18 127.96 422.38 129.19 422.53C130.29 422.66 130.89 423.41 130.84 424.58L130.85 424.57Z" fill="#956C4D"/>
<path d="M231.31 330.15C230.12 332.1 229.07 333.37 227.07 333.22C226.82 333.2 226.3 331.96 226.49 331.55C227.4 329.61 229.07 329.84 231.31 330.15Z" fill="#DFB053"/>
<path d="M126.41 367.23C125.64 365.6 124.93 364.05 126.65 362.88C126.97 362.66 128.07 362.97 128.31 363.35C129.8 365.73 126.48 365.56 126.42 367.23H126.41Z" fill="#AC6D47"/>
<path d="M210.48 220.19C208.59 220.92 206.84 221.04 205.59 219.29C205.15 218.68 205.95 218.08 206.52 217.85C208.74 216.95 209.92 217.94 210.47 220.19H210.48Z" fill="#BF7046"/>
<path d="M203.28 230.87C205.17 230.26 206.63 229.75 207.51 231.48C207.71 231.88 207.39 232.99 207.04 233.14C205.19 233.93 204.67 232.16 203.28 230.87Z" fill="#E6B363"/>
<path d="M120.32 317.9C122.8 316.33 124.21 316.61 125.47 317.9C125.59 318.02 125.49 318.6 125.32 318.73C123.63 320 122.42 318.69 120.33 317.9H120.32Z" fill="#B68045"/>
<path d="M121.63 306.37C121.56 307.21 121.08 308.01 120.51 307.8C119.25 307.34 118.57 306.13 118.32 304.87C118.26 304.55 119.19 303.66 119.64 303.68C121.4 303.73 121 305.51 121.63 306.38V306.37Z" fill="#E5A055"/>
<path d="M217.59 180.05C218.3 174.87 223.14 176.37 225.45 174.16C226.26 173.39 226.06 176.93 228.18 178.03C224.27 178.78 221.19 179.37 217.59 180.06V180.05Z" fill="#EDA54C"/>
<path d="M228.14 180.17C230.34 182.9 228.93 185.02 227.29 186.82C226.2 188.01 225.24 186.58 224.51 185.85C223.34 184.67 224.16 183.99 225.22 183.2C226.24 182.44 227.02 181.36 228.14 180.18V180.17Z" fill="#EA9C48"/>
<path d="M183.7 341.56C185.85 342.12 186.71 339.05 188.93 340.7C187.42 342.39 190.64 343.76 189.78 344.22C187.47 345.47 185.47 344.22 183.7 341.56Z" fill="#A06949"/>
<path d="M156.23 192.48C156.12 193.85 155.3 194.87 154.43 194.64C152.48 194.13 152.52 191.85 151.47 190.48C152.63 189.95 153.26 189.12 152.97 187.79C155.56 188.44 154.69 191.35 156.22 192.48H156.23Z" fill="#A36041"/>
<path d="M148.51 196.37C150.11 197.86 152.06 197.97 152.29 200.04C152.31 200.22 151.58 200.66 151.19 200.66C149.06 200.69 148.47 199.34 148.51 196.36V196.37Z" fill="#E99D55"/>
<path d="M175.63 185.59C179.31 182.23 182.02 178.63 178.64 173.51C181.09 174 183.38 177.5 186.46 173.86C183.45 177.21 181.51 180.77 180.43 184.96C179.92 186.94 177.18 184.48 175.64 185.59H175.63Z" fill="#F8B642"/>
<path d="M189.83 190.43C185.21 190.55 185.75 186.46 184.57 183.84C184.19 182.99 185.01 182.28 185.93 182.21C187.06 182.12 187.77 182.74 188.04 183.85C188.59 186.08 189.16 188.3 189.72 190.52L189.82 190.42L189.83 190.43Z" fill="#F8B642"/>
<path d="M180.66 362.44C178.56 363.72 179.18 365.45 179.93 367.16C180.32 368.04 182.31 368.9 180.55 369.79C179.03 370.57 177.9 368.54 176.48 368.02C178.12 365.66 175.93 361.2 180.61 360.51C181.31 361.13 181.28 361.77 180.67 362.43L180.66 362.44Z" fill="#9A6A44"/>
<path d="M180.66 362.44C180.64 361.8 180.62 361.16 180.6 360.52C184.46 356.24 185.13 361.81 188.19 362.5C185.03 364.24 182.83 363.57 180.65 362.44H180.66Z" fill="#EEAC3A"/>
<path d="M229.1 213.77C228.71 209.37 224.12 210.16 221.76 207.82C228.97 206.87 229.71 207.47 229.1 213.77Z" fill="#DCA04B"/>
<path d="M205.66 190.59C204.34 189.4 203.03 188.2 201.71 187.01C204.64 186.67 205.95 187.87 205.59 190.65L205.66 190.59Z" fill="#C7854A"/>
<path d="M206.62 320.41C205.37 318.07 204.48 315.28 200.46 315.95C204.43 313.54 201.45 309.25 203.74 306.58C204.75 309.14 204.9 312 208.83 312.72C210.01 312.94 211.5 317.51 210.95 319.59C210.2 322.45 212.6 321.88 213.56 323.64C211.34 323.54 209.53 323.92 208.8 321.33C208.49 320.22 208.13 318.81 206.61 320.42L206.62 320.41Z" fill="#EBA942"/>
<path d="M132.26 189.82C135.02 189.6 136.45 190.1 137.13 191.87C137.21 192.08 136.62 192.78 136.25 192.88C133.94 193.49 133.72 191.46 132.27 189.81L132.26 189.82Z" fill="#CF7C42"/>
<path d="M137.24 186.31C137.28 185.66 134.15 185.01 135.23 182.64C135.35 182.38 136.31 182.2 136.62 182.4C138.67 183.72 136.99 185.9 137.24 186.32V186.31Z" fill="#CB8B5E"/>
<path d="M92.2201 384.34C93.3601 384.42 94.69 384.37 94.64 386.01C94.61 386.95 93.7402 387.3 92.8702 387.36C91.6102 387.45 90.38 387.04 90.16 385.78C89.91 384.37 91.3401 384.58 92.2201 384.34Z" fill="#D18C4A"/>
<path d="M152.74 407.34C152.47 404.51 152.16 402.4 154 400.71C155.033 402.403 154.613 404.613 152.74 407.34Z" fill="#C68449"/>
<path d="M142.54 400.67C145.68 399.26 147.77 399.99 148.72 404.06C146.43 402.76 144.52 401.67 142.61 400.59L142.54 400.67Z" fill="#F8B642"/>
<path d="M130.66 79.4399C127.88 78.8599 126.37 78.5499 124.65 78.1899C126.35 76.6433 128.353 77.0599 130.66 79.4399Z" fill="#E0914D"/>
<path d="M68.55 387.82C66.74 386.2 65.11 385.65 64.98 383.53C66.51 384.19 68.67 384.08 68.55 387.82Z" fill="#C9955A"/>
<path d="M190.28 278.8C192.22 282.17 193.79 284.9 195.52 287.9C193.99 288.1 192.68 286.29 191.25 288.24C189.68 290.38 189.01 288.39 188.35 287.03C187.21 284.68 188.47 285.2 189.98 285.42C191.4 285.62 191.48 284.69 191.03 283.53C190.58 282.38 189.27 281.5 190.28 278.8Z" fill="#C07E4F"/>
<path d="M105.88 383.33C104.38 380.97 104.62 379.22 105.37 377.48C105.84 376.39 106.46 375.3 107.84 375.39C108.39 375.42 109.17 375.87 109.38 376.34C110.13 378 108.61 378.14 107.64 378.66C105.97 379.56 106.3 381.34 105.88 383.33Z" fill="#BC7B46"/>
<path d="M141.08 210.52C144.59 211.21 144.92 213 144.59 215.28C143.61 213.96 142.64 212.63 141.08 210.52Z" fill="#966A48"/>
<path d="M146.03 363.2C147.12 365.96 145.62 367.08 143.94 367.82C142.29 368.55 141.61 367.03 140.98 365.94C140.07 364.38 139.15 362.74 140.1 360.84C140.45 360.13 141.12 360.1 141.8 360.33C143.13 360.77 143.11 361.42 142.32 362.5C141.22 364.01 141.59 365.41 143.39 365.97C145.68 366.68 144.46 363.83 146.04 363.19L146.03 363.2Z" fill="#BD7C49"/>
<path d="M198.73 208.08C197.97 210.49 196.53 210.49 195.04 209.96C192.78 209.15 192.38 207.29 192.65 204.33C194.09 207.17 196.03 208.32 198.74 208.08H198.73Z" fill="#B16548"/>
<path d="M141.58 240.29C140.46 243.42 138.17 243.71 136.85 245.12C136.85 242.4 138.88 241.69 141.58 240.29Z" fill="#A67B59"/>
<path d="M135.3 159.66C134.98 161.15 133.5 160.63 132.62 161.15C131.98 161.53 131.26 161.13 131.21 160.44C131.1 158.91 132.27 158.72 133.45 158.63C134.29 158.57 135.04 158.63 135.31 159.66H135.3Z" fill="#A4654B"/>
<path d="M70.7399 365.73C72.0399 367.78 75.4798 369.24 72.6598 372.73C72.0298 373.51 71.0699 373.84 70.7299 372.91C69.8699 370.61 66.5999 368.27 70.7499 365.72L70.7399 365.73Z" fill="#AB6F4A"/>
<path d="M145.61 347.7C146.81 347.65 147.4 348.37 147.66 349.4C147.86 350.22 147.83 351.16 146.76 351.25C145.64 351.35 145.04 350.46 144.68 349.51C144.35 348.63 144.58 347.93 145.61 347.69V347.7Z" fill="#DA823F"/>
<path d="M183.14 217.48C185.3 217.93 187.65 218.01 188.49 220.27C188.81 221.11 187.75 221.73 186.92 221.84C183.65 222.29 184.38 219.01 183.14 217.48Z" fill="#AB6B3E"/>
<path d="M161.01 225.45C162.64 222.68 164.85 220.88 167.74 220.11C167.85 220.08 168.36 221.16 168.34 221.17C165.91 222.63 163.46 224.04 161 225.44L161.01 225.45Z" fill="#9D6E48"/>
<path d="M90.5 66.6899C91.89 66.3799 93.3001 63.49 94.3501 67.32C95.4301 71.3 95.8799 71.1799 92.3999 72.9299C95.0199 69.6199 92.66 68.3599 90.51 66.6999L90.5 66.6899Z" fill="#BA7B48"/>
<path d="M85.3201 400.19C85.4601 399.11 86.0801 398.32 87.0801 398.19C87.9701 398.07 89.1701 398.23 89.1201 399.48C89.0801 400.49 88.1699 401.17 87.1899 401.35C86.3399 401.51 85.6901 400.97 85.3101 400.19H85.3201Z" fill="#DD954E"/>
<path d="M172.95 287.86C176.75 286.85 178.35 288.39 179.33 291.17C177.46 290.2 175.58 289.23 172.95 287.86Z" fill="#C49150"/>
<path d="M206.48 167.37C206.24 168.46 205.43 168.47 204.64 168.23C203.74 167.96 202.69 167.65 202.78 166.41C202.84 165.53 203.45 164.87 204.36 165.01C205.63 165.2 206.08 166.3 206.48 167.37Z" fill="#C1743D"/>
<path d="M174.38 209.42C175.3 208.11 175.58 205.94 177.61 207.16C178.04 207.42 178.5 208.43 178.32 208.78C177.37 210.67 175.62 208.7 174.39 209.42H174.38Z" fill="#AA664B"/>
<path d="M96.57 409.78C95.45 409.73 94.93 409.14 94.8 408.26C94.64 407.16 95.14 406.14 96.1 405.83C97.03 405.53 97.46 406.51 97.61 407.32C97.81 408.38 97.44 409.25 96.57 409.78Z" fill="#D38E53"/>
</svg>
