<svg width="221" height="417" viewBox="0 0 221 417" fill="none" xmlns="http://www.w3.org/2000/svg">
<path d="M217.26 3.52L217.66 4.48C218.23 5.22 218.68 6.01 218.83 6.94C219.62 14.79 217.88 22.45 217.02 30.17C216.71 32.95 215.42 35.24 212.3 35.84C201.88 36.64 191.43 37.17 180.99 37.33C163.39 37.6 145.78 37.39 128.17 37.41C123.69 37.41 119.21 37.21 114.75 37.94C112.01 38.39 109.44 37.91 107.48 35.68C107.15 35.67 106.82 35.65 106.49 35.64C104.04 34.83 102.91 33.27 102.58 30.57C101.74 23.62 100.47 16.72 99.51 9.78C98.93 5.56 101.2 2.86 105.55 2.25C109.6 1.36 113.78 2.62 117.82 1.55C121.72 1.46 125.63 1.38 129.53 1.29C135.81 0.530001 142.11 1.18 148.4 0.940002C150.21 0.870002 152.05 1.3 153.81 0.559998C171.55 0.619998 189.29 0.629999 207.04 0.779999C210.61 0.809999 214.37 0.699999 217.25 3.53L217.26 3.52Z" fill="#B73845"/>
<path d="M107.49 35.67C123.08 35.59 138.67 35.56 154.26 35.43C173.68 35.26 193.1 35.01 212.51 34.79C213.97 35.97 214.16 37.64 214.06 39.31C213.32 51.56 212.44 63.79 212.28 76.07C212.26 77.57 211.91 79.04 211 80.29C210.12 81.37 208.84 81.75 207.57 82.1C204.8 82.85 203.42 84.69 203.41 87.5C203.4 90.12 205.17 91.21 207.39 91.86C208.66 92.23 209.91 92.67 210.81 93.76C212.38 95.94 212.62 98.49 212.3 100.95C210.95 111.4 211.61 121.88 211.4 132.35C211.37 134.02 211.31 135.68 210.72 137.26C210.1 138.97 208.48 139.56 207.1 140.46C201.82 143.92 201.97 148.06 207.47 150.84C208.66 151.44 209.92 151.88 210.54 153.21C211.85 156.75 211.27 160.44 211.38 164.06C211.67 173.66 210.65 183.3 212.43 192.85C212.67 194.16 212.54 195.5 211.93 196.73C206.54 201.68 200.06 205.16 194.3 209.64C187.19 215.16 180.22 220.65 174.68 227.94C168.48 236.09 167.59 244.57 171.55 253.72C176.06 264.13 181.34 274.11 188.71 282.85C190.21 284.63 191.92 286.32 191.36 288.99C189.59 292.81 186 295.04 183.39 298.12C178.25 303.05 173.08 307.95 168.39 313.33C147.97 335.18 132.28 360.68 113.81 384.03C107.32 392.23 100.66 400.4 91.77 406.3C90.12 407.4 88.53 408.68 86.45 408.93C83.49 408.66 81.98 406.28 80.05 404.51C70.03 395.32 60.47 385.58 49.36 377.63C38.82 370.09 27.99 363 16.7 356.61C15.02 355.66 12.89 355.16 12.43 352.81C14.59 346.8 19.47 342.75 23.43 338.13C36.42 323 50.26 308.58 62.81 293.1C74.2 279.07 86.98 266.07 96.22 250.33C97.02 248.96 97.85 247.33 99.82 247.15C100.19 246.81 100.57 246.48 101.04 246.33C109.27 243.7 109.5 243.32 107.52 235.33C116.28 221.09 116.11 205.29 115.49 189.42C120.2 183.21 120.19 183.09 114.77 176.39C114.11 163.05 115.1 149.66 113.68 136.34C117.39 131.39 117.38 130.31 113.58 124.37C114.33 113.02 110.53 101.94 111.59 90.58C114.93 85.86 114.44 81.42 110.63 77.22C109.7 73.83 109.22 70.37 109.54 66.87C110.52 56.35 106.86 46.14 107.48 35.65L107.49 35.67Z" fill="#F8C9B5"/>
<path d="M12.44 352.81C38.49 366.31 61.71 383.6 82.12 404.68C83.37 405.98 84.81 407.09 86.17 408.29C87.11 412.21 83.26 411.98 81.57 413.63C79.73 414.44 77.85 415.06 75.8 414.88C64.5 417.71 52.97 416.68 41.53 416.87C34.56 416.99 28.72 413.53 22.66 410.81C19.54 409.49 17.44 407.03 15.5 404.4C14.24 403.28 12.98 402.17 11.71 401.05C9.87998 400.79 8.73999 399.52 7.89999 398.1C2.12999 388.36 -1.13 378.15 2.54 366.78C3.72 363.14 5.28998 359.65 6.98998 356.24C7.89998 354.41 8.74998 352.17 11.55 352.46C11.83 352.63 12.12 352.76 12.44 352.82V352.81Z" fill="#C53E42"/>
<path d="M107.54 235.33C110.53 237.21 111.29 239.87 109.94 243.03C107.96 247.64 103.97 247.65 99.84 247.16C101.89 242.88 104.09 238.7 107.55 235.34L107.54 235.33Z" fill="#971325"/>
<path d="M114.78 176.4C118.5 177.29 120.97 179.25 120.81 183.47C120.67 186.91 118.91 188.89 115.51 189.43C113.82 185.17 114.85 180.76 114.79 176.4H114.78Z" fill="#97192B"/>
<path d="M110.64 77.23C113.68 77.66 115.3 79.49 115.54 82.47C115.82 85.91 115.37 89.08 111.6 90.59C110.54 86.19 110.45 81.72 110.64 77.23Z" fill="#971D31"/>
<path d="M113.59 124.38C118.58 126.95 119.59 132.7 115.76 136.49C114.92 137.32 114.34 136.89 113.69 136.35C113.66 132.36 113.62 128.37 113.59 124.38Z" fill="#A61A30"/>
<path d="M210.58 197.14C214.19 212.04 218.54 226.8 220.32 242.07C221.33 250.7 218.61 258.64 214.33 266.06C213.93 267.43 213.29 268.65 212.13 269.56C205.96 275.24 199.88 281.01 194.5 287.47C193.33 288.43 192.54 290.49 190.47 288.9C190.99 286.65 189.13 285.67 188 284.33C179.99 274.83 173.96 264.16 169.45 252.63C165.96 243.71 167.25 235.48 172.93 227.7C180.54 217.27 190.95 210.09 201.18 202.68C204.12 200.55 207.01 198.25 210.58 197.13V197.14Z" fill="#C33C3F"/>
<path d="M71.36 363.23C67.82 363.18 64.69 359.78 64.64 355.94C64.59 352.13 67.76 349.02 71.59 349.12C75.32 349.22 78.39 352.46 78.35 356.27C78.31 360.02 75.03 363.29 71.35 363.24L71.36 363.23Z" fill="#961C2C"/>
<path d="M134.4 213.43C134.21 217.5 131.24 220.06 127.09 219.74C123.16 219.43 120.35 216.22 120.84 212.25C121.34 208.22 123.66 206.03 127.9 206.21C131.88 206.38 134.59 209.37 134.4 213.43Z" fill="#A01929"/>
<path d="M49.8 337.7C49.7 341.42 46.31 344.52 42.55 344.31C38.93 344.11 35.75 340.95 35.84 337.62C35.93 334.13 39.58 330.48 42.92 330.54C46.46 330.6 49.89 334.18 49.8 337.7Z" fill="#881522"/>
<path d="M173.07 204.4C177.03 204.34 180.49 207.67 180.32 211.6C180.15 215.56 177.75 217.57 173.95 217.84C170.05 218.12 166.9 215.09 166.8 211.2C166.7 207.27 169.29 204.45 173.07 204.4Z" fill="#9B1728"/>
<path d="M190.74 160.84C194.68 161.25 197.2 162.96 197.24 167.05C197.28 171.09 193.81 174.59 189.99 174.21C186.33 173.85 183.74 172.03 183.64 167.96C183.54 163.93 186.89 160.73 190.74 160.83V160.84Z" fill="#911726"/>
<path d="M150.59 325.01C150.5 329.38 147.77 332.42 144.08 332.28C140.74 332.15 137.88 328.84 137.86 325.07C137.83 321.13 140.84 318.04 144.7 318.02C148.57 318.01 150.68 320.51 150.59 325.01Z" fill="#A31B2C"/>
<path d="M89.29 328.27C88.8 331.82 86.44 333.58 82.52 333.53C78.44 333.47 75.58 330.85 75.68 327.23C75.78 323.39 78.65 320.35 82.15 320.38C86.06 320.41 89.41 323.89 89.3 328.28L89.29 328.27Z" fill="#9A1A29"/>
<path d="M107.34 268.79C111.17 268.84 113.72 271.58 113.63 275.55C113.54 279.66 110.67 282.57 106.76 282.35C102.77 282.12 100.84 279.68 100.66 275.89C100.47 271.87 103.54 268.74 107.33 268.79H107.34Z" fill="#9D1828"/>
<path d="M166.05 84.14C165.94 87.73 162.44 90.73 158.45 90.41C154.59 90.1 152.31 88.09 152.52 83.95C152.72 79.86 155.71 77.04 159.63 77.2C163.23 77.35 166.16 80.52 166.05 84.14Z" fill="#98172B"/>
<path d="M191 103.51C194.89 103.41 197.57 106.01 197.6 109.91C197.64 113.89 194.74 116.9 190.84 116.92C187.26 116.94 184.51 113.99 184.5 110.12C184.49 106.27 187.11 103.61 190.99 103.51H191Z" fill="#99182A"/>
<path d="M146.93 284.85C146.93 281.18 149.95 278.22 153.61 278.28C157.35 278.34 160.57 281.68 160.44 285.37C160.3 289.11 157.45 291.63 153.46 291.52C149.67 291.42 146.92 288.61 146.93 284.85Z" fill="#981828"/>
<path d="M161.02 123.75C164.72 123.71 167.36 126.52 167.4 130.54C167.44 134.25 164.56 137.2 160.85 137.24C157.11 137.28 154.05 134.34 154.11 130.77C154.18 126.81 157.15 123.79 161.02 123.75Z" fill="#A0192A"/>
<path d="M136.48 256.62C132.8 256.58 129.83 253.65 129.82 250.07C129.82 246.34 132.78 243.36 136.36 243.49C140.32 243.64 143.6 246.8 143.43 250.3C143.25 253.81 140.12 256.66 136.48 256.62Z" fill="#9E1A29"/>
<path d="M196.49 61.86C196.34 64.56 193.93 66.45 189.85 66.5C185.81 66.55 183.21 64.11 183.14 60.27C183.06 56.24 185.91 53.3 189.84 53.36C193.89 53.42 196.55 56.19 196.5 61.87L196.49 61.86Z" fill="#8F162D"/>
<path d="M164.47 178.85C164.45 182.94 161.7 185.61 157.58 185.55C153.75 185.5 151.18 182.85 151.15 178.92C151.12 174.88 153.92 172.2 158.06 172.29C162.01 172.38 164.49 174.92 164.47 178.85Z" fill="#9B1628"/>
<path d="M112.13 305.01C116.1 305.11 118.9 308.13 118.7 312.09C118.52 315.59 115.3 318.45 111.72 318.28C108.12 318.11 105.18 314.97 105.31 311.44C105.43 307.95 108.66 304.92 112.14 305.01H112.13Z" fill="#951729"/>
<path d="M138.44 59.95C138.37 63.71 135.56 66.36 131.64 66.38C127.75 66.4 125.12 63.71 125.17 59.76C125.22 55.86 127.89 53.32 131.87 53.37C135.83 53.42 138.51 56.11 138.44 59.95Z" fill="#9A182B"/>
<path d="M109.03 359.69C105.39 359.67 102.61 356.79 102.56 353C102.51 349.34 105.38 346.39 109.02 346.35C112.67 346.31 115.75 349.2 115.83 352.75C115.92 356.58 112.84 359.71 109.03 359.7V359.69Z" fill="#961729"/>
<path d="M77.1 299.67C73.2 299.37 71 297.19 70.8 293.37C70.61 289.68 74.17 286.26 77.66 286.4C81.28 286.55 83.96 289.56 83.86 293.35C83.76 297.11 80.87 299.82 77.1 299.67Z" fill="#9D1927"/>
<path d="M103.59 386.21C103.66 390.35 100.85 393.93 97.34 393.81C93.35 393.67 91.39 391.23 91.15 387.39C90.9 383.3 93.75 380.28 97.72 380.34C101.57 380.4 103.47 382.42 103.59 386.21Z" fill="#A01B2D"/>
<path d="M136.45 154.2C136.43 158.25 133.73 160.7 129.4 160.76C125.21 160.82 123.95 158.24 123.93 154.71C123.91 150.66 126.53 148.03 130.3 148.05C134.19 148.07 136.47 150.35 136.45 154.21V154.2Z" fill="#9F1525"/>
<path d="M131.45 100.48C134.87 100.86 137.01 102.99 136.93 106.98C136.85 110.92 134.75 113.19 130.76 113.36C127.14 113.52 124.37 110.76 124.36 107.2C124.36 103.49 127.34 100.43 131.45 100.48Z" fill="#961426"/>
<path d="M209.39 138.29C210.91 143.1 210.94 147.91 209.37 152.71C203.47 152.08 201.39 150.32 201.39 145.94C201.39 141.59 204.11 138.98 209.39 138.29Z" fill="#A91D2F"/>
<path d="M209.56 80.61C211.24 84.96 211.01 89.3 209.53 93.64C206.37 93.56 203.11 93.52 201.63 90C200.6 87.56 201.18 85.2 202.62 83.01C204.33 80.42 206.8 80.14 209.55 80.62L209.56 80.61Z" fill="#931528"/>
<path d="M211.98 268.4C206.68 275.43 200.33 281.41 193.48 286.88C198.81 279.88 205.08 273.82 211.98 268.4Z" fill="#644141"/>
</svg>
