<svg width="276" height="468" viewBox="0 0 276 468" fill="none" xmlns="http://www.w3.org/2000/svg">
<path d="M200.89 9.55013C201.35 28.3401 203.23 47.01 205.52 65.65C204.7 66.53 206.12 68.5501 203.94 68.7301C201.95 67.5001 201.93 65.43 201.74 63.45C201 55.84 199.79 48.29 198.86 40.71C198.47 37.54 197.31 36.65 194.34 37.69C171.82 45.62 148.13 48.46 124.94 53.44C111.29 56.37 97.5399 58.84 83.6999 60.69C82.2099 60.89 80.7399 61.1701 79.2399 61.0101C70.7599 61.5001 67.8399 56.3201 66.1999 49.0301C64.9499 43.4801 63.16 37.9701 60.61 32.8001C57.19 27.5401 61.2999 27.22 64.7299 26.7C96.2499 21.89 127.37 14.98 158.55 8.46004C169.26 6.22004 179.99 3.99997 190.62 1.38997C197.82 -0.380025 200.32 1.13014 200.89 9.56014V9.55013Z" fill="#26394C"/>
<path d="M91.6298 461.48C90.7698 461.83 89.8999 462.17 89.0399 462.52C78.0999 464.82 67.1598 466.92 55.9098 467.03C42.5998 467.16 29.5299 466.08 17.1999 460.51C8.94986 458.05 5.98991 450.94 2.74991 444.08C0.299907 434.65 0.869878 425.43 4.71988 416.44L4.67984 416.52C5.89984 413.62 7.4599 410.88 8.7399 408L10.1999 405.53C13.8099 402.35 16.4898 398.36 19.4298 394.62C21.4198 392.07 23.9499 390.28 26.4899 388.44C28.6699 386.86 30.7499 387.96 32.4899 389.15C42.1799 395.78 53.1399 400.61 61.2699 409.45C62.0599 410.31 63.1098 410.86 64.1498 411.39C68.2398 414.9 72.9299 417.81 75.7299 422.65C78.4399 427.46 81.7098 431.92 84.6498 436.59C84.9198 436.99 85.14 437.42 85.33 437.85C88.74 443.35 91.6499 449.09 93.7299 455.23C94.5899 457.77 95.5098 460.46 91.6498 461.49L91.6298 461.48Z" fill="#D3425A"/>
<path d="M83.8999 437.46C80.1999 433 76.5599 428.5 74.4199 423.02C72.7899 418.79 73.3201 414.3 72.8101 409.93C71.0601 394.93 63.1599 383.79 50.6499 375.67C48.7099 374.41 46.5099 374.66 44.4299 374.22C43.9599 374.01 43.64 373.67 43.47 373.19C61.29 358.96 76.4999 342.21 90.6699 324.44C90.8499 324.63 91.03 324.82 91.21 325.01C92.09 327.59 90.6501 329.58 89.3301 331.44C87.4601 334.08 87.6001 336.57 88.8201 339.41C92.0601 346.9 94.8701 354.55 97.3101 362.35C101.69 376.39 101 390.62 99.45 404.92C99.27 406.58 98.95 408.47 96.96 408.83C95.02 409.18 93.9799 407.58 93.1299 406.14C89.3299 399.74 87.6199 392.59 85.9299 385.46C84.4599 379.3 82.99 373.15 80.71 367.23C79.07 362.96 76.3899 359.41 73.1899 356.16C71.0999 354.04 69.3201 353.91 67.3301 356.15C66.5601 357.02 65.7401 357.87 64.8501 358.61C61.8901 361.11 61.97 363.18 65.02 365.81C78.42 377.38 83.05 393.01 84.53 409.85C85.23 417.8 84.2401 425.83 85.0701 433.81C85.2101 435.15 85.0499 436.49 83.8899 437.46H83.8999Z" fill="#262F3F"/>
<path d="M90.6599 324.45C96.0299 315.38 101.48 306.36 104.69 296.18C108.19 285.07 109.85 273.67 110.77 262.11C110.98 259.48 111.31 256.86 111.58 254.24C112.64 254.51 113.29 255.62 114.48 255.64C116.81 255.76 118.96 254.77 121.22 254.55C122.99 254.37 124.82 253.99 126.17 255.69C126.89 261.32 124.38 266.45 123.67 271.87C121.23 290.5 122.78 308.73 128.39 326.64C129.23 329.34 130.06 332.06 130.5 334.86C130.7 336.18 130.85 337.74 129.5 338.46C128.2 339.16 126.91 338.3 125.83 337.5C123.5 335.8 121.9 333.47 120.31 331.11C113.6 321.12 110.33 309.77 107.31 298.36C107.18 298.96 107.54 298.02 107.24 298.59C102.76 307 105.51 315.28 107.27 323.75C111.41 343.63 113.82 363.83 118.29 383.66C118.99 386.78 119.88 391.34 116.24 392.61C112.01 394.09 110.77 389.36 109.07 386.47C105.22 379.93 103.32 372.66 101.39 365.41C97.8099 351.92 94.12 338.46 91.04 324.84C90.91 324.71 90.7799 324.58 90.6599 324.44V324.45Z" fill="#25303F"/>
<path d="M64.0701 413.06C54.3901 404.7 43.4201 398.21 32.8201 391.15C28.6501 388.37 25.7099 388.66 22.6499 392.41C19.8199 395.88 16.8401 399.22 13.8501 402.54C12.8001 403.71 12.2899 405.62 10.1899 405.52C16.6299 395.48 25.35 387.61 34.48 380.16C37.42 377.76 40.47 375.52 43.47 373.2C43.63 373.37 43.78 373.54 43.95 373.71C49.12 377.4 52.1 382.83 54.95 388.21C58.59 395.09 60.7501 402.65 64.0601 409.71C64.5601 410.77 64.7401 411.94 64.0701 413.05V413.06Z" fill="#242E42"/>
<path d="M60.6101 32.79C62.5401 32.1 62.3101 33.8699 62.5901 34.7199C64.5501 40.6699 66.59 46.5998 68.23 52.6398C69.35 56.7798 70.9699 59.59 75.9399 58.62C76.7799 58.46 77.78 59.1098 78.71 59.3798C78.29 60.6298 77.1901 61.12 76.1201 61.55C73.9201 62.44 73.6901 63.9799 74.3601 65.9999C78.4101 78.1599 81.8 90.53 85.46 102.82C86.24 105.43 87.56 106.84 90.5 106.3C91.97 106.03 93.51 106.13 94.76 107.22C95.04 107.65 95.1401 108.12 95.0601 108.62C94.8301 109.07 94.5799 109.67 94.1499 109.76C88.2799 111.1 89.02 114.74 90.5 119.12C94.28 130.33 96.89 141.87 100.02 153.27C100.14 153.77 100.21 154.28 100.27 154.79C102.04 161.67 103.63 168.59 105.54 175.43C106.12 177.5 106.68 179.6 105.68 181.72C105.4 182.21 104.99 182.54 104.46 182.72C99.98 165.78 95.9299 148.71 90.9299 131.93C81.4299 100.07 71.3901 68.38 61.5901 36.61C61.2001 35.35 60.9401 34.0599 60.6201 32.7799L60.6101 32.79Z" fill="#322C27"/>
<path d="M113.03 258.37C111.3 257.44 111.93 255.67 111.58 254.25C112.46 230.09 110.01 206.26 104.45 182.74L104.74 182.58C108.05 182.94 108.17 185.69 108.78 188.03C114.2 208.96 115.39 230.3 114.8 251.8C114.74 254.16 114.68 256.47 113.03 258.37Z" fill="#482023"/>
<path d="M17.2 460.51C22.83 460.99 27.7599 463.9 33.3799 464.78C50.1399 467.39 66.6799 466.54 83.1699 463.08C85.1499 462.66 87.06 462.41 89.05 462.53C73.13 467.72 56.77 468.3 40.25 467.1C34.27 466.66 28.4199 465.44 22.6899 463.66C20.8599 462.61 19.03 461.56 17.21 460.51H17.2Z" fill="#4C2125"/>
<path d="M4.72005 416.44C5.10005 419.51 3.46009 422.17 2.76009 424.99C1.17009 431.42 2.80009 437.73 2.76009 444.08C-0.909913 434.56 -0.029942 425.36 4.73006 416.44H4.72005Z" fill="#4C2326"/>
<path d="M8.72998 407.99C8.54998 411.39 6.72992 414.01 4.66992 416.51C4.98992 413.18 6.74998 410.53 8.72998 407.99Z" fill="#242E42"/>
<path d="M91.0501 324.85C94.0701 326.53 93.8999 329.86 94.6499 332.5C98.5399 346.2 102.06 360 105.84 373.73C107.39 379.34 109.63 384.7 112.87 389.57C113.62 390.69 114.28 392.73 116.03 392.02C117.62 391.38 117.26 389.36 117.01 387.99C115.58 380.16 114.02 372.35 112.48 364.54C108.92 346.48 107.24 328.06 102.11 310.29C101.14 306.93 103.7 304.34 104.57 301.39C105.41 298.55 106.33 295.73 107.47 292.1C112.35 309.01 115.78 325.96 129.18 338.15C126.93 328.61 123.86 319.3 122.3 309.65C119.35 291.39 119.27 273.3 126.05 255.7C126.41 255.32 126.85 255.17 127.37 255.23C129.68 256.54 129.33 258.88 129.58 260.97C130.27 266.92 130.84 272.88 131.77 278.8C133.56 290.22 139.02 299.4 148.23 306.37C149.67 307.46 150.99 308.7 152.54 309.86C147.26 300.1 141.88 290.54 138.26 280.14C135.3 271.64 132.76 263.05 133.88 253.85C134.13 253.39 134.47 253.02 134.89 252.72C144.91 250.43 155.22 249.77 165.22 247.23C170.28 245.95 171.53 247.4 171.65 252.51C172.19 275.8 180.02 296.1 196.31 312.97C197.51 314.22 199.51 315.5 198.48 317.54C197.56 319.36 195.33 319.49 193.55 319.16C188.02 318.12 182.6 319.29 177.15 319.69C174.33 319.9 171.88 319.46 169.77 317.48C159.96 308.26 155.09 296.99 156.02 283.5C156.46 277.19 157.44 270.92 159.8 264.96C150.35 278.98 149.35 287.87 155.23 303.53C156.99 308.21 160.18 311.73 163.56 315.22C167.17 318.95 166.71 320.84 161.87 322.86C158.49 324.27 154.91 325.14 151.58 326.7C140.24 332.02 131.3 339.52 128.86 350.29C150.5 326.87 179.3 319.97 212.59 323.58C206.52 317.87 201.94 311.83 197.73 305.47C186.79 288.97 183.57 270.88 186.37 251.54C186.89 247.96 187.29 244.17 190.74 241.82C191.2 241.52 191.69 241.33 192.22 241.21C203.36 239.7 203 239.73 203.81 250.77C204.89 265.53 206.82 280.27 210.31 294.64C213.8 309.03 223.03 319.93 234.33 329.16C236.04 330.56 238.59 331.53 237.73 334.58L231.71 340.36C230.28 342.99 228.07 344.86 225.63 346.48L225.71 346.43C223.74 348.23 221.69 347.33 219.65 346.61C215.4 345.11 211.47 342.93 207.43 340.98C189.31 332.23 172.36 334.22 156.55 346.51C147.21 353.77 140.19 362.96 134.94 372.62C135.32 372.01 135.93 370.65 137.09 369.65C138.35 368.56 139.53 367.36 140.93 366.48C154.31 358.08 168.5 353.37 184.5 357.12C189.35 358.26 194.11 359.78 199.03 360.62C200.48 360.87 202.02 361.14 202.73 362.77C203.7 364.15 206.16 362.81 206.7 364.96C202.39 372.24 200.32 373.39 192.15 371.93C176.47 369.14 161.48 371 147.11 377.98C153.33 377.07 159.61 377.57 165.87 376.79C172.27 375.98 178.8 376.58 185.27 376.56C187.26 376.56 189.29 376.45 191.14 377.34C192.74 378.11 193.68 379.14 191.67 380.57C191.06 381.24 190.44 381.9 189.83 382.57C186.74 388.85 184.91 389.6 178.78 387.88C155.28 381.28 133.87 385.71 114.16 399.92C103.39 407.69 96.3799 418.12 91.1699 430.03C90.2999 432.01 89.61 434.1 88.2 435.76C87.09 437.07 86.02 438.95 83.77 437.41L83.8899 437.47C82.3799 431.06 82.84 424.55 82.95 418.07C83.13 407.64 81.3601 397.55 77.8301 387.75C74.5301 378.59 69.39 370.77 61.18 365.33C58 363.22 58.22 361.56 61.01 359.48C62.07 358.69 62.9599 357.67 63.9199 356.74C68.2133 352.567 72.4033 352.603 76.49 356.85C82.89 363.54 84.64 372.24 86.71 380.79C88.77 389.34 90.63 397.95 94.71 405.85C95.21 406.82 95.92 407.68 97.43 409.92C97.85 397.63 99.9201 386.93 98.3301 376.06C96.5101 363.63 92.2099 351.96 87.1499 340.58C85.3099 336.44 84.7201 332.99 88.3101 329.52C89.5601 328.31 90.1601 326.43 91.0501 324.85Z" fill="#FCFAF8"/>
<path d="M257.25 226.44C265.38 239.39 273.17 252.5 275.19 268.08C277.32 284.48 274.35 299.44 262.87 312.05C256.27 319.3 249.46 326.32 241.65 332.3C235.09 331.77 230.91 327.03 226.98 322.85C220.4 315.85 215.06 307.81 211.73 298.6C208.13 288.62 208.83 278.75 212.32 268.96C215.26 260.75 219.59 253.37 225.49 246.87C227.83 244.29 229.38 241.07 228.96 237.32C228.92 235.93 229.94 234.82 229.98 233.43C230.11 232.94 230.34 232.52 230.64 232.12C236.82 228.26 243.8 227.05 250.83 226C252.97 226.11 255.19 224.98 257.23 226.45L257.25 226.44Z" fill="#263645"/>
<path d="M83.78 437.41C86.39 438.24 86.2301 435.75 86.8701 434.58C90.1101 428.62 92.4401 422.19 96.1001 416.43C113.12 389.66 148.3 376.47 178.93 386.16C184.51 387.93 187.08 386.44 189.83 382.56C191.83 383.63 190 384.5 189.5 385.03C181.63 393.54 174.35 402.62 165.64 410.34C164.55 411.31 163.66 413.08 161.75 411.61C158.8 413.88 155.48 414.95 151.76 415.58C135.99 418.25 126.21 427.95 121.04 442.72C120.56 444.09 119.92 445.54 120.89 447C121.03 447.45 120.97 447.88 120.69 448.26C113.01 452.2 106.07 457.66 97.3899 459.55C97.3399 459.21 97.25 458.75 97.45 458.59C102.75 454.44 102.75 448.29 103.72 442.44C107.82 417.65 129.32 401.76 154.21 405.05C155.69 405.25 157.19 405.38 158.66 405.61C163.17 406.31 166.74 404.97 169.7 401.45C172.02 398.7 174.88 396.41 177.76 393.02C151.69 395.47 127.49 399.79 109.26 420C100.16 430.08 95.5799 441.4 96.1799 454.89C96.2499 456.55 96.4601 458.24 95.0801 459.56C94.9301 462.02 93.2201 461.65 91.6101 461.48C94.4701 459.72 93.0199 457.38 92.1699 455.43C89.4999 449.36 86.58 443.4 83.76 437.4L83.78 437.41Z" fill="#262F3F"/>
<path d="M202.73 362.75C195.89 362.27 189.45 359.69 182.75 358.7C162.52 355.68 145.31 361.21 132.53 377.95C132.14 378.46 131.72 378.95 131.25 379.53C129.94 378.71 130.63 377.7 130.95 376.99C138 361.25 148.23 348.06 163.45 339.62C177.97 331.56 192.95 331.95 207.92 339.11C213.7 341.87 219.09 345.68 225.71 346.44C224.96 348.92 223.1 350.13 220.73 350.76C219.84 350.2 218.76 350.47 217.84 350.1C203.58 344.23 189.33 344.62 176.35 349.89C181.27 349.09 186.39 349.77 196.46 352.98C202.13 354.78 207.72 356.89 213.73 357.4C213.34 361.08 209.69 363.8 206.6 362.92C205.39 362.58 204.02 362.81 202.72 362.78L202.73 362.75Z" fill="#25313E"/>
<path d="M95.1002 459.56C92.9302 446.87 95.1801 435.15 103 424.74C115.56 408.01 132.32 398.12 152.84 394.59C162.29 392.96 171.76 391.32 182.99 390.49C176.94 396.76 172.27 402.61 166.54 407.12C163.62 409.42 158.8 407.64 154.94 407.05C135.91 404.16 121.56 411.36 111 426.98C106.98 432.92 105.32 439.8 104.93 446.72C104.59 452.63 103.09 457.11 97.41 459.53C96.65 460.22 95.8702 459.98 95.1002 459.55V459.56Z" fill="#FDFCFA"/>
<path d="M230.73 233.79C230.71 233.96 230.7 234.14 230.72 234.31C226.97 238.27 221.67 237.96 216.96 239.18C209.71 241.06 209.75 240.94 209.62 248.28C209.5 254.72 210.18 261.2 208.85 267.55C211.93 256.29 218.99 247.32 226.06 238.37C227 237.18 228.34 236.44 229.98 236.56C232.49 243.16 227.9 247.17 224.34 251.38C214.06 263.5 209.17 277.51 212.02 293.07C213.57 301.53 218.34 309.14 223.69 316.32C228.69 323.03 235.09 327.65 241.66 332.3C240.36 333.07 240.01 335.49 237.74 334.57C231.21 328.55 224.33 322.9 218.7 315.95C210.65 306.02 207.38 294.27 205.77 281.96C204.11 269.28 201.61 256.69 201.57 243.84C201.57 241.37 200.56 241.09 198.55 241.61C196.31 242.19 194.1 243 191.71 242.69C191.51 239.96 193.71 239.41 195.51 239C205.15 236.79 214.56 233.59 224.41 232.31C226.72 232.01 229.04 231.52 230.73 233.79Z" fill="#232D3B"/>
<path d="M204.57 68.8101C204.89 67.7601 205.2 66.6999 205.52 65.6499C208.7 99.3399 216.09 132.13 226.52 164.28C226.72 164.91 226.78 165.58 226.9 166.23C226.75 166.41 226.6 166.59 226.45 166.78C223.85 166.45 221.87 164.78 220.06 163.21C217.71 161.18 215.65 158.91 212.77 157.44C210.48 156.27 209.95 153.84 210.64 151.37C211.21 149.3 212.57 147.79 214.8 147.65C217.58 147.48 219.21 148.98 219.66 151.34C216.76 144.03 215.54 135.79 212.12 128.24C212.68 122.8 210.51 117.78 209.44 112.63C207.86 105 206.11 97.3999 205 89.6799C204.44 85.7899 202.71 84.98 199.24 86.25C188.77 90.09 177.91 92.52 167.05 94.96C164.63 95.5 162.24 96.3499 159.7 95.6699C158.32 95.2399 157.51 94.19 156.78 93.05C155.03 88.85 154.59 84.3599 154.11 79.8999C153.9 77.9199 153.86 75.5501 155.96 74.5901C157.85 73.7301 159.41 75.3401 160.75 76.5601C163.83 79.3701 166.78 82.3101 169.36 85.5901C170.96 87.6201 172.8 88.5299 175.43 87.9099C180.94 86.5999 186.38 85.09 191.73 83.2C194.83 82.1 195.8 80.2301 195.14 77.0901C194.7 74.9801 194.41 72.8099 194.34 70.6499C194.2 66.1199 196.21 64.94 200.23 66.95C201.63 67.64 202.53 69.6001 204.56 68.8101H204.57Z" fill="#29242B"/>
<path d="M120.55 446.98C119.79 447.32 119.04 447.66 118.28 448C118.87 432.07 134.23 416.12 151.56 413.75C155.04 413.27 158.32 412.1 161.76 411.6C159.16 415.88 154.65 418.37 151.72 422.34C150.07 424.95 148.14 427.28 145.16 428.47C143.98 428.63 143.29 429.41 142.74 430.37C141.5 432.65 139.71 434.36 137.38 435.51C134.91 437.48 132.43 439.45 129.96 441.41C126.81 443.25 124.3 446.17 120.54 446.98H120.55Z" fill="#FDF9F9"/>
<path d="M191.67 380.55C193.39 378.78 192.4 378.45 190.6 378.51C174.33 379.08 157.97 377.93 141.86 381.31C141.56 381.37 141.22 381.21 140.63 381.11C141.73 377.92 144.59 376.8 147.12 375.54C158.57 369.83 170.79 368.12 183.44 368.91C186.1 369.08 188.87 368.99 191.36 369.75C197.7 371.67 202.98 370.99 206.7 364.94C207.16 367.55 204.91 368.56 203.56 370.01C199.99 373.84 196.27 377.52 192.6 381.25C192.53 381.33 192.25 381.34 192.18 381.27C191.98 381.06 191.83 380.8 191.66 380.57L191.67 380.55Z" fill="#242B3D"/>
<path d="M213.74 357.37C212.24 359.33 210.65 359.52 208.16 358.72C198.75 355.7 189.51 351.9 179.48 351.32C176.41 351.14 173.33 351.29 168.86 351.29C181.96 344.89 194.35 342.21 207.58 344.98C211.6 345.82 215.49 347.32 219.41 348.59C220.33 348.89 221.97 349 220.73 350.74C218.28 352.83 215.64 354.71 213.74 357.37Z" fill="#FCFBF9"/>
<path d="M257.25 226.44C254.95 226.78 252.77 227.95 250.35 227.4C252.63 223.54 250.72 220.38 248.38 217.56C245.83 214.47 243.89 211.05 241.95 207.59C240.93 205.77 240.29 203.96 241.71 202.04C242.05 201.69 242.46 201.48 242.92 201.36C248.31 209.36 252.66 217.97 257.24 226.43L257.25 226.44Z" fill="#28181A"/>
<path d="M230.04 174.3C234.34 183.32 238.63 192.34 242.93 201.37L242.7 201.58C240.87 202.16 239.77 200.97 239.07 199.69C235.31 192.87 231.57 186.03 228.88 178.69C228.48 177.59 228.47 176.41 228.92 175.27C229.15 174.78 229.53 174.45 230.05 174.3H230.04Z" fill="#4C2828"/>
<path d="M120.55 446.98C123.74 445.21 126.23 442.26 129.97 441.41C127.71 444.81 123.96 446.19 120.71 448.26C120.66 447.83 120.6 447.41 120.55 446.98Z" fill="#2F3635"/>
<path d="M225.63 346.47C227.08 343.86 229.84 342.55 231.71 340.36C231.49 344.2 228.65 345.43 225.63 346.47Z" fill="#414C4A"/>
<path d="M145.16 428.47C147.35 426.43 149.53 424.38 151.72 422.34C151.25 426.21 148.63 427.8 145.16 428.47Z" fill="#3A4341"/>
<path d="M137.38 435.51C138.58 433.19 141.1 432.24 142.74 430.37C142.82 434.03 139.9 434.56 137.38 435.51Z" fill="#454A4D"/>
<path d="M226.9 166.24C228.4 168.75 229.31 171.5 230.04 174.31C229.82 174.48 229.59 174.65 229.37 174.82C225.73 173.04 224.73 170.35 226.62 166.7C226.68 166.53 226.78 166.37 226.9 166.24Z" fill="#4C2828"/>
<path d="M204.57 68.8101C204.5 70.3101 205.21 72.5699 202.23 70.6399C200.21 69.3299 198.83 66.9601 195.5 66.6201C196.15 70.8701 196.55 74.9399 197.44 78.8899C198.18 82.1699 197.15 83.66 193.98 84.5C187.6 86.2 181.27 88.1301 174.97 90.1201C172.39 90.9401 170.75 90.29 169.01 88.22C165.04 83.47 160.77 78.9599 156.15 74.6399C155.67 81.0299 156.65 86.9701 158.21 92.8501C158.31 96.0701 155.65 96.4001 153.55 97.0701C146.93 99.1901 140.05 100.21 133.3 101.76C130.67 102.02 128.94 100.48 127.37 98.7C125.07 96.09 122.75 93.5001 119.76 90.8101C119.35 93.5601 119.54 95.9701 119.55 98.3501C119.56 102.11 118.25 104.81 114.35 105.78C113.85 105.95 113.35 106.02 112.82 106.01C108.25 106.25 103.88 107.67 99.37 108.29C97.74 108.51 96.15 108.99 94.78 107.64C88.3133 108.06 84.1032 104.97 82.1498 98.3701C78.9998 87.7601 75.8498 77.14 72.6598 66.54C70.8798 60.63 70.8399 60.6399 76.7399 59.6599C77.3899 59.5499 78.0499 59.4701 78.6999 59.3701C119.34 52.6401 160.1 46.4701 199.94 34.0601C201.43 45.2201 202.99 57.01 204.56 68.8L204.57 68.8101Z" fill="#FDF8F9"/>
<path d="M64.0701 413.06C59.9001 406.54 57.9801 399.04 54.8301 392.07C52.3701 386.62 49.24 381.64 45.47 377.03C44.68 376.06 43.35 375.32 43.95 373.71C46.58 371.81 48.9301 372.19 51.5801 374.02C65.7901 383.85 74.75 396.64 74.67 414.51C74.66 417.33 76.35 420.25 74.43 423.02C71.62 419.03 68.2101 415.67 64.0701 413.06Z" fill="#FDFCFB"/>
<path d="M226.62 166.7C226.51 169.76 228.17 172.21 229.38 174.82C232.74 184.28 236.69 193.45 242.71 201.58C241.07 206.98 245.81 210.01 247.75 213.95C248.88 216.24 250.82 218.55 252.55 220.72C255.37 224.25 254.79 226.39 250.36 227.41C244.45 229.12 238.55 230.85 232.63 232.54C231.83 232.77 231.01 232.84 230.74 233.8C221.23 233.74 212.34 236.92 203.31 239.23C199.42 240.23 195.08 239.92 191.72 242.7L191.83 242.62C184.39 246.17 176.54 247.05 168.34 247.76C159.01 248.57 149.77 251.08 140.44 252.61C138.57 252.92 136.41 252.27 134.74 253.69L134.89 253.63C132.6 256.31 129.55 255.79 126.58 255.59L126.37 255.81L126.08 255.72C121.74 256.61 117.39 257.5 113.05 258.39C112.99 249.23 113.1 240.07 112.83 230.92C112.38 215.74 109.73 200.85 106.43 186.06C106.16 184.86 106.13 183.35 104.76 182.59C104.49 175.4 101.42 168.84 100.1 161.89C99.6401 159.47 98.47 157.17 98.75 154.61C100.32 152.98 102.26 152.44 104.48 152C121.09 148.7 137.72 145.51 154.16 141.41C159.96 140.47 165.69 139.22 171.33 137.58C171.79 137.4 172.26 137.29 172.74 137.21C175.57 137.29 178.21 136.39 180.85 135.54C181.28 135.37 181.73 135.27 182.19 135.2C184.98 135.23 187.55 134.25 190.15 133.42C190.6 133.26 191.07 133.19 191.55 133.15C195.63 132.67 199.61 131.86 203.19 129.68C206.35 128.58 209.39 126.13 212.92 128.71C214.38 129.47 215.5 130.21 215.97 132.17C217.73 139.55 219.85 146.85 221.8 154.19C222.01 154.97 223.02 156.18 221.29 156.47C220.07 156.67 218.95 156.31 218.81 154.76C218.74 153.94 218.83 153.08 218.64 152.29C218.18 150.36 217.01 148.87 214.93 148.95C213.11 149.02 211.94 150.37 211.7 152.18C211.43 154.3 211.96 156.86 214.27 156.76C217.63 156.61 218.47 158.86 219.66 160.86C221.33 163.67 226.01 162.77 226.63 166.72L226.62 166.7Z" fill="#D64759"/>
<path d="M212.91 128.7C209.85 129.48 206.78 130.27 203.72 131.05C199.61 133.1 195 133.28 190.68 134.56L190.76 134.53C187.78 135.43 184.67 135.72 181.68 136.56L181.76 136.52C178.78 137.42 175.67 137.71 172.68 138.55L172.76 138.52C166.82 139.67 161.01 141.51 154.96 142.14C143.44 145.55 131.56 147.34 119.87 149.98C112.9 151.55 105.91 153.31 98.7 153.57C95.5 146.59 94.71 138.92 92.44 131.68C90.66 125.98 89.05 120.23 87.13 114.58C85.99 111.21 86.03 109.19 90.44 109.49C91.86 109.59 93.3401 108.85 94.7901 108.5C101.03 106.72 107.48 105.94 113.78 104.48L113.63 104.55C115.77 103.96 117.83 103.38 119.9 102.31C123.71 100.35 128.02 99.8301 132.32 101.07C141.63 99.5001 150.64 96.65 159.86 94.7C173.9 91.5 188.04 88.6101 201.49 83.3001C205.25 81.8201 206.08 83.22 206.47 86.45C208.06 99.3 211.04 111.88 213.98 124.47C214.33 125.96 216.02 128.01 212.9 128.7H212.91Z" fill="#F6A640"/>
<path d="M98.7 153.56C117.38 149.69 136.06 145.82 154.73 141.95C154.74 142.17 154.75 142.38 154.76 142.6C145.12 146.12 134.92 147.24 125 149.54C116.32 151.56 107.5 152.93 98.74 154.59C98.73 154.24 98.71 153.9 98.7 153.55V153.56Z" fill="#7F2A1A"/>
<path d="M113.78 104.47C107.71 107.04 101.18 107.46 94.7901 108.49C94.7701 108.21 94.7701 107.93 94.7901 107.65C101.1 106.48 107.31 104.72 113.78 104.47Z" fill="#232530"/>
<path d="M134.73 253.67C141.75 250.52 149.47 250.75 156.81 249.1C167.12 246.78 177.5 244.78 187.87 242.71C189.14 242.46 190.5 242.63 191.82 242.61C188.07 245.87 188.36 250.6 187.84 254.81C184.64 280.46 194.02 301.69 211.32 320.02C213.12 321.92 215.27 323.55 216.42 326.13C180.28 321.05 148.47 327.72 124.46 359.1C127.16 348.56 130.04 339.21 138.46 332.48C146.4 326.14 155.58 322.58 166.1 319.65C153.14 310.09 148.89 297.19 149.95 282.65C150.62 273.5 155.96 266.11 162.71 258.58C162.56 264.27 160.44 268.32 159.43 272.61C157.53 280.71 157.52 288.79 158.94 296.89C160.47 305.6 167.1 311.14 172.17 317.64C172.74 318.37 173.51 318.65 174.38 318.43C182.09 316.49 189.9 316.95 198.64 317.8C183.28 304.15 175.36 287.33 171.25 268.49C170.11 263.28 168.92 257.92 169.95 252.66C170.95 247.54 168.31 247.97 165.19 248.74C155.17 251.22 145.01 252.81 134.74 253.69L134.73 253.67Z" fill="#232D3B"/>
<path d="M126.57 255.57C129.1 253.88 131.98 253.7 134.88 253.61C135.23 268.92 140.47 282.82 147.28 296.25C150.27 302.15 153.38 307.99 156.06 314.19C146.59 307.52 136.88 301.11 132.7 289.4C129.25 279.74 128.71 269.58 127.69 259.51C127.55 258.16 128.49 256.44 126.57 255.57Z" fill="#252D3D"/>
<path d="M229.97 236.56C220.48 247.24 212.56 258.87 208.04 273.77C206.71 262.34 207.57 252.11 207.88 241.88C207.96 239.38 209.37 238.95 211.29 238.55C217.77 237.19 224.24 235.74 230.71 234.32C231.76 235.5 229.87 235.7 229.96 236.56H229.97Z" fill="#FDFDF9"/>
<path d="M159.87 94.6899C151.06 98.0399 141.94 100.1 132.63 101.44C132.31 101.29 132.19 101.11 132.26 100.91C132.33 100.69 132.42 100.58 132.51 100.58C139.67 98.8601 146.85 97.2301 153.96 95.3301C155.47 94.9301 157.8 95.3601 158.23 92.8701C158.78 93.4801 159.33 94.09 159.88 94.7L159.87 94.6899Z" fill="#61442B"/>
<path d="M183.15 77.46C176.68 66.85 170.41 57.22 167.22 45.52C180.37 49.06 186.29 60.83 183.15 77.46Z" fill="#1E2334"/>
<path d="M104.76 96.2301C100.08 91.8401 95.28 87.5701 90.75 83.0301C88.41 80.6901 90.8 78.3501 91.71 76.2701C92.84 73.6901 93.2299 69.6602 96.9199 69.8302C101.04 70.0302 101.49 74.0501 102.2 77.2701C103.55 83.3801 103.61 89.7001 104.76 96.2301Z" fill="#1E2332"/>
<path d="M141.33 86.59C136.65 81.41 132.01 76.5099 127.22 71.7299C125 69.5099 127.5 60.8701 130.45 59.8501C133.58 58.7701 135.09 61.1901 136.25 63.3501C140.09 70.5101 141.09 78.39 141.33 86.59Z" fill="#1F2535"/>
<path d="M132.51 100.57C132.59 100.85 132.63 101.14 132.63 101.43C126.25 102.18 120.14 104.54 113.64 104.53C117.51 103.77 118.37 101.46 117.84 97.72C117.36 94.36 117.74 90.8799 117.74 86.9099C122.4 89.6899 125.34 93.61 128.59 97.2C129.75 98.48 130.27 100.54 132.52 100.56L132.51 100.57Z" fill="#232530"/>
<path d="M124.91 231.34C124.01 230.67 123.15 230.24 122.58 229.57C121.44 228.25 119.22 227.07 120.16 225.1C121.38 222.55 123.65 224.04 125.41 224.72C126.94 225.31 128.12 225.42 129.5 224.28C131.21 222.87 133.41 221.52 135.12 223.96C136.87 226.46 134.56 227.8 132.85 229.11C132.19 229.62 131.48 230.05 130.38 230.81C131.97 231.61 132.83 232.03 133.68 232.47C134.98 233.15 135.87 234.2 135.27 235.68C134.71 237.07 133.18 237.73 131.94 237.24C127.76 235.59 127.64 237.92 127.79 240.98C127.85 242.25 127.74 243.96 126.03 244.05C124.49 244.14 124.64 242.45 124.33 241.41C124.05 240.46 124.07 239.38 122.64 239.46C120.39 239.58 118.48 239.02 118.57 236.34C118.65 234.05 120.38 232.95 122.4 232.28C123.17 232.02 123.93 231.71 124.92 231.34H124.91Z" fill="#293233"/>
<path d="M168.6 182.81C167.08 180.36 164.41 181.15 162.72 179.89C161.53 179 160.15 178.02 161.09 176.22C161.89 174.69 163.36 173.9 164.76 175.15C166.52 176.73 166.82 175.43 167.47 174.26C168.43 172.55 169.99 171.51 171.35 173.41C172.81 175.45 173.39 178.08 176.55 178.42C177.31 178.5 177.38 179.69 177.11 180.58C176.65 182.09 175.55 182.55 174.11 182.73C173.05 182.86 171.58 182.03 171.02 183.48C170.4 185.07 172.08 185.24 172.94 185.87C174.06 186.7 175.1 187.64 174.43 189.17C173.72 190.78 172.48 190.69 171.15 189.84C170.81 189.62 170.33 189.02 169.98 189.75C169.3 191.2 169.62 194.24 166.86 192.73C164.59 191.49 163.16 188.58 163.04 186.19C162.91 183.46 166.18 184.02 168.09 183.34C168.22 183.29 168.3 183.13 168.59 182.82L168.6 182.81Z" fill="#242D2B"/>
<path d="M180.29 216.2C180.93 213.26 175.64 209.02 181.07 207.84C186.41 206.68 183.56 212.45 184.31 214.87C186.25 214.84 186.22 213.57 186.79 212.87C187.9 211.51 189.13 210.45 191.04 211.17C192.56 211.75 193.61 212.79 193.43 214.54C193.23 216.46 191.72 217.89 190.18 217.81C186.63 217.62 186.17 218.98 187.33 221.83C187.71 222.76 188.1 223.78 186.86 224.38C185.7 224.95 184.57 224.75 183.66 223.84C182.67 222.86 182.02 221.1 180.22 222.94C178.68 224.52 177.03 224.32 175.4 222.86C174.16 221.75 173.62 220.45 174.03 218.87C174.63 216.57 176.54 216.57 178.42 216.52C179.06 216.5 179.7 216.3 180.31 216.19L180.29 216.2Z" fill="#222D2F"/>
<path d="M144.01 212.49C141.33 210.23 139.21 208.56 136.89 212.3C136.03 213.68 134.26 213.96 133.02 212.6C130.95 210.33 132.7 208.72 134.54 207.39C133.12 206.36 131.83 205.67 130.88 204.66C129.84 203.57 129.07 202.1 130.19 200.63C131.17 199.33 132.58 199.62 133.8 200.27C136.91 201.92 139.02 202.11 138.88 197.54C138.84 196.28 140.07 195.55 141.42 195.89C142.89 196.25 143.14 197.49 142.67 198.64C141.53 201.45 141.76 203.05 145.38 202.68C146.77 202.54 147.43 203.67 147.58 204.91C147.76 206.34 147.21 207.85 145.92 208.21C143.64 208.86 143.04 209.94 144.01 212.5V212.49Z" fill="#243130"/>
<path d="M131.28 172.94C128.27 174.86 128.92 178.26 128.64 181.47C128.54 182.55 126.91 182.87 126.19 182.21C123.88 180.08 121.45 178.74 118.15 178.97C117.06 179.05 116.18 177.75 116.26 176.43C116.35 174.88 117.38 173.92 118.84 173.92C122.04 173.92 124.77 173.81 122.88 169.32C122.49 168.38 123.21 167.38 124.33 167.07C125.61 166.71 131.21 171.1 131.29 172.96L131.28 172.94Z" fill="#232E32"/>
<path d="M213.73 193.56C213.42 191.98 212.69 190.86 210.93 190.57C209.34 190.3 208.36 189.14 207.61 187.81C206.84 186.45 206.58 185 207.45 183.58C208.04 182.62 209.04 182.3 210.04 182.57C211.62 183 212.48 184.19 212.71 185.8C212.85 186.77 212.91 187.75 213.01 188.69C213.34 188.74 213.52 188.83 213.66 188.78C215.88 188.05 218.12 187.22 219.97 189.53C220.81 190.58 220.71 191.58 219.9 192.67C218.07 195.16 215.85 194.14 213.65 193.49L213.73 193.56Z" fill="#292F2C"/>
<path d="M213.64 193.49C214.49 194.48 215.35 195.45 216.17 196.47C216.75 197.19 216.69 198.63 216.09 198.5C212.79 197.76 210.37 200.69 207.42 200.42C205.35 200.23 204.69 198.2 204.86 196.22C205.04 194.15 206.1 192.6 208.36 193.05C210.16 193.4 211.9 193.79 213.73 193.57L213.65 193.5L213.64 193.49Z" fill="#292F2C"/>
<path d="M239.58 225.74C236.88 225.32 235.05 223.97 235.06 221.63C235.07 219.19 237.02 217.91 239.43 217.99C241.61 218.06 243.36 219.27 243.34 221.56C243.32 223.98 241.52 225.19 239.57 225.74H239.58Z" fill="#252F2D"/>
<path d="M184.88 149.92C182.74 148.91 180.53 147.82 180.7 145.08C180.82 143.07 182.36 141.74 184.4 141.95C186.79 142.19 188.27 143.84 188.14 146.28C188.04 148.13 187.13 149.72 184.88 149.92Z" fill="#252A2C"/>
<path d="M214.16 158.57C216.12 158.49 217.51 159.27 217.4 161.35C217.27 163.88 215.6 165.18 213.18 165.32C211.09 165.44 209.47 164.45 209.66 162.19C209.87 159.65 211.75 158.65 214.16 158.57Z" fill="#252A2E"/>
<path d="M150.61 156.36C150.09 158.43 148.9 160.11 146.73 160.09C144.62 160.07 143.78 158.31 143.8 156.29C143.82 154.3 144.47 152.61 146.79 152.64C149.07 152.66 150.27 154.11 150.61 156.36Z" fill="#272D2D"/>
<path d="M154.76 142.6C154.76 142.38 154.74 142.17 154.73 141.95C160.72 140.68 166.54 138.54 172.76 138.51C167.01 140.98 160.93 141.97 154.76 142.59V142.6Z" fill="#792915"/>
<path d="M190.68 134.55C194.75 132.35 199.36 132.16 203.72 131.04C199.81 133.84 195.3 134.39 190.68 134.55Z" fill="#822C18"/>
<path d="M181.68 136.56C184.52 135.07 187.55 134.38 190.76 134.53C187.96 136.24 184.93 136.88 181.68 136.56Z" fill="#792915"/>
<path d="M172.68 138.55C175.51 137 178.55 136.39 181.76 136.52C179 138.4 175.92 138.83 172.68 138.55Z" fill="#792915"/>
<path d="M198.5 103C202.52 105.04 206.3 107.33 208.97 110.66C210.33 112.36 207.7 114.38 206.88 116.22C204 122.69 203.92 122.65 198.46 117.85C197.71 117.19 196.84 116.6 196.32 115.79C195.38 114.35 192.46 114.07 193.2 111.88C194.19 108.94 195.88 106.24 197.34 103.47C197.5 103.17 198.14 103.13 198.51 102.98L198.5 103Z" fill="#182538"/>
<path d="M118.9 128.77C116.75 132.05 114.68 135.2 112.59 138.35C112.51 138.48 112.28 138.64 112.18 138.6C108.23 137.18 106.48 133.31 103.51 130.8C101.87 129.42 103.03 128.15 103.92 126.95C105.66 124.58 107.65 120.1 109.1 120.27C112.74 120.69 115.15 124.4 117.83 127.05C118.26 127.47 118.49 128.1 118.9 128.77Z" fill="#1B2330"/>
<path d="M158.61 130.7C156.87 128.75 155.12 127.01 153.63 125.07C152.63 123.78 149.54 123.71 150.71 121.21C152.17 118.1 154.1 115.2 155.95 112.29C156.39 111.61 157.17 112.34 157.65 112.67C158.47 113.22 159.19 113.91 159.94 114.56C166.11 119.97 166.1 124.41 159.9 129.77C159.57 130.06 159.19 130.29 158.6 130.71L158.61 130.7Z" fill="#152536"/>
</svg>
