<svg width="220" height="431" viewBox="0 0 220 431" fill="none" xmlns="http://www.w3.org/2000/svg">
<path d="M93.79 239.78C94.58 236.39 95.57 233.07 97.51 230.12C98.98 228.52 98.62 226.07 100.14 224.49C102.44 223.78 104.14 218.92 107.22 223.51C107.87 224.48 108.36 223.37 108.67 223.01C111.36 219.92 113.35 220.77 114.67 224.23C116.21 223.43 115.73 221.96 116.45 221.09C116.83 220.79 117.26 220.63 117.74 220.59C119.72 220.73 120.56 222.83 122.76 223.5C123.05 219.44 125.06 218.76 128.28 220.74C129.3 221.37 130.47 221.81 131.49 220.78C133.33 218.94 135.27 219.25 137.45 220.12C140.46 221.32 141.89 218.35 144.04 217.34C142.01 214.51 142.1 212.03 145.56 210.63C148.68 209.37 149.1 206.07 151.12 204C151.73 203.54 152.43 203.38 153.18 203.45C153.9 203.59 154.5 203.94 155.03 204.44C156.18 205.73 157.09 207.25 158.69 208.1C163.96 209.36 168.76 211.67 173.32 214.56C174.43 215.78 175.67 216.85 176.99 217.85C178.53 219.02 179.81 220.43 178.24 222.38C176.62 224.39 174.87 224.01 173.21 222.29C172.88 221.94 172.53 221.58 172.01 221.51C174.257 224.377 176.743 224.727 179.47 222.56C180.58 221.67 181.66 221.08 183 222.08C184.55 225.19 182.66 227.12 180.55 228.87C178.63 230.46 176.37 231.59 174.23 232.85C168.62 236.16 167.37 238.88 168.69 245.65C170.9 256.99 176.07 266.98 183.14 275.98C185.14 278.52 186.56 281.7 189.89 283.12C191.57 283.84 190.67 285.76 191.11 287.07C192.06 287.05 192.64 286.36 193.38 286.03C194.94 285.34 196.68 284.57 197.81 286.42C198.82 288.06 197.46 289.39 196.26 290.16C193.51 291.92 195.39 293.43 196.28 295.04C194.7 300.95 190.3 304.22 185.21 306.85C182.91 306.41 181.5 304.98 180.9 302.78C180.24 300.36 178.78 298.45 177.19 296.61C176.26 295.46 175.62 293.43 173.67 295.52C172.2 296.36 170.81 296.01 169.61 295.05C167.87 293.67 167.49 295.5 166.61 296.2C165.09 297.37 163.48 296.81 162.69 295.61C160.59 292.44 158.87 293.86 157.02 295.71C156.55 295.8 156.09 295.77 155.64 295.65C153.83 294.22 152.29 291.66 149.53 294.2C147.44 294.53 147.23 292.19 145.8 291.52C146.11 292.98 146.99 294.6 145.09 295.48C143.71 296.12 142.56 295.17 141.48 294.37C139.88 293.17 138.7 291.53 136.28 289.38C137.67 291.28 138.22 292.33 137.54 293.51C137.08 294.32 136.23 294.84 138.07 295.39C143.48 297 143.57 297.81 139.41 301.97C140.26 303.66 142.5 303.69 143.45 305.32C144.78 307.62 142.43 308.4 141.11 310.78C143.84 308.48 146.68 308.12 147.92 305.48C148.13 305.06 148.4 304.7 148.72 304.36C150.82 302.81 150.73 301.23 148.82 299.56C146.2 297.27 146.58 295.45 149.72 294.1C152.75 293.55 153.22 296.33 154.66 297.85C155.59 299.09 156.9 298.47 158.07 298.55C161.63 300.12 164.92 300.74 166.7 296.09C170.09 296.43 172.66 298.82 171.71 301.38C170.8 303.85 170.26 305.44 173.3 306.53C174.25 306.87 174.21 308.23 174.11 309.21C173.88 311.53 175.64 313.16 176.1 315.23C176.04 316.59 175.26 317.42 174.13 318.02C169.797 319.207 167.843 321.58 168.27 325.14C168.05 325.85 167.62 326.32 166.86 326.44C164.75 325.34 162.64 324.22 160.56 323.05C156.67 320.32 155.44 323.18 153.87 326.15C157.12 326.76 157.59 321.95 160.73 323.2C162.62 325.16 161.07 328.31 163.16 330.21C161.16 335.92 157.91 340.59 152.29 343.3C150.28 343.69 148.49 342.73 146.7 342.13C145.17 344.52 146.48 346.38 147.28 348.3C147.59 350.75 145.85 352.21 144.49 353.75C141.16 357.5 138.71 362.04 134.46 364.96C133.11 365.35 131.96 365.91 132.15 367.64C131.7 368.83 130.95 369.58 129.57 369.44C128.8 369.21 128.17 368.64 127.19 368.48C127.1 370.11 128.71 370.84 129.06 372.15C128.01 377.49 124.29 380.86 120.31 384.04C118.46 384.34 116.96 385.11 116.26 386.99C115.91 387.31 115.49 387.48 115.02 387.51C113.5 387.33 112.47 386.28 111.31 385.21C111.47 386.41 112.3 387.09 112.61 388.02C112.88 388.82 113.16 389.67 112.45 390.31C111.64 391.04 110.63 390.98 109.67 390.56C106.98 389.39 105.72 386.85 103.71 383.99C105.19 386.8 104.49 389.8 107.66 391C108.93 391.48 108.65 393.34 107.64 394.45C106.85 395.32 105.99 396.08 106.43 397.42C104.48 403.73 99.99 407.43 93.98 409.59C91.26 408.71 91.41 404.8 88.36 404.25C88.09 403.83 87.91 403.37 87.92 402.87C87.95 401.3 89.21 399.19 87.77 398.28C85.93 397.13 84.13 398.73 82.38 400.08C84.04 401.32 89.59 397.24 87.23 403.52C85.62 405.92 81.96 405.64 80.73 408.55C78.26 410.74 77.26 413 79.72 415.98C80.67 417.13 81.7 418.67 80.64 420.43C80.02 420.85 79.33 420.98 78.59 420.86C74.43 418.04 72.81 413.37 70.38 409.32C69.25 407.43 70.96 405.93 72.32 404.68C73.7 403.41 74.28 401.92 73.2 400.27C72.22 398.77 70.68 399.02 69.16 399.37C62.13 401.03 61.63 400.79 58.01 394.29C58.55 388.82 59.17 388.47 63.44 391.44C65.06 392.57 66.23 391.59 67.46 390.81C69.48 389.54 70.15 387.04 72.09 385.69C73.38 384.62 74.78 384.69 76.22 385.3C77.62 386.24 77.58 387.56 76.76 388.71C75.41 390.59 75.3 391.95 77.15 393.75C79.07 395.62 80.67 394.79 82.46 394.03C83.64 393.53 84.9 393.08 85.71 391.93C84.95 390.27 83.4 391.09 82.29 390.68C81.83 390.56 81.43 390.33 81.09 390C78.93 386.65 81.69 385.78 83.88 384.39C81.03 385.48 78.17 387.15 75.78 383.86C73.6 383.23 72.89 385.28 71.56 386.18C69.63 386.73 68.9 384.6 67.43 383.99C66.85 386.24 68.98 389.23 66.19 390.01C63.94 390.64 62.05 387.97 61.68 386.1C60.63 380.8 56.17 384.53 53.62 382.43C54.31 385.33 53.39 386.98 50.65 387.34C47.97 387.54 45.93 386.07 43.88 384.69C38.4 381.01 32.86 377.44 27.11 374.18C19.76 370.02 19.81 369.93 22.42 362.12C22.69 361.26 24.38 360.64 23.37 359.69C21.47 357.89 21.22 356.24 21.69 353.58C22.13 351.15 19.57 350.39 17.13 350.49C15.64 350.55 13.73 352.02 12.73 349.57C13.11 349.11 13.49 348.64 13.86 348.18C14.1 347.55 14.4 346.77 14.99 346.62C18.11 345.86 17.85 343.9 16.9 341.63C21.82 333.58 28.01 326.52 34.25 319.5C36.69 318.92 39.5 321.04 41.68 318.5C43.02 317.94 44.18 319.01 45.56 318.95C44.95 316.95 43.17 315.77 42.41 313.95C42.85 309.66 45.1 310.34 47.31 312.42C49.48 314.46 51.2 316.94 53.3 319.37C51.3 316.48 52.87 314.68 54.94 313.02C56.89 311.45 58.06 311.72 58.8 314.3C60.65 320.75 60.72 320.73 67.38 320.35C67.69 320.21 67.59 320.07 67.1 319.91C66.78 319.8 66.46 319.65 66.14 319.69C64.04 319.94 61.34 320.87 61.06 317.65C60.79 314.55 63.24 313.97 65.87 314.15C64.99 312.68 63.71 313.14 62.48 313.46C60.89 313.87 59.49 313.82 58.7 312.09C57.85 310.22 59.19 309.39 60.41 308.47C61.02 308.01 61.89 307.71 61.78 306.28C59 307.75 56.81 309.65 54.74 311.72C53.39 313.07 52.32 315.54 49.98 314.24C47.98 313.13 48.66 310.71 48.74 308.76C48.77 308.08 49.23 307.54 49.65 307.02L49.59 307.05C54.17 306.48 56.48 302.62 59.73 300.1C61.49 298.74 60.68 297.66 59.38 296.62C59.3 296.25 59.23 295.87 59.15 295.5C57.81 293.55 58.75 291.82 59.65 290.08C63.88 283.61 69 277.87 74.2 272.19C76.23 271.16 78.13 270.03 77.81 267.27C78.42 266.54 79.03 265.81 79.64 265.07C82.68 264.81 84.64 265.9 84.43 270.34C86.21 265.79 82.24 265.22 81.5 262.92C82.2 261.96 82.89 260.99 83.59 260.03C87.31 258.47 89.85 256.3 87.95 251.78C88.25 251.24 88.55 250.7 88.85 250.17C89.94 249.65 91.14 250.1 92.24 249.83C95.59 248.97 96.74 246.29 94.91 243.38C94.18 242.22 93.6 241.14 93.8 239.75L93.79 239.78Z" fill="#F4A143"/>
<path d="M117.87 221.14C117.52 221.17 117.17 221.2 116.82 221.23C113.14 219.53 109.48 220.01 105.74 221.13C104.06 221.63 102.16 221.86 100.85 220.06C100.81 219.51 100.77 218.96 100.72 218.41C102.35 217.27 103.87 215.95 105.75 215.24C109.31 213.91 108.74 212.02 106.18 210.4C103.26 208.54 104.16 207.5 106.31 205.68C111.47 201.32 117.21 201.33 122.4 204.39C126.84 207.01 127.68 204.56 128.99 201.62C127.9 203.2 126.77 204.84 124.45 203.81C122.5 202.94 122.36 201.09 123.13 199.58C125.28 195.39 119.42 197.24 119.42 194.63C119.5 196.81 121.96 199.53 118.96 201C116.2 202.35 116.06 198.49 114.19 197.74C113.097 200.5 111.057 201.037 108.07 199.35C106.86 200.39 108.29 203.28 105.89 203.18C103.35 203.08 102.74 200.62 101.99 198.61C103.28 194.53 102.02 190.26 102.95 186.15C104.34 184.86 104.82 183.57 102.91 182.31C102.88 181.13 102.85 179.95 102.82 178.77C105.09 177.26 107.26 178.48 110.48 179.68C107.36 174.65 104.08 170.87 102.76 166.07C102.52 160.41 102.27 154.74 102.95 149.09C104.36 148.17 105.88 147.6 107.59 147.62C108.56 147.8 109.36 148.23 109.88 149.1C110.2 150.94 106.5 152.86 109.99 154.63C111.06 155.01 112.11 154.54 113.17 154.51C114.66 154.65 115.1 155.56 114.94 156.91C114.84 157.71 114.67 159.09 115.66 158.84C120.93 157.54 119.45 161.12 119.89 163.9C120.2 165.81 120.8 168.63 124.1 168.08C124.48 167.85 124.89 167.7 125.31 167.61C129.46 167.65 127.93 164.05 128.87 162.04C130.06 159.71 132.14 161.97 133.74 161.09C134.26 158.68 131.56 157.21 131.79 154.87C131.92 153.87 132.29 153.06 133.42 152.88C135.74 153.48 136.39 156.41 139.33 156.93C138.58 152.9 139.39 150.2 144.58 151.84C142.37 150.09 139.46 151.19 137.58 149.46C137.34 149.04 137.28 148.6 137.39 148.13C138.75 146.44 141 146.6 142.67 145.56C144.85 144.21 146.61 142.73 144 140.18C143.52 139.72 143.05 139.24 142.56 138.79C141.41 137.6 140.55 138.33 139.61 139.16C138.5 140.14 137.28 141.42 135.72 140.16C134.47 139.15 135.14 137.72 135.48 136.45C135.61 135.98 135.86 135.53 135.59 134.95C134 135.04 133.61 137.97 131.72 136.98C130.17 136.17 130.43 134.34 130.73 132.91C131.43 129.55 129.01 127.32 127.99 124.64C127.86 124.52 127.76 124.42 127.74 124.38C127.94 124.45 127.96 124.66 128.1 124.84C128.29 125.52 128.08 124.72 128.33 125.33C129.35 127.9 129.36 130.6 126.83 131.91C124.28 133.23 124.38 129.36 122.22 128.73C121.31 130.93 122.92 135.96 117.46 133.68C116.98 135.68 119.5 137.61 117.4 139.33C115.98 140.49 114.78 138.72 113.39 138.68C113.4 139.89 114.3 140.9 113.9 142.1C112.66 143.41 111.13 143.08 109.89 142.4C108.31 141.52 108.57 142.1 107.82 143.42C106.55 145.64 104.53 143.65 102.9 142.9C102.16 135.79 102.39 128.68 102.85 121.57C107.3 120.47 103.47 117.13 104.6 115.13L104.57 115.19C107.11 113.24 108.69 116.63 111.36 116.28C110.12 113.75 108.18 110.87 114.38 109.77C110.12 109.21 108.26 113.69 105.67 111C103.83 109.08 106.96 107.65 107.29 105.5C105.53 104.87 103.9 106.84 102.2 105.93C102.17 105.13 102.14 104.33 102.11 103.53C102.75 101.79 103.19 100.02 102.57 98.17C102.5 90.88 102.43 83.58 102.36 76.29C102.57 76.01 102.96 75.65 103.13 75.78C105.88 77.69 109.18 79.54 110.67 82.21C112.01 84.64 113.25 87.04 115.14 89.08C116.16 89.92 117.27 90.65 118.25 91.54C119.7 92.86 121.29 94 122.88 95.15C123.26 95.4 123.61 95.68 123.95 95.99C125.02 96.68 125.97 98.8 127.28 96.24C127.43 95.95 127.47 95.58 127.67 95.33C130.023 92.3034 131.243 89.2967 131.33 86.31C133.09 85.22 134.13 86.6 135.16 87.57C136.51 88.84 137.41 88.66 138.13 87.02C138.51 86.43 139.01 85.97 139.61 85.63C142.13 84.51 144.68 83.42 145.25 80.25C145.65 78.02 147.75 78.01 149.23 77.21C150.21 76.56 151.17 75.9 150.76 73.96C149.83 76.95 148.05 78.15 145.62 76.61C142.2 74.43 145.18 71.95 145.79 69.13C144.05 70.76 143.22 74.06 140.55 72.36C136.84 69.99 140.65 67.51 141.05 64.96C139.58 65.68 138.78 68.01 136.95 67.16C135 66.26 135.85 64.27 136.2 62.71C136.56 61.11 136.75 59.71 134.65 59.27C134.23 59.09 133.86 58.85 133.52 58.55C132.72 57.58 133.11 55.91 131.6 55.35C131.22 55.11 130.88 54.83 130.54 54.55C129.53 53.7 128.62 52.76 127.73 51.63C127.59 53.51 127.71 56.04 125.22 55.74C122.27 55.39 122.31 57.8 121.1 59.07C120.65 59.54 120.02 59.94 120.06 60.67C120.34 65.15 118.42 66.03 114.06 63.7C116.91 67.57 116.27 70.24 112.46 72.33C107.24 75.21 106.09 75.23 102.65 71.61C101.77 65.78 102.62 59.95 102.58 54.12C104.97 51.51 104.19 48.89 102.61 46.26C102.63 45.44 102.65 44.62 102.67 43.8C104.85 42.76 106.15 44.76 107.87 45.39C108.2 44.25 106.79 43.3 107.65 42.19C108.24 41.61 108.96 41.15 109.76 41.35C112.63 42.09 111.69 40.46 111.22 39.09C112.52 35.83 114.85 37.52 116.91 38.01C113.84 35.09 112.08 37.24 110.38 39.62C109.53 40.73 108.26 41.38 107.34 42.44C104.43 42.37 103.17 40.38 102.2 38.05C102.33 37.17 102.47 36.29 102.6 35.41C103.85 33.24 106.46 35.51 107.98 33.67C106.78 32.09 102.7 32.29 104.64 28.54C104.93 27.98 102.83 27.62 102.14 26.73C102.18 25.92 102.22 25.1 102.27 24.29C103.65 22.47 105.7 22.3 107.68 22.32C121.96 22.46 136.28 21.44 150.52 23.25C152.18 23.46 153.83 23.63 155.21 24.7C156.3 25.9 155.6 26.71 154.61 27.45C153.65 28.04 152.75 28.49 152.43 29.88C151.4 34.31 151.31 34.29 147.38 30.97C148.06 32.79 150.33 34.35 148.56 36.23C146.77 38.13 144.9 36.26 143.17 35.65C142.75 40.96 142.61 46.17 148.59 48.83C149.02 49.03 149.41 49.28 149.78 49.56C150.15 49.86 150.46 50.2 150.76 50.57C152.09 51.93 152.84 55.81 155.4 51.53C156.12 50.33 156.94 48.49 158.72 49.36C160.59 50.27 160.79 52.18 160.17 54.11C159.92 54.88 159.4 55.55 159.29 56.49C161 55.72 162.37 53.25 164.47 55.03C166.55 56.8 164.97 58.57 163.9 60.2C166.89 59.37 166.89 56.27 168.39 54.31C169.92 53.97 172.51 55.08 171.62 51.61C171.21 50.01 171.56 48.25 173.48 47.54C175.68 46.73 176.71 48.26 177.85 49.74C178.09 46.57 174.55 46.38 173.42 44.31C173.19 42.77 174.21 42.17 175.38 41.67C178.41 41.01 180.18 43.32 182.29 44.67C183.43 44.34 183.13 43.33 183.43 42.64C184.17 40.94 187.3 41.08 186.62 38.23C185.92 35.31 185.14 32.5 183.02 30.23C182.12 29.27 181.14 28.36 180.39 27.28C179.56 26.08 178.47 24.82 180.15 23.42C187.04 21.81 194.07 21.95 200.87 23.26C203.69 23.8 206.89 21.37 209.29 24.35C211.26 32.74 210.62 41.13 209.38 49.53C206.91 52.28 204.95 49.92 202.36 48.57C202.87 51.75 203.29 54.96 198.61 53.96C198.13 53.86 197.38 54.13 197.46 54.63C198.66 61.41 193.53 58.49 190.71 59.1C189.93 59.88 189.6 61.02 188.65 61.67C185.97 62.34 184.49 63.54 186.15 66.53C186.77 67.64 187.55 69.16 186.43 70.24C185.11 71.51 183.65 70.54 182.36 69.73C181.69 69.31 181.1 68.73 179.95 68.73C179.85 71.64 180.26 74.47 179.28 77.18C178.96 78.06 178.87 79.53 180.24 79.5C182.48 79.46 183.97 79.93 184.86 82.24C185.38 83.59 186.54 82.56 187.36 82.12C188.65 81.42 189.92 80.25 191.4 81.61C192.93 83.02 192.2 84.64 191.63 86.21C191.36 86.95 190.77 87.64 191.17 88.6C192.89 87.6 193.42 85.27 195.52 84.79C196 84.74 196.45 84.86 196.87 85.11C197.93 86.49 197.75 88.05 197.01 89.35C195.25 92.45 197.58 93.75 199.3 95.54C201.56 97.89 202.39 95.32 203.7 94.47C205.4 93.37 206.78 93.28 207.77 95.35C208.74 103.06 209.33 110.75 207.33 118.39C205.68 120.72 203.8 122.7 200.25 122.38C201.71 124.66 203.68 126.15 205.15 128.03C206.83 130.17 207.52 132.7 204.82 134.46C202.29 136.12 200.64 134.96 199.74 132.1C199.27 130.6 198.2 129.18 196.37 128.8C195.38 128.71 194.67 127.7 193.56 127.98C193.47 129.22 194.83 129.47 195.18 130.39C195.91 132.58 195.47 134.53 193.25 135.33C190.89 136.18 189.47 134.46 188.36 132.35C187.9 135.36 192.36 137.57 189.07 140.58C186.58 142.85 184.89 139.71 182.42 139.65C181.87 141.64 182.1 144.46 178.71 144.26C177.31 144.18 177.08 145.34 177.59 146.34C178.7 148.52 177.97 150.53 177.19 152.57C178.27 153.35 178.65 152.28 179.19 151.88C180.14 151.18 181.06 150.26 182.29 150.97C183.72 151.79 183.26 153.17 183.21 154.52C183.18 155.49 180.7 157.1 183.75 157.53C185.62 157.37 186.55 158.53 186.91 160.07C187.8 163.83 190.56 165.36 193.91 166.29C194.79 166.58 195.59 167.02 196.3 167.61C200.16 170.92 198.1 166.01 199.2 165.5C200.2 164.35 201.19 164.48 202.17 165.52C202.39 168.52 204.73 167.76 206.53 167.95C208.52 169.81 208.22 172.1 207.8 174.43C205.2 177.84 207.26 180.78 208.76 183.78C209.38 188.65 210.99 193.4 210.48 198.39C208.42 200.19 206.417 199.9 204.47 197.52C203.64 197.92 203.51 198.78 203.18 199.51C202.51 200.98 202.11 203.07 200.25 203.09C198.23 203.11 198.88 200.89 198.4 199.63C197.51 197.3 196.25 196.29 194.14 198.5C193.8 198.81 193.42 199.08 193.02 199.32C191.32 202.89 186.61 203.88 185.76 208.35C185.21 211.24 182.21 208.73 180.26 210.07C180.82 212.38 183.45 213.61 184.03 215.97C184.09 216.44 184.02 216.89 183.82 217.31C181.76 218.95 179.74 218.32 178.15 216.77C176.43 215.08 174.54 214.86 172.39 215.16C167.3 213.66 162.97 210.22 157.62 209.41C157.6 207.94 158.22 206.52 157.97 205.02C157.3 201.08 158.7 200.14 162.14 202.47C162.99 200.06 161.56 198.6 160.57 196.51C157.68 199.15 157.99 203.61 154.44 205.2L153.47 203.93C152.21 202.21 153.18 200.44 153.4 198.7C153.61 197.09 154.29 195.44 152.62 194.18C150.35 191.79 149.47 188.04 145.71 187.07C145.35 186.11 145.37 185.15 145.63 184.18C146.03 182.94 146.93 182.1 147.89 181.3C150.7 178.7 154.13 176.98 157.18 174.72C158.64 173.64 160.16 173.15 161.79 174.03C165.44 176 167.29 174.02 168.83 170.92C167.8 170.68 167.53 171.58 166.99 171.97C165.94 172.73 164.95 173.99 163.54 172.98C162.3 172.09 162.33 170.55 162.9 169.35C164.11 166.79 163.34 165.33 160.74 164.61C160.23 164.27 160.23 163.58 159.77 163.2C159.52 163.96 160.02 164.6 160.12 165.31C160.09 165.79 159.92 166.2 159.61 166.56C159.01 166.98 158.35 167.14 157.63 167.12C154.11 165.48 153.15 168.28 151.83 170.47C150.99 171.08 149.91 170.84 148.83 171.29C148.66 173.82 153.72 176.01 149.89 178.69C147.6 180.29 146.08 177.88 144.62 176.34C143.76 177.3 144.69 178.25 144.51 179.17C144.01 182.42 142.22 181.47 140.4 180.44C139.46 179.71 138.55 178.71 137.38 180.14C136.91 180.57 136.39 180.93 135.85 181.25C133.46 182.74 135.7 183.84 136.33 184.79C138 187.29 139.42 183.95 141.07 184.38C142.43 184.48 143.23 185.19 143.42 186.55C143.44 187.39 143.07 188.1 142.69 188.83C142.51 189.18 141.36 189.66 142.54 190.12C142.92 190.27 143.44 189.82 143.89 189.61C145.05 189.02 146.37 187.94 147.49 189.11C149.65 191.37 146.32 193.23 146.77 195.65C148.87 195.85 150.22 192.92 152.52 194.12C153.94 195.5 153.28 197 152.45 198.2C151.06 200.21 151.42 202.3 151.64 204.45C150.65 208.12 149.51 210.99 145.11 212.68C140.98 214.26 145.87 215.8 146.54 217.43C144.6 219.12 142.42 218.08 140.33 218C139.86 217.78 139.52 217.42 139.31 216.95C139.83 214.68 140.79 212.04 136.71 212.71C135.2 212.96 133.68 214.71 132.3 212.82C130.85 210.82 132.28 209.12 133.3 207.36C130.95 209.22 128.34 210.78 127.33 213.84C127.13 214.27 126.86 214.65 126.53 214.99C123.89 217.41 122.38 221.43 117.84 221.17L117.87 221.14Z" fill="#F7A44D"/>
<path d="M58.74 394.1C59.53 394.94 60.38 395.73 61.1 396.62C62.88 398.84 64.06 401.42 67.66 398.17C69.87 396.18 73.65 396.24 75.32 399.64C77.57 404.23 74.37 406.16 70 407.42C73.77 411.51 75.97 416.13 78.74 420.39C78.84 423.34 76.52 424.23 74.47 425.24C66.62 429.1 58.43 431.39 49.56 430.62C47.43 430.43 45.26 430.55 43.11 430.66C42.01 430.83 40.93 430.56 39.84 430.56C33.21 429.53 26.84 427.72 21 424.28C19.25 423.25 17.74 421.98 16.67 420.23C-2.95997 406.5 -2.54999 382.61 5.50001 362.94C5.63001 362.63 5.75002 362.33 5.88002 362.03C8.15002 361.54 10.11 362.87 12.27 363.08C12.71 363.19 13.12 363.34 13.53 363.52C15.31 364.38 17.02 365.57 18.66 363.12C19.39 362.03 20.6 361.31 22.1 361.72C22.28 361.86 22.45 362 22.63 362.14C23.45 363.987 22.7867 366.287 20.64 369.04C31.26 373.98 40.27 381.46 50.69 386.61C52.07 387.25 53.28 388.15 54.43 389.13C54.95 389.54 55.42 390 55.85 390.5C56.92 391.61 57.89 392.81 58.72 394.12L58.74 394.1Z" fill="#022340"/>
<path d="M208.89 24.29C205.69 22.55 204.42 26.3 201.97 26.7C202 21.17 197.95 25.03 195.98 24.36C193.61 23.55 190.76 24.12 188.12 24.15C185.31 24.17 182.51 24.25 179.7 24.3C179.2 25 178.48 25.35 177.67 25.54C176.12 25.64 174.56 25.81 173 25.69C170.91 25.88 168.78 25.63 166.74 26.26C162.08 30.89 158.52 30.81 155.91 26.05C147.43 24.07 138.79 24.53 130.2 24.4C120.91 24.26 111.61 24.31 102.32 24.28C97.34 24.91 95.7 22.69 96.36 17.85C96.81 14.58 96.41 11.21 96.68 7.90003C97.09 2.89003 99.71 0.239985 104.66 0.229985C138.38 0.199985 172.1 0.270002 205.82 0.310002C209.48 0.310002 212.15 1.95003 213.95 5.09003C218.33 10.57 217.05 16.8 215.67 22.68C214.89 26.01 211.8 26.4 208.9 24.27L208.89 24.29Z" fill="#092B4C"/>
<path d="M102.01 198.61C104.79 198.74 104.37 202 106.26 203.07C107.27 201.88 106.49 200.92 106.01 199.97C105.51 198.97 103.59 198.18 105.75 196.88C107.54 195.81 108.76 196.01 109.8 197.92C110.4 199.02 110.84 200.43 112.4 200.67C112.91 199.47 112.39 198.43 112 197.32C111.59 196.16 110.7 194.69 112.75 194.09C114.42 193.6 115.13 194.79 115.73 196.04C116.5 197.63 117.26 199.22 118.15 201.08C121.44 197.8 113.48 192.76 120.2 190.48C121.34 192.21 120.27 194.14 120.93 195.87C122.57 195.84 123.48 192.59 125.56 194.68C127.56 196.69 125.19 197.9 124.45 199.35C123.89 200.44 123.29 201.49 124.24 202.53C124.58 202.9 125.44 203.04 126 202.93C128.09 202.53 126.92 201.26 126.55 200.3C126.15 199.27 126.5 198.57 127.49 198.62C128.82 198.67 130.06 199.22 131.03 200.22C131.84 201.05 132.17 202.18 131.08 202.72C129.21 203.64 128.93 205.42 128 206.92C126.76 208.92 125.25 209.37 123.4 206.96C120.2 202.8 112.79 202.5 109.76 206.44C108.29 208.35 106.13 206 104.63 208.39C108.38 207.85 108.94 210.74 110.12 212.9C110.47 213.53 110.26 214.46 110.3 215.26C106.77 215.26 104.78 219.99 100.73 218.41C100.957 215.417 102.987 213.253 106.82 211.92C101.25 211.83 101.1 208.99 101.68 205.47C102.05 203.23 101.92 200.91 102.01 198.62V198.61Z" fill="#190F15"/>
<path d="M49.65 307.06C49.21 309.49 51.43 311.46 50.58 314.16C53.02 310.93 55.84 308.56 58.62 306.15C59.47 305.41 60.48 304.84 61.44 304.24C62.82 303.38 63.97 303.84 64.96 304.96C66.57 306.77 64.45 307.04 63.74 307.9C63.42 308.29 62.91 308.69 62.88 309.1C62.78 311.18 58.09 309.05 59.84 311.99C61.26 314.37 62.76 310.97 64.43 310.9C65.16 310.87 66.57 310 66.48 310.9C66.23 313.54 69.72 314.07 69.31 316.19C69.04 317.57 67.59 317.27 66.62 316.15C65.41 314.76 63.93 315.05 62.56 315.84C61.57 316.41 61.44 317.59 61.76 318.51C62.09 319.46 63.06 319.33 63.88 318.96C67.94 317.12 69.58 320.63 72.01 322.72C68.69 321.97 65.74 321.38 62.21 322.57C59.51 323.48 57.06 317.91 57.71 312.17C56.57 313.38 55.92 314.46 54.97 315C52.68 316.32 52.49 317.46 54.85 318.82C56.2 319.59 57.7 320.69 56.17 322.17C54.92 323.39 53.58 322.42 52.4 321.14C49.49 317.98 47.77 313.84 44.1 311.2C43.61 312.18 43.1 313.18 42.6 314.17C42.52 314.4 42.45 314.62 42.37 314.85C41.52 315.95 40.45 316.18 39.19 315.65C39.02 315.48 38.85 315.32 38.68 315.15C41.16 310.86 43.5 306.4 49.62 307.04L49.65 307.06Z" fill="#10080D"/>
<path d="M114.66 90.12C112.55 88.89 111.66 86.46 109.46 85.16C107.29 83.88 110.31 82.85 110.23 81.46C109.07 80.76 107.75 80.8 106.55 81.16C103.92 81.94 102.98 81.45 104.23 78.67C105.03 76.89 104.1 76.24 102.4 76.28C101.86 74.68 102.15 73.14 102.7 71.61C106.69 74.2 109.9 72.11 113.26 70.05C115.24 68.84 115.41 67.49 113.73 66.36C110.04 63.87 112.36 62.15 114.11 60.24C116.01 61.13 115.87 64.3 118.4 64.24C120.21 62.39 114.43 58.17 120.7 58.29C121.79 58.7 123.02 58.81 123.82 59.81C125.32 63.62 124.64 66.81 121.36 69.49C118.39 71.92 116.97 76.35 112.31 76.55C114 77.32 115.65 75.12 117.4 76.25C119.09 77.34 120.13 78.71 119.07 80.82C118.82 81.34 118.04 81.22 117.83 81.81C118.14 81.42 118.64 81.3 119.01 80.96C120.59 81.17 121.86 82.56 121.01 83.51C118.98 85.78 118.6 89.74 114.65 90.14L114.66 90.12Z" fill="#130B14"/>
<path d="M12.73 349.61C16.08 350 20.11 346.65 22.67 351.25C23.33 352.44 26.69 353.73 22.61 355.49C20.45 356.42 22.71 357.48 23.77 357.89C25.15 358.44 27.01 358.59 26.46 360.65C25.95 362.57 24.05 361.94 22.65 362.12L22.76 362.17C20.92 360.29 19.79 361.98 18.77 363.12C16.93 365.15 14.95 365.37 12.66 364.08L12.77 364.15C10.99 362.7 8.15001 363.14 6.85001 360.82C7.16001 357.78 10.31 357.39 11.82 355.46C8.11001 352.87 12.2 351.51 12.75 349.6L12.73 349.61Z" fill="#16080B"/>
<path d="M102.23 105.92C103.17 104.85 104.73 104.75 105.55 103.31C107.18 100.46 108.18 103.6 109.3 104.08C111.46 105.01 109.71 106.12 109.07 107.11C108.19 108.47 105.95 108.4 105.52 110.64C106.99 111.56 108.49 110.75 109.37 110C113.56 106.41 114.29 106.62 116.55 112.67C115.41 113.26 114.76 112.21 113.95 111.83C112.89 111.33 111.76 110.5 111 111.96C110.09 113.71 111.2 114.04 112.77 114.33C114.1 114.58 115.39 115.62 114.04 117.15C113.03 118.29 112.03 119.7 109.87 118.48C108.05 117.45 107.1 115.03 104.59 115.17C102.87 112.32 102.29 109.19 102.23 105.92Z" fill="#1A0D17"/>
<path d="M100.85 220.06C103.91 220.17 106.81 220.42 109.63 218.28C113.14 215.61 114.48 220.01 116.82 221.23C117.79 223.54 119.26 226.12 115.07 226.64C111.11 227.12 113.39 223.56 112.12 221.93C110.25 222.27 109.82 224.24 108.73 225.45C107.75 226.53 106.86 228.28 105.24 227.17C103.76 226.15 105.21 224.87 105.78 223.76C105.98 223.37 106.51 222.99 105.84 222.43C103.67 222.09 103.24 225.29 101.02 225.01C99.35 224.68 100.78 223.12 100 222.44C100.28 221.65 100.57 220.86 100.85 220.07V220.06Z" fill="#0E0711"/>
<path d="M59.37 296.66C61.23 295.99 63.16 295.77 63.65 298.19C64.01 299.96 62.9 301.23 60.92 301.53C58.97 301.83 57.74 303.38 56.88 304.83C55.03 307.94 52.75 308.68 49.59 307.09C47.24 305.36 47.19 303.7 49.39 301.66C51.83 299.4 53 294.67 57.9 297.8C58.08 297.91 58.87 297.07 59.37 296.66Z" fill="#211213"/>
<path d="M102.93 142.89C105.15 139.42 105.7 143.79 107.29 143.67C107.62 141.3 104.13 140.02 105.23 137.01C107.99 139.04 109.9 142.32 113.74 142.2C114.61 141.96 115.08 142.46 115.48 143.12C115.61 147.72 114.76 148.61 110.47 148.21C109.52 148.12 108.59 147.79 107.63 148.06C106.21 148.99 105.15 151.54 102.97 149.1C102.96 147.03 102.94 144.96 102.93 142.89Z" fill="#1C0E12"/>
<path d="M102.79 166.08C105.81 170.2 108.82 174.33 111.86 178.44C112.72 179.61 112.74 180.49 111.35 181.25C110.32 181.81 109.03 182.77 108.37 181.32C107.18 178.7 104.7 179.56 102.84 178.78C104.62 174.54 101.59 170.32 102.79 166.08Z" fill="#231117"/>
<path d="M102.19 26.73C104.77 26.63 107.36 26.51 109.45 28.58C108.08 29.95 104.68 27.49 105.2 30.22C105.81 33.42 109.23 30.38 111.17 31.42C109.363 34.8533 106.52 36.1833 102.64 35.41C102.49 32.52 102.34 29.62 102.19 26.73Z" fill="#210D0E"/>
<path d="M93.79 239.78C94.18 240.5 94.38 241.5 94.98 241.88C97.34 243.39 99.55 245.16 97.13 247.89C95.08 250.2 92.92 254.29 88.84 250.2C89.53 248.53 90.22 246.86 90.91 245.19C91.13 244.86 92.63 245.5 91.63 244.24C91.96 242.57 92.38 240.93 93.79 239.78Z" fill="#220F0F"/>
<path d="M107.55 42.19C107.59 44.48 112.58 44.68 110.53 46.97C107.75 50.08 106.53 45.45 104.47 44.56C103.88 44.31 103.29 44.06 102.7 43.8C101.87 41.94 101.93 40.01 102.23 38.05C104.7 38.61 105.53 41.27 107.64 42.29L107.54 42.18L107.55 42.19Z" fill="#1C0A0D"/>
<path d="M81.49 262.97C84.3567 264.257 86.5033 267.26 87.93 271.98C85.26 271.17 81.33 272.79 82.8 267.35C83.01 266.57 79.53 267.62 79.63 265.11C80.25 264.4 80.87 263.68 81.49 262.97Z" fill="#1F0B0B"/>
<path d="M87.94 251.82C89.58 253.25 91.4 254.16 90.33 257.27C88.95 261.3 86.12 259.91 83.58 260.07C85.03 257.32 86.49 254.57 87.94 251.81V251.82Z" fill="#110D17"/>
<path d="M104.63 115.11C105.28 116.04 106.3 116.91 106.5 117.93C106.76 119.26 108.96 120.37 107.36 121.85C105.95 123.16 104.31 122.62 102.88 121.55C102.88 119.24 99.66 116.06 104.63 115.11Z" fill="#180E11"/>
<path d="M41.7 319.1C39.58 325.19 36.82 320.6 34.27 319.55C35.68 318.02 36.05 315.43 38.72 315.18L38.66 315.12C39.58 316.27 40.81 317.06 41.91 317.99C42.11 318.41 42.04 318.79 41.7 319.11V319.1Z" fill="#10080D"/>
<path d="M102.65 46.25C107.81 49.36 107.81 50.35 102.62 54.11C102.67 51.49 101.33 48.87 102.65 46.25Z" fill="#14050A"/>
<path d="M16.91 341.67C18.41 343.23 19.91 344.8 22.5 347.5C18.43 346.62 15.97 346.56 13.87 348.21C13.96 345.6 15.96 343.87 16.91 341.67Z" fill="#1A0908"/>
<path d="M102.93 182.32C104.39 181.94 106.34 180.75 106.56 183.44C106.75 185.73 104.93 186.25 102.97 186.15C102.96 184.87 102.94 183.59 102.93 182.31V182.32Z" fill="#3A2523"/>
<path d="M59.64 290.12C59.45 291.92 60.16 293.81 59.15 295.54C57.86 297.24 56.77 296.09 55.91 295.16C54.96 294.12 56 293.38 56.67 292.72C57.62 291.81 58.64 290.98 59.64 290.12Z" fill="#240D09"/>
<path d="M77.79 267.31C79.31 269.637 78.1067 271.277 74.18 272.23C75.38 270.59 76.59 268.95 77.79 267.31Z" fill="#24100E"/>
<path d="M6.84 360.83C9.27 361.13 11.5 361.77 12.76 364.16C10.1 364.63 8.00001 363.32 5.89001 362.02C6.21001 361.62 6.52 361.23 6.84 360.83Z" fill="#C38461"/>
<path d="M102.61 98.16C106.13 100.26 104.53 101.92 102.15 103.52C102.21 101.73 101.68 99.88 102.61 98.16Z" fill="#2F0B07"/>
<path d="M100 222.44C100.34 223.3 100.68 224.15 101.02 225.01C99.06 226.18 99.69 229.11 97.51 230.13C97.75 227.38 98.99 224.95 100 222.44Z" fill="#F7A44D"/>
<path d="M91.63 244.24C92.86 244.04 94.1 243.85 95.47 243.63C94.39 246.09 92.8667 246.61 90.9 245.19C91.14 244.87 91.38 244.55 91.62 244.24H91.63Z" fill="#BD8665"/>
<path d="M210.36 213.51C214.15 214.65 214.88 217.84 215.72 221.15C219.68 236.68 222.03 252.25 217.52 268.1C217.61 268.92 217.82 269.81 217.52 270.57C213.31 281.35 206.61 290.01 196.11 295.38C195.03 293.14 192.52 294.54 190.21 293.27C192.95 291.03 195.29 289.11 197.8 287.06C195.12 285.07 194.05 287.61 192.43 288.18C191.19 288.62 190.87 291.52 189.07 289.82C187.95 288.76 188.55 287.03 189.67 285.79C190.07 285.35 190.78 285 190.14 283.87C185.99 285.66 185.86 281.65 184.1 279.58C175.92 269.93 170.06 259.12 167.3 246.73C166.91 244.97 166.77 243.12 166.77 241.32C166.77 236.96 167.82 233.61 172.75 231.81C177.49 230.08 182.1 227.37 183.6 221.75C183.52 221.25 183.69 220.85 184.1 220.55C186.82 219.65 189.72 220.65 192.41 219.71C190.49 215.54 191.13 212.64 194.54 210.37C198.1 208 201.7 208.62 204.72 212.01C205.55 212.94 205.67 215.29 207.91 213.9C208.67 213.42 209.43 212.89 210.35 213.52L210.36 213.51Z" fill="#062946"/>
<path d="M87.65 300.21C86.33 299.41 85.74 299.6 85.43 301.31C85.01 303.58 82.74 303.82 81.11 303.7C79.66 303.59 78.64 301.97 78.69 300.34C78.77 297.96 80.98 298.49 82.37 297.82C83.4 297.33 86.11 298.99 85.32 296.1C84.67 293.74 82.69 294.67 81.21 295.41C79.8 296.11 78.13 296.8 77 295.78C75.38 294.33 78.84 294.08 77.77 292.3C76.95 292.19 75.5 292.35 74.45 291.78C73.15 291.06 72.09 289.57 72.89 288C73.68 286.43 75.16 287.09 76.35 287.73C77.9 288.56 79.4 289.5 81.43 289.84C80.76 288.84 80 287.88 79.44 286.82C78.89 285.78 76.87 284.76 78.31 283.59C79.83 282.36 81.42 283.51 82.47 285.03C83.79 286.95 85.12 288.86 86.39 290.81C86.87 291.54 87.39 292.39 88.29 291.98C89.49 291.44 89 290.25 88.71 289.37C87.87 286.9 85.09 285.49 84.81 281.83C91 283.91 93.41 288.9 95.57 294.19C97.33 291.06 95.95 289.34 94.28 287.66C93.19 286.56 92.18 285.08 93.52 283.76C95.18 282.12 96.15 283.86 96.97 285.07C98.53 287.35 99.75 289.22 101.31 284.92C101.97 283.09 103.56 284.22 104.43 285.31C105.77 287 106.91 288.85 108.29 290.5C108.98 291.32 109.36 293.47 111.06 292.11C112.59 290.89 110.81 290.27 110.12 289.5C109.79 289.13 109.48 288.72 109.29 288.27C108.72 286.91 108.67 285.55 110.31 284.98C111.7 284.5 112.59 285.35 112.77 286.68C113.11 289.19 114.22 289.77 116.47 288.56C117.95 287.76 119.12 288.35 119.48 289.96C119.81 291.43 118.73 291.88 117.51 292.28C115.79 292.84 114.15 293.64 112.31 294.4C113.64 296.2 114.77 296.51 116.36 295.01C117.69 293.75 119.44 293.49 120.82 294.87C121.57 295.62 122.33 297.01 122.15 297.93C121.74 300 119.72 299.79 118.1 299.85C117.08 299.89 116 299.82 115.34 300.65C114.86 301.25 114.33 302.22 114.51 302.83C114.8 303.83 115.84 303.5 116.61 303.17C117.37 302.84 118.08 302.4 118.84 302.06C121.02 301.11 122.74 301.31 123.43 303.97C124.1 306.55 122.58 307.17 120.47 307.37C119.83 307.43 119.21 307.74 118.58 307.94C115.5 310.67 113.52 308.72 111.74 306.27C111.07 305.34 110.97 304.1 110.5 303.03C107.99 297.38 103.54 295.4 97.59 297.51C95.57 298.22 93.84 299.33 91.49 298.05C89.67 297.06 89.63 300.61 87.68 300.21H87.65Z" fill="#110B13"/>
<path d="M158.14 257.18C158.39 257.24 158.64 257.26 158.89 257.24C157.1 261.49 155.36 262.36 150.87 261.24C150.13 261.88 149.38 262.52 148.64 263.16C147.49 264.78 146.24 266.28 148.06 268.37C148.78 269.2 148.83 270.58 147.33 271.2L147.1 271.22C146.44 271.2 145.56 271.65 145.17 271.27C141.15 267.27 138.56 269.79 136.03 273.11C135.42 273.91 134.36 274.12 133.33 274.1C131.76 275.04 130.19 275.95 128.71 273.95C129.94 271.73 132.1 270.36 133.7 268.47C134.93 267.02 135.25 265.62 133.96 264.03C132.67 262.44 131.22 261.7 129.23 262.83C127.36 263.89 125.6 265.13 123.69 266.12L120.75 261.88C121.64 261.13 122.01 259.8 123.09 259.33C128.12 257.17 127.97 253.36 126.52 249.08C126.56 248.73 126.61 248.38 126.65 248.03C127.96 246.45 129.96 246.76 131.65 246.21C134.28 245.35 134.5 243.95 132.97 241.77C131.59 239.79 128.87 238.78 128.69 235.94C130.77 235.34 132.71 235.33 134.27 237.14C135.8 237.24 136.55 238.39 137.22 239.49C139.1 242.58 141.2 244.64 145.22 242.76C146.92 241.96 148.84 242.73 148.82 244.79C148.79 247.11 150.59 247.74 151.66 249.07C151.66 249.34 151.68 249.6 151.72 249.86C151.91 254 153.96 256.51 158.12 257.19L158.14 257.18Z" fill="#F6AF5B"/>
<path d="M87.65 300.21C89.6 298.83 89.49 296.58 89.82 294.02C91.76 297.37 93.32 299.21 96.7 295.89C97.9 294.71 101.23 294.84 103.21 295.5C105.68 296.32 107.64 296.1 110.35 294.31C109.28 298.2 111.65 300.67 112.14 303.53C112.84 307.65 115.47 307.88 118.57 307.94C119.64 308.24 120.7 308.54 121.76 308.84C121.43 310.98 119.72 311.48 118.09 311.35C113.28 310.98 111.56 313.48 111.49 317.81C111.48 318.49 111.2 319.08 110.71 319.57C110.49 319.79 110.25 320 110.01 320.2C107.41 320.21 106.18 318.56 105.37 316.4C104.67 314.54 103.41 313.26 101.73 315.05C97.98 319.04 96.62 316.94 95.74 313.02C95.55 312.15 94.97 311.57 94.37 311C93.2 309.24 91.88 309.22 90.19 310.4C88.6 311.52 87.1 313.03 84.84 312.61C84.13 311.82 83.42 311.03 82.72 310.24C83.21 307.95 85.67 307.66 86.89 306.11C90.05 304.49 90.69 302.54 87.67 300.12V300.23L87.65 300.21Z" fill="#F5B25E"/>
<path d="M42.9 338.91C42.45 338.23 42 337.54 41.53 336.86C41 336.09 39.92 335.29 41 334.37C41.79 333.69 42.96 333.84 43.79 334.5C45.78 336.1 47.92 340.74 49.09 333.88C49.27 332.8 50.94 333.09 51.77 334.35C53.37 336.79 52.73 344.52 50.85 347.07C49.12 349.42 49.29 351.84 50.97 354.33C53.16 357.58 50.89 363.2 47.15 364.45C46.24 364.75 45.58 364.8 44.91 364.16C44.08 363.36 44.01 362.54 44.68 361.53C45.94 359.63 47.09 357.65 48.41 355.48C46.77 355.42 45.9 356.46 44.89 357.17C43.65 358.04 42.74 360.17 40.78 358.47C39.04 356.97 40.72 355.4 40.93 353.88C41.27 351.39 42.62 352.18 44.09 352.94C44.98 353.4 46.09 353.3 46.88 352.53C47.48 351.94 47.14 351.34 46.54 350.91C45.34 350.04 43.99 348.71 42.59 350.08C40.95 351.69 39.04 352.09 36.91 352.49C38.04 346.88 40.46 345.6 45.77 347.61C42.6 344.2 39.74 342.59 37.76 343.1C36.85 343.34 36.43 343.06 36.68 342.07C36.61 339.6 34.33 339.11 32.92 337.83C32.12 337.1 30.39 336.81 30.88 335.42C31.4 333.95 33.07 334.27 34.38 334.22C35.88 334.16 36.81 335.04 37.69 336.09C38.98 337.64 40.5 338.88 42.56 339.26C44.19 340.03 45.98 340.53 47.26 341.92C46.33 340.16 43.93 340.51 42.91 338.88L42.9 338.91Z" fill="#1E1111"/>
<path d="M93.65 341.21C92.4 341.64 91.04 340.67 89.79 341.56C88.87 342.22 87.7 343.1 86.88 341.64C86.22 340.47 87.45 340.04 88.25 339.47C90.76 337.66 88.28 337.2 87.34 336.41C86.24 335.49 86 334.4 86.98 333.46C87.91 332.56 88.87 333.32 89.42 334.17C90.46 335.79 91.41 336.83 93.1 334.79C93.87 333.86 94.86 334.18 95.71 334.92C96.33 335.46 97.16 336.52 97.59 336.38C104.17 334.26 103.18 337.59 101.54 341.62C101.19 342.49 101.77 343.25 102.81 343.21C103.95 343.17 104.95 342.36 104.62 341.35C101.83 332.82 107.91 337.46 110.69 337.21C113.14 339.78 114.35 342.47 111.53 345.57C109.05 346.19 106.32 345.27 104.02 347.26C102.48 348.6 101.01 346.99 100.31 345.93C97.82 342.16 96.15 343.91 94.02 346.53C96.98 347.43 101.61 348.07 100.87 350.47C99.93 353.5 95.57 354.6 92.06 355.38C91.51 353.18 93.02 352.98 93.78 352.22C94.32 351.68 95.32 351.34 95.02 350.36C94.72 349.41 93.74 349.22 92.95 349.5C90.7 350.27 89.35 349.22 88.72 347.3C87.84 344.64 89.99 344.41 91.77 343.92C93.14 343.55 92.93 342.03 93.61 341.15C94.17 340.63 94.76 340.15 95.54 339.98C94.71 340.08 94.19 340.65 93.67 341.21H93.65Z" fill="#1F1213"/>
<path d="M126.66 214.17C125.25 212.12 125.72 210.61 127.9 209.46C129.61 208.56 131.36 207.82 131.77 205.41C132.04 203.82 133.47 203.47 134.75 204.79C135.74 205.81 137.25 206.81 135.5 208.41C135.14 208.73 134.71 209.02 134.26 209.19C132.45 209.84 131.74 211.39 132.93 212.61C134.36 214.08 134.94 212.06 135.64 211.13C136.21 210.37 137.18 208.93 137.71 209.77C138.92 211.66 141.76 211.74 142.25 213.99C142.63 215.76 141 215.99 139.67 216.21C139.25 216.19 138.83 216.08 138.41 216.18C138.68 216.66 139.29 216.5 139.64 216.82C141.87 217.93 144.29 216.91 146.57 217.43C146.72 217.9 147.06 218.39 147 218.83C146.41 222.96 142.23 217.16 141.49 220.77C140.49 225.65 137.98 222.23 136.45 221.5C134.57 220.61 132.98 218.53 132.76 222.62C132.62 225.28 130.95 224.49 129.65 223.69C128.01 222.68 126.51 221.42 124.88 220.22C123.63 222.46 127.03 225.19 124 226.25C121.51 227.11 120.73 223.97 119.12 222.7C118.61 222.3 118.29 221.68 117.88 221.16C122.16 220.5 121.96 214.2 126.72 214.15C127.31 214.66 127.96 215.08 128.5 215.64C127.97 215.06 127.31 214.63 126.67 214.2L126.66 214.17Z" fill="#160A10"/>
<path d="M148.61 305.2C148.84 305.97 149.38 307.37 149.26 307.43C146.3 308.88 143.98 311.5 140.69 312.28C139.48 312.56 138.27 312.14 138.02 310.71C137.82 309.57 138.73 308.93 139.59 308.39C140.72 307.68 143.11 308.34 142.87 306.25C142.67 304.53 140.62 304.58 139.18 304.32C137.7 304.06 135.78 304.01 135.81 302.14C135.84 300.27 137.97 300.5 139.27 299.95C140.26 299.53 141.93 299.5 141.48 297.89C141.18 296.83 140.15 295.94 138.73 296.63C136.73 297.59 134.15 297.76 133.46 295.78C132.69 293.59 136.54 294.53 137.03 292.78C136.65 290.26 131.5 289.97 133.4 287.9C135.65 285.46 137.7 289.66 139.93 290.74C141.92 291.7 142.07 295.02 145.07 295.05C146.2 292.99 144.1 292.16 143.48 290.82C143.08 289.94 142.15 289.05 143.38 288.29C144.26 287.75 145.47 287.86 146.11 288.74C147.38 290.47 148.46 292.34 149.62 294.15L149.66 294.2C148.38 296.09 146.07 298.11 150.63 298.94C151.83 299.16 153.19 300.1 152.58 301.84C151.9 303.75 151.07 305.58 148.49 305.3C148.08 304.6 147.5 304.05 146.92 303.5C147.51 304.04 148.08 304.6 148.58 305.22L148.61 305.2Z" fill="#130C10"/>
<path d="M69.5 353.24C68.67 348.72 63.15 346.87 62.77 341.82C62.58 341.89 62.15 341.99 61.77 342.19C59.36 343.54 56.33 344.58 54.75 342.03C53 339.19 55.65 336.42 57.03 333.83C57.21 333.5 58.34 333.34 58.78 333.57C59.21 333.8 59.44 334.61 59.56 335.2C59.87 336.74 58.27 338.34 60.04 340.38C61.32 335.6 63.59 333.93 67.06 338.37C67.94 337.06 67.32 336.59 66.58 336.1C65.6 335.45 65.23 334.48 66.11 333.62C66.86 332.89 67.76 333.62 68.21 334.21C68.97 335.2 69.85 335.7 71.04 336.01C72.38 336.36 73.61 337.13 73.03 338.83C72.57 340.19 71.29 341.33 70.02 341.02C65.28 339.85 67.74 343.33 66.92 344.84C68.77 345.31 69.27 343.96 70.2 343.38C71.51 342.56 72.97 340.66 74.41 342.13C75.89 343.66 74.16 345.06 73.02 346.3C72.18 347.22 70.65 347.67 70.71 349.32C72.68 350.78 74.56 346.55 76.4 349.16C77.41 350.59 76.81 352.01 75.47 353.08C73.5 354 71.5 353.78 69.49 353.22L69.5 353.24Z" fill="#0E070E"/>
<path d="M184.85 306.13C181.81 309.24 178.77 312.36 175.73 315.47C173.88 313.6 170.85 312.37 172.9 308.66C173.82 307 172.73 306.01 171.05 307.23C169.61 308.27 169.09 307.56 168.33 306.52C167.51 305.39 167.45 304.27 168.5 303.45C173.59 299.49 168.04 298.36 166.61 296.14L166.69 296.22C166.75 294.66 164.23 292.84 166.89 291.59C169.25 290.48 169.32 292.89 170.13 294.12C171.01 295.45 172.5 294.87 173.72 295.14C173.88 295.31 174.04 295.47 174.2 295.64C174.75 297.57 174.54 299.71 175.85 301.41C176.66 302.58 176.82 304.1 178.13 305.56C177.24 303.74 176.39 302.45 175.63 301.11C174.65 299.12 174.82 297.44 176.92 296.27C177.16 296.23 177.4 296.19 177.63 296.15C180.92 296.26 181.39 299.36 181.78 301.27C182.25 303.53 183.36 304.81 184.84 306.14L184.85 306.13Z" fill="#1A0F10"/>
<path d="M110.69 319.57C110.03 316.74 108.64 314.17 111.72 311.37C113.28 309.96 114.07 308.96 116.1 309.77C118.14 310.59 120.01 310.05 121.74 308.84C123.54 308.08 124.79 308.1 125.15 310.54C125.47 312.74 124.09 312.52 122.76 312.69C121.16 312.9 118.78 312.9 119.87 315.37C120.8 317.48 122.32 315.87 123.48 315C124.32 314.37 125.21 313.84 125.95 315.12C126.55 316.17 127.09 317.9 126.09 318.3C122.36 319.78 124.73 320.68 126.12 321.99C127.06 322.87 128.09 324.17 127.17 325.47C126.25 326.77 125.07 325.43 124.03 325.17C121.97 324.64 120.67 323.45 119.88 321.33C118.87 318.62 117.61 315.87 113.99 315.04C113.83 316.98 115.34 317.33 116.1 318.24C117.33 319.72 118.27 321.58 116.44 323.06C114.9 324.31 113.76 322.75 112.74 321.66C112.07 320.95 111.37 320.27 110.68 319.58L110.69 319.57Z" fill="#120A11"/>
<path d="M58.74 394.1C57.17 393.4 55.47 392.87 54.64 391.14C55.06 390.41 55.92 389.84 55.48 388.8C54.9 389.3 54.22 389.68 53.66 390.19C52.24 389.34 51.04 388.32 50.71 386.58C56.82 383.69 49.11 382.47 50.15 379.81C53.01 379.22 54.56 382.44 57.23 382.81C58.72 382.05 56.59 379.01 59.13 379.16C61.03 379.27 61.63 381.27 61.83 382.9C62.2 385.92 64.36 387.52 66.27 389.67C67.13 387.53 65.89 386.1 65.42 384.61C64.89 382.9 65.09 381.45 66.48 380.71C68.43 379.67 68.37 381.84 68.95 382.8C69.73 384.07 70.39 385.41 71.76 386.17L71.68 386.1C71.72 389.21 66.06 395.16 63.42 394.52C61.08 393.95 62.26 391.38 61.24 389.75C59.27 390.56 59.27 392.49 58.74 394.09V394.1Z" fill="#0F070D"/>
<path d="M101.67 271.12C98.91 272.6 98.76 269.97 97.86 268.64C96.97 267.32 96.32 264.86 94.49 265.81C92.17 267.02 94.83 268.53 95.18 269.93C95.33 270.54 95.74 271.08 96.07 271.75C93.81 272.92 92.04 272.59 90.91 270.49C89.59 268.04 87.43 265.82 87.37 262.98C87.34 261.71 89.22 262.02 90.22 262.73C93.05 264.75 93.38 263.05 93.04 260.78C92.26 255.55 94.23 251.7 98.77 249.69C99.62 249.32 100.28 249.09 100.96 249.86C101.79 250.79 101.66 251.6 100.72 252.39C98.69 254.08 96.69 255.81 94.64 257.55C96.43 258.78 97.87 259.46 99.32 257.22C99.93 256.27 100.86 254.62 102.42 255.51C103.33 256.02 104.32 257.27 104.37 258.23C104.47 260.06 102.66 259.72 101.46 259.94C98.73 260.45 98.3 261.9 99.7 264.14C101.95 266.02 103.74 268.03 101.67 271.13V271.12Z" fill="#1F1215"/>
<path d="M147.33 271.2C147.63 270.26 148.08 269.19 147.22 268.43C143.49 265.12 143.49 265.05 148.63 263.15C149.19 263.96 149.85 264.73 150.28 265.6C151.66 268.39 152.58 271.61 155.11 266.06C156.41 263.22 160.5 264.39 162.96 261.64C163.57 264.89 161.54 265.27 160.49 266.25C158.98 267.64 159.71 268.92 160.51 270.25C161.2 271.39 162.13 272.05 163.36 271.16C164.87 270.07 164.32 269.02 163.18 267.92C162.36 267.13 163.01 266.35 163.69 265.87C164.94 264.98 165.41 266.1 165.9 266.92C166.84 268.48 168.43 270.79 166.67 271.78C164.1 273.22 163.48 277.23 159.8 276.87C157.75 276.66 157.39 275.56 158.3 273.72C158.87 272.58 157.82 271.78 156.99 271.38C155.82 270.82 154.94 271.92 154.72 272.73C152.95 279.15 151.1 276.34 149.08 272.89C148.68 272.22 147.91 271.76 147.31 271.21L147.33 271.2Z" fill="#140B12"/>
<path d="M151.68 249.06C147.29 248.99 147.33 249 148.12 245.11C148.4 243.75 146.76 243.21 146.35 243.5C139.16 248.56 137.59 241.97 134.75 238.01C134.56 237.74 134.43 237.43 134.28 237.14C134.43 235.55 135.1 234.55 136.83 235.26C137.55 235.56 138.06 236.34 138.75 236.76C140.67 237.95 141.86 241.87 143.35 241.08C146.12 239.63 142.42 237.66 142.32 235.69C142.27 234.74 142.49 234.09 143.32 233.67C144.3 233.17 145.11 233.76 145.33 234.5C146.4 238.04 151.12 239.09 150.53 243.54C152.88 242.75 154.14 241.82 154.63 240.07L154.54 240.15C156.14 240.05 158.05 239.52 158.51 241.77C158.95 243.92 157.1 243.39 155.93 243.6C155.65 243.65 155.42 243.93 155.17 244.1C158.91 249.22 152.54 247.2 151.66 249.06H151.68Z" fill="#0F0911"/>
<path d="M111.52 345.57C112.2 342.69 110.93 340 110.68 337.21C114.94 336.88 116.45 338.86 115.01 342.92C116.75 343.02 117.77 342.49 118.37 341.42C119.06 340.19 119.2 337.71 120.9 338.39C123.54 339.44 126.85 337.03 129.17 340.94C130.52 343.22 131.07 344.16 128.9 345.43C127.04 346.52 126.93 349 125.09 349.87C123.41 350.66 121.61 352.39 119.63 350.59C117.65 348.79 120.74 348.32 120.72 347C120.71 346.2 120.72 345.41 120.72 342.73C117.97 349.7 114.67 346.91 111.52 345.58V345.57Z" fill="#130A12"/>
<path d="M94.65 310.16C99.32 310.09 96.88 314.26 97.89 316.23C99.75 315.99 99.63 314.52 100.18 313.61C101.44 311.52 103.41 312.48 105.08 312.45C107.64 312.41 106.66 314.32 106.61 315.64C106.5 318.1 108.97 318.6 109.99 320.19C109.71 321.35 110.3 323.02 108.22 323.09C106.94 323.14 106.02 322.74 105.48 321.48C104.84 320 104.07 318.57 103.38 317.15C101.9 317.6 101.61 318.84 101.09 319.82C99.71 322.39 98.13 323 96.45 320.24C95.24 318.26 94.37 317.47 92.7 319.85C91.85 321.06 90.82 322.92 88.76 321.46C86.79 320.07 88.33 318.54 88.69 317.06C88.79 316.86 88.9 316.66 89 316.46C91.33 314.94 91.63 311.78 93.99 310.29C94.21 310.24 94.43 310.19 94.65 310.14V310.16Z" fill="#0F0813"/>
<path d="M109.22 366.21C108.04 367.6 107.33 368.53 106.53 369.35C105.45 370.45 104.06 370.59 102.98 369.6C101.91 368.62 102.55 367.5 103.44 366.6C104.27 365.76 106.22 364.85 103.99 363.74C102.1 362.8 102.13 364.9 101.52 365.94C100.52 367.67 99.4 369.82 97.21 369.52C95.53 369.29 95.2 367.08 94.79 365.48C94.51 364.41 95.1 363.62 95.83 362.86C97.47 361.15 100.19 362.01 101.73 360.54C104.5 357.89 105.22 361.26 106.84 361.99C108.43 362.7 109.58 364.05 111.69 364.07C115.64 364.11 114.7 367.91 115.06 370.07C115.32 371.64 113.16 371.29 111.96 370.65C110.37 369.8 110.17 367.95 109.23 366.22L109.22 366.21Z" fill="#170C0F"/>
<path d="M76.69 382.16C78.14 385.31 79.69 387.16 81.89 382.66C82.39 381.64 83.03 380.19 84.37 381.5C85.48 382.58 87.17 383.55 86.89 385.52C86.67 387.06 85.53 387.35 84.29 386.9C80.07 385.36 81.52 388.21 81.73 390.13C81.19 390.67 80.58 391.12 79.95 391.54C80.57 391.1 81.19 390.67 81.64 390.04C82.74 389.71 83.82 389.29 84.95 389.09C86.61 388.8 87.91 389.38 88.41 391.11C88.91 392.82 87.64 393.53 86.45 394.08C82.44 395.95 78.65 398.51 74.49 393.64C72.73 391.58 71.96 390.86 74.48 389.38C75.69 388.67 76.46 387.65 76.62 386.23C75.66 384.86 75.4 383.5 76.7 382.17L76.69 382.16Z" fill="#261817"/>
<path d="M150.81 309.73C152.53 311.92 152.48 314.69 154.34 316.47C155.45 317.53 154.98 318.47 154.03 319.42C152.86 320.58 151.44 321.68 150.76 323.1C148.57 327.68 145.84 327.87 142.05 324.28C144.91 323.12 145.2 319.08 149.07 318.98C150.1 318.95 150.89 317.51 150.49 316.19C150.31 315.6 149.53 314.63 149.41 314.68C148.56 315.06 147.8 315.64 147.06 316.22C146.82 316.41 146.79 316.84 146.57 317.07C144.86 318.85 142.52 319.14 140.28 319.51C139.57 319.63 138.61 318.72 138.83 317.81C139.36 315.63 141.68 315.26 143.14 314.02C145.4 312.1 148.63 311.94 150.82 309.72L150.81 309.73Z" fill="#0F080D"/>
<path d="M115.76 387.48C113.62 391.97 110.22 395.22 105.9 397.57C104.89 397.13 103.26 397.31 103.16 395.87C103.06 394.47 104.46 394.22 105.58 393.99C106.56 393.79 107.7 393.67 107.67 392.36C107.64 390.95 106.46 391.19 105.49 391.06C102.24 390.65 102.19 390.58 104.03 388.02C104.74 387.02 103.88 386.58 103.58 385.93C102.87 384.4 100.64 385.52 99.8 383.64C101.92 381.9 103.74 380.54 105.42 384.21C106.66 386.91 108.79 388.83 111.74 390.54C112.35 387.7 109.68 387.1 109.17 385.4C108.88 384.43 107.03 383.57 108.37 382.56C109.56 381.66 111.21 381.76 112.08 383.56C112.89 385.23 114.16 386.5 115.76 387.45V387.48Z" fill="#180D0D"/>
<path d="M183.65 221.71L183.61 221.73C181.12 221.61 180.2 223.29 179.4 225.25C178.47 227.5 176.46 228.65 174.85 226.67C173.6 225.13 172.04 224.78 170.66 223.84C169.61 223.13 168.21 222.3 168.89 220.68C169.26 219.81 169.97 218.83 170.78 218.47C172.44 217.73 173.37 219.32 173.76 220.38C175.26 224.41 176.76 222.82 178.5 220.64C176.77 218.4 172.86 218.69 172.45 215.16C174.34 212.39 176.14 211.22 178.19 215.11C179.34 217.29 181.49 217.42 183.68 217.11C186.28 218.66 184.37 220.18 183.65 221.71Z" fill="#130A0F"/>
<path d="M67.75 365.28C67.69 366.61 69.05 368.64 66.84 369.03C63.47 369.62 64.95 365.3 62.8 364.4C60.48 365.04 62.42 369.32 59.19 368.84C56.83 368.49 58.59 365.38 56.83 364.38C56.54 364.41 56.18 364.35 55.96 364.5C54.48 365.49 54.97 369.88 51.76 367.56C49.46 365.9 50.92 363.53 52.38 361.47C54.3 358.76 56.17 359.32 58.11 361.14C58.78 361.77 59.06 362.83 59.7 364.04C61.77 361.66 64.28 360.03 67.13 359.39C68.31 359.12 69.28 360.71 69.73 362.04C71.17 364.4 68.58 364.31 67.75 365.29V365.28Z" fill="#1F1313"/>
<path d="M128.7 235.93C130.42 237.42 132.38 238.73 133.8 240.47C134.98 241.91 137.61 243.33 136.59 245.26C135.59 247.16 132.89 247.76 130.6 248.05C129.31 248.21 127.97 248.05 126.65 248.03C124.75 246.47 122.81 244.94 120.96 243.32C119.39 241.95 118.83 239.76 120.15 238.49C121.57 237.12 123.15 238.77 124.25 240.03C125.91 241.92 127 244.67 130.75 243.94C129.44 241.78 128.24 239.9 127.14 237.95C126.16 236.2 127.44 236.04 128.69 235.93H128.7Z" fill="#0E0A13"/>
<path d="M161.84 316.24C157.92 315.78 155.42 313.74 154.95 310.05C154.6 307.34 156.55 305.25 159.16 305.78C162.5 306.46 167.26 306.37 167.74 310.98C168.09 314.41 164.99 315.9 161.84 316.23V316.24Z" fill="#0D111F"/>
<path d="M126.53 249.09C130.3 251.44 130.33 256.69 126.49 258.65C124.53 259.65 123.54 262.37 120.76 261.89C118.2 258.54 121.6 257.62 123.15 255.88C123.99 254.94 126.59 254.75 125.18 252.74C123.71 250.62 122.76 252.24 121.53 253.52C120.44 254.65 118.62 255.27 117.34 253.36C116.13 251.56 116.95 250.71 118.61 249.5C121.35 247.49 123.69 245.74 126.54 249.09H126.53Z" fill="#0C060C"/>
<path d="M121.68 358.19C122.69 362.86 125.9 360.1 127.02 359.07C128.35 357.84 129.69 357.16 131.22 356.89C133.25 356.53 133.57 358.24 133.81 359.74C134.1 361.51 133.11 362.42 131.54 362C129.18 361.35 127.7 362.21 126.11 363.84C125.14 364.83 123.7 365.58 122.02 364.75C121.49 364.49 120.58 362.74 120.03 364.71C119.79 365.55 119.48 366.73 120.93 367.12C123.75 367.88 122.77 369.76 122.09 371.43C121.89 371.93 120.91 372.66 120.75 372.56C118.12 370.87 117.52 367.74 115.87 365.33C114.6 363.48 116.58 362.4 117.86 362.25C120.45 361.95 119.7 358.8 121.76 358.28L121.67 358.2L121.68 358.19Z" fill="#311D16"/>
<path d="M123.7 266.12C124.58 262.21 129.04 262.28 130.99 259.56C132.9 261.25 134.96 262.81 136.69 264.68C138.02 266.12 136.96 267.72 135.72 268.42C133.08 269.92 132.47 273.93 128.72 273.95C127.27 271.97 125.95 270.08 129.51 268.79C130.38 268.47 131.08 267.63 131.81 266.96C132.43 266.39 133.05 265.56 132.55 264.8C131.8 263.65 130.91 264.4 130.03 264.93C128.08 266.11 126.38 268.82 123.7 266.11V266.12Z" fill="#130A10"/>
<path d="M116.67 355.79C116.11 358.81 114.4 361 111.35 360.7C108.12 360.38 105.68 358.23 105.85 354.7C106 351.57 108.24 349.96 111.34 350.22C114.63 350.49 116.25 352.64 116.67 355.8V355.79Z" fill="#0F101F"/>
<path d="M59.67 357.74C56.18 357.2 54.12 355.13 54.23 351.76C54.32 348.91 56.49 347.24 59.3 347.53C62.42 347.85 65.18 349.28 65.04 353.04C64.92 356.31 62.38 357.26 59.67 357.74Z" fill="#0C0A15"/>
<path d="M154.49 205.19C154.61 201.62 158.71 199.48 157.84 195.37C157.63 194.37 160.02 194.01 161.24 194.54C164.04 195.76 164.63 203.47 162.25 205.73C161.23 204.38 160.21 203.03 159.01 201.44C157.88 204.24 162.3 207.61 157.67 209.4C156.12 208.37 154.63 207.29 154.49 205.19Z" fill="#150B16"/>
<path d="M93.97 409.14C92 412.59 89.07 414.9 85.46 416.43C81.88 413.38 82.07 412.51 87 409.81C84.78 410.39 82.73 410.56 81.02 408.81C80.91 408.61 80.8 408.4 80.7 408.19C81.01 407.4 78.5 406.73 80.28 406.26C82.67 405.62 84.04 403.39 86.44 403C87.67 402.37 88.11 403.47 88.79 404.07C94.26 401.93 91.67 408.05 93.98 409.14H93.97Z" fill="#0F080E"/>
<path d="M156.64 295.22C157.72 294.66 157.49 293.57 157.68 292.65C157.93 291.38 158.66 290.55 159.99 290.59C161.03 290.62 162.15 291.27 162.18 292.23C162.27 295.31 164.49 295.7 166.7 296.22L166.62 296.14C166.36 297.64 169.26 298.9 167.12 300.45C165.2 301.83 162.88 302.05 160.65 301.28C159.61 300.93 158.75 300.08 157.8 299.46C156.21 298.38 155.89 296.95 156.64 295.22Z" fill="#332321"/>
<path d="M133.33 274.11C135.16 272 137.29 270.22 138.44 267.46C139.29 265.42 141.92 265.33 142.41 267.37C143.11 270.26 145.66 269.84 147.09 271.22C145.95 272.63 148.35 275.66 145.14 275.97C141.61 276.32 142.72 272.7 141.2 270.88C139.23 273.48 137.74 277.74 133.32 274.1L133.33 274.11Z" fill="#190E10"/>
<path d="M101.67 271.12C101.99 268.51 99.8 266.62 99.7 264.13C100.37 263.86 101.04 263.59 101.71 263.32C103.56 263.88 105.28 264.65 106.59 266.14C110.23 266.65 110.82 270.25 113 272.2C112.43 273.64 111.1 273.41 110.47 273.09C108.47 272.08 106.83 270.99 104.54 272.84C103.27 273.86 102.18 272.48 101.68 271.11L101.67 271.12Z" fill="#301B10"/>
<path d="M158.14 257.18C156.86 257.38 155.56 257.8 154.29 257.71C153.12 257.63 150.62 257.11 151.1 256.58C153.17 254.3 147.1 251.51 151.74 249.85C153.3 249.58 154.91 250.99 156.44 249.71C157.92 248.48 159.16 248.81 160.1 250.34C160.67 251.26 161.7 252.3 160.73 253.42C159.37 254.98 158.07 252.83 156.33 253.22C156.13 254.86 158.8 255.42 158.15 257.17L158.14 257.18Z" fill="#1F0E0E"/>
<path d="M88.78 404.06C88 403.7 87.22 403.35 86.43 402.99C86.73 402.45 87.34 401.86 87.25 401.4C87.16 400.92 86.44 400.31 85.7 400.8C84.74 401.43 83.92 402.32 82.89 402.77C81.9 403.2 80.42 403.71 79.89 402.29C79.46 401.16 79.12 399.66 80.47 398.64C80.73 398.44 81.02 398.22 81.33 398.16C84.16 397.61 87 394.41 89.44 395.9C92.61 397.82 88.97 400.33 88.43 402.62C88.33 403.05 88.65 403.57 88.78 404.05V404.06Z" fill="#130A0F"/>
<path d="M121.77 358.28C120.49 356.05 119.19 354.01 123.61 353.97C126.05 353.95 125.73 350.87 127.21 349.62C128.08 348.88 128.97 347.57 130.12 348.28C131.79 349.31 131.96 351.42 132.17 353.15C132.4 355.07 130.97 354.32 129.81 354.19C128.2 354.01 127.51 355.25 126.59 356.52C125.58 357.92 123.57 358.32 121.69 358.2L121.78 358.28H121.77Z" fill="#130B11"/>
<path d="M83.64 418.14C82.63 418.74 81.63 419.34 80.62 419.94C79.68 418.43 78.74 416.91 77.79 415.41C75.77 412.25 76.74 409.843 80.7 408.19L80.63 408.09C85.17 410.38 82.23 414.91 83.64 418.14Z" fill="#140C0E"/>
<path d="M160.77 323.07C158.58 323.97 158.06 326.28 156.7 327.88C155.43 329.37 154.03 329.91 152.55 328.33C151.62 327.33 151.06 325.18 151.86 324.78C154.46 323.49 154.67 319.5 157.77 319.4C159.59 319.34 161.01 320.89 160.67 323.17L160.77 323.07Z" fill="#140D16"/>
<path d="M67.75 365.28C68.31 364.14 69.77 363.54 69.73 362.03C70.99 364.62 72.47 365.42 74.5 362.68C75.81 360.91 77.54 359.08 79.76 360.6C82.98 362.82 78.46 364.14 78.71 366.13L78.81 366.04C78.32 365.99 77.54 365.71 77.38 365.92C73.83 370.37 70.85 367.22 67.77 365.28H67.75Z" fill="#1F1415"/>
<path d="M84.82 312.6C86.94 311.08 89.01 309.47 91.21 308.07C93.57 306.57 94.41 307.96 94.65 310.16L94.75 310.1C91.87 311.74 91.23 315.31 88.63 317.19L88.68 317.07C85.1 317.55 82.62 317.09 84.81 312.59L84.82 312.6Z" fill="#180C0F"/>
<path d="M69.5 353.24C71.49 353.19 73.49 353.14 75.48 353.1C76.97 354.55 80.29 355.55 77.58 358.33C75.48 360.48 72.8 362.18 69.68 359.63C68.82 358.93 68.5 358.03 68.8 356.97C69.08 355.98 69.97 355.95 70.79 355.86C72.06 355.72 74.32 357.23 74.19 354.72C74.11 353.13 71.89 354.37 70.71 353.99C70.27 353.85 69.9 353.5 69.5 353.25V353.24Z" fill="#2B1C19"/>
<path d="M112.93 239.1C115.01 240.64 118.51 241.08 119.46 244.14C120.16 246.39 117.35 247.72 116.01 247.4C112.83 246.63 112.47 243.12 111.19 240.59C110.63 239.48 111.68 239.28 112.92 239.1H112.93Z" fill="#2B130D"/>
<path d="M102.34 353.09C102.68 356.62 98.94 360.75 95.59 360.69C94.28 360.67 93.91 359.97 93.69 358.9C93.41 357.57 93.79 356.62 95.07 356.09C97.49 355.09 99.92 354.09 102.35 353.09H102.34Z" fill="#1D1012"/>
<path d="M152.01 342.28C150.67 344.63 148.58 346.26 146.59 347.99C145.18 346.9 141.6 346.83 144.73 343.68C146.49 341.91 142.63 341.27 143.9 339.22C147.05 338.63 148.61 343.2 152.01 342.28Z" fill="#1D1115"/>
<path d="M150.86 261.24C154.17 261.19 156.6 259.36 158.88 257.24C160.17 257.56 161.6 257.76 161.65 259.52C161.69 261.06 160.32 261.22 159.3 261.7C157.66 262.48 155.99 263.18 154.4 264.06C150.83 266.04 150.22 264.45 150.85 261.23L150.86 261.24Z" fill="#1E0C09"/>
<path d="M152.68 194.18C154.53 193.9 156.01 194.82 155.49 196.53C154.75 198.98 155.24 201.76 153.52 203.93C152.9 204.1 152.29 204.26 151.67 204.43C149.88 202.76 147.49 201.37 150.74 198.65C151.85 197.72 152.06 195.69 152.67 194.17L152.68 194.18Z" fill="#150B16"/>
<path d="M166.76 325.99C165.78 327.83 164.14 328.94 162.41 329.94C156.48 328.93 161.87 325.23 160.77 323.07L160.67 323.17C164.26 320.74 165.55 323.27 166.75 325.99H166.76Z" fill="#151016"/>
<path d="M149.64 294.13C149.09 291.33 151.41 290.54 153.1 290.32C156.06 289.95 153.73 292.86 154.78 293.86C155.13 294.2 155.44 294.58 155.77 294.95C157.78 299.37 157.59 299.69 153.18 299.32C152.63 297.19 151.72 295.3 149.68 294.18L149.64 294.13Z" fill="#100C12"/>
<path d="M41.7 319.1C41.7 318.77 41.69 318.44 41.68 318.11C40.29 316.31 42.13 315.36 42.74 314.09L42.63 314.19C46.18 314.8 47.34 318.03 48.73 320.52C49.76 322.38 47.41 322.38 46.31 321.91C44.67 321.21 43.22 320.06 41.7 319.1Z" fill="#10080B"/>
<path d="M154.64 240.07C149.25 239.82 150.04 235.24 148.79 232.08C151.24 234.41 156.75 234.64 154.55 240.15L154.64 240.07Z" fill="#1B0F16"/>
<path d="M36.67 342.09C37.03 342.43 37.39 342.77 37.75 343.12C38.88 343.61 40.16 344.45 39.37 345.64C38.55 346.87 36.8 347.2 35.29 346.88C33.96 346.6 32.83 345.79 32.59 344.27C32.34 342.67 33.39 342.28 34.68 342.2C35.34 342.16 36.01 342.13 36.67 342.1V342.09Z" fill="#180B0B"/>
<path d="M130.05 369.15C129.44 370.15 128.84 371.14 128.23 372.14C127.53 371.76 126.55 371.55 126.2 370.96C125.38 369.59 123.85 368.39 124.28 366.59C124.38 366.19 125.7 365.96 126.48 365.85C128.93 365.52 129.53 367.31 130.05 369.14V369.15Z" fill="#140808"/>
<path d="M87.65 300.1C89.92 299.49 91.36 300.13 92.06 302.57C92.67 304.69 93.88 306.93 89.94 305.38C88 304.62 88.64 306.83 87.69 307.16C86.92 306.29 86.85 305.43 87.73 304.59C87.7 303.1 87.68 301.6 87.65 300.11V300.1Z" fill="#1E0D0C"/>
<path d="M87.73 304.58C87.72 305.44 87.7 306.29 87.69 307.15C86.96 309.69 84.28 309.07 82.7 310.22C81.69 306.92 83.09 305.36 87.74 304.58H87.73Z" fill="#1B0A06"/>
<path d="M106.59 266.15C104.54 265.95 102.05 266.49 101.71 263.33C102.47 261.91 103.61 259.88 105.08 261.43C105.84 262.23 109.45 263.63 106.6 266.16L106.59 266.15Z" fill="#170A0B"/>
<path d="M76.69 382.16C76.67 383.51 76.64 384.87 76.61 386.22C74.97 386.18 73.32 386.14 71.68 386.1L71.76 386.17C72.18 381.81 73.06 381.1 76.69 382.16Z" fill="#0F0A10"/>
<path d="M168.08 272.66C169.7 273.28 170.89 274.25 171.05 275.77C171.24 277.64 169.58 277.02 168.61 277.07C166.81 277.15 166.61 275.85 166.56 274.46C166.51 273.26 167.07 272.71 168.08 272.66Z" fill="#140B12"/>
<path d="M173.72 295.14C173.61 293.91 173.06 291.92 174.61 291.92C176.85 291.92 177.64 293.98 177.64 296.14L177.72 296.12C175.96 297.38 174.64 296.87 173.64 295.1L173.72 295.13V295.14Z" fill="#2B130A"/>
<path d="M28.6 368.29C28.75 369.46 28.21 370.07 27.25 370.03C26.05 369.98 24.93 369.48 24.68 368.15C24.46 367 25.07 366.14 26.27 366.21C27.55 366.29 28.26 367.24 28.6 368.29Z" fill="#241207"/>
<path d="M119.71 383.6C118.57 385.02 118.06 387.11 115.74 387.25C115.33 384.15 115.52 381.71 119.71 383.6Z" fill="#291812"/>
<path d="M78.7 366.13C80.4 366.06 82.2 365.88 81.83 368.52C81.7 369.44 81.21 370.16 80.22 369.91C77.97 369.34 78.06 367.79 78.8 366.05L78.7 366.14V366.13Z" fill="#1F1415"/>
<path d="M153.18 299.32C156.96 299.6 156.14 297.14 155.77 294.95C156.1 294.91 156.39 295 156.65 295.21C157.04 296.62 157.42 298.03 157.81 299.45C156.24 300.49 154.65 301.93 153.19 299.32H153.18Z" fill="#130C10"/>
<path d="M133.82 364.27C133.59 365.6 132.76 366.49 131.66 367.17C130.52 366.7 129.59 365.76 130.32 364.69C131.09 363.57 132.59 364.08 133.82 364.27Z" fill="#311B10"/>
<path d="M205.73 118.68C205.88 118.98 206.05 119.26 206.17 119.57C207.32 122.46 203.27 124.99 206.35 128.7C208.13 130.84 206.57 135.75 206.52 139.41C206.06 139.6 205.49 139.97 205.11 139.79C197.52 136.36 192.72 140.57 188.3 145.86C187.24 147.13 186.05 148.22 184.02 147.94C188.84 149.98 189.09 151.81 185.45 157.13C184.89 157.54 184.14 157.67 183.71 158.27C183.22 159.37 183.06 161.31 181.33 160.44C180.14 159.84 179.16 158.33 180.31 156.64C181.37 155.08 183.28 153.87 182.56 151.24C180.55 151.55 179.93 153.13 179.16 154.45C178.28 155.95 177.36 156.75 175.6 155.59C173.76 154.37 174.41 152.97 175.35 151.79C176.71 150.09 177.85 148.67 175.93 146.53C175.04 145.54 173.84 144.08 175.36 142.59C177.23 140.77 178.59 143.81 180.8 143.02C180.1 141.04 178.21 138.42 181.6 137.18C185.03 135.91 185.52 139.32 187.17 141C189.06 139.28 191.17 137.62 187.26 135.61C185.81 134.86 185.02 133.53 186.13 131.9C186.86 130.82 187.73 129.36 189.2 129.85C190.59 130.32 192.63 131.09 190.6 133.31C189.83 134.15 190.91 134.51 191.36 134.42C192.16 134.27 193.34 135.65 193.76 133.9C194.07 132.63 194.39 131.36 194.7 130.1C194.26 128.36 195.66 128.66 196.57 128.41C196.83 127.22 197.21 126.06 198.72 126.17C199.88 126.26 199.73 127.21 199.71 128.05C199.7 128.51 199.66 129.17 199.92 129.4C202.01 131.23 202.14 131.57 201.1 134.17C202.88 134.22 204.74 134.12 205.31 132.41C205.84 130.81 204.82 129.26 203.46 128.12C202.09 126.97 200.85 125.66 199.43 124.59C198.1 123.59 197.36 122.44 197.75 120.78C197.95 119.93 198.46 119.28 199.42 119.2C201.42 119.03 201.07 121.3 202.02 122.12C203.82 121.27 203.82 118.95 205.75 118.66L205.73 118.68Z" fill="#170C14"/>
<path d="M114.66 90.12C117.2 88.56 116.95 84.88 120.05 83.48C121.46 82.84 119.74 81.77 118.77 81.27L118.82 81.34C117.95 78.74 118.42 74.04 113.39 78.29C112.6 78.96 110.19 77.33 108.38 78.29C107.75 78.62 107.35 77.67 107.29 77.01C107.18 75.73 108.12 75.05 109.11 75.15C112.13 75.43 114.42 74.69 116.71 72.42C117.73 71.41 119.01 71.04 118.88 69.29C118.84 68.73 118.13 67.96 119.57 67.7C122.73 67.12 123.92 64.19 122.87 60.12C123 57.69 123.87 56.94 125.44 57.91C126.18 58.37 126.51 59.12 126.76 59.91C127.29 61.57 127.19 64.11 129.41 64.09C131.29 64.07 130.6 61.36 131.64 60.15C132.36 59.3 132.73 58.06 134.18 58.17L134.22 58.2C135.86 58.72 136.14 60.23 135.69 61.37C134.04 65.56 135.74 68.88 138 72.17C138.54 72.96 138.78 73.96 139.11 74.88C139.38 76 140.28 76.96 139.97 78.23C136.75 80.73 140.45 83.45 139.73 86.03C139.36 86.43 139 86.8199 138.63 87.2199C135.94 88.2499 134.3 83.99 131.45 85.79C129.64 86.72 130.39 88.34 130.37 89.75C130.32 92.93 128.03 93.44 126.67 91.49C123.74 87.27 121.72 88.79 119.31 91.65C118.89 92.15 118.13 92.19 117.45 92.18C116.52 91.5 115.6 90.81 114.67 90.13L114.66 90.12Z" fill="#F6B160"/>
<path d="M114.64 142.69C114.34 142.52 114.05 142.36 113.75 142.19C113.03 141.29 112.28 140.42 111.61 139.49C110.54 138 109.99 136.28 111.92 135.26C113.8 134.27 114.38 136.05 115.03 137.39C115.47 138.29 115.55 140.14 117.19 139C118.23 138.27 117.05 137.25 116.6 136.46C116.2 135.75 115.63 135.13 115.11 134.48C113.87 132.94 114.47 131.67 115.81 130.68C117.74 129.25 117.81 131.43 118.55 132.24C119.07 132.81 119.48 133.49 120.19 134.44C121.28 132.36 120.7 130.88 120.14 129.41C119.55 127.87 119.5 126.27 121.1 125.51C122.97 124.63 123.7 126.49 124.42 127.65C125.17 128.87 125.54 130.32 126.14 131.86C128.6 129.39 127.31 126.38 127.96 123.8L127.9 123.9C132.78 126.99 133.98 131.25 130.92 136.9C133.61 136.03 133.73 134.32 134.45 133.08C134.97 132.2 134.79 130.33 136.56 131.51C137.66 132.25 139.33 132.97 138.18 135.03C137.34 136.54 135.75 137.76 135.9 139.84C137.79 140.44 138.34 138.94 138.82 137.89C140.82 133.55 142.16 135.79 143.54 138.26C143.48 138.81 142.92 139.19 143.01 139.8C143.38 139.28 143.84 138.98 144.5 139.22C148.16 142.39 147.84 145.34 143.5 147.01C141.68 147.71 139.66 147.91 137.73 148.34C136.2 148.63 135.79 147.39 135.25 146.43C134.61 145.28 134.04 144.1 133.32 142.99C131.77 140.6 129.09 140.06 126.83 138.76C123.61 136.92 122.55 140.01 120.5 140.87C118.63 141.65 117.36 144.57 114.66 142.69H114.64Z" fill="#120B17"/>
<path d="M155.91 26.06C157.99 28.24 160.39 28.48 163.34 28.06C165.82 27.71 162.26 23.86 165.68 24.76C169.28 28.07 174.94 28.74 177.08 34.06C177.69 35.58 180.15 34.63 181.7 35.11C183.31 35.62 185.1 36.17 185.02 38.19C184.94 40.28 182.86 40.24 181.43 40.95C179.59 41.87 176.72 38.71 175.71 42.47L173.7 43.9001C173.16 46.8201 170.47 47.17 168.45 48.33C167.55 48.66 166.64 48.93 165.67 48.93C160.28 48.64 154.84 47.8101 149.65 50.1501L149.72 50.23C147.95 48.13 148.69 46.36 150.42 44.71C151.11 44.02 152 43.52 152.73 42.35C150.93 41.72 150 43.2701 148.76 43.5901C147.09 44.0101 145.21 44.61 144.4 42.66C143.54 40.6 144.86 39.04 146.84 38.52C149.66 37.78 151.16 35.87 152.75 33.6C154.29 31.4 154.32 29.38 153.68 27.07C154.43 26.73 155.18 26.39 155.93 26.05L155.91 26.06Z" fill="#F7B65B"/>
<path d="M210.36 213.51L209.15 214.19C207.86 214.33 207.56 213.28 207.04 212.47C204.1 207.85 201.07 206.68 196.24 208.63C194.02 209.52 191.86 210.06 189.51 209.57C188.74 215.94 188.31 216.44 183.7 216.41C181.22 214.66 179.96 211.49 176.19 210.51C178.97 208.31 180.69 204.64 184.37 208.93C185.06 206.45 182.03 204.86 184.23 202.89C186.39 200.95 187.17 204.61 189.31 203.71C189.1 201.38 187.9 197.98 192.53 198.2C193.76 198.8 194.55 199.71 194.6 201.18C194.92 199.9 193.9 199.14 193.55 198.14C193.55 196.13 194.17 193.97 196.49 194.76C199.94 195.93 201.73 198.53 198.92 203.49C201.61 201.06 201.57 198.85 202.56 197.15C203.19 196.07 202.18 193.58 204.73 194.26C206.09 194.62 207.34 195.73 206.88 197.63C205.9 201.76 208.68 198.44 209.53 198.95C210.34 203.77 213.44 208.46 210.35 213.5L210.36 213.51Z" fill="#180D15"/>
<path d="M207.36 68.05C207.43 72.63 207.2 77.18 205.99 81.63C205.41 83.76 205.14 85.81 206.58 87.72C203 87.78 199.33 88.21 196.51 85.22H196.25L195.99 85.23C194.74 85.23 193.61 84.77 193.02 83.69C191 80 187.59 79.03 183.8 78.86C182.11 78.78 180.19 79.13 180.12 76.71C180.06 74.71 181.21 72.77 183.18 72.71C188.31 72.55 189.47 70.71 186.79 66.28C185.42 64.02 187.03 62.57 188.64 61.25C188.65 60.17 188.55 59.06 189.41 58.19C193.31 59.08 192.8 62.23 192.64 65.44C197.63 59.29 197.6 59.33 204.42 64.22C205.85 65.24 206.79 66.45 207.35 68.05H207.36Z" fill="#F5B85E"/>
<path d="M114.64 142.69C120.7 139.42 122.27 138.11 123.65 135.51C129.78 138.14 136.36 140.55 137.71 148.34C137.67 148.6 137.65 148.85 137.65 149.11C137.2 151.3 136.46 153.2 133.72 153.16C132.98 153.58 132.72 154.27 132.69 155.07C130.86 156.81 130.07 159.49 127.58 160.64C126.92 160.68 126.06 160.38 125.65 160.72C122.71 163.2 120.09 165.15 120.27 158.84C115.33 158.68 116.09 154.23 114.58 151.43C113.65 149.71 111.02 150.92 109.86 149.26C108.98 149.12 108.14 148.91 107.65 148.05C107.95 147.28 106.61 145.14 109.13 146.21C112.74 147.75 115.23 147.64 114.65 142.68L114.64 142.69Z" fill="#F8B661"/>
<path d="M174.63 106.35C172.2 107.27 170.62 107 168.54 104.73C167.02 103.07 164.99 98.03 160.72 102.38C159.11 104.02 157.08 102.62 155.62 101.13L155.73 101.23C154.623 96.0967 155.28 92.42 157.7 90.2C160.07 92.29 158.61 95.96 161.49 98.87C161.49 96.76 161.6 95.42 161.46 94.11C161.31 92.63 160.87 91.19 160.68 89.72C160.54 88.62 160.07 87.3 161.44 86.63C162.56 86.08 163.32 86.6701 163.7 87.7801C164.02 88.6901 164.57 88.53 165.16 88.09C165.99 87.47 166.91 86.82 167.51 88.21C167.94 89.21 167.42 90.03 166.65 90.84C164.79 92.79 164.84 92.84 165.67 95.47C167.99 95.38 166.95 89.94 170.26 92.15C175.1 95.38 167.72 97.6 169.38 101.21C170.77 100.22 172.31 99.39 173.45 98.2C174.11 97.51 173.04 95.06 175.35 95.97C177.11 96.67 178.27 98.13 177.59 100.36C176.91 102.58 174.65 103.99 174.56 106.49L174.63 106.38V106.35Z" fill="#160D17"/>
<path d="M188.65 61.26C187.81 63.68 186.64 65.61 189.9 67.89C192.14 69.45 188.64 72.32 188.42 74.86C188.32 76.06 186.25 75.02 185.15 74.31C181.07 71.69 182.25 76.11 180.8 77.66C189.02 74.36 191.73 81.27 196 85.24C195.22 87.08 193.15 88 192.67 90.11C192.41 91.22 191.68 92.55 190.26 91.83C189.08 91.23 188.28 89.97 188.73 88.47C188.96 87.7 189.46 87.01 189.87 86.29C190.56 85.06 192.25 83.73 190.77 82.4C189.01 80.81 189.11 84.43 187.38 84.04C186.04 83.74 185.8 86.75 183.72 85.34C181.54 83.85 183.91 82.36 183.43 80.83C181.66 79.28 180.08 83.92 178.01 80.95C176.42 78.68 178.28 77.26 178.55 75.44C178.84 73.51 179.47 71.54 178.2 69.64C177.4 68.44 177.2 67.1 178.51 66.09C180.11 64.85 180.87 66.46 181.77 67.26C182.98 68.33 183.72 69.99 186.11 70.3C185.51 68.71 184.83 67.38 184.52 65.98C184.19 64.51 182.21 63.42 183.7 61.49C185.38 59.31 187.02 61.46 188.66 61.27L188.65 61.26Z" fill="#110812"/>
<path d="M175.7 42.48C173.52 42.04 173.68 40.78 174.47 39.18C175.22 37.67 176.33 37.81 177.3 38.64C179.97 40.96 182.1 38.88 185.06 38.21C182.54 36.23 180.35 36.16 178.08 36.63C176.71 36.91 174.51 36.85 174.75 35.61C175.83 29.95 170.67 30.09 168.02 28.55C166.09 27.43 166.96 25.63 165.68 24.76C168 23.75 170.44 24.4 172.83 24.26C174.26 26.72 175.79 25.23 177.3 24.36C178.1 24.34 178.91 24.31 179.71 24.29C180.02 24.86 180.2 25.59 180.66 25.98C184.35 29.04 187.22 32.4 188.32 37.41C189.31 41.91 188.94 42.88 184.41 42.11C183.53 43.23 184.63 43.83 185.12 44.54C186.07 45.92 185.07 46.69 184.24 47.48C182.95 48.73 182.02 47.64 181.41 46.74C179.98 44.63 178.45 42.76 175.7 42.47V42.48Z" fill="#160D14"/>
<path d="M143.71 179.16C143.1 178.18 142.36 177.25 141.9 176.2C141.18 174.55 142.39 173.72 143.63 173.17C144.99 172.57 145.83 173.3 146.23 174.61C146.52 175.56 146.58 176.64 147.1 177.43C147.82 178.53 149.19 178.72 150.18 177.99C151.23 177.21 150.25 176.23 149.84 175.41C149.63 174.98 149.31 174.54 148.92 174.27C147.18 173.1 144.53 172.23 146.54 169.45C148.94 166.14 149.77 170.9 151.65 170.65C152.08 170.76 152.47 170.95 152.82 171.22C155.17 172.38 156.53 171.14 157.26 169.13C157.74 167.8 158.55 166.91 159.61 166.12C159.74 165.81 159.77 165.5 159.7 165.17C159.77 164.56 160.12 164.21 160.71 164.08C173.01 162.79 161.11 170.35 164.28 172.79C166.23 172.2 166.62 169.87 167.87 168.38C168.52 167.6 169.22 166.81 170.36 167.45C171.5 168.09 172.18 169.23 171.49 170.36C170.2 172.46 168.89 174.68 167.08 176.29C164.82 178.3 162.83 176.1 160.96 174.95C159.94 174.32 159.27 174.24 158.46 175.24C155.86 178.46 151.18 178.92 148.78 182.43C145.65 183.57 144.35 181.87 143.72 179.16H143.71Z" fill="#120B16"/>
<path d="M207.36 68.05C204.96 65.25 200.63 65.16 198.6 61.77C198.24 61.17 197.43 60.52 196.54 61.28C195.85 61.87 195.51 62.6 196.08 63.43C197.88 66.04 195.5 66.4 194.03 67.19C192.9 67.8 191.66 68.68 190.62 67.03C189.66 65.5 189.5 64.52 191.21 62.92C193.24 61.02 189.33 60.11 189.41 58.2C189.61 55.64 190.96 55.7 192.78 56.68C194 57.34 194.67 59.02 196.53 58.68C197.52 56.14 193.04 53.79 195.93 51.6C197.96 50.07 199.44 53.65 202.05 53.3C202.26 51.7 200.6 50.99 200.09 49.8C199.24 47.82 200.87 46.94 201.73 46.09C203.05 44.81 203.77 46.63 204.07 47.42C204.76 49.24 206.3 49.6 207.77 50.21C206.78 52.48 205.71 54.05 207.7 57.1C209.43 59.76 208.19 64.36 207.35 68.04L207.36 68.05Z" fill="#130C19"/>
<path d="M153.66 27.08C153.78 27.2 153.89 27.31 154.01 27.43C155.27 28.8 159.03 28.76 155.54 32.39C152.8 35.24 152.02 40.01 146.72 39.79C145.06 39.72 144.83 41.09 145.02 42.17C145.32 43.87 146.67 43.53 147.7 42.93C148.83 42.27 149.71 41.03 150.89 40.64C152.07 40.25 153.25 38.07 154.61 39.9C155.78 41.48 155.89 43.29 153.62 44.35C153.03 44.63 152.48 44.99 151.91 45.31C147.6 44.58 150.07 48.61 148.66 49.92C145.09 49.23 143.58 45.16 138.87 45.14C142.74 41.78 143.83 38.86 140.47 35.66C139.64 34.87 139.37 34.06 140.26 33.11C141.22 32.08 142.08 32.1 143.28 32.91C144.93 34.02 145.7 36.7 148.74 35.96C148.48 33.95 147.01 32.84 145.79 31.67C144.15 30.09 144.42 28.55 146.1 27.58C147.99 26.49 148.09 28.55 148.61 29.6C149.27 30.93 149.77 32.36 150.5 32.66C156.27 32.67 143.74 25.4 153.66 27.08Z" fill="#120A15"/>
<path d="M183.71 216.41C187.1 215.64 189.38 214.22 187.28 210.27C186.59 208.98 187.29 207.87 187.99 207.1C188.97 206.02 189.85 207.1 190.33 207.89C191.62 210.04 192.79 208.62 194.01 207.9C197.72 205.72 200.64 205.4 205.14 207.84C208.6 209.72 207.49 212.39 209.15 214.18C209.17 216.14 208.18 217.51 206.27 217.51C204.67 217.51 205.14 215.78 204.86 214.76C204.05 211.82 202.08 210.28 199.13 210.2C196.2 210.12 194.17 211.77 192.81 214.25C191.31 216.99 192.58 218.96 194.79 220.59C191.2 222.71 187.4 221.93 183.65 221.69C182.93 220.15 185.41 218.64 183.68 217.09C183.68 216.86 183.68 216.62 183.71 216.39V216.41Z" fill="#F4A143"/>
<path d="M109.85 149.26C112.15 149.31 114.32 148.4 116.37 151.08C118.17 153.43 118.54 154.83 115.84 156.96C119.587 155.993 121.55 158.077 121.73 163.21C123.43 160.95 123.23 154.31 127.68 160.2C128.64 160.54 129.28 161.15 129.42 162.2C129.74 163.28 129.99 164.38 130.4 165.42C131.27 167.65 129.26 168.26 128.2 169.33C126.38 171.17 125.83 168.56 124.63 168.2C124.39 167.63 124.27 167.05 124.34 166.43C124.28 167.04 124.4 167.62 124.69 168.16C124.77 169.11 125.27 170.41 124.84 170.94C123.92 172.05 123.07 170.76 122.47 170.16C119.61 167.31 115.28 164.88 119.24 159.9C118.76 159.66 118.5 159.44 118.21 159.39C116.38 159.1 116.37 163.07 113.99 161.31C111.79 159.68 112.88 158.1 114.08 156.27C114.83 155.13 113.37 155.33 112.65 155.3C110.76 152.7 111.3 157.87 109.71 156.22C107.95 155.13 105.59 154.25 105.69 151.87C105.79 149.61 108.69 150.57 109.85 149.28V149.26Z" fill="#16080C"/>
<path d="M137.68 76.21C137.05 73.35 136.54 70.46 133.72 68.71C132.34 67.85 132.66 66.73 133.21 65.31C134.08 63.07 135.17 60.74 134.21 58.19C137.72 57.69 140.18 57.98 137.83 62.5C137.25 63.61 137.16 64.98 136.82 66.35C138.9 66.47 138.98 64.89 139.52 63.87C140.09 62.79 140.11 60.97 142.05 62.1C143.34 62.85 143.78 64.04 142.86 65.47C142.41 66.16 141.98 66.87 141.64 67.62C141.14 68.72 139.19 69.19 140.1 70.84C140.35 71.28 141.26 71.68 141.77 71.59C143.38 71.28 143.48 69.9 143.66 68.53C143.85 67.16 143.86 65.04 146.13 66.16C147.56 66.86 148.79 68.29 147.61 70.24C147.27 70.8 146.85 71.31 146.48 71.86C145.72 72.99 143.92 73.91 145.5 75.59C146.21 76.35 147.28 76.61 148.25 76.21C150.58 75.26 148.46 74.09 148.29 73.04C148.14 72.13 148.26 71.23 149 70.87C150.51 70.13 151.04 71.63 151.57 72.49C152.23 73.58 154.37 74.38 152.74 76.15C151.97 76.99 150.97 77.62 150.08 78.35C148.6 78.95 146.98 78.44 145.49 78.95C142.27 79.82 140.57 76.29 137.67 76.22L137.68 76.21Z" fill="#190C14"/>
<path d="M149.64 50.1599C151.31 49.9699 151.96 48.48 153.05 47.53C153.77 46.9 155.25 45.88 155.41 46.03C158.47 49.06 162.85 45.44 165.88 48.18C168.25 49.24 167.42 51.83 168.45 53.53C168.51 53.75 168.56 53.97 168.61 54.19C170.43 58.84 165.64 60.45 164.21 63.62C163.93 64.25 163.1 64.15 162.52 63.59C161.8 62.89 160.94 62.19 161.5 61.08C161.86 60.37 162.46 59.75 163.05 59.18C164.25 58.03 165.84 56.5599 163.92 55.2899C162.16 54.1299 161.7 56.2199 161.04 57.5399C160.34 58.9199 159.59 61.04 157.45 59.69C155.5 58.47 156.47 56.54 157.52 55.36C159.06 53.63 160.47 52.19 158.17 50.05C157.73 50.75 157.38 51.54 156.83 52.13C155.5 53.54 155 57.16 153.57 56.48C151.58 55.53 149.63 53.0999 149.65 50.1599H149.64Z" fill="#211116"/>
<path d="M176.02 188.58C176.83 194.4 174.64 195.99 168.71 193.86C169.79 196.12 172 198.21 168.77 200.24C167.33 201.14 166.52 200.63 165.92 199.61C164.89 197.85 162.87 195.87 164.48 193.87C166.38 191.52 168.52 187.82 172.15 192.29C172.43 191.56 172.72 191.08 172.63 190.99C168.8 187.32 169.12 184.24 173.5 181.11C175.32 179.82 176.42 177.53 177.9 175.75C178.69 174.79 179.62 174.14 180.85 175.21C181.88 176.11 182.27 177.23 181.22 178.2C179.36 179.92 180.26 184.94 175.3 183.1C174.46 182.79 173.59 184.13 173.9 185.23C174.15 186.14 175.02 186.34 175.91 185.99C176.21 185.87 176.47 185.61 176.77 185.5C178.42 184.89 180.06 184.66 181.24 186.33C181.92 187.29 181.45 188.21 180.78 189.02C179.09 191.06 177.87 188.53 176.03 188.57L176.02 188.58Z" fill="#1B0D10"/>
<path d="M185.6 109.11C185.62 109.76 185.54 110.44 185.68 111.07C186.06 112.89 184.82 113.84 183.68 114.73C182.51 115.64 181.94 114.47 181.39 113.73C180.43 112.41 179.35 111.19 180.67 109.33C181.45 108.23 183.85 107.35 181.92 105.36C181.7 105.14 180.78 105.16 180.74 105.26C180.03 107.32 177.89 108.82 178.18 111.19C178.29 112.07 179.3 112.81 179.68 113.71C180.24 115.05 182.64 116.36 180.56 117.87C178.59 119.3 176.58 117.37 175.4 116.26C172.99 114 173.24 113.73 171.76 117.13C171.59 118.41 170.88 119.13 169.6 119.3C170.2 115.51 169.23 111.04 174.57 109.49C176.64 108.89 175.1 107.43 174.62 106.35L174.55 106.46C175.84 105.24 177.08 103.96 178.43 102.81C179.43 101.96 179.94 99.99 181.89 100.99C183.46 101.8 184.31 103.15 184.4 104.91C184.48 106.46 184.1 108.12 185.69 109.2L185.59 109.1L185.6 109.11Z" fill="#201315"/>
<path d="M183.7 158.29C184.06 157.89 184.42 157.5 184.77 157.1C185.56 156.27 186.51 155.55 187.12 154.59C188.67 152.16 190.58 152.51 192.59 153.78C194.9 155.24 194.29 156.99 192.96 158.75C192.74 159.03 192.48 159.3 192.27 159.59C192.45 159.34 192.65 159.1 192.89 158.84C195.01 155.68 197.62 154.5 201.11 156.61C202.73 158.62 204.38 160.64 203.5 163.51C203.29 163.95 202.98 164.32 202.57 164.59C202.26 164.69 201.89 164.83 201.61 164.71C198.25 163.26 195.84 164.63 193.83 167.26C189.67 166.2 185.23 165.48 185.69 159.5C185.79 158.18 184.81 157.97 183.7 158.27V158.29Z" fill="#1B1018"/>
<path d="M117.44 92.18C117.76 91.81 118.07 91.42 118.41 91.07C120.13 89.34 120.82 86.05 123.17 85.74C125.99 85.37 125.46 89.25 127.13 90.69C127.57 91.07 128.24 91.18 128.92 91.46C129.66 89.24 125.47 84.86 131.65 85.55L131.61 85.76C131.32 87.58 132.75 88.77 133.29 90.28C133.8 91.71 135.14 93.01 133.48 94.73C131.84 96.41 130.64 95.15 129.4 94.07C128.4 96.21 129.68 99.08 127.26 99.58C124.98 100.06 123.45 98.21 122.64 96.06C122.99 95.79 123.31 95.49 123.66 95.22C123.28 95.46 123.05 95.85 122.73 96.15C121.03 94.75 117.96 95.16 117.45 92.17L117.44 92.18Z" fill="#140B14"/>
<path d="M156.72 122.04C159.37 120.85 162.15 119.69 161.93 124.4C161.85 126.16 162.73 125.51 163.57 125.8C165.92 126.61 166.74 128.88 166.79 130.94C166.85 133.24 165.05 132.72 163.22 132.73C160.78 132.74 162.36 135.82 161.09 137.24C158.14 136.8 157.45 133.41 154.67 132.52C152.73 131.9 153.6 129.74 154.75 128.33C156.27 126.46 157.33 124.45 156.78 121.93L156.71 122.04H156.72Z" fill="#26181D"/>
<path d="M134.18 58.1599C133.5 59.6299 133.1 61.38 132.05 62.51C130.95 63.69 133.47 67.38 129.58 66.31C127.08 65.62 124.39 64.67 125.4 60.95C125.71 59.8 126.3 58.21 124.03 58.18C122.5 58.16 122.61 59.07 122.88 60.11C121.84 59.87 121.16 59.21 120.71 58.27C121.11 56.04 118.42 50.69 124.78 54.65C127.07 56.07 126.87 53.59 126.46 52.19C126.16 51.18 124.59 50.19 125.92 49.2C127.51 48.02 128.12 49.96 128.99 50.75C130.07 51.73 131.46 52.53 131.57 54.24C131.64 54.58 131.18 54.88 131.5 55.24C131.89 54.71 132.44 54.49 133.08 54.46C134.71 55.32 134.85 56.6199 134.19 58.1599H134.18Z" fill="#190D13"/>
<path d="M196.51 85.22C199.23 86.3 201.87 86.7 203.73 84.15C205.83 84.79 203.22 88.36 206.58 87.71C206.99 89.91 207.2 92.1 206.48 94.28C204.13 94.73 203.42 96.95 202.03 98.43C201.51 98.99 201.45 99.95 200.3 99.85C197.49 99.61 200.06 95.3 196.17 95.1C192.4 94.9 194.32 92.11 195.37 90C196.08 88.57 196.16 86.82 196.52 85.22H196.51Z" fill="#1C0E14"/>
<path d="M160.66 117.62C157.61 117.1 154.65 115.69 154.82 111.83C154.97 108.53 157.26 106.43 160.69 106.18C163.93 105.94 166.88 109.23 166.74 112.69C166.63 115.51 164.1 117.68 160.66 117.62Z" fill="#0F0D1C"/>
<path d="M159.75 191.17C156.69 190.84 154.28 189.68 154.32 186.44C154.37 182.8 156.63 180.53 160.26 180.51C163.32 180.49 165.92 182.12 165.87 185.5C165.81 189.25 163.05 190.75 159.75 191.18V191.17Z" fill="#120D24"/>
<path d="M167.69 47.21C169.76 46.24 172.04 45.64 173.7 43.91C176.81 43.74 178.43 45.76 179.88 48.06C180.53 49.09 181.11 50.11 179.85 51.07C178.96 51.75 178.02 52.82 177.08 52.83C175.92 52.85 175.21 51.44 175.07 50.33C174.93 49.27 175.91 47.72 173.67 48.18C171.4 48.65 172.61 50.28 172.91 51.29C173.6 53.62 175.16 55.95 171.82 57.73C169.88 57.4 170.9 54.19 168.6 54.18L168.72 54.23C167.13 52.07 166.57 49.76 167.69 47.21Z" fill="#170F15"/>
<path d="M133.72 153.17C135.35 152.13 135.43 149.58 137.65 149.12C139.43 149.79 141.22 149.5 143.04 149.26C144.54 149.07 146.15 149 146.91 150.69C147.59 152.19 146.46 153.14 145.57 154.12C143.96 155.91 143.01 154.41 141.96 153.41C141.49 152.97 141.06 152.44 140.2 152.77C139.58 154.35 141.2 154.96 141.78 155.98C142.66 157.51 141.46 158.08 140.69 158.82C140.03 159.45 139.03 160.62 138.3 159.32C137.03 157.04 133.93 156.17 133.7 153.17H133.72Z" fill="#140C15"/>
<path d="M143.74 111.13C145.07 109.81 147.23 113.23 148.28 110.34C149.47 109.46 150.09 110.17 150.61 111.17C150.6 113.85 150.59 116.53 150.57 119.21C149.74 120.43 150.9 122.62 148.67 123.16C147.65 124.46 146.66 126.11 144.79 124.35C142.83 122.51 144.85 121.59 145.82 120.42C146.45 119.67 147.07 118.89 147.58 118.05C148.17 117.07 149 115.77 147.75 114.98C146 113.88 146.25 115.77 145.77 116.64C144.67 118.66 143.04 119.59 140.94 118.14C138.58 116.5 140.72 115.5 141.64 114.3C142.43 113.27 143.08 112.13 143.8 111.04L143.73 111.12L143.74 111.13Z" fill="#190E18"/>
<path d="M144.41 78.31C146.3 78.31 148.19 78.3301 150.09 78.3401C146.13 78.8101 146.79 83.54 143.74 85.19C142.25 86 141.46 87.36 139.72 86.02C138.92 84.86 138.16 83.66 137.3 82.54C134.82 79.32 136.62 78.36 139.64 78C141.32 76.75 142.71 79.85 144.41 78.31Z" fill="#211217"/>
<path d="M117.23 217.07C114.57 216.25 112.55 214.72 112.85 211.81C113.12 209.2 114.95 207.74 117.75 208.03C120.44 208.31 122.27 210.04 122.28 212.51C122.29 215.41 119.89 216.6 117.22 217.07H117.23Z" fill="#141627"/>
<path d="M146.46 187.1C153.44 185.15 151.35 191.17 152.68 194.18C150.9 194.8 149.54 195.96 148.44 197.47C147.27 199.08 146.21 198.97 144.9 197.5C143.73 196.18 143.16 195.15 144.9 193.88C145.55 193.41 146.08 192.71 146.53 192.03C146.94 191.41 148 190.66 147.09 189.95C146.02 189.11 145.58 190.85 144.64 190.95C143.28 188.74 143.09 187.09 146.46 187.12V187.1Z" fill="#35221F"/>
<path d="M151.79 107.23C150.73 105.41 149.78 103.52 148.57 101.8C147.41 100.14 147.4 99 149.14 97.71C151.01 96.32 151.95 97.1 153.07 98.67C153.76 99.65 154.13 101.14 155.73 101.23L155.62 101.13C157.53 105.25 154.16 105.89 151.68 107.13L151.79 107.24V107.23Z" fill="#160D17"/>
<path d="M129.42 162.2C128.84 161.53 128.26 160.87 127.68 160.2C127.85 157.02 129.78 155.57 132.69 155.08C133.59 156.46 134.42 157.88 135.4 159.19C136.55 160.72 136.8 161.92 135.13 163.38C133.3 164.98 132.61 163.43 131.5 162.55C130.96 162.12 130.4 160.5 129.42 162.2Z" fill="#311F1F"/>
<path d="M148.68 123.16C149.31 121.84 149.95 120.52 150.58 119.21C150.88 119.73 150.57 121.29 151.78 120.4C154.38 118.49 155.46 120.36 156.72 122.05L156.79 121.94C155.62 123.46 154.51 125.05 153.24 126.5C152.39 127.47 152.02 129.56 150.02 128.57C147.96 127.54 148.67 125.99 149.49 124.45C149.89 123.7 149.47 123.27 148.68 123.17V123.16Z" fill="#2D1A1C"/>
<path d="M140.65 185.18C137.51 188.86 137.47 188.88 135.4 184.86C135.07 184.21 134.67 184.38 134.27 184.36C132.74 184.31 131.48 183.61 131.99 182.05C132.45 180.63 133.85 179.82 135.56 180.21C137.12 180.62 138.55 181.46 140.25 181.36C141.4 181.3 142.66 181.36 143.02 182.76C143.54 184.76 141.47 184.39 140.65 185.18Z" fill="#13080A"/>
<path d="M170.68 181.16C168.99 180.8 167.51 179.08 167.81 178.65C169.64 176.11 171.7 173.63 174.11 171.66C174.91 171 175.69 172.82 175.72 174C175.8 177.73 172.79 179.16 170.68 181.16Z" fill="#170D16"/>
<path d="M169.62 122.16C170.26 123.11 170.83 124.12 171.56 124.99C173.34 127.12 171.27 128.49 170.15 128.67C167.61 129.07 166.31 126.6 164.99 124.93C164.18 123.91 163.99 122.01 165.28 120.83C167.42 118.87 168.37 121.24 169.68 122.23L169.61 122.16H169.62Z" fill="#160B16"/>
<path d="M150.62 111.16C149.84 110.88 149.06 110.61 148.29 110.33C146.36 109.61 144.86 108.35 143.72 106.65C142.99 105.57 141.83 104.46 143.16 103.16C144.56 101.8 145.62 103 146.47 103.99C147.91 105.67 149.38 107.2 151.8 107.23L151.69 107.12C151.51 108.51 152.2 110.13 150.63 111.16H150.62Z" fill="#150912"/>
<path d="M169.61 119.29C170.33 118.57 171.05 117.84 171.77 117.12C173.15 117.05 174.47 117.34 175.45 118.29C176.43 119.24 178.37 119.88 177.47 121.76C176.63 123.51 175.34 123.89 173.46 122.68C172.47 122.05 170.92 122.3 169.62 122.16L169.69 122.23C169.66 121.25 169.63 120.27 169.61 119.29Z" fill="#160910"/>
<path d="M140.65 185.18C141.25 184.46 141.86 183.75 143.26 182.09C139.45 183.49 136.85 183.49 135.56 180.21C135.92 179.86 136.28 179.51 136.64 179.16C138 178.19 139.38 179.48 140.75 179.1C141.74 178.91 142.65 182.81 143.72 179.16C145 180.88 146.24 182.66 148.78 182.43C148.06 183.04 147.35 183.65 146.63 184.25C144.9 184.68 145.02 187.54 142.73 187.23C142.73 185.86 142.15 185.06 140.66 185.17L140.65 185.18Z" fill="#956E4F"/>
<path d="M109.67 39.19C113.31 33.59 114.76 33.06 117.7 35.99C119.82 38.1 119.95 39.87 117.21 41.7C115.69 40.12 115.19 35.8 111.56 39.24C110.92 39.73 110.29 39.72 109.67 39.2V39.19Z" fill="#1A0D13"/>
<path d="M131.61 85.75L131.66 85.54C132.61 83.14 133.85 82.57 135.76 84.74C136.58 85.68 137.66 86.39 138.62 87.2C139.81 88.49 140.01 89.7 138.39 90.84C136.8 91.95 136.03 90.73 135.17 89.77C133.97 88.44 132.8 87.09 131.61 85.75Z" fill="#1B0B0D"/>
<path d="M142.72 187.23C144.45 186.8 142.53 181.58 146.62 184.25C146.57 185.2 146.51 186.14 146.46 187.09C144.23 187.6 144.76 189.41 144.64 190.92C142.83 190.53 142.37 194.9 139.9 192.24C138.42 190.63 139.33 189.6 140.68 188.64C141.35 188.16 142.04 187.69 142.72 187.22V187.23Z" fill="#19080D"/>
<path d="M143.81 111.05C142.16 111.59 140.12 110.57 138.76 112.43C138.01 113.46 136.91 114.85 135.94 112.7C135.32 111.32 134.01 110.13 136.83 108.58C140.85 106.37 142.52 107.32 143.73 111.14L143.81 111.06V111.05Z" fill="#1D0B12"/>
<path d="M151.64 170.63V170.66C151.7 170.02 151.71 169.37 151.84 168.74C152.15 167.25 151.12 165.29 152.98 164.37C155.07 163.33 156.12 165.29 157.47 166.3C158.74 168.85 157.14 170.39 155.34 171.59C154.02 172.47 152.47 172.51 151.64 170.63Z" fill="#231212"/>
<path d="M206.67 161.06C206.67 163.32 207.54 165.64 206.16 167.79C205.07 169.1 203.99 170.42 202.73 171.94C201.21 169.7 202.19 167.93 201.83 166.31C202.19 165.61 201.88 164.64 202.71 164.12L202.63 164.19C204.15 163.36 204.22 160.67 206.68 161.05L206.67 161.06Z" fill="#210E0D"/>
<path d="M199.64 166.24C199.92 167.16 200.4 168.07 200.43 168.99C200.46 170.21 200.6 171.86 199.09 172.23C197.86 172.53 197.25 171.2 196.65 170.25C196.22 169.57 195.77 168.91 195.33 168.24C195.95 164.16 196.62 163.85 199.64 166.25V166.24Z" fill="#291414"/>
<path d="M109.67 39.19C110.3 39.2 110.93 39.21 111.56 39.23C112.51 39.86 113.51 40.42 114.41 41.13C115.3 41.83 116.48 42.62 115.22 43.9C114.43 44.7 113.43 44.71 112.56 43.9C111.14 42.58 109.5 41.96 107.56 42.2C107.56 42.2 107.66 42.3 107.66 42.31C107.89 40.99 107.08 38.99 109.67 39.21V39.19Z" fill="#15060A"/>
<path d="M151.64 170.63C156.54 173.16 155.56 167.79 157.47 166.3C158.18 166.24 158.89 166.19 159.6 166.13C158.31 168.34 159.05 171.2 155.85 172.97C152.08 175.06 152.04 173.19 151.64 170.63Z" fill="#B97F5B"/>
<path d="M199.64 166.24C196.89 164.06 195.81 165.5 195.33 168.23C194.83 167.91 194.34 167.59 193.84 167.27C194.82 165.23 195.8 163.18 196.95 160.76C198.92 162.1 199.61 165.49 202.69 164.13C202.4 164.86 202.1 165.59 201.81 166.32C201.12 165.44 200.4 165.04 199.63 166.24H199.64Z" fill="#BF7B4D"/>
<path d="M185.7 109.21C185.42 107.37 185.07 105.34 187.36 104.61C189.01 104.09 189.51 105.68 190.12 106.86C190.68 107.96 190.15 108.83 189.5 109.58C188.02 111.31 186.88 109.46 185.6 109.11L185.7 109.21Z" fill="#201315"/>
<path d="M196.54 128.42C195.92 128.98 195.29 129.55 194.67 130.11C192.02 131.25 191.57 128.93 190.88 127.46C190.37 126.37 191.55 125.66 192.45 125.33C195.32 124.27 195.27 127.25 196.53 128.42H196.54Z" fill="#1F0B10"/>
<path d="M111.58 68.23C111.23 69.97 110.25 70.92 108.84 70.92C107.3 70.92 106.56 69.73 106.56 68.25C106.56 66.63 107.67 65.74 109.08 65.77C110.58 65.8 111.14 67.17 111.59 68.23H111.58Z" fill="#1B1115"/>
<path d="M185.6 181.15C184.75 182.52 184.56 184.62 182.47 184.94C181.62 185.07 181.12 184.04 181.33 183.17C181.74 181.51 181.68 179.34 183.55 178.72C184.55 178.39 185.37 179.8 185.6 181.15Z" fill="#29110C"/>
<path d="M140.46 39.37C140.16 40.79 139.31 41.4 138.32 41.48C136.6 41.61 135.45 40.55 135.22 38.96C135.04 37.7 136.27 36.43 137.23 36.74C138.51 37.15 139.47 38.52 140.46 39.37Z" fill="#2A140C"/>
<path d="M177.21 74.23C177.01 75.77 175.9 76.36 174.52 76.43C173.43 76.48 171.85 76.52 171.89 75.05C171.93 73.53 173.21 72.4299 174.76 72.2199C176.04 72.0399 176.8 72.99 177.22 74.23H177.21Z" fill="#18090F"/>
<path d="M160.7 164.09C160.36 164.45 160.03 164.81 159.69 165.18C159.34 164.86 158.89 164.6 158.67 164.2C157.87 162.75 157.14 161.25 158.84 159.9C159.54 159.34 160.32 159.35 161.05 159.92C163.03 161.48 161.21 162.73 160.7 164.09Z" fill="#351C12"/>
<path d="M206.71 175.11C208.37 177.51 207.54 180.16 207.47 182.73C204.26 180.32 204 177.64 206.71 175.11Z" fill="#08040E"/>
<path d="M109.71 156.2C109.18 152.79 111.37 151.92 114.23 151.53C114.82 153.26 113.23 154.07 112.65 155.28C111.96 156.52 111.4 158.17 109.71 156.2Z" fill="#A26F45"/>
<path d="M193.57 198.15C195.237 199.43 196.203 201.447 196.47 204.2C191.34 204.7 193.9 200.18 192.55 198.21C192.89 198.19 193.23 198.17 193.57 198.15Z" fill="#C18459"/>
<path d="M149.62 149.46C148.21 149.23 146.99 148.63 147.08 147.04C147.15 145.86 148.01 144.6 149.26 144.87C150.53 145.15 151.31 146.52 151.54 147.84C151.78 149.24 150.61 149.32 149.61 149.46H149.62Z" fill="#2A0F0F"/>
<path d="M171.68 147.01C173.25 147.15 174.17 147.86 174.12 149.17C174.07 150.48 172.98 151.1 171.79 151.26C170.69 151.41 169.7 150.76 169.59 149.74C169.42 148.21 170.74 147.59 171.68 147V147.01Z" fill="#31140D"/>
<path d="M201.27 196.46C199.24 194.6 198.11 193.2 199.4 191.01C199.79 190.36 200.65 190 201.04 190.49C202.26 192.05 201.91 193.87 201.27 196.45V196.46Z" fill="#310D06"/>
<path d="M191.19 34.21C192.6 34.88 193.65 35.55 193.37 36.88C193.12 38.04 192.19 39.02 190.95 38.99C189.72 38.96 189.54 37.81 189.58 36.78C189.63 35.53 190.36 34.78 191.19 34.21Z" fill="#280E0B"/>
<path d="M144.48 139.22C143.24 140.71 143.97 144.64 139.93 142.94C140.42 140.72 142.26 139.71 143.52 138.27C143.84 138.59 144.16 138.91 144.48 139.22Z" fill="#D6A570"/>
<path d="M133.07 54.45C131.54 56.08 131.79 58.91 129.35 60.05C126.79 56.76 130.75 56.11 131.56 54.24C132.06 54.31 132.56 54.38 133.07 54.46V54.45Z" fill="#E3A979"/>
<path d="M139.65 216.8C138.5 217.39 137.35 217.98 136.15 218.6C134.72 216.55 136.15 215.16 137.37 214.41C138.63 213.63 139.27 215.1 139.68 216.2C139.68 216.4 139.68 216.6 139.64 216.8H139.65Z" fill="#F4A143"/>
<path d="M148.66 49.93C148.53 48.51 148.17 47.05 148.37 45.68C148.48 44.92 149.38 43.97 150.14 43.66C151.5 43.1 150.92 45.16 151.91 45.33C150.08 46.48 149.31 48.11 149.71 50.25C149.36 50.14 149.01 50.04 148.66 49.93Z" fill="#211116"/>
<path d="M127.93 123.8C126.7 123.83 126.82 127.26 124.81 125.11C124.2 124.45 123.78 123.15 124.63 122.43C126.55 120.8 126.7 123.55 127.86 123.91L127.93 123.8Z" fill="#120B17"/>
<path d="M140.74 179.1C139.42 182.32 138.01 179.68 136.63 179.16C136.34 178.05 136.63 177.2 137.86 177.04C139.4 176.84 140.18 177.85 140.74 179.1Z" fill="#1D0D0A"/>
<path d="M12.65 364.08C15.44 364.69 17.3 363.23 18.83 361.21C20.95 358.42 22.06 359.33 22.75 362.17C21.45 361.85 20.16 362.35 19.81 363.42C17.86 369.38 15.23 366.08 12.65 364.08Z" fill="#F4A143"/>
<path d="M53.65 390.2C53.86 389.43 54.02 388.65 54.29 387.9C54.82 386.44 55.46 384.93 57.39 386.25C59.38 387.6 57.62 388.73 57.03 389.93C56.53 390.97 55.74 391.34 54.64 391.14C54.31 390.83 53.98 390.51 53.66 390.2H53.65Z" fill="#EBAD5D"/>
<path d="M177.3 24.37C176.05 25.97 174.8 27.56 173.37 29.4C172.19 27.36 172.77 25.8 172.83 24.27C174.32 24.31 175.81 24.34 177.3 24.37Z" fill="#E2B361"/>
<path d="M200.66 157.17C197.61 156.31 194.88 156.7 192.7 159.22L192.8 159.32C192.31 157.69 194.07 155.9 191.42 154.27C188.26 152.32 188.58 155.8 187.07 156.18C186.28 156.38 185.54 156.79 184.78 157.11C185.18 156.21 185.5 155.27 185.99 154.42C187.82 151.26 187.55 149.17 183.4 148.66C182.27 148.52 180.07 148.81 180.36 147.25C180.77 145.08 182.29 145.93 183.68 146.95C184.95 147.87 185.69 147.26 186.68 145.84C188.68 142.96 191.36 140.55 193.8 138.04C196.97 134.77 200.5 137.12 203.75 138.85C204.55 139.28 205.59 139.25 206.52 139.44C206.57 144.89 206.63 150.35 206.68 155.8C205.47 157.47 203.21 156.27 201.86 157.58C201.39 157.67 200.99 157.54 200.66 157.2V157.17Z" fill="#F5AB56"/>
<path d="M201.59 157.14C202.53 153.86 204.49 154.39 206.68 155.78C206.66 157.38 206.63 158.97 206.61 160.57C203.59 161.4 202.06 160.04 201.59 157.14Z" fill="#210E0D"/>
<path d="M201.59 157.14C202.69 159.12 204.28 160.39 206.61 160.57C206.72 160.73 206.74 160.89 206.67 161.07C205.29 162.07 205.57 165.22 202.62 164.21C203.81 161.35 200.49 159.75 200.66 157.17C200.97 157.15 201.28 157.14 201.58 157.14H201.59Z" fill="#BF7B4D"/>
<path d="M42.74 314.09C42.39 315.43 42.04 316.77 41.68 318.11C38.13 319.68 38.53 317.25 38.65 315.11C40.01 314.77 41.37 314.43 42.73 314.09H42.74Z" fill="#F4A143"/>
<path d="M118.78 81.27C118.12 81.76 117.48 82.29 116.78 82.72C115.87 83.29 115.13 84.56 113.82 83.8C113.13 83.4 113.43 82.64 113.69 82.03C114.39 80.38 115.53 80.63 116.87 81.19C117.44 81.43 118.17 81.3 118.83 81.34L118.78 81.28V81.27Z" fill="#C2946E"/>
<path d="M21.62 351.98C19.57 353.82 20.43 356.36 17.93 356.83C17.24 356.96 16.6 356.28 16.7 355.63C17.04 353.53 18.28 352.32 21.61 351.99L21.62 351.98Z" fill="#DEAA6E"/>
<path d="M16.27 359.24C16.37 360.4 15.78 361.03 14.63 361.1C13.57 361.17 12.21 360.65 12.4 359.75C12.61 358.71 13.68 357.39 14.66 357.08C15.76 356.73 15.71 358.43 16.27 359.24Z" fill="#DFAD74"/>
<path d="M55.87 301.89C55.89 302.91 55.36 303.32 54.37 303.24C53.1 303.13 52.06 302.45 52 301.23C51.93 299.79 53.29 300.18 54.16 300.11C55.4 300.01 55.92 300.7 55.86 301.89H55.87Z" fill="#F2A05D"/>
<path d="M83.64 418.14C82.52 416.34 79.49 415.17 82.56 412.22C83.87 410.96 81.24 409.55 80.63 408.1C83.18 408.15 86 410.62 88.18 407.2C88.52 406.66 89.36 406.63 89.95 407.16C90.79 407.92 90.32 408.6 89.8 409.3C88.99 410.38 88.07 411.51 86.72 411.66C81.99 412.19 84.01 414.36 85.45 416.44C84.84 417.01 84.24 417.58 83.63 418.15L83.64 418.14Z" fill="#DB9D5D"/>
<path d="M101.88 288.19C103.55 289 104.54 290.18 104.38 292C104.33 292.6 103.49 293.22 102.91 292.7C101.61 291.55 101.02 290.07 101.87 288.19H101.88Z" fill="#CE996D"/>
<path d="M134.42 254.66C134.75 251.64 137.04 250.19 140.45 250.18C144.32 250.17 147.04 251.99 147.18 255.95C147.31 259.71 144.62 261.62 141.13 261.96C137.77 262.29 134.35 258.7 134.42 254.67V254.66Z" fill="#0B0C20"/>
<path d="M103.1 299.7C106.45 300.16 109.48 301.28 109.66 305.15C109.83 308.68 107.01 309.43 104.2 309.32C100.88 309.19 97.73 308.25 97.64 304.16C97.57 300.69 100.38 300.11 103.1 299.7Z" fill="#14101A"/>
<path d="M42.9 338.91C47.47 338.61 49.67 340.66 49.16 346.49C46.62 343.72 44.59 341.5 42.55 339.28C42.63 339.12 42.75 339 42.9 338.91Z" fill="#D79C60"/>
<path d="M93.65 341.21C93.44 336.01 96.03 338.83 98.07 339.49C97 341.74 95.12 340.9 93.59 341.15L93.65 341.21Z" fill="#AC7852"/>
<path d="M126.66 214.17C128.6 215.27 134.01 214 129.95 219.32C128.03 218.07 127.45 216.04 126.7 214.13L126.65 214.18L126.66 214.17Z" fill="#F7A44D"/>
<path d="M148.61 305.2C148.29 305.11 147.9 305.12 147.68 304.93C146.39 303.84 143.96 304.14 143.73 301.84C143.69 301.47 144.86 300.57 145.01 300.66C146.75 301.74 148.85 302.62 148.53 305.28L148.62 305.2H148.61Z" fill="#F4A143"/>
<path d="M175.59 301.36C177.89 302.79 180.32 304.13 180.5 307.32C174.76 308.52 175.61 304.58 175.66 301.28L175.59 301.36Z" fill="#DE985E"/>
<path d="M173.64 295.1C174.81 296.19 176.27 296.13 177.72 296.12C176.74 297.76 175.19 299.16 175.59 301.36L175.66 301.28C173.44 299.73 173.31 297.49 173.64 295.1Z" fill="#F4A143"/>
<path d="M125.55 345.18C123.25 344.68 123.24 343.46 123.12 342.66C122.99 341.79 123.82 341.19 124.78 341.38C125.68 341.55 127.12 341.59 127 342.7C126.89 343.74 125.87 344.67 125.56 345.18H125.55Z" fill="#F4A143"/>
<path d="M88.63 317.19C89.21 313.56 91.02 311.01 94.75 310.1C92.45 312.24 93.44 317.22 88.63 317.19Z" fill="#F5B25E"/>
<path d="M81.63 390.04C81.51 390.66 81.56 391.38 81.25 391.87C80.53 393 79.44 393.72 78.05 393.64C77.85 393.63 77.49 392.82 77.55 392.44C77.77 390.86 78.87 390.4 80.34 390.44C80.8 390.45 81.27 390.24 81.73 390.13L81.64 390.04H81.63Z" fill="#F4A143"/>
<path d="M125.72 70.97C129.84 71.05 132.4 72.14 132.67 75.9C132.9 79.11 129.74 82.27 126.44 82.2C122.78 82.12 120.91 79.76 121.01 76.5C121.1 73.38 122.56 70.7 125.72 70.97Z" fill="#1C1A2A"/>
<path d="M144.41 78.31C143.79 79.4634 142.2 79.36 139.64 78C138.99 77.4 138.33 76.81 137.68 76.21C140.4 75.38 142.52 76.48 144.41 78.31Z" fill="#F7A44D"/>
<path d="M163.93 43.37C160.61 42.96 158.25 41.6 158.47 37.75C158.68 34.06 160.67 31.67 164.35 31.83C167.8 31.98 170.47 34.17 170.37 37.83C170.26 41.53 167.52 43.14 163.93 43.36V43.37Z" fill="#1E1830"/>
<path d="M167.69 47.21C166.96 49.71 168.93 51.81 168.72 54.23C167.43 53.98 165.1 55.14 166.07 51.97C166.42 50.83 165.96 49.44 165.87 48.16C166.47 47.84 167.08 47.52 167.68 47.2L167.69 47.21Z" fill="#F7A44D"/>
<path d="M199.12 81.3C195.82 81 193.65 79.22 193.58 75.7C193.49 71.85 196.04 69.82 199.51 69.71C203.05 69.6 204.85 71.91 204.67 75.53C204.5 78.95 203.03 81.18 199.13 81.3H199.12Z" fill="#120E23"/>
<path d="M119.47 147.14C119.61 143.27 122.09 141.82 125.28 141.53C128.68 141.22 131.96 144.4 131.72 147.6C131.43 151.44 128.81 153.23 125.36 153.04C121.95 152.85 119.56 150.87 119.47 147.14Z" fill="#1A1427"/>
<path d="M180.15 28.32C181.56 28.61 182.43 29.43 182.42 30.34C182.4 32.04 180.62 32.49 179.48 33.19C178.64 33.71 177.79 32.37 178 31.85C178.5 30.55 179.45 29.43 180.16 28.32H180.15Z" fill="#E0A15F"/>
<path d="M204.16 57.82C203.99 59.24 202.86 59.64 201.76 59.81C200.68 59.98 199.82 59.26 199.78 58.21C199.72 56.76 201.05 56.46 202.12 56.27C203.22 56.07 203.89 56.77 204.17 57.83L204.16 57.82Z" fill="#CEA35F"/>
<path d="M124.69 168.16C122.47 167.74 121.93 166.4 123.11 164.63C123.55 163.98 124.94 163.37 125.6 163.59C126.77 163.98 126.47 165.11 125.85 166.05C125.39 166.73 125.03 167.48 124.63 168.2L124.69 168.15V168.16Z" fill="#F7A44D"/>
<path d="M192.7 159.21C192.7 159.37 192.68 159.53 192.68 159.69C192.64 161.32 192.66 163.1 190.91 163.83C190.18 164.13 189.35 163.13 189.39 162.32C189.5 160.28 190.56 159.08 192.79 159.3L192.7 159.2V159.21Z" fill="#F5AB56"/>
<path d="M122.72 96.16C122.76 95.84 122.8 95.52 122.84 95.2C122.98 93.75 121.89 91.6 124.33 91.33C125.83 91.16 126.41 92.77 126.44 94.1C126.51 97.18 124.27 96.1 122.64 96.06L122.73 96.16H122.72Z" fill="#D19564"/>
<path d="M199.51 93.79C200.47 91.92 201.42 90.04 202.89 87.16C204.6 91.72 202.32 92.9 199.51 93.79Z" fill="#DBA16D"/>
<path d="M191.68 145.96C192.26 143.28 194.22 140.96 197.99 141.26C202.02 141.58 203.08 144.74 203 148.09C202.9 151.92 200.08 153.19 196.77 152.86C193.38 152.52 191.29 150.58 191.69 145.97L191.68 145.96Z" fill="#0E0D29"/>
</svg>
