<svg width="221" height="423" viewBox="0 0 221 423" fill="none" xmlns="http://www.w3.org/2000/svg">
<path d="M67.38 276.15C79.41 259.22 93.5 243.73 103.17 225.14C103.38 224.74 103.92 224.52 104.31 224.21C105.26 224.76 105.25 225.91 106.13 227C107.81 224.85 108.24 222.44 107.81 220.08C107.11 216.17 108.45 212.96 110.51 209.86C113.53 206.46 114.08 201.25 118.53 198.89C122.94 200.35 127.39 201.73 130.89 205.03C131.09 206.08 130.79 207.02 130.17 207.84C123.63 216.52 119.02 226.27 114.57 236.11C113.68 238.07 112.84 240.12 110.73 241.2C115.56 238 120.27 234.52 126.59 237.02C136.81 238.1 146.93 239.7 153.2 242.06C147.58 240.06 138.24 238.17 128.67 237.33C124.74 236.26 124.03 234.95 126.68 233.02C133.69 227.91 140.9 223.06 148.02 218.1C148.4 217.84 148.98 218.02 149.45 218.17C150.78 219.65 150.17 221.25 149.68 222.81C149.13 224.56 148.89 226.33 149.13 228.16C149.58 231.6 151.48 234.07 154.73 235C158 235.94 159.71 233.33 161.57 231.21C163.29 229.26 162.75 225.45 166.52 225.22C168.5 227.49 168.13 230.32 167.83 232.85C166.89 240.85 170.21 247.45 174.28 253.81C178.17 259.88 183.22 264.91 188.86 269.4C191.14 271.21 194.07 272.55 194.8 275.84C193.16 279.74 190.58 282.78 186.72 284.64C185.18 283.68 183.86 282.45 182.64 281.1C183.79 282.48 185.21 283.55 186.59 284.67C186.74 285.94 186.08 286.91 185.38 287.85C172.93 304.48 161.72 322.01 148.89 338.35C147.44 340.2 146.52 343.42 142.93 342.06C140.95 335.05 138.53 328.17 136.98 322.46C138.52 328.45 141.12 335.55 143.13 342.81C144.2 345.79 142.5 348.02 140.87 350.08C132.19 361.03 123.8 372.24 114.01 382.27C111.68 384.66 109.7 387.35 107.41 389.77C103.62 393.77 102.33 393.46 100.69 388.34C100.54 387.88 100.17 387.49 99.9301 387.05C99.6201 384.51 98.15 382.3 97.85 379.75C94.09 365.73 91.77 351.42 89.27 337.16C88.37 326.15 81.19 318.57 74.66 310.67C70.43 305.55 65.57 301.01 60.86 296.33C68.79 304.29 76.92 312.08 83.13 321.56C86.24 326.31 89.11 331.14 89.22 337.06C91.28 348.57 93.21 360.09 95.76 371.51C96.37 374.24 97.21 376.9 97.83 379.62C98.47 382.61 99.42 385.49 100.64 388.29C103.59 393.84 100.65 397.09 96.4301 400.35C91.1401 404.44 85.64 408.14 79.86 411.47C78.14 412.46 76.43 413.65 74.27 412.67C74.01 412.46 73.73 412.25 73.6 411.95C61.52 384.04 37.6501 370.58 10.8101 360.78C8.96006 360.1 6.85003 360.01 5.53003 358.25C9.32003 351.32 12.76 344.17 18.28 338.35C21.33 340.3 23.56 343.28 26.24 344.56C24.28 342.46 20.3 341.41 19.15 337.51C22.07 332.77 24.84 327.88 30.11 325.24C33.28 324.77 34.67 327.47 36.51 329.09C41.22 333.23 45.35 337.97 49.16 342.96C44.02 336.29 38.29 330.19 31.74 324.9C31.21 324.48 30.83 323.95 31.33 323.24C32.64 318.02 36.85 315.21 40.66 312.07C42.86 311.17 43.98 312.33 45.04 314.11C45.96 315.66 47.04 317.14 47.99 318.69C48.32 319.27 47.22 319 47.87 318.83C48.01 318.8 48 318.65 47.85 318.4C46.97 316.8 45.79 315.39 44.96 313.76C44.55 312.96 44.6099 312.08 45.3199 311.48C46.0999 310.83 46.9199 311.26 47.5699 311.79C49.7099 313.52 50.77 316 51.95 318.38C52.15 318.81 52.3 319.26 52.42 319.71C52.47 322.68 54.85 323.81 56.77 325.33C58.33 326.56 59.71 328.01 61.54 330.1C61.04 327.99 60.67 326.51 60.55 325.01C59.95 317.38 56.88 311.38 49.63 308.02C48.55 307.52 47.7901 306.62 47.3101 305.52C46.0901 304.36 46.17 303.05 47.29 302.03C55.5 294.56 59.94 284.19 67.34 276.11L67.38 276.15Z" fill="#FEDEB8"/>
<path d="M5.56003 358.28C19.61 360.21 31.5899 366.9 42.9799 374.81C50.49 380.03 57.37 386.03 63.89 392.45C69.5 397.97 73.0799 404.56 74.8299 412.19C74.7899 415.18 72.37 415.92 70.27 416.78C59.97 421.06 49.2599 422.86 38.0999 422.04C34.0499 421.74 30.41 420.13 26.64 418.95C23.08 416.9 19.15 415.39 16.27 412.26C5.53999 403.1 -0.249982 391.62 0.550018 377.36C0.920018 370.74 2.14003 364.18 5.56003 358.28Z" fill="#FAA354"/>
<path d="M202.19 0.469986C205.36 2.37999 209.38 -0.0500247 212.42 2.48998C213.2 4.10998 214.98 5.53001 214.57 7.40001C212.75 15.72 212.69 24.5 208.13 32.11C205.69 33.45 203.01 33.3 200.38 33.3C190.13 33.3 179.88 33.44 169.65 33.03C168.55 33.31 167.48 33.18 166.42 32.82C163.74 31.89 160.99 31.7 158.18 32.06C157.03 32.22 155.87 32.23 154.72 32.39C154.22 32.46 153.73 32.47 153.23 32.46C152.7 32.43 152.18 32.39 151.66 32.37C147.6 32.06 143.54 32.28 139.48 32.15C137.69 32.09 135.89 32.04 134.4 30.82C132.15 22.47 132.58 13.89 132.16 5.39C132.51 12.59 132.23 19.83 133.55 26.97C133.79 28.28 134.17 29.57 133.32 30.8C131.66 31.92 130.02 31.91 128.39 30.76C126.61 22.27 126.3 13.61 125.26 5.41997C125.35 4.35997 126.42 4.95997 125.76 4.85997C125.43 4.80997 125.32 4.88 125.27 4.98C125.22 5.09 124.97 5.17997 124.98 5.22997C126.57 12.51 126.21 20.05 127.81 27.34C128.05 28.43 128.07 29.66 127.41 30.74C125.45 32.17 123.47 32.16 121.47 30.84C119.48 22.95 119.8 14.83 118.8 7.21996C119.27 14.66 120.4 22.45 120.66 30.3C119.77 31.31 118.69 31.37 117.5 30.98C114.61 26.3 115.19 20.8 113.9 15.74C113.71 14.98 113.95 14.12 113.39 13.43C112.46 10.37 113.07 7.15999 111.92 4.12999C113.11 7.35999 112.2 10.84 113.77 14.01C113.85 17.83 114.92 21.48 115.55 25.21C115.87 27.12 116.46 29.1 115.22 30.95C111.55 32.76 107.94 32.93 104.39 30.64C101.91 29.73 102.89 26.85 101.39 25.38C99.4301 22.58 100.27 19.2 99.47 16.16C99.54 15.91 99.5301 15.66 99.4301 15.42C98.4801 11.42 98.64 7.41999 99.35 3.40999C104.39 1.42999 109.76 1.68998 114.97 1.64998C144.05 1.39998 173.11 0.00999586 202.19 0.479996V0.469986Z" fill="#98A363"/>
<path d="M47.34 305.56C55.35 308.28 60.56 313.3 61.49 322.16C61.9 326.05 63.3901 329.8 63.3101 334.63C59.6101 330.19 56.16 326.45 52.13 323.38C50.28 321.97 51.26 320.58 51.35 319.1C51.69 319 52.21 319.21 52.28 319.14C54.3534 317.007 56.36 317.563 58.3 320.81C57.65 318.34 56.5999 316.25 54.1899 315.8C51.6899 315.33 52.85 318.45 51.45 319.23C49.58 316.67 47.71 314.11 45.3 310.8C45.52 315 48.64 316.85 49.53 320.2C45.5 318.31 45.21 312.84 40.71 312.12C41.97 309.59 43.78 308.16 47.3 309.44C44.32 307.52 44.89 306.4 47.35 305.58L47.34 305.56Z" fill="#333137"/>
<path d="M99.34 3.39999C99.37 7.39999 99.39 11.41 99.42 15.41C97.71 11.42 97.8 7.40999 99.34 3.39999Z" fill="#B6D9D1"/>
<path d="M99.4699 16.16C100.11 19.23 100.75 22.3 101.39 25.38C98.47 22.78 99.5299 19.36 99.4699 16.16Z" fill="#B6D9D1"/>
<path d="M154.05 31.44C154.47 31.42 154.88 31.4 155.3 31.38C158.14 32.51 158.52 35.35 159.8 37.63C164.39 45.8 170.23 52.47 180.43 53.25C182.95 53.44 183.97 55.56 185.44 57.01C187.89 59.44 190.59 61.79 191.11 65.54C188.77 70.8 188.26 77.11 182.11 80.16C179.97 81.22 177.76 81.55 175.58 82.22C172.7 82.54 173.04 84.89 172.84 86.76C172.48 90.28 170.96 91.56 167.54 89.95C165.95 89.21 163.71 88.55 164.51 91.49C165.59 95.44 163.14 96.32 160.27 97.05C162.797 100.617 162.273 103.25 158.7 104.95C159.06 106.5 163.33 107.19 160.24 109.65C164.11 109.84 161.18 116.09 166.1 115.92C169.16 115.82 167.32 119.04 167.82 120.94C170.12 121.12 171.51 117.85 174.04 119.07C175.62 119.83 175.47 121.55 175.83 123.06C176.21 122.52 176.17 122.03 176.28 121.58C176.72 119.8 175.33 116.96 177.92 116.5C179.91 116.14 180.37 118.82 181.23 120.37C182.23 122.18 183.46 123.68 185.63 124.08C189.45 124.6 192.15 121.95 195.31 120.65C200.85 118.37 204.14 120.76 203.49 126.77C203.27 128.76 203.03 130.83 202.04 132.56C200.29 135.6 199.37 138.35 201.48 141.8C202.82 143.98 201.15 145.27 198.8 144.93C196.11 144.53 193.94 143.09 193.78 140.19C193.61 137.14 192.01 136.62 189.52 136.98C187.51 136.79 187.09 134.94 186.16 133.8C192.38 143.6 198.09 153.85 203.79 164.09C204.19 164.81 204.59 165.55 204.9 166.32C205.67 168.26 207.52 170.63 205.22 172.12C203.33 173.35 202.44 170.48 201.13 169.43C197.76 166.73 195.2 163.16 191.69 160.61C189.29 159.26 187.78 156.83 185.43 155.41C184.8 154.89 184.03 154.54 183.76 154.24C183.99 154.46 184.61 154.88 185.23 155.29C187.62 156.67 189.13 159.11 191.53 160.48C198.93 167.51 207.04 173.89 211.78 183.29C212.54 186.61 214.96 189.61 213.73 193.32C212.49 194.42 211.42 193.94 210.19 193.14C197.89 185.18 185.61 177.21 173.73 168.63C172.55 167.87 171.43 167.01 170.63 166.23C171.27 167.05 172.45 167.68 173.51 168.46C184.12 176.11 194.96 183.42 206.02 190.42C207.4 191.29 209.06 191.82 209.72 193.55C209.49 195.5 207.9 196.21 206.46 196.97C198.59 201.17 190.86 205.63 183.15 210.11C180.32 211.75 177.46 213.3 173.92 213.34C170.45 213.38 170.35 216.69 169.43 219.06C168.58 221.25 169.35 224.22 166.36 225.36C163.7 227.56 164.31 231.36 161.64 233.89C156.44 238.8 150.79 237.78 148.08 231.1C146.17 226.4 148.63 222.43 149.31 218.16C149.28 215.82 151.71 215.22 152.17 214.3C142.26 223.19 131.07 231.66 118.2 237.7C117.12 238.21 115.82 239.63 114.61 238.34C113.34 236.97 114.67 235.57 115.23 234.25C119.25 224.93 124.3 216.16 129.75 207.62C130.18 206.95 130.87 206.35 130.39 205.41C126.36 203.68 121.97 202.65 118.73 199.38C119.16 195.54 121.77 192.92 124.09 190.22C127.79 185.91 132.35 182.51 135.81 179.57C133.47 182.01 129.7 184.49 126.48 187.65C123.23 190.84 120.66 194.48 118.27 198.25C115.79 202.17 113.64 206.31 111.39 210.37C110.39 213.91 107.52 217.07 109.5 221.22C109.92 222.09 109.5 223.54 109.11 224.58C108.34 226.62 108.25 230.09 105.49 229.68C102.45 229.23 104.93 226.07 104.33 224.22C108.79 209.24 108.55 193.85 108.46 178.46C108.46 177.18 109.01 175.9 109.3 174.62C116.16 169.45 122.61 163.58 131.53 161.2C126.43 162.14 122.67 165.09 118.65 167.55C115.51 169.47 113.16 172.67 109.27 173.37C107.87 167 108.14 160.62 109.15 154.23C108.38 150.97 111.45 149.47 112.46 147.03C112.71 146.63 113.01 146.27 113.34 145.94C116.92 141.59 121.15 143.61 124.58 145.56C132.62 150.14 141.24 152.98 150.09 155.53C144.68 150.08 138.15 147.12 130.63 146.08C125.22 145.33 119.95 143.79 114.57 142.84C112.06 142.39 109.7 141.74 108.34 139.31C108.27 137.5 108.28 135.73 110.16 134.69C112.59 132.72 115.67 133.01 118.46 132.3C124.38 130.79 130.33 129.45 136.24 127.91C139.12 127.16 141.93 127.14 144.73 127.76C141.93 127.22 139.14 127.2 136.24 127.89C127.75 129.92 119.37 132.43 110.68 133.58C109.87 133.69 109.07 134.03 108.46 133.17C108.19 130.19 107.92 127.22 107.65 124.24C110.87 120.43 115.74 119.22 119.81 116.84C128.44 111.79 136.44 106.07 141.62 100.75C134.71 108.18 124.1 114.76 112.93 120.52C111.59 121.21 110.25 122.75 108.44 121.42C108.4 118.37 108.35 115.32 108.31 112.27C108.09 109.74 109.85 108.33 111.5 107C122.18 98.35 130.39 87.62 137.41 75.96C143.3 66.16 148.37 55.95 151.14 44.75C151.21 44.25 151.35 43.76 151.52 43.29C153.5 39.58 152.03 35.12 154.1 31.44H154.05Z" fill="#FDDAB3"/>
<path d="M128.37 30.4C130.03 30.39 131.7 30.38 133.36 30.36C133.66 29.85 133.99 29.81 134.33 30.32C139.25 30.37 144.17 30.39 149.09 30.5C150.66 30.53 152.42 29.93 153.65 31.55C154.44 35.98 153.38 40.23 152.32 44.47L152.41 44.31C144.91 67.22 133.1 87.48 115.53 104.17C113.2 106.38 111.09 109.08 107.51 109.48C106.92 106.92 108.04 104.52 108.24 102.03C109.67 97.03 112.91 92.94 115.22 88.38C116.72 85.42 118.39 82.46 119.24 79.33C120.68 74.03 123.43 70.29 128.38 67.75C131.74 66.03 134.5 63.35 132.25 59.38C133.25 61.96 132.69 64.68 129.98 66.66C128.6 67.67 127 69.7 125.29 68.05C123.54 66.37 125.25 64.77 126.59 63.47C130.13 61.54 128.48 58.77 128.07 57.09C127.58 55.51 127.01 56.3 127.59 55.98C127.67 55.93 127.76 56.07 127.85 56.39C128.03 57.03 127.98 56.19 128.03 56.84C128.16 58.38 129.78 60.27 128.07 61.35C126.55 62.31 125.02 60.9 123.88 59.63C122.98 59.55 124.5 57.39 122.65 58.19C121.17 58.83 120.96 57.92 120.89 56.82C120.81 55.56 120.96 54.29 120.83 53.28C120.38 55.6 122.08 58.49 118.89 60.66C117.46 61.63 118.61 63.87 119.47 65.21C122.31 69.6 121.79 73.94 119.69 78.35C116.9 84.22 115.34 90.78 110.22 95.36C109.46 94.58 109.41 93.59 109.37 92.58C109.06 82.78 108.48 72.98 108.48 63.18C108.48 52.13 105.66 41.5 104.39 30.65C108.05 30.56 111.71 30.48 115.37 30.39C115.97 29.78 116.6 29.86 117.26 30.28L120.34 30.42C120.64 29.77 120.98 29.75 121.35 30.37C123.35 30.38 125.35 30.4 127.35 30.41C127.69 29.76 128.02 29.76 128.36 30.41L128.37 30.4Z" fill="#FEDCB8"/>
<path d="M108.31 139.32C115.29 142.16 122.65 143.49 130.06 144.3C140.24 145.41 148.09 150.39 155.67 158.83C144.56 154.8 133.81 153.77 124.87 147.18C121.52 144.71 117.08 142.6 113.38 147.46C113.77 143.78 109.71 143.44 108.51 140.95L108.31 139.32Z" fill="#1E1720"/>
<path d="M110.22 95.35C112.43 91.28 114.72 87.25 116.82 83.12C120.03 76.82 122.2 70.57 117.31 63.85C116.17 62.28 113.23 58.08 119.49 58.57C120.69 58.66 120.39 57.36 120.32 56.66C120.16 55.16 121.3 52.62 119.13 52.51C117.33 52.41 117.34 52.19 117.82 50.92C118.1 50.18 118.29 49.19 119.28 49.13C120.35 49.07 120.57 50.08 120.69 50.85C121.06 53.12 121.31 55.41 121.62 57.77C123.66 57.14 122.88 54.39 125.01 53.56C126.1 55.65 124.01 57.46 124.38 59.4C125.27 60.99 127.39 61.85 127.19 64.09C127.03 65.38 124.83 65.65 125.66 67.6C130.05 66.92 131.57 64.14 131.46 59.98C131.43 58.74 130.94 56.86 132.73 56.67C135.36 56.4 132.4 58.35 133.59 59.43C135.87 61.5 134.8 64.14 132.62 65.66C129.53 67.81 127.42 71.31 123.51 72.32C121.63 72.8 121.9 74.68 121.47 75.9C118.18 85.19 113.52 93.76 108.23 102.02C106.96 99.22 109.88 97.67 110.22 95.35Z" fill="#2B1B1B"/>
<path d="M107.5 109.47C123.51 96.59 136.04 80.99 144.41 62.14C147.05 56.18 149.74 50.25 152.4 44.3C152.89 46.75 151.61 48.82 150.84 50.95C142.54 73.84 129.54 93.53 111.02 109.47C110.03 110.32 109.18 111.33 108.26 112.26C106.6 111.71 107.49 110.47 107.5 109.46V109.47Z" fill="#311C13"/>
<path d="M108.43 133.18C117.77 131.78 126.76 128.89 135.93 126.8C139.71 125.94 143.42 125.78 147.45 128.19C134.21 127.96 122.57 133.53 110.13 134.7C108.53 134.507 107.963 134 108.43 133.18Z" fill="#1C0E0F"/>
<path d="M108.4 121.43C123.14 115.08 136.23 106.37 147.25 94.66C136.82 108.2 122.81 117.02 107.62 124.25C107.24 123.13 107.74 122.26 108.4 121.43Z" fill="#3C251B"/>
<path d="M109.25 173.38C116.58 168.48 123.06 162.05 132.38 160.68C123.71 163.76 117.25 170.43 109.27 174.62C109.27 174.21 109.25 173.79 109.24 173.38H109.25Z" fill="#462C21"/>
<path d="M108.5 140.95C110.79 141.82 113.07 142.7 115.28 143.54C115.2 145.28 112.83 145.62 113.38 147.46L113.42 147.31C112 148.99 111.02 151.17 108.55 151.68L108.5 140.96V140.95Z" fill="#F8E3BE"/>
<path d="M108.55 151.67C110.59 150.68 110.84 147.69 113.42 147.3C113.04 150.27 109.67 151.38 109.12 154.24C108.17 153.55 108.46 152.59 108.54 151.67H108.55Z" fill="#1E1720"/>
<path d="M213.3 194.39C217.01 208.38 221.02 222.38 220.24 237.03C219.67 247.78 213.93 256.43 206.92 264.18C203.02 268.49 199.02 272.75 194.36 276.29C192.36 273.09 188.9 271.58 186.14 269.27C177.16 261.78 169.94 252.88 166.74 241.63C165.31 236.58 166.4 230.81 166.34 225.37C167.73 221.67 167.33 217.4 169.68 214.06C170.63 212.71 171.04 209.84 174.22 212.01C175.77 213.07 177.96 211.19 179.64 210.26C189.58 204.73 199.45 199.07 209.35 193.45C210.88 192.89 212.01 193.95 213.29 194.4L213.3 194.39Z" fill="#A69B59"/>
<path d="M126.34 268.2C128.91 268.38 130.83 270.24 133.18 270.97C133.41 270.62 133.7 270.38 133.72 270.13C133.9 268.02 131.41 265 134.46 264.02C136.99 263.21 137.08 266.83 138.38 268.37C139 269.1 139.55 269.89 140.4 271C142.54 268.11 140.7 262.68 143.89 262.44C147.5 262.16 151.94 264.22 149.55 271.23C151.15 269.7 151.5 269.4 151.81 269.07C153.31 267.47 154.17 264 156.63 264.98C158.62 265.77 156.57 268.84 156.84 270.83C158.91 270.68 160.81 267.09 162.5 269.52C164.72 272.72 159.52 274 159.34 277.02C159.85 277.02 160.35 277.1 160.8 277.01C162.9 276.57 165.78 275.42 166.89 276.99C167.91 278.43 167.84 281.41 166.01 283.32C165.34 284.03 165.09 284.67 166.18 285.23C173.3 288.92 167.08 289.08 164.83 290.22C164.27 290.5 163.55 290.48 162.89 290.59C162.99 291.03 163 291.38 163.15 291.65C164.23 293.55 167.79 295.12 166.05 297.29C164.01 299.82 161.28 297.07 158.97 296.07C157.93 295.62 156.97 295 155.68 294.29C155.05 297.05 157.44 298.32 157.9 300.29C158.3 301.99 159.58 303.6 157.59 305.23C155.33 307.08 154.36 304.95 153.04 303.93C152 303.13 151.08 302.17 149.85 301.04C148.57 303.65 149.43 308.35 145.17 307.83C141.84 307.42 143.06 303.5 142.25 300.96C140.92 302.23 139.75 303.5 138.42 304.56C136.7 305.93 134.45 306.34 132.91 304.88C131.14 303.21 132.97 301.58 134.07 300.19C134.96 299.05 135.99 298.02 137.49 296.35C134.82 297.01 132.93 297.58 131 297.93C128.92 298.31 126.7 298.02 125.78 296C124.84 293.93 127.24 293.41 128.4 292.39C129.01 291.86 129.87 291.58 129.96 290.58C127.3 289.5 123.43 293.69 122.03 289.78C121.02 286.98 125.42 286.47 127.4 284.78C124.99 282.46 121.19 281.76 120.27 277.7C122.99 277.34 125.43 279.29 128.27 278.1C127.29 274.95 124.41 272.3 125.24 268.6C125.41 267.95 125.77 267.8 126.33 268.18L126.34 268.2Z" fill="#F13344"/>
<path d="M119.49 351.32C114.94 347.67 114.23 343.01 115.82 337.69C117.49 332.13 119.09 326.56 120.67 320.97C121.72 317.26 121.73 313.45 121.33 309.1C124.15 310.59 123.78 313.02 123.26 314.7C120.66 323.04 122.68 330.52 126.52 337.97C129.32 343.4 128.95 349.22 127.1 354.97C126.3 357.44 125.65 359.96 124.81 362.87C121.99 359.27 120.27 355.46 119.38 351.24C120.18 347.27 120.14 343.41 118.67 341.12C120.42 343.38 119.91 347.35 119.49 351.31V351.32Z" fill="#262833"/>
<path d="M65.23 371.52C63.12 371.36 61.3 369.83 59.03 370.33C57.96 370.56 56.9401 370.05 57.0601 368.79C57.1801 367.54 58.09 367.24 59.25 367.73C59.85 367.98 60.6399 368.54 61.0699 368.35C62.7599 367.57 65.93 369.71 66.11 367.16C66.32 364.17 63.3 366.44 61.85 365.86C60.87 365.46 59.43 365.84 59 364.37C59.03 364.35 68.66 358.19 68.66 358.19C74.36 363.31 80.96 362.39 84.13 356.04C84.31 357.627 82.7899 360.243 79.5699 363.89C80.1599 364.42 80.72 364.23 81.37 363.94C82.56 363.41 83.98 361.23 85 363.33C85.89 365.17 83.36 364.71 82.41 365.35C79.63 367.23 78.59 372.87 80.28 377.67C78 376.79 78.15 373.36 75.37 373.28C73.7 373.85 72.03 374.37 70.35 373.32C70.64 372.49 70.93 371.66 71.43 370.22C70.29 371.26 69.62 371.87 68.96 372.48C67.36 373.54 66.32 372.44 65.25 371.5L65.23 371.52Z" fill="#44382D"/>
<path d="M130.38 205.4C132.9 207.21 130.38 208.56 129.71 209.67C124.18 218.83 119.24 228.3 114.03 239.31C129.85 230.53 143.87 221.55 156.89 208.69C154.62 213.33 151.25 215.16 149.29 218.15C142.55 223.66 135.62 228.9 128.1 233.33C127.04 233.95 125.94 234.7 126.01 236.08C126.02 236.27 127.51 236.39 128.31 236.54C128.19 238.46 126.96 237.67 125.98 237.5C118.79 236.58 113.64 241.5 107.15 244.09C116.26 233.72 119.03 220.15 127.24 209.65C128.28 208.32 129.99 207.28 130.36 205.39L130.38 205.4Z" fill="#23100E"/>
<path d="M88.51 336.26C87.85 328.3 83.08 322.39 78.21 316.75C72.13 309.7 65.4901 303.12 59.1601 296.28C58.3301 295.39 55.92 294.61 57.88 292.88C59.45 291.5 60.1501 293.64 60.9001 294.41C70.5601 304.27 80.69 313.72 87.01 326.34C88.61 329.54 89.7201 332.73 89.5501 336.32C89.1801 336.64 88.83 336.62 88.5 336.25L88.51 336.26Z" fill="#201113"/>
<path d="M100.46 311.22C104.82 315.43 104.63 321.23 105.28 326.49C106.98 340.15 108.07 353.9 109.52 367.59C109.97 371.82 110.8 376 111.13 380.27C108.24 374.85 108.16 368.77 107.47 362.95C105.79 348.62 104.53 334.24 102.49 319.94C102.07 317 101.21 314.55 99.47 312.28C99.72 311.85 99.81 311.27 100.45 311.21L100.46 311.22Z" fill="#5E4735"/>
<path d="M100.46 311.22C100.13 311.58 99.8 311.94 99.48 312.29C89.3 302.66 79.98 292.09 68.35 283.92C72.77 282.92 91.86 299.24 100.47 311.22H100.46Z" fill="#201110"/>
<path d="M125.99 237.5C126.77 237.18 127.54 236.86 128.32 236.54C140 237.22 151.22 239.78 161.83 244.89C149.92 242.22 138.09 239.21 126 237.49L125.99 237.5Z" fill="#331E1A"/>
<path d="M111.37 210.36C115.36 197.48 130.24 180.06 142.34 174.98C133.47 183.21 123.7 189.04 118.72 199.37C115.68 202.64 114.78 207.34 111.37 210.36Z" fill="#3E2519"/>
<path d="M105.3 293.4C96.57 285.04 86.25 280.47 73.28 280.31C75.32 278.76 76.87 277.58 78.53 276.32C79.37 277.1 76.88 278.99 79.95 279.17C90.52 279.8 99.08 284.92 106.42 292.29C106.66 293.27 106.31 293.67 105.3 293.4Z" fill="#291710"/>
<path d="M88.51 336.26C88.86 336.28 89.2101 336.3 89.5601 336.33C91.8701 347.94 94.18 359.55 96.5 371.16C97.11 374.22 97.78 377.27 98.42 380.33C98.07 380.83 97.72 380.81 97.37 380.33C93.2 365.88 90.74 351.1 88.51 336.26Z" fill="#6B533C"/>
<path d="M126.34 268.2C125.98 268.34 125.61 268.48 125.25 268.62C114.17 263.8 102.95 259.42 90.9 257.63C103.89 257.24 115.5 261.43 126.35 268.2H126.34Z" fill="#2B1710"/>
<path d="M141.31 247.77C134.47 248.92 127.56 249.8 120.79 251.29C114.09 252.77 107.52 254.87 100.79 256.23C113.8 251.01 127.07 246.99 141.31 247.77Z" fill="#6B513D"/>
<path d="M65.2299 371.52C66.7799 370.67 67.5099 372.93 68.9399 372.5C68.4299 375.14 65.49 376.9 66.49 380C64.98 380.08 64.96 378.96 65.02 378.34C65.37 374.71 64.15 374.31 61.17 376.03C60.47 376.43 59.7899 378.67 58.3299 376.88C57.9299 376.39 57.29 375.7 57.39 375.25C57.76 373.63 59.41 373.81 60.56 373.6C62.34 373.28 64.3 373.63 65.24 371.52H65.2299Z" fill="#41382E"/>
<path d="M143.56 342.32C143.23 342.63 142.91 342.95 142.58 343.27C140.31 335.92 138.04 328.56 135.77 321.21C136.18 321.09 136.59 320.97 137 320.85C139.83 327.8 141.88 335 143.56 342.33V342.32Z" fill="#563E2B"/>
<path d="M106.5 270.94C99.89 270.92 93.3 269.59 86.64 269.09C93.39 266.94 99.87 269.8 106.5 270.94Z" fill="#614B38"/>
<path d="M105.3 293.4C105.67 293.03 106.05 292.66 106.42 292.29C110.7 295.75 114.01 300.07 117.41 304.32C113.38 300.68 109.34 297.04 105.3 293.4Z" fill="#6C5643"/>
<path d="M70.34 373.33C72.02 374.51 73.67 371.57 75.36 373.29C73.77 378.86 74.97 384.62 74.24 390.25C73.92 390.61 73.59 390.62 73.23 390.3C73.23 387.66 73.08 385.02 73.25 382.39C73.48 378.94 74.03 375.48 70.33 373.33H70.34Z" fill="#201106"/>
<path d="M80.8 356.23C80.33 358.71 77.96 358.89 75.76 359.46C74.28 359.85 73.55 359.23 73.17 357.99C72.87 356.98 73.1099 355.98 74.0699 355.42C75.1899 354.76 75.63 355.44 76.27 356.41C78.32 359.53 78.42 352.84 80.8 356.22V356.23Z" fill="#4C372A"/>
<path d="M88.58 384.49V375.99C90.86 379.04 91.1 382.18 89.51 385.43C89.05 385.26 88.74 384.94 88.58 384.48V384.49Z" fill="#8E766A"/>
<path d="M63.9301 361.78C60.5301 362.51 58.84 360.47 57.27 357.66C60.93 357 61.4501 360.97 63.9301 361.78Z" fill="#4A3F30"/>
<path d="M73.2399 390.3C73.5799 390.28 73.9099 390.27 74.2499 390.25C74.6399 393.24 73.5599 395.98 72.8699 398.8C72.1599 395.91 71.7299 393.05 73.2399 390.3Z" fill="#665B49"/>
<path d="M186.31 284.28C182.94 283.58 181.58 280.59 179.71 278.18C182.38 279.68 184.74 281.52 186.29 284.3L186.32 284.28H186.31Z" fill="#85674E"/>
<path d="M117.85 276.36C115.43 275.26 113 274.15 109.32 272.48C113.76 272.37 115.92 274.11 117.85 276.36Z" fill="#9F8062"/>
<path d="M88.5799 384.49C88.8899 384.81 89.2 385.12 89.51 385.44C89.51 388.49 89.51 391.55 89.51 394.6C88.13 391.24 88.2699 387.87 88.5799 384.49Z" fill="#3E230D"/>
<path d="M82.8 369.86C84.09 368.98 85.22 367.5 86.89 369.03C87.08 369.21 86.78 370.28 86.42 370.65C84.95 372.12 83.85 371.2 82.8 369.86Z" fill="#553629"/>
<path d="M97.37 380.33C97.72 380.33 98.07 380.33 98.42 380.33C99.16 382.72 99.91 385.12 100.65 387.51C100.55 387.97 100.45 388.43 100.36 388.88C98.61 386.29 98.12 383.27 97.38 380.33H97.37Z" fill="#6F5338"/>
<path d="M206.16 142.31C206.62 149.5 207.13 156.69 207.5 163.88C207.58 165.42 208.15 167.2 206.53 168.44C205.85 168.29 205.28 167.96 204.98 167.34C200.34 157.87 194.6 149.01 189.6 139.74C189.08 138.78 188.31 137.72 189.28 136.55C194.74 133.41 195.13 133.57 195.09 139.69C195.06 143.69 198.2 143.12 200.35 144.05C201.49 142.62 200.44 141.9 199.78 141.35C197.27 139.26 196.84 137.11 199.2 134.62C201.53 132.17 201.4 128.82 202.22 125.83C202.68 124.16 202.18 122.56 200.75 121.35C199.21 120.04 197.94 121.11 196.64 121.73C194.24 122.88 191.89 124.12 189.5 125.28C188.01 126 186.47 127 185.14 125C184.07 123.45 184.71 121.79 184.82 120.17C185.04 116.86 186.45 115.11 189.98 116.54C190.47 115.17 189.43 114.55 189.06 113.7C188.6 112.65 187.7 111.58 188.47 110.46C189.35 109.18 190.79 109.48 192.12 109.66C194.31 109.96 196.46 111.43 198.7 110.11C198.79 108.59 197.79 108.23 196.94 107.74C191.97 104.83 191.97 104.6 196.9 101.72C195.83 100.57 193.21 100.84 193.39 98.82C193.61 96.39 196.31 96.53 198.59 95.23C194.82 95.15 192.68 94.17 194.44 90.32C195.64 87.71 194.03 87.09 191.78 87.28C190.95 87.35 190.15 87.6 189.35 87.79C184.47 88.95 184.01 88.52 185.18 83.78C185.37 82.99 185.77 82.23 185.15 81.14C183.04 81.04 182.4 82.92 181.37 84.26C180.38 85.55 179.54 87.51 177.54 86.6C175.51 85.68 173.96 84.08 175.27 81.46C176.21 78.63 178.86 80.98 180.45 79.7C183.24 77.45 186.67 75.87 187.14 71.67C187.43 69.09 189.28 67.21 190.47 65.04C188.79 58.61 183.52 54.85 179.18 50.58C173.66 45.14 166.87 41.16 160.96 36.13C159.44 34.83 157.08 34.06 157.3 31.38C160.35 29.93 163.4 30.08 166.43 31.44C173.1 34.37 179.22 38.57 186.49 40.09C189.74 40.99 192.84 42.22 195.6 44.2C197.55 46.1 199.97 47.22 202.45 48.25C203.28 48.71 203.94 49.3 204.07 50.31C205.05 51.92 206.49 53.09 206.47 55.41C206.24 74.76 206.2 94.11 206.1 113.46C205.7 123.08 205.61 132.7 206.15 142.31H206.16Z" fill="#FDE3C0"/>
<path d="M195.09 45.34C192.37 44.03 189.64 42.72 186.92 41.41C180.42 38.99 173.8 36.79 168.32 32.29C168.83 31.93 169.34 31.26 169.85 31.26C182.61 31.28 195.37 30.66 208.12 31.67C207.6 36.74 207.01 41.81 206.59 46.9C206.44 48.68 206.35 50.22 204.09 50.31C203.6 50.02 203.1 49.73 202.61 49.44C200.21 47.88 197.52 46.85 195.1 45.34H195.09Z" fill="#FCE3C3"/>
<path d="M157.31 31.38C162.94 35.73 168.45 40.24 174.21 44.4C181.04 49.32 186.27 55.69 191.35 62.25C192.41 63.62 193.28 64.89 190.48 65.05C188.67 62.91 187.11 60.46 184.96 58.74C183.32 57.44 182.93 52.38 178.92 56.03C178.73 56.2 177.77 55.57 177.19 55.27C170.94 52.12 165.37 48.09 160.68 42.84C157.73 39.53 158.27 34.64 155.3 31.37C155.97 30.39 156.64 31.6 157.31 31.37V31.38Z" fill="#1D182C"/>
<path d="M184.51 29.62V3.04001C186.43 11.83 186.89 20.69 186.08 29.59C185.56 29.59 185.04 29.61 184.51 29.61V29.62Z" fill="#5C6D4D"/>
<path d="M176.81 29.2C176.34 20.82 176.68 12.43 176.36 4.04001C177.07 12.42 180.05 20.77 176.81 29.2Z" fill="#586B49"/>
<path d="M134.33 30.32L133.85 30.42L133.36 30.36C131.7 21.42 131.2 12.39 131.59 3.29001C134.41 12.09 132.83 21.37 134.34 30.31L134.33 30.32Z" fill="#5C6A3D"/>
<path d="M172.52 29.34C171.05 20.48 169.65 11.6 170.73 2.56C173.03 11.35 171.81 20.42 172.52 29.34Z" fill="#55643E"/>
<path d="M121.35 30.36C121.01 30.38 120.68 30.4 120.34 30.41C119.08 22.14 118.48 13.84 118.69 5.46997C119.84 13.75 121.37 21.97 121.35 30.35V30.36Z" fill="#5A6A3C"/>
<path d="M128.37 30.4C128.03 30.4 127.7 30.4 127.36 30.4C126.37 21.78 125.39 13.16 124.4 4.53C127.11 12.97 127.89 21.66 128.37 30.4Z" fill="#5D6F41"/>
<path d="M194.44 29.31C194.92 20.8 195.73 12.3 195.31 2.60001C197.32 9.98001 196.95 20.88 194.44 29.31Z" fill="#5B6739"/>
<path d="M106.41 5.03998C106.75 12.45 109.87 19.5 109.04 27.06C107.82 19.76 105.62 12.59 106.41 5.03998Z" fill="#516035"/>
<path d="M156.85 28.37C156.98 20.37 154.51 12.49 155.75 3.45999C158.07 12.33 157.21 20.36 156.85 28.37Z" fill="#546132"/>
<path d="M201.29 29.29C201.29 21.02 200.77 12.64 203.5 4.53C202.76 12.78 202.03 21.04 201.29 29.29Z" fill="#5A6335"/>
<path d="M162.46 4.5C163.38 11.7 164.68 18.87 163.63 26.27C162.83 19.08 162.02 11.89 161.22 4.70001C161.63 4.63001 162.05 4.57 162.46 4.5Z" fill="#5A6A3B"/>
<path d="M168.32 32.29C174.52 35.33 180.72 38.37 186.92 41.41C179.29 39.74 171.97 37.43 166.44 31.44C167.07 31.72 167.69 32 168.32 32.28V32.29Z" fill="#462F24"/>
<path d="M146.81 28.38V6.46997C147.97 13.78 146.54 21.19 148.54 28.47C147.96 28.44 147.38 28.41 146.81 28.38Z" fill="#5C6A3F"/>
<path d="M190.25 3.85001V28.99C190.06 28.99 189.88 28.99 189.69 28.99V3.64999C189.88 3.71999 190.06 3.78001 190.25 3.85001Z" fill="#5D6D39"/>
<path d="M141.13 4.39001V28C140.96 28 140.79 28 140.62 28V4.39001C140.79 4.39001 140.96 4.39001 141.13 4.39001Z" fill="#485625"/>
<path d="M117.26 30.27C116.63 30.31 116 30.34 115.37 30.38C115.44 24.63 112.89 19.19 113.36 13.4L113.38 13.38C115.93 18.72 115.52 24.74 117.26 30.27Z" fill="#5C6A3A"/>
<path d="M152.32 44.46C152.76 40.15 153.21 35.85 153.65 31.54L153.89 31.62L154.05 31.43C154.64 35.93 154.91 40.38 152.32 44.46Z" fill="#311C13"/>
<path d="M113.36 13.4C111.75 10.27 111.79 6.89 111.32 2.5C114 6.53 113.35 10.01 113.38 13.38L113.36 13.4Z" fill="#5C6A3A"/>
<path d="M51.45 319.22C51.14 317.8 50.83 316.38 50.5 314.86C53.93 313.9 56.94 314.79 58.77 317.69C60.06 319.73 61.6699 322.31 59.1899 324.92C56.3399 322.62 56.8399 318.48 53.6899 316.34C53.2599 318.86 55.86 320.44 55.37 322.88C52.44 323.31 52.74 320.27 51.35 319.1L51.45 319.22Z" fill="#E9D8C2"/>
<path d="M175.29 81.47C175.37 83.64 177.38 84.6 178.08 87.53C179.57 84.64 180.33 82.68 181.51 81.03C182.78 79.25 184.44 77.6 186.89 79.39C189.28 81.13 188.17 82.56 186.53 84.14C185.89 84.75 185.83 85.95 185.36 87.29C187.65 86.66 189.57 86.01 191.54 85.64C193.31 85.31 195.35 84.9 196.71 86.47C198.27 88.27 196.64 89.85 195.86 91.42C195.51 92.13 195.06 92.79 194.59 93.57C197.25 94.01 201.18 91.51 201.79 94.84C202.41 98.23 198.04 96.69 196.05 97.72C195.32 98.09 194.56 98.39 193.66 98.8C196.11 100.08 199.04 99.84 200.88 102.3C198.79 104.1 195.77 102.8 193.93 104.87C195.33 106.29 197.57 106.01 199.33 106.91C200.86 107.69 201.85 108.8 201.17 110.45C200.58 111.89 199.87 113.41 197.53 112.56C194.81 111.57 191.93 111.05 188.19 110.09C189.76 112.35 190.83 114.03 192.05 115.59C192.79 116.52 193.9 117.42 193.02 118.58C191.82 120.15 190.72 118.68 189.62 118.1C188.62 117.57 187.58 117.13 186.35 116.54C186.28 119.6 186.58 122.46 185.14 125.04C179.09 126.12 180.83 119.77 177.97 117.68C177.83 119.8 177.76 121.96 177.53 124.1C177.39 125.37 177.38 127.15 175.52 126.92C173.87 126.71 173.97 125.05 173.92 123.71C173.88 122.44 174.44 121.1 173.57 119.87C171.97 119.79 171.39 121.23 170.35 121.96C169.11 122.83 168.17 125.1 166.28 123.67C164.68 122.46 165.43 120.68 166.27 119.15C166.63 118.49 166.91 117.77 167.28 116.96C164.54 116.27 162.2 120.06 160.18 117.6C158.56 115.62 162.41 114.82 162.36 112.74C161.02 110.15 157.02 114.69 156.42 110.8C156.03 108.28 158.63 108.46 160.58 108.2C159.19 106.35 155.28 108.94 155.8 105.53C156.31 102.16 159.96 102.99 162.55 102.24C160.83 100.07 156.75 99.28 158.06 95.84C159.11 93.07 161.99 96.17 164.22 94.93C163.02 92.64 160.31 89.76 163.07 87.67C165.85 85.57 168.27 89.4 171.29 90.24C171.29 87.81 171.11 85.68 171.34 83.6C171.6 81.23 172.65 79.72 175.27 81.52L175.29 81.47Z" fill="#F33845"/>
<path d="M162.34 199.35C160.83 200.5 159.02 201.7 157.68 199.64C156.22 197.4 159.12 197.83 159.85 196.89C160.84 195.62 160.99 194.33 158.71 194.46C156.59 194.58 154.92 193.75 153.39 192.36C153.63 192.04 153.83 191.62 153.95 191.64C155.99 191.97 158.02 193.23 160.05 191.72C160.22 191.59 160.04 190.48 159.82 190.41C157.28 189.55 155.14 186.81 151.97 188.68C152.803 186.947 155.123 186.43 158.93 187.13C159.78 186.33 159.08 185.66 158.68 185C158.25 184.29 157.73 183.61 158.46 182.69C161.08 182.58 160.25 186.05 162.31 186.5C163.83 186.37 164.51 188.26 166.07 188.04C166.48 187.97 166.89 187.92 167.3 187.86C170.77 186.83 171.61 189.41 172.64 191.72C172.99 191.8 173.23 192.01 173.39 192.32C175.02 192.33 176.67 192.73 178.14 191.49C179.98 189.94 180.61 191.37 181.5 193.27C178.88 193.19 176.63 193.36 174.64 194.51C173.52 195.15 170.96 194.69 171.69 196.82C172.42 198.93 173.93 197.98 175.64 197.04C178.83 195.29 182.21 195.45 185.1 198.41C181.25 197.62 177.68 196.02 174.13 199.95C172.81 201.41 169.87 198.23 167.47 196.71C167.85 199.24 168.56 201.14 170.91 202.14C171.99 202.6 171.95 202.7 170.98 206.91C169.8 204.92 168.65 202.96 167.28 200.66C165.73 203.18 164.42 205.33 162.9 207.81C161.75 204.95 159.65 202.46 164.28 201.44C165.43 201.19 164.67 200.11 164.29 199.41C163.74 198.57 164.39 197.63 164.03 196.73C163.79 197.83 163.41 198.82 162.34 199.34V199.35Z" fill="#332321"/>
<path d="M189.28 136.55C195.03 147.18 200.78 157.81 206.53 168.44C207.88 171.93 209.24 175.42 210.57 178.92C211.11 180.36 212.37 181.85 210.49 183.26C205.36 174.58 198.44 167.43 191.14 160.62C190.96 160.1 191.14 159.91 191.67 160.07C196.61 163.47 200.8 167.69 205.22 171.88C199.59 157.23 190.03 144.58 184.47 129.8C186.07 132.05 187.68 134.31 189.28 136.56V136.55Z" fill="#241615"/>
<path d="M213.3 194.39C211.99 194.07 210.67 193.76 209.36 193.44C196.88 185.71 184.62 177.67 173.01 168.67C172.88 168.13 173.07 167.88 173.64 167.97C185.26 175.62 196.86 183.28 208.5 190.89C210 191.87 211.67 192.61 213.26 193.45C213.24 193.76 213.26 194.07 213.3 194.38V194.39Z" fill="#3C2518"/>
<path d="M162.59 185.05C162.69 182.36 160.37 180.41 160.45 177.49C161 181.74 166.08 180.4 167.58 183.93C168.38 185.82 170.69 184.07 171.54 182.67C173.1 180.1 173.9 180.88 174.67 183.07C174.61 183.53 174.43 183.94 174.14 184.3C172.04 186.78 168.71 187.37 166.32 189.41L166.41 189.37C163.88 189.04 163.81 186.53 162.58 185.05H162.59Z" fill="#47332A"/>
<path d="M173.38 192.32L173.03 192.41L172.67 192.39C172.4 189.36 170.44 186.07 174.03 183.64C174.22 183.43 174.44 183.24 174.66 183.06C176.25 182.71 179.32 186.25 179.19 181.32C179.19 181 179.71 180.42 180.03 180.39C180.99 180.3 181.43 181.12 181.9 181.79C182.52 182.66 182.02 183.19 181.39 183.86C178.71 186.67 175.34 188.83 173.37 192.31L173.38 192.32Z" fill="#503B32"/>
<path d="M158.09 74.94C159.64 69.84 161.18 64.74 162.73 59.64C163.37 65.37 160.91 70.21 158.09 74.94Z" fill="#563723"/>
<path d="M162.34 199.35C163.34 197.26 161.8 195.42 161.41 193.24C165.92 195.47 166 195.67 164.29 199.42C163.64 199.4 162.99 199.37 162.34 199.35Z" fill="#AB988F"/>
<path d="M162.59 185.05C163.86 187.63 164.8 184.67 166 184.84C166.53 186.31 164.54 188.05 166.42 189.37C164.833 189.837 163.463 188.88 162.31 186.5C162.4 186.02 162.5 185.53 162.59 185.05Z" fill="#C1A89B"/>
<path d="M156.47 194.74C156.06 198.07 153.95 198.69 152.48 200.76C151.95 197.19 153.98 196.36 156.47 194.74Z" fill="#432E1F"/>
<path d="M160.79 137.61C158.59 136.08 156.39 134.54 154.19 133.01C157.48 132.88 159.24 135.26 160.79 137.61Z" fill="#674D35"/>
<path d="M173 168.67C170.48 167.44 168.29 165.77 166.5 163.53C169.33 164.26 171.52 166.04 173.63 167.97C173.47 168.24 173.25 168.48 173 168.67Z" fill="#4E3621"/>
<path d="M184.91 155.45C182.66 154.35 180.98 152.58 178.4 149.85C182.06 151.07 183.63 153.08 185.4 154.8C185.45 155.09 185.92 155.3 185.66 155.61C185.58 155.7 185.17 155.51 184.91 155.45Z" fill="#684D34"/>
<path d="M191.14 160.61C188.67 159.37 186.8 157.4 184.92 155.45L185.37 155.28L185.42 154.8C187.51 156.55 189.59 158.31 191.68 160.07C191.5 160.25 191.33 160.43 191.15 160.62L191.14 160.61Z" fill="#241615"/>
<path d="M154.88 179.08C155.97 179.71 156.67 180.5 156.43 181.82C156.3 182.55 155.83 183.12 155.17 182.81C154.1 182.32 153.54 181.3 153.55 180.1C153.55 179.24 154.35 179.28 154.88 179.07V179.08Z" fill="#472F21"/>
<path d="M151.74 192.17C150.07 194.29 148.57 194.98 146.71 194.83C146.55 194.82 146.23 194.2 146.32 194.04C147.33 192.09 149.2 192.49 151.75 192.17H151.74Z" fill="#473128"/>
<path d="M127.2 64.08C125.43 63.02 123.94 61.78 124.39 59.39C125.45 59.78 126.51 60.1601 127.68 60.5901C127.92 57.8601 126.54 55.54 125.95 53.05C125.71 52.05 125.09 51.03 126.26 50.55C127.72 49.96 127.74 51.49 127.91 52.29C128.61 55.48 130.16 58.55 129.49 61.96C129.24 63.22 129.33 64.84 127.21 64.08H127.2Z" fill="#30231E"/>
<path d="M121.39 60.57C123.85 61.91 123.87 63.97 123.03 65.72C122.29 67.28 120.62 66.24 118.89 65.92C122.45 65.27 122.44 63.23 121.39 60.57Z" fill="#BDB0AF"/>
<path d="M206.16 142.31C204.8 132.69 204.86 123.08 206.11 113.46C206.13 123.08 206.14 132.7 206.16 142.31Z" fill="#FDDAB3"/>
<path d="M156.96 285.85C154.19 286.41 153.4 288.5 152.11 290.16C149.53 293.48 143.49 294.53 140.41 292.02C137.15 289.37 136.86 285.74 138.52 282.1C140.93 276.83 149.16 276.36 152.6 281.43C153.73 283.1 155.04 284.41 156.96 285.84V285.85Z" fill="#371420"/>
<path d="M123.84 357.99C120.83 352.94 121.82 348.07 122.69 342.56C124.4 347.92 125.82 352.66 123.84 357.99Z" fill="#E0D1BE"/>
<path d="M126.67 349.36C124.11 344.8 124.08 340.7 123.62 336.45C126.54 340.21 127.33 343.36 126.67 349.36Z" fill="#D7C8B6"/>
<path d="M119.49 351.32C118.34 347.05 119.21 342.51 117.47 338.32C120.02 342.38 122.12 346.51 119.38 351.25L119.49 351.32Z" fill="#D8CEC1"/>
<path d="M69.04 360.6C69.26 363.31 73.55 362.65 72.45 366.03C72.16 366.93 72.41 368.13 71.19 368.35C69.68 368.62 68.82 367.16 69.04 366.3C69.5 364.51 67.62 363.1 69.04 360.61V360.6Z" fill="#D1C2A0"/>
<path d="M195.09 45.34C198.16 45.67 200.7 46.96 202.6 49.44C199.71 48.79 197.04 47.73 195.09 45.34Z" fill="#5F4D3A"/>
<path d="M172.13 49.59C173.96 49.08 175.6 48.83 176.36 50.73C176.45 50.96 175.95 51.69 175.61 51.79C173.69 52.36 173.28 50.36 172.13 49.59Z" fill="#BCB0AD"/>
<path d="M184.36 98.04C187.74 101.14 187.27 104.7 184.78 107.77C182.29 110.84 179.15 113.99 174.65 111.38C172.73 110.26 171.26 110.76 168.17 111.7C171.89 108.49 169.93 105.34 170.48 102.45C173.28 100.51 175.84 100.68 178.13 103.29C178.99 104.08 179.82 104.1 180.63 103.19C182.5 101.92 182.97 99.65 184.36 98.05V98.04Z" fill="#1B151C"/>
<path d="M177.09 104.32C175.56 101.31 172.61 103.32 170.48 102.45C171.39 99.65 173.18 98.53 176.04 99.81C176.55 97.79 173.7 97.16 174.79 94.89C177.37 96.07 179.62 99.88 183.12 96.75C183.14 96.74 183.93 97.59 184.37 98.04C186.18 101.4 183.61 102.72 181.47 104.23C179.99 103.24 178.54 103.36 177.1 104.32H177.09Z" fill="#60272E"/>
<path d="M174.04 183.65C173.5 184.59 172.97 185.52 172.4 186.51C174.12 187.22 174.47 184.65 176.37 185.69C174.74 187.72 171.98 189.24 172.67 192.41C172.1 193.33 171.13 193.95 170.25 193.45C168.92 192.69 170.65 192.39 170.72 191.83C171.26 187.39 168.55 188.83 166.31 189.42C168.16 186.53 170.8 184.7 174.03 183.66L174.04 183.65Z" fill="#C1A89B"/>
<path d="M150.37 288.88C147.29 291.19 144.25 292.37 141.4 288.55C140.31 285.55 140.14 282.84 143.39 280.91C145.48 279.67 147.47 279.67 149.3 281.18C151.94 283.36 150.88 286.19 150.37 288.88Z" fill="#1A1726"/>
<path d="M150.37 288.88C150.32 288.73 150.21 288.57 150.22 288.42C150.43 285.17 151.19 281.12 146.52 280.94C141.7 280.76 141.02 284.58 141.4 288.55C138.83 285.95 139.07 283.15 141.56 280.91C143.76 278.93 146.74 278.23 149.33 280.2C152.44 282.58 152.44 285.69 150.37 288.88Z" fill="#C7C9D1"/>
<path d="M177.09 104.32C176.78 102.78 177.53 101.75 178.92 101.56C180.76 101.31 181.29 102.68 181.45 104.23C181.01 105.24 180.56 106.26 180.1 107.31C179.07 106.29 178.08 105.3 177.09 104.32Z" fill="#EAEBED"/>
</svg>
