<svg width="265" height="467" viewBox="0 0 265 467" fill="none" xmlns="http://www.w3.org/2000/svg">
<path d="M57.2499 30.5902C75.7999 27.0002 94.4098 23.6901 112.88 19.7601C138.97 14.2001 165.52 10.5002 190.77 1.36018C192.91 0.590183 193.82 0.940027 194.12 3.20003C194.53 6.31003 195.09 9.41009 195.59 12.5101L195.23 12.7901C194.6 19.7701 196.26 26.6302 196.22 33.5802C196.21 35.4002 196.37 37.24 195.5 38.94C194.32 40.81 192.41 41.5702 190.41 41.6202C180.32 41.8402 171.1 46.0201 161.36 47.8001C160.06 48.0401 158.78 48.41 157.44 48.41C152.66 48.3 148.44 50.3802 144.06 51.8602C142.24 51.9902 140.69 53.24 138.83 53.22C131.88 54.07 124.85 54.48 118.14 56.71C117.55 57.4 116.99 58.1202 116.19 58.6002C114.66 59.3402 113.02 59.0802 111.41 59.0902C108.48 58.7202 105.82 59.9701 103.05 60.5201C101.72 60.6701 100.54 61.2501 99.34 61.8001C98.02 62.2701 96.6399 62.08 95.2899 62.18C93.6599 62.01 92.3499 62.8102 91.0499 63.6102C89.8799 64.1902 88.4998 64.1102 87.3798 64.8502C86.4698 65.4702 84.6598 65.0301 84.9098 66.9901C84.0998 68.3201 82.6599 68.7902 81.4599 69.5802C80.4299 70.1502 79.31 70.5902 78.61 71.6202C77.78 72.5102 77.04 73.46 76.33 74.45C75.75 75.14 75.1999 75.86 74.8099 76.68C73.6799 78.08 72.6098 78.1902 71.9198 76.3702C66.4198 61.7402 59.28 47.68 56.36 32.14C56.22 31.37 56.5999 30.9102 57.2399 30.5902H57.2499Z" fill="#ED6853"/>
<path d="M57.2499 30.5901C58.9199 43.4001 64.3699 55.0001 68.9799 66.8601C70.2999 70.2501 71.63 73.6201 73.07 77.3101C73.52 76.2801 73.8498 75.54 74.1698 74.8C78.8098 74.01 80.3998 78.7901 83.8798 80.1001C85.5498 79.9201 87.34 77.7299 88.81 79.8999C89.87 81.4599 88.2499 82.92 87.7099 84.45C86.2799 88.45 81.5699 90.84 82.1999 95.8C82.9499 98.49 83.87 101.11 85.07 103.63C86.06 106.43 87.1599 109.19 87.5199 112.16C88.4499 114.54 89.3398 116.93 89.3798 119.53C93.1998 130.95 95.5099 142.79 99.2199 154.24C99.5299 155.18 99.8399 156.11 100.24 157.02C101.14 158.46 101.47 160.03 101.43 161.71C104.22 173.59 107.01 185.47 108.72 197.56C109.25 199.88 110.04 202.16 109.95 204.59C109.45 207.52 110.9 210.36 110.41 213.29C111.43 217.82 112.18 222.38 111.52 227.04C110.96 233.06 111.08 239.08 111.5 245.1C111.28 252.91 110.02 260.59 108.49 268.23C108.78 270.77 108.37 273.2 107.22 275.49C104.14 282.25 101.79 289.36 97.9999 295.8C95.6699 300.22 92.46 304.06 89.8 308.26C86.64 311.89 83.8998 315.88 80.6498 319.43C79.2098 321.01 77.8099 322.74 75.4599 323.05C74.9599 323.01 74.5998 322.77 74.3998 322.3C77.0798 318.92 79.5999 315.41 82.4599 312.19C101.4 290.87 107.78 265.35 108.05 237.57C108.36 204.98 101.83 173.58 92.3798 142.62C90.3498 135.99 88.6099 129.27 86.7399 122.59C83.0899 108.44 78.55 94.61 73.11 81.03C67 65.79 59.5398 51.03 56.1698 34.79C55.8898 33.42 53.9899 31.2201 57.2399 30.5901H57.2499Z" fill="#323631"/>
<path d="M23.78 456.51C19.09 454.36 15.1498 451.05 10.8798 448.24C4.38983 443.14 1.13002 436.43 0.330023 428.23C-1.04998 414.09 7.08999 403.69 13.8 392.69C14.93 391.3 16.0599 389.91 17.1799 388.52C17.6099 388.16 18.0901 388.09 18.6101 388.29C20.0501 390.13 18.69 391.64 18.05 393.24C12.74 400.72 7.88985 408.47 4.89985 417.23C2.15985 425.25 3.86006 432.67 8.12006 439.65C9.05006 441.17 9.79983 443.53 12.6298 441.73C14.0198 440.85 14.8599 442.43 14.9299 443.5C15.2399 447.86 18.3299 449.71 21.6599 451.44C23.1999 452.24 24.3899 453.36 24.4299 455.27C24.3399 455.75 24.12 456.16 23.78 456.51Z" fill="#4B1F26"/>
<path d="M18.6201 388.53C18.1401 388.53 17.6599 388.51 17.1799 388.51C30.5199 369.52 46.5799 352.83 61.8999 335.51C62.6499 334.67 63.7499 334.14 64.6899 333.47C65.3199 333.96 65.51 334.64 65.46 335.4C64.53 338.51 61.3099 339.88 59.9399 342.65C56.6599 347.26 52.9401 351.52 48.6101 355.15C46.0401 357.31 45.98 360.37 45 363.1C44.82 363.6 46.06 363.6 46.52 364.06C47.32 364.83 47.5101 365.71 47.0701 366.72C45.6401 368.39 43.62 368.45 41.71 368.41C38.55 368.33 36.0399 369.39 34.1699 371.93C30.4099 375.62 27.2601 379.84 24.0601 384.01C23.1801 385.03 22.5801 386.27 21.6201 387.23C20.7801 388.05 19.8501 388.64 18.6101 388.53H18.6201Z" fill="#192627"/>
<path d="M64.71 335.45C64.71 334.79 64.6999 334.13 64.6899 333.48C67.4399 329.32 71.0399 325.91 74.4199 322.3C74.5699 322.44 74.7101 322.58 74.8501 322.73C76.2301 324.56 74.7 325.85 74.01 327.29C71.99 330.28 69.0901 332.54 67.1001 335.56C66.2701 336.15 65.45 336.41 64.7 335.45H64.71Z" fill="#373B2C"/>
<path d="M73.1899 326.75C72.3999 324.85 75.1001 324.4 74.8601 322.73C80.5101 318.55 83.52 311.98 88.8 307.46C89.46 307.55 90.11 307.67 90.7 308C97.02 311.55 100.3 310.97 104.66 305.48C106.04 303.75 107.34 301.84 106.3 299.59C105.28 297.39 102.96 297.03 100.81 296.8C99.1901 296.63 97.49 297.23 95.99 296.15C99.07 290.14 102.17 284.15 104.14 277.64C104.39 276.81 104.73 275.71 105.91 275.47C108.18 275.52 108.67 277.57 109.73 278.94C113.31 283.57 115.8 283.86 120.59 280.5C123.49 278.47 124.69 274.88 127.77 273.08C131.51 274.75 134.35 277.66 137.5 280.16C137.61 282.84 136.88 285.53 137.54 288.21C135.81 292.29 133.12 290.61 131.3 288.74C128.66 286.03 126.19 286.15 123.29 287.83C122.72 288.16 123.45 287.78 122.84 288.05C112 292.83 111.57 293.81 114.84 305.22C115.65 308.05 117.65 308.82 120.2 308.51C122.77 308.2 125.01 307.51 125.31 304.17C126.22 294.24 130.78 290.58 141.08 291.27C145.71 291.58 146.69 290.78 146.85 286.08C146.99 281.92 146.92 277.77 147.85 273.66C148.38 271.33 147.48 269.42 145.19 268.32C142.64 267.09 140.47 265.09 137.68 264.41C128.7 262.2 126.35 246.85 132.24 240.31C135.28 236.93 139.15 236.7 143.24 236.87C145.74 236.97 148.17 237.75 150.69 237.6C152.04 237.52 153.64 237.42 154.15 236.08C154.78 234.45 153.03 233.87 152.01 233.18C149.94 231.77 147.6 230.84 145.36 229.73C143.42 228.77 142.04 229.28 140.55 230.85C133.09 238.73 125.93 240.15 115.76 236.01C115.46 239.66 121.13 242.72 116.84 246.83C112.68 250.24 112.7 250.36 118.22 253.72C118.12 257.39 119.91 259.4 123.5 260.16C125.09 260.5 126.61 261.33 127.98 262.27C131.14 264.42 131.06 265.9 127.73 268.48C120.72 267.61 113.78 269.11 106.79 269.1C107.84 261.26 108.89 253.42 109.95 245.59C110.34 239.27 110.54 232.95 109.94 226.63C109.61 221.96 109.28 217.29 108.95 212.62C110.8 210.17 113.5 209.61 116.32 208.95C123.26 207.32 124.61 205.72 124.3 200.46C123.94 198.38 123.44 196.33 123.15 194.24C123.04 192.03 121.24 191.44 119.74 190.4C117.32 188.72 114.69 187 115.61 183.3C116.91 181.96 118.59 181.75 120.32 181.7C124 181.94 127.22 179.35 130.97 179.94C135.12 181.99 137.7 185.76 140.72 189.01C142.75 191.19 144.7 193.45 146.8 195.57C150.58 200.98 153.24 196.11 156.26 194.53C162.69 194.14 168.46 195.96 173.61 199.79C175.04 202.11 172.04 203.06 171.71 205.42C174.96 204.48 173.08 200.94 175.19 199.94C176.97 199.21 178.84 199.43 180.57 199.86C189.12 202 196.94 199.7 204.51 196.04C209.87 193.45 215.3 191.03 220.76 188.66C223.27 187.57 225.84 186.05 228.79 187.35C233.79 193.03 236.3 199.98 238.73 206.96C239 209.38 237.06 210.41 235.67 211.73C224.73 222.15 214.23 232.91 207.04 246.44C205.91 248.56 204.37 251.29 201.33 249.79C198.31 248.3 197.22 245.59 198.92 242.28C199.74 241 201.11 240.35 202.23 239.4C203.65 238.19 204.04 236.69 203.16 235.01C202.65 234.03 201.68 233.68 200.65 233.98C198.82 234.51 198.11 235.97 198.05 237.72C198 239.17 198.79 240.59 198.29 242.09C196.11 244.92 193.44 244.41 191.5 242.3C187.5 237.95 183.29 233.69 180.85 228.14C180.78 225.19 182.4 224.8 184.74 225.67C186.31 226.26 187.51 227.47 188.95 228.29C192.53 230.34 197.85 228.96 199.77 225.47C200.78 223.63 199.92 222.64 198.07 222.36C196.27 222.09 194.43 222.33 192.61 222.24C186.73 221.97 181.94 219.25 177.57 214.72C176.29 217.94 176.52 220.82 174.58 222.81C166.93 231.28 162.16 241.27 159.24 252.18C156.19 263.57 152.44 274.76 152.5 286.84C152.57 299.77 156.43 311.37 163.07 322.2C171.14 335.36 180.79 347.15 193.15 356.58C194.73 357.79 196.37 358.98 197.12 360.96C197.56 363.01 195.93 363.97 194.75 364.98C185.79 372.63 178.65 381.99 170.61 390.5L170.66 390.45C169.19 392.92 167.22 394.9 164.79 396.44C160.083 396.133 158.307 398.177 159.46 402.57C149.55 415.43 138.13 426.9 126.52 438.19C126.03 438.67 125.44 438.93 124.73 438.67C122.41 439.56 122.21 442.55 119.95 443.49C112.94 448.28 105.78 452.82 97.8701 456.03C97.3701 456.06 96.91 455.93 96.5 455.63C95.05 451.92 97.0699 448.16 96.1599 444.32C93.6399 433.7 87.4499 426.03 78.6499 419.87C65.6899 410.79 51.28 404.22 38.01 395.69C33.54 392.82 29.19 389.76 24.72 386.89C23.58 386.16 22.6 385.29 22.27 383.89C25.45 379.19 28.8299 374.67 33.1499 370.92C35.0199 371.39 35.2301 372.69 34.8601 374.21C35.1601 373.88 35.1 373.49 35.27 373.16C36.91 370.31 39.5099 371.08 41.9299 371.37C52.1499 372.59 62.3599 373.87 72.6899 373.66C84.6299 373.42 95.4099 370.11 105.38 363.26C119.78 353.38 129.62 340.31 135.3 323.94C137.36 317.69 137.3 317.7 130.74 317.52C112.98 317.03 95.74 319.42 79.29 326.48C77.36 327.31 75.3 328.36 73.21 326.71L73.1899 326.75Z" fill="#F5ECEF"/>
<path d="M255.68 307.16C254.32 308.81 252.95 310.46 251.59 312.11C247.52 318.67 242.74 324.63 236.58 329.36C235.59 330.12 235.09 331.07 234.67 332.14C234.56 332.31 234.43 332.46 234.26 332.57C231.99 333.75 229.78 335.31 227.04 333.89C226.31 333.68 225.69 333.27 225.07 332.86C220.93 328.56 217.08 324 213.42 319.29C212.82 318.09 212.08 317 210.94 316.21C206.56 309.86 203.79 302.83 202.05 295.35C198.98 286.53 201.15 277.77 202.29 269C202.3 268.5 202.38 267.99 202.49 267.5C206.59 258.27 210.01 248.72 216.43 240.61C221.01 234.82 225.27 228.76 229.75 222.87C230.18 222.22 230.7 221.67 231.31 221.2C234 219.2 236.08 216.56 238.53 214.32C240.45 212.57 242.57 212.12 243.91 214.71C252.44 231.23 261.54 247.69 263.04 266.64C264.15 280.6 263.29 294.59 255.67 307.15L255.68 307.16Z" fill="#E7415D"/>
<path d="M130.8 180.47C128.3 182.28 124.92 181.9 122.43 183.95C121.39 184.81 120.91 183.38 120.63 182.44C119.07 181.49 119.04 179.66 118.24 178.28C117.54 177.06 116.61 175.94 115.17 176.5C113.39 177.19 113.64 178.82 114.25 180.25C114.76 181.43 115.79 182.39 115.72 183.81C117.39 186.19 118.92 188.65 121.88 189.82C123.62 190.51 124.74 191.96 124.54 194.05C122.25 195.15 119.54 195.58 117.33 195.32C113.05 194.81 110.13 196.64 107.19 199.06C105.42 187.56 102.87 176.22 100.23 164.89C99.97 163.79 100.03 162.61 99.9399 161.47C101.24 160.65 102.8 160.87 104.18 160.41C105.93 159.83 107.21 158.7 106.25 156.76C105.35 154.94 103.74 154.89 102.13 156.03C101.1 156.75 100.41 158.08 98.8601 157.9C94.1701 145.47 91.22 132.54 88.02 119.69C90.8 116.41 89.02 114.45 86.05 112.82C85.07 109.66 84.1001 106.5 83.1201 103.35C83.8001 101.56 85.37 100.99 87 100.55C114.63 92.9501 135.55 76.4202 150.99 52.5602C152.52 50.2002 153.91 47.6302 156.96 46.8402C169.49 43.6002 182.13 40.8902 194.87 38.6102C195.47 38.1202 196.05 38.0401 196.58 38.7201C195.05 43.5301 196.32 48.6501 194.99 53.4901C195.9 56.1501 194.22 57.9301 192.79 59.7401C188.15 65.6101 183.29 71.32 178.36 76.92C167.37 89.42 161.02 103.95 157.83 120.08C156.5 126.79 154.77 127.89 148.18 126.36C143.98 125.38 139.67 124.68 135.88 122.42C134.32 121.78 133.03 120.68 131.59 119.85C131.18 119.62 130.81 119.33 130.47 119.01C128 116.62 125.72 114.02 123.05 111.73C121.65 113.44 122.49 115.2 122.07 116.75C120.96 129.23 118.81 141.63 121.27 154.25C122.69 161.54 125.43 168.15 128.97 174.54C130 176.39 131.56 178.06 130.81 180.46L130.8 180.47Z" fill="#F7EDF3"/>
<path d="M130.8 180.47C115.38 160.7 116.92 138.29 120.66 115.53C122.05 114.42 120.21 111.87 122.3 111.3C124.46 110.7 125.28 112.96 126.6 114.06C128.37 115.53 129.68 117.52 131.82 118.57L131.89 118.49C132.5 119.43 132.32 120.29 131.64 121.1C129.43 122.22 129.62 124.39 129.36 126.36C129.77 134.84 130.7 143.21 134.25 151.05C134.54 151.43 134.77 151.85 134.95 152.3C135.32 155.66 137.57 157.91 139.69 160.24C140.18 161.26 140.42 162.39 141.07 163.34C144.07 168.07 148.11 171.78 152.51 175.14C153.41 175.43 154.21 175.9 154.89 176.55C159.88 179.79 164.86 183.05 170.78 184.42C172.24 185.04 173.57 185.96 175.12 186.38C177.65 187.5 180.37 187.45 183.06 187.63C184.85 188.31 186.76 188.05 188.6 188.33C194.54 190.14 199.58 186.99 204.85 185.29C207.07 184.57 206.02 183.24 204.8 182.47C202.52 181.03 200.65 179.15 198.68 177.36C196.4 175.15 195.89 171.91 194.05 169.44C191.76 163.39 191.75 157.28 193.07 150.99C193.98 146.65 194.51 142.22 195.42 137.87C197.5 130.22 197.11 122.04 200.39 114.65C201.71 113.19 201.58 110.04 204.83 110.82C206.8 114.83 205.09 119.64 207.61 123.52C207.07 134.07 206.4 144.61 206.34 155.18C206.31 161.37 209.44 166.15 213.32 170.56C213.7 170.9 214.1 171.22 214.53 171.5C214.93 171.79 215.32 172.16 215.78 172.3C222.29 174.23 226.83 178.3 229.28 184.67C230.14 185.76 229.41 186.56 228.79 187.38C219.74 190.85 210.96 194.94 202.23 199.15C193.22 203.49 183.83 202.96 174.4 200.6H174.05C167.93 198.64 162.1 195.67 155.5 195.44C152.3 195.61 149.19 196.49 145.98 196.53C140.93 191.18 135.87 185.84 130.82 180.49L130.8 180.47Z" fill="#E68F3B"/>
<path d="M231.71 223.08C231.53 223.24 231.37 223.42 231.24 223.62C218.26 235.93 209.47 250.85 203.7 267.67L203.74 267.57C202.58 269.5 203.85 272.17 201.81 273.83C199.44 273.95 199.32 271.97 198.97 270.5C197.56 264.59 193.11 260.29 190.89 254.83C190.14 254.19 189.66 253.38 189.39 252.44C189.19 250.39 188.05 248.76 186.91 247.15C186.42 246.22 186.12 245.2 185.5 244.34C184.74 242.86 183.91 241.43 182.55 240.4C181.96 239.74 181.54 238.99 181.33 238.13C180.89 236.13 179.55 234.86 177.85 233.92C174.37 234.53 177.94 236.82 176.88 238.01C173.96 249.55 170.47 260.94 168.55 272.74C166.09 287.88 167.11 302.48 174.16 316.34C175.57 319.01 176.37 322.02 178.48 324.32C178.83 324.63 179.12 324.99 179.37 325.38C180.13 327.26 180.83 329.18 182.45 330.55C182.94 331.01 183.41 331.5 183.86 332.01C185.53 334.53 188.3 335.77 190.45 337.74C192.45 339.7 195.21 340.39 197.48 341.89C200.2 343.86 203.44 344.7 206.45 346.05C212.05 348.57 212.25 349.57 207.93 353.92C207.35 354.51 206.76 355.09 206.16 355.65C203.53 356.71 202.03 359.22 199.72 360.69L199.79 360.65C198.81 361.09 198.06 362.22 196.75 361.7C180.35 349.99 167.4 335.19 158.12 317.36C149.42 300.65 148.54 283.1 153.97 265.17C156.19 257.84 157.68 250.32 160.55 243.13C163.77 235.09 167.74 227.68 173.76 221.43C178.94 220.48 180.13 224.37 181.61 227.91C184.96 232.08 188.47 236.14 191.59 240.48C193.53 243.17 195.5 243.48 198.12 241.88C198.61 241.13 199.01 241.25 199.34 242.01C199.97 243.4 198.24 244.94 199.5 246.23C200.61 247.37 200.85 249.55 202.82 249.58C204.43 249.6 204.7 247.76 205.22 246.73C212.36 232.46 223.34 221.32 234.61 210.42C235.89 209.19 237.34 208.13 238.71 207C240.89 207.53 241.54 209.15 241.66 211.15C240.34 214.71 236.96 216.49 234.67 219.21C233.62 220.47 232.21 221.44 231.69 223.1L231.71 223.08Z" fill="#E39138"/>
<path d="M135.72 120.76C140.83 123.85 146.9 123.68 152.38 125.57C155.33 126.59 155.34 124.04 155.71 122.02C158.27 107.98 162.22 94.45 171.28 83.05C177.8 74.85 184.64 66.89 191.28 58.78C192.64 57.12 193.75 55.27 194.98 53.5C198.11 55.73 196.13 58.98 196.62 61.75C195.23 67.56 191.2 71.8499 188.04 76.6399C187.83 77.0599 187.56 77.44 187.25 77.78C182.8 82.82 179.53 88.5601 177.19 94.8401C176.89 95.6901 176.4 96.44 176.03 97.26C175.02 98.69 174.67 100.44 173.89 101.98C172.76 103.46 172.94 105.43 172 106.98C170.37 112.05 169.87 117.23 170.56 122.51C170.32 123.74 170.16 124.99 170.09 126.24C168.88 132.32 170.34 137.82 174.27 142.45C177.29 146.01 180.02 149.77 182.87 153.45C184.05 155.53 186.15 156.93 187.05 159.21C187.94 161.69 189.75 163.62 191.04 165.86C191.94 167.42 193.56 169.17 191.39 171.04C189.53 171.88 188.21 170.46 186.69 169.91C186.26 169.71 185.87 169.45 185.5 169.14C178.84 164.82 173.33 159.15 167.52 153.83C167.15 153.54 166.83 153.2 166.54 152.84C164.71 150.47 162.7 148.26 160.73 146.01C155.08 138.7 146.83 134.56 139.83 128.89C138.31 127.66 136.44 126.81 135.4 125.01C134.7 123.53 134.31 122.07 135.71 120.75L135.72 120.76Z" fill="#E5A03B"/>
<path d="M181.87 332.06C180.23 330.3 178.16 328.79 178.32 325.98C178.36 325.69 178.61 325.32 178.52 325.17C178.18 324.55 177.83 325.31 177.46 325.25C175.24 323.16 173.9 320.64 173.84 317.54C174.04 317.42 174.23 317.29 174.43 317.17C177.14 316.69 179.93 316.48 182.33 314.9C182.78 314.67 183.25 314.53 183.74 314.43C191.2 314.67 197.79 318.05 204.74 320.16C205.7 320.42 206.57 320.88 207.36 321.49C210.71 325.04 214.88 327.71 217.83 331.77C219.39 333.91 221.84 335.64 224.82 335.86C225.14 335.66 225.43 335.42 225.66 335.13C226.33 334.37 225.42 332.62 227.24 332.59C229.59 332.8 231.93 333.55 234.28 332.6C224.76 340.56 215.25 348.52 205.73 356.47C205.16 356.01 205.16 355.54 205.71 355.07C210.83 350.09 210.79 350.18 204.18 346.97C201.61 345.72 198.38 345.49 196.78 342.58C196.92 342.37 197.06 342.15 197.19 341.93C198.97 340.92 200.74 339.91 202.69 341.57C207.19 343.01 211.83 342.54 216.43 342.62C211.86 342.58 207.25 342.93 202.77 341.62C205.02 338.04 208.64 338.71 211.62 338.62C207.82 338.05 204.04 339.97 200.04 340.62C199.58 340.65 199.12 340.6 198.67 340.47C196.13 338.97 193.38 338.34 190.44 338.43C190.22 338.46 190 338.5 189.79 338.53C186.35 337.55 184.39 334.72 182.1 332.32C182.96 331.69 183.99 331.48 184.94 331.77C193.27 334.25 201.85 334.48 210.43 334.65C211.24 334.67 212.05 334.69 212.14 334.78C207.15 334.42 201.5 334.14 195.97 333.9C191.15 333.69 186.76 330.94 181.88 332.08L181.87 332.06Z" fill="#1B5345"/>
<path d="M229.28 184.66C229.12 184.67 228.82 184.72 228.81 184.69C226.37 177.3 218.8 176.48 213.51 172.74C215.03 170.87 216.32 169.21 213.71 166.95C211.86 165.34 211.51 162.49 209.89 160.94C211.81 163.06 212.79 166.14 214.86 168.59C216.5 170.53 213.87 171.31 213.12 172.59C208.53 168.9 205.66 164.01 204.95 158.31C203.5 146.59 205.56 135.04 207.61 123.53C208.37 126.14 209.81 128.68 207.7 131.4C206.88 132.45 207.48 133.48 208.52 134.31C213.14 137.96 213.98 143.28 214.72 148.63C211.35 148.12 211.36 144.93 210.45 143.6C211.21 145.06 211.42 148.1 214.75 148.66C217.06 151.11 215.13 153.56 214.75 156.01C214.65 156.53 212.61 155.39 213.85 157.06C215.76 159.62 218.27 161.78 219.04 165.11C219.11 165.42 219.45 164.45 219.89 164.3C220.33 164.15 220.68 164.26 220.95 164.61C223.73 171.3 226.5 177.99 229.28 184.67V184.66Z" fill="#1C4640"/>
<path d="M186.72 76.72C189.07 71.1 193.15 66.61 196.63 61.74C197.76 71.92 197.47 82.28 200.63 92.27C199.44 93.85 196.87 91.4399 195.92 94.1899C196.31 95.6499 199.09 93.7199 199.07 95.6899C199.05 97.2799 197.11 97.16 196.17 97.99C194.49 99.48 192.13 100.33 191.64 102.91C190.36 103.88 190.03 103.69 189 101.36C189.4 95.3901 192.91 90.58 194.98 85.23C194.51 86.41 193.86 87.5001 193.26 88.6101C192.67 89.7001 192.94 91.7099 191.24 91.6399C189.23 91.5499 188.88 89.49 188.5 87.96C187.58 84.28 187.3 80.47 186.74 76.72H186.72Z" fill="#1D4136"/>
<path d="M231.71 223.08C233.14 217.52 238.57 215.29 241.68 211.13C242.7 211.15 243.07 211.99 243.45 212.67C253.2 230.12 262.19 247.97 264.09 268.22C265.37 281.89 264.34 295.46 255.69 307.17C260.76 295.77 262.02 283.8 262.24 271.4C262.37 263.87 260.81 256.93 258.83 249.98C255.38 237.92 249.33 226.96 243.68 215.84C242.41 213.34 241.24 213.51 239.64 215.29C237.16 218.05 234.8 220.93 231.72 223.08H231.71Z" fill="#451A20"/>
<path d="M190.02 101.69C190.68 101.93 190.61 103.13 191.61 102.91C193.94 101.79 196.49 100.97 198.02 98.6699C199.37 96.6399 200.29 98.6301 201.48 98.8001C203.76 99.1201 202.62 100.47 202.26 101.03C200.25 104.19 205.22 105.14 204.31 107.87C202.85 109.64 201.39 111.42 199.69 112.98C196.09 115.64 192.37 118.11 189.38 121.54C187.29 123.94 185.73 122.87 185.44 120.25C185.03 116.55 185.2 112.87 189.43 111.01C190.79 110.41 191.8 109.2 193.11 108.69C193.36 108.49 193.26 108.74 192.8 108.83C190.99 109.16 189.32 112.7 187.83 110.41C185.92 107.46 187.42 104.16 190.02 101.7V101.69Z" fill="#1B5445"/>
<path d="M97.22 455.43C97.45 455.36 97.6701 455.4 97.8601 455.55C98.1701 455.83 98.2501 456.09 98.1001 456.31C97.9701 456.52 97.84 456.62 97.71 456.62C73.05 468.81 48.4 470.43 23.77 456.51C23.8 456.13 23.8301 455.76 23.8601 455.38C27.7301 454 30.7299 456.58 33.9299 457.8C36.2199 458.67 38.4401 459.66 40.8601 460.1C41.3301 460.19 41.78 460.33 42.22 460.5C48.9 462.81 55.86 462.43 62.76 462.62C70.64 462.84 78.0301 460.26 85.5601 458.53C88.7301 457.8 91.3299 456.1 93.4399 453.65C95.1999 453.16 96.1 454.55 97.22 455.43Z" fill="#511A1F"/>
<path d="M124.73 438.7C136.82 427.29 148.42 415.43 158.81 402.43C159.46 401.18 160.41 400.68 161.79 401.2C151.39 414.39 139.83 426.5 127.59 437.99C126.91 438.63 126.35 439.6 125.18 439.46C125.06 439.45 124.91 439.31 124.85 439.19C124.77 439.05 124.77 438.87 124.73 438.71V438.7Z" fill="#1E2C2A"/>
<path d="M196.75 361.68C197.81 361.47 198.49 360.16 199.79 360.63C197.65 364.49 193.71 366.57 190.86 369.75C185.41 375.81 179.84 381.75 174.25 387.68C173.2 388.79 172.71 390.73 170.61 390.53C177.24 381.03 185.24 372.75 193.59 364.77C194.66 363.75 195.7 362.71 196.75 361.68Z" fill="#212B28"/>
<path d="M161.79 401.19C160.8 401.6 159.8 402.01 158.81 402.42C158.13 401.71 157.41 401.04 156.79 400.28C155.3 398.44 154.73 396.41 156.6 394.57C158.23 392.96 160.16 393.24 161.95 394.49C162.75 395.05 163.49 395.71 164.25 396.32C164.47 398.49 161.84 399.16 161.72 401.14L161.78 401.18L161.79 401.19Z" fill="#A92D25"/>
<path d="M234.68 332.15C234.81 331.37 234.66 330.21 235.12 329.87C241.71 324.96 245.89 317.83 251.59 312.12C251.75 315.72 248.76 317.49 246.93 319.88C243.4 324.49 239.36 328.66 234.68 332.16V332.15Z" fill="#3D2322"/>
<path d="M220.1 164.71C220.44 165.8 220.77 166.9 221.47 169.15C216.07 163.93 214.21 157.32 209.13 153.21C211.57 153.29 213.02 154.89 214.74 156C214.58 156.73 214.77 157.31 215.44 157.69C218.87 158.79 219.77 161.56 220.09 164.71H220.1Z" fill="#DDE1CB"/>
<path d="M97.71 456.62C97.76 456.26 97.8001 455.9 97.8501 455.54C105.21 451.53 112.57 447.52 119.93 443.51C113.64 449.78 105.73 453.29 97.7 456.62H97.71Z" fill="#303A37"/>
<path d="M196.57 38.72C196 38.68 195.43 38.6501 194.86 38.6101C196.19 34.4101 195.3 30.22 195.01 25.98C194.71 21.6 194.16 17.16 195.23 12.79C196.01 21.42 197.18 30.02 196.57 38.72Z" fill="#7E4D44"/>
<path d="M199.02 111.2C201.14 110.66 201.23 106.9 204.31 107.86C204.49 108.85 204.66 109.83 204.83 110.81C203.08 111.55 203.09 113.65 201.8 114.75C200.9 115.41 200.12 115.21 199.44 114.41C199.21 113.36 199.49 112.23 199.02 111.21V111.2Z" fill="#877336"/>
<path d="M220.1 164.71C219.11 162 217.75 159.53 215.45 157.69C215.59 156.53 215.97 155.51 217.23 154.77C218.64 158.03 220.37 161.08 220.95 164.6C220.66 164.61 220.38 164.65 220.1 164.71Z" fill="#233D2C"/>
<path d="M161.72 401.15C161.37 398.91 163.54 398 164.25 396.32C166.75 394.78 167.86 391.71 170.65 390.47C168.89 395.05 164.96 397.81 161.72 401.14V401.15Z" fill="#1E2520"/>
<path d="M205.7 355.06C205.7 355.53 205.71 355.99 205.72 356.46C203.74 357.89 202.41 360.25 199.72 360.67C200.87 357.9 203.48 356.68 205.71 355.06H205.7Z" fill="#322710"/>
<path d="M156.96 46.8401C151.4 54.7201 146.28 62.9101 139.83 70.1201C124.49 87.2701 105.37 97.9801 83.13 103.35C82.34 100.93 80.62 98.79 80.93 96.05C81 95.55 81.2302 95.12 81.6202 94.8C87.2402 92.69 93.2201 91.56 98.4901 88.52C99.1101 88.14 99.7701 87.8599 100.47 87.6899C108.43 85.7099 114.51 80.53 120.8 75.71C121.98 74.81 123 73.7 124.17 72.77C125.1 71.79 125.82 70.5899 127.06 69.9299C128.98 69.0599 130.46 67.75 131.31 65.78C131.64 64.9 132.18 64.17 132.88 63.55C135.8 61.48 137.52 58.45 139.25 55.45C140.35 53.54 141.92 52.11 143.55 50.71C147.42 47.33 152.24 47.2401 156.97 46.8401H156.96Z" fill="#E89C31"/>
<path d="M100.43 88.8999C100.13 88.9999 99.9599 89.21 99.9099 89.52C97.8099 88.11 97.66 87.96 98.98 85.95C100.72 83.31 102.92 81.01 104.85 78.51C106.33 76.58 108.02 74.75 108.7 72.02C105 72.21 103.52 74.45 102.53 77.22C100.93 81.67 98.4301 85.5501 95.3401 89.1101C94.1001 90.5301 92.64 91.5501 90.97 92.3301C89.96 92.7901 88.8301 93.8301 87.8601 92.6001C86.9301 91.4201 88.15 90.45 88.75 89.53C91.18 85.77 93.7001 82.0701 95.8301 78.1101C93.6001 81.0001 90.4401 82.8299 89.8401 87.3899C89.3301 91.2599 85.1701 93.59 81.6101 95.53C81.3701 95.69 81.1399 95.8601 80.9199 96.0601C78.9799 93.5501 80.91 91.59 82.23 90.03C84.8 87 86.39 83.4501 88.72 80.0801C86.61 79.7901 85.7101 81.7401 84.0901 81.8201C81.7701 82.2801 82.0699 80.2001 81.4099 79.0601C82.5899 76.5301 85.09 76.6899 86.99 76.1699C83.79 74.8799 79.8699 74.3101 77.8799 70.5401C78.3399 69.1601 79.39 68.5799 80.74 68.3999C83.1 68.2399 85.3199 68.6501 87.4399 69.7901C91.6499 72.0601 95.69 71.47 99.76 68.97C97.02 66 91.88 66.6199 90.52 62.1499C91.83 61.2999 93.1301 60.4001 94.8401 60.8001C99.2301 61.8701 103.21 63.9 106.98 65.96C104.55 64.07 100.52 63.9899 99.3101 60.1599C100.32 59.8099 101.15 58.7899 102.4 59.3799C109.26 62.0699 116.13 64.7799 123.57 61.3999C125.07 66.7899 121.38 76.93 116.79 80.03C116.11 80.49 115.45 81.1601 114.62 80.3701C113.95 79.7301 113.97 78.8601 114.12 78.0401C114.67 75.0901 116.47 72.56 117.24 68.74C114.06 73.47 113.79 79.09 110.5 82.21C107.76 84.81 104.72 88.1299 100.43 88.8999Z" fill="#E7F2E5"/>
<path d="M100.43 88.9C103.91 87.67 104.45 83.76 106.96 81.66C108.28 82.28 106.34 84.0201 108.16 84.5601C109.85 80.4801 111.96 76.5001 113.09 72.2701C114.09 68.5201 116.1 66.6601 120.12 66.0401C119.25 71.2001 116.43 75.6102 114.64 81.3602C120.55 75.3502 121.15 68.0102 123.84 61.6202C123.89 61.4002 123.94 61.17 123.98 60.95C123.67 60.54 125.4 60.3 124.15 59.96C121.47 59.24 118.22 60.2001 116.31 57.2501C115.9 56.7601 115.48 56.2801 115.07 55.7901C119.74 54.8301 124.49 54.3901 129.2 53.7401C132.56 53.2701 133.66 54.64 132.46 58.15C130.6 63.59 127.95 68.6602 125.57 73.8502C119.19 79.3102 112.55 84.4 104.85 87.91C103.49 88.53 102.26 90.17 100.43 88.91V88.9Z" fill="#135245"/>
<path d="M90.52 62.1499C95.12 64.2499 99.73 66.35 104.51 68.53C93.73 74.32 91.74 74.2899 80.74 68.3899C81.89 67.5799 83.0399 66.76 84.1799 65.95C88.3499 64.76 90.6301 68.96 93.8101 69.25C91.7401 67.51 87.33 68.0099 86.77 63.6299C87.73 62.4199 89.27 62.6499 90.51 62.1399L90.52 62.1499Z" fill="#13443E"/>
<path d="M123.83 61.6201C115.9 68.4301 109.06 64.7398 102.39 59.3798C105.42 58.4298 108.25 56.54 111.67 57.31C114.15 59.18 117.17 57.6898 119.81 58.6498C121.48 59.2598 123.99 58.6999 123.7 61.7399L123.83 61.6201Z" fill="#135245"/>
<path d="M125.56 73.8401C124.16 70.9101 127.06 69.28 127.7 66.95C128.85 62.76 129.8 58.4401 132.7 54.5901C126.55 55.0001 120.8 55.39 115.05 55.77C122.73 52.52 131.14 53.15 139.07 51.23C140 56.89 136.52 60.72 133.48 64.74C133.17 65.32 132.87 65.9 132.56 66.47C131.13 67.74 130.51 67.03 130.57 65.52C130.65 63.66 131.8 62.15 132.33 60.96C129.72 63.45 131.29 68.59 127.34 70.98C126.75 71.93 126.15 72.8901 125.56 73.8401Z" fill="#C2DED1"/>
<path d="M77.8799 70.53C82.6699 71.99 86.71 75.7299 93.48 74.9299C89.01 77.4399 85.67 78.84 81.79 78.45C79.64 76.79 76.32 76.54 75.49 73.27C76.29 72.36 77.0799 71.45 77.8799 70.53Z" fill="#184540"/>
<path d="M99.3 60.1599C103.26 62.3799 107.23 64.6101 111.19 66.8301C104.62 67.4601 99.5801 64.48 94.8301 60.8C96.3201 60.59 97.81 60.3699 99.3 60.1599Z" fill="#174C3F"/>
<path d="M133.49 64.75C135.35 60.25 137.21 55.75 139.07 51.25C140.57 51.07 142.05 50.9 143.54 50.72C141.29 56.18 138.38 61.18 133.49 64.75Z" fill="#1B3F34"/>
<path d="M86.78 63.6399C89.6 67.0099 94.1299 67.5799 97.3799 70.4199C92.4299 70.6199 88.4699 67.8 84.1899 65.96C84.3599 64.41 85.54 63.9999 86.78 63.6499V63.6399Z" fill="#E9F1EA"/>
<path d="M123.7 61.74C120.11 58.05 115.17 59.5799 110.92 58.4199C110.8 58.3899 110.71 58.2599 110.61 58.1799C110.95 57.8899 111.3 57.6001 111.66 57.3101C113.22 57.2901 114.77 57.27 116.31 57.24C120.63 57.38 124.82 59.7899 129.51 57.6399C128.14 60.3699 125.67 60.67 123.71 61.74H123.7Z" fill="#E2F2EA"/>
<path d="M75.4899 73.27C77.5899 75 79.69 76.72 81.79 78.45C82.29 79.76 82.79 81.0601 84.09 81.8201C82.43 83.0201 81.45 83.1499 80.83 80.6399C80.01 77.3399 76.0999 77.1101 74.1799 74.8101C74.1399 73.8901 74.7399 73.52 75.4899 73.28V73.27Z" fill="#DBECE4"/>
<path d="M106.79 269.11C107.68 268.38 108.72 266.91 109.43 267.05C115.51 268.3 121.74 264.41 127.71 267.63C130.83 269.47 130.41 271.5 128.03 273.64C126.48 276.54 124.89 279.48 122.17 281.42C115.83 285.94 113.22 287.18 107.62 278.82C106.89 277.73 107.37 276.1 105.9 275.48C106.26 273.37 107.16 271.33 106.79 269.12V269.11Z" fill="#BA312E"/>
<path d="M95.99 296.15C96.93 295.87 97.8701 295.53 98.8301 295.32C102.48 294.52 106.11 295.23 108.1 298.23C110.21 301.41 108.19 304.5 105.72 306.96C104.56 308.12 103.39 309.31 102.07 310.28C96.6901 314.24 94.2501 313.69 88.8101 307.46C90.4301 303.19 93.84 300.07 96 296.16L95.99 296.15Z" fill="#C22E34"/>
<path d="M107.19 199.06C108.86 193.19 110.02 192.35 115.37 194.19C117.02 194.76 117.78 194.09 118.88 193.42C120.9 192.2 122.69 193.47 124.54 194.04C125.84 196.06 125.98 198.27 125.55 200.56C124.44 205.56 121.14 208.67 116.06 208.93C112.84 209.09 109.71 208.49 108.86 204.5C108.3 202.69 107.74 200.87 107.18 199.06H107.19Z" fill="#B83232"/>
<path d="M108.87 204.5C114.8 209.59 120.29 207.99 125.56 200.56C127.42 204.59 125.25 207.21 121.98 208.58C117.81 210.33 113.31 211.31 108.95 212.63C109.53 209.91 106.28 207.24 108.87 204.5Z" fill="#F7EDF3"/>
<path d="M98.8601 157.91C100.18 156.51 100.04 154.07 102.32 153.32C105.47 152.28 107.74 153.62 108.75 156.31C109.91 159.4 107.77 161.32 105.1 162.42C103.27 163.18 101.52 162.56 99.9299 161.48C99.5699 160.29 99.2101 159.1 98.8601 157.91Z" fill="#9B2928"/>
<path d="M86.05 112.83C88.54 112.01 90.6899 112.35 91.3799 115.18C92.0099 117.76 91.06 119.62 88.02 119.71C87.36 117.42 86.71 115.13 86.05 112.84V112.83Z" fill="#8F1F22"/>
<path d="M109.94 226.64C110.41 227.28 111.4 228.05 111.27 228.54C109.81 234.16 111.94 240.04 109.95 245.6C109.95 239.28 109.95 232.96 109.94 226.64Z" fill="#F2E8E9"/>
<path d="M40.6898 461.42C34.2798 461.63 29.51 457.29 23.86 455.38C22.9 452.86 20.13 452.99 18.31 451.7C15.13 449.43 11.6198 447.6 13.1498 442.62C12.6398 443.78 12.14 444.94 11.57 446.25C10.97 445.91 10.4899 445.77 10.2099 445.45C0.56986 434.4 -0.720208 422.35 6.13979 409.46C9.25979 403.59 12.3798 397.7 16.6798 392.56C18.3498 391.91 19.2799 389.11 21.6999 390.72C23.2199 391.73 24.61 392.95 23.59 395.24C25.44 393.52 27.4899 392.42 30.0499 392.68C30.5199 392.79 30.94 392.98 31.34 393.25C33.09 394.92 32.4699 396.39 30.9899 397.85C29.5999 399.22 28.2099 400.59 27.2199 401.63C29.7799 400.04 31.0299 396.02 35.0199 395.38C36.2999 395.5 37.3299 396.04 37.9899 397.18C37.9999 400.54 34.5898 401.37 33.4398 403.41C35.5098 402.04 36.6399 398.77 40.0399 398.52C45.7699 400.24 50.1599 403.94 54.2499 408.11C55.0099 409.62 54.38 410.89 53.81 411.71C54.55 410.57 55.74 409.31 57.86 409.71C58.57 409.9 59.1498 410.28 59.6398 410.82C60.1731 413.193 58.7698 416.063 55.4298 419.43C57.4298 417.82 59.2999 415.1 61.7099 412.89C63.5099 412.65 65.0399 413.36 66.5299 414.21C71.7199 417.44 76.6598 421.02 81.4198 424.84C82.7898 425.94 84.2499 427.19 84.5099 429.18C84.6099 430.54 83.5599 431.21 82.7799 432.05C83.7599 431.13 84.7999 430.35 86.2799 430.67C89.0299 431.41 89.8299 433.85 90.9499 436C92.3299 438.25 93.3499 440.65 93.9499 443.22C94.6999 446.46 93.6599 449.66 93.7599 452.89C93.7599 453.11 93.7599 453.34 93.7499 453.56C93.2799 457.35 88.0499 461.01 82.2499 461.29C81.0899 461.34 80.1099 461.33 79.0199 461.87C72.4999 465.08 65.3799 464.14 58.4899 464.46C54.3699 464.65 50.2 463.87 46.06 463.45C44.62 463.3 42.9899 463.37 42.2699 461.64C49.4199 454.35 56.7198 447.2 63.9098 439.94C57.8098 446.05 51.69 452.14 45.61 458.27C44.2 459.69 42.8299 461.12 40.7099 461.42H40.6898Z" fill="#E73D5A"/>
<path d="M30.72 393.6C27.33 394.31 24.1299 395.46 21.3999 398.42C20.8299 396.01 24.3999 394.92 21.9199 392.41C19.5899 390.05 18.3899 393.14 16.6799 392.56C17.3299 391.22 17.9701 389.88 18.6201 388.54C19.4501 387.86 20.2801 387.19 21.1101 386.51C25.6401 386.43 29.74 389.45 30.72 393.61V393.6Z" fill="#B32543"/>
<path d="M136.6 324.61C131.79 342.18 120.52 354.76 106.09 365.22C91.8501 375.54 75.8401 376.37 59.3301 375.16C52.5401 374.66 45.79 373.57 39.02 372.79C37.57 372.62 35.94 372.19 35.29 374.22C35.14 374.61 34.97 375 34.45 374.88C34.28 374.84 34.23 374.53 34.24 374.2C34.54 372.9 33.7699 371.95 33.1399 370.96C34.3399 366.64 37.7601 366.45 41.3201 366.57C43.1201 366.63 44.92 366.73 46.72 366.81C48.54 365.67 50.52 365.85 52.48 366.2C63.91 368.27 75.1099 367.23 86.1499 363.86C86.5999 363.63 87.06 363.42 87.52 363.21C91.07 361.41 95.0601 360.52 98.3701 358.18C98.7101 357.87 99.08 357.62 99.48 357.4C101.18 356.81 102.43 355.53 103.89 354.56C105.15 353.66 106.2 352.5 107.45 351.59C110.16 349.58 112.52 347.17 114.95 344.84C115.17 344.46 115.4 344.09 115.62 343.71C116.55 342.16 118.29 341.55 119.5 340.32C120.07 339.65 120.53 338.9 121.04 338.19C123.86 335.24 125.32 331.55 126.94 327.9C128.46 324.5 128.04 322.94 123.96 323.25C122.84 323.34 121.65 323.13 120.47 323.1C118.18 322.72 114.24 324.07 114.15 321.23C114.05 318.13 118.03 318.74 120.5 318.59C122.81 318.45 125.03 317.78 127.34 317.74C132.61 317.64 134.95 319.36 136.58 324.61H136.6Z" fill="#DF9431"/>
<path d="M88.5701 364.53L87.46 364.76C81.42 367.1 76.46 363.03 71 361.95C69.35 361.62 67.6201 360.1 66.3501 362.54C66.0501 362.89 65.7 363.17 65.29 363.37C60.73 363.46 56.0199 361.79 51.6599 364.49C51.2399 364.7 50.7901 364.83 50.3301 364.92C48.6701 365.57 47.2201 363.87 45.5601 364.5H39.8701C45.6001 364.52 43.4299 358.86 45.6799 356.5C50.2499 351.7 54.5199 346.62 58.9199 341.65C59.8099 341.48 60.23 342.02 60.53 342.73C61.12 345.11 59.4201 346.41 58.0601 347.81C54.8301 351.14 52.1099 354.86 49.6299 359.12C55.6299 356.43 62.95 357.99 68.01 352.65C69.78 350.78 70.6601 348.48 71.3701 346.07C72.4001 342.55 73.8101 339.18 75.8101 336.1C76.8501 334.49 78.3001 333.03 80.3101 334.23C82.2201 335.37 81.22 337.01 80.45 338.57C78.85 341.85 77.6001 345.28 76.0701 348.6C75.5801 349.67 74.4599 350.84 76.1399 351.88C77.5699 351.53 78.1 350.51 78.21 349.17C78.24 344.47 78.7699 339.94 82.4399 336.46C83.2699 336.19 83.8999 336.5 84.4199 337.12C86.3299 340.42 83.8999 343.46 83.9099 346.32C85.4999 340.93 86.3301 334.99 88.3501 329.35C89.1801 327.2 89.74 324.59 93.03 326.54C94.29 330.88 91.67 334.38 90.52 338.2C88.93 341.11 88.05 344.32 87.22 347.54C87.99 344.62 88.7601 341.7 90.1201 339.02C91.4401 336.23 92.3001 333.28 93.3601 330.4C94.0501 328.52 94.9 326.71 97.48 327.22C99.26 329.03 98.1001 330.92 97.5901 332.78C96.4301 336.99 93.6601 340.45 91.8701 345.14C95.5701 340.99 96.3001 336.21 98.0801 331.93C99.0801 329.53 99.91 325.61 102.75 326.49C106.09 327.52 103.72 331 103.13 333.35C102.48 335.92 101.55 338.42 100.14 341.97C103.6 335.68 103.63 329.3 107.07 324.25C107.81 323.55 108.64 323.12 109.69 323.36C112.38 326.79 109.75 329.87 108.88 332.95C107.85 336.56 109.54 335.93 111.66 335.18C112.91 334.63 114.23 334.24 115.35 333.43C116.73 332.44 118.22 331.77 119.97 331.83C120.46 331.92 120.94 332.05 121.43 332.11C122.77 332.27 124.46 332.36 124.7 333.84C125 335.68 122.99 336.06 121.79 336.74C119.62 337.97 116.95 337.87 114.75 339.12C114.12 339.33 114.52 339.93 114.29 339.3C114.29 339.3 114.44 339.25 114.73 339.13C117.23 338.07 119.72 337.13 121.81 339.9C121.44 340.35 121.07 340.79 120.71 341.24C116.23 343.91 110.92 342.94 106.77 344.49C109.96 344.12 113.62 342.3 117.51 343.75C117.27 344.2 117.03 344.65 116.78 345.1C114.06 347.31 111.02 348.76 107.47 348.84C100.67 348.99 94.2499 350.85 87.9199 353.1C85.8999 353.07 84.2601 353.97 82.8601 355.27C86.6801 357.19 90.7301 355.73 94.6201 356.23C96.0601 356.42 97.57 356.07 98.95 356.81C99.56 357.27 100.06 357.78 99.6299 358.63L99.75 358.56C92.26 363.16 84.6899 361.06 78.1599 359.16C79.6199 359.66 82.1899 360.25 84.6899 361.06C86.3899 361.61 88.7101 361.84 88.5801 364.58L88.5701 364.53Z" fill="#E7F2EB"/>
<path d="M30.72 393.6C27.82 390.82 24.5701 388.52 21.1101 386.51C21.5001 385.64 21.88 384.78 22.27 383.92C31.19 389.4 40.0801 394.94 49.0601 400.32C59.7401 406.73 71.1801 411.87 81.0701 419.61C88.5701 425.48 94.6099 432.23 97.3799 441.68C98.7699 446.43 98.17 450.86 97.22 455.43C94.86 457.05 94.78 454.42 93.74 453.57L93.78 453.6C92.39 452 93.48 450.14 93.21 448.44C92.95 446.8 94.2 444.83 92.21 443.55C92.11 440.85 90.19 438.85 89.49 436.38C90.11 432.47 86.7499 430.91 84.6899 428.78C79.3799 423.27 73.18 418.87 66.25 415.57C64.81 414.93 63.3699 414.28 61.9299 413.64C60.7299 413.03 59.6199 412.27 58.6899 411.29C58.3599 411.09 58.0199 410.88 57.6899 410.68C56.6599 409.64 54.72 410.4 53.99 408.78C48.85 406.39 45.1001 401.84 39.8401 399.65C39.1101 399.01 38.11 398.72 37.52 397.88C36.65 397.43 35.7799 396.99 34.9099 396.54C33.2499 395.93 32.16 394.51 30.73 393.58L30.72 393.6Z" fill="#C78539"/>
<path d="M45.55 364.51C47.07 363.31 48.8301 363.39 50.6101 363.6C55.4101 365.51 60.6101 365.79 63.5601 366.62C60.5701 365.95 55.4401 365.35 50.5801 363.65C55.3901 360.36 60.37 360.28 65.48 362.89C68.7 363.4 71.5799 365.12 74.3799 365.48C71.7899 364.7 68.6299 364.18 65.9299 362.39C65.7899 361.45 61.4399 360.65 65.8799 359.52C67.5399 359.1 68.9101 359.28 70.5701 359.77C76.1901 361.45 81.24 365.1 87.45 364.76C74.1 370.04 60.46 369.3 46.72 366.8C46.73 365.82 46.3 365.08 45.54 364.5L45.55 364.51Z" fill="#1B4C47"/>
<path d="M59.73 342.56C59.45 342.26 59.1799 341.95 58.8999 341.65C60.3399 339.12 62.16 336.94 64.71 335.44C65.43 335.44 66.2199 335.58 66.4399 334.58C68.7299 332.77 70.92 330.64 74.25 332.11C75.76 334.28 73.9001 335.36 72.5601 335.86C67.7901 337.62 64.96 340.84 63.79 345.76C63.45 347.2 62.3801 348.38 60.8201 348.88C60.3401 348.96 59.89 348.86 59.48 348.59C58.33 346.86 59.7399 345.66 60.3899 344.3C60.7999 343.46 61.1 342.7 59.72 342.56H59.73Z" fill="#C8D9D1"/>
<path d="M74.74 332.53C71.75 332.3 69.38 334.54 66.45 334.59C67.63 331.06 70.5499 329.03 73.1899 326.75C78.3699 324.87 83.53 322.97 88.72 321.13C104.25 315.62 120.4 315.5 136.58 315.73C139.37 315.77 140.74 316.82 139.03 319.76C138.12 321.32 137.4 323 136.6 324.62C132.633 321.207 125.497 320.123 115.19 321.37C117.32 321.53 119.44 321.68 121.57 321.84C121.97 322.31 121.94 322.76 121.5 323.18C120.17 324.19 118.63 324.25 117.05 324.16C116.54 324.14 116.03 324.12 115.52 324.12C113.5 324.1 111.42 324.54 109.58 323.3C109.09 323.6 108.6 323.9 108.11 324.2C105.44 325.87 102.18 325.68 99.3799 326.94C97.0999 325.73 94.78 328.72 92.51 326.88C90.45 326.3 90.5501 328.02 90.1001 329.15C88.8201 329.66 87.6499 330.5 86.1699 330.4C82.5899 331.18 79.2199 332.95 75.4299 332.71C75.1999 332.65 74.98 332.6 74.75 332.54L74.74 332.53Z" fill="#CA7B26"/>
<path d="M128.03 273.64C128.57 271.6 129.1 269.57 127.71 267.63C129.84 266.29 130.12 264.96 127.62 263.77C125.7 262.86 123.76 261.44 121.76 261.31C115.68 260.9 115.3 257.97 117.66 253.41C116.89 250.87 115.86 248.41 115.47 245.77C117.2 245.4 117.59 244.66 116.66 242.97C115.3 240.51 114.23 237.89 113.08 235.32C112.63 234.31 111.71 233.15 113.1 232.25C114.15 231.57 114.9 232.54 115.7 233.12C123.93 239.09 133.46 237.72 139.13 229.48C141.05 226.68 142.94 226.09 145.77 227.7C149.08 229.59 152.57 231.2 155.67 233.37C158.38 235.26 158.49 237.4 154.9 238.76C152.15 239.79 149.46 239.62 146.58 239.19C141.75 238.47 136.4 236.92 132.93 242.11C129.46 247.3 130.12 252.88 132.62 258.27C133.69 260.58 135.51 261.93 138.17 262.78C141.7 263.92 145.04 265.86 148.22 267.85C149.95 268.93 150.93 271.44 150.16 273.16C148.05 277.84 148.95 282.66 148.75 287.42C148.54 292.36 146.18 294.63 141.4 293.22C136.12 291.66 132.41 294.15 128.54 296.79C126.11 298.44 126.7 300.79 127.07 303.11C127.85 307.94 125.92 310.1 120.4 310.6C115.35 311.06 113.06 309.22 112.74 304.49C112.62 302.67 112.97 300.63 112.26 299.08C108.64 291.1 112.01 291.09 117.79 288.18C119.27 287.44 120.99 287.13 122.38 286.27C126.3 283.84 129.76 282.62 132.6 287.85C133.37 289.27 135.25 290.88 136.72 287.99C139.34 285.63 139.407 283.337 136.92 281.11C136.67 280.69 136.39 279.9 136.19 279.91C131.51 280.35 129.78 277 128.03 273.67V273.64Z" fill="#F2E8E9"/>
<path d="M162.67 373.7C162.64 375.81 161.67 377.59 160.38 379.11C159.1 380.62 157.68 382.12 156.03 383.19C152.98 385.18 150.81 389.54 146.65 388.57C142.86 387.68 136.23 375.39 136.58 371.52C137.02 366.63 142.08 364.01 146.61 366.57C148.57 367.67 149.74 368.26 152.16 366.89C156.8 364.26 162.81 368.47 162.66 373.7H162.67Z" fill="#BF3835"/>
<path d="M144.11 409.25C144.06 414.4 136.43 423.67 131.23 425.18C129.8 425.59 129.41 424.79 128.94 424.01C126.88 420.61 124.77 417.24 122.93 413.72C121.23 410.48 121.77 407.28 124.06 404.45C126.19 401.82 128.84 401.74 131.64 403.19C133.44 404.12 134.79 402.66 136.38 402.49C141.96 401.89 144.17 403.72 144.12 409.25H144.11Z" fill="#BF343C"/>
<path d="M144.9 216.51C145.18 211.03 148 209.26 152.84 211.27C154.07 211.78 154.87 212.88 156.59 211.48C160.15 208.6 165.05 208.93 167.13 211.64C169.69 214.98 168.96 220.22 165.47 223.24C163.48 224.97 161.48 226.67 159.4 228.29C157.56 229.73 155.81 230.36 153.91 228.04C152.81 226.7 150.97 225.99 149.63 224.81C147.04 222.53 144.35 220.23 144.9 216.5V216.51Z" fill="#B63234"/>
<path d="M140.07 242.63C141.28 242.55 142.46 242.74 143.19 243.77C144.54 245.69 145.94 245.17 147.67 244.27C150.3 242.89 152.61 244.15 154.2 246.11C155.96 248.27 157.02 250.72 155.08 253.65C152.16 258.05 147.96 260.26 143.09 261.54C142.47 261.7 141.68 261.78 141.12 261.54C136.29 259.4 136.03 254.29 134.2 250.31C133.01 247.73 135.02 245.44 136.84 243.52C137.74 242.56 138.91 242.63 140.07 242.65V242.63Z" fill="#B92C30"/>
<path d="M136.32 215.59C133.25 214.48 130.25 213.55 127.37 212.3C125.52 211.5 126.1 209.81 126.68 208.4C128.76 203.3 130.97 198.28 129.02 192.52C128.51 191.03 129.6 190.09 131.41 190.43C133.35 190.79 134.7 191.95 135.88 193.39C137.14 194.93 138.42 196.46 139.62 198.04C141.52 200.54 146.66 201.55 145.92 204.42C144.98 208.07 141.47 211.1 138.92 214.27C138.37 214.96 137.2 215.16 136.32 215.59Z" fill="#F2E8E9"/>
<path d="M89.3601 415.33C89.4901 409.54 94.9099 406.76 100.41 409.38C102.31 410.28 103.9 411.42 106.29 411.55C110.76 411.78 112.39 415.85 109.57 419.51C106.9 422.98 103.18 425.3 99.22 427.15C98.1 427.67 96.8399 427.74 95.9099 426.89C92.3699 423.68 89.7201 419.94 89.3501 415.33H89.3601Z" fill="#BE4033"/>
<path d="M181.62 227.89C178.74 226.05 177.13 222.67 173.77 221.41C175.29 219.96 175.03 218.2 174.8 216.35C174.65 215.1 174.45 213.57 176.08 212.94C177.29 212.47 178.48 212.86 179.25 213.78C184.49 220.04 191.2 221.62 198.93 220.13C200.87 219.75 201.52 221.21 202.14 222.59C202.87 224.22 202.9 225.73 201.47 227.12C195.31 233.1 192.57 233.2 185.28 227.77C184.18 226.95 182.73 224.83 181.63 227.89H181.62Z" fill="#F2E8E9"/>
<path d="M82.0301 405.42C77.9501 405.49 74.4301 401.9 73.7501 397.19C73.2701 393.83 73.6301 389.94 77.5001 389.71C82.4301 389.41 87.32 391.32 92.42 391.64C96.24 391.88 96.5502 397.98 93.1202 400.87C89.8502 403.62 85.8401 404.74 82.0401 405.43L82.0301 405.42Z" fill="#BA2F30"/>
<path d="M127.45 232.63C123.65 232.61 120.64 230.84 117.95 228.35C116.21 226.74 116.31 224.73 117.14 222.91C117.91 221.22 118.76 219.17 121.39 219.67C123.55 220.08 125.51 219.25 127.55 218.7C132.11 217.47 135.26 219.02 136.05 222.74C136.96 227.04 133.52 232.21 129.44 232.61C128.78 232.68 128.12 232.61 127.46 232.61L127.45 232.63Z" fill="#BA302F"/>
<path d="M56.1102 379.62C58.4202 380 61.0101 383.11 65.0602 382.95C66.7702 382.88 67.0702 386.09 66.6102 388.12C65.7002 392.11 58.4102 395.74 53.8502 394.57C49.8902 393.56 47.6401 388.64 48.9901 383.95C49.8401 381 51.8702 379.48 56.1102 379.63V379.62Z" fill="#B5282D"/>
<path d="M135.96 298.78C138.24 298.78 139.48 299.05 140.55 298.73C143.18 297.95 145.4 297.91 146.86 300.69C148.29 303.4 147.66 305.9 145.92 308.13C144.1 310.45 141.68 311.27 138.82 310.18C137.74 309.77 136.75 309.04 135.64 308.8C131.75 307.96 129.14 306.01 129.94 301.68C130.75 297.28 134.32 298.87 135.96 298.78Z" fill="#AD2921"/>
<path d="M107.56 388.15C107.68 384.35 109.72 382.77 112.96 384.38C114.29 385.04 115.09 385.07 116.48 384.68C120.19 383.64 122.28 385.66 121.69 389.34C121.2 392.39 116.78 395.78 113.59 395.57C110.42 395.36 107.46 391.71 107.57 388.14L107.56 388.15Z" fill="#AA2A25"/>
<path d="M197.78 211.24C197.58 214.88 194.72 216.19 191.11 216.31C187.39 216.44 185.84 214.19 185.87 210.67C185.9 206.61 188.57 203.39 191.98 203.8C195.76 204.27 197.68 206.74 197.78 211.23V211.24Z" fill="#A22629"/>
<path d="M166.2 356.55C163.47 356.53 161.32 355.43 160.2 352.89C159.3 350.83 159.11 348.62 160.86 346.85C162.77 344.92 164.99 345.11 167.23 346.31C167.52 346.47 167.89 346.9 168.04 346.83C171.77 345.08 173.82 346.32 173.94 350.34C174.03 353.69 170.23 356.59 166.19 356.55H166.2Z" fill="#A42A1E"/>
<path d="M107.5 433.61C110.18 434.41 114.01 433.67 114.82 437.75C115.3 440.17 109.65 444.6 106.49 444.32C103.02 444.01 102.02 441.26 101.78 438.34C101.46 434.4 104.38 433.95 107.5 433.61Z" fill="#B03628"/>
<path d="M212.27 225.6C208.61 225.82 208.39 223.11 208.2 220.66C207.96 217.4 209.93 215.84 212.97 215.88C215.9 215.92 218.31 217.65 218.28 220.51C218.24 223.9 215.49 225.35 212.27 225.6Z" fill="#911C1E"/>
<path d="M199.34 241.99C198.93 241.94 198.52 241.9 198.12 241.85C196.79 239.91 194.62 238.39 196.35 235.38C197.69 233.05 199.02 231.19 201.95 231.71C204.05 232.08 205.55 233.24 205.71 235.63C205.9 238.54 205.25 240.96 201.97 241.57C201.11 241.73 200.38 242.99 199.34 241.99Z" fill="#8E191C"/>
<path d="M152.59 334.64C149.92 334.33 147.49 333.54 147.69 330.28C147.87 327.27 149.71 325.28 152.85 325.35C155.75 325.41 157.52 327.33 157.56 330.14C157.6 333.19 155.37 334.32 152.6 334.64H152.59Z" fill="#70160F"/>
<path d="M115.73 183.8C114.86 183.32 113.92 182.94 113.15 182.34C111.13 180.78 111.17 178.63 111.85 176.49C112.31 175.03 113.27 173.77 114.99 173.74C117.18 173.7 118.52 175.06 119.73 176.77C121.02 178.58 120.69 180.5 120.64 182.44C119.19 183.56 117.46 183.69 115.73 183.8Z" fill="#A3231F"/>
<path d="M123.86 371.43C123.58 374.17 122.59 376.53 119.24 376.55C116.2 376.56 114.69 374.59 114.9 371.76C115.13 368.7 116.81 366.36 120.18 366.42C123.15 366.47 123.75 368.8 123.86 371.43Z" fill="#A6281F"/>
<path d="M229.79 199.15C229.51 202.28 227.97 204.18 224.99 204.49C222.35 204.77 220.94 203.05 221.01 200.67C221.08 197.95 221.93 195.55 225.56 195.67C228.1 195.75 229.66 196.58 229.79 199.15Z" fill="#90231C"/>
<path d="M142.75 349.08C142.44 351.55 141.12 352.95 138.51 352.8C136.26 352.67 134.69 351.58 134.79 349.14C134.89 346.59 136.45 345.24 138.97 345.31C141.27 345.38 142.53 346.73 142.75 349.08Z" fill="#571610"/>
<path d="M115.48 245.76C119.55 247.35 119.74 250.05 117.67 253.4C115.76 254.04 113.62 255.31 112.55 252.38C111.46 249.36 111.91 246.82 115.48 245.76Z" fill="#99291F"/>
<path d="M145.96 196.51C148.87 193.8 151.9 192.21 155.48 195.42C154.78 197.77 154.02 200.23 151.11 200.48C148.37 200.72 147 198.72 145.96 196.51Z" fill="#6D1618"/>
<path d="M136.92 281.08C138.79 280.35 140.48 280.51 141.64 282.32C142.49 283.64 142.59 285.06 141.73 286.47C140.5 288.47 138.82 288.9 136.72 287.96C132.96 285.55 135.55 283.33 136.92 281.08Z" fill="#881E16"/>
<path d="M182.83 371.96C182.68 374.31 181.43 376.2 178.74 376.26C176.77 376.31 175.97 374.47 176.04 372.79C176.15 370.27 177.48 368.36 180.24 368.29C182.41 368.23 182.8 369.91 182.83 371.96Z" fill="#9E2A21"/>
<path d="M174.04 200.58H174.39C175.31 203.21 178.91 206.48 172.91 207.52C171.38 207.79 169.42 207.88 168.83 205.78C168.27 203.8 169.87 202.8 171.21 201.91C172.06 201.35 173.6 202.12 174.04 200.57V200.58Z" fill="#7C1615"/>
<path d="M206.87 205.71C208.06 205.9 209.6 206.27 209.15 208.01C208.74 209.62 207.5 211.08 205.7 211.11C203.99 211.13 203.81 209.55 203.79 208.18C203.76 206.23 204.93 205.6 206.87 205.72V205.71Z" fill="#F2E8E9"/>
<path d="M34.24 374.19C34.59 374.19 34.9401 374.2 35.2901 374.21C37.3601 375.27 37.1901 376.67 35.8401 378.18C35.2501 378.85 34.3599 379.17 33.6599 378.5C31.9599 376.88 33.3 375.53 34.23 374.18L34.24 374.19Z" fill="#5C1D21"/>
<path d="M206.16 322.59C205.87 322.27 205.58 321.96 205.29 321.64C203.9 320.86 202.09 320.66 201.44 318.87C201.71 317.99 202.48 317.51 203.02 316.86C201 310.67 200.11 304.28 199.06 297.91C198.66 295.47 198.42 293.27 201.36 292.29C203.15 292.7 202.91 294.53 203.71 295.63C205.84 302.57 208.18 309.43 212.16 315.58C213.88 317.53 213.95 319.98 214.08 322.37C214.16 323.73 213.81 325.22 212.36 325.62C211.09 325.97 210.37 324.74 209.7 323.8C209.65 322.41 210.29 321.14 209.52 319.6C207.22 314.97 205.46 310.1 204.14 305.07C205.65 310.2 207.36 315.26 209.67 320.08C210.24 321.27 210.34 322.28 209.11 323.09C208.02 323.52 207.11 322.9 206.14 322.59H206.16Z" fill="#255346"/>
<path d="M203.7 267.67C208.05 250.46 217.44 236.24 229.82 223.82C230.09 223.55 230.76 223.68 231.24 223.62C229.77 227.36 226.53 229.9 224.16 232.91C216.51 242.6 209.87 252.71 205.67 264.36C205.25 265.53 205 266.95 203.7 267.67Z" fill="#511916"/>
<path d="M214.2 318.18C217.99 322.57 221.77 326.97 225.56 331.36C225.43 333.24 227.16 334.72 226.7 336.67L226.77 336.58C223.24 338.32 221.86 335.81 220.44 333.39C220.52 333.03 220.75 332.74 220.91 332.41C220.59 332.81 220.18 333.07 219.67 333.2C214.33 330.16 212.01 323.78 214.19 318.18H214.2Z" fill="#1B5345"/>
<path d="M220.71 332.46C222.14 334.71 223.68 336.78 226.77 336.58C225.4 339.09 223.94 338.23 222.01 337.04C215.78 333.22 212.1 326.67 206.15 322.59C207.39 322.63 208.63 322.66 209.86 322.7L209.75 322.61C210.15 323.81 210.99 324.83 212.21 324.51C213.41 324.19 212.95 322.79 212.79 321.92C212.42 319.82 213.34 317.59 212.15 315.58C213.86 315.63 214.16 316.79 214.18 318.17C213.34 323.54 216.43 330.26 220.81 332.57L220.69 332.45L220.71 332.46Z" fill="#D8E5DA"/>
<path d="M203.72 295.63C203.01 294.63 202.29 293.62 201.58 292.62C199.43 291.77 199.34 289.84 199.11 287.97C199.16 284.94 198.22 281.88 199.21 278.86C199.23 278.34 199.25 277.83 199.27 277.31C199.32 275.59 199.93 274.25 201.71 273.7C202.39 271.66 203.06 269.61 203.74 267.57C203.79 270.4 203.82 273.23 202.98 275.97C200.92 282.62 202.62 289.11 203.72 295.64V295.63Z" fill="#511916"/>
<path d="M226.7 336.67C224.46 335.3 224.46 333.45 225.55 331.36C226.11 331.76 226.66 332.17 227.22 332.58C226.95 333.93 228.86 335.56 226.7 336.67Z" fill="#D8E5DA"/>
<path d="M178.74 56.2399C175.24 55.9299 172.59 54.18 172.14 50.3C171.75 46.9 177.52 42.7299 182.46 42.7599C185.76 42.7799 188.43 44.0199 188.63 47.7799C188.84 51.6199 183.47 56.1999 178.74 56.2499V56.2399Z" fill="#A52E26"/>
<path d="M114.01 98.5602C117.27 98.6402 120.05 99.6501 120.55 103.28C120.99 106.44 115.37 111.66 111.82 111.46C108.09 111.25 105.46 109.35 105.18 105.39C104.92 101.58 109.06 98.5102 114 98.5602H114.01Z" fill="#A12E22"/>
<path d="M141.32 81.61C145.1 81.59 147.24 83.5999 147.58 87.2399C147.9 90.6099 144.04 94.4899 140.58 94.2899C136.8 94.0699 134.37 91.91 133.97 88.1C133.61 84.69 137.3 81.61 141.32 81.61Z" fill="#A02C22"/>
<path d="M102.64 133.8C99.7198 133.89 97.46 132.85 97.82 129.6C98.2 126.18 100.06 123.58 103.94 123.68C107.07 123.77 108.89 125.67 108.79 128.83C108.67 132.71 105.96 133.72 102.64 133.8Z" fill="#9B211E"/>
<path d="M171.58 72.43C171.29 74.88 170.16 76.48 167.57 76.66C164.82 76.85 163.04 75.5901 162.82 72.8301C162.61 70.0601 164.36 68.38 166.93 68.2C169.64 68.02 170.98 69.97 171.58 72.43Z" fill="#891913"/>
<path d="M153.26 62.8701C156.08 63.3901 157.51 65.29 157.28 67.76C157.04 70.39 154.91 71.67 152.31 71.48C150.13 71.32 148.63 70.1899 148.71 67.6799C148.81 64.6399 150.71 63.4201 153.26 62.8701Z" fill="#7A2017"/>
<path d="M156.51 96.8998C154.34 96.8198 152.4 95.7798 152.44 93.1498C152.49 90.3198 154.14 88.4799 157.19 88.5199C159.8 88.5499 161.31 90.15 161.27 92.59C161.22 95.23 159.62 96.8398 156.51 96.8998Z" fill="#8E1B17"/>
<path d="M136.68 108.06C139.39 108.43 140.83 109.84 140.58 112.39C140.35 114.69 139.09 116.61 136.58 116.63C133.42 116.66 133.11 113.95 133.03 111.7C132.94 109.35 134.67 108.31 136.68 108.06Z" fill="#871D19"/>
<path d="M131.82 118.57C129.14 118.59 127.8 116.46 126.4 114.82C123.9 111.88 122.13 111.67 120.66 115.54C120.6 113.36 120.95 111.25 122.02 108.35C125.53 112.02 128.67 115.3 131.82 118.58V118.57Z" fill="#B38249"/>
<path d="M135.72 120.76C136.05 122.06 136.38 123.36 136.71 124.66C133.01 125.91 131.1 124.42 130.65 120.69C131.06 119.96 131.48 119.22 131.89 118.49C133.17 119.25 134.44 120.01 135.71 120.76H135.72Z" fill="#B38249"/>
<path d="M170.66 186C164.1 184.78 158.77 181.04 153.31 177.56C158.88 176.54 164.34 179.41 168.67 178.16C164.09 179.13 158.47 177.02 152.73 176.89C146.75 173.93 142.89 168.87 139.39 163.45C144.14 165.38 149.48 166.12 153.04 170.37C152.67 171.2 151.91 172.02 153.78 172.2C158.47 172.64 163.08 173.65 167 174.58C164.52 174.3 161.61 173.09 158.63 172.13C157.38 171.69 156.13 171.24 154.93 170.69C153.99 170.26 152.97 169.2 154.03 168.45C157.31 166.13 154.51 165.07 153.19 163.88C150.69 161.63 147.42 160.7 143.83 158.7C146.27 160.25 148.29 160.82 150.05 161.88C151.94 163.02 155.4 163.96 154.53 166.32C153.6 168.87 150.44 167.25 148.3 166.71C144.37 165.71 141.05 163.62 138.44 160.47C135.39 158.72 133.94 156.03 133.84 152.56C137.75 151.67 141.11 154.41 144.94 154.05C141.24 153.68 138.22 148.7 133.89 152.62C131.34 150.64 131.02 147.59 130.36 144.8C128.88 138.56 127.47 132.29 127.97 125.8C132.41 129.37 137.63 132 141.13 136.71C141.04 137.5 140.59 138.01 139.87 138.29C137.36 138.76 135.45 137.18 133 136.27C135.65 138.15 138.84 138.27 141.03 140.35C141.26 140.79 141.36 141.26 141.35 141.76C141.19 142.52 140.75 143.08 140.09 143.47C138.33 144.4 136.51 143.47 133.88 143.68C137.33 145.87 140.49 147.22 143.67 148.07C149.05 149.5 152.12 153.01 154.19 157.81C154.44 160.37 156.36 161.54 158.28 162.71C159.42 163.81 160.5 164.97 161.73 165.98C163.44 167.1 164.05 170.31 167.11 168.77C166.37 164.58 166.53 160.3 165.43 156.17C165.57 154.57 165.28 152.68 167.78 152.69L167.69 152.61C169.14 154.66 170.5 156.75 171.01 159.27C171.92 162.54 170.35 166.13 172.19 169.03C171.57 167.06 170.24 164.72 173.55 163.35C176.03 164.36 176.49 166.74 177.27 168.89C178.1 171.2 178.61 173.68 180.82 175.47C180.61 173.65 179.32 172.53 178.79 171.08C178.23 169.56 177.11 167.65 179.05 166.69C180.77 165.84 182.09 167.51 182.99 168.91C184.65 171.5 186.19 174.17 187.73 177.43C187.09 174.63 185.28 172.94 184.72 170.71C184.32 169.09 184.14 167.36 186.77 168.73L186.67 168.66C191.05 171.41 193.61 175.69 196.1 179.99C196.82 181.24 197.68 182.71 196.29 184.07C195.26 185.08 193.68 185.49 192.59 184.82C184.94 180.08 176.76 182.29 170.3 182.81C173.65 182.6 178.55 181.36 183.49 181.99C185.71 182.28 189.42 181.52 189.6 184.61C189.78 187.61 186.33 188.28 183.76 188.98C183.23 189.05 182.73 188.98 182.24 188.76C179.64 189.61 177.23 188.8 174.83 187.9C175.85 186.07 177.72 186.45 179.32 186.09C176.43 186.8 173.54 186.75 170.67 186.03L170.66 186Z" fill="#D0E2D4"/>
<path d="M153.03 158.65C150.38 150.1 142.18 149.6 135.65 146.67C134.19 146.02 132.3 146.02 131.57 144.25C131.21 143.36 130.77 142.18 131.07 141.41C131.54 140.21 132.75 140.95 133.65 141.2C135.55 141.73 137.45 142.29 139.34 142.84C139.99 143 139.16 142.91 139.8 142.9C140.84 142.88 141.55 143.48 142.37 143.91C141.57 143.3 141.29 142.45 141.23 141.49C142.38 139.28 143.6 137.18 142.64 134.43C141.75 131.88 140.49 130.05 137.46 129.99C140.36 130.06 141.93 131.66 142.48 134.23C142.77 135.59 142.64 136.95 140.64 136.81C139.25 134.77 136.9 134.13 134.89 133.15C131.57 131.53 129.65 128.83 127.95 125.81C127.88 124.48 127.75 123.16 127.74 121.83C127.72 118.97 129.3 120.1 130.65 120.7C132.33 122.54 134.31 123.92 136.71 124.67C143.1 130.12 150.81 133.8 156.79 139.79C158.6 141.6 161.21 142.78 161.69 145.7C161.65 145.94 161.6 146.19 161.56 146.43C161.01 149.65 161.14 152.88 161.37 156.11C161.48 157.57 161.98 159.03 160.31 159.95C160.15 159.95 159.93 160.03 159.83 159.95C156.26 157.21 153.62 150.37 154.61 146.48C154.79 145.84 155.4 146.27 154.78 146.03C154.77 146.03 154.74 146.17 154.61 146.42C153.99 147.65 154.26 150.13 152.35 149.69C150.09 149.17 148.69 147 148.14 144.67C147.92 143.74 148.72 142.81 148.97 142.01C147.38 144.18 148.24 146.03 149.93 147.92C154.62 153.14 158.94 158.65 162.29 164.87C162.15 165.96 161.66 166.76 160.54 167.05C159.57 166.09 158.6 165.14 157.62 164.18C156.09 162.35 154.41 160.64 153.03 158.68V158.65Z" fill="#1B5245"/>
<path d="M199.93 113.7C200.55 114.05 201.17 114.4 201.79 114.75C199.11 121.46 199.01 128.67 197.73 135.65C197.58 136.46 197.57 137.29 196.62 137.64C196.44 137.79 196.27 137.94 196.09 138.09C195.18 141.1 193.53 143.84 193.04 147C192.82 148.39 192.08 149.58 190.58 149.78C188.86 150.01 188.58 148.39 187.87 147.32C184.19 141.74 187.86 138.05 191.25 134.36C189.47 135.14 189.13 139.57 186.31 136.98C184.17 135.01 185.63 132.52 187.96 130.76C189.9 129.29 190.99 126.92 192.58 125.86C191.7 126.73 190.35 127.96 189.24 129.43C188.66 130.19 187.98 131.13 186.8 130.62C185.79 130.18 185.48 129.18 185.36 128.17C185.23 127.01 184.9 125.49 185.69 124.79C190.06 120.88 193.23 115.53 199.06 113.35C199.35 113.24 199.66 113.45 199.91 113.72L199.93 113.7Z" fill="#1B514B"/>
<path d="M138.43 160.48C143.42 162.95 148.21 165.96 154.25 165.6C149.42 162.79 143.28 162.28 139.67 157.42C145.45 156.58 149.03 158.54 159.18 168.25C157.59 168.5 156.26 168.72 154.84 168.94C155.97 170.23 157.97 169.08 158.94 170.53C156.69 172.7 154.47 172.75 152.3 170.41C147.51 168.98 143.06 166.94 139.39 163.45C139.07 162.46 138.75 161.47 138.43 160.48Z" fill="#235E4E"/>
<path d="M196.63 137.63C196.54 142.93 194.9 147.99 194.13 153.18C193.29 158.8 193.39 164.32 195.8 169.61C196.34 170.39 196.33 171.31 195.46 171.6C194.42 171.95 193.5 171.18 193.21 170.23C192.41 167.59 190.35 165.55 189.8 162.82C189.77 162.28 189.85 161.75 190.01 161.23C190.89 159.72 190.59 158.13 190.58 156.46C190.54 149.55 192.48 143.18 196.61 137.55V137.63H196.63Z" fill="#38422E"/>
<path d="M152.73 176.89C152.28 176.45 151.89 175.36 152.66 175.65C158.99 178.07 165.42 176.15 171.79 176.45C173.66 176.54 175.76 176.12 177.29 177.89C169.14 180.53 161.22 179.51 153.32 177.56C153.3 177.17 153.11 176.95 152.73 176.89Z" fill="#245B4D"/>
<path d="M199.65 176.65C202.9 179.16 206.14 181.67 209.99 184.65C202.79 188 196.24 191.3 188.45 189.98C189.48 187.56 191.94 187.8 193.86 187.3C196.87 186.51 199.75 185.5 202.61 184.15C200.72 181.95 198.13 180.18 198.46 176.79C198.82 176.37 199.21 176.3 199.65 176.65Z" fill="#222D23"/>
<path d="M199.65 176.65C199.36 176.75 199.06 176.83 198.75 176.88C197.8 177.36 196.86 177.16 195.93 176.82C193.52 175.32 190.87 174.02 190.45 170.73C192.39 169.26 190.61 168.24 190 167.1C188.63 164.57 186.27 162.61 185.73 159.61C186.59 158.96 187.47 159.19 188.36 159.54C189.86 160.09 190 161.66 190.76 162.76C192.95 164.66 193.38 167.42 194.36 169.93C195.06 171.71 195.52 170.73 195.79 169.62C197.08 171.96 198.36 174.31 199.65 176.65Z" fill="#B9A95A"/>
<path d="M196.04 175.46C196.94 175.93 197.85 176.4 198.75 176.88C200.87 179.55 202.48 182.59 205.32 184.94C199.42 186.71 194.29 189.47 188.46 189.97C186.32 189.85 184.11 190.14 182.24 188.73C182.56 188.66 182.88 188.64 183.2 188.65C187.2 187.66 190.97 185.91 194.99 184.97C197.95 184.28 198.9 182.84 196.99 180.08C196.06 178.74 195.24 177.22 196.04 175.46Z" fill="#B3D7D0"/>
<path d="M213.12 172.57C216.07 168.11 212.09 165.54 209.87 163.23C207.74 161.02 207.46 158.72 206.42 155.63C211.31 159.49 212.96 164.7 216.09 168.86C217.93 171.32 215.45 172.12 213.51 172.72L213.12 172.56V172.57Z" fill="#B6D0C8"/>
<path d="M170.66 186C175.52 185.32 180.38 184.63 186.18 183.82C182.58 187.78 178.64 187.65 174.82 187.87C173.43 187.25 172.05 186.62 170.66 186Z" fill="#205048"/>
<path d="M205.05 318.49C203.91 318.54 202.78 318.59 201.64 318.64C201.5 318.74 201.34 318.94 201.24 318.91C193.07 316.57 184.6 315.23 176.73 311.84C176.46 311.72 176.34 311.33 176.22 311.03C176.027 309.87 175.33 309.057 174.13 308.59C174.93 308.76 175.65 309.06 176.04 309.85C175.04 311.75 176.21 312.11 177.73 312.65C179.55 313.29 182.3 312.61 182.69 315.66L182.77 315.58C180.04 317.5 176.61 316.25 173.75 317.59L173.83 317.54C169.85 313.63 169.05 308.28 167.59 303.31C163.86 290.6 165.76 277.84 168.34 265.27C170.34 255.53 173.21 245.97 175.7 236.33C175.08 235.43 174.86 234.28 175.83 233.76C177.04 233.1 177.55 234.35 177.84 235.24C178.36 236.85 178.13 238.45 177.68 240.09C177.19 241.91 176.16 243.89 178.12 245.47C178.25 242.85 178.29 240.26 179.59 237.97C180.14 237 180.93 235.32 182.2 237.52C183.57 241.61 182.12 245.95 182.98 249.44C182.47 246.58 182.65 243.13 183.47 239.68C185.83 240 185.62 242.47 186.87 243.73C188.19 248.87 186.79 253.7 185.21 258.51C184.6 260.34 183.78 261.98 181.39 260.5C179.5 258.33 177.48 256.27 175.99 254.31C177.39 256 179.03 258.04 180.91 259.88C182.16 261.64 184.19 263.12 183 265.75C182.45 266.3 181.78 266.52 181.01 266.46C178.57 265.9 177.1 263.55 175.04 263.12C176.97 263.61 178.49 265.59 180.66 266.5C183.63 268.19 183.74 270.36 181.76 272.89C177.67 273.91 175.27 270.41 172.51 269.6C175.26 272.17 180.59 272.05 182.84 276.52C182.99 277.24 182.94 277.94 182.71 278.63C181.89 280.37 180.6 280.47 179.02 279.69C177.25 278.81 175.34 278.23 173.6 277.28C176.75 279 180.21 279.98 183.45 281.5C184.35 283.25 185.44 284.97 184.29 287.03C181.33 288.84 179.13 286.1 177.06 285.92C179.04 286.23 181.17 288.45 184.03 287.38C187.64 288.31 187.62 292.23 189.79 294.35C190.16 296.21 191.65 298.38 189.52 299.83C186.86 301.64 185.49 298.48 183.41 297.64C183.05 297.2 182.85 298.14 183.35 297.69C183.51 297.55 183.57 297.74 183.8 297.91C184.32 298.31 185.07 298.62 184.66 299.4C184.11 300.46 183.13 300.48 182.08 300.18C178.73 299.23 175.39 298.29 173.21 297.28C177.76 299.25 183.43 301.13 189.62 300.27C190.73 300.12 191.77 300.33 192.31 301.16C196.05 306.88 201.65 311.08 205.11 317.01C205.36 317.44 205.26 317.98 205.06 318.45L205.05 318.49Z" fill="#185544"/>
<path d="M201.72 273.7C201.34 275.16 200.97 276.62 200.59 278.08C197.29 278.57 198.13 275.99 197.88 274.4C197.96 280.83 195.97 286.95 193.95 293.01C192.72 296.69 191.23 296.79 188.59 293.97C186.23 290.59 184.75 286.84 183.79 282.86C183.76 281.87 183.99 280.9 184.12 279.93C183.99 276.25 184.71 272.67 185.57 269.14C185.96 267.53 186.89 265.83 188.98 266.23C191 266.61 191.26 268.13 190.99 270.06C190.39 274.43 189.71 278.81 189.85 282.29C191.77 278.72 194.87 274.7 195.6 270.56C194.84 272.26 194.12 274.96 192.98 277.48C192.63 278.25 191.95 278.93 191.03 278.63C190.17 278.34 189.7 277.4 190.04 276.61C191.06 274.25 190.52 271.7 191.2 269.28C191.78 267.18 191.36 266.82 189.19 265.95C188.14 265.53 187.52 264.56 187.73 263.59C188.46 260.13 188.06 256.23 191.24 253.63C193.27 253.99 193.49 255.83 194.22 257.25C196.99 262.61 200.54 267.62 201.73 273.7H201.72Z" fill="#225749"/>
<path d="M191.23 253.63C190.9 257.68 188.59 261.4 189.06 266.19C191.97 263.76 191.01 260.45 192.76 256.65C194.36 264.83 191.3 271.33 190.98 278.8C194.04 274.7 194.71 270.37 196.4 266.44C197.32 275.06 189.43 281.12 189.55 289.63C188.48 285.59 188.45 281.64 188.89 277.65C189.3 273.93 191.3 270.16 188.66 265.59C186.01 270.77 185.94 275.67 185.49 280.48C182.67 279.92 183.41 277.59 183.27 275.8C183.05 273.03 183.18 270.26 183.99 267.56C185.63 263.58 186.45 259.38 187.35 255.2C187.74 253.37 188.01 251.12 190.91 251.76C191.02 252.38 191.12 253 191.23 253.62V253.63Z" fill="#D3E8DB"/>
<path d="M181.87 332.06C182.35 331.18 182.85 330.04 184.04 330.43C194.4 333.79 205.34 332.97 215.89 335.04C204.46 336.14 193.2 335.23 182.08 332.31L181.86 332.07L181.87 332.06Z" fill="#CADFD4"/>
<path d="M178.91 249.53C175.9 247.48 174.3 245 175.75 241.17C176.38 239.51 176.43 237.63 176.7 235.84C176.74 235.56 176.6 234.99 176.51 234.99C175.41 234.9 176.07 235.94 175.69 236.33C174.38 235.34 174.9 233.94 175.02 232.72C175.11 231.85 175.09 230.39 176.34 230.53C177.02 230.61 177.57 231.85 178.18 232.57C179.83 233.57 180.07 235.15 179.79 236.83C179.11 241.04 179.47 245.31 178.9 249.52L178.91 249.53Z" fill="#A7D091"/>
<path d="M190.92 251.78C188 254.02 188.8 257.61 187.75 260.53C186.93 262.82 186.36 265.21 185.67 267.55C183.4 267.61 183.94 265.72 183.54 264.48C184.57 258.41 185.83 252.39 188 246.6C189.36 248.11 190.67 249.64 190.92 251.77V251.78Z" fill="#1F4D3F"/>
<path d="M188 246.6C186.86 252.59 185.71 258.57 184.57 264.56C184.19 265.39 183.8 266.18 182.66 265.57C182.03 263.59 181.39 261.6 180.76 259.62L180.68 259.69C181.57 258.94 183.3 262.03 183.82 258.78C184.63 253.73 186.48 248.88 186.86 243.73C187.84 244.45 187.72 245.6 188 246.6Z" fill="#CFE0C8"/>
<path d="M183.46 239.69C185.07 243.81 183.53 247.6 182.38 251.46C181.32 246.82 181.12 242.19 181.78 237.53C182.15 236.99 182.52 236.99 182.87 237.55C183.06 238.26 183.26 238.98 183.45 239.69H183.46Z" fill="#DDEB90"/>
<path d="M182.88 237.55C182.51 237.55 182.15 237.54 181.79 237.53C179.65 239.36 180.06 241.97 179.77 244.35C179.56 246.1 180.16 247.97 178.92 249.54C178.49 243.9 179.24 238.2 178.19 232.59C180.93 233.14 181.88 235.37 182.88 237.56V237.55Z" fill="#174C26"/>
<path d="M196.76 342.56C193.87 342.17 191.52 340.87 189.77 338.52L189.74 338.59C193 336.8 195.89 338.21 198.77 339.66L198.7 339.57C199.63 341.58 197.36 341.54 196.76 342.57V342.56Z" fill="#1B5345"/>
<path d="M177.46 325.25C178.11 323.66 178.77 322.07 179.74 319.71C181.3 323.02 179.64 324.45 178.32 325.98C178.03 325.74 177.75 325.49 177.46 325.25Z" fill="#C7DBD2"/>
<path d="M196.61 137.55C193.77 144.41 190.23 151.13 192.61 159C192.92 160.04 193.44 161.86 191.04 161.47C188.63 160.47 189.23 158.04 188.85 156.28C186.86 147.09 180.77 140.9 173.97 135.19C171.11 132.79 168.49 130.36 168.51 126.25C168.51 124.93 168.53 123.61 168.54 122.29C170.64 121.93 171.41 123.62 172.41 124.87C175.21 128.36 178.22 131.69 180.89 135.29C177.57 129.99 175.04 124.17 170.54 119.65C170.19 119.3 169.95 118.84 169.78 118.37C169.12 116.47 168.35 113.97 169.97 112.83C171.73 111.6 173.14 113.88 174.3 115.18C178.42 119.8 182 124.75 182.9 130.56C181.63 127.8 184.23 124.01 181.86 120.92C179.74 118.15 176.84 116.08 174.8 113.23C173.09 110.85 170.65 108.76 171.44 105.31C170.68 103.78 171.74 102.68 172.33 101.46C175.92 102.6 176.66 106.26 178.67 108.78C179.89 110.31 180.52 112.31 182.78 113.65C183.82 109.13 183.19 105.25 180.97 101.38C177.45 95.2399 177.44 89.1801 182.43 83.0101C186.45 88.1601 182.93 94.9302 186.75 99.6202C188.49 94.9902 187.05 90.35 186.15 85.71C185.55 82.6 184.66 79.5099 186.83 76.6299L186.74 76.71C189.36 75.49 188.98 77.5101 188.87 78.8301C188.51 83.0201 189.81 86.8299 191.21 90.8899C191.94 86.8199 195.01 83.9601 195.65 80.0701C196.84 88.0801 191.33 94.33 190.05 101.67C189.46 104.54 188.86 107.4 188.19 110.65C192.35 109.38 194.99 105.05 201.13 105.91C196.67 108.07 193.26 109.55 190.01 111.33C185.77 113.65 187.55 117.98 186.97 121.74C190.41 117.43 195.2 114.88 199.04 111.19C200.53 111.59 200.43 112.57 199.95 113.68C194.02 117.76 187.03 120.97 186.36 130.66C190.47 127.28 192.93 123.38 198.19 121.1C195.03 127.69 185.89 128.98 186.97 137.45C190.33 134.96 192.1 130.83 197.36 129.37C192.04 135.73 183.26 140.11 190.56 149.22C191.76 145.99 193.03 142.47 194.39 138.98C194.75 138.05 194.83 136.36 196.63 137.53L196.61 137.55Z" fill="#E7F1E4"/>
<path d="M186.81 76.6399C187.47 81.1699 187.66 85.84 188.9 90.21C190.45 95.64 188.51 100.18 186.73 105.66C183.46 98.3599 181.92 91.5199 182.61 84.1899C179.08 89.1199 178.94 94.5501 181.92 99.3501C185.46 105.08 184.89 110.88 184.62 117.78C178.91 112.77 174.97 107.61 172.3 101.47C172.98 99.72 173.67 97.98 174.35 96.24C178.98 99.38 178.93 105.16 181.41 108.4C179.9 104.27 176.81 99.7199 175.53 94.4099C178.21 87.8099 181.31 81.4599 186.81 76.6499V76.6399Z" fill="#1C5344"/>
<path d="M171.42 105.32C173.88 109.91 176.91 114.21 181.07 117.24C184.5 119.74 184.87 122.66 184.52 126.25C184.28 128.66 184.19 131.08 183.96 134.59C179.71 126.65 177.03 118.79 170.41 113.88C169.56 116.77 169.65 116.68 171.91 118.84C178.15 124.79 181.12 132.64 184.46 140.34C178.55 134.78 173.01 129 168.54 122.3C169.08 116.57 168.05 110.57 171.43 105.32H171.42Z" fill="#17564A"/>
<path d="M168.5 126.25C171.27 131.3 175.72 134.85 179.95 138.47C187.11 144.59 189.93 152.55 191.03 161.47C190.94 161.9 190.85 162.32 190.76 162.75C189.93 162.02 189.1 161.28 188.27 160.54C186.28 158.25 185.14 155.08 181.73 154.28C176.68 147.34 169.38 141.8 168.19 132.48C167.92 130.4 167.3 128.27 168.49 126.24L168.5 126.25Z" fill="#18554A"/>
<path d="M169.46 159.81C168.86 157.41 168.27 155.01 167.67 152.6C174.03 157.96 180.39 163.33 186.75 168.69C186 172.04 188.73 174.22 189.61 177.03C189.97 178.17 191.39 178.9 191.38 180.87C183.42 179.28 184.41 170.25 178.46 167.13C180.52 170.82 182.59 174.51 185.02 178.87C175.27 177.64 176.51 169.17 173.63 163.78C172 162.7 171.26 160.69 169.46 159.79V159.81Z" fill="#1B5245"/>
<path d="M196.04 175.46C197.97 178.26 199.89 181.05 201.88 183.94C195.43 185.5 190.04 189.97 183.19 188.66C185.1 187.39 187 186.11 189.36 184.53C181.11 179.35 171.82 188.26 164.21 181.98C174.82 179.21 185.17 180.77 196.58 184.48C192.83 178.43 190.3 173.2 186.64 168.64C187.9 169.34 189.17 170.04 190.43 170.74C192.29 172.32 194.16 173.89 196.02 175.47L196.04 175.46Z" fill="#195E54"/>
<path d="M167.76 152.68C166.04 153.67 166.81 155.24 166.85 156.64C167.4 158.34 167.53 160.03 166.74 161.7C164.3 162.42 164.08 159.43 162.29 159.06C159.62 154.7 160.36 150.19 161.73 145.65L161.69 145.69C164.69 147.18 166.72 149.51 167.76 152.69V152.68Z" fill="#1B5245"/>
<path d="M175.53 94.4099C179.56 99.5599 181.34 105.59 182.52 111.87C180.64 106.2 176.42 101.77 174.35 96.24C174.74 95.63 175.13 95.0199 175.53 94.3999V94.4099Z" fill="#CBE8D8"/>
<path d="M181.73 154.29C186.08 153.51 188.45 155.78 188.27 160.54C187.42 160.23 186.57 159.92 185.72 159.6C184.58 157.68 182.34 156.59 181.73 154.28V154.29Z" fill="#6A9487"/>
<path d="M176.97 309.68C179.03 313.54 183.34 313.31 186.58 314.04C191.76 315.21 196.7 316.86 201.65 318.64C202.86 319.64 204.08 320.64 205.29 321.64C197.65 320.08 190.69 315.93 182.7 315.66C179.55 313.12 175.25 313.54 171.7 311.7C172.35 309.43 174.63 311.22 175.35 309.79C175.86 309.26 176.4 309.22 176.97 309.68Z" fill="#D8E5DA"/>
<path d="M209.6 331.84C200.32 330.65 191.31 329.51 182.31 328.31C181.54 328.21 180.6 327.88 180.67 326.82C180.75 325.62 181.65 325.74 182.5 325.93C190.93 327.85 199.56 328.43 208.1 329.67C208.76 329.77 209.35 330.11 209.6 331.84Z" fill="#E0EDE3"/>
<path d="M196.76 342.56C195.8 340.52 198.31 340.73 198.7 339.56C204.56 338.49 210.37 336.95 217.03 337.99C212.34 341.13 206.57 338.35 202.53 341.75L202.61 341.67C200.66 341.96 198.71 342.26 196.76 342.55V342.56Z" fill="#B1D3C9"/>
<path d="M202.52 341.76H220.3C214.44 344.09 208.54 344.25 202.6 341.68L202.51 341.76H202.52Z" fill="#B1D3C9"/>
<path d="M202.01 324.05C195.9 325.08 189.74 327.61 184.09 322.61C190.01 324.38 196.09 323.29 202.01 324.05Z" fill="#C8E1D0"/>
<path d="M173.76 317.59C173.59 316.19 174.04 315.67 175.61 315.76C177.99 315.89 180.39 315.66 182.78 315.58C180.41 319.11 177.16 318.67 173.76 317.59Z" fill="#B9D4C7"/>
<path d="M198.77 339.66C195.76 339.3 192.75 338.95 189.74 338.59C191.64 336.1 196.37 336.66 198.77 339.66Z" fill="#B1D3C9"/>
<path d="M214.75 148.64C215.15 151.55 214.08 151.46 212.69 149.49C210.23 146.01 208.52 142.16 207.75 137.25C211.13 140.93 211.2 145.83 214.72 148.61L214.75 148.64Z" fill="#D0E3D8"/>
<path d="M210.08 149.98C206.82 149.45 206.44 147.12 206.62 144.45C207.77 146.29 208.93 148.14 210.08 149.98Z" fill="#B0D0BC"/>
<path d="M195.03 65.99C196.42 69.14 195.2 72.14 196.42 74.78C196.88 75.78 195.36 76.46 194.48 76.55C193.31 76.66 193.42 75.5 193.51 74.74C193.86 72.02 193.17 69.1 195.02 66L195.03 65.99Z" fill="#B1CBB7"/>
<path d="M40.6899 461.42C50.3699 453.66 58.0599 443.78 67.9299 436.21C59.2799 444.61 51.95 454.3 42.25 461.64C41.73 461.57 41.2099 461.49 40.6899 461.42Z" fill="#91172B"/>
<path d="M81.6101 95.53C82.3601 93.56 82.37 91.3 85.71 91.3C87.39 91.3 88.33 88.69 89.28 86.99C88.13 86.39 87.7299 88.4001 86.1699 87.3101C90.2099 82.3701 92.66 76.06 99.53 73.28C98.11 81.41 91.9201 86.0799 88.3301 92.4099C93.9801 89.5599 97.94 84.8601 99.76 79.0801C101.65 73.0601 104.91 69.7001 111.69 69.3701C110.88 73.9801 107.83 77.3699 105.15 80.9199C103.06 83.6899 100.83 86.3601 98.6899 89.0801C98.6699 89.1001 98.87 89.3799 99.01 89.4099C99.3 89.4899 99.6199 89.5 99.9199 89.53C94.1399 92.5 88.2501 95.15 81.6201 95.53H81.6101Z" fill="#17493C"/>
<path d="M127.34 70.98C130.04 65.68 130.13 59.0601 136.21 54.3101C134.66 58.0401 133.45 60.8499 132.35 63.6899C132 64.5799 130.59 65.7 132.56 66.47C131.27 68.49 130.19 70.76 127.34 70.97V70.98Z" fill="#1B3F34"/>
<path d="M66.24 415.58C66.24 414.87 66.81 414.72 67.21 414.96C75.1 419.78 83.3199 424.23 88.8799 431.99C89.7499 433.2 91.94 434.57 89.49 436.38C88.6 434.65 87.93 432.78 86.23 431.61C85.13 431.25 84.2099 430.66 83.6399 429.62C79.0799 423.41 72.18 420.09 66.25 415.57L66.24 415.58Z" fill="#E8C272"/>
<path d="M66.8301 428.93C60.6201 435.24 54.3999 441.54 48.1899 447.85C48.2599 447.92 48.3299 447.99 48.3999 448.06C54.7299 441.85 61.0699 435.65 67.3999 429.44C67.2099 429.27 67.0201 429.1 66.8301 428.93Z" fill="#93192C"/>
<path d="M30.72 393.59C32.51 394.01 33.9999 394.87 34.8999 396.55C29.9599 398.3 27.6599 403.37 23.4199 406C22.9599 405.54 22.5 405.08 22.03 404.61C24.64 402.45 27.2301 400.27 29.8601 398.14C31.4801 396.84 32.17 395.43 30.72 393.58V393.59Z" fill="#8C1626"/>
<path d="M37.5 397.89C38.61 398.04 39.2901 398.75 39.8101 399.66C35.2201 400.98 33.3 405.62 28.71 408.45C31.09 403.73 35.22 401.56 37.49 397.9L37.5 397.89Z" fill="#931423"/>
<path d="M58.6699 411.3C59.8699 411.92 61.2499 412.29 61.9099 413.65C59.0399 416.34 56.1699 419.04 52.8999 422.1C53.8899 419.2 56.0901 417.7 57.8201 415.98C59.3501 414.47 59.7899 413.11 58.6699 411.29V411.3Z" fill="#97202F"/>
<path d="M53.97 408.79C55.55 408.75 56.6399 409.65 57.6699 410.68C54.1399 410.91 53.0799 414.63 49.9399 416.31C50.4999 413 53.71 411.66 53.97 408.78V408.79Z" fill="#953031"/>
<path d="M92.1998 443.55C95.0198 446.54 93.0899 450.27 93.7699 453.6C92.9099 452.79 90.3798 453.23 92.1398 450.54C93.4398 448.56 92.9498 445.9 92.1898 443.55H92.1998Z" fill="#511A1F"/>
<path d="M83.6299 429.62C84.9499 429.69 85.33 430.98 86.22 431.61C82.87 431.36 81.83 434.63 79.05 436.3C79.73 433.12 82.5799 431.95 83.6299 429.62Z" fill="#861A1F"/>
<path d="M121.68 322.48C121.64 322.26 121.6 322.05 121.56 321.83C131.22 321.26 131.66 321.81 127.44 330.69C125.91 333.92 124.79 337.49 121.8 339.86C117.46 338.88 113.44 341.17 108.63 341.07C113.58 337.95 118.35 335.61 123.72 334.47C122.91 332.72 120.55 334.66 119.96 332.71C120.1 332.53 120.24 332.36 120.38 332.18C121.84 331.22 122.87 329.76 124.07 328.94C122.64 329.67 121.84 331.78 119.73 332.07C117.03 331.28 117.91 329.4 118.61 327.82C119.26 326.36 120.26 325.05 120.86 323.54C121.13 323.19 121.4 322.83 121.68 322.48Z" fill="#1E5347"/>
<path d="M86.9099 351.71C94.9199 348.11 103.44 347.06 112.09 346.5C113.68 346.4 115.23 345.56 116.8 345.06C114.07 347.93 111.85 351.41 107.71 352.57C107.46 352.56 107.22 352.54 106.97 352.53C101.71 354.16 96.2901 354.32 90.8601 354.04C89.2601 353.96 86.9999 354.55 86.9099 351.71Z" fill="#174A47"/>
<path d="M88.5701 364.53C83.2501 362.51 77.92 360.48 72.29 358.34C73.94 356.9 75.2501 356.57 77.3501 357.25C84.6601 359.62 92.16 360.23 99.75 358.51C96.73 361.82 92.4601 362.82 88.5701 364.53Z" fill="#2A5B58"/>
<path d="M98.74 357.58C92 358.83 85.42 357.59 78.76 356.47C78.98 354.52 80.71 355.05 81.72 354.48C82.33 354.2 82.9401 353.78 83.5801 353.78C91.6601 353.84 99.69 353.07 107.74 352.62L107.7 352.57C107.41 354.37 105.78 354.78 104.55 355.6C102.69 356.49 100.79 357.25 98.74 357.58Z" fill="#174A47"/>
<path d="M117.52 343.71C112.9 345.11 108.12 345.15 103.33 345.36C108.58 341.68 114.81 342.13 120.72 341.2C120.2 342.72 118.36 342.57 117.53 343.71H117.52Z" fill="#174A47"/>
<path d="M98.74 357.58C100.31 355.86 102.35 355.48 104.55 355.6C102.93 356.63 101.91 358.65 99.6299 358.59C99.3299 358.26 99.04 357.92 98.74 357.59V357.58Z" fill="#2A5B58"/>
<path d="M60.1202 348.89C60.4102 348.5 60.7401 348.13 60.9701 347.71C64.4101 341.41 68.9967 336.35 74.7301 332.53L74.68 332.62C76.48 331.8 78.4702 331.84 80.3602 331.4C81.7502 331.08 83.4502 329.34 84.5702 331.69C85.5502 333.74 84.97 335.5 82.95 336.69C81.41 341.16 79.5801 345.57 79.5001 350.41C77.6501 350.6 77.73 352.56 76.67 353.48C75.34 354.15 74.02 354.88 71.95 354.48C74.62 348.87 75.99 342.83 79.16 337.49C79.6 336.74 80.9002 335.89 79.6002 335.04C78.0702 334.04 77.61 335.6 77.15 336.55C75.39 340.11 73.84 343.73 72.67 347.57C71.14 352.59 69.6201 356.87 62.2801 357.08C58.8001 357.18 54.1102 359.53 50.0902 361.2C48.9702 361.67 47.29 362.65 46.43 361.42C45.52 360.11 46.6202 358.52 47.5702 357.43C50.3002 354.31 53.1701 351.31 56.0101 348.29C57.6001 346.6 59.4101 345.08 59.7301 342.57C60.3101 341.83 60.8801 341.09 61.7601 339.96C62.6101 343.54 59.92 345.58 59.43 348.24C58.63 350.8 57.09 352.83 55.64 354.3C57.59 353.41 57.7402 350.13 60.1202 348.9V348.89Z" fill="#154A4E"/>
<path d="M99.73 325.76C102.43 324.76 104.92 322.61 108.11 324.2C106.57 329.44 104.96 334.67 103.52 339.94C102.63 343.21 99.58 343.45 97.24 344.91C100.06 339.09 101.48 332.94 103.11 326.79C97.0501 333.12 99.27 344.59 89.01 349.14C90.19 340.77 96.6601 335.29 97.6201 327.67C97.9201 326.59 99.08 326.47 99.72 325.77L99.73 325.76Z" fill="#135049"/>
<path d="M86.01 328.7C87.37 328.85 88.8401 327.99 90.0901 329.15C88.5501 335.42 86.1801 341.53 85.8201 348.05C85.6501 351.14 83.59 351.17 80.97 351.73C82.01 346.81 82.9599 342.34 83.9099 337.86C84.6199 334.81 83.88 331.43 86.01 328.7Z" fill="#184748"/>
<path d="M109.57 323.29C111.46 322.39 113.44 322.44 115.45 322.76C116.64 325.24 114.87 327.21 114.19 329.31C113.42 331.71 113.21 334.17 112.79 336.61C110.13 336.65 108.38 338.68 105.8 339.95C105.22 333.75 109.78 329.02 109.58 323.28L109.57 323.29Z" fill="#175D54"/>
<path d="M107.75 352.62C99.18 354.72 90.45 354.63 81.72 354.48C83.01 352.73 84.7399 351.82 86.9099 351.72C93.2499 352.96 99.52 352.71 105.77 351.07C106.7 350.83 109.85 348.65 107.75 352.63V352.62Z" fill="#BCD1CA"/>
<path d="M99.73 325.76C99.57 326.99 98.7899 327.54 97.6299 327.66C94.9599 327.17 95.2599 329.54 94.9099 330.83C94.0499 334.04 92.9199 337.05 90.6299 339.52C89.6999 339.74 89.2 339.52 89.53 338.45C90.52 334.6 91.51 330.74 92.51 326.89C94.95 326.69 97.17 325.1 99.74 325.77L99.73 325.76Z" fill="#1C4947"/>
<path d="M112.78 336.61C110.02 333.51 112.18 330.6 113.21 327.7C113.81 326 114.69 324.4 115.45 322.76C115.91 322.71 116.36 322.66 116.82 322.61C118.3 324.46 117.29 326.29 116.72 328.08C116.09 330.06 115.2 331.98 115.83 334.13C115.86 334.35 115.9 334.57 115.93 334.79C114.88 335.4 113.83 336 112.78 336.61Z" fill="#A5CAC2"/>
<path d="M86.01 328.7C85.9 331.89 85.3499 334.97 83.9099 337.86C83.5999 337.47 83.28 337.08 82.97 336.69C83.3 334.94 84.1101 333.24 83.6201 330.9C80.6501 331.81 77.8499 333.5 74.6899 332.62C78.2299 330.65 82.14 329.75 86 328.7H86.01Z" fill="#C8D9D1"/>
<path d="M121.75 323.4C123.11 325.38 120.86 326.22 120.46 327.64C120.1 328.94 117.72 329.92 119.74 331.64C120.33 331.97 120.36 332.35 119.84 332.78C119.84 332.78 119.97 332.71 119.96 332.71C118.61 333.4 117.27 334.1 115.93 334.79C115.8 334.66 115.68 334.53 115.55 334.4C115.22 328.89 117.55 324.74 121.75 323.39V323.4Z" fill="#A5CAC2"/>
<path d="M89.5199 338.44C89.8899 338.8 90.25 339.16 90.62 339.51C89.55 342.56 88.4698 345.61 87.3998 348.67C86.6398 344.92 88.1999 341.71 89.5199 338.44Z" fill="#6F867D"/>
<path d="M76.6899 353.48C76.8099 352.33 76.8301 351.16 77.0801 350.04C77.2101 349.48 77.7699 349.03 78.1399 348.53C78.5999 349.16 79.06 349.79 79.51 350.42C79.87 352.64 78.3799 353.16 76.6799 353.49L76.6899 353.48Z" fill="#5B988D"/>
<path d="M50.5801 363.65C56.6101 364.34 62.57 365.39 68.29 367.55C62.18 367.28 56.0301 367.17 50.6101 363.6L50.5801 363.65Z" fill="#AED5D4"/>
<path d="M65.9399 362.38C69.9799 363.47 74.01 364.56 78.05 365.65C73.45 366.24 69.35 365 65.49 362.88C65.64 362.71 65.7899 362.55 65.9399 362.38Z" fill="#E7F2EB"/>
<path d="M121.75 323.4C117.83 326.02 117.33 330.58 115.55 334.41C113.41 333.36 113.73 331.76 114.41 329.92C115.29 327.52 116.69 325.27 116.82 322.62C118.44 322.58 120.07 322.54 121.69 322.49C121.72 322.79 121.74 323.1 121.76 323.4H121.75Z" fill="#195951"/>
<path d="M188.78 293.48C190.25 295.87 191.44 296.24 192.27 293.06C194.13 285.97 196.04 278.88 197.96 271.65C200.33 273.32 197.02 277.1 200.58 278.08L200.64 278.05C198.98 285.83 196.06 293.3 194.51 301.11C195.03 297.68 195.95 294.31 197.1 291.03C197.64 289.49 197.95 287.14 200.7 288.13C200.99 289.62 201.28 291.12 201.57 292.61C200.03 299.98 201.57 306.99 204.15 313.84C204.78 315.5 206.38 316.94 206.53 318.58C206.67 320.05 205.6 318.4 205.04 318.48C200.99 312.59 195.05 308.29 191.25 302.18C190.34 300.72 188.99 301.22 187.68 301.36C180.95 302.08 175.04 299.38 169.1 296.82C167.91 296.3 167.24 295.52 167.34 293.75C172.74 295.72 178.03 297.65 183.86 299.78C183.13 297.01 180.43 297.88 179.71 295.97C181.86 295.68 183.23 297.55 185.06 298.07C186.31 298.42 187.94 299.42 188.73 298.96C190.51 297.94 188.06 296.4 188.58 295C188.16 294.43 188.22 293.92 188.77 293.47L188.78 293.48Z" fill="#CADDCC"/>
<path d="M209.87 322.7C208.01 316.4 203.31 310.96 204.48 303.72C206.56 309.38 208.66 315.03 210.7 320.7C210.99 321.51 210.82 322.34 209.76 322.61L209.87 322.7Z" fill="#D0E4DA"/>
<path d="M220.83 332.58C220.82 331.11 218.97 330.09 219.89 328.28C221.95 328.63 222.71 330.1 222.62 331.94C222.55 333.3 221.42 332.5 220.71 332.46L220.83 332.58Z" fill="#CAE2DC"/>
<path d="M200.71 288.14C196.88 291.38 197.82 296.16 196.81 300.31C196.39 302.02 197.35 303.88 196.24 305.79C192.7 302.73 191.22 299.81 193.62 295.09C195.79 290.83 198.31 286.42 197.83 281.2C197.66 279.37 200.17 279.54 200.65 278.05C200.67 281.41 200.69 284.77 200.71 288.13V288.14Z" fill="#255F52"/>
<path d="M165.76 161.59C168.29 160.42 166.12 158.21 166.85 156.64C167.73 161.43 168.61 166.21 169.48 171C165.63 170.8 163.38 168.62 162.18 165.13C161.96 163.04 159.32 162.01 159.77 159.63C159.77 155.83 159.77 152.03 159.74 148.23C159.74 146.83 159.73 145.48 161.73 145.65C161.74 149.12 161.73 152.6 161.79 156.07C161.79 156.56 161.6 157.58 162.57 157.34C163.07 157.21 163.39 156.4 163.79 155.9C164.88 157.65 163.41 160.29 165.76 161.61V161.59Z" fill="#B2CCB9"/>
<path d="M133.88 152.63C133.59 151.24 133.31 149.85 132.9 147.83C138.88 150.74 146.09 150.24 149.62 157.19C144.54 154.88 138.53 156.11 133.83 152.58L133.88 152.63Z" fill="#15573F"/>
<path d="M152.3 170.42C154.51 170.46 156.73 170.5 158.94 170.54C163.02 171.97 167.11 173.39 171.19 174.82C163.14 175.68 155.48 174.82 148.07 171.26C149.48 170.98 150.89 170.7 152.3 170.42Z" fill="#185544"/>
<path d="M140.64 136.8C142.14 132.62 142.06 133.05 137.86 132.25C136.54 132 135.09 130.02 133.1 129.95C133.16 129.51 133.07 128.95 133.31 128.67C133.97 127.89 134.87 127.25 135.91 127.75C138.61 129.06 141.76 129.6 143.02 133.12C143.71 135.03 143.13 137.78 146.13 138.69C147.08 138.98 146.36 140.55 145.84 141.32C144.7 143.04 144.3 141.09 143.82 140.68C142.22 139.32 141.94 140.41 141.63 141.66C141.3 142.04 141.02 142 140.81 141.55C140.72 141.23 140.68 140.9 140.71 140.57C139.9 139.8 139.02 139.07 139.58 137.75C139.93 137.43 140.29 137.11 140.64 136.79V136.8Z" fill="#9ABBA6"/>
<path d="M139.58 137.76C139.96 138.7 140.33 139.64 140.71 140.58C137.42 140.84 134.68 139.01 131.72 138.08C129.21 137.29 129.79 135 129.79 132.64C133.25 134.45 136.41 136.11 139.57 137.76H139.58Z" fill="#165C4C"/>
<path d="M169.46 159.81C173.17 158.71 173.53 161.13 173.63 163.8C171.69 165.76 173.03 167.63 173.74 169.57C174.33 171.17 176.04 172.39 175.48 174.77C170.44 170.77 169.36 165.54 169.45 159.81H169.46Z" fill="#486F62"/>
<path d="M162.69 164.79C164.77 167.06 166.64 169.56 169.48 171C169.6 171.88 169.59 172.71 168.33 172.28C165.27 171.22 162.35 169.94 160.53 167.03C160.93 166.31 161.32 165.59 161.72 164.87C162.01 164.39 162.33 164.36 162.68 164.8L162.69 164.79Z" fill="#20533F"/>
<path d="M140.82 141.56C141.09 141.61 141.37 141.65 141.64 141.67C141.73 144.27 146.42 146.16 145 147.12C141.99 149.14 142.4 143.48 139.69 143.17C139.57 143.16 139.46 142.95 139.35 142.83C139.84 142.4 140.32 141.98 140.81 141.55L140.82 141.56Z" fill="#BFDBC6"/>
<path d="M153.03 158.65C155.86 159.4 156.55 161.94 157.62 164.15C155.57 162.75 153.18 161.63 153.03 158.65Z" fill="#20533F"/>
<path d="M162.69 164.79H162.2L161.72 164.86C157.99 160.08 154.29 155.29 150.52 150.53C145.99 144.81 145.97 143.71 150.91 136.37C151.18 140.88 146.16 145.72 152.64 148.94C154.53 146.76 154.05 143.13 156.55 140.69C157.63 144.29 154.43 146.69 154.6 149.8C154.65 150.81 154.54 151.9 155.66 152.34C157.11 152.92 156.54 150.88 157.8 150.73C156.43 154.18 158.31 156.84 159.77 159.61C160.37 161.54 162.74 162.47 162.69 164.78V164.79Z" fill="#CEE0CC"/>
<path d="M182.65 265.57C183.29 265.23 183.92 264.9 184.56 264.56C184.97 265.54 184.17 266.97 185.66 267.55C185.62 271.87 183.32 276.15 185.49 280.5C185.15 281.23 184.81 281.96 184.48 282.69C183.18 282.88 183.34 281.66 182.88 281.03C182.42 280.31 182.39 279.4 181.86 278.7C181.86 277.94 181.86 277.18 181.86 276.42C182.36 274.96 180.45 274.3 180.71 272.93C183.24 270.41 181.5 268.55 179.74 266.69C179.77 266 180.35 265.92 180.82 265.72C181.43 265.67 182.05 265.62 182.66 265.57H182.65Z" fill="#96A392"/>
<path d="M167.74 285C170.83 292.69 179.45 289.89 184.59 294.12C171.49 293.47 167 291.12 167.74 285Z" fill="#C8DCCB"/>
<path d="M167.91 299.71C175.16 304.15 184.12 303.77 191.55 307.6C183.22 306.21 174.61 305.64 167.91 299.71Z" fill="#BCD2C4"/>
<path d="M181.86 278.7C184.25 277.86 183.2 279.82 183.48 280.69C183.25 281.17 183.28 281.84 182.56 281.96C178.09 280.74 173.92 278.82 169.81 276.72C168.92 276.26 167.7 276.06 168.38 274.75C169.12 273.34 170.09 274.54 170.85 274.88C173.72 276.15 176.62 277.39 179.36 278.9C180.43 279.49 181.08 279.66 181.85 278.71L181.86 278.7Z" fill="#D5E2C3"/>
<path d="M180.7 272.93C181.3 274.02 183.8 274.49 181.85 276.42C178.81 273.53 174.83 272.29 171.18 270.53C168.86 269.41 169.03 268.13 170.01 266.58C173.58 268.7 177.14 270.82 180.7 272.93Z" fill="#E9EDAB"/>
<path d="M180.76 259.62C177.08 258.76 175.05 255.92 173.08 253.08C172.38 252.08 172.43 250.67 173.5 250.01C174.65 249.31 175.29 250.6 175.64 251.39C176.95 254.4 180.39 256.09 180.69 259.69L180.77 259.62H180.76Z" fill="#CFE0C8"/>
<path d="M180.81 265.71C180.45 266.03 180.09 266.36 179.73 266.68C177.63 265.76 175.59 264.57 173.4 263.99C170.13 263.13 170.49 261.55 172.07 259.26C175.03 261.45 177.92 263.58 180.81 265.72V265.71Z" fill="#E9F193"/>
<path d="M183.55 287.47C177.96 290.23 174.99 285.1 170.93 283.26C175.73 283.03 179.42 286.09 183.65 287.57L183.55 287.46V287.47Z" fill="#D5E2C3"/>
<path d="M182.56 281.96C182.87 281.54 183.17 281.11 183.48 280.69C183.81 281.35 184.15 282.02 184.48 282.68C185.91 286.28 187.35 289.88 188.78 293.48C188.72 293.99 188.65 294.5 188.59 295.01C185.97 293.13 186.07 289.43 183.55 287.47L183.65 287.58C184.21 285.53 182.66 283.89 182.55 281.97L182.56 281.96Z" fill="#D1E0D2"/>
<path d="M176.97 309.68C176.43 309.72 175.89 309.75 175.35 309.79C173.06 309.03 170.14 309.07 169.72 305.22C172.45 306.57 174.83 307.75 177.2 308.94C177.29 308.98 177.35 309.22 177.31 309.33C177.26 309.47 177.09 309.56 176.97 309.68Z" fill="#D1E8E2"/>
<path d="M185.01 151.18C179.69 146.31 174.47 141.36 170.46 135.35C170.77 135.07 171.08 134.8 171.39 134.52C176.29 139.77 181.2 145.02 186.1 150.28L185.01 151.18Z" fill="#CFE7D8"/>
<path d="M165.76 161.59C165.92 162.21 166.08 162.82 166.24 163.44C164.647 162.067 163.83 159.547 163.79 155.88C165.6 157.39 164.89 159.76 165.76 161.59Z" fill="#D7E8D7"/>
<path d="M119.84 332.78C119.81 332.4 119.77 332.02 119.74 331.64C122.3 329.35 124.86 327.06 127.95 324.3C126.72 329.17 123.27 330.96 119.85 332.77L119.84 332.78Z" fill="#E7F2EB"/>
<path d="M71.97 337.16C68.39 342.57 68.92 349.72 63.51 354.35C65.94 348.46 68.37 342.56 70.8 336.67C71.19 336.83 71.58 337 71.97 337.16Z" fill="#E7F2EB"/>
<path d="M60.1201 348.89C58.4101 352.47 56 355.55 53.21 358.38C54.33 354.42 56.7299 351.24 59.4299 348.24C59.6399 348.48 59.8701 348.7 60.1201 348.9V348.89Z" fill="#CBE0DC"/>
<path d="M199.49 297.49C200.06 302.46 200.5 306.19 200.95 310.14C197.17 307.57 197.01 306.4 199.49 297.49Z" fill="#38594C"/>
</svg>
