<svg width="277" height="455" viewBox="0 0 277 455" fill="none" xmlns="http://www.w3.org/2000/svg">
<path d="M96.5298 203.58C95.7598 201.28 95 198.99 94.23 196.69C94.02 193.38 94.03 190.23 99.44 190.96C97.1 189.21 95.0598 190.51 93.2998 189.79C90.4298 183.11 88.6799 176.06 86.1499 169.27C85.3499 167.12 86.0098 165.79 87.5298 164.5C91.4798 162.96 95.64 162.21 99.75 161.22C104.57 160.55 109.55 160.59 113.93 157.96C114.9 157.51 115.93 157.33 116.99 157.24C122.43 156.94 127.48 154.87 132.74 153.78C134.41 153.33 136.13 153.09 137.78 152.55C140.79 151.89 143.78 151.18 146.41 149.47C148.05 148.39 149.89 147.82 151.75 147.28C156.54 145.05 161.71 143.81 166.53 141.65C168.24 140.82 169.81 139.5 171.93 140.11C173.41 142.17 176.69 142.65 176.96 145.8C176.62 148.21 178.8 148.71 180.09 149.79C185.02 153.93 190.7 157.13 195.23 161.8C196.89 166.68 197.18 171.78 197.55 176.86C187.39 188.84 178.08 201.52 167.96 213.56C173.44 209.04 177.4 203.18 182.04 197.92C187.42 191.82 191.74 184.85 197.42 178.97C202.36 179.41 207.53 184.79 209.39 191.4C209.7 198.27 207.57 204.87 207.25 211.69C206.85 220.31 205.26 228.83 204.13 237.38C202.6 241.85 204.23 246.61 202.88 251.1C201.59 253.71 198.98 253.63 196.67 254.14C194.38 255.53 192.46 257.85 189.16 256.46C187.92 255.94 187.32 257.58 186.69 258.5C185.4 260.38 183.83 261.71 181.37 261.49C177.75 260.94 175.62 258 172.89 256.02C178.48 261.63 183.96 267.26 188.34 273.86C183.32 274.12 181.12 279.57 176.38 280.37C172 279.41 170.35 274.6 165.63 272.65C167.64 277.03 172.31 278.02 173.62 281.87C173.81 284.4 172 285.43 170.1 285.96C166.26 287.02 164.34 289.29 164.58 293.3C164.22 295.27 159.47 294.07 161.43 297.69C164.84 298.53 169.16 298.46 167.13 304.19C166.73 305.31 168.23 306.07 169.25 306.63C170.97 307.56 172.15 308.82 171.79 310.97C170.41 314.81 165.94 315.77 163.81 319.47C167.15 319.57 168.36 315.74 171.38 316.03C172.58 316.45 173.82 317.5 173.06 318.5C170.33 322.1 172.28 325.76 172.49 329.4C172.38 330.76 170.19 332.04 171.82 333.32C173.09 334.31 174.66 333.12 175.94 332.41C181.86 329.1 187.6 325.48 193.66 322.43C195.57 321.47 197.45 320.32 199.75 320.71C201.55 321.2 202.07 322.58 202.22 324.23C201.92 330.16 199.1 335.34 197.06 340.72C194.67 347.05 191.35 353 188.81 359.3C187.33 362.98 182.67 364.38 181.61 368.52C177.77 372.13 173.4 374.82 168.24 376.13C166.12 376.65 164.57 375.15 162.75 374.59C159.82 373.42 157.47 371.42 155.19 369.31C146.73 361.76 136.76 356.48 126.99 350.98C121.52 347.9 116.28 344.42 110.61 341.69C110.19 341.48 109.8 341.23 109.41 340.97C106.85 338.95 103.74 337.86 101.05 336.06C97.9898 334.47 95.2202 332.72 96.7202 328.52C97.8302 324.85 99.09 321.21 99.75 317.41C101.87 310.61 102.41 303.46 104.34 296.62C105.12 295.64 106.43 295.71 107.39 295.07C103.97 290.68 104.36 282.14 108.2 277.77C108.92 276.95 110.59 275.92 109.22 275.04C105.11 272.42 106.77 268.5 106.64 265.07C106.56 262.87 105.31 259.73 107.47 258.55C109.91 257.21 111.1 260.75 113.08 261.75C114.07 262.25 114.75 263.36 116.13 263.25C115.87 261.75 114.61 260.96 113.59 260.5C106.46 257.24 105.96 250.81 105.56 244.3C105.5 243.31 105.67 242.28 105.49 241.31C105.19 239.76 103.51 237.83 105.15 236.75C107.14 235.44 108.75 237.56 110.32 238.71C115.97 242.83 121.09 247.61 126.72 251.75C128.12 252.78 129.31 254.22 131.9 254.63C124.51 248.72 117.3 243.7 110.18 238.57C106.53 235.94 103.42 233.23 102.79 228.52C102.07 228.1 102.01 227.48 102.23 226.77C102.56 226.02 102.38 225.01 102.97 224.46C105.93 221.64 105.34 219.52 101.93 217.65C100.36 216.79 100.28 214.91 99.6602 213.42C98.9102 210.31 100.97 208.53 102.82 206.58C109.49 199.52 115.41 191.84 121.42 184.21C115.44 189.67 110.55 196.11 105.18 202.1C104.52 202.84 103.98 203.69 103.3 204.42C99.9098 208.03 98.8298 207.9 96.5098 203.6L96.5298 203.58Z" fill="#42B2B1"/>
<path d="M67.19 119.78C64.17 117.18 63.5099 113.31 62.0699 109.93C54.0699 91.1699 45.6002 72.64 35.8502 54.71C31.9202 47.49 32.4302 45.5901 39.5602 41.5701C57.0102 31.7301 75.9903 25.64 94.9103 19.52C117.16 12.32 139.48 5.21998 162.6 1.21998C171.59 -0.330015 173.68 1.42992 175.14 10.6499C178.72 33.2999 182.34 55.9401 185.94 78.5801C185.59 79.1501 185.37 79.7901 185.03 80.3701C183.92 81.8801 182.29 82.66 180.69 83.48C179.9 83.87 179.09 84.22 178.26 84.51C176.14 85.11 174.38 86.3701 172.59 87.5901C171.64 88.2201 170.73 88.9399 169.69 89.4299C162.28 92.0999 154.71 94.32 147.91 98.52C145.26 100.15 141.75 99.35 138.9 100.78C138.21 101.02 137.55 101.32 136.88 101.61C132.51 103.29 128.16 105 123.53 105.83C121.79 105.75 120.52 106.96 119 107.48C118.69 107.58 118.32 107.58 118.06 107.74C117.32 108.17 108.13 110.9 107.11 110.94C104.97 111.03 102.92 111.76 100.78 111.87C99.6499 111.93 98.5701 112.23 97.5401 112.69C94.2501 114.05 90.57 114.27 87.42 116.07C87.33 116.53 87.09 116.86 86.69 117.1C85.02 117.86 83.1201 116.58 81.5001 117.67C81.3701 119.25 87.9002 120.72 81.5602 122.35C76.8302 121.18 72.56 117.41 67.19 119.77V119.78Z" fill="#0F304D"/>
<path d="M180.62 260.72C183.1 260.64 185.17 259.9 186 257.27C186.53 255.59 187.77 254.55 189.32 255.29C192.55 256.84 193.87 254.78 195.31 252.65C195.94 253.43 196.67 254.1 197.44 254.73C198.75 255.79 200.18 256.92 201.92 256.29C203.86 255.58 203.52 253.61 203.67 252.01C203.78 250.85 203.72 249.69 203.83 248.53C204.07 245.99 205.28 244.54 208 244.71C208.99 244.77 210.01 244.87 210.97 244.61C212.06 244.32 213.5 244.1 213.22 242.54C213.01 241.41 211.8 241.36 210.79 241.3C204.29 240.92 204.2 240.84 205.23 234.19C205.69 231.24 205.92 228.26 206.31 225.3C206.81 221.49 208.26 219.08 212.51 219.09C213.9 219.09 215.58 219.1 216.25 217.31C215.4 215.89 213.96 215.94 212.7 216.04C208.48 216.4 207.45 214.18 207.98 210.54C209.27 201.68 210.05 192.74 211.59 183.91C211.89 182.19 211.56 179.85 213.77 179.33C215.85 178.84 215.91 181.48 217.2 182.39C217.58 182.66 217.81 183.16 218.16 183.52L218.1 183.44C219.78 186.5 222.16 189.07 224.11 191.96C225.21 193.59 227.03 194.77 225.39 197.11C224.85 197.88 225.44 198.89 226.36 199C231.81 199.67 233.99 204.54 237.52 207.63C240.51 210.25 243.23 213.18 246.05 215.99C250.84 218.55 254.57 222.54 259 225.59C258.73 228.52 256.24 228.48 254.3 228.93C247.61 230.46 241.53 233.32 235.77 236.96C229.94 240.26 225.21 245.03 219.87 248.98C217.92 250.72 215.92 252.41 214.73 254.82C214.33 255.64 213.94 256.46 213.56 257.28C210.94 263.07 212.69 267.94 216.94 272.06C222.11 277.07 228.65 279.96 234.98 283.16C237.43 284.4 240.32 285.1 241.73 287.88C241.98 292.38 241.07 296.6 238.69 300.46C235.26 303.1 231.84 299.78 228.01 300.48C229.23 302.01 231.37 301.91 232.23 303.43C230.58 307.85 228.85 312.26 226.42 316.3C224.79 319.01 223.67 321.82 223.09 324.9C219.23 328.04 214.06 327.86 209.86 330.16C207.53 330.69 205.67 330.06 204.41 327.97C203.77 326.31 204.16 324.68 204.71 323.1C207.26 315.87 209.07 308.44 210.74 300.98C211.2 298.95 212.21 297.32 213.6 295.83C214.65 294.69 215.56 293.39 214.15 291.91C213.27 290.99 212.07 290.84 210.91 291.3C208.97 292.08 209.5 293.52 209.89 295.06C211.17 300.08 207.08 314.82 203.44 318.65C200.98 316.64 198.73 317.92 196.59 319.21C190.76 322.73 184.64 325.67 178.5 328.56C176.54 329.49 174.45 331.13 172.05 329.4C170.79 325.68 167.94 321.96 172.38 318.31C172.94 317.85 171.89 316.93 171.14 316.54C171.74 312.72 175.26 311.77 177.83 310.04C182.05 307.2 186.55 304.77 190.17 301.01C185.51 303.12 181.47 306.25 177.11 308.87C175.25 309.99 173.76 312.25 171.05 311.36C171.15 309.28 170.52 307.85 168.17 307.5C165.69 307.13 164.41 305.01 165.5 303.21C167.78 299.49 165.89 299.41 163.04 299.51C161.88 299.55 160.66 299.57 160.21 298.11C162.34 296.46 165.51 298.25 167.5 296.02C166.89 294.31 164.71 294.85 164.06 293.37C162.13 288.6 164.31 286.31 168.8 285.11C170.53 284.65 172.9 284.52 173.05 281.81C174.95 280.54 175.75 282.86 177.2 283.09C177.02 281.86 174.97 281.08 176.32 279.48C177.67 279.38 179.32 278.94 179.66 277.83C181.08 273.31 184.51 273.6 188.04 273.89C190.3 272.68 191.19 274.8 192.43 275.81C194.09 277.16 195.43 278.89 197.49 279.88C193.6 275.18 189.19 270.96 184.97 266.57C183.29 264.82 180.94 263.5 180.62 260.72Z" fill="#42ACAB"/>
<path d="M156.09 369.08C158.26 370.59 160.42 372.09 162.59 373.6C165.31 376.14 170.09 375.98 171.4 380.36C171.19 381.09 170.73 381.62 170.07 381.97C167.1 382.08 164.1 382.02 161.15 382.7C161.53 383.66 162.47 384.2 162.71 385.19C163.46 388.05 161.1 390.12 160.83 392.72C161.72 397.32 162.61 401.91 167.26 404.45C166.88 407.37 164.83 408.82 162.4 409.92C160.78 410.03 159.27 410.37 158.24 411.78C155.31 412.13 152.92 413.44 151.15 415.84C149.5 417.68 149.35 413.3 147.56 415.03C145.31 417.2 147.14 419.3 147.39 421.44C147 422.68 146.17 423.51 145 424.02C142.54 424.53 140.95 422.81 139.18 421.66C124.35 412.09 110.41 401.23 95.5696 391.68C95.1696 391.45 94.7997 391.17 94.4397 390.89C91.1597 388.15 87.7799 385.55 84.0999 383.35C83.6899 383.11 83.3198 382.82 82.9598 382.52C81.1998 380.74 79.0997 379.38 77.1097 377.88C75.0997 376.37 73.7697 374.59 75.1097 371.94C79.1697 368.23 81.9496 363.54 85.0096 359.06C87.1896 355.3 87.0398 350.07 91.9798 348.04C92.5198 347.82 92.62 347.3 92.43 346.81C91 343.19 93.4699 340.22 94.0799 336.95L95.0096 335.06C97.6696 330.82 99.28 335.62 101.43 335.81C104.17 337.66 107.42 338.6 110.09 340.58L110.02 340.53C122.92 348.48 136.45 355.37 149.06 363.8C151.5 365.43 153.97 367.01 156.09 369.07V369.08Z" fill="#F0918C"/>
<path d="M52.2799 389.56C54.5699 387.31 57.08 385.36 59.88 383.8C62.81 383.24 64.8302 381.21 67.0002 379.41L66.9704 379.45C71.5237 376.203 76.0803 376.3 80.6403 379.74C81.8203 380.63 82.78 381.82 84.13 382.5L84.0802 382.46C87.6802 385.25 91.3603 387.93 95.1203 390.5L95.07 390.46C107.95 399.71 121.02 408.7 134.04 417.74C135.41 418.69 136.82 419.52 137.76 420.95C138.38 430.1 135.94 433.79 127.33 436.8C125.83 437.17 124.98 438.53 123.69 439.22C117.78 441.67 111.24 442.26 105.81 446.32C101.38 449.63 96.93 445.86 92.57 444.65C89 443.08 87.7501 439.32 85.1701 436.82C81.2501 433.03 77.77 428.79 73.34 425.54C72.95 425.3 72.5804 425.02 72.2204 424.73C67.0104 420.79 61.8803 416.72 55.6403 414.43C53.6703 413.64 51.7504 412.77 50.2204 411.25C46.9304 408.07 42.7904 406.67 38.4704 405.65C36.6404 405.05 34.5799 404.85 33.5099 402.88C33.2499 401.85 33.3099 400.87 34.2799 400.25C38.2899 397.67 42.2503 395 46.6403 393.06C48.5303 392.22 50.1599 392.91 51.7799 393.88C53.8999 395.15 55.7899 396.79 58.2599 397.53C56.6899 395.88 54.57 394.95 52.8 393.56C51.45 392.5 49.3902 391.29 52.2502 389.54L52.2799 389.56Z" fill="#3FB0B0"/>
<path d="M219.09 248.05C224.3 244.31 228.82 239.64 234.52 236.56C240.98 233.32 247.36 229.9 254.54 228.43C257.12 227.9 259.64 227.04 262.3 227.88C264.37 229.54 266.07 231.49 267.06 234C270.77 241.42 274.28 248.91 275.52 257.23C275.97 267.97 275.52 278.59 271.1 288.64L271.15 288.55C270.27 289.39 270.09 290.61 269.75 291.66C268.39 295.84 265.49 296.28 261.84 295.29C256.06 293.73 250.32 291.95 245.09 289.04C236.42 284.22 227.15 280.46 219.13 274.46C211.97 269.11 210.39 264.47 213.06 256.05C213.27 255.56 213.47 255.07 213.68 254.58C215.47 252.39 218.01 250.81 219.1 248.04L219.09 248.05Z" fill="#B92A47"/>
<path d="M51.1096 411.05C52.6096 411.89 54.1096 412.73 55.6096 413.57C61.9696 416.37 67.3696 420.7 73.1096 424.5L73.0696 424.47C81.7396 432.27 90.1496 440.3 95.6096 450.87C95.6396 451.44 95.5 451.96 95.2 452.44C90.67 453.97 86.0597 453.05 81.4597 453.11C70.6697 453.25 59.9798 452.41 49.3098 450.98C43.7898 450.24 38.5096 448.05 32.8396 448.23C31.3396 447.57 29.5 447.98 28.2 446.71C23.8 444.18 18.7595 443.22 14.2595 440.88C10.9695 439.17 7.9496 437.27 5.5696 434.41C0.449603 429.08 0.389603 427.32 5.0696 418.94C10.5496 412.05 18.3796 408.49 25.7996 404.37C27.1896 404.02 28.4497 403.46 29.6897 402.66C31.0997 401.75 32.8499 400.73 34.1399 403.02C35.6499 403.55 37.1597 404.08 38.6697 404.62C42.8997 406.62 47.6399 407.6 51.1199 411.05H51.1096Z" fill="#CC3A55"/>
<path d="M204.92 327.34C206.28 329.15 208.17 329.64 210.32 329.48C213 330.05 215.41 329.45 217.93 328.34C224.21 325.57 230.69 323.27 236.88 320.38C232.29 321.65 228.36 325.55 223.03 324.3C222.75 323.71 222.06 322.92 222.24 322.55C225.3 316.2 227.59 309.43 232.02 303.79C234.38 302.21 236.67 304.35 239.13 303.89C239.79 302.56 237.89 302.2 237.98 301.1C239.02 296.62 240.67 292.29 240.99 287.65C247.52 288.27 252.71 292.75 259.06 293.94C260.19 294.15 261.28 294.89 262.4 294.9C266.51 294.93 266.78 296.89 265.19 299.97C264.14 301.04 263.09 302.1 262.04 303.17C260.2 306.74 256.8 308.9 254.23 311.82C244.9 321.16 235.58 330.51 226.23 339.83C223.64 344.58 218.51 347.22 216.07 352.09C215.11 353.15 214.15 354.22 213.18 355.28C207.58 359.83 203.19 365.37 199.76 371.71C197.59 374.58 195.41 377.46 193.24 380.33C190.09 382.27 188.97 385.71 187.12 388.62L187.15 388.58C184.38 391.63 182.88 387.62 180.69 387.43C178.65 386.36 176.94 384.86 175.31 383.26C173.34 380.32 169.58 379.13 167.98 375.82C172.42 373.38 176.86 370.94 181.3 368.51C182.35 368.21 183.24 368.75 184.17 369.08C187.06 370.1 188.53 368.8 188.19 366.03C187.75 362.45 189.1 359.51 190.67 356.56C194.84 348.76 198.15 340.59 201.43 332.4C202.18 330.53 202.29 328.01 204.93 327.37L204.92 327.34Z" fill="#2D989A"/>
<path d="M167.07 419.07C165.01 422.85 162.57 426.35 159.62 429.49C157.22 432.5 154.68 432.79 151.93 429.93C149.77 427.68 145.65 427.64 144.96 423.74C145.42 422.6 146.22 421.79 147.36 421.32C147.75 418.96 149.38 417.42 150.98 415.86C151.86 412.02 153.79 409.91 158.03 411.56C159.13 412.07 159.76 413.88 161.21 413.22C162.96 412.43 161.6 410.6 162.05 409.32C163.72 407.77 165.38 406.23 167.05 404.68C166.75 399.4 163.04 396.05 160.04 392.3C159.67 389.72 162.09 387.97 162.06 385.49C163.42 381.98 166.94 383.94 169.2 382.7C169.47 382.55 169.55 382.7 169.95 381.89C170.4 381.38 170.86 380.87 171.31 380.37C173.74 379.66 174.64 381.76 176.03 382.94C177.63 384.14 179.23 385.33 180.82 386.53C182.72 388.02 185.5 388.82 185.09 392.08C185.12 393.52 184.1 394.36 183.26 395.3C180.09 398.67 177.42 402.36 175.75 406.71C175.04 407.64 174.33 408.58 173.62 409.51C170.54 412.08 168.69 415.49 167.06 419.05L167.07 419.07Z" fill="#DF6068"/>
<path d="M218.17 183.53C216.82 182.4 215.47 181.27 213.56 179.67C212.36 188.33 211.21 196.6 210.09 204.87C209.93 206.02 210.13 207.26 209.76 208.33C208.07 213.31 208.79 216.06 214.98 214.9C216.64 214.59 218.94 214.91 219.08 217.43C219.23 220.14 216.53 220.41 215.18 220.14C207.98 218.69 207.51 223.47 207.3 228.34C207.12 232.47 205.68 236.49 206.18 240.72C208.02 241.24 209.28 239.7 210.89 239.63C213.28 239.52 215.52 240.18 215.86 242.69C216.29 245.83 213.16 246.34 211.41 245.99C204.83 244.68 204.65 248.48 204.78 253.18C204.84 255.25 205.71 258.84 202.27 258.48C199.28 258.17 194.89 257.8 195.3 252.65C197.55 252.22 200.12 253.31 202.04 251.26C203.45 246.77 201.76 242.06 202.98 237.55C204.69 221.93 206.41 206.31 208.12 190.68C208.16 185.33 207.75 179.94 209.93 174.83C210.67 173.93 211.54 173.31 212.79 173.61C214.58 176.91 216.37 180.21 218.17 183.52V183.53Z" fill="#150918"/>
<path d="M171.89 86.6299C173.77 85.4499 175.53 84.0301 177.86 83.8101C183.89 84.6401 187.82 87.3699 187.96 94.1399C188.05 98.5099 189.67 102.61 191.24 106.65C191.92 107.01 192.05 107.58 191.87 108.28C191.22 113.69 189.56 115.08 186.23 112C181.35 107.48 176.2 108.32 170.74 109.11C170.29 109.15 169.83 109.11 169.39 109C167.86 108.14 167.7 106.02 165.99 105.32C165.25 104.86 164.5 104.43 163.91 103.77C163.71 103.35 163.66 102.91 163.76 102.45C164.09 101.8 164.59 101.35 165.29 101.12C165.76 101.06 166.22 101.09 166.68 101.21C167.95 101.5 168.95 102.5 170.35 102.59C170.7 101.32 169.94 100.32 169.47 99.3601C167.79 95.9201 167.55 92.74 170.43 89.76C171.24 88.92 171.33 87.6399 171.89 86.6299Z" fill="#E26268"/>
<path d="M102.82 228.51C107.7 238.22 118.11 241.53 125.65 248.17C127.76 250.03 130.19 251.52 132.47 253.19C133.55 253.99 134.88 254.85 133.83 256.39C132.69 258.06 131.39 256.81 130.45 256.07C123.52 250.64 116.65 245.12 109.74 239.67C108.49 238.68 107.58 237.04 105.45 237.26C106.02 242.34 106.67 247.4 107.1 252.48C107.27 254.5 108.65 255.23 109.99 256.2C112.55 258.05 115.1 259.91 117.58 261.86C118.5 262.58 119.48 263.75 118.73 264.85C117.82 266.2 116.33 265.71 115.19 264.9C112.65 263.1 110.05 261.37 106.99 259.01C106.99 262.89 107.01 266.76 106.99 270.64C106.98 272.55 108.05 273.11 109.77 273.4C113.31 273.99 113.19 276.36 110.67 277.52C104.8 280.22 106.69 285.75 105.39 290.07C104.86 291.82 106.8 292.45 108.03 293.26C109.17 294.01 111.45 294.08 110.79 296.05C110.35 297.35 108.46 296.79 107.18 296.85C106.52 296.88 105.85 296.76 105.19 296.7C103.28 296.7 103.64 295.47 103.88 294.3C106.84 272.32 107.06 250.39 102.85 228.53L102.82 228.51Z" fill="#12121E"/>
<path d="M170.15 108.38C173.21 107.79 176.48 107.71 179.27 106.49C183.59 104.6 183.7 109.33 185.47 110.59C189.86 113.7 190.78 112 191.87 108.29C196.3 130.88 202.51 152.9 212.79 173.62C212.31 173.93 211.82 174.24 211.34 174.55C207.11 169.15 204.79 162.8 202.42 156.48C199.11 147.66 196 138.78 193.91 129.55C193 130.22 192.07 131.57 190.39 130.94C189.55 130.3 189.81 129.53 190.16 128.77C193.98 120.45 192.42 116.47 184.12 113.45C182.74 112.92 181.27 112.5 180.24 111.38C178.17 109.15 176.69 109.18 175.84 112.36C175.53 113.52 174.98 114.64 173.61 114.59C172.42 114.55 172.17 113.36 171.91 112.44C171.5 111 170.51 109.83 170.14 108.39L170.15 108.38Z" fill="#3B2525"/>
<path d="M148.14 440.62C147.13 442.81 144.4 442.74 143.07 444.51C125.8 452.69 107.21 453.55 88.6201 454.04C69.8001 454.53 51.1598 452.83 32.8398 448.24C35.8098 446.4 38.8002 448.15 41.4502 448.77C57.9202 452.61 74.6201 452.68 91.3501 452.56C92.9501 452.55 94.8201 452.97 95.0801 450.5C111.17 450.99 126.77 448.9 141.44 441.83C143.35 440.91 145.17 439.55 147.51 440.1C147.72 440.27 147.92 440.45 148.13 440.62H148.14Z" fill="#362B31"/>
<path d="M96.5298 203.58C98.6698 206.92 100.28 206.28 102.61 203.4C108.03 196.68 113.82 190.26 119.55 183.79C120.54 182.68 121.68 180.42 123.49 181.94C125.29 183.45 123.4 184.85 122.34 186.06C115.45 193.93 108.61 201.85 101.61 209.62C100.48 210.88 100.21 212.16 100.04 213.63C100.51 214.54 100.02 214.65 99.27 214.53C99.02 210.71 97.49 207.22 96.52 203.58H96.5298Z" fill="#13101E"/>
<path d="M82.52 147.56C81.86 147.59 81.5302 147.24 81.4502 146.61C76.7802 144.84 75.64 140.63 74.83 136.45C74.42 134.35 74.9701 132.08 77.8901 131.77C78.3801 131.8 78.8598 131.92 79.3198 132.12C81.8898 135.15 85.1198 137.46 88.1298 140.01C89.0098 141.21 90.2099 142.11 91.2299 143.17C92.5299 144.54 92.4397 145.76 90.7797 146.78C88.1897 148.75 85.4097 148.77 82.5097 147.57L82.52 147.56Z" fill="#F8B1A8"/>
<path d="M265.18 299.97C266.1 296.99 265.18 295.95 261.91 295.4C254.51 294.15 248.04 290.05 240.98 287.66C232.75 283.48 224.22 279.79 216.98 273.9C210.76 268.84 209.38 262.34 213.05 256.07C210.44 265.07 214.63 270.92 221.88 275.5C233.15 282.62 245.02 288.51 257.68 292.66C266.08 295.42 266.15 295.22 271.15 288.55C270.45 293.03 268.06 296.63 265.18 299.97Z" fill="#22141B"/>
<path d="M99.89 162.37C96.06 163.72 92.1499 164.72 88.0999 165.1C86.0899 167.22 85.19 165.37 84.64 163.91C83.23 160.19 81.2096 156.62 81.2796 152.45C81.9496 152.54 82.6296 152.64 83.2996 152.73C88.8396 155.01 94.0098 158.11 99.7298 159.99C101.59 160.6 101.86 161.44 99.89 162.37Z" fill="#EEB6A9"/>
<path d="M99.8901 162.37C100.07 162.09 100.25 161.82 100.43 161.54C95.8102 161.4 92.9601 157.05 88.5601 156.51C86.0001 156.2 84.28 155.05 83.29 152.72C85.42 150.64 84.5098 149.02 82.5098 147.55C85.4598 147.45 88.43 147.39 91 145.61C90.62 154.18 96.2198 157.08 103.3 158.62C104.44 158.87 105.59 158.89 106.74 158.87C109.14 159.4 111.61 157.15 113.98 159.02C109.78 162.25 104.74 161.93 99.8799 162.36L99.8901 162.37Z" fill="#58403E"/>
<path d="M34.1401 403.03C30.9601 401.03 28.7898 405.25 25.7998 404.38C34.5098 399.23 42.9198 393.54 52.2798 389.56C51.1898 390.86 51.4302 391.62 52.9902 392.46C55.4502 393.79 57.7598 395.42 60.0898 396.99C60.7098 397.41 61.8302 397.72 61.4302 398.77C60.9902 399.93 59.7102 399.97 58.9102 399.55C56.2902 398.18 53.6498 396.76 51.2598 395.02C48.9098 393.32 46.89 393.21 44.48 394.83C41.88 396.58 39.1401 398.14 36.3701 399.63C34.9301 400.41 34.0099 401.33 34.1299 403.03H34.1401Z" fill="#191D26"/>
<path d="M67.1899 119.78C69.3599 117.9 72.08 117.68 74.75 117.38C75.35 117.31 76.5398 117.55 76.5298 117.64C76.4798 121.49 80.3899 119.97 81.8999 121.65C82.4899 122.87 81.7499 123.59 80.8999 124.26C79.3999 124.95 77.91 125.7 76.25 124.71C75.72 125.81 76.3202 122.34 75.6602 124.54C74.3802 128.8 73.4899 129.14 69.6699 126.53C67.6799 124.71 69.2499 121.58 67.1899 119.78Z" fill="#F0AC9F"/>
<path d="M246.06 216C240.87 212.89 237.12 208.21 233.01 203.95C231.12 202 229.55 200.12 226.36 200.68C224.28 201.04 221.96 199.13 223.24 197.65C226.83 193.51 222.63 191.94 221.33 189.38C220.31 187.38 218.06 186.04 218.12 183.45C221.6 186.03 223.48 189.94 226.13 193.21C231.96 200.37 237.88 207.44 244.7 213.7C245.35 214.3 246.55 214.69 246.07 216H246.06Z" fill="#181D28"/>
<path d="M69.6699 126.53C74.9099 129.01 75.0998 125.38 75.3198 121.49C76.2998 126.08 79.1301 122.94 81.0601 123.3C83.6301 124.19 81.8602 125.77 81.4102 126.79C80.5602 128.71 80.7398 131.05 79.0698 132.63C77.3498 132.46 76.2701 132.5 75.8901 134.9C75.0501 140.26 78.26 143.35 81.46 146.6C78.79 148.42 77.7598 146.98 76.8398 144.53C74.5598 138.49 72.0802 132.52 69.6802 126.52L69.6699 126.53Z" fill="#45302E"/>
<path d="M191.24 106.67C187.66 102.86 187.05 97.7301 186.64 93.1001C186.24 88.5601 184.47 86.6401 180.52 85.8301C179.3 85.5801 178.46 84.8701 177.86 83.8201C178.64 83.4601 179.43 83.1 180.21 82.75C183.33 84.78 184.26 82.78 184.87 80.2C185.23 79.66 185.58 79.1201 185.94 78.5801C187.71 87.9401 189.47 97.3099 191.24 106.67Z" fill="#402224"/>
<path d="M226.03 339.52C235 329.81 244.45 320.6 254.04 311.51C254.34 311.76 254.45 312.03 254.37 312.3C254.29 312.58 254.21 312.72 254.11 312.72C244.81 322.14 235.5 331.56 226.2 340.98C225.68 340.55 225.63 340.06 226.03 339.52Z" fill="#1A3A41"/>
<path d="M81.2702 152.45C82.5302 155.99 83.9102 159.5 85.0002 163.09C85.5302 164.84 86.19 165.77 88.09 165.1C87.5 166.6 85.9801 167.52 86.9201 169.82C89.5401 176.21 91.6201 182.83 93.9201 189.36C94.3801 190.42 94.0201 190.8 92.9201 190.59C88.6701 178.24 84.4101 165.88 80.1701 153.52C80.0201 153.08 80.1403 152.55 80.1403 152.07C80.5203 152.19 80.8902 152.32 81.2702 152.44V152.45Z" fill="#364544"/>
<path d="M262.3 227.88C252.35 228.57 243.6 233.11 234.52 236.56C240.46 231.85 247.42 229.4 254.62 227.5C256.19 227.08 257.96 227.22 259.01 225.61C260.56 225.7 261.36 226.9 262.3 227.88Z" fill="#242027"/>
<path d="M99.2798 214.53C99.5398 214.23 99.7898 213.93 100.05 213.63C101.33 214.55 101.41 216.26 103.13 217.13C108.48 219.85 108.44 220.79 103.86 224.94C103.27 225.48 102.79 226.15 102.27 226.76C101.57 222.62 100.76 218.5 99.29 214.54L99.2798 214.53Z" fill="#12121E"/>
<path d="M94.0698 336.95C94.7098 340.56 90.48 344.53 94.96 347.92C95.58 348.39 94.6798 349.98 94.0898 349.82C87.3898 347.94 89.2301 354.99 86.3901 357.1C85.7801 357.55 85.46 358.4 85 359.07C86.97 351.27 90.9498 344.29 94.0698 336.96V336.95Z" fill="#5A4243"/>
<path d="M271.1 288.63C270.57 285.82 272.21 283.5 273.05 281.08C275.8 273.05 274.82 264.78 275.12 256.59C275.35 256.08 275.6 256.09 275.87 256.56C277.16 267.68 276.73 278.55 271.1 288.64V288.63Z" fill="#22141B"/>
<path d="M6.10986 434.5C11.6499 439.43 18.25 442.3 25.21 444.54C26.31 444.89 28.4399 444.33 28.1899 446.72C19.5099 444.39 11.03 441.66 4.77002 434.64C5.17002 434.12 5.60986 434.07 6.10986 434.5Z" fill="#50242D"/>
<path d="M92.9199 190.6C93.2499 190.19 93.5899 189.78 93.9199 189.37C94.5799 188.47 95.5898 188.29 96.5498 188.33C98.2398 188.41 100.86 187.57 101.21 189.7C101.61 192.13 99.1301 192.91 97.1001 192.59C93.0001 191.94 96.04 195.95 94.23 196.69C93.79 194.66 93.3599 192.63 92.9199 190.6Z" fill="#13101E"/>
<path d="M275.87 256.55C275.62 256.56 275.37 256.57 275.12 256.58C273.3 248.74 269.47 241.62 267.06 233.99C271.9 240.77 274.75 248.32 275.87 256.55Z" fill="#55282D"/>
<path d="M103.85 294.28C104.29 295.08 104.72 295.88 105.16 296.68C103.83 302.79 102.48 308.89 101.2 315.01C100.99 316.01 100.87 316.97 99.9199 317.56C99.7099 317.56 99.5098 317.56 99.2998 317.56C100.81 309.8 102.33 302.05 103.84 294.29L103.85 294.28Z" fill="#304C51"/>
<path d="M84.1401 382.5C81.5401 382.49 80.1602 380.36 78.4102 379.01C75.2802 376.6 72.3999 374.83 69.1899 378.8C68.6799 379.44 67.88 379.81 66.98 379.45C68.77 375.95 73.1699 375.29 75.1099 371.95C74.5399 374.56 76.3598 375.72 78.0698 377.08C80.1898 378.77 82.8501 379.88 84.1401 382.5Z" fill="#1D2123"/>
<path d="M199.76 371.69C199.13 371.26 198.89 370.61 199.34 370.04C203.35 364.9 207.11 359.54 211.96 355.12C212.16 354.94 212.76 355.21 213.18 355.27C208.71 360.74 204.24 366.22 199.76 371.69Z" fill="#213B40"/>
<path d="M6.10991 434.5C5.65991 434.55 5.22006 434.59 4.77006 434.64C-0.489936 428.74 -0.409897 424.82 5.0601 418.95C5.4601 420.85 3.91999 421.95 3.18999 423.37C0.819986 427.99 3.66014 431.18 6.10014 434.5H6.10991Z" fill="#522A31"/>
<path d="M226.03 339.52C226.09 340.01 226.14 340.5 226.2 340.98C222.82 344.68 219.44 348.37 216.06 352.07C217.61 346.48 222.84 343.81 226.03 339.52Z" fill="#2C4347"/>
<path d="M175.76 406.72C175.87 403.26 180.37 396.42 183.27 395.31C180.77 399.11 178.26 402.92 175.76 406.72Z" fill="#633638"/>
<path d="M101.17 336.33C99.07 336.12 97.6701 332.48 95.0001 335.07C94.6301 331.95 95.83 329.19 96.92 326.39C97.73 327.11 97.6499 327.9 97.0699 328.71C96.1099 332.85 99.9603 333.43 101.99 335.37C101.92 335.86 101.65 336.19 101.17 336.33Z" fill="#5A4243"/>
<path d="M254.11 312.73C254.09 312.33 254.06 311.92 254.04 311.52C256.71 308.74 259.37 305.96 262.04 303.17C261.01 307.69 257.38 310.06 254.12 312.73H254.11Z" fill="#172D32"/>
<path d="M167.07 419.07C167.86 414.93 169.64 411.47 173.63 409.53C171.76 412.52 169.9 415.52 168.03 418.51C167.71 418.7 167.39 418.88 167.07 419.07Z" fill="#523432"/>
<path d="M187.12 388.6C188.18 385.11 189.2 381.6 193.24 380.32C191.17 383.06 189.9 386.39 187.12 388.6Z" fill="#29474B"/>
<path d="M97.0801 328.71C97.0301 327.94 96.9802 327.16 96.9302 326.39C97.7202 323.44 98.5101 320.49 99.3101 317.54C99.5201 317.55 99.7202 317.55 99.9302 317.54C100.28 321.59 98.4401 325.09 97.0801 328.7V328.71Z" fill="#254347"/>
<path d="M185.1 392.09C184.64 389.5 181.86 388.69 180.83 386.54C183.33 385.99 184.32 390.15 187.15 388.56C187.06 390.08 186.13 391.11 185.1 392.09Z" fill="#32292D"/>
<path d="M67 379.41C65.42 382.16 63.4999 384.35 59.8799 383.8C62.3599 382.52 64.13 380.07 67 379.41Z" fill="#223339"/>
<path d="M189.73 131.24C191.22 130.22 192.71 129.19 194.6 127.9C197.15 137.93 200.17 147.66 203.98 157.12C206.33 162.97 208.88 168.74 211.34 174.55C209.07 179.69 210.11 185.49 208.12 190.69C205.27 186.25 203.33 180.92 197.3 179.56C196.55 179.08 196.51 178.47 196.97 177.77C195.99 172.43 195.02 167.1 194.04 161.76C193.93 158.81 192.31 156.83 189.95 155.3C186.45 153.04 182.8 151.03 179.3 148.78C178.04 147.97 175.91 147.87 175.98 145.6C174.83 143.71 171.94 143.23 171.82 140.49C171.79 139.02 172.91 138.52 173.95 137.95C176.02 137.18 178.36 137.11 180.18 135.66C183.29 134.03 185.85 131.22 189.73 131.25V131.24Z" fill="#2DA09E"/>
<path d="M173.59 138.59C173 139.22 172.41 139.85 171.82 140.49C170.34 141.15 168.86 141.81 167.39 142.47C162.05 144.75 156.43 145.17 150.72 145.06C149.55 145.04 148.42 145.25 147.73 143.95C145.67 140.1 147.53 132.53 151.22 129.64C152.52 128.62 154.87 127.81 152.44 125.62C151.81 125.33 151.2 125.02 150.8 124.43C150.9 119.56 154.93 121.84 157.19 120.9C160.84 122.85 163.92 125.64 168.29 126.6C170.42 127.07 172.93 124.85 174.62 127.47C174.71 127.93 174.72 128.39 174.66 128.85C174.43 129.98 174.4 131.46 173.51 132.04C169.91 134.39 172.18 136.44 173.61 138.58L173.59 138.59Z" fill="#F28981"/>
<path d="M148.75 164.11C150.6 167.35 150.86 171.73 155.35 173.58C157.27 174.37 155.35 176.9 153.85 177.2C151.07 177.76 151.74 179.26 151.82 181.15C152.02 186.12 151.89 191.11 151.89 196.12C154.48 196.4 156.58 195.28 158.73 196.14C160.1 196.69 161.95 196.82 161.77 198.79C161.62 200.51 160.03 201.63 158.57 201.29C151.32 199.65 151.92 204.32 151.91 208.96C151.91 212.44 151.48 215.94 150.98 219.4C150.58 222.15 151.56 222.75 154.2 222.75C156.76 222.75 161.16 221.18 161.34 224.81C161.52 228.51 157.1 227.53 154.47 227.51C152.02 227.49 149.34 230.01 147.42 228.09C145.44 226.11 147.97 223.45 148.1 221C148.78 208.02 149.08 195.04 149.12 182.04C149.13 178.7 148.01 177.36 145.01 176.67C142.96 176.2 140.22 175.58 140.34 172.98C140.44 170.57 143.07 170.34 145.04 170.26C149.66 170.08 145.72 165.39 148.77 164.1L148.75 164.11Z" fill="#130A1B"/>
<path d="M204.92 327.34C200.14 338.91 195.56 350.57 189.47 361.55C188.96 362.47 188.72 363.4 189.09 364.39C189.96 366.73 190.3 369.08 187.82 370.54C185.08 372.16 183.22 369.98 181.29 368.48C180.95 365.13 181.92 362.54 185.49 361.65C186.37 361.43 187.02 361.24 187.33 360.32C191.34 348.22 198.5 337.33 201.12 324.69C202.08 322.91 201.06 320.65 202.5 318.99C202.67 318.85 202.84 318.71 203.02 318.56C205.96 312.42 207.35 305.77 209.37 299.32C210.01 297.29 208.99 296.22 208.08 294.88C206.85 293.06 206.91 291.26 208.96 290.26C211.45 289.04 214.16 288.77 216.25 291.1C217.76 292.78 217.32 294.85 215.59 295.86C212.74 297.52 212.36 300.12 211.65 302.89C209.55 311.07 207.19 319.18 204.93 327.32L204.92 327.34Z" fill="#14081A"/>
<path d="M156.13 280.54C154.77 289.17 153.59 297.83 151.98 306.42C150.87 312.34 149.79 318.4 144.79 322.98C146.29 315.28 147.88 307.61 149.25 299.89C150.87 290.75 152.3 281.59 153.77 272.42C154.02 270.83 154.58 269.06 152.03 268.57C150.21 268.23 147.95 267.6 149.51 265.08C151.32 262.14 154.45 261.65 157.45 262.73C159.75 263.56 159.41 265.55 158.06 267.19C157.29 268.13 156.56 268.97 156.98 270.28C156.24 272.03 156.55 273.74 157.08 275.49C157.63 277.29 157.37 279.03 156.14 280.54H156.13Z" fill="#120817"/>
<path d="M196.97 177.77C197.08 178.37 197.19 178.97 197.3 179.56C189.3 192.08 179.2 202.93 169.68 214.24C168.76 215.33 167.43 216.88 165.93 215.64C164.05 214.08 166.33 213.06 167.09 212.13C175.89 201.5 185.13 191.21 192.93 179.78C193.92 178.33 194.94 177.07 196.97 177.77Z" fill="#120815"/>
<path d="M169.62 242.43C166.58 241.96 166.77 240.72 167.43 239.72C168.71 237.78 170.17 235.97 171.62 234.16C178.88 225.08 186.15 216.01 193.47 206.98C194.3 205.96 195.04 203.87 196.89 205.31C198.71 206.73 196.98 207.97 196.13 209.04C188.26 218.9 180.34 228.73 172.46 238.59C171.32 240.02 170.28 241.54 169.62 242.44V242.43Z" fill="#120913"/>
<path d="M172.06 329.41C179.66 327.54 186.22 323.4 193.04 319.82C195.38 318.59 197.64 317.21 200.02 316.1C202.52 314.93 203.39 316.08 203.01 318.57L203.08 318.49C202.33 320.36 200.72 321.04 198.92 321.47C191.67 324 185.48 328.53 178.79 332.12C177.62 332.75 176.57 333.59 175.37 334.14C173.48 335.01 171.26 336.68 169.67 334.09C168.24 331.75 170.81 330.77 172.05 329.42L172.06 329.41Z" fill="#140818"/>
<path d="M144.98 287.62C144.94 289.55 143.8 290.37 142.66 291C131.86 296.97 122.36 304.92 111.75 311.18C110.72 311.79 109.3 313.81 108.07 311.77C107.18 310.29 108.37 309.04 109.83 308.19C120.48 302 130.31 294.55 140.62 287.84C141.87 287.03 143.62 285.31 144.97 287.63L144.98 287.62Z" fill="#100916"/>
<path d="M180.62 260.72C186.45 266.6 192.3 272.47 198.11 278.37C199.1 279.38 201.02 280.56 199.85 281.98C198.33 283.84 196.91 281.84 195.75 280.85C193.12 278.6 190.61 276.22 188.05 273.89C181.88 268.57 177.38 261.62 171.01 256.5C170.16 255.82 169.6 254.88 170.4 253.97C171.27 252.97 172.24 253.75 172.99 254.36C175.56 256.45 178.09 258.6 180.63 260.72H180.62Z" fill="#120814"/>
<path d="M171.05 311.37C176.28 307.92 181.46 304.38 186.78 301.06C188.35 300.08 190.28 297.02 192.07 299.69C194.06 302.67 190.29 303.32 188.67 304.49C182.92 308.64 176.34 311.58 171.14 316.55C169.21 318.02 167.3 319.52 165.35 320.96C164.16 321.85 162.92 322.09 161.91 320.7C160.91 319.32 162.12 318.54 162.93 317.86C165.59 315.64 168.34 313.52 171.05 311.37Z" fill="#140A19"/>
<path d="M116.29 217.49C116.11 214.59 118.08 213.3 119.31 211.64C124.56 204.56 129.84 197.51 135.15 190.48C135.76 189.67 136.28 188.06 137.73 189.45C138.57 190.25 139.31 191.3 138.33 192.51C131.58 200.91 125.82 210.13 117.64 217.33C117.44 217.51 117 217.41 116.29 217.48V217.49Z" fill="#100A16"/>
<path d="M170.44 360.03C170.76 361.5 170.32 362.13 169.42 362.38C168.55 362.63 167.72 362.36 167.26 361.58C163.31 355.06 159.4 348.52 155.48 341.98C155.02 341.22 154.78 340.31 155.55 339.75C156.33 339.18 157.54 338.64 158.28 339.58C163.29 346.01 167.35 353.01 170.46 360.02L170.44 360.03Z" fill="#110712"/>
<path d="M151.52 148.57C150.05 149.07 148.58 149.57 147.11 150.07C144.39 151.59 141.38 152.25 138.41 153.04C136.5 152.93 132.56 156.49 133.85 150.54C134.47 149.16 135.4 148.04 136.65 147.19C138.02 146.27 140.09 146.79 141.08 145.06C141.53 144.36 141.95 143.64 142.3 142.89C143.48 140.86 141.74 138.59 142.83 136.55C143.21 136.26 143.64 136.13 144.11 136.15C147.57 136.85 148.74 138.88 147.65 142.23C146.7 145.16 147.61 146.14 150.45 144.71C151.78 144.04 153.12 143.7 153.85 145.16C154.95 147.37 152.96 147.87 151.52 148.57Z" fill="#F2A38C"/>
<path d="M119.77 286.36C119.08 286.4 118.3 286.34 118.25 285.54C118.22 284.99 118.52 284.22 118.95 283.86C125.64 278.2 132.57 272.84 140.08 268.28C140.78 267.86 141.58 267.41 142.23 268.37C142.78 269.18 142.58 270.16 141.95 270.62C134.73 275.84 127.92 281.65 120.25 286.25C120.12 286.33 119.93 286.33 119.77 286.36Z" fill="#120C19"/>
<path d="M151.52 148.57C152.39 147.7 154.27 147.21 153.39 145.56C152.44 143.77 151.2 144.98 150.13 145.74C149.12 146.46 148.03 146.85 146.93 145.98C145.86 145.13 145.69 143.91 146.4 142.86C148.63 139.56 146.01 138.22 144.02 136.59C144.85 133.23 146.49 130.45 149.63 128.73C151.34 127.79 152.28 126.27 152.73 124.41C154.12 123.36 154.8 123.86 154.98 125.44C155.15 126.87 155.84 128.42 154.18 129.47C153.35 130 152.45 130.42 151.61 130.95C148.84 132.7 146.44 134.49 148.67 138.38C149.67 140.12 148.97 142.17 147.97 144.12C154.6 143.09 161.13 144.56 167.38 142.46C162.1 144.5 156.81 146.53 151.52 148.57Z" fill="#613C3A"/>
<path d="M156.09 369.08C141.13 360.04 126.17 351.01 111.23 341.95C110.72 341.64 110.41 341.02 110.01 340.54C119.07 344.14 127.13 349.61 135.54 354.4C141.99 358.07 148.06 362.42 154.28 366.5C155.2 367.1 156.46 367.54 156.08 369.08H156.09Z" fill="#222222"/>
<path d="M175.97 145.6C181.41 148.88 186.94 152.05 192.26 155.51C194.38 156.89 196.59 158.79 194.04 161.76C188.03 156.96 181.41 152.95 175.9 147.52C175.49 147.11 173.07 146.1 175.97 145.6Z" fill="#110B14"/>
<path d="M196.95 230.88C196.52 231.39 196.14 231.9 195.71 232.36C191.45 236.97 187.19 241.59 182.91 246.18C182.27 246.87 181.52 247.97 180.47 247.2C179.63 246.58 179.57 245.18 180.21 244.46C184.71 239.38 189.25 234.33 193.96 229.45C195.39 227.97 196.14 229.69 196.95 230.87V230.88Z" fill="#120D16"/>
<path d="M178.04 165.29C178.04 167.35 177.16 167.8 175.82 167.08C170.76 164.34 165.72 161.54 160.7 158.72C159.95 158.3 159.53 157.57 159.8 156.64C160.08 155.68 160.84 155.24 161.69 155.62C167.11 158.03 172.52 160.46 177.38 163.93C177.83 164.25 177.93 165.06 178.04 165.3V165.29Z" fill="#100910"/>
<path d="M137.27 239.09C136.77 240.75 135.6 240.69 134.48 240.15C129.06 237.55 124.18 234.16 119.89 229.96C119.31 229.39 118.71 228.58 119.6 227.88C120.03 227.54 121.02 227.36 121.42 227.62C126.55 230.96 131.63 234.38 136.69 237.82C137.03 238.05 137.11 238.69 137.28 239.08L137.27 239.09Z" fill="#110A19"/>
<path d="M143 338.22C140.66 337.83 138.06 337.82 138.1 334.51C138.13 331.55 139.86 329.67 142.69 329.81C145.38 329.94 148.03 331.27 148.21 334.45C148.41 338.07 145.34 337.79 143.01 338.22H143Z" fill="#0D051A"/>
<path d="M176.32 279.49C176.96 281.65 181.44 283.09 179.2 285.1C176.86 287.2 175.57 282.29 173.05 281.82C170.38 277.98 164.32 276.92 163.84 270.5C169.53 271.99 172.17 276.82 176.32 279.49Z" fill="#0E0910"/>
<path d="M114.12 336.05C114.24 337.55 114 338.54 112.87 338.86C111.85 339.16 111.5 338.25 111.16 337.51C109.17 333.16 107.17 328.82 105.21 324.46C104.73 323.39 104.27 321.89 105.4 321.29C106.88 320.5 107.33 322.23 107.68 323.17C109.4 327.83 112.93 331.59 114.11 336.05H114.12Z" fill="#0B1016"/>
<path d="M103.03 177.49C100.23 177.64 97.9797 177.59 97.6497 175.43C97.2997 173.16 99.7297 172.93 101.36 172.25C104.24 171.05 106.87 171.7 109.38 173.22C109.64 173.38 109.81 174.22 109.64 174.45C107.75 176.93 104.92 177.2 103.03 177.48V177.49Z" fill="#100C19"/>
<path d="M154.77 240.08C156.8 240.54 160.01 239.63 159.8 242.1C159.5 245.62 155.72 245.77 152.89 246.28C150.67 246.68 149.29 245.26 149.37 243.2C149.52 239.26 153.05 241.1 154.77 240.08Z" fill="#180D23"/>
<path d="M164.06 293.38C166.26 293.89 170.05 292.76 169.79 296.21C169.57 299.17 166 298.47 163.63 298.51C162.49 298.53 161.35 298.26 160.21 298.12C159.26 297.23 156.46 296.82 159.52 294.96C160.95 294.09 162.38 293.46 164.05 293.38H164.06Z" fill="#120C1C"/>
<path d="M127.91 333.11C123.72 329.16 121.13 324.18 118.37 319.34C118.12 318.91 118.3 318.03 118.59 317.53C119.01 316.81 119.75 316.96 120.21 317.59C123.63 322.33 127.02 327.1 127.91 333.11Z" fill="#0D1319"/>
<path d="M133.21 154.72C127.84 156.46 122.46 158.16 116.76 158.49C114.3 156.9 111.34 156.34 108.93 154.67C110.15 150.42 113.07 151.86 115.6 152.85C117.48 153.59 119.16 154.89 120.73 152.48C121.12 152.21 121.55 152.07 122.03 152.04C123.69 152.67 124.73 156.02 127.32 152.73C128.32 151.46 130.57 153.31 132.25 153.73C132.68 153.95 133 154.29 133.23 154.71L133.21 154.72Z" fill="#453E37"/>
<path d="M134.87 214.46C137.03 214.88 139.91 214.65 139.74 217.49C139.59 220.03 136.88 219.68 134.96 219.59C133.12 219.5 130.32 220.13 130.21 217.51C130.09 214.74 132.91 214.81 134.87 214.47V214.46Z" fill="#100D1B"/>
<path d="M177.24 339.29C180.01 339.71 182.72 340.5 183.3 343.57C183.72 345.83 181.56 345.74 180.18 345.45C177.6 344.91 174.7 344.25 174.13 341.16C173.69 338.75 175.9 339.44 177.24 339.28V339.29Z" fill="#0F0910"/>
<path d="M156.13 280.54C156.08 277.09 155.8 273.63 156.97 270.28C156.68 272.82 157.71 274.62 159.94 275.87C162.09 277.08 163.93 279.14 162.69 281.39C161.53 283.5 159.7 280.75 158.07 280.68C157.42 280.65 156.77 280.58 156.13 280.53V280.54Z" fill="#42ACAB"/>
<path d="M129.02 165.66C130.98 165.95 133.15 166.28 133.07 168.93C133.01 171.03 131.27 171.75 129.51 171.29C127.62 170.8 124.57 171.19 124.69 168.21C124.77 166.14 127.07 165.79 129.03 165.65L129.02 165.66Z" fill="#141218"/>
<path d="M172.11 186.15C170.64 188.59 168.35 190.03 165.43 190.31C164.28 190.42 163.1 189.95 163.04 188.45C162.99 186.98 168.14 183.52 170.02 183.77C171.27 183.94 172.16 184.54 172.1 186.14L172.11 186.15Z" fill="#130C16"/>
<path d="M108.96 155.05C112.85 153.28 114.73 156.06 116.77 158.49C115.85 158.67 114.92 158.85 114 159.03C111.61 158.93 109.46 160.97 106.95 159.86C106.27 157.69 106.76 156.01 108.96 155.05Z" fill="#D4CDCB"/>
<path d="M176.04 382.95C174.47 382.09 172.89 381.23 171.32 380.38C168.41 378.12 165.5 375.86 162.59 373.6C165 372.83 166.06 375.37 167.98 375.79C170.19 378.71 174.72 379.02 176.04 382.95Z" fill="#2E2629"/>
<path d="M202.98 237.56C202.81 242.14 203.67 246.79 202.04 251.27C202.55 246.71 200.96 242.02 202.98 237.56Z" fill="#42ACAB"/>
<path d="M101.17 336.33C101.44 336.01 101.72 335.69 101.99 335.37C104.66 337.14 108.07 337.77 110.08 340.59C106.6 340.25 104.05 337.95 101.17 336.33Z" fill="#1B2020"/>
<path d="M138.02 152.65C141.05 151.79 144.08 150.93 147.11 150.07C144.63 152.7 141.28 153.04 137.98 153.49C137.69 153.29 137.6 153.1 137.71 152.92C137.82 152.74 137.92 152.66 138.02 152.66V152.65Z" fill="#2A3C34"/>
<path d="M198.93 321.47C200.32 320.48 201.7 319.48 203.09 318.49C203.12 320.78 202.29 322.79 201.12 324.7C201.06 323.17 201.05 321.6 198.93 321.47Z" fill="#42ACAB"/>
<path d="M138.02 152.65C137.99 152.93 137.98 153.21 137.98 153.49C136.58 154.66 134.9 154.69 133.21 154.72C133.08 154.57 132.96 154.4 132.86 154.23C131.81 151.82 131.77 150.02 135.21 150.31C135.29 151.27 133.8 152.14 134.75 152.99C135.76 153.91 136.88 152.44 138.02 152.65Z" fill="#613C3A"/>
<path d="M108.96 155.05C108.29 156.65 107.62 158.26 106.95 159.86C101.23 160.65 96.3301 157.78 91.9501 155.14C89.8001 153.84 89.4497 149.04 91.0097 145.62C91.3197 142.73 87.56 143.12 87.14 140.82C87.53 140.2 87.4899 139.26 86.9999 139.1C83.4899 137.93 81.9799 134.37 79.0199 132.58L79.0697 132.64C78.0897 129.18 81.03 126.55 81.06 123.31C81.34 122.76 81.6198 122.21 81.8998 121.66C82.3898 121.66 82.9798 121.84 83.3598 121.63C84.1898 121.17 83.8601 120.7 83.1801 120.31C81.5701 119.38 77.7101 120.59 78.6801 117.54C79.4001 115.26 82.9098 115.97 85.3398 116.44C85.8198 116.53 86.32 116.52 86.81 116.55C91.91 116.2 95.9401 118.79 99.7201 121.61C101.81 123.17 101.31 125.76 100.76 128.06C100.65 128.5 100.55 128.95 100.49 129.41C100.29 131.06 99.9601 132.75 101.72 133.88C102.22 134.31 102.62 134.82 102.94 135.4C104.14 139.24 108.03 140.06 110.68 142.28C113.18 144.42 113.8 147.16 113.57 150.19C116.25 149.49 119.23 148.86 120.81 152.68C121.26 154.29 121.01 155.89 119.45 156.53C118.19 157.04 117.69 155.24 116.75 154.76C114.17 153.44 111.36 150.88 108.95 155.08L108.96 155.05Z" fill="#F4867F"/>
<path d="M138.19 99.68C147.91 98.31 155.81 91.98 165.2 89.73C166.78 89.35 168.24 88.3502 169.98 88.8602C169.67 93.6302 166.15 96.0201 162.81 98.5401C160.55 100.01 158.83 101.5 160.81 104.56C162.18 106.67 161.1 108.61 159.62 110.44C158.42 111.94 156.57 113.04 156.29 115.2C155.78 116.3 154.7 116.63 153.74 117.12C152.34 117.84 152.51 119.38 151.95 120.54C151.23 122.04 150.5 123.88 148.5 123.58C146.86 123.34 146.4 121.64 146.06 120.14C145.84 119.16 145.98 118.16 145.72 116.81C143.83 118.65 141.88 118.41 139.97 117.1C137.43 115.37 136.01 112.52 132.93 111.09C131.04 110.21 131.98 107.18 133.33 105.29C134.77 103.26 136.91 101.84 138.2 99.68H138.19Z" fill="#F08582"/>
<path d="M100.33 110.72C104.62 110.28 108.84 108.17 113.24 110.56C114.07 111.01 115.87 110.87 115.96 109.34C116.05 107.84 114.33 108.96 113.48 108.15C115.24 106.99 117.02 106.23 119.14 106.51C126.73 106.34 131.94 110.5 134.71 117.68C135.9 120.76 134.87 121.47 132.61 122.39C131.22 122.95 130 123.83 128.97 124.93C127.47 126.53 128.22 130.85 126.68 130.33C123.04 129.1 118.81 129.21 115.72 126.43C114.6 125.42 113.5 124.37 111.78 125.06C108.84 125.09 108.95 122.85 108.68 120.9C108.38 118.77 108.21 117.22 105.17 118.74C102.38 120.13 100.63 117.48 99.2002 115.5C97.8802 113.68 97.6298 111.77 100.32 110.73L100.33 110.72Z" fill="#F08582"/>
<path d="M112.25 125.16C111.95 123.2 112.82 122.46 114.38 123.68C116.8 125.57 118.59 128.43 122.54 126.78C123.2 126.51 124.91 128.76 126.72 130.36C125.81 124.74 128.6 122.17 133.12 121.06C134.04 120.83 134.75 119.71 134.71 119.7C129.87 119.11 134.93 113.49 130.75 112.22C127.27 111.16 125.01 107.18 120.71 107.53C120.22 107.57 119.67 106.86 119.15 106.49C120.28 105.54 121.15 104.05 123.02 104.66C124.57 106.07 126.01 105.28 127.56 104.56C128.83 103.97 130.37 103.07 131.31 105.15C130.9 105.68 131.43 105.03 131.02 105.55C130.72 105.94 130.37 106.3 130.11 106.73C130.65 106.6 130.52 105.94 130.92 105.69C132.48 103.4 134.88 102.17 137.05 100.66C137.44 100.33 137.82 99.9899 138.21 99.6599C138.42 102.3 136.73 103.83 135.03 105.48C132.14 108.31 132.43 109.07 135.94 110.75C137.08 111.29 137.85 112.72 138.66 113.85C140.79 116.82 142.94 119.38 146.26 114.71C147.71 117.78 146.51 120.88 148.35 123.06C152.87 122.25 149.15 116.43 153.26 115.44C154.18 117.45 155.32 119.28 157.3 120.44C157.51 120.9 157.44 121.31 157.11 121.68C155.68 123.72 151.9 120.58 151.24 124.33C148.36 126.96 144.77 128.29 141.28 129.81C139.48 127.8 141.41 126.51 142.24 125.04C143.11 123.5 144.81 121.99 142.28 120.47C140.45 119.37 138.66 119.33 137.7 121.52C136.63 123.98 134.33 123.9 132.37 124.6C129.3 125.62 128.1 127.43 130.21 131.27C130.21 129.1 128.04 127.03 130.95 126.27C132.91 127.11 135.09 127.66 136.12 129.83C136.97 131.61 138.63 131.07 140.03 131.29C141.47 132.82 142.57 134.56 143.18 136.59C143.28 139.05 145.78 141.56 143.03 143.96C136.9 135.96 139.03 138.71 125.87 133.98C124.28 140.09 116.87 145.11 121.99 152.57C121.6 152.59 121.21 152.6 120.82 152.62C118.64 151.76 116.79 149.53 114.09 150.81C112.14 151.73 112.92 150.35 112.84 149.52C112.6 146.93 111.77 144.54 110.12 142.48C110.1 142.25 110.08 142.02 110.06 141.79C110.33 139.64 111.31 138.73 113.36 140.03C115.17 141.19 116.41 140.21 117.76 139.13C119.66 137.62 120.58 136.01 117.94 134.58C114.61 132.78 115.4 128.54 112.73 126.43C112.45 126.04 112.3 125.61 112.26 125.13L112.25 125.16Z" fill="#613C3A"/>
<path d="M112.25 125.16C112.31 125.32 112.42 125.44 112.58 125.51C115.82 130.74 114.58 135.69 109.42 138.25C108.06 137.27 105.84 138.59 104.85 136.57C104.98 134.51 106.84 134.67 108.1 134.09C109.6 133.4 110.45 132.28 110.55 130.66C110.62 129.45 110.38 128.26 108.99 127.91C107.82 127.61 106.88 128.42 106.74 129.37C106.22 132.83 103.4 133.5 100.86 134.56C97.0598 134.06 99.8201 131.26 99.1401 129.66C101.82 129.66 102.96 128.28 102.53 125.68C102.05 122.78 101.49 119.98 99.1899 117.74C97.6099 116.21 95.8498 114.45 96.8598 111.77C97.9698 111.27 98.97 110.39 100.33 110.7C97.03 114.14 100.69 115.74 102.41 117.43C106.03 120.99 105.78 114.37 108.51 115.05C110.59 117.96 108.39 122.7 112.25 125.15V125.16Z" fill="#543735"/>
<path d="M96.8599 111.79C97.5899 113.83 98.5402 115.79 100.22 117.16C103.87 120.14 103.57 124.34 103.53 128.27C103.49 132.11 101.58 132.25 99.1401 129.67C99.1401 129.28 99.1401 128.88 99.1401 128.49C102.08 124.66 101.8 123.32 98.0601 120.73C94.6401 118.35 90.56 117.51 86.96 115.58C89.77 113.05 93.5999 113.16 96.8599 111.79Z" fill="#E8A69E"/>
<path d="M162.16 97.6499C165.33 95.2199 168.54 92.8301 169.98 88.8601C170.33 87.8701 170.91 87.0799 171.89 86.6299C171.93 87.4599 172.35 88.64 171.96 89.05C166.78 94.58 171.06 99.5 173.3 105.49C170.37 103.99 168.16 102.86 165.95 101.73C166.16 100.95 166.95 100.41 166.89 99.4299C165.88 99.9499 165.97 101.06 165.44 101.78C165.1 102.14 164.76 102.5 164.42 102.86C163.63 102.7 163.34 102.08 163.07 101.43C162.91 100.14 161.6 99.1099 162.15 97.6399L162.16 97.6499Z" fill="#311917"/>
<path d="M86.96 115.58C92.04 115.81 96.1398 118.44 100.03 121.26C103.41 123.71 102.95 126.19 99.1401 128.5C101.4 124.73 100 122.28 96.3101 120.66C93.1501 119.28 89.9798 117.91 86.8198 116.54C86.9598 116.23 87.0102 115.92 86.9702 115.58H86.96Z" fill="#693734"/>
<path d="M137.03 100.68C135.26 102.58 134.11 105.25 131.04 105.54L131.1 105.6C129.86 103.33 128.64 104.57 127.32 105.55C125.62 106.81 123.91 107.59 123.01 104.68C127.68 103.35 132.36 102.02 137.04 100.68H137.03Z" fill="#F08582"/>
<path d="M138.54 58.6599C145.7 56.2399 152.85 53.8199 160.01 51.3999C160.14 51.7599 160.27 52.12 160.39 52.48C153.22 54.93 146.06 57.3701 138.89 59.8201C138.77 59.4301 138.65 59.0399 138.53 58.6499L138.54 58.6599Z" fill="#688194"/>
<path d="M184.87 80.2C185.01 81.9 185.14 83.6001 185.32 85.8101C183.26 84.6901 180.69 85.65 180.21 82.74C181.76 81.89 183.32 81.04 184.87 80.2Z" fill="#B46B61"/>
<path d="M131.02 61.24C126.45 63.65 121.95 66.0501 116.68 65.8401C121.46 64.3101 126.24 62.77 131.02 61.24Z" fill="#688194"/>
<path d="M71.3599 65.3601C66.8199 67.6501 62.0902 69.1699 56.9502 68.8799C61.7502 67.7099 66.5599 66.5301 71.3599 65.3601Z" fill="#708A9C"/>
<path d="M123.42 35.4399C120.13 37.7499 116.62 39.3499 112.52 38.9099C116.15 37.7499 119.79 36.5999 123.42 35.4399Z" fill="#6D8798"/>
<path d="M64.5801 106.17C67.9901 104.88 71.3802 103.45 75.1602 103.87C71.7202 105.04 68.3701 106.6 64.5801 106.17Z" fill="#738DA2"/>
<path d="M124.52 90.2801C121.77 91.1301 119.03 91.9801 116.28 92.8401C118.6 90.8401 121.17 89.6601 124.52 90.2801Z" fill="#6B8398"/>
<path d="M60.23 82.0902C57.78 82.2402 55.5998 84.47 52.0898 82.96C55.3098 82.57 57.51 80.9702 60.23 82.0902Z" fill="#7893A7"/>
<path d="M76.5298 89.9699C80.2398 89.6799 82.5601 87.8099 86.6201 89.2199C82.8201 89.4399 80.4998 91.3399 76.5298 89.9699Z" fill="#728C9C"/>
<path d="M168.62 35.4399C166.4 36.2099 164.18 36.97 161.95 37.74C163.72 35.67 166 34.9799 168.62 35.4399Z" fill="#6F8B9C"/>
<path d="M67.96 93.3401C63.97 93.3301 61.6001 95.2601 58.8101 94.0801C61.4101 93.8401 63.74 91.7001 67.96 93.3401Z" fill="#728EA3"/>
<path d="M52.04 56.54C49.63 58.34 46.8998 58.7 44.0098 58.25C46.6298 57.32 49.1798 56.0701 52.0898 56.6101L52.04 56.54Z" fill="#628098"/>
<path d="M52.1001 56.6102C54.4701 54.9602 57.17 54.6802 59.96 54.8502C57.46 56.0402 54.9198 57.0201 52.0498 56.5501L52.1001 56.6202V56.6102Z" fill="#657F95"/>
<path d="M223.03 324.29C228 322.62 232.96 320.96 237.93 319.3C235.15 322.99 231.03 324.12 227.25 325.81C223.31 327.57 219.25 329.03 215.34 330.84C213.12 331.86 211.55 331.56 210.32 329.48C210.42 326.77 212.7 327.82 214.07 327.34C217.05 326.3 220.04 325.31 223.03 324.3V324.29Z" fill="#130D17"/>
<path d="M237.97 301.1C238.71 301.42 239.48 301.68 240.18 302.06C241.17 302.61 242.38 303.22 241.99 304.59C241.55 306.12 240.06 305.64 239.09 305.46C236.71 305.04 234.37 304.35 232.02 303.77C230.59 303.35 229.14 302.96 227.73 302.49C226.5 302.08 224.84 301.75 225.43 299.95C225.93 298.43 227.5 298.32 228.83 298.64C231.9 299.37 234.93 300.26 237.97 301.09V301.1Z" fill="#150B1C"/>
<path d="M231.07 222.73C229.56 222.73 228.5 222.81 227.93 221.79C227.27 220.61 228.26 220.04 228.95 219.37C231.26 217.09 233.99 215.73 237.25 215.4C238.47 215.28 239.78 214.18 240.48 216.2C241.07 217.92 240.46 219.26 238.96 219.9C236.24 221.05 233.41 221.92 231.08 222.74L231.07 222.73Z" fill="#160C19"/>
<path d="M219.09 248.05C218.47 251.21 216.3 253.09 213.67 254.59C214.95 251.98 216.82 249.85 219.09 248.05Z" fill="#22141B"/>
<path d="M144.96 423.74C148.19 426 151.64 428.01 154.6 430.58C157.16 432.8 157.87 429.34 159.63 429.49C156.82 434.25 153.74 438.73 148.15 440.62L148.11 440.52C147.4 438.15 149.39 437.35 150.72 436.35C153.52 434.23 153.18 432.45 150.5 430.59C147.66 428.62 144.62 426.99 141.75 425.06C139.96 423.86 138.29 422.58 137.01 420.84C124.14 411.83 111.26 402.83 98.4102 393.79C97.1402 392.89 95.3101 392.45 95.0801 390.47C103.18 394.32 109.99 400.16 117.32 405.18C126.48 411.45 135.38 418.1 144.96 423.76V423.74Z" fill="#1D2123"/>
<path d="M121.1 383.66C120.82 381.72 121.21 380.04 123.15 379.61C124.88 379.22 130.35 384.97 130.6 386.87C130.99 389.87 128.68 388.57 127.69 388.57C124.36 388.55 120.85 388.39 121.1 383.67V383.66Z" fill="#4C363D"/>
<path d="M160.03 392.31C165.71 395.11 168.59 400.19 167.04 404.69C162.23 403.54 158.69 397.28 160.03 392.31Z" fill="#533336"/>
<path d="M130.18 402.91C131.41 405.54 130.74 406.54 128.04 406.65C123.93 406.81 123.06 404 122.64 400.9C122.38 398.98 123.92 398.24 125.45 397.68C126.05 400.28 132.82 397.81 130.17 402.92L130.18 402.91Z" fill="#684043"/>
<path d="M141.8 365.18C144.57 364.94 147.45 364.34 149.46 367.07C150.1 367.94 151.03 369.49 149.02 369.26C145.52 368.86 142.09 370.53 138.54 369.09C137.07 368.5 134.96 368.79 135.24 366.61C135.52 364.4 137.67 366.01 138.9 365.52C139.77 365.17 140.83 365.27 141.8 365.17V365.18Z" fill="#61484B"/>
<path d="M115.99 358.26C119.44 361.2 122.68 363.81 125.7 366.66C126.37 367.29 126.74 368.96 126.4 369.79C125.79 371.25 124.57 370.27 123.49 369.89C119.8 368.58 116.13 363.25 115.99 358.26Z" fill="#44333B"/>
<path d="M110.24 374.55C107.34 374.26 104.36 370.7 104.75 368.15C104.99 366.6 105.79 366.42 107.14 366.59C108.91 366.81 114.46 371.77 113.96 373.01C113.33 374.59 111.85 374.93 110.23 374.55H110.24Z" fill="#653C43"/>
<path d="M94.8101 364.93C95.8501 366.5 94.8101 368.53 93.5401 369.46C92.2901 370.38 87.8503 365.78 87.9303 363.88C88.0103 361.93 88.8399 360.39 90.7999 359.97C92.1099 359.69 94.8499 362.95 94.7999 364.93H94.8101Z" fill="#764E4E"/>
<path d="M149.24 386.8C146.34 389.74 143.61 388.81 141.48 386.03C140.32 384.51 140.05 382.34 139.18 380.55C138.5 379.15 137.62 377.69 139.36 376.7C141.34 375.57 142.32 377.11 143.1 378.68C144.27 382.05 146.29 384.78 149.24 386.8Z" fill="#8E6264"/>
<path d="M169.95 381.9C170.6 383.29 171.7 384.65 170.55 386C167.7 383.27 164.78 385.53 162.06 385.5C161.12 384.62 159.88 383.9 159.31 382.82C158.41 381.12 160.24 379.21 161.04 379.83C163.83 381.98 167.55 379.1 169.95 381.91V381.9Z" fill="#6C3A3D"/>
<path d="M107.48 385.92C109.31 384.24 104.92 381.22 108.47 380.74C110.85 380.41 114.49 381.32 114.68 384.46C114.84 387.25 111.52 388.81 109.28 389.4C107.05 389.98 108.11 387.08 107.49 385.93L107.48 385.92Z" fill="#74474D"/>
<path d="M97.0898 381.97C96.5598 382.55 95.9698 383.3 95.2798 383.93C92.0698 386.86 91.4599 382.9 89.9599 381.75C88.1899 380.4 87.8601 378.54 89.8901 376.9C90.1301 376.71 90.4998 376.64 90.8198 376.59C94.2998 376.03 91.0601 379.54 92.8701 379.99C93.5901 380.17 95.3101 376.25 94.9301 380.29C94.6501 383.21 98.0698 379.37 97.0898 381.97Z" fill="#65363A"/>
<path d="M101.14 349.47C102.57 350.33 103.5 350.96 104.49 351.48C105.5 352 105.88 353.42 107.25 353.39C108.83 352.93 106.6 350.53 108.73 350.44C109.41 350.41 109.94 350.82 109.41 351.68C108.71 352.82 111.21 354.89 108.33 355.43C107.72 355.55 107.12 355.78 106.52 355.96C107.17 356.24 107.81 356.51 108.61 356.86C104.31 357.63 101.12 354.6 101.13 349.48L101.14 349.47Z" fill="#5C3031"/>
<path d="M150.98 415.87C151.46 418.81 148.9 419.73 147.36 421.33C143.98 420.59 145.47 417.22 144.33 415.25C143.95 414.6 146.8 413.28 147.84 412.53C150.21 410.81 148.85 415.56 150.98 415.87Z" fill="#5B393B"/>
<path d="M149.24 386.8C144.61 386.05 142.15 383.65 143.1 378.68C147 379.39 150.2 383.63 149.24 386.8Z" fill="#48292D"/>
<path d="M145.33 400.29C149 399.95 147.65 404.36 150.04 405.33C150.37 405.46 149.93 406.85 149.22 406.68C146.71 406.09 143.35 406.02 141.95 404.37C138.94 400.8 144.87 402.86 144.86 400.75C145.02 400.6 145.18 400.44 145.33 400.29Z" fill="#7C464A"/>
<path d="M162.05 409.33C163.56 410.7 164 412.29 162.8 414.05C162.25 414.85 161.53 415.74 160.36 415.25C158.77 414.59 157.46 413.64 158.03 411.56C157.7 407.81 159.5 407.89 162.05 409.33Z" fill="#6D3C3E"/>
<path d="M95.1299 390.5C90.6199 388.96 87.0798 386.08 84.0898 382.46C88.3198 384.39 92.0199 387.05 95.1299 390.5Z" fill="#1D2123"/>
<path d="M144.86 400.75C143.88 400.12 141.52 401.73 141.9 398.92C142.02 398.05 142.37 397.41 143.37 397.31C145.95 397.05 145.02 399.07 145.33 400.29C145.16 400.43 145.01 400.59 144.86 400.75Z" fill="#7C464A"/>
<path d="M137 420.84C141.61 423.69 146.28 426.45 150.83 429.4C155.9 432.68 155.89 434.12 151.08 437.55C149.92 438.38 148.3 438.74 148.1 440.53C146.61 440.08 145.52 441.07 144.43 441.71C130.79 449.68 115.53 450.91 100.32 452.44C98.1897 452.65 96.48 452.11 95.08 450.51L95.1 450.54C93.93 448.26 91.9899 446.31 92.0599 443.5C92.7199 443.55 93.4997 443.39 94.0097 443.69C100.19 447.32 105.23 446.39 110.94 441.73C114.07 439.18 119.54 439.48 123.95 438.49C126.56 438.36 128.43 440.23 130.76 440.99C130.24 438.22 126.21 438.52 126 435.54C134.21 434.11 136.25 431.4 136.99 420.84H137Z" fill="#2EA0A1"/>
<path d="M99.6099 402.31C88.9499 403.02 78.8498 398.99 67.8398 397.98C71.3798 394.74 91.1999 397.33 99.6099 402.31Z" fill="#0F0C11"/>
<path d="M113.1 438.51C110.12 439.66 108.05 439.66 109.53 435.53C110.61 432.5 109.81 429.39 110.07 426.33C110.15 425.37 109.95 424.19 111.19 423.94C112.35 423.7 112.9 424.64 113.3 425.59C113.59 429.9 113.96 434.21 113.09 438.51H113.1Z" fill="#120A0F"/>
<path d="M92.0698 443.49C92.6998 446 95.0899 447.75 95.1099 450.53C89.5999 443.23 84.6999 435.45 77.6699 429.39C75.9899 427.95 73.7401 426.91 73.0801 424.48C79.5801 428.04 83.9699 433.82 88.6499 439.29C89.8199 440.66 90.9301 442.09 92.0601 443.5L92.0698 443.49Z" fill="#2D181F"/>
<path d="M93.8302 421.52C93.9402 418.74 94.39 416.66 95.38 414.72C96.25 413.02 97.73 412.93 99.17 413.61C100.7 414.32 99.8302 415.52 99.3902 416.54C98.6802 418.2 97.9398 419.85 97.2598 421.53C96.7898 422.68 96.8599 424.54 95.0499 424.21C93.3299 423.89 93.8299 422.18 93.8199 421.52H93.8302Z" fill="#100910"/>
<path d="M126.01 435.54C129.37 437.19 132.55 439.04 134.26 443.61C130.08 442.32 126.8 440.87 123.95 438.49C123.92 437.01 124.45 435.92 126.01 435.54Z" fill="#11141D"/>
<path d="M75.9397 387.63C76.0497 389.19 75.1499 389.67 74.0999 389.39C71.7999 388.78 69.0499 388.68 68.0799 385.89C67.7399 384.92 68.3098 383.66 69.5398 383.9C72.0998 384.4 74.71 385.05 75.93 387.63H75.9397Z" fill="#0B151B"/>
<path d="M81.0801 412C80.6001 413.98 79.2002 415.17 76.9702 415.11C75.6802 415.08 74.7198 414.28 75.0498 412.89C75.5498 410.77 77 409.58 79.23 409.54C80.71 409.52 81.1701 410.46 81.0801 412Z" fill="#0D131A"/>
<path d="M73.1201 424.51C66.9101 421.47 61.3601 417.37 55.6201 413.58C62.5401 415.49 68.1301 419.52 73.1201 424.51Z" fill="#231920"/>
<path d="M123.84 418.08C125.43 419.19 127.24 420.27 127.69 422.35C127.91 423.36 126.73 423.73 125.95 423.42C124.03 422.65 122.49 421.39 122.42 419.1C122.4 418.38 123 417.99 123.84 418.09V418.08Z" fill="#0C1D1D"/>
<path d="M114.28 416.76C110.98 416.31 108.8 415.82 108.13 413.1C107.99 412.52 108.24 411.62 109.11 411.73C111.7 412.06 112.98 413.86 114.28 416.76Z" fill="#0B1214"/>
<path d="M51.1099 411.05C46.9299 408.96 42.4802 407.4 38.6602 404.62C43.4802 405.46 47.9499 406.98 51.1099 411.05Z" fill="#251E25"/>
<path d="M113.1 438.51C113.17 434.2 113.24 429.9 113.31 425.59C114.47 429.92 114.87 434.23 113.1 438.51Z" fill="#2EA0A1"/>
<path d="M206.07 353.52C205.74 353.5 205.39 353.56 205.09 353.46C202.54 352.62 198.26 352.7 198.65 349.53C198.93 347.24 202.76 349.07 205.01 349.27C205.5 349.31 206 349.35 206.49 349.44C207.83 349.67 209.91 349.05 209.8 351.31C209.7 353.51 207.81 353.59 206.08 353.52H206.07Z" fill="#100B16"/>
<path d="M170.15 108.38C173.62 109.05 173.09 111.82 173.16 114.47C175.12 113.71 174.78 112.36 174.61 110.88C174.31 108.3 176.78 109 178.02 108.22C179.73 107.15 180.03 108.3 180.1 109.57C180.26 112.29 183.27 110.82 184.18 112.4C184.79 114.26 183.42 115.13 182.32 116.13C179.57 118.41 176.57 120.4 175.66 124.3C175.05 126.95 172.2 126.84 170.35 127C167.88 127.21 166.24 125.34 165.64 122.99C165.48 124.29 165.98 126.5 163.32 125.78C160.95 125.13 159 123.79 159.62 120.81C159.9 119.46 160.9 118.49 161.84 117.56C164.1 115.33 166.25 113.06 167.12 109.86C167.36 108.97 167.89 107.94 169.24 108.45C169.54 108.49 169.84 108.47 170.14 108.38H170.15Z" fill="#F0928A"/>
<path d="M169.25 108.45C167.37 112.26 166.08 116.37 162.36 119.08C161.18 119.94 158.72 121.1 160.7 123.4C161.67 124.53 163.21 126.02 164.47 125.26C166.82 123.84 164.01 121.93 164.13 119.86C166.4 123.36 167.94 127.41 173.16 125.66C174.01 125.38 175.19 124.95 174.9 124.32C172.7 119.47 179.92 119.68 179.47 115.78C179.46 115.68 181.23 115.37 182.17 115.16C183.47 115.57 183.63 116.77 182.97 117.44C180.07 120.38 178.47 124.08 176.54 127.61C176.08 128.45 175.16 128.99 174.04 128.6C173.76 128.07 173.49 127.53 173.21 127C168.47 130.24 164.76 125.78 160.52 125.3C158.44 125.06 159.61 121.59 157.08 121.7C157.08 121.37 157.08 121.04 157.08 120.72C157.65 118.41 159.85 117.56 161.36 116.14C164.43 113.25 166.22 109.98 165.57 105.66C165.62 105.18 165.83 104.79 166.2 104.48C168.34 104.95 169.07 106.48 169.24 108.45H169.25Z" fill="#3B2525"/>
<path d="M166.21 104.47C166.16 104.83 166.11 105.18 166.07 105.54C163.84 107.23 162.46 109.57 160.96 111.88C159.79 113.68 158.66 116.02 155.7 114.96C155.03 114.54 153.89 114.21 153.78 113.68C153.45 112.08 154.68 113.19 155.24 113.03C158.01 112.23 160.26 106.77 158.9 104.11C157.03 100.44 159.66 99.0999 162.15 97.6599C162.65 98.7499 164.78 98.9701 163.83 100.83C163.28 101.09 162.62 101.4 162.68 102.05C162.77 102.98 163.69 103.01 164.39 103.22C164.99 103.64 165.6 104.06 166.2 104.48L166.21 104.47Z" fill="#5C4A4A"/>
<path d="M165.44 101.79C165.38 101.3 165.27 100.82 165.26 100.33C165.23 98.9902 164.13 97.14 166.33 96.69C168.04 96.34 168.36 98.1101 168.75 99.2601C169.72 102.1 167.39 101.47 165.95 101.75L165.68 101.68L165.43 101.8L165.44 101.79Z" fill="#DCA7A6"/>
<path d="M164.4 103.21C163.11 104.24 161.78 104.48 160.56 103.17C159.86 102.42 160.34 101.67 160.9 101.05C161.79 100.08 162.7 98.94 163.84 100.81C164.03 101.49 164.23 102.17 164.42 102.86L164.4 103.21Z" fill="#E7EDF2"/>
<path d="M174.05 128.6C175.59 128.27 175.94 126.95 176.42 125.74C177.67 122.63 178.15 119.04 181.94 117.55C182.59 117.29 183.44 116.1 182.18 115.16C182.85 114.24 183.52 113.32 184.19 112.41C191.64 114.6 193.06 116.42 193.87 123.77C194.27 127.4 189.78 128.02 189.74 131.24C186.86 132.85 183.99 134.46 181.11 136.08C180.02 137.6 178.36 137.54 177.28 136.61C175.36 134.96 178.71 133.96 178.04 132.45C178.66 131.85 177.25 132.1 177.89 132.31C178.18 132.4 178.02 132.48 177.84 132.79C177.15 134.01 176.14 134.45 174.99 133.72C172.87 132.38 173.42 130.43 174.08 128.52L174.05 128.6Z" fill="#E56271"/>
<path d="M79.02 132.58C80.73 132.1 82.3701 133.02 82.5601 134.29C82.9101 136.66 84.3501 137.02 86.1401 137.42C88.4401 137.93 89.3501 138.94 87.1401 140.82C84.2401 138.27 80.35 136.69 79.02 132.58Z" fill="#4D2526"/>
<path d="M89.2 152.07C89.06 153.48 89.2097 154.85 87.3997 154.51C86.1297 154.28 85.22 153.45 85.49 152.16C85.71 151.13 86.1297 149.81 87.6097 149.82C89.3497 149.84 88.95 151.31 89.2 152.06V152.07Z" fill="#E8CBD1"/>
<path d="M78.0697 128.69C77.9997 130.04 78.3599 131.71 76.2899 131.42C74.4499 131.17 75.2298 129.34 74.9398 128.27C74.6498 127.2 75.3798 125.72 76.6298 125.77C78.4898 125.84 77.9797 127.58 78.0697 128.69Z" fill="#E3DBDD"/>
<path d="M174.08 128.51C174.13 130.22 173.26 132.81 175.64 133.04C178.91 133.36 176.48 129.99 177.75 128.49C180.14 130.07 178.95 132.47 179 134.25C179.05 136.26 178.57 136.27 181.11 136.07C179.21 138.69 176.46 138.8 173.6 138.59C171.01 139.11 170.61 137.13 170.39 135.45C170.21 134.07 168.64 131.67 172.33 131.91C173.53 131.99 172.2 129.05 174.08 128.52V128.51Z" fill="#482928"/>
<path d="M140.99 130.04C143.76 126.99 147.23 125.19 151.23 124.34C151.73 124.37 152.23 124.39 152.73 124.42C153.4 125.67 154.77 127.13 152.76 128.14C149.16 129.96 146.08 132.07 145.43 136.44C145.41 136.56 144.51 136.55 144.03 136.59L143.6 136.55L143.17 136.6C140.87 135.64 139.46 134.17 140.26 131.45C140.24 130.84 140.49 130.37 140.99 130.03V130.04Z" fill="#EEC1B6"/>
<path d="M121.97 152.6C118.09 148.63 118.05 145.06 121.89 139.03C122.42 138.2 123.06 137.41 123.77 136.73C125.64 134.93 121.7 132.87 123.88 131.42C126.17 129.9 125.98 134.62 128.56 133.6C130.67 132.77 132.34 134.16 133.95 135.42C134.59 135.92 135.41 136.48 136.16 136.5C141.11 136.62 142.39 139.98 143 144C142.7 144.38 142.4 144.76 142.1 145.15C141.39 147.52 139.44 146.86 138.06 146.43C135.78 145.72 138.17 148.01 137.02 147.82C136.41 148.66 135.8 149.5 135.19 150.34C132.47 150.48 133.09 152.63 132.84 154.25C131.85 154.28 130.72 154.63 129.89 154.27C128.41 153.63 127.77 152.36 126.76 155.25C125.98 157.49 122.5 155.83 121.95 152.62L121.97 152.6Z" fill="#F4867F"/>
<path d="M137.04 147.8C136.82 146.84 135.55 145.37 137.88 145.5C139.34 145.59 140.78 146.25 142.12 145.13C142.18 149.36 138.69 146.82 137.04 147.79V147.8Z" fill="#613C3A"/>
<path d="M100.85 134.56C100.75 133.96 100.37 132.82 101.02 132.88C104.44 133.2 105.18 131.54 105.23 128.48C105.27 126.17 107.69 125.82 109.34 125.94C111.02 126.06 112.05 127.58 112.17 129.46C112.47 134.13 109.05 135.43 105.64 136.77C104.04 137.7 102.97 136.92 102.06 135.66C101.66 135.29 101.25 134.93 100.85 134.56Z" fill="#ECAAA7"/>
<path d="M102.07 135.66C103.26 136.03 104.45 136.4 105.65 136.77C106.45 136.94 107.24 137.11 108.03 137.27C109.28 138.72 110.2 140.3 110.2 142.29L110.11 142.51C106.75 141.03 102.71 140.34 102.07 135.66Z" fill="#613C3A"/>
<path d="M92.3198 137.04C94.9298 137.23 96.9799 139.79 99.9199 137.99C97.2599 141.84 94.6998 141.45 92.3198 137.04Z" fill="#563231"/>
<path d="M155.71 114.96C159.3 114.33 160.52 111.31 161.53 108.54C162.42 106.13 163.54 105.02 166.07 105.54C169.24 111.55 164.06 114.42 161.19 118.04C160.23 119.25 158.48 119.84 157.09 120.71C152.6 121.3 152.98 118.34 153.24 115.45C154.06 115.29 154.88 115.12 155.7 114.96H155.71Z" fill="#E8E1DF"/>
<path d="M151.79 98.0101C152.74 96.0801 154.21 95.5801 155.97 95.4701C157.06 95.4001 157.97 95.5602 158.47 96.5802C158.65 96.9502 158.75 97.66 158.54 97.88C157.44 99.02 156.88 97.8401 156.23 97.2101C154.33 95.3501 153.69 98.8301 151.79 98.0201V98.0101Z" fill="#5D372E"/>
<path d="M140.99 130.04C141.06 130.68 140.9 131.19 140.26 131.46C138.18 132.33 135.47 135.84 135.04 130.09C134.87 127.82 130.82 129.59 131.07 126.61C130.42 125.26 131.61 124.53 132.09 123.55C134.74 123.57 136.01 122.31 137.19 119.8C139.32 115.3 142.28 119.28 144.54 120.06C147.6 121.12 144.92 122.87 144.29 124.24C143.36 126.26 140.86 127.41 140.99 130.05V130.04Z" fill="#F2B9AD"/>
<path d="M110.19 142.3C108.65 140.98 107.77 139.37 108.02 137.28C112.49 137.98 112.21 134.07 113 131.7C113.62 129.83 113.48 127.53 112.57 125.52C113.9 125.52 115.24 126.37 115.27 127.35C115.38 131.36 117.55 133.53 120.95 135.01C121.62 135.3 122.21 136.41 121.56 137.14C120.26 138.6 118.7 139.83 117.32 141.23C115.46 143.12 114.38 142.7 112.65 140.69C110.85 138.61 111.42 142.3 110.18 142.3H110.19Z" fill="#ECAAA7"/>
<path d="M132.07 123.55C131.73 124.57 131.39 125.59 131.05 126.61C129.72 127.78 129.72 128.79 131.46 129.51C132.66 130 134.38 130.31 132.92 132.09C131.9 133.33 130.45 132.79 129.36 132.06C127.39 130.74 127.78 125.89 129.88 124.64C130.58 124.23 131.33 123.91 132.06 123.55H132.07Z" fill="#CAA59F"/>
<path d="M117.59 145.53C117.32 146.93 116.62 147.97 115.49 148.2C113.87 148.52 113.66 146.9 113.63 145.95C113.6 144.82 114.33 143.78 115.77 143.76C117.09 143.75 117.21 144.82 117.58 145.52L117.59 145.53Z" fill="#E4A796"/>
<path d="M120.95 131.43C120.73 132.35 120.14 132.56 119.47 132.22C118.43 131.7 117.37 131.03 117.43 129.69C117.48 128.52 118.53 128.5 119.27 128.76C120.48 129.19 120.91 130.28 120.95 131.43Z" fill="#DFA49D"/>
<path d="M131.04 105.54V109.98C129.31 109.77 128.2 109.09 128.21 107.53C128.23 105.68 129.82 105.78 131.1 105.6L131.04 105.54Z" fill="#F08582"/>
<path d="M108.48 122.86C108.81 124.5 107.48 124.94 106.47 125.03C104.74 125.18 104.55 123.53 104.33 122.34C104.12 121.18 104.47 119.86 105.92 119.82C107.84 119.76 107.99 121.53 108.48 122.86Z" fill="#DCD8DD"/>
<path d="M148.2 437.17C144.5 438.05 141.59 437.52 138.79 435.98C137.68 435.37 136.95 434.58 137.29 433.22C137.7 431.62 138.87 431.34 140.33 431.41C144.13 431.6 145.72 434.55 148.19 437.17H148.2Z" fill="#0E0D18"/>
<path d="M173.01 133.58C174.01 133.98 175.39 134.07 175.44 135.51C175.47 136.33 174.86 137.1 173.97 137.31C172.37 137.69 171.93 136.63 171.82 135.35C171.75 134.49 171.85 133.68 173 133.58H173.01Z" fill="#D6989E"/>
</svg>
