<svg width="912" height="1890" viewBox="0 0 912 1890" fill="none" xmlns="http://www.w3.org/2000/svg">
<g clip-path="url(#clip0_80_7184)">
<path d="M649.079 2.63138C668.539 2.70764 687.962 1.73507 707.416 1.49868C769.102 0.748765 831.213 -0.209435 892.883 1.59868C898.8 2.40436 904.825 2.73814 908.585 8.04962C912.646 13.7862 910.729 26.1035 910.518 32.7926C910.234 46.6993 912.186 88.8421 909.311 99.8032C906.478 125.464 908.075 152.484 903.243 177.72C902.539 187.605 903.487 194.608 904.646 204.251C901.953 211.133 901.123 213.8 902.469 221.101C902.659 222.129 902.796 223.166 902.949 224.199C902.197 225.003 900.114 226.722 899.739 227.628C897.872 232.129 900.944 255.991 898.36 261.167C896.232 265.431 895.554 262.315 895.519 269.379C895.469 279.725 898.001 306.362 896.312 314.151C895.874 316.173 893.273 319.315 892.084 320.896C890.922 326.481 896.809 335.041 896.02 338.666C895.066 343.052 890.11 341.237 892.016 348.313C893.785 346.912 894.811 345.322 896.064 343.464C896.143 347.695 893.332 351.137 891.574 354.987C893.238 356.457 893.358 356.07 895.467 356.117L895.441 357.494L891.994 358.708C890.648 365.089 885.619 406.232 887.794 410.012C888.009 410.389 889.059 411.269 889.417 411.585C887.87 414.927 884.728 419.814 885.356 423.525L888.044 423.638C888.086 427.318 883.582 434.545 885.072 436.869L886.785 436.85C887.739 442.811 884.38 476.75 883.373 484.616L884.373 486.169L887.541 485.407C886.752 488.121 882.412 492.322 883.491 494.429L885.778 494.622C886.184 499.37 880.961 501.52 881.804 506.427C882.848 512.499 883.116 516.697 881.628 522.765C880.416 527.708 878.992 532.918 878.545 537.988C877.946 544.831 879.277 551.801 878.852 558.757C878.284 568.11 873.538 589.632 875.429 597.124C876.957 598.863 877.632 598.917 877.671 601.368C877.671 601.427 877.628 601.477 877.608 601.532L874.721 601.32C873.828 604.384 872.806 607.124 873.249 610.358L874.009 611.478C875.506 613.717 877.689 616.171 876.961 619.014C873.639 631.984 871.92 626.088 875.647 640.101C878.848 652.126 869.124 667.246 871.625 679.501L873.242 678.843L874.144 675.418L874.976 675.782C874.185 679.227 873.334 682.506 872.157 685.841C871.137 688.735 870.926 690.702 871.022 693.75L872.131 694.97L874.926 695.042C874.347 700.012 867.431 706.195 869.159 710.308L872.312 711.151C875.911 720.716 864.19 736.407 870.514 748.381C869.015 754.327 865.479 761.761 868.693 767.366C868.983 767.872 869.299 768.36 869.601 768.857C866.656 802.426 865.85 835.512 864.967 869.134C864.532 885.721 862.808 902.261 862.065 918.833C861.603 929.153 862.233 939.5 861.924 949.831C861.834 952.79 858.442 953.831 859.595 956.431L862.802 957.202C863.725 963.877 855.9 981.924 859.488 986.159L861.649 986.072C862.222 989.137 860.292 991.73 858.917 994.358C859.041 999.055 862.25 1002.7 861.475 1007.5C861.089 1007.77 860.699 1008.03 860.318 1008.3C859.2 1009.08 858.257 1009.85 857.268 1010.78L857.828 1012.28L860.627 1011.99L861.375 1013.97L858.586 1016.93C859.802 1018.71 860.582 1019.45 862.229 1020.75C861.065 1025.37 857.074 1025.25 858.599 1031.7L859.627 1032.07L861.871 1030.38L861.749 1032.69C860.063 1034.04 859.359 1034.25 857.335 1034.79L857.144 1036.82L859.743 1038.13C859.017 1042.27 857.418 1045.86 858.562 1049.92L860.867 1052.21C858.745 1055.07 857.126 1056.07 858.006 1059.92C858.324 1061.3 859.268 1062.83 859.863 1064.13C860.592 1065.72 860.362 1065.04 860.547 1066.93L859.392 1068.22C863.357 1079.93 861.871 1107.45 862.569 1121.4C862.876 1127.53 861.34 1134.72 860.039 1140.71C858.584 1147.43 862.843 1151.3 863.464 1157.39C864.174 1164.4 858.444 1165.65 861.961 1173.7C865.551 1181.93 860.592 1197.04 860.418 1206.34C860.353 1209.87 863.412 1207.24 862.131 1216.16C861.072 1223.53 858.697 1230.82 855.734 1237.63C854.881 1239.59 853.978 1241.51 853.024 1243.42L855.165 1245.41L854.44 1247.46L850.143 1247.89C850.858 1249.8 851.614 1250.94 852.78 1252.59C851.895 1260.06 847.004 1259.86 843.575 1265C840.797 1269.16 841.596 1277.05 838.394 1281.72C828.328 1296.4 787.017 1333.91 772.677 1345.33C770.973 1346.68 769.172 1347.84 767.365 1349.06C765.459 1350.33 763.906 1351.81 762.256 1353.4C759.605 1353.88 758.398 1354.82 756.487 1356.6C749.243 1363.36 742.657 1370.9 735.657 1377.92L676.877 1437.48C669.69 1444.84 660.794 1450.76 654.04 1458.48C642.676 1471.45 632.168 1485.85 621.139 1499.21C619.629 1501.04 616.83 1505.75 615.095 1506.95C613.958 1507.74 610.718 1508.13 609.259 1508.47C609.494 1510.25 609.165 1509.35 610.529 1511.06C605.304 1519.19 598.104 1526.25 592.06 1533.81L549.118 1588.21C524.333 1620.05 500.85 1652.96 475.083 1684C469.64 1690.56 464.233 1699.16 458.032 1704.82L456.383 1703.24C452.851 1707.06 452.945 1713.46 448.169 1718.73C441.986 1725.56 436.537 1734.16 429.596 1740.15C424.587 1744.47 418.212 1746.86 413.369 1751.38C408.205 1756.21 403.769 1761.78 398.665 1766.68C384.902 1779.88 361.191 1799.79 345.341 1810.28C324.553 1824.03 301.666 1835.17 281.319 1849.42C280.064 1850.29 280.578 1849.96 278.881 1850.66C271.546 1849.39 245.85 1865.68 237.381 1869.24C225.383 1874.28 212.324 1879.63 199.631 1882.53C197.552 1881.3 198.594 1881.86 196.513 1880.85C194.631 1882.83 193.016 1884.9 190.384 1885.86C186.569 1885.52 183.04 1885.08 179.297 1886.06C173.682 1887.52 168.155 1888.76 162.364 1889.26C126.073 1892.4 69.5813 1880.31 41.5456 1856.33C35.2753 1850.97 22.7455 1841.24 22.7041 1832.44C22.702 1831.95 22.7978 1831.46 22.8436 1830.98C19.5472 1829.39 14.4272 1827.86 12.0045 1825.14C7.68409 1820.3 9.28328 1815.65 9.33993 1809.78C6.549 1807.2 2.99556 1804.46 2.07614 1800.64L4.75591 1798.69L4.79734 1796.92C2.33322 1796.57 3.28747 1797.1 1.7798 1795.62C2.54671 1789.98 3.39785 1784.35 4.33324 1778.73L1.00421 1777.81C-0.963167 1774.32 1.99984 1766.3 2.86696 1762.33C-1.71922 1756.89 1.66868 1744.69 2.06956 1737.66C2.49877 1737.68 4.13718 1737.76 4.51409 1737.68C7.3682 1737.03 4.69277 1729.59 5.34421 1727.19C5.76906 1725.62 9.36611 1721.6 10.4446 1720.11L8.83228 1719.09L8.57524 1717.32L11.5034 1713.66L9.50987 1712.83L8.9761 1711.49C9.74301 1710.64 10.4881 1709.77 11.292 1708.95C14.5318 1705.66 16.5166 1702.59 18.8391 1698.57C21.6083 1686.04 26.6128 1675.71 32.175 1664.24C54.4197 1618.36 86.6014 1581.79 120.692 1544.43C133.749 1530.12 146.313 1516.06 160.394 1502.69C189.452 1475.09 221.139 1449.79 249.83 1421.82C261.092 1410.84 271.04 1398.75 281.836 1387.35C305.723 1362.12 329.665 1336.72 352.358 1310.36C362.992 1298 373.664 1283.85 383.124 1270.52C391.477 1258.75 437.892 1187.85 436.735 1177.2C436.186 1172.13 446.827 1165.3 445.666 1157.62L443.389 1156.75L443.753 1155.31L446.311 1155.67C447.492 1150.44 453.849 1132.71 453.163 1129.12C453.089 1128.72 452.89 1128.36 452.773 1127.97C452.62 1127.48 452.5 1126.97 452.357 1126.47C451.583 1123.79 457.825 1115.98 458.607 1112.19L456.361 1110.75C457.799 1100.24 462.873 1088.83 464.383 1076.04C465.257 1068.65 463.457 1059.67 466.656 1052.91C467.017 1052.15 467.435 1051.41 467.782 1050.63C468.553 1048.92 469.015 1047.33 469.063 1045.44L472.02 932.347C472.142 925.652 475.342 907.593 472.972 902.473C472.401 901.242 470.599 897.801 470.623 896.398C470.669 893.769 473.66 889.758 473.996 886.777C474.771 879.925 472.231 870.287 472.736 862.199C473.68 847.181 474.126 832.147 474.072 817.098C473.943 805.328 471.442 763.549 473.741 755.538C476.688 745.255 477.357 724.169 475.998 713.402C475.754 711.467 474.695 711.258 473.255 710.099C474.351 696.177 475.501 682.105 475.346 668.131C475.22 656.496 473.954 644.871 473.869 633.276C473.837 629.016 476.274 626.57 475.893 622.001C475.118 612.733 476.057 603.395 475.874 594.098C475.03 551.382 477.586 508.771 477.994 466.051C478.591 403.128 477.819 340.374 480.085 277.466C480.819 257.049 479.815 234.694 483.399 214.65C494.207 215.419 518.186 218.713 527.829 215.325L532.551 212.427C534.176 212.978 535.795 213.61 537.42 214.142C539.359 214.776 541.106 214.621 543.117 214.569C549.802 214.776 581.48 217.44 584.997 216.072C587.439 215.22 589.855 214.344 592.265 213.397L593.568 214.806C603.289 218.968 627.05 215.013 639.654 217.501C646.164 215.578 647.314 217.018 653.743 217.859C651.284 208.904 654.096 197.995 653.811 188.616C651.933 126.741 654.142 64.2858 649.079 2.63138Z" fill="#7CD2C2"/>
<path d="M649.079 2.63138C668.539 2.70764 687.962 1.73507 707.416 1.49868C769.102 0.748765 831.213 -0.209435 892.883 1.59868C898.8 2.40436 904.825 2.73814 908.585 8.04962C912.646 13.7862 910.729 26.1035 910.518 32.7926C910.234 46.6993 912.186 88.8421 909.31 99.8032C906.478 125.464 908.075 152.484 903.243 177.72C902.539 187.605 903.487 194.608 904.646 204.251C899.927 204.911 895.77 204.987 891.025 204.553L883.077 205.194C874.055 207.17 856.799 213.297 848.265 212.286L835.134 214.451C824.973 215.129 814.731 213.771 804.46 214.61C803.634 213.582 802.619 212.641 801.704 211.691C798.715 212.51 796 212.386 792.93 212.105C792.606 212.076 792.281 212.029 791.954 211.989L789.166 214.828C778.229 213.595 766.993 214.382 755.977 213.636L753.282 213.355C739.519 213.702 714.516 217.959 701.86 214.373C699.22 214.445 696.708 214.464 694.122 215.096C686.529 219.114 663.624 215.647 653.743 217.859C651.284 208.904 654.096 197.995 653.811 188.616C651.933 126.741 654.142 64.2858 649.079 2.63138Z" fill="#F1E164"/>
<path d="M835.134 214.451C834.999 192.575 837.906 170.287 839.779 148.498C842.108 121.416 843.771 94.0385 845.117 66.8852C845.699 55.1529 846.259 43.2854 845.919 31.54C845.727 24.9034 843.69 15.9803 844.677 9.55376C845.126 6.62405 845.514 6.25825 847.756 4.71442C850.494 4.62618 853.418 4.26995 856.017 5.29242C857.475 5.86629 857.653 6.78527 858.133 8.15612C863.405 23.2703 855.139 197.362 848.265 212.286L835.134 214.451Z" fill="white"/>
<path d="M688.829 3.46582C692.899 3.81899 698.743 3.61375 701.392 7.23215C703.342 9.89824 703.078 12.7584 703.167 15.9067C703.993 45.3683 701.296 74.7569 701.597 104.176C701.956 139.336 706.475 179.725 701.86 214.373C699.22 214.445 696.708 214.465 694.122 215.096L691.928 214.301C689.49 210.909 688.984 207.58 688.574 203.462C685.446 171.94 687.487 134.19 687.908 102.019C688.337 69.1903 687.738 36.2787 688.829 3.46582Z" fill="white"/>
<path d="M789.166 214.828C789.296 214.381 789.434 213.935 789.556 213.484C793.985 197.008 793.545 177.038 794.192 159.892C795.342 129.488 797.175 99.0536 797.364 68.6279C797.484 49.6797 795.423 26.4394 797.05 8.28918C797.331 5.13964 797.785 5.06971 800.135 3.18512C803.118 2.92651 804.822 2.896 807.338 4.75945C809.63 6.4571 811.654 9.75349 811.868 12.59C812.874 26.0193 811.443 40.5509 811.31 54.0654C811.15 86.4047 810.482 118.734 809.306 151.053C808.702 171.339 810.53 195.137 804.46 214.61C803.634 213.582 802.619 212.641 801.704 211.691C798.715 212.51 796 212.386 792.93 212.105C792.606 212.076 792.281 212.028 791.954 211.989L789.166 214.828Z" fill="white"/>
<path d="M753.282 213.356L752.533 212.186C748.835 211.898 746.846 212.353 743.97 209.911C742.064 198.536 750.979 17.5188 754.302 6.14984C756.631 4.70361 758.034 4.66266 760.716 5.45985C763.278 6.22087 765.176 7.61742 766.459 9.95387C766.318 10.6225 766.156 11.2879 766.032 11.96C765.078 17.0682 766.307 33.1676 765.921 40.1264C764.317 65.4779 762.999 90.8438 761.967 116.224C761.282 137.138 760.335 157.925 759.136 178.814C758.474 190.362 758.884 202.371 755.977 213.637L753.282 213.356Z" fill="white"/>
<path d="M893.593 3.2334C898.408 5.49446 902.079 6.9237 904.062 12.2121C906.953 19.9284 905.796 30.422 906.097 38.6231C905.99 58.2336 905.742 77.7636 904.722 97.3545C903.069 114.061 902.001 130.839 900.289 147.528C899.509 155.114 897.724 162.975 897.36 170.55C895.556 181.832 894.243 193.582 891.025 204.554L883.077 205.194C882.687 203.972 882.34 202.669 881.865 201.475C881.101 199.556 880.146 197.811 879.824 195.725C878.732 188.675 885.715 151.5 886.739 141.349C889.643 112.579 890.354 82.4042 890.504 53.4753C890.578 39.4924 889.009 24.2418 890.406 10.4229C890.689 7.63898 892.142 5.52518 893.593 3.2334Z" fill="white"/>
<path d="M18.8391 1698.57C30.4059 1699.78 45.3017 1713.3 53.4043 1721.48C56.8293 1724.94 60.6877 1730.11 64.8382 1732.37L66.0017 1731.15C64.3568 1727.23 60.3435 1727.67 58.8511 1724.04C73.2938 1731.23 71.8123 1744.84 84.7407 1750.66L85.573 1749.66C82.5751 1745.36 75.5989 1741.3 73.7927 1737.02L73.2088 1736.6C79.2743 1738.61 84.1329 1740.17 89.1003 1744.34C91.3923 1746.26 93.9262 1749.08 96.8762 1749.53L98.4208 1747.8C102.053 1750.15 104.264 1752.41 106.789 1755.92C107.205 1755.9 107.622 1755.86 108.038 1755.84C111.537 1755.66 113.469 1755.58 116.526 1757.34L116.8 1758.44L110.883 1758.82C114.14 1760.99 116.522 1759.91 120.275 1759.23C129.735 1762.45 135.945 1770.27 145.335 1773.99C157.856 1778.95 171.098 1781.43 183.885 1785.54C199.705 1790.63 214.004 1797.06 230.326 1800.86C235.817 1802.14 241.307 1803.34 246.469 1805.67C253.53 1808.87 269.774 1821.72 276.374 1820.58C277.957 1822.66 277.779 1821.61 277.478 1823.9C277.175 1826.2 277.371 1825.3 276.581 1827.48C279.912 1827.37 280.929 1826.78 283.581 1828.94C286.027 1835.92 282.441 1842.05 279.7 1848.42C279.132 1849.75 279.354 1849.18 278.881 1850.66C271.546 1849.39 245.85 1865.68 237.381 1869.24C225.383 1874.28 212.324 1879.63 199.631 1882.53C197.552 1881.3 198.594 1881.86 196.513 1880.85C194.631 1882.83 193.016 1884.9 190.384 1885.86C186.569 1885.52 183.04 1885.08 179.297 1886.06C173.682 1887.52 168.155 1888.76 162.364 1889.26C126.073 1892.4 69.5813 1880.31 41.5456 1856.33C35.2753 1850.97 22.7455 1841.24 22.7041 1832.44C22.702 1831.95 22.7978 1831.46 22.8436 1830.98C19.5472 1829.39 14.4272 1827.86 12.0045 1825.14C7.68409 1820.3 9.28328 1815.65 9.33993 1809.78C6.549 1807.2 2.99556 1804.46 2.07614 1800.64L4.75591 1798.69L4.79734 1796.92C2.33322 1796.57 3.28747 1797.1 1.7798 1795.62C2.54671 1789.98 3.39785 1784.35 4.33324 1778.73L1.00421 1777.81C-0.963167 1774.32 1.99984 1766.3 2.86696 1762.33C-1.71922 1756.89 1.66868 1744.69 2.06956 1737.66C2.49877 1737.68 4.13718 1737.76 4.51409 1737.68C7.3682 1737.03 4.69277 1729.59 5.34421 1727.19C5.76906 1725.62 9.36611 1721.6 10.4446 1720.11L8.83228 1719.09L8.57524 1717.32L11.5034 1713.66L9.50987 1712.83L8.9761 1711.49C9.74301 1710.64 10.4881 1709.77 11.292 1708.95C14.5318 1705.66 16.5166 1702.59 18.8391 1698.57Z" fill="#5FA894"/>
<path d="M711.32 1164.5C759.705 1130.98 810.16 1100.43 859.392 1068.22C863.357 1079.93 861.871 1107.45 862.568 1121.4C862.876 1127.53 861.34 1134.72 860.039 1140.71C858.584 1147.43 862.843 1151.3 863.464 1157.39C864.174 1164.4 858.444 1165.65 861.961 1173.7C865.551 1181.93 860.592 1197.04 860.418 1206.34C860.353 1209.87 863.412 1207.24 862.131 1216.16C861.072 1223.53 858.697 1230.82 855.734 1237.63C854.881 1239.59 853.978 1241.51 853.024 1243.42L855.165 1245.41L854.44 1247.46L850.143 1247.89C850.858 1249.8 851.614 1250.94 852.78 1252.59C851.895 1260.06 847.004 1259.86 843.574 1265C840.797 1269.16 841.596 1277.05 838.393 1281.72C828.328 1296.4 787.017 1333.9 772.677 1345.33C770.973 1346.68 769.171 1347.84 767.365 1349.06C765.459 1350.33 763.906 1351.81 762.256 1353.4C742.238 1336.95 719.689 1233.93 714.588 1205.68C713.593 1200.17 713.122 1180.22 711.917 1177.58C711.41 1176.48 708.974 1174.56 708.037 1173.6C709.259 1170.6 710.298 1167.57 711.32 1164.5Z" fill="#5FA894"/>
<path d="M736.909 669.344C762.492 664.66 794.131 664.181 816.356 679.53C817.219 680.125 818.078 680.727 818.933 681.334C834.505 692.833 846.429 703.541 856.414 720.3C856.544 720.52 856.727 720.701 856.884 720.901C864.808 743.808 863.386 772.212 852.889 793.982C840.57 819.529 817.201 841.807 790.279 851.147C767.888 858.912 743.709 858.787 720.809 853.001C711.026 850.755 699.255 848.208 692.285 840.41C684.823 832.059 669.7 813.039 671.053 801.307C671.276 799.394 671.711 799.557 673.101 798.431C669.552 790.855 667.467 781.066 666.77 772.711C664.816 749.309 670.884 721.849 686.244 703.639L685.437 702.774C685.692 701.777 685.666 701.67 686.25 700.622C694.211 686.288 721.682 673.741 736.909 669.344Z" fill="white"/>
<path d="M686.243 703.639L685.437 702.774C685.692 701.777 685.666 701.67 686.25 700.622C694.211 686.288 721.682 673.741 736.909 669.344C741.147 676.09 750.424 687.391 751.406 695.221C751.709 697.635 750.395 700.502 750.165 702.931C749.781 706.94 750.243 710.731 749.404 714.749C747.363 724.535 741.306 733.499 732.678 738.664C726.935 742.102 720.593 743.806 714.02 741.989C704.333 739.314 696.921 730.126 692.398 721.616C689.468 716.102 686.758 709.91 686.243 703.639Z" fill="#085054"/>
<path d="M673.101 798.431L676.446 799.25C676.683 798.882 676.892 798.492 677.162 798.145C679.884 794.64 688.065 788.823 692.213 787.258L697.93 792.812L699.3 792.74L701.146 790.322C708.68 792.123 717.536 796.897 721.582 803.671C726.142 811.303 735.249 826.137 732.439 834.769C730.637 840.306 726.262 843.587 722.608 847.8C721.281 849.332 721.157 851.077 720.809 853.001C711.026 850.755 699.255 848.208 692.285 840.41C684.823 832.059 669.7 813.039 671.053 801.307C671.276 799.394 671.711 799.557 673.101 798.431Z" fill="#085054"/>
<path d="M818.933 681.333C834.505 692.833 846.429 703.541 856.414 720.3C856.544 720.52 856.727 720.701 856.884 720.901C855.283 723.603 854.082 724.799 851.359 726.383C850.971 726.607 850.577 726.821 850.189 727.045C849.108 727.677 848.074 728.341 846.925 728.851C842.167 730.969 836.293 730.041 831.618 728.161C822.077 724.322 813.807 715.921 810.138 706.328C807.789 700.182 807.016 693.146 810.014 687.053C811.927 683.164 815.142 682.793 818.933 681.333Z" fill="#085054"/>
<path d="M804.142 758.105L804.839 758.035C808.29 759.915 811.822 759.098 815.354 761.053C825.278 766.547 828.694 778.665 831.448 788.82C824.696 811.139 826.441 812.446 806.491 826.566C805.937 826.556 805.377 826.468 804.826 826.532C803.534 826.68 802.301 827.229 801.003 827.301C794.998 827.63 788.002 822.756 784.148 818.529C778.394 812.224 775.976 803.557 776.658 795.141C777.814 780.838 784.904 769.709 795.708 760.787C798.142 760.388 800.172 760.031 802.412 758.957C802.992 758.68 803.565 758.388 804.142 758.105Z" fill="#085054"/>
<path d="M612.932 938.415L612.91 937.116C626.941 928.04 660.164 930.704 676.006 934.077C685.106 936.016 694.575 940.676 703.063 944.493L703.702 945.829L702.335 946.208C715.29 951.404 730.151 958.474 736.243 971.967C737.757 975.322 738.373 977.863 738.341 981.499C738.323 983.235 738.535 984.985 738.528 986.741C738.986 988.543 739.33 990.238 739.594 992.081C740.393 997.665 742.637 1002.88 743.376 1008.56C743.556 1009.96 743.702 1011.37 743.814 1012.79C743.927 1014.2 744.006 1015.62 744.051 1017.03C744.096 1018.45 744.108 1019.87 744.086 1021.29C744.064 1022.7 744.009 1024.12 743.92 1025.54C743.832 1026.95 743.709 1028.36 743.552 1029.77C743.397 1031.18 743.208 1032.58 742.986 1033.98C742.762 1035.38 742.506 1036.78 742.219 1038.17C741.93 1039.56 741.608 1040.94 741.254 1042.31C740.899 1043.68 740.513 1045.04 740.095 1046.4C739.675 1047.75 739.224 1049.1 738.742 1050.43C738.259 1051.76 737.745 1053.09 737.199 1054.39C736.655 1055.7 736.079 1057 735.471 1058.28C734.866 1059.56 734.229 1060.83 733.561 1062.08C732.894 1063.33 732.198 1064.56 731.473 1065.78C730.749 1067 729.995 1068.2 729.212 1069.38C728.431 1070.56 727.621 1071.73 726.783 1072.87C705.27 1102.11 682.823 1118.03 646.717 1123.03C632.431 1125.01 619.202 1122.1 605.378 1118.74L604.707 1117.35L605.302 1116.25C604.215 1116.5 603.932 1116.62 602.664 1116.57C598.766 1116.42 586.986 1113.78 584.55 1110.55C584.238 1110.13 583.334 1107.18 583.114 1107.02C582.981 1106.92 579.519 1106.7 579.079 1106.58C576.103 1105.75 571.042 1099.21 569.025 1096.81C563.353 1090.06 556.185 1079.43 557.076 1070.39L559.118 1069.17C557.693 1067.81 557.133 1067.16 556.517 1065.24C552.329 1052.17 551.015 1013.14 554.771 1000.12C557.926 989.196 564.144 980.401 569.99 970.886C570.064 970.594 570.096 970.287 570.216 970.01C576.855 954.644 598.064 943.69 612.932 938.415Z" fill="white"/>
<path d="M612.932 938.415C624.392 944.202 628.279 953.154 633.235 964.311C631.353 976.573 629.778 994.07 618.642 1001.83C614.331 1004.84 609.764 1005.26 604.657 1005.36L604.315 1006.08L605.742 1007.75C601.655 1007.96 592.951 1005.27 589.883 1002.58C589.049 1001.85 588.82 1001.48 588.092 1000.64C587.753 1000.25 587.395 999.874 587.06 999.478C583.421 995.207 580.654 986.713 576.617 983.726L574.295 984.305C571.817 980.36 572.373 975.246 569.99 970.887C570.064 970.595 570.096 970.287 570.216 970.011C576.855 954.644 598.064 943.69 612.932 938.415Z" fill="#085054"/>
<path d="M559.118 1069.17C559.857 1068.13 560.623 1067.1 561.351 1066.05C561.632 1065.65 561.848 1065.2 562.155 1064.81C565.785 1060.23 574.205 1057.03 579.927 1056.9C586.437 1056.75 592.254 1059.51 596.759 1064.12C604.821 1072.38 608.093 1084.62 612.501 1095.01C611.426 1101.23 609.694 1106.77 606.62 1112.29C605.906 1113.57 605.599 1114.83 605.302 1116.25C604.215 1116.5 603.932 1116.62 602.664 1116.57C598.766 1116.42 586.986 1113.78 584.55 1110.55C584.238 1110.13 583.334 1107.18 583.114 1107.02C582.981 1106.92 579.519 1106.7 579.079 1106.58C576.103 1105.75 571.042 1099.21 569.025 1096.81C563.353 1090.06 556.185 1079.43 557.076 1070.39L559.118 1069.17Z" fill="#085054"/>
<path d="M702.335 946.208C715.29 951.404 730.151 958.474 736.243 971.967C737.757 975.322 738.373 977.862 738.341 981.499C738.323 983.235 738.535 984.985 738.528 986.741C736.676 988.625 734.722 990.837 732.58 992.375C728.722 995.148 722.754 995.373 718.222 994.717C706.708 993.052 698.141 984.189 691.808 975.063C687.917 969.457 684.25 963.529 685.518 956.524C689.514 950.674 696.024 948.707 702.335 946.208Z" fill="#085054"/>
<path d="M680.045 1026.6C683.664 1027.01 687.527 1027.29 691.039 1028.27C701.869 1031.31 706.843 1042.22 712.164 1051.08C711.076 1056.53 710.096 1062.29 708.235 1067.53C703.579 1080.66 694.967 1088.35 682.731 1094.09C680.873 1094.85 679.448 1095.48 677.441 1094.81C668.816 1091.95 662.718 1084.98 658.901 1077.02C654.264 1067.35 654.567 1057.14 658.175 1047.17C660.785 1039.95 666.639 1034.35 673.489 1031.08C675.365 1030.18 676.836 1029.37 678.433 1028.01C678.975 1027.55 679.507 1027.07 680.045 1026.6Z" fill="#085054"/>
<path d="M460.44 1285.58C478.845 1274.13 507.195 1275.9 527.361 1280.57C536.5 1282.68 556.534 1287 562.283 1294.93C566.109 1294.33 570.528 1297.09 573.578 1299.22C583.474 1306.11 592.618 1320.55 594.389 1332.64C594.513 1333.5 594.587 1334.36 594.683 1335.22C594.879 1336.96 595.35 1338.55 595.838 1340.23C602.141 1349.82 601.877 1365.29 599.799 1376.3C594.461 1404.55 570.968 1430.48 547.629 1445.77C533.304 1455.15 510.777 1465.89 493.48 1464C489.782 1463.59 486.327 1465.02 482.623 1465.1C474.937 1465.25 455.768 1462.12 450.518 1456.09C448.507 1457.07 447.52 1457.25 445.359 1457.5C434.561 1452.13 422.885 1444.67 416.48 1434.04C414.966 1431.52 415.371 1431.19 416.122 1428.49C414.632 1427.29 415.386 1427.7 413.336 1427.02C412.82 1426.84 412.299 1426.69 411.778 1426.53C406.811 1420.77 411.268 1416.62 409.266 1410.7C409.061 1410.09 408.822 1409.49 408.599 1408.89C404.172 1401.09 401.95 1394.53 401.085 1385.56C398.505 1358.87 406.634 1333.69 423.669 1312.95L423.833 1314.43C436.008 1301.71 444.35 1293.43 460.44 1285.58Z" fill="white"/>
<path d="M460.44 1285.58C460.971 1285.87 461.496 1286.17 462.032 1286.44C464.37 1287.64 466.381 1287.63 468.961 1287.73C479.231 1295.5 484.702 1305.39 486.316 1318.19C486.968 1323.35 486.937 1331.25 483.654 1335.65C479.734 1340.91 472.181 1345.25 466.81 1348.98C450.886 1349.37 448.692 1345.44 436.019 1337.7L436.376 1337.84C431.637 1330.32 426.912 1322.82 423.833 1314.43C436.008 1301.71 444.35 1293.43 460.44 1285.58Z" fill="#085054"/>
<path d="M408.599 1408.89C414.63 1402.56 419.656 1397.82 428.931 1397.38C437.642 1396.97 445.986 1401.57 452.1 1407.49C459.725 1414.87 464.017 1424.33 464.039 1435C464.054 1443.09 461.688 1448.34 456.4 1454.36L450.518 1456.09C448.507 1457.07 447.52 1457.25 445.359 1457.5C434.561 1452.13 422.885 1444.67 416.48 1434.04C414.966 1431.52 415.371 1431.19 416.123 1428.49C414.632 1427.29 415.386 1427.7 413.336 1427.02C412.82 1426.84 412.299 1426.69 411.778 1426.53C406.811 1420.77 411.268 1416.62 409.266 1410.7C409.061 1410.09 408.822 1409.49 408.599 1408.89Z" fill="#085054"/>
<path d="M562.283 1294.93C566.109 1294.33 570.528 1297.09 573.578 1299.22C583.474 1306.1 592.618 1320.55 594.389 1332.64C594.513 1333.5 594.587 1334.36 594.683 1335.22C594.879 1336.96 595.35 1338.55 595.838 1340.23C594.014 1340.85 592.642 1341.31 590.705 1341.44C577.236 1342.39 564.288 1338.14 554.776 1328.47C550.309 1323.93 545.889 1317.43 546.176 1310.75C546.444 1304.51 550.416 1299.95 554.913 1296.07C557.325 1296.34 558.647 1296.64 560.948 1295.64C561.41 1295.44 561.839 1295.17 562.283 1294.93Z" fill="#085054"/>
<path d="M537.451 1368.22C539.305 1367.54 545.407 1369.17 547.479 1369.72C553.251 1371.25 557.584 1375.63 560.323 1380.78C564.608 1388.85 564.251 1398.29 561.68 1406.84C557.882 1419.47 550.645 1428.18 539.052 1434.11C538.228 1433.77 537.468 1433.43 536.586 1433.24C534.533 1432.8 532.372 1432.84 530.411 1431.98C522.905 1428.68 515.751 1419.59 513.313 1411.9C510.343 1402.53 513.55 1391.78 518.372 1383.55C523.032 1375.6 528.485 1370.46 537.451 1368.22Z" fill="#085054"/>
<path d="M542.137 369.802C543.248 366.881 546.503 365.286 549.198 363.996C562.527 357.617 596.456 358.874 610.357 364.582C618.958 368.114 627.529 372.373 635.791 376.643L634.455 376.724C637.628 377.765 639.541 379.064 642.111 381.19C657.887 394.23 663.57 406.731 670.454 425.638C676.167 454.608 672.263 482.598 655.739 507.399C640.146 530.802 615.581 543.857 588.247 549.023C573.053 551.892 543.313 552.918 530.093 544.029C526.873 541.402 524.043 542.587 520.492 541.092C515.748 539.099 509.968 534.083 505.944 530.75C498.916 524.924 489.58 513.88 488.966 504.237C488.826 502.041 489.244 503.237 488.321 501.004C488.146 500.579 487.926 500.174 487.728 499.758C486.214 497.995 485.275 496.586 484.654 494.305C480.604 479.393 478.079 430.643 487.273 417.566C489.088 414.986 492.19 412.431 495.288 411.788C499.818 397.467 506.156 387.842 518.465 379.101C523.265 375.693 533.006 369.438 538.878 370.822C539.407 370.946 539.921 371.12 540.442 371.271L542.137 369.802Z" fill="white"/>
<path d="M495.288 411.788C499.818 397.467 506.156 387.841 518.465 379.101C523.265 375.693 533.006 369.438 538.878 370.821C539.407 370.946 539.921 371.12 540.442 371.27L542.137 369.802L550.157 374.233C554.484 384.837 563.36 402.58 558.808 414.001C555.235 422.964 546.409 432.684 537.501 436.538C534.647 437.773 532.692 437.671 529.799 436.499C529.235 436.27 528.692 435.993 528.139 435.743C527.511 436.089 526.886 436.442 526.254 436.782C523.936 438.03 521.169 439.438 518.459 438.832C511.337 437.246 503.803 427.562 500.798 421.398C500.225 420.221 499.711 419.019 499.155 417.838C498.092 415.583 496.774 413.777 495.288 411.788Z" fill="#085054"/>
<path d="M487.728 499.758L488.342 498.812C491.852 493.315 492.65 486.304 499.857 484.923C508.936 483.182 518.681 488.701 525.786 493.873C533.605 499.568 539.361 506.721 540.457 516.593C540.856 520.194 540.318 523.569 539.825 527.124C539.111 532.275 539.47 538.231 534.769 541.513C533.339 542.508 531.657 543.266 530.093 544.029C526.873 541.402 524.043 542.587 520.492 541.092C515.748 539.099 509.968 534.083 505.944 530.75C498.916 524.924 489.58 513.88 488.966 504.237C488.826 502.041 489.244 503.237 488.321 501.004C488.146 500.579 487.926 500.174 487.728 499.758Z" fill="#085054"/>
<path d="M670.454 425.638C663.735 428.538 655.397 430.265 648.164 428.743C643.094 427.675 634.536 424.32 631.58 419.91C633.155 418.771 634.61 417.594 636.061 416.3L635.044 414.657L630.24 414.295C626.863 411.585 622.046 406.435 620.466 402.365C619.139 398.946 619.505 397.223 620.856 393.977C621.56 392.282 622.128 390.853 622.51 389.044C623.137 386.077 623.366 383.24 625.534 380.929C628.314 377.959 630.536 377.024 634.456 376.724C637.628 377.765 639.541 379.064 642.111 381.19C657.887 394.23 663.57 406.731 670.454 425.638Z" fill="#085054"/>
<path d="M605.753 457.7C611.435 458.865 616.899 459.541 622.669 459.99C629.861 465.24 637.018 471.582 639.34 480.557C641.95 490.64 633.97 506.923 628.468 515.327C623.906 522.298 620.392 525.078 612.222 526.649C609.57 527.089 610.529 527.148 607.877 526.719C600.088 525.458 593.982 521.03 589.844 514.409C584.058 505.148 582.759 493.751 585.537 483.269C588.91 470.541 594.594 464.044 605.753 457.7Z" fill="#085054"/>
<path d="M155.699 1549.79C180.929 1536.97 208.677 1533.32 235.854 1542.27C240.296 1543.74 248.013 1545.87 251.118 1549.41L251.31 1550.04C266.742 1563.7 277.576 1576.69 282.11 1597.13L282.217 1599.08C282.633 1605.67 284.213 1612.07 284.533 1618.75C285.698 1643.23 278.036 1665.69 262.081 1684.32C245.007 1704.24 225.956 1715.94 199.485 1717.64C180.467 1718.87 161.142 1716.53 143.348 1709.59C142.989 1709.61 142.629 1709.66 142.267 1709.67C130.766 1709.98 121.027 1708.52 112.203 1700.41C105.482 1694.24 96.0113 1680.25 96.0766 1670.68C96.0962 1667.99 96.2465 1669.43 95.8958 1666.73C95.8326 1666.24 95.752 1665.76 95.6801 1665.27C93.728 1662.94 93.1876 1660.11 92.6277 1657.19C88.4925 1635.54 91.5492 1599.53 104.988 1581.19C107.094 1578.32 107.465 1578.39 110.82 1577.81L110.65 1575.27L113.029 1574.26C113.367 1572.69 113.676 1571.13 114.227 1569.62C117.18 1561.57 126.685 1554.95 134.343 1551.96C140.169 1549.68 149.812 1547.12 155.699 1549.79Z" fill="white"/>
<path d="M110.82 1577.81L110.65 1575.27L113.029 1574.26C113.367 1572.69 113.676 1571.13 114.227 1569.62C117.18 1561.57 126.685 1554.95 134.344 1551.96C140.169 1549.68 149.812 1547.12 155.699 1549.79C164.351 1554.22 167.368 1563.48 170.133 1572.56C172.944 1581.79 173.51 1591.12 168.595 1599.77C164.174 1607.56 157.725 1612.74 148.995 1614.91C140.991 1616.9 133.57 1616.3 126.43 1611.99C119.432 1607.77 112.846 1600.22 110.918 1592.15C109.938 1588.05 108.768 1582.55 111.158 1578.79L110.82 1577.81Z" fill="#085054"/>
<path d="M95.6801 1665.27C97.3076 1664.06 98.2749 1663.74 99.068 1661.82C100.515 1658.33 101.425 1655.17 105.493 1654.09C107.883 1653.46 110.188 1654.33 112.46 1655.03C117.439 1652.78 121.971 1650.14 127.576 1651.06C128.038 1651.14 128.502 1651.2 128.964 1651.28C138.431 1652.95 145.895 1660.05 151.061 1667.79C156.113 1675.36 157.924 1683.61 160.776 1692.07C158.686 1696.73 156.778 1701.56 153.998 1705.86L143.348 1709.59C142.989 1709.61 142.629 1709.66 142.267 1709.67C130.766 1709.98 121.027 1708.52 112.203 1700.41C105.482 1694.24 96.0112 1680.25 96.0766 1670.68C96.0962 1667.99 96.2465 1669.43 95.8957 1666.73C95.8326 1666.24 95.752 1665.76 95.6801 1665.27Z" fill="#085054"/>
<path d="M282.11 1597.13C281.875 1597.36 281.644 1597.59 281.402 1597.81C276.796 1602.02 270.184 1603.1 264.079 1602.65C253.129 1601.86 242.015 1594.01 236.83 1584.46C235.322 1581.68 234.492 1578.35 232.342 1576C231.331 1574.89 230.662 1574.05 229.886 1572.76C231.536 1570.28 233.094 1567.91 234.314 1565.18C233.952 1564.87 233.608 1564.54 233.231 1564.25C232.704 1563.85 232.146 1563.48 231.605 1563.1L239.734 1550.41C243.667 1550 247.36 1549.81 251.31 1550.04C266.742 1563.7 277.576 1576.69 282.11 1597.13Z" fill="#085054"/>
<path d="M219.06 1633.7C225.699 1631.73 232.795 1634.23 239.227 1635.97C243.832 1640.37 248.826 1645.78 250.9 1651.95C253.689 1660.23 251.081 1672.9 247.225 1680.49C245.042 1684.79 241.9 1689.85 237.026 1691.25C234.534 1691.97 235.719 1691.23 233.555 1692.66C231.66 1693.91 233.239 1693.47 230.313 1693.53C228.823 1694.26 227.161 1695.24 225.536 1695.6C220.121 1696.81 213.326 1695.12 208.934 1691.83C202.271 1686.85 197.992 1678.16 197.016 1669.99C195.829 1660.07 199.511 1649.14 205.701 1641.4C208.082 1638.42 210.093 1636.67 214.036 1636.3C216.96 1636.03 216.89 1635.54 219.06 1633.7Z" fill="#085054"/>
<path d="M638.024 3.24512C634.412 21.9302 636.512 41.8843 636.665 60.8195C637.089 113.056 639.174 165.258 639.654 217.501C627.05 215.013 603.289 218.968 593.568 214.806C594.047 214.157 594.77 213.63 595.003 212.859C595.023 212.798 589.901 155.101 589.777 147.767C588.964 99.5134 592.585 51.5578 592.347 3.35014L638.024 3.24512Z" fill="#F1E164"/>
<path d="M527.23 5.48992C545.002 3.99685 562.998 3.77853 580.827 3.4624C575.46 61.4448 571.177 120.414 575.881 178.625C576.637 187.995 576.938 198.688 579.556 207.697C580.443 210.747 583.044 213.612 584.997 216.072C581.48 217.44 549.802 214.776 543.117 214.569C539.878 199.51 537.237 184.91 535.353 169.55C534.947 166.245 534.329 151.216 533.135 149.11C531.978 147.073 530.642 149.219 530.705 145.767L532.714 146.229C533.416 143.628 530.474 47.5926 530.309 35.4245C530.206 28.0104 533.329 20.8348 532.531 13.4964C530.832 10.7672 529.143 8.07888 527.23 5.48992Z" fill="#F1E164"/>
<path d="M483.399 214.65C478.798 189.751 477.658 30.9061 484.726 11.9613C491.029 6.12696 507.406 5.1145 515.711 5.88773C517.114 6.01845 517.308 6.12761 518.481 6.48383C518.997 8.42092 519.019 7.28254 518.038 9.22856C509.585 26.0203 519.267 190.12 527.829 215.325C518.186 218.713 494.208 215.419 483.399 214.65Z" fill="#F1E164"/>
</g>
<defs>
<clipPath id="clip0_80_7184">
<rect width="912" height="1890" fill="white"/>
</clipPath>
</defs>
</svg>
