<svg width="272" height="462" viewBox="0 0 272 462" fill="none" xmlns="http://www.w3.org/2000/svg">
<path d="M101.61 282.4C104.21 274.59 108.29 267.33 109.74 259.09C113.76 236.17 112.45 213.55 106.38 191.15C105.95 189.55 105.59 187.93 105.2 186.32C106.92 183.98 109.56 182.63 111.25 180.1C112.9 177.63 115.71 177.03 117.6 180.23C118.66 182.02 119.94 182.84 121.93 182.76C127.12 181.82 132.59 184.04 137.59 181.24C139.59 180.46 141.71 180.15 143.79 179.69C144.74 179.48 145.59 179.29 146.13 178.2C148.44 173.48 149.51 173.09 153.97 175.66C155.62 176.61 157.23 177.16 159.08 176.96C160.32 176.83 160.29 175.56 160.82 174.79C161.69 173.44 162.83 172.63 164.53 172.91C167.13 174.28 169.64 177.13 171.16 171.41C172.04 168.08 176.5 167.78 178.68 170.64C180.06 172.45 181.42 172.74 183.37 172.36C185.82 171.89 188.28 171.46 190.74 171.03C194.32 170.4 197.03 168.97 198.06 164.77C199.24 159.93 200.93 159.39 204.49 161.98C205.94 163.03 205.65 161.56 206.03 161.32C209.3 159.22 210.52 160.72 211.01 164.05C215.1 162.61 219.25 160.98 223.8 161.26C224.3 161.32 224.78 161.45 225.24 161.65C226.62 162.39 227.49 163.6 228.04 164.99C231.53 173.69 235.26 182.29 239.17 190.82C239.65 191.87 239.91 193 239.84 194.17C239.8 194.67 239.66 195.14 239.47 195.6C234.24 201.09 227.36 204.76 223.08 210.06C224.34 208.18 227.04 206.57 229.11 204.35C231.93 201.33 234.74 200.85 238.12 203.08C242.03 204.38 240.77 206.76 239.01 208.73C236.7 211.32 234.04 213.61 231.43 215.9C220.66 225.41 215.46 237.63 213.62 251.56C213.36 253.53 213.31 255.56 211.9 257.17C211.56 257.53 211.16 257.82 210.73 258.05C206.69 261.81 202.64 265.56 198.12 268.76C196.8 269.69 195.63 271.04 193.8 269.81C191.98 266.49 188.46 263.88 189.41 259.34C189.46 259.12 187.76 259.24 187.19 258.34C185.26 255.24 183.43 252.09 181.51 248.99C180.44 247.26 181.46 245.99 182.72 245.19C190.6 240.19 196.4 232.71 203.97 227.36C207.19 225.08 209.55 221.93 211.91 219.89C208.95 221.04 208.21 226.89 202.83 225.75C200.83 222.33 199.22 218.67 197.34 216.35C199.3 218.68 200.79 222.47 202.96 225.84C203.53 226.94 203.02 227.64 202.2 228.39C195.92 234.05 189.95 240.04 183.01 244.95C180.63 246.63 179.71 246.22 178.61 243.82C177.79 242.02 176.92 240.21 175.8 238.55C180.65 247.95 181.77 245.8 170.89 253.15C172.41 252.17 174.59 251 176.42 249.41C179.3 246.92 180.99 248.1 182.72 250.82C186.64 256.96 189.41 263.77 193.74 269.66C194.48 271.47 193.29 272.55 192.1 273.4C187.8 276.5 183.69 279.84 179.22 282.72C176.02 284.78 173.73 284.45 171.76 281.2C164.51 269.31 156.75 257.75 149.01 246.19C147.04 243.24 147.81 240.78 150.57 238.94C152.98 237.34 155.05 235.33 157.36 233.6C149 241.8 138.56 247.11 129.24 253.99C122.33 259.09 122.02 258.86 117.11 251.71C117.83 254.46 122.04 255.67 120.98 259.51C118.28 261.45 115.57 263.38 112.97 265.44C109.43 268.25 109.47 268.74 113.08 271.7C113.91 272.38 114.69 273.12 115.64 273.64C108.92 268.56 108.96 268.62 115.73 263.41C117.44 262.09 119.31 260.98 120.91 259.51C124.85 259.93 126.1 263.36 127.52 266.07C132.73 276.06 140.25 284.4 146.6 293.56C147.62 294.58 148.45 295.75 149.14 297.01C150.62 300.11 152.48 297.99 154.04 297.23C159.54 294.58 164.29 290.7 169.5 287.57C174.39 284.63 175.61 284.66 178.48 289.74C180.64 293.57 185.32 296.29 184.11 301.77C184 302.25 185.29 301.81 185.76 302.29C187.85 304.42 189.55 306.62 186.83 309.48C185.76 311.32 185.81 313.58 184.95 314.83C185.68 313.67 185.9 311.66 186.6 309.83C188.03 307.47 189.56 308.02 190.79 309.89C193.8 314.45 196.93 318.93 199.75 323.62C200.88 325.49 200.42 326.69 198.58 327.63C196.96 328.47 195.33 329.29 193.7 330.1C198.467 327.76 202.66 328.787 206.28 333.18C205.59 332.41 204.69 331.31 203.93 330.07C202.36 327.52 202.82 325.7 205.61 324.54C207.45 323.77 209.31 323.05 210.75 321.6C212.01 320.78 213.56 320.9 214.88 320.27C213.45 320.99 211.65 320.71 210.41 321.95C209.66 322.63 208.78 323.1 207.89 323.54C202 326.44 201.41 326.26 197.98 320.81C194.62 315.48 190.93 310.37 187.82 304.89C187.01 303.46 185.92 302.15 185.96 300.37C186.04 299.86 186.24 299.41 186.54 298.99C191.34 295.9 196.41 293.25 201.15 290.03C203.55 288.4 206.13 288.29 207.68 291.52C209.75 294.19 211.51 297.04 212.26 299.34C211.61 296.73 209.41 293.88 207.31 290.96C206.74 289.16 207.41 288.12 209.25 287.8C212.58 288.2 213.11 291.1 214.13 293.45C217.99 302.35 222.79 310.53 230.1 317.17C232.31 319.18 235.53 319.66 237.12 322.37C236.95 324.63 235.24 325.78 233.71 327.02C221.9 336.66 210.79 347.1 199.31 357.12C196.44 359.63 193.96 362.54 191.41 365.37C190.1 366.82 188.7 369.14 186.15 366.91C185.64 361.74 186.05 356.76 189.26 352.39C190.27 351.83 191.22 351.9 192.11 352.65C193.01 353.43 192.81 354.7 193.37 355.68C194.54 353.87 193.09 352.7 192.41 351.35C187.94 344.51 182.08 339.15 175.06 335.03C171.59 336.4 169.2 336.22 169.76 331.48C169.98 329.63 168.6 328.48 166.99 326.92C167.26 329.4 167.44 331.53 166.33 333.41C165.51 334.79 164.39 335.73 162.66 335.27C161.11 334.85 160.69 333.55 160.68 332.18C160.65 329.7 160.99 327.22 161.11 324.74C161.22 322.49 160.92 320.44 158.93 319.01C157.74 317.55 157.1 315.37 154.58 315.69C152.14 318.06 152.48 322.88 147.86 323.29C144.5 321.89 145.5 319.55 146.61 317.26C149.26 311.81 148.9 310.81 143.06 307.81C141.14 307.29 140.63 305.34 139.36 304.16C137.9 303.16 136.33 302.62 134.53 303.03C133.81 302.93 133.25 302.56 132.78 302.03C131.82 300.72 131.08 299.2 129.06 298.36C128.68 300.31 129.67 302.64 127.75 304.09C127.08 304.42 126.38 304.46 125.67 304.26C121.63 302.04 122.47 297.72 121.27 294.22C121.39 295.9 121.73 297.57 121.41 299.25C121.04 301.03 121.42 303.17 119.21 304.1C118.03 304.35 117.08 303.92 116.27 303.09C113.88 298.91 115.62 293.77 113.15 289.61C112.33 288.32 111.22 287.37 109.77 286.84C109.39 286.67 109.03 286.44 108.7 286.18C107.45 284.99 105.7 284.83 104.25 284.04C103.46 283.75 102.65 283.48 101.97 282.96C101.87 282.77 101.77 282.58 101.67 282.39L101.61 282.4Z" fill="#172238"/>
<path d="M91.8302 455.65C71.3002 461.23 50.7202 464.81 29.8502 457.29C22.4602 453.57 14.9401 450.09 9.19005 443.81C0.890054 434.73 -1.51985 424.51 3.54015 413.12C8.69015 401.54 15.9902 391.28 24.0802 381.58C24.4002 381.96 24.7202 382.35 25.1202 382.65C34.5702 389.65 34.84 389.62 40.9 379.82C43.63 375.41 47.5002 371.99 50.8602 368.12C54.6202 367.77 56.0401 370.32 57.1901 373.21C55.4401 378.38 50.99 381.25 47.17 384.54C39.58 391.09 39.5001 390.94 47.7801 396.8C49.8001 398.23 52.19 399.13 53.92 400.98C54.02 402.39 54.7402 402.81 56.0502 402.29C62.4702 406.63 67.92 412.18 74.15 416.76C74.51 417.06 74.8102 417.41 75.0802 417.8C79.9302 423.75 86.2602 428.08 91.8502 433.23C92.2502 434.64 91.4301 436.87 94.2001 436.69C95.9201 437.3 97.0302 438.46 97.3702 440.29C97.4902 441.28 97.04 442.3 97.4 443.26C99.19 448.12 98.1701 451.72 92.9701 453.59C92.1301 453.89 91.8902 454.79 91.8402 455.66L91.8302 455.65Z" fill="#203444"/>
<path d="M161.47 175.89C161.82 176.52 162.8 177.84 162.1 177.76C159.17 177.44 155.82 182.32 153.11 176.8C152.24 175.03 149.14 175.26 146.99 176.26C147.22 178.83 149.82 178.05 150.85 180.16C146.66 180.9 142.65 181.61 138.64 182.31C133.09 183.94 132.45 183.45 132.68 178.16C132.89 173.41 134.4 168.88 134.75 164.12C134.97 161.23 134.47 159.83 132.22 158.41C135.67 163.21 135.27 164.84 130.25 166.92C133.75 170.35 134.03 172.22 130.6 174.15C128.12 175.55 130.72 175.23 130.86 175.39C133.35 178.05 133.09 180.21 129.49 181.24C126.57 182.08 124 183.51 121.23 184.55H116.13C115.38 182.98 118.2 180.04 114.95 179.43C112.54 178.97 111.61 181.54 111.14 183.29C110.2 186.77 107.37 185.73 105.19 186.32C104.76 184.78 104.32 183.24 103.89 181.71C105.77 180.28 108.12 179.57 109.65 177.59C110.79 176.12 111.21 174.81 109.84 173.33C108.88 171.43 108.04 169.45 106.43 167.95C106.13 167.63 105.89 167.28 105.67 166.91C105.22 165.94 104.7 165.01 104.17 164.07C103.22 162.89 102.46 161.59 101.54 160.39C100.41 158.8 98.95 157.46 97.92 155.79C97.33 154.94 96.6001 154.2 95.9401 153.4C95.3901 152.3 94.55 151.44 93.63 150.66L93.7001 150.73C91.8601 149.84 90.55 148.43 89.63 146.63L89.7001 146.73C88.5301 143.6 90.8202 143.33 92.8102 143.24C109.96 142.45 126.35 137.43 143.1 134.41C145.02 134.06 147.35 132.68 149.01 135.17C149.1 135.3 149.11 135.48 149.16 135.64C150.85 130.59 155.23 135.85 157.54 133.47C159.29 131.67 160.62 131.83 162.13 134.11C160.17 130.49 162.39 129.08 165.1 128.43C178.63 125.17 191.97 121.13 205.6 118.24C208.16 117.7 210.58 116.24 213.36 116.81C216.21 119.45 218.63 128.99 217.38 132.47C216.82 134.02 215.74 134.05 214.63 133.32C212.96 132.23 210.87 131.89 210.04 130.93C211.36 131.92 213.59 132.98 215.81 133.87C218.05 134.77 219.28 136.07 218.54 138.35C217.64 141.11 215.47 140.15 213.76 139.66C214.81 140.21 216.28 140.19 217.5 140.84C219.68 141.99 220.83 143.95 219.87 146.21C218.85 148.61 216.81 147.29 215.3 146.78C216.42 147.41 217.94 147.42 219.22 147.99C220.72 148.66 221.87 150.65 220.56 151.53C218.14 153.16 220.67 152.98 221.01 153.51C221.27 153.93 221.89 154.44 221.74 154.75C220.49 157.28 222.65 158.27 223.8 159.8C224.4 160.6 224.29 161.7 223.6 162.6C218.05 162.95 213.05 165.26 207.93 167.09C206.99 166.06 207.62 165.12 208 164.27C208.38 163.43 211.15 163.26 208.78 161.71C207.21 160.68 206.82 162.32 206.37 163.27C205.96 164.15 205.85 165.17 205.54 166.11C205.19 167.16 204.49 167.9 203.31 167.52C202.12 167.13 201.98 166.19 202.49 165.13C202.85 164.39 203.39 163.7 203.6 162.93C203.81 162.15 203.8 161.12 202.81 160.89C202.34 160.78 201.61 161.26 201.18 161.66C199.76 162.98 198.94 164.93 199.16 166.59C199.69 170.75 197.08 171.19 194.15 171.77C188.51 172.88 183.05 175.11 177.28 174.75C176.19 173.08 179.77 170.93 176.64 170.1C174.96 169.66 172.79 170.32 171.79 171.99C170.38 174.37 174.09 173.14 174.02 174.75C167.74 178.65 166.94 178.57 164.64 173.73C163.84 172.84 164.87 171.45 163.26 170.22C163.78 172.73 160.56 173.42 161.49 175.91L161.47 175.89Z" fill="#ECA746"/>
<path d="M65.34 67.0601C61.65 56.2301 58.3798 45.2801 55.4398 34.2201C54.2298 29.6601 55.9499 27.4202 59.9699 26.5902C69.7199 24.5802 79.4899 22.62 89.2999 20.96C115.32 16.56 141.09 10.95 166.84 5.20003C174.45 3.50003 182.11 1.97996 189.79 0.629963C196.99 -0.630037 198.22 0.480042 198.93 7.71004C199.12 9.69004 199.49 11.66 199.77 13.63C203.14 18.64 202.78 24.2602 202.45 29.8702C201.92 32.2402 200.34 33.32 198.05 33.94C194.4 34.92 190.67 35.6202 187.08 36.8502C186.58 37.0002 186.06 37.0902 185.54 37.1202C179.64 38.6702 173.5 39.3401 167.82 41.7601C166.6 42.3301 165.25 42.1502 163.98 42.3702C158.2 42.9102 152.82 45.0701 147.27 46.5201C145.09 46.9801 142.89 47.2501 140.66 47.3001C135.3 48.9801 129.6 49.23 124.29 51.15C122.18 51.44 120.07 50.95 117.96 51.19C112.14 52.76 106.15 53.2701 100.22 54.0701C98.6699 54.4401 97.2899 55.1501 95.9899 56.0601C95.5499 56.2001 95.1098 56.25 94.6498 56.2C93.5798 55.92 92.6098 55.22 91.4098 55.43C86.1898 56.63 80.85 57.12 75.61 58.14C74.11 58.62 72.3598 58.4301 71.1798 59.7801C67.5298 60.8301 67.97 65.1901 65.33 67.0501L65.34 67.0601Z" fill="#122039"/>
<path d="M203.89 53.2099C206.14 67.2399 208.4 81.27 210.65 95.3C209.11 98.2 206.9 98.1699 204.41 96.6899C196.99 92.2599 195.91 87 200.88 79.59C200.97 79.45 201.08 79.3199 201.18 79.1899C202.24 77.7099 203.9 76.04 202.92 74.31C201.77 72.3 199.57 73.66 197.95 74.09C180.09 78.76 161.97 82.26 143.97 86.31C134.88 88.35 125.64 89.5798 116.46 91.1398C104.13 93.5498 91.6501 95.0999 79.3201 97.5099C77.8801 97.7899 76.38 98.1698 74.95 97.3998C73.18 92.2798 71.4199 87.17 69.6499 82.05C74.2399 77.9 80.14 77.8799 85.74 76.9299C88.08 78.2899 87.79 80.74 88.05 82.57C88.87 80.51 86.6501 78.7198 86.8301 76.4098C94.6901 74.9398 102.31 71.99 110.49 72.59C112.99 73.89 111.31 77.0799 113.14 78.4699C112.22 76.6699 111.65 74.6 111.87 72.34C116.42 70.39 121.26 69.6699 126.12 69.2299C128.25 69.0399 130.37 68.93 132.43 68.28C133.53 68.09 134.63 68.0298 135.74 68.1398C146.18 67.7398 156.17 64.8799 166.23 62.4399C168.52 62.0399 170.68 60.9199 173.09 61.2199C176.48 61.2699 178.18 63.6699 180.02 66.2499C179.84 63.9699 178.8 61.69 180.78 59.84C187.2 57.57 193.65 55.4098 200.06 53.1298C201.37 52.6598 202.64 52.5099 203.91 53.2099H203.89Z" fill="#10203D"/>
<path d="M160.66 406.17C160.19 406.98 159.71 407.79 159.24 408.6C155.95 409.93 154.87 407.11 153.43 405.33C147.13 397.53 147.18 397.5 140.94 405.26C138.55 408.23 136.37 411.35 134 414.33C130.38 418.89 129.42 418.99 124.74 415.55C123 413.79 121.34 411.99 120.79 409.46C120.69 408.62 120.69 407.74 121.12 407.04C125.85 399.46 131.04 392.28 138.19 386.74C139.37 386.52 140.38 386.82 141.14 387.8C140.68 386.89 139.7 386.75 138.92 386.31C135.06 383.37 131.87 379.73 128.55 376.26C125.93 373.52 124.09 373.71 121.69 376.54C116.97 382.11 112.81 388.14 107.65 393.35C101.28 393.39 98.7102 388.7 96.1202 384.05C98.9402 377.52 104.32 372.84 108.45 367.25C111.97 362.48 112.12 362.57 107.24 358.88C98.6401 352.39 100.51 352.84 93.8402 360.54C90.3502 364.57 86.9 368.62 83.2 372.46C78.85 373.18 72.24 368.79 70.15 363.81C72.02 359.24 76.21 356.46 78.93 352.54C79.77 351.32 80.8501 350.26 81.7401 349.06C87.5901 341.23 87.2902 343.05 79.6102 337.51C76.5102 335.27 74.4401 335.56 72.2601 338.69C69.1401 343.18 65.5401 347.32 62.2501 351.69C61.2501 353.01 60.1701 354.28 58.8201 355.27C57.4201 356.29 55.9801 356.3 54.7801 355.07C53.5601 353.82 54.2501 352.66 55.2501 351.62C55.9501 350.89 56.4801 350.06 56.7401 349.07C63.0101 343.08 67.1401 335.39 72.7401 328.87C74.1401 325.88 76.0801 327.03 78.0801 328.13C83.0601 330.84 87.3301 334.57 91.7601 338.02C100.91 345.14 110.02 352.33 118.91 359.76C127.04 366.55 134.06 374.58 141.71 381.9C148.21 388.13 153.36 395.51 159.71 401.82C161.09 403.19 161.61 404.46 160.67 406.19L160.66 406.17Z" fill="#F2C866"/>
<path d="M93.8798 437.54C92.4598 438.04 90.9299 439.35 89.7199 437.31C88.4199 435.12 91.0599 434.87 91.6799 433.61C90.8399 431.34 92.6098 430.29 93.8998 429.13C97.3398 426.04 100.69 422.81 104.83 420.62C107.67 419.12 107.54 417.54 105.48 415.24C98.1999 407.09 97.7099 407.09 87.9499 412.2C83.3699 414.6 79.5 418.7 73.8 418.69C73.72 418.31 73.63 417.93 73.55 417.55C72.18 415.11 73.87 413.41 75.12 411.75C77.53 408.55 80.49 405.87 83.58 403.33C88.19 399.53 88.16 399.11 83.37 395.3C82.85 394.89 82.29 394.52 81.79 394.08C78.75 391.41 75.94 391.07 72.57 393.93C69.3 396.71 65.5 398.88 61.82 401.15C60.03 402.26 58.23 403.71 55.85 402.67C54.56 403.12 53.69 402.86 53.58 401.32C54.15 396.22 58.5998 393.78 61.4198 390.32C67.7798 382.5 67.9898 382.69 59.8798 377.15C58.4198 376.15 56.5699 375.41 56.7199 373.13C54.0699 372.53 53.7899 368.78 50.7699 368.68C46.6199 370.13 44.1799 367.3 41.5199 365C41.2699 364.47 41.39 364.02 41.85 363.67C44.43 361.22 47.01 358.77 49.59 356.32C66.94 368.05 83.4299 380.93 99.5299 394.29C111.86 404.53 122.62 416.25 131.28 429.82C132.79 432.19 134.2 434.67 136.53 436.4C133.68 440.51 129.46 442.79 125.03 444.64C114.25 449.13 103.14 452.7 91.84 455.67C88.74 454.67 90.3399 452.84 91.7499 452.43C97.6199 450.73 97.32 446.97 95.59 442.5C95.25 441.63 95.4099 440.9 96.4499 440.62C99.2399 440.58 100.47 442.72 101.74 444.6C103.53 447.26 105.7 447.87 108.55 446.57C113.07 444.49 117.33 441.94 121.55 439.32C123.88 437.87 124.09 436.07 122.52 433.91C122.13 433.37 122.59 434.07 122.25 433.5C116.84 424.45 115.25 424.14 106.51 429.77C102.36 432.44 98.7698 436.03 93.8998 437.56L93.8798 437.54Z" fill="#142943"/>
<path d="M160.66 406.17C160.66 402.98 157.5 402.24 155.94 400.28C133.54 372.17 105.88 349.88 76.8798 329.06C75.3498 327.96 74.2099 327.23 72.7299 328.83C72.5099 326.55 74.3299 325.3 75.4699 323.8C84.4299 312.05 92.2399 299.59 98.9199 286.42C99.6399 285.01 100.08 283.31 101.61 282.39L101.67 282.58C103.53 284.48 100.52 285.69 101.01 287.35C101.3 285.23 102.88 283.98 104.44 282.73C106.27 283.54 108.62 283.4 109.68 285.61C108.79 286.96 107.43 287.98 107.52 289.93C107.59 291.45 106.94 293.24 105.66 293.84C101.97 295.59 99.8099 299.07 96.7299 301.41C102.72 297.55 107.53 292.69 109.7 285.63C111.28 285.85 112.73 286.31 113.64 287.76C110.72 297.42 103.38 303.88 96.83 310.89C95.83 311.96 94.2599 312.48 92.6899 311.65C92.3599 311.27 92.38 310.61 92.11 310.36C91.18 309.49 94.3999 308.97 92.1799 307.96C90.4999 307.2 90.2 308.26 89.6 309.22C87.93 311.88 86.17 314.47 84.28 317.1C85.54 316.94 86.02 315.67 87.09 315.33C89.13 314.69 90.9799 315.42 90.1699 317.47C88.3899 322.02 91.4799 323.63 94.1799 325.68C100.98 329.6 106.13 335.82 113.2 339.37C116.28 342.4 122.32 341.36 123.77 337.19C124.63 334.7 125.81 333.48 128.31 333.58C130.63 333.67 131.94 332.24 133.24 330.68C134.63 329.02 135.94 327.12 138.35 327.04C139.78 326.99 139.65 326.17 140.04 325.24C141.98 320.68 143.91 320.26 147.58 323.39C149.12 323.12 150.92 321.84 151.98 323.97C152.79 325.61 151.47 326.79 150.42 327.84C147.7 330.56 144.78 333.08 141.41 334.91C136.99 337.31 133.11 340.38 129.45 343.77C127.04 346.01 124.79 348.78 120.57 346.28C122.63 351.71 126.8 354.44 130.87 357.17C132.33 358.15 133.66 356.58 135.06 356.22C137.1 355.7 138.4 356.26 138.31 358.57C138.22 360.68 135.95 362.63 138.5 364.93C140.44 366.68 142.82 366.46 144.91 367.37C145.44 367.88 145.76 368.52 145.94 369.22C147.75 375.38 152.08 379.21 157.73 381.72C158.84 382.21 160.11 382.36 159.93 383.9C159.27 389.69 163.83 392.65 166.69 396.54C165.29 400.13 162.96 403.13 160.65 406.15L160.66 406.17Z" fill="#1C2C2C"/>
<path d="M211.51 98.78C213.49 104.88 214.41 111.16 214.8 117.54C214.46 118.13 214.06 118.17 213.6 117.66C198.02 121.63 182.46 125.66 166.85 129.53C164.13 130.21 162.21 130.53 163.62 134.22C164.32 136.06 163.69 138.5 162.18 140.6C159.9 138.5 162.11 134.99 159.3 132.77C157.77 135.05 158.14 137.77 157.4 140.15C155.2 140.01 155.7 137.97 154.97 136.87C154.22 135.74 154.6 133.6 152.34 133.95C149.82 134.34 150.68 136.36 150.6 137.91C150.58 138.24 150.65 138.58 150.6 138.91C150.4 140.21 151.06 142.34 148.63 141.84C146.81 141.46 146.62 140.04 147.43 138.36C147.84 137.51 147.8 136.44 148.05 134.97C136.96 137.28 126.19 139.61 115.38 141.75C107.74 143.26 100.11 145.03 92.23 144.75C90.83 144.7 89.47 144.69 89.72 146.72C86.48 140.8 84.6501 134.42 83.5801 127.79C84.8101 126.23 86.5299 125.93 88.3899 125.61C101.25 123.38 114.04 120.7 126.95 118.73C150.52 114.29 173.74 108.42 196.84 102.01C199.73 101.21 202.47 99.94 205.31 99C207.33 98.34 209.41 97.38 211.54 98.76L211.51 98.78Z" fill="#0E2A26"/>
<path d="M127.65 120.44C112.93 122.71 98.5201 126.89 83.5601 127.8C80.6901 117.67 77.82 107.53 74.95 97.3999C75.5 96.8299 75.9901 95.84 76.6101 95.76C89.9701 93.91 103.15 90.8799 116.6 89.6599C118.75 91.8699 117.83 95.2101 119.54 97.5801C119.77 98.5601 119.74 99.56 119.33 100.46C117.48 104.55 119 107.34 122.67 109.33C125.11 112.18 128.52 112.59 131.93 113.03C134.03 115.21 132.1 116.26 130.53 116.76C128.53 117.39 127.62 118.44 127.64 120.45L127.65 120.44Z" fill="#E6AB5C"/>
<path d="M136.51 436.38C135.25 437.54 134.13 438.11 133.02 436.12C119.16 411.33 97.67 394.04 75.51 377.35C67.8 371.54 60.29 365.49 52.06 360.39C50.62 359.5 48.5 358.82 49.57 356.3C50.1 355.73 50.6198 355.18 51.1398 354.62C55.2498 353.7 58.2298 356.59 61.6298 357.9C64.0598 358.84 66.19 360.62 68.26 362.31C72.91 367.73 78.6698 371.63 85.1398 374.54C87.9698 376.94 90.9899 379.1 93.6799 381.67C98.0699 386.71 102.28 391.95 108.66 394.7C113.24 399.62 118.55 403.88 122.23 409.62C122.82 411.55 124.44 412.72 125.63 414.2C130.6 419.1 134.33 424.95 138.27 430.64C138.97 431.66 139.48 432.72 138.72 433.94C137.98 434.75 137.24 435.55 136.51 436.36V436.38Z" fill="#F5D869"/>
<path d="M67.54 363.62C61.98 360.8 57.3999 356.18 51.1499 354.62C53.0099 352.76 54.87 350.89 56.73 349.03C56.76 349.19 56.7701 349.36 56.8201 349.52C57.3901 351.46 52.89 352.51 55.53 354.36C58.27 356.28 59.04 352.81 60.2 351.4C64.62 346.03 68.93 340.56 73.01 334.94C74.72 332.59 75.82 332.66 77.96 334.39C80.78 336.66 83.9301 338.58 87.1001 340.34C89.0201 341.41 89.4399 342.1 87.9199 343.95C82.3299 350.7 77.2801 357.9 70.8501 363.93C69.6801 364.57 68.59 364.3 67.54 363.63V363.62Z" fill="#0B5E60"/>
<path d="M41.7701 364.69C45.3101 364.78 47.4701 367.99 50.7501 368.66C51.1601 369.47 52.1301 370.14 50.8101 371.13C45.1801 375.34 41.7301 381.29 38.5801 387.34C36.7801 390.79 35.12 391.18 32.13 388.9C30.3 387.5 28.1101 386.56 26.0201 385.53C24.2901 384.68 23.7301 383.38 24.0801 381.57L24.16 381.6C30.19 376.14 35.2601 369.67 41.7601 364.7L41.7701 364.69Z" fill="#F05863"/>
<path d="M68.95 80.5C68.28 78 67.5999 75.5 66.9299 73C68.4999 71.93 67.7999 70.3799 67.8899 68.9399C68.1099 65.4399 68.4499 61.9301 72.1499 60.0701C78.6399 63.1801 83.4701 67.77 85.3601 74.96C84.8101 76.8 83.3099 77.2799 81.6599 77.6799C77.4399 78.6999 73.4199 80.64 68.9399 80.49L68.95 80.5Z" fill="#101F3B"/>
<path d="M68.95 80.5001C74.09 78.0501 79.97 77.6902 84.98 74.8602C86.23 73.4702 87.7299 72.6602 89.6499 72.8102C100.21 70.2602 111.04 69.2001 121.7 67.2101C125.36 66.5301 129.25 65.7901 132.71 68.3001C133.09 68.8401 133.02 69.3101 132.5 69.7201C126.47 70.7101 120.44 71.7 114.4 72.66C113.42 72.82 112.38 72.74 111.72 73.69L111.81 73.6002C103.27 74.0002 95.0399 76.28 86.6699 77.7L86.76 77.6102C81.05 79.0802 75.3499 80.5601 69.6399 82.0401C69.4099 81.5301 69.1799 81.0201 68.9399 80.5001H68.95Z" fill="#D09063"/>
<path d="M103.45 179.66C102.24 178.35 101.55 176.85 101.67 175.03C102.26 173.87 101.41 173.25 100.74 172.56C99.78 171.71 99.92 170.52 99.75 169.42C101.54 167.13 103.46 165.15 106.74 166.68L106.66 166.59C108.36 168.61 108.95 171.23 110.4 173.4C109.54 179.02 108.28 180.15 103.46 179.65L103.45 179.66Z" fill="#ECA746"/>
<path d="M72.6201 60.3899C70.7101 63.2999 69.4199 66.3899 69.4299 69.9699C69.4299 71.4999 69.6499 73.56 66.9299 73.01C66.3899 71.02 65.8601 69.03 65.3301 67.05C65.8001 63.37 65.25 59.04 70.76 58.59C72.23 58.3 72.8001 58.9598 72.6201 60.3798V60.3899Z" fill="#C6264F"/>
<path d="M103.45 179.66C106.92 178.68 108.82 176.32 109.42 172.83C109.71 172.42 110.06 172.39 110.46 172.67C112.04 173.83 114.28 175.29 112.61 177.24C110.46 179.76 108.42 183.48 103.87 181.72C103.73 181.04 103.58 180.35 103.44 179.67L103.45 179.66Z" fill="#523C2C"/>
<path d="M102.79 159.61C104.06 160.77 105.06 162.12 105.67 163.75C102.62 168.38 101.01 168.79 98.3401 165.63C98.0301 165.02 97.7199 164.4 97.4099 163.79C98.3799 157.96 98.62 157.78 102.79 159.62V159.61Z" fill="#A3844D"/>
<path d="M41.77 364.69C35.91 370.34 31.3299 377.3 24.1699 381.59C29.4499 375.01 35.4501 369.14 41.8401 363.65C41.8201 363.99 41.8 364.34 41.78 364.69H41.77Z" fill="#6A3C3F"/>
<path d="M102.79 159.61C101.64 160.35 97.71 157.11 99.4 162.04C99.76 163.1 98.17 163.27 97.42 163.78C96.63 162.82 95.7002 161.93 95.8602 160.52C95.9802 158.15 95.2802 155.4 98.6202 154.51C100.01 156.21 101.41 157.91 102.8 159.61H102.79Z" fill="#383020"/>
<path d="M98.34 165.62C101.61 168.22 103.23 164.36 105.67 163.74C106.12 164.69 107.03 165.47 106.74 166.69C104.05 166.69 102.52 169.63 99.7499 169.43C98.7999 168.34 98.33 167.07 98.34 165.63V165.62Z" fill="#3F2919"/>
<path d="M98.6101 154.51C96.9801 156.19 98.1401 159.15 95.8501 160.52C94.6001 159.99 94.4799 158.68 93.9099 157.69C94.2999 155.61 93.9801 153.08 97.0801 152.72C97.5901 153.32 98.1001 153.91 98.6101 154.51Z" fill="#B39F63"/>
<path d="M97.08 152.72C95.09 153.78 95.3199 156.25 93.9099 157.69C91.8699 155.43 95.0298 152.95 93.6298 150.66C95.3898 150.33 96.03 151.87 97.08 152.73V152.72Z" fill="#383020"/>
<path d="M100.74 172.56C102.65 172.82 104.66 172.11 106.68 173.17C105.68 175.75 103.16 174.08 101.68 175.03C101.04 174.33 100.56 173.57 100.75 172.56H100.74Z" fill="#322C21"/>
<path d="M89.63 146.62C91.25 147.72 93.2601 148.44 93.7001 150.72C90.3701 151.31 89.6 149.37 89.63 146.62Z" fill="#3B3624"/>
<path d="M238.75 194.76C243.08 202.97 249.04 210.05 254.36 217.58C260.28 225.96 264.63 235.19 268.41 244.69C273.84 262.65 272.91 280.02 262.65 296.11C255.91 306.68 246.77 315.11 236.64 322.46C228.8 321.32 225.21 314.69 220.85 309.49C216.72 304.58 214.14 298.47 211.8 292.41C211.26 291.01 210.91 289.54 209.63 288.58C208.95 287.8 208.5 286.93 208.54 285.87C209.47 283.12 207.35 280.66 207.78 277.95C208.49 273.53 208.35 269.12 207.78 264.71C208.77 262.03 208.8 258.99 210.71 256.64C211.59 252.48 212.69 248.36 213.3 244.16C215.56 228.79 225.35 218.41 236.41 208.84C237.66 207.76 239.73 207 239.43 205.26C239.15 203.59 238.5 205.63 237.92 205.61C235.427 202.51 235.693 199.033 238.72 195.18L238.75 194.76Z" fill="#1D3049"/>
<path d="M144.7 367.35C142.74 368.74 141.33 369.32 138.82 367.35C134.74 364.15 133.4 361.4 137.98 357.71C137.15 357.3 136.68 357.01 136.63 357.06C132.49 361.98 129.39 359.28 126.17 355.83C124.03 353.54 121.48 351.64 119.27 349.4C118.45 348.57 117.23 347.62 118.29 345.99C119.26 344.5 120.63 343.23 122.19 343.14C125.08 342.97 121.4 345.83 124.2 346.39C131.93 337.92 143.08 332.78 151.89 324.46C149.76 322.39 148.36 324.79 146.72 324.73C146.07 323.58 146.93 323.15 147.7 322.67C151.94 320.74 151.12 315.95 153.27 312.84C157.58 314.51 158.5 317.54 157.78 321.98C156.54 329.63 155.45 337.27 153.39 344.77C152.51 347.96 151.27 350.96 149.73 354.59C158.32 348.34 167.08 343.39 174.87 337.01C177.87 334.55 179.91 334.97 181.3 338.68C182.57 342.06 183.39 345.63 183.11 349.33C183.04 356.67 180.52 363.11 175.79 368.74C176.55 368.28 177.11 367.36 177.94 367.57C180.19 368.15 180.23 371.13 182.64 371.97C183.43 372.25 181.65 374.08 180.93 375.09C179.43 377.23 178.05 379.44 176.69 381.67L176.76 381.56C172.43 384.07 171.74 389.72 167.43 392.39C166.61 392.9 168.05 395.37 166.66 396.66L166.7 396.55C166.29 396.77 165.77 397.28 165.5 397.17C162.43 395.92 161.95 392.49 159.88 390.35C157.78 388.18 155.09 385.91 159.47 382.42C156.21 385.22 154.71 383.89 152.89 381.46C150.64 378.44 147.85 375.82 145.18 373.13C144.02 371.96 142.97 371.03 144.76 369.62C145.65 368.65 146.58 367.71 147.51 366.78C149.09 365.21 150.88 363.6 153.08 365.24C155.44 366.99 159.96 367.3 158.49 372.04C159.62 369.47 158.2 367.87 156.01 366.88C153.7 365.84 151.6 362.83 148.63 365.7C147.54 366.75 146.38 367.65 144.71 367.34L144.7 367.35Z" fill="#F4B140"/>
<path d="M147.76 297.66C147.09 296.76 146.42 295.85 145.75 294.95C138.65 283.97 131.39 273.09 124.29 262.1C122.95 260.02 122.68 258.11 125.05 256.52C130.97 252.54 136.74 248.34 142.67 244.36C145.39 242.54 147.04 242.67 149.11 245.7C157.07 257.35 164.39 269.41 172.13 281.19C173.56 283.37 174.13 285.38 171.26 287.01C165.07 290.52 159.35 294.84 152.92 297.97C151.18 298.82 149.32 300.24 147.75 297.66H147.76Z" fill="#17233B"/>
<path d="M147.76 297.66C148.57 298.19 149.14 298.66 150.35 297.92C156.86 293.95 163.45 290.11 170.1 286.38C172.33 285.13 172.73 284.18 171.19 281.86C163.4 270.08 155.72 258.22 148.25 246.23C146.51 243.44 145.43 243.46 143.01 245.33C137.67 249.46 132.23 253.52 126.52 257.11C123.48 259.02 124.54 260.16 125.96 262.35C132.45 272.36 138.74 282.5 145.05 292.61C145.47 293.28 145.53 294.17 145.75 294.95C144.32 294.26 143.69 292.88 142.9 291.65C136.96 282.51 129.73 274.23 124.74 264.43C123.81 262.6 122.65 260.66 120.64 259.61L120.7 259.68C120.23 256.51 117.56 254.72 116.05 252.2C114.96 250.39 113.67 248.58 114.08 245.94C116.94 248.16 117.76 251.52 119.71 254.08C121.37 256.25 122.45 257.02 125.13 254.98C136.48 246.31 149.36 239.75 159.81 229.81C160.22 229.42 160.85 229.25 161.44 228.94C162.74 231.88 160.25 232.56 158.99 233.88C155.83 237.17 149.29 238.74 149.29 242.89C149.29 246.79 153.81 250.69 156.34 254.58C161.95 263.22 167.64 271.8 173.11 280.52C174.57 282.84 175.65 283.44 178.01 281.66C183.3 277.67 189.2 274.47 193.76 269.52L193.69 269.6C200.39 266.96 204.54 261.19 209.67 256.61C211.52 262.19 207.27 265.06 203.94 267.52C197.01 272.65 190.77 278.73 183.19 282.97C179.53 285.02 179.34 287.22 181.85 290.5C183.92 293.2 186.48 295.81 186.7 299.57C190.13 308.29 196.44 315.29 200.94 323.37C201.84 324.99 202.86 324.57 204.23 323.93C206.29 322.97 208.13 321.32 210.64 321.59L210.59 321.53C211.2 324.27 208.75 324.56 207.3 325.01C203.11 326.3 203.72 328.31 205.92 330.94C207.2 332.46 208.37 334.08 209.51 335.71C210.02 336.44 211.18 337.31 210.14 338.23C208.77 339.43 208.11 337.91 207.46 337.09C205.82 335.01 204 333 202.78 330.68C201.32 327.92 199.82 327.9 197.42 329.4C195.26 330.74 192.84 331.67 189.4 333.33C191.76 329.03 195.2 328.69 197.64 326.93C198.69 326.17 200.23 326 198.9 324.11C195.57 319.36 192.33 314.55 189.13 309.72C188.26 308.41 187.46 309.36 186.6 309.56L186.69 309.63C187.51 303.94 185.77 302.52 179.75 304.21C184.78 301.78 183.54 298.92 180.79 295.82C178.21 292.92 177.36 287.26 173.85 286.94C170.87 286.67 167.3 290.31 164.39 292.71C160.54 295.89 155.9 297.63 151.81 300.35C149.2 302.08 148.25 299.87 147.74 297.66H147.76Z" fill="#D48057"/>
<path d="M113.42 339.26C111.88 339.47 110.41 340.49 108.8 339.11C103.84 334.87 98.77 330.74 93.75 326.57C93.77 326.34 93.8001 326.11 93.8201 325.88C94.9101 321.19 93.9801 316.71 92.3401 312.31C92.4301 312.09 92.5301 311.88 92.6201 311.66C101.02 306.25 106.09 297.93 111.48 289.91C112.1 288.99 112.06 287.63 113.65 287.76C117.59 291.93 116.46 297.22 116.82 302.18C118.25 304.59 117.91 307.53 119.22 309.97C119.61 310.91 119.54 311.89 119.45 312.87C120.55 317.08 120.87 321.24 118.62 325.23C118.04 326.26 117.75 327.61 118.04 328.56C119.33 332.81 117.39 335.84 114.7 338.7C114.33 339.02 113.9 339.2 113.42 339.26Z" fill="#F6B141"/>
<path d="M186.72 299.58C182.85 296.11 180.83 291.26 177.65 287.28C176.17 285.43 177.59 284.71 178.93 283.92C187.81 278.66 195.29 271.5 203.75 265.66C206.81 263.55 210.33 261.35 209.67 256.63C210.01 256.63 210.35 256.64 210.69 256.65C210.86 259.5 210.78 262.3 208.72 264.6C208.55 269.3 208.83 274.01 208.65 278.71C209.63 280.92 211.64 282.92 209.99 285.64C201.85 289.72 194.36 294.89 186.63 299.65L186.71 299.59L186.72 299.58Z" fill="#17233A"/>
<path d="M113.42 339.26C113.54 339.09 113.62 338.9 113.68 338.69C118.05 333.89 123.43 330.2 128.08 325.72C128.61 325.32 129.02 324.63 129.62 324.48C135.61 322.94 139.04 318.28 142.68 313.86C141.09 315.72 139.09 317.12 137.92 319.45C137.06 321.15 134.71 323.09 133.19 322.6C130.11 321.61 129.89 324.22 128.43 325.24C127.35 326 126.21 326.28 124.98 325.64C123.07 324.22 121.16 322.79 123.5 320.25C123.88 319.31 122.85 319.35 122.5 318.9C120.45 316.16 121.5 312.47 119.61 309.68C119.23 306.88 118.67 303.96 123.07 304.17C123.55 304.35 123.99 304.62 124.38 304.95C124.79 305.46 124.3 304.78 124.71 305.3C126.32 307.37 127.56 310.4 129.74 311.19C132.2 312.08 132.97 308.18 135.15 307.02C137.95 305.53 137.81 305.26 143.48 306.72C147.38 306.58 148.86 310.23 151.43 312.08C152.74 313.03 150.16 314.34 149.7 315.65C148.9 317.94 144.66 319.26 147.7 322.65C147.37 323.34 147.05 324.03 146.72 324.71C144.88 325.22 146.52 320.71 144.03 322.71C142.95 323.58 139.39 323.93 141.91 326.85C143.17 328.3 141.91 328.86 141.06 329.55C139.41 330.89 139.65 329.78 138.94 328.5C138.12 327.03 136.7 328.81 135.92 329.68C134.37 331.39 133.04 333.31 131.53 335.06C130.93 335.75 130.09 336.89 129.1 335.96C127.76 334.71 126.57 333.45 125.12 335.55C123.61 337.73 126.58 338.25 127.28 339.96C123.99 340.74 120.78 340.98 118.41 343.34C117.42 344.32 116.39 345.8 114.7 344.18C113.23 342.78 111.52 341.49 113.43 339.24L113.42 339.26Z" fill="#F3AF3E"/>
<path d="M181.55 349.62C181.24 346.15 180.9 342.69 180.65 339.22C180.55 337.75 179.92 336.57 178.7 335.97C177.15 335.21 176.93 337.02 176.15 337.69C167.05 345.61 156.56 351.52 146.94 358.54C145.63 357.09 146.15 356.19 146.7 355.35C154.11 344.09 154.58 330.97 156.74 318.28C157.28 315.11 154.35 314.67 153.26 312.83C156.61 312.75 157.94 315.41 159.66 317.55C161.1 324.65 160.58 331.61 158.09 338.58C159.98 337.11 162.6 337.63 164.18 335.74C164.46 335.4 165.06 335.41 165.57 335.6C171.49 337.76 171.76 337.67 175.31 332.73C182.46 337.66 189.05 343.15 193.66 350.69C193.16 351.81 194.09 353.83 191.71 353.75L189.78 352.6C188.07 350.79 188.88 347.56 185.83 346.17C184.82 347.43 185.44 349.65 183.9 350.74C182.74 351.16 182.07 350.55 181.55 349.63V349.62Z" fill="#2B2620"/>
<path d="M147.69 207.61C142.89 212.2 138.21 216.93 133.22 221.3C130.96 223.28 131.19 224.48 133.11 226.38C136.36 229.61 139.39 233.06 142.04 236.89C136.42 234.47 133.65 228.91 129.33 225.17C125.68 228.56 122.05 231.93 118.43 235.28C118.19 235.51 117.85 235.65 117.65 235.9C116.51 237.36 116.63 241.47 113.98 239.56C112.04 238.17 115.56 236.12 116.77 234.61C119.47 231.26 122.45 228.08 125.67 225.22C127.57 223.53 127.46 222.77 125.77 221.08C121.41 216.75 117.31 212.16 113.06 207.72C111.47 206.07 110.95 204.91 113.04 202.94C115.29 200.81 116.8 197.91 118.72 195.41C119.37 194.57 120.08 193.04 121.42 193.98C122.85 194.98 121.57 195.97 120.89 196.85C119.78 198.3 118.95 200.15 117.53 201.15C112.9 204.4 114.67 206.89 117.91 209.8C121.12 212.68 124.15 215.81 126.95 219.08C128.66 221.07 129.64 221.25 131.47 219.22C136.26 213.92 141.46 209.03 147.57 205.21C148.35 205.96 148.25 206.76 147.68 207.58L147.69 207.61Z" fill="#D57A54"/>
<path d="M193.77 269.53C189.61 267.91 188.35 263.79 186.77 260.4C184.93 256.47 182.7 252.82 180.45 249.18C179.45 247.57 178.12 249.41 177.13 250.04C173.2 252.56 169.33 255.19 164.3 258.54C165.83 254.08 168.97 253.68 171.09 252.2C179.64 246.24 179.87 244.98 173.64 236.84C173.02 236.03 169.62 235.88 172.19 233.96C173.59 232.91 174.76 234.83 175.51 236.1C177.25 239.05 179.33 241.82 180.25 245.88C188.41 239.22 196.19 233.16 202.7 225.65H202.69C207.26 223.94 209.61 219.58 213.27 216.78C214.04 216.19 214.63 214.36 215.99 215.88C217.12 217.13 215.91 218.02 215.11 218.79C211.3 222.42 207.82 226.28 203.23 229.19C198.95 231.91 194.57 235.29 193.26 240.82C192.95 242.15 192.1 241.93 191.55 241.72C190.1 241.16 189.04 241.72 187.85 242.42C181.1 246.37 181.27 246.28 185.74 254.26C187.88 258.07 189.62 259.96 191.6 256.99C186.19 260.62 193.17 264.93 193.71 269.63L193.78 269.55L193.77 269.53Z" fill="#D48057"/>
<path d="M175.31 332.73C175.97 336.62 172.5 337.52 170.38 339.27C168.88 340.5 166.93 341.19 165.09 342.17C164.51 340.27 166.63 338.5 165.32 336.37C163.17 337.18 163.57 339.67 162.31 341.06C160.85 340.57 162.43 338.82 160.88 338.32C158.36 339 158.02 342.44 154.81 343.85C158.49 335.1 158.33 326.2 159.66 317.55C164.39 319.96 162.65 324.16 162.51 327.91C162.46 329.24 162.23 330.56 162.18 331.89C162.14 332.82 161.73 334.14 163.04 334.41C164.48 334.7 165.27 333.38 165.28 332.3C165.31 329.33 165.02 326.36 164.85 323.36C170.63 325.93 171.91 328.39 171 335.18C172.88 335.12 172.87 331.75 175.32 332.73H175.31Z" fill="#EDB43F"/>
<path d="M121.22 184.56C125.05 183.86 123.28 180.33 124.44 177.24C125.74 183.25 129.3 179.8 130.73 179.14C132.72 178.22 130.82 177.03 129.35 176.37C127.11 175.36 124.44 174.44 125.99 171.03C127.39 170.54 127.7 171.82 128.42 172.39C129.34 173.11 130.26 174.04 131.49 173.37C131.89 173.15 131.98 172.2 132.03 171.56C132.16 170.07 131.59 168.93 130.04 168.55C129.08 168.31 127.92 168.49 127.14 168.01C125.84 167.21 125.65 165.77 126.45 164.49C127.48 162.85 127.97 164.5 128.56 165.01C129.93 166.21 131.41 166.18 132.52 164.93C134.05 163.22 133.07 161.6 131.94 160C130.71 158.27 126.33 157.65 128.25 155.27C129.99 153.12 132.28 156.88 134.46 157.73C138.02 159.12 137.89 161.91 135.9 164.53C133.5 167.7 137.22 167.76 138.04 169.28C136.03 170.52 132.91 178.67 133.61 180.96C134.55 184.07 136.95 181.91 138.64 182.31C135.93 184.47 132.67 185.05 129.45 184.57C126.66 184.16 123.97 184.46 121.23 184.54L121.22 184.56Z" fill="#2F281F"/>
<path d="M213.6 117.66C214 117.62 214.4 117.58 214.8 117.54C217.42 129.48 220.02 141.43 222.68 153.36C223.36 156.43 224.26 159.45 225.06 162.49C224.57 162.52 224.08 162.56 223.59 162.59C222.74 160.71 223.15 156.83 219.22 159.88C217.86 160.94 216.54 160.58 215.98 159.12C215.29 157.32 217.26 157.67 218.08 157.11C219.05 156.44 221.63 157.58 220.73 154.84C220.02 152.68 218.58 154.29 217.45 154.35C216.79 154.39 216.13 154.53 215.47 154.52C214.13 154.5 213.13 153.76 213.17 152.45C213.22 151.04 214.63 151.43 215.5 151.36C216.97 151.24 218.46 151.33 220.24 151.33C219.24 146 210.95 150.23 210.55 143.44C213.23 145.24 215.8 145.92 218.93 146.75C218.71 139.08 208.61 142.38 207.98 135.84C211.22 136.18 213.8 139.03 217.35 139.15C218.11 136.12 216.84 135.04 213.79 134.26C209.99 133.29 204.59 133.06 206.25 126.25C209.85 127.73 212.03 131.31 215.9 132.21C215.44 127.43 215.63 122.39 213.6 117.67V117.66Z" fill="#2D1F17"/>
<path d="M209.47 171.97C212.99 172.79 213.66 177.82 216.53 176.79C219 175.91 220.59 172.59 222.58 170.36C223.43 169.4 224.12 168.24 225.97 167.79C225.53 171.7 222.79 173.78 220.75 176.11C212.14 185.92 203.19 195.44 193.72 204.43C189 208.91 188.81 208.71 184.94 202.59C189.05 206.43 190.91 202.86 193.13 200.68C199.42 194.5 205.47 188.07 212 182.15C215.01 179.42 215.2 177.64 212.1 175.2C211.15 174.45 210.53 173.28 209.47 171.96V171.97Z" fill="#D87E4E"/>
<path d="M183.77 350.62V340.98C186.9 344.95 192.92 346.27 189.78 352.59C188.74 357.61 187.7 362.63 186.66 367.64L186.75 367.57C185.59 368.88 184.78 371 182.49 370.12C180.54 369.37 180.81 367.3 180.88 365.78C181.12 360.6 182.9 355.69 183.77 350.61V350.62Z" fill="#F5BA42"/>
<path d="M147.69 207.61C147.65 206.82 147.61 206.03 147.58 205.24C144.79 200.9 140.92 197.63 136.9 194.51C136.08 193.88 134.43 193.82 136.05 192.15C137.61 190.54 137.82 192.21 138.51 192.88C141.24 195.54 144.21 197.99 146.65 200.89C149.11 203.81 150.14 203.14 151.9 200.18C155.03 194.91 159.41 190.75 165.26 188.28C160.19 195.44 154.41 201.95 147.69 207.6V207.61Z" fill="#9B624C"/>
<path d="M164.32 229.29C163.88 228.99 163.31 228.81 163.16 228.44C163.02 228.12 163.22 227.45 163.5 227.19C170.51 220.89 177.54 214.62 184.6 208.37C185.21 207.83 186.05 207.5 186.84 208.18C187.79 209 187.09 209.73 186.52 210.24C179.71 216.25 172.87 222.22 166.02 228.19C165.53 228.62 164.92 228.9 164.31 229.29H164.32Z" fill="#E08B4B"/>
<path d="M143.46 306.73C143.26 307.79 142.67 308.86 141.58 308.58C136.4 307.25 135.13 307.6 132.5 312.35C130.98 315.1 129.69 315.56 128.26 312.52C127.06 309.97 124.26 308.52 123.71 305.58C123.97 304.42 124.73 303.82 125.86 303.61C126.44 303.59 127.02 303.58 127.59 303.56C129.05 303.82 129.13 305.54 130.3 306.18C131.55 304.6 130.78 301.74 133.53 301.19C133.95 301.68 134.38 302.16 134.8 302.65C136.73 302.69 138.61 304.24 140.58 302.84C142.26 303.61 141.25 306.36 143.46 306.73Z" fill="#453016"/>
<path d="M238.72 195.18C238.73 195.82 239 196.85 238.72 197.04C234.83 199.6 237.03 202.66 237.92 205.61C233.32 200.66 230.45 204.91 227.37 207.65C225.01 209.75 222.77 211.97 220.42 214.2C219.09 213.34 218.48 212.08 218.19 211.24C226 206.91 231.26 199.57 238.73 195.18H238.72Z" fill="#D48057"/>
<path d="M133.53 301.19C133.14 303.25 132.95 305.39 132.26 307.35C131.89 308.41 131.65 310.4 130.14 310.16C128.85 309.96 127.85 308.71 128.19 306.86C128.38 305.83 127.81 304.66 127.59 303.56C127.25 300.81 126.9 298.06 126.48 294.63C129.35 296.89 133.62 296.55 133.53 301.19Z" fill="#F2BB41"/>
<path d="M186.64 299.64C193.1 293.29 201.38 289.54 208.61 284.29C209.75 283.46 209.59 285.1 210 285.63C209.88 286.62 209.75 287.6 209.63 288.59C207.36 288.55 207.32 289.96 207.66 291.62L207.72 291.57C205.49 289.67 203.5 290.32 201.14 291.68C196.37 294.43 192.34 298.57 186.64 299.64Z" fill="#D0795B"/>
<path d="M120.64 259.62C120.4 263.8 116.32 264.18 113.91 266.03C111.3 268.04 111.01 268.95 113.88 270.86C116.2 272.41 118.72 274.02 120.1 276.95C118.02 277.34 117.08 275.92 115.96 275.16C113.17 273.26 109.51 271.89 109.24 267.88C109.1 265.82 117.72 259.99 120.72 259.68L120.66 259.61L120.64 259.62Z" fill="#BD6852"/>
<path d="M181.48 198.81C178.51 197.13 177.32 193.82 174.91 191.7C174.35 191.21 174.55 189.58 175.28 189.66C181.68 190.32 184.17 184.47 188.6 181.9C188.84 181.76 189.23 181.88 189.74 181.88C190.35 184.29 188.08 184.8 186.89 185.81C184.62 187.72 181.78 189.06 179.81 191.21C176.94 194.35 183.48 195.2 181.49 198.82L181.48 198.81Z" fill="#7A544C"/>
<path d="M125.85 303.61C126.06 305.28 125.08 305.65 123.7 305.58L123.73 305.67C121.18 303.83 119.84 301.36 119.82 298.2C119.57 296.08 119.32 293.95 119.03 291.45C122.06 291.96 124.32 292.81 123.84 296.6C123.51 299.18 124.37 301.5 125.85 303.6V303.61Z" fill="#E2AA49"/>
<path d="M161.47 175.89C161.31 175.88 161.14 175.88 160.98 175.85C159.6 175.57 157.76 174.37 159.42 173.56C162.61 171.99 161.3 170.61 160.18 168.83C162.05 168.08 163.66 167.57 165.71 169.06C169.55 171.86 164.79 172.15 164.62 173.71C163.03 173.66 162.1 174.55 161.47 175.89Z" fill="#6B4B29"/>
<path d="M202.69 225.63C198.2 221.67 196.02 216.18 193.02 211.23C198.55 214.5 201.33 219.59 202.68 225.63H202.69Z" fill="#BE7155"/>
<path d="M209.64 251.28C210.42 245.01 212.5 238.6 206.46 233.35C213.59 238 213.64 237.42 209.64 251.28Z" fill="#BE7D5F"/>
<path d="M166.41 185.59C168.63 182.9 171.06 181.53 171.75 178.75C172 177.75 173.37 177.67 174.33 178.13C174.94 178.42 175.33 179.2 174.89 179.8C172.94 182.47 171.55 185.96 166.41 185.59Z" fill="#ECA746"/>
<path d="M104.45 282.73C105.03 285.03 100.51 285.78 102.76 288.97C103.49 290 101 291.33 99.5301 290.85C97.6501 290.23 99.2301 288.99 99.5501 288.08C100.2 286.23 100.96 284.42 101.67 282.59C102.63 281.89 103.56 281.97 104.45 282.73Z" fill="#CC8E45"/>
<path d="M222.93 314.56C223.92 314.68 230.83 321.61 230.84 322.5C230.84 323.78 229.58 323.89 229.17 323.51C226.5 321.08 223.89 318.57 221.49 315.89C220.96 315.3 221.93 314.5 222.92 314.56H222.93Z" fill="#F0A250"/>
<path d="M191.71 353.74C192.78 352.99 191.9 351 193.66 350.68C197.87 354.99 194.59 357.53 190.91 360.75C191.23 357.97 191.47 355.86 191.71 353.74Z" fill="#D68E4E"/>
<path d="M119.82 298.2C120.35 301.1 122.4 303.19 123.73 305.67C119.13 304.13 121.5 308.04 120.74 309.49C120.17 310.15 119.49 310.3 118.69 309.94C116.96 307.94 116.61 305.93 118.62 303.88C120.2 302.23 119.38 300.08 119.82 298.2Z" fill="#453016"/>
<path d="M140.58 302.84C140.23 305.98 137.44 305.01 135.78 305.29C134.29 305.54 135.19 303.56 134.8 302.65C135.15 301.1 135.08 298.91 137.62 301.02C138.5 301.75 139.59 302.24 140.58 302.84Z" fill="#F3AF3E"/>
<path d="M177.4 232.22C178.41 230.77 179.31 229.48 180.22 228.16C181.47 227.92 181.32 228.79 181.49 229.61C181.91 231.64 185.71 229.96 185.09 232.68C185 233.06 181.44 232.66 179.49 232.57C178.85 232.54 178.22 232.36 177.4 232.21V232.22Z" fill="#6D514A"/>
<path d="M229.45 194.73C225.43 192.48 223.16 188.75 220.87 185.04C224.64 187.5 227.29 190.91 229.45 194.73Z" fill="#D87E4E"/>
<path d="M207.66 291.63C211.69 294.23 212.64 298.67 214.53 302.55C214.18 302.75 213.83 302.96 213.48 303.16C211.56 299.3 209.64 295.44 207.72 291.58L207.66 291.63Z" fill="#9E7265"/>
<path d="M210.67 321.61C213.35 320.09 216.04 318.57 218.72 317.05C218.94 317.49 219.17 317.92 219.39 318.36C217.18 320.84 214.47 322.32 210.62 321.55L210.67 321.61Z" fill="#D48057"/>
<path d="M161.53 212.44C160.36 215.32 158.46 216.73 156.31 218.09C157.65 213.64 157.94 213.3 161.53 212.44Z" fill="#85584A"/>
<path d="M214.67 304.12C217.22 306.44 218.56 308.73 218.72 311.73C216.7 309.86 214.57 308.05 214.67 304.12Z" fill="#DF995C"/>
<path d="M118.63 303.88C117.44 305.76 118.38 307.69 118.52 309.6C119.05 310.12 118.96 310.45 118.23 310.6C115.33 308.19 117.19 305 116.83 302.17C117.43 302.74 118.03 303.31 118.63 303.88Z" fill="#F3AF3E"/>
<path d="M186.62 309.56C187.97 312.87 184.96 314.84 183.83 318.8C184.16 314.6 184.72 311.88 186.71 309.63L186.62 309.56Z" fill="#D48057"/>
<path d="M165.39 221.9C162.37 221.78 161.74 219.41 159.95 216.61C163.44 217.67 164.36 219.84 165.39 221.9Z" fill="#85584A"/>
<path d="M208.85 200.29C207.13 199.53 204.2 200.39 204.36 196.81C206.48 197.42 208.07 198.3 208.85 200.29Z" fill="#95665E"/>
<path d="M137.66 431.49C137.17 431.51 136.33 431.69 136.26 431.52C133.45 425.3 128.3 420.52 125.64 414.21C126.81 415.33 127.99 416.45 129.27 417.67C135.24 409.96 141.12 402.35 147.06 394.67C151.55 399.22 154.01 405.13 159.25 408.59C158.3 410.5 157.73 412.7 155.48 413.65C152.93 412.97 152.61 415.33 151.74 416.61C148.65 421.16 144.94 425.2 141.44 429.41C140.45 430.6 139.35 431.56 137.67 431.48L137.66 431.49Z" fill="#076066"/>
<path d="M183.77 350.62C184.58 354.53 185.97 358.28 182.58 362.02C181.12 363.63 185.45 366.76 181.63 368.63C184.21 370.41 185.06 367.56 186.75 367.57C184.21 372.85 180.83 377.54 176.68 381.67C175.28 376.62 181.11 375.75 182.24 371.93C180.09 371.03 180.24 374.79 177.96 373.61C176.71 372 179.59 370.28 178.5 368.37C175.96 368.97 175.91 374.36 173.15 372.45C171.01 370.97 175.28 368.57 175.31 366.09C175.31 365.93 175.34 365.71 175.44 365.62C180.18 361.31 180.88 355.47 181.54 349.62C182.28 349.95 183.02 350.29 183.77 350.62Z" fill="#172238"/>
<path d="M137.66 431.49C143.68 424.14 149.69 416.78 155.84 409.27C157.53 411.37 155.86 412.39 155.48 413.65C150.52 420.95 145.94 428.55 138.73 433.97C138.37 433.14 138.02 432.32 137.66 431.49Z" fill="#F3DE73"/>
<path d="M166.65 396.66C167.56 394.24 164.83 392.93 164.74 390.31C168.43 392.44 169.64 391.25 169.76 387.4C169.82 385.4 169.45 381.49 174.03 383.33C174.61 383.56 175.83 382.19 176.75 381.57C173.99 387.01 170.59 392.02 166.66 396.67L166.65 396.66Z" fill="#2D2714"/>
<path d="M73.79 418.68C80.66 414.42 87.5199 410.15 94.8899 406.79C96.4299 406.09 97.8899 405.59 99.4099 407.12C102.46 410.18 105.67 413.08 108.77 416.09C110.66 417.93 110.41 419.32 108 420.69C101.9 424.14 96.4399 428.46 91.6599 433.61C90.4299 434 89.38 433.67 88.46 432.8C83.53 428.13 78.05 424.04 73.78 418.68H73.79Z" fill="#F2924B"/>
<path d="M93.8799 437.54C96.6299 432.92 101.68 431.17 105.77 428.3C115.59 421.42 116.3 421.69 123.21 431.75C127.39 437.83 127.33 438.36 120.63 441.9C116.4 444.14 112.49 446.94 107.92 448.65C104.65 449.87 102.62 449.39 100.98 446.35C99.82 444.19 98.3599 442.2 96.4299 440.61C96.0899 439.16 95.0301 438.31 93.8701 437.54H93.8799Z" fill="#F37D5D"/>
<path d="M55.8401 402.65C62.2301 399.11 68.3701 395.16 74.1001 390.66C76.4201 388.84 77.9 388.94 80.01 390.67C83.46 393.51 87.09 396.12 90.79 398.94C84.91 405.32 77.29 409.65 73.54 417.53C66.73 413.65 60.7101 408.84 55.8401 402.65Z" fill="#F18256"/>
<path d="M56.7098 373.11C60.0498 375.22 63.3199 377.45 66.7499 379.39C69.7699 381.09 70.2698 382.92 67.8798 385.53C63.0798 390.76 58.34 396.05 53.57 401.31C47.47 400.47 43.8199 395.5 38.9899 392.53C36.7399 391.15 39.0898 389.93 39.8898 389.14C45.4198 383.72 51.0898 378.44 56.7098 373.11Z" fill="#F19B47"/>
<path d="M163.69 161.59C159.957 165.437 156.187 165.147 152.38 160.72C151.32 159.49 150.16 158.33 148.81 156.89C151.98 155.93 154.05 156.6 155.69 159.18C156.41 160.32 157.33 162.17 159 161.56C160.22 161.11 160.19 159.39 160.12 158.01C160.06 156.86 160.15 155.69 161.3 154.93C163.94 155.66 161.77 158.73 163.69 159.78C164.28 160.38 164.31 160.98 163.7 161.59H163.69Z" fill="#3B2A20"/>
<path d="M115 150.33C118.31 149.29 121.08 150.02 121.24 153.58C121.35 155.93 119.48 158.18 116.73 158.8C115.57 159.06 109.68 153.8 109.88 152.6C110.42 149.26 112.74 149.65 115 150.33Z" fill="#292129"/>
<path d="M191.19 126.75C191.59 127.21 192.12 127.78 192.59 128.39C193.24 129.24 193.82 129.81 195.02 129.08C196.15 128.39 197.2 125.6 198.6 127.75C199.65 129.36 200 132.34 199.2 134.01C198.15 136.2 195.49 135.56 193.47 134.48C191.27 133.3 188.97 132.09 189.26 129.02C189.35 128.09 189.58 127 191.19 126.75Z" fill="#291F23"/>
<path d="M189.75 170.49C191.38 166.62 193.01 162.76 194.62 158.89C195.39 157.04 196.67 155.82 198.76 155.97C199.72 156.04 200.98 156.55 200.05 157.84C196.85 162.26 194.9 167.62 189.75 170.5V170.49Z" fill="#35291D"/>
<path d="M186.84 163.66C189.14 159.2 187.19 153.02 192.82 149.91C193.66 149.44 194.66 148.65 195.46 149.67C196.29 150.74 195.05 151.32 194.52 152.1C191.95 155.91 191.67 161.16 186.84 163.66Z" fill="#3A2A1B"/>
<path d="M184.55 138.85C182.27 144.49 181.1 149.34 177.71 153.65C175.81 145.49 177.34 141.82 184.55 138.85Z" fill="#2D2316"/>
<path d="M170.86 147.03C170.08 146.88 169.87 146.32 169.8 145.61C169.53 142.77 173.91 136.14 176.51 135.32C177.5 135.01 178.06 135.24 178.39 136.16C179.06 138.03 172.71 147.18 170.86 147.03Z" fill="#32291F"/>
<path d="M190.25 144.28C188.49 148.17 187.78 152.38 185.03 155.59C184.35 156.38 183.65 157.87 182.29 156.88C181.17 156.06 182.55 155.14 182.65 154.25C182.85 152.29 187.08 150.62 183.11 148.34C184.92 146.13 187.39 145 190.25 144.29V144.28Z" fill="#362718"/>
<path d="M133.26 148.59C135.85 148.65 142.83 156.44 142.41 158.87C142.26 159.77 141.59 160.58 140.72 159.96C137.05 157.34 135.13 153.13 131.97 150C131.27 149.31 132.29 148.62 133.25 148.59H133.26Z" fill="#2D261E"/>
<path d="M164.95 146.53C164.51 141.32 166.03 137.7 166.26 133.95C166.38 131.89 167.73 131.96 169.03 132.64C170.26 133.29 173.07 133.59 171.18 135.83C168.75 138.71 167.89 142.43 164.95 146.53Z" fill="#34271F"/>
<path d="M163.69 161.59C163.69 160.99 163.69 160.38 163.69 159.78C163.95 159.59 164.26 159.44 164.47 159.2C166.2 157.28 167.85 154.53 170.85 156.96C173.96 159.47 171.17 161.51 169.81 163.57C169.44 163.97 169.03 164.01 168.6 163.67C166.49 164.1 165.16 162.69 163.7 161.59H163.69Z" fill="#3A2B22"/>
<path d="M148.1 150.28C144 146.76 142.58 143.24 140.75 140.04C140.5 139.61 140.66 138.69 140.97 138.24C141.6 137.35 142.46 137.83 143.11 138.33C146.6 141.07 146.91 145.03 148.1 150.28Z" fill="#0E2A26"/>
<path d="M136.26 143.44C140.75 143.8 142.32 146.43 143.6 149.26C143.99 150.12 143.91 151.22 142.67 151.69C141.51 152.14 140.43 152.4 139.76 150.97C138.72 148.75 137.69 146.53 136.26 143.44Z" fill="#241D12"/>
<path d="M168.59 163.67C168.99 163.64 169.4 163.61 169.8 163.57C172.77 165.51 175.26 162.51 178.84 162.51C176.54 165.15 175.18 168.02 171.93 167.96C169.65 167.92 168.78 165.83 168.58 163.66L168.59 163.67Z" fill="#2F2417"/>
<path d="M149.83 169.87C151.73 170.32 154.23 170.5 154.99 173.19C155.23 174.03 154.26 174.7 153.35 174.51C151.07 174.03 148.89 173.12 147.8 170.96C147.41 170.19 148.59 169.76 149.82 169.86L149.83 169.87Z" fill="#42301D"/>
<path d="M155.17 168.19C154.5 168.3 153.99 168.54 153.57 168.43C151.23 167.8 148.57 167.73 147.29 165.17C147.21 165.02 148.12 164.01 148.56 164.02C151.49 164.09 153.99 164.98 155.17 168.2V168.19Z" fill="#352417"/>
<path d="M110.47 172.66C110.12 172.71 109.77 172.77 109.43 172.82C105.59 172.04 107.87 168.54 106.66 166.59C108.97 167.96 110.49 169.82 110.47 172.65V172.66Z" fill="#3F2919"/>
<path d="M182.73 168.44C182.3 169.93 181.15 169.89 179.99 169.73C178.94 169.59 178.05 169.06 178.19 167.89C178.34 166.59 179.26 165.86 180.58 166.15C181.73 166.41 182.61 167.12 182.73 168.44Z" fill="#4B3013"/>
<path d="M137.66 175.18C139.373 174.747 140.977 174.977 142.47 175.87C140.783 176.357 139.18 176.127 137.66 175.18Z" fill="#2F281F"/>
<path d="M132.5 69.7199C132.5 69.3199 132.5 68.93 132.5 68.53C128.57 65.84 126.66 61.4 123.47 58.05C121.46 55.94 120.34 56.16 119.14 58.62C117.83 61.3 116.56 64 115.06 66.58C112.29 71.34 108.5 72.0999 105.17 67.9299C101.93 63.8699 97.18 60.8899 95.71 55.4899C95.74 53.6299 96.61 52.6299 98.54 52.7099C102.13 53.8099 103.86 57.0799 106.36 59.4499C110.14 63.0299 110.12 63.0099 112.47 58.5199C114.13 55.3499 114.93 51.5199 118.61 49.7299C120.54 48.8399 122.18 49.26 123.56 50.84C126.76 51.23 128.02 54.1 129.87 56.06C132.37 58.72 133.74 58.12 135.45 55.31C137.33 52.24 137.63 48.2499 140.85 45.9799C142.72 45.6499 144.55 44.01 146.48 45.81C150.61 46.98 151.92 51.34 155.39 53.8C158.65 49.61 157.7 42.7199 163.92 40.7299C165.12 40.7299 166.32 40.7199 167.51 40.7099C171.46 40.9799 172.67 44.5598 174.85 46.8998C176.78 48.9698 177.82 48.9899 179.03 46.2599C180.74 42.3999 181.45 37.83 185.77 35.6C186.09 35.55 186.39 35.46 186.68 35.32C190.35 34.49 193.03 35.8598 195.15 38.8798C197.75 42.5898 202.46 44.67 203.52 49.6C203.64 50.81 203.76 52.0199 203.88 53.2199C196.31 56.2299 188.72 59.2 180.69 60.82C178.95 63.59 176.31 62.34 173.94 62.32C171.59 62.81 169.23 63.31 166.88 63.8C165.97 64.29 165.58 63.7999 165.34 62.9999C166.05 60.1199 168.64 59.9299 170.81 59.4199C174.26 58.6199 174.33 57 172.38 54.57C171.86 53.92 171.41 53.1898 170.8 52.6398C169.04 51.0398 168.27 47.33 165.56 48.12C163.24 48.8 163.3 52.29 162.51 54.62C161.5 57.59 161.6 60.92 159.65 63.6C159.34 63.97 158.96 64.2599 158.54 64.4999C156.03 65.4899 154.02 64.4798 152.18 62.8798C150.79 61.6698 149.79 60.12 148.54 58.79C146.87 57.01 145.73 53.38 143.49 53.82C140.64 54.38 140.68 58.27 139.72 60.82C139.08 62.52 138.75 64.34 138.03 66.03C137.3 67.23 136.84 68.5898 135.85 69.6398C134.73 69.6598 133.6 69.6899 132.48 69.7099L132.5 69.7199Z" fill="#F49F51"/>
<path d="M95.71 55.49C100.43 58.75 103.47 63.6101 107.13 67.8401C109.78 70.9101 111.46 70.2899 113.03 67.1799C115.48 62.3499 117.83 57.4601 120.59 51.8501C124.93 57.6001 130.19 61.94 132.5 68.53C118.98 68.84 105.79 71.54 92.6102 74.21C91.2002 74.49 89.71 75.1901 88.44 73.8101C87.38 71.4001 88.53 69.2599 89.64 67.3799C91.84 63.6399 91.7001 58.8699 94.9701 55.6499C95.2301 55.6199 95.4801 55.57 95.7201 55.49H95.71Z" fill="#161D3B"/>
<path d="M95.5901 31.73C98.7901 31.68 102.25 38.27 101.68 43.93C101.16 49.04 95.89 48.3001 93.55 47.5601C87.6 45.7001 90.15 39.5001 89.46 35.2801C88.65 30.3401 94.2001 33.79 95.6001 31.73H95.5901Z" fill="#079293"/>
<path d="M118.61 49.72C116.52 54.2 114.34 58.6399 112.39 63.1799C111.26 65.8099 110.24 66.0301 108.3 63.8701C105.01 60.1801 101.3 56.87 98.54 52.71C105.23 51.72 111.92 50.72 118.61 49.73V49.72Z" fill="#85144C"/>
<path d="M74.46 56.9199C80.46 54.8299 86.72 54.26 93 53.8C94.29 60.18 90.2999 65.0499 88.1499 70.4299C87.8399 71.1999 86.53 71.52 85.97 70.99C81.51 66.82 75.37 63.9899 74.47 56.9199H74.46Z" fill="#7E1448"/>
<path d="M185.78 35.5901C183.68 40.2401 181.51 44.8701 179.51 49.5701C178.61 51.7001 177.86 52.6699 175.97 50.3799C173.24 47.0799 170.35 43.92 167.53 40.7C167.98 38.86 169.47 38.83 170.96 38.54C175.9 37.58 180.68 35.7401 185.78 35.5901Z" fill="#861346"/>
<path d="M140.86 45.98C139.68 51.78 136.74 56.71 133.13 61.53C129.68 58.16 126.13 54.9601 123.57 50.8401C123.63 49.1401 124.75 48.73 126.2 48.5C131.1 47.71 135.98 46.83 140.86 45.98Z" fill="#9C134C"/>
<path d="M118.29 27.8001C120.45 27.4801 121.69 27.9801 122.1 29.8101C122.83 33.0301 123.59 36.2501 124.3 39.4801C124.84 41.9501 122.8 42.62 121.35 42.38C119.1 42.01 116.11 45.8801 114.65 41.5201C113.55 38.2401 112.46 34.84 112.19 31.42C111.78 26.23 116.96 29.7301 118.29 27.8001Z" fill="#079893"/>
<path d="M163.94 35.3899C162.14 35.8899 161.73 34.54 161.36 33.25C160.67 30.88 160.02 28.4901 159.38 26.1001C157.89 20.4801 159.75 18.4001 165.49 19.0901C166.99 19.2701 167.37 20.1401 167.62 21.3501C168.08 23.6101 168.49 25.8801 169.07 28.1101C170.52 33.7301 169.57 35.1399 163.94 35.3799V35.3899Z" fill="#069190"/>
<path d="M163.93 40.72C159.37 45.32 158.89 51.7201 156.51 58.0601C152.45 54.1901 149.33 50.1201 146.49 45.8101C151.65 41.8701 157.98 41.96 163.93 40.72Z" fill="#7D1049"/>
<path d="M74.46 56.92C78.54 61.34 82.61 65.7601 87.01 70.5201C89.05 64.8301 91.02 59.3201 93 53.8001C94.68 53.3201 94.78 54.5199 94.96 55.6399C94.42 62.2799 91.0599 67.9001 88.4399 73.8001C87.5399 74.9701 86.52 75.7601 84.99 74.8601C81.39 69.6001 76.8099 65.1699 72.6299 60.3899C72.0099 59.7899 71.39 59.1901 70.77 58.6001C71.47 56.8701 72.69 56.29 74.46 56.92Z" fill="#F49E4D"/>
<path d="M142.21 23.7C143.75 23.47 144.51 24.1801 144.83 25.7901C145.24 27.8901 146.11 29.9101 146.37 32.0201C146.66 34.3401 149.07 37.26 144.07 38.25C139.9 39.08 137.75 38.2601 137.05 34.0701C136.86 32.9301 136.53 31.82 136.27 30.7C135.01 25.31 136.51 23.52 142.21 23.7Z" fill="#069694"/>
<path d="M203.53 49.5901C199.43 45.1301 194.37 41.6299 190.78 36.6699C189.77 35.2799 188.12 35.6001 186.7 35.3101C191.45 33.8101 196.09 31.8999 201.11 31.3999C202.39 37.4099 203.13 43.4801 203.54 49.5901H203.53Z" fill="#A41D4A"/>
<path d="M191.85 24.6398C192.63 28.6598 190.15 29.1499 187.04 29.9199C182.8 30.9699 183.86 27.7399 183.31 25.9399C182.83 24.3899 183.12 22.58 182.57 21.07C180.9 16.51 182.79 15.4398 187.09 15.3898C189.91 15.3498 190.91 16.03 190.97 18.79C191.01 20.75 191.54 22.6998 191.86 24.6498L191.85 24.6398Z" fill="#07969A"/>
<path d="M72.8402 35.8201C74.3902 35.8701 74.4801 38.37 74.4801 40.05C74.4801 43.7 78.8001 47.46 75.0301 50.75C73.2401 52.31 69.9401 52.78 69.5401 48.3C69.3001 45.54 68.3701 42.8401 67.7701 40.1201C67.0801 37.0101 68.7302 35.9301 72.8502 35.8201H72.8402Z" fill="#099B96"/>
<path d="M129.23 33.6399C130.85 31.1299 126.19 29.1101 128.94 26.1101C131.53 30.0901 131.8 34.5 132.64 38.7C132.88 39.89 131.91 40.4101 130.84 40.6201C130.08 40.7601 129.11 41.3699 128.8 40.1599C127.68 35.8899 123.86 32.3901 125.12 27.1001C127.47 28.8901 126.51 32.4599 129.23 33.6299V33.6399Z" fill="#18757A"/>
<path d="M83.7299 42.7C83.3999 40.76 82.9899 38.8201 82.7599 36.8701C82.5999 35.5501 82.57 34.0301 84.37 33.8001C86.15 33.5701 86.5098 34.9401 86.6698 36.3301C87.0098 39.2601 87.4398 42.1899 87.6298 45.1399C87.6998 46.1799 88.6799 47.9301 86.4799 48.1001C84.3799 48.2701 84.8998 46.5501 84.6398 45.3501C84.4398 44.4201 84.0198 43.5399 83.6898 42.6299L83.7399 42.69L83.7299 42.7Z" fill="#176A71"/>
<path d="M106.72 40.7299C107.18 37.9699 107.74 35.22 106.45 32.49C106.04 31.63 105.55 30.46 106.92 30.01C108.28 29.57 108.51 30.7099 108.73 31.7199C109.63 35.7999 110.54 39.8799 111.45 43.9799C108.12 44.5099 110.95 38.2899 106.66 40.6599L106.71 40.7299H106.72Z" fill="#1C888C"/>
<path d="M150.69 20.8C153.33 26.28 154.14 30.75 154.74 35.76C151.74 32.39 150.2 27.09 150.69 20.8Z" fill="#1A7780"/>
<path d="M83.6799 42.6399C83.7199 44.7899 83.34 46.8299 82.23 49.4299C80.06 44.4199 80.8601 39.7099 80.1001 35.1699C82.8301 37.0699 80.98 40.93 83.73 42.7L83.6799 42.6399Z" fill="#176A71"/>
<path d="M177.62 31.77C175.2 27.73 174.68 23.24 174.17 18.74C176.54 22.75 178.02 27.02 177.62 31.77Z" fill="#1B7F8E"/>
<path d="M175.94 17.78C178.82 21.82 180.74 26.0699 181.65 30.6599L180.38 31.1001C178.9 26.6601 177.42 22.22 175.94 17.78Z" fill="#1B6476"/>
<path d="M77.22 35.28C78.75 40.03 79.84 44.8701 79.01 50.0801C78.02 45.2201 77.02 40.37 76.03 35.51C76.43 35.43 76.82 35.35 77.22 35.27V35.28Z" fill="#1B767D"/>
<path d="M64.6799 51.27C62.7999 46.87 61.7399 42.29 61.6799 37.48C63.4199 41.91 64.8499 46.41 64.6799 51.27Z" fill="#228895"/>
<path d="M106.67 40.6599C106.85 42.0899 107.03 43.52 107.2 44.95C106.83 45.04 106.45 45.13 106.08 45.22C104.86 40.76 103.63 36.2901 102.41 31.8301C105.36 34.2101 104.79 37.99 106.72 40.73L106.67 40.6599Z" fill="#1F838B"/>
<path d="M158.63 33.3701C155.52 30.2301 154.94 26.22 155.13 21.98C156.3 25.78 157.46 29.5701 158.63 33.3701Z" fill="#196E77"/>
<path d="M149.92 35.6399C148.96 31.5899 147.99 27.53 147.03 23.48C149.4 27.2 150.64 31.1799 149.92 35.6399Z" fill="#1F747D"/>
<path d="M134.27 36.4299C132.92 33.1799 131.33 29.9901 131.97 25.6101C134.38 29.3601 133.69 33.0499 134.27 36.4299Z" fill="#1D757C"/>
<path d="M127.65 120.44C126.58 119.43 124.17 119.35 125.01 117.02C125.66 115.21 127.45 115.84 128.83 115.65C130.14 115.47 131.98 116.05 131.87 113.68C130.21 108.83 132.85 105.2 135.19 101.45C132.61 100.4 131.24 97.7099 129.02 95.9899C126.9 94.4699 124.87 94.37 122.78 96.12C121.66 97.06 120.41 97.9099 118.79 97.7299C115.7 95.6799 115.96 92.7298 116.6 89.6698C130.72 86.7898 144.86 84.0299 158.94 80.9899C172.88 77.9799 186.75 74.66 200.68 71.6C202.22 71.26 204.55 69.2699 205.43 71.7099C206.3 74.1299 206.51 77.1798 203.84 79.1598C200.95 81.2998 199.67 84.2599 199.46 87.6999C199.29 90.5199 199.27 93.3198 203.5 93.1398C203.95 93.1198 208.43 92.2 205.73 95.85C207.51 97 208.95 94.89 210.65 95.32C211.44 96.35 211.66 97.53 211.51 98.8C187.68 108.06 162.66 112.89 137.87 118.58C134.49 119.35 131.05 119.84 127.64 120.46L127.65 120.44Z" fill="#E89E50"/>
<path d="M135.87 69.6399C135.64 68.2599 135.45 66.89 136.54 65.74C143.97 65.26 151.3 63.7001 158.76 63.6201L158.63 63.69C160.81 61.92 162.98 60.1199 165.77 62.6599C166.14 63.0399 166.52 63.4201 166.89 63.8001C156.73 66.6901 146.49 69.1899 135.87 69.6399Z" fill="#D09063"/>
<path d="M173.96 62.3201C176.21 61.8201 178.46 61.3201 180.71 60.8201C180.88 63.7201 182.87 66.44 181.56 69.48C181.25 70.21 181 71.15 179.93 71.02C178.92 70.89 178.6 70.0499 178.69 69.1799C179.05 65.5299 176.53 63.9201 173.95 62.3301L173.96 62.3201Z" fill="#9D8A78"/>
<path d="M136.76 76.57C136.38 77.92 138.02 80.02 135.76 80.29C133.94 80.5 134.55 78.4 134.27 77.24C133.95 75.97 133.78 74.6499 133.32 73.4399C132.87 72.2399 131.69 70.99 133.93 70.49C135.7 70.09 136.21 71.3 136.36 72.76C136.5 74.07 136.63 75.3701 136.76 76.5801V76.57Z" fill="#D9B071"/>
<path d="M160.27 72.99C160.14 74.49 160.08 76.68 158.68 76.24C156.36 75.5 156.93 72.75 156.64 70.75C156.45 69.45 156.38 67.46 158.15 67.79C161.13 68.36 159.18 71.48 160.27 72.99Z" fill="#EA875C"/>
<path d="M86.67 77.7C88.06 77.47 89.7701 77.5001 89.5201 79.2701C89.1201 82.1001 90.3801 84.63 90.7701 88.38C87.8101 84.6 84.9501 81.9702 86.7601 77.6102L86.67 77.7Z" fill="#D09063"/>
<path d="M111.72 73.6899C115.45 75.7899 114.2 79.8601 115.11 83.0701C114.17 79.8501 107.38 78.8601 111.81 73.6001L111.72 73.6899Z" fill="#D0D8D9"/>
<path d="M203.68 59.3201C203.87 61.3201 203.23 62.47 201.31 62.46C199.78 62.46 199.53 61.3701 199.43 60.1201C199.29 58.2101 200.33 57.48 202.01 57.28C203.9 57.06 203.54 58.4901 203.67 59.3201H203.68Z" fill="#EA6E5A"/>
<path d="M122.24 409.63C117.76 408.49 116.44 403.72 112.85 401.45C110.83 400.17 109.41 397.94 107.71 396.14C107.15 394.93 106.76 393.71 107.38 392.4C111.81 384.78 118.22 378.74 123.61 371.88C125.15 369.93 125.69 371.43 126.55 372.28C130.99 376.71 135.43 381.14 139.86 385.57C140.1 386.4 139.69 386.84 138.96 387.1C134.15 392.83 129.27 398.5 124.57 404.31C123.37 405.79 121.88 407.36 122.24 409.62V409.63Z" fill="#0A7270"/>
<path d="M92.4699 382.56C89.8799 380.43 87.2999 378.3 84.7099 376.17C83.8299 374.54 81.2299 373.58 82.6799 371.03C87.8299 364.98 93.0001 358.96 98.1001 352.87C99.5001 351.2 100.58 351.3 102.18 352.68C105.32 355.37 108.49 358.09 111.94 360.33C114.31 361.87 114.14 362.91 112.56 364.82C107.28 371.19 102.13 377.67 96.9299 384.11C94.9999 384.87 93.9199 383.19 92.4699 382.56Z" fill="#0A686A"/>
<path d="M82.6799 371.03C82.4799 373.09 84.17 374.41 84.71 376.17C78.72 372.35 72.99 368.18 67.54 363.62C68.64 363.72 69.7501 363.82 70.8501 363.92C73.9001 366.4 76.96 368.87 80.01 371.35C81.04 372.2 81.8299 371.45 82.6799 371.02V371.03Z" fill="#363B17"/>
<path d="M92.47 382.56C93.96 383.07 95.4399 383.59 96.9299 384.11C100.16 387.2 102.48 391.43 107.38 392.41C107.49 393.66 107.6 394.91 107.71 396.15C102.63 391.62 97.55 387.09 92.47 382.56Z" fill="#46411F"/>
<path d="M138.96 387.11C139.26 386.6 139.56 386.09 139.86 385.58C141.75 387.66 143.63 389.74 146.34 392.72C142.15 391.56 141.26 388.48 138.96 387.11Z" fill="#74723E"/>
<path d="M93.7399 326.57C90.8099 326.94 90.0598 322.96 86.9298 323.26C85.8398 323.36 86.4299 321.86 86.9999 320.97C88.0199 319.38 89.4098 317.93 89.6598 315.56C86.8998 315.59 86.4198 317.82 85.1998 319.16C84.3898 320.04 84.4898 322.57 82.1298 320.92C80.3798 319.69 80.9498 318.56 81.9398 317.2C85.0298 312.94 88.0598 308.64 91.3798 303.98C91.5698 305.42 91.71 306.45 91.84 307.48C93.99 307.63 94.29 304.75 96.57 305.02C95.84 307.67 93.03 309 92.61 311.68L92.7199 311.58C91.7299 315.29 95.1199 318.24 94.4599 322C94.1899 323.54 95.0298 325.26 93.6598 326.65L93.7299 326.58L93.7399 326.57Z" fill="#F6B141"/>
<path d="M109.71 285.63C110.36 293.79 103.01 297.17 99.3099 302.71C98.9799 303.2 96.3799 302.96 95.7799 302.26C95.0699 301.42 95.3499 299.45 96.7899 298.93C98.7499 298.23 99.7499 297.56 99.0499 295.17C98.7899 294.29 99.7498 292.94 101.63 293.48C104.87 294.41 107.3 291.89 106.37 288.83C105.543 286.123 106.65 285.053 109.69 285.62L109.71 285.64V285.63Z" fill="#D19D4D"/>
<path d="M144.7 367.35C145.13 366.86 145.48 366.27 145.99 365.88C151.06 362.07 157.63 363.14 159.88 368.92C161.25 372.43 158.41 375.47 155.74 377.84C154.67 377.09 154.61 376.39 155.08 375.88C158.63 372.08 158.87 369.24 153.44 366.74C151.51 365.85 150.62 365.62 149.39 367.17C148.21 368.66 146.77 369.69 144.76 369.63C144.74 368.87 144.72 368.11 144.7 367.34V367.35Z" fill="#6C592A"/>
<path d="M93.8402 331.82C91.5102 331.6 91.06 337.06 88.17 333.9C86.87 332.47 88.1801 330.68 89.0301 329.89C91.5301 327.55 91.6802 332 93.8402 331.82Z" fill="#DFC04A"/>
<path d="M104.55 341.1C103.41 342.3 103.4 344.57 101.33 345.02C100.7 345.16 100.01 344.31 100.26 343.68C100.9 342.04 101.33 340.08 103.18 339.38C103.81 339.14 104.66 339.95 104.56 341.1H104.55Z" fill="#CBB44A"/>
<path d="M98.6201 335.64C97.9101 337.19 96.71 338.51 95.1 339.29C94.17 339.74 93.29 338.69 93.59 338.05C94.34 336.45 95.51 335.02 97.32 334.48C97.81 334.33 98.6501 334.54 98.6201 335.63V335.64Z" fill="#D7C650"/>
<path d="M109 345.38C107.32 346.04 108.62 349.03 106.24 349.17C105.5 349.21 104.73 347.94 105.1 347.27C105.85 345.92 105.93 343.9 107.78 343.5C108.55 343.33 109.11 344.26 109 345.37V345.38Z" fill="#C9B750"/>
<path d="M161.71 398.13C161.43 399.34 161.34 400.94 159.9 401.27C158.61 401.57 158.41 400.07 158.3 399.2C158.12 397.78 158.87 396.4 160.19 396.06C161.42 395.74 161.55 397.11 161.71 398.13Z" fill="#DEAC5A"/>
<path d="M125.75 364.16C123.82 363.21 121.85 362.37 122.95 359.85C123.26 359.14 123.74 358.2 124.74 358.75C127.09 360.05 124.89 362.38 125.74 364.16H125.75Z" fill="#ACA853"/>
<path d="M145.22 384.42C143.96 383.94 143.05 383.01 142.93 381.63C142.83 380.55 143.62 379.73 144.67 379.7C146.37 379.66 146.78 380.94 146.75 382.35C146.72 383.3 146.66 384.36 145.22 384.42Z" fill="#DDD169"/>
<path d="M156.07 388.84C157.23 391.68 156.36 393.38 155.1 395.11C152.2 392.65 153.77 390.96 156.07 388.84Z" fill="#D9BD62"/>
<path d="M114.98 350.15C114.09 351.44 114.46 353.36 112.66 353.68C111.82 353.83 110.94 353.02 111.19 352.2C111.59 350.86 112.13 349.27 113.14 348.49C113.86 347.93 114.43 349.46 114.98 350.15Z" fill="#D3C25B"/>
<path d="M132.74 366.52C132.63 367.98 131.37 368.28 130.38 368.54C129.18 368.85 128.64 367.92 128.68 366.84C128.72 365.85 129.05 364.66 130.14 364.6C131.28 364.54 132.11 365.51 132.74 366.52Z" fill="#B4AB60"/>
<path d="M85.8 327.2C84.98 328.42 84.8299 330.4 82.7299 330.52C81.9399 330.56 81.5099 329.73 81.7299 329.13C82.2899 327.62 82.78 325.87 84.8 325.7C85.57 325.64 85.85 326.34 85.8 327.2Z" fill="#EBCA5A"/>
<path d="M78.2299 327.54C77.4499 325.01 78.7099 323.77 80.0299 322.7C80.4799 322.34 81.4398 322.75 81.3898 323.49C81.2498 325.38 80.0199 326.46 78.2299 327.54Z" fill="#CBA959"/>
<path d="M119.81 355.37C119.33 355.95 118.79 357.13 117.89 357.57C116.95 358.03 116.55 357.01 116.65 356.09C116.77 354.92 117.02 353.6 118.27 353.3C118.84 353.16 119.78 353.9 119.82 355.37H119.81Z" fill="#D7CE6A"/>
<path d="M139.76 378.34C138.89 378.03 138.25 377.47 138.53 376.54C138.89 375.37 139.79 374.63 141.06 374.67C141.87 374.69 142.17 375.46 142.03 376.07C141.76 377.24 140.95 378.02 139.76 378.34Z" fill="#D5D662"/>
<path d="M151.03 384.95C152.07 384.93 152.8 385.5 152.74 386.33C152.64 387.56 151.63 388.29 150.51 388.67C149.85 388.89 149.06 388.67 149.01 387.93C148.91 386.46 149.9 385.59 151.04 384.95H151.03Z" fill="#CDBD5C"/>
<path d="M135.07 373.39C134.41 372.94 133.54 372.57 133.93 371.56C134.29 370.64 134.95 369.82 135.99 369.75C136.89 369.69 137.56 370.36 137.39 371.26C137.16 372.44 136.3 373.17 135.07 373.39Z" fill="#D6CE70"/>
<path d="M89.8101 129.47C92.8901 128.55 93.8001 129.52 93.8001 132.24C93.8001 135.04 94.42 137.83 94.72 140.63C94.87 142.06 94.7101 143.3 92.7901 143.39C91.2401 143.46 89.74 143.62 89.22 141.65C88.28 138.12 86.97 134.65 86.47 131.06C85.99 127.67 89.1001 130.13 89.8201 129.47H89.8101Z" fill="#15BBBC"/>
<path d="M108.83 139.03C109 140.81 108.05 141.38 106.47 141.53C105 141.67 104 141.63 103.74 139.7C103.3 136.43 102.6 133.18 101.86 129.96C101.36 127.81 102.58 127.49 104.2 127.15C105.74 126.83 106.71 126.91 107 128.77C107.53 132.2 108.22 135.61 108.84 139.03H108.83Z" fill="#2CCEC8"/>
<path d="M148.73 119.9C148.69 119.21 148.78 117.85 150.91 117.66C152.91 117.49 153 119 153.22 120.18C153.77 123.08 154.09 126.02 154.55 128.93C154.91 131.18 153.47 131.76 151.73 132.09C149.51 132.51 149.89 130.8 149.75 129.6C149.41 126.67 149.13 123.72 148.73 119.9Z" fill="#28C3B6"/>
<path d="M115.53 137.05C115.88 138.76 115.38 139.91 113.52 140.35C111.27 140.88 111.57 139.07 111.36 137.96C110.77 134.88 110.34 131.76 109.87 128.66C109.66 127.22 109.79 126.11 111.71 125.89C113.66 125.67 113.94 126.91 114.17 128.22C114.67 131.15 115.09 134.1 115.54 137.04L115.53 137.05Z" fill="#2BCAC1"/>
<path d="M163.16 114.61C164.21 114.37 164.94 114.97 165.24 116.05C166.17 119.41 167.19 122.75 167.85 126.16C168.32 128.59 165.78 127.63 164.7 128.32C163.83 128.88 162.74 128.64 162.67 127.17C162.5 123.52 162.25 119.9 161.14 116.36C160.73 115.04 161.96 114.78 163.16 114.61Z" fill="#34CEC3"/>
<path d="M187.95 118.98C188.69 121.83 188.05 122.47 186.7 122.92C185.2 123.42 184.49 122.88 184.14 121.54C183.33 118.5 182.52 115.46 181.77 112.41C181.46 111.17 181.57 110.07 183.19 109.81C184.54 109.6 185.94 109.29 186.34 111.16C187.01 114.24 187.62 117.33 187.96 118.97L187.95 118.98Z" fill="#46D9D0"/>
<path d="M101.04 139.41C101.64 141.6 101.35 142.43 100.05 142.58C98.9199 142.71 97.4599 143.08 97.2199 141.49C96.6599 137.74 96.2898 133.96 95.9298 130.18C95.8098 128.93 96.8 128.48 97.85 128.35C99.21 128.17 99.44 129.15 99.6 130.19C100.12 133.62 100.67 137.04 101.04 139.41Z" fill="#2CCCC5"/>
<path d="M122.02 134.44C122 134.25 122.11 135.4 122.29 136.53C122.53 138.03 121.69 138.5 120.43 138.86C118.66 139.37 118.55 138.21 118.35 137.04C117.86 134.13 117.38 131.22 116.89 128.31C116.58 126.41 117.17 124.99 119.21 124.69C121.67 124.32 121.09 126.55 121.38 127.72C121.8 129.46 121.76 131.3 122.02 134.43V134.44Z" fill="#2BCBC8"/>
<path d="M135.76 133.7C136.23 135.26 135.01 135.58 133.62 136C131.74 136.56 131.84 135.37 131.64 134.19C131.1 130.92 130.49 127.65 129.93 124.38C129.74 123.23 129.46 122.04 131.22 121.74C132.82 121.46 133.6 121.8 133.85 123.63C134.3 126.91 135.07 130.15 135.76 133.71V133.7Z" fill="#28C8C7"/>
<path d="M181.41 122.7C181.36 124.01 180.53 124.39 179.5 124.67C177.9 125.1 177.54 124.05 177.15 122.91C176.15 119.96 175.13 117.02 174.1 114.09C173.76 113.13 173.35 112.08 174.82 111.81C176.04 111.59 177.76 110.87 178.34 112.45C179.57 115.82 180.42 119.34 181.41 122.71V122.7Z" fill="#2FCFC5"/>
<path d="M128.75 133.92C129.02 135.8 129.02 137.32 126.89 137.47C124.88 137.61 125.08 135.91 124.87 134.71C124.34 131.78 123.96 128.83 123.42 125.9C123.18 124.57 123.29 123.56 124.84 123.34C126.08 123.16 126.58 123.97 126.86 125.03C127.68 128.06 128.87 131.01 128.75 133.93V133.92Z" fill="#20BFC0"/>
<path d="M141.56 132C141.73 133.45 141.56 134.39 140.3 134.67C138.91 134.98 138.65 134.05 138.43 132.99C137.74 129.57 137.03 126.15 136.29 122.74C135.9 120.94 136.98 120.38 138.41 120.05C140.05 119.66 140.42 120.62 140.53 121.96C140.8 125.44 140.64 128.96 141.55 132H141.56Z" fill="#27C4BD"/>
<path d="M173.99 123.79C174.02 125.11 173.77 126.12 172.33 126.48C170.6 126.91 170.59 125.59 170.26 124.51C169.42 121.68 168.56 118.86 167.64 116.06C167.16 114.61 167.16 113.56 168.94 113.06C170.56 112.61 171.4 113.07 171.77 114.72C172.46 117.75 173.24 120.76 173.99 123.78V123.79Z" fill="#2CCEBF"/>
<path d="M202.44 105.35C202.33 104.82 202.49 103.44 204.26 103.3C206.02 103.17 205.65 104.79 205.85 105.84C206.43 108.93 206.97 112.03 207.52 115.13C207.78 116.62 207.46 117.72 205.76 118.09C203.4 118.61 203.97 116.82 203.81 115.66C203.37 112.54 202.98 109.42 202.44 105.36V105.35Z" fill="#2FC3B4"/>
<path d="M160.12 127.09C160.7 129.19 159.8 129.86 158.53 130.04C157.16 130.23 157.01 129.06 156.84 128.11C156.24 124.86 155.73 121.59 155.09 118.35C154.82 116.96 155.09 116.08 156.61 115.85C158.19 115.61 158.56 116.55 158.74 117.87C159.19 121.14 159.72 124.41 160.13 127.1L160.12 127.09Z" fill="#2EC2B6"/>
<path d="M147.24 130.53C147.4 131.88 147.54 133.32 145.64 133.49C143.44 133.69 143.96 131.91 143.83 130.74C143.48 127.78 143.26 124.81 142.92 121.86C142.75 120.4 142.89 119.07 144.63 118.87C146.75 118.63 146.4 120.45 146.53 121.62C146.85 124.58 147.02 127.56 147.25 130.53H147.24Z" fill="#32BFB7"/>
<path d="M212.96 113.8C213.1 115.34 212.79 116.5 211.07 116.78C209.06 117.11 209.59 115.38 209.4 114.47C208.74 111.24 208.22 107.97 207.69 104.71C207.51 103.62 207.85 102.78 209.07 102.47C210.52 102.11 210.71 103.09 210.92 104.11C211.59 107.34 212.28 110.58 212.97 113.81L212.96 113.8Z" fill="#2AC3B2"/>
<path d="M197.23 109.08C197.26 107.48 196.64 105.37 198.51 105.18C200.39 104.99 200.16 107.31 200.43 108.59C201.03 111.47 201.32 114.42 201.67 117.34C201.8 118.44 201.3 119.27 200.13 119.47C198.71 119.71 198.6 118.68 198.46 117.67C198.05 114.75 197.63 111.82 197.23 109.08Z" fill="#36CCBE"/>
<path d="M195.14 106.36C195.44 110.78 195.74 114.8 195.98 118.83C196.03 119.68 195.73 120.51 194.72 120.61C194.31 120.65 193.75 120.45 193.45 120.16C191.73 118.48 192.62 108.47 195.14 106.36Z" fill="#43CBBB"/>
<path d="M191.82 122.32C188.07 117.66 187.3 111.39 189.92 107.38C190.57 112.49 191.12 116.86 191.82 122.32Z" fill="#3BB0AB"/>
<path d="M95.79 110.96C95.53 116.57 92.5699 119.89 89.6599 122.9C88.1699 124.44 85.23 122.4 84.21 121.39C80.57 117.79 80.2599 106.89 82.8999 102.55C84.1099 100.56 84.95 99.9801 86.75 102.07C88.35 103.94 89.61 106.13 93.03 106.09C94.6 106.07 96.09 109.31 95.79 110.96Z" fill="#144550"/>
<path d="M129.46 94.54C133.26 95.39 133.42 100.59 137.42 101.26C137.52 101.28 137.62 102.56 137.48 102.61C132.68 104.38 134.24 109.16 132.73 112.47C132.53 112.91 132.16 113.28 131.87 113.68C127.37 116.32 124.68 113.1 121.77 110.58C119.72 108.29 118.56 105.74 118.99 102.55C119.76 96.85 122.72 94.5401 129.46 94.5601V94.54Z" fill="#083549"/>
<path d="M129.46 94.5399C129.3 95.1299 129.22 96.1899 128.97 96.2299C126.92 96.5699 124.82 94.0298 122.75 97.4398C120.36 101.39 120.25 105.04 121.53 109.1C121.68 109.56 121.7 110.07 121.78 110.56C115.41 106.64 115.27 106.01 118.8 97.7098C121.71 94.4898 124.52 90.9099 129.47 94.5299L129.46 94.5399Z" fill="#68807C"/>
<path d="M208.66 278.71C207.18 274 206.69 269.29 208.73 264.6C209.99 269.31 210.57 274.02 208.66 278.71Z" fill="#904B45"/>
<path d="M169.32 362.48C168.47 356.48 176.1 353.61 174.48 346.84C171.16 352.22 167.78 357.13 161.11 358.66C163.25 361.2 164.2 358.01 165.5 359.14C164.11 362.15 159.14 363.21 157.16 360.96C156.43 360.13 156.72 359.34 157.5 358.92C159.57 357.79 160.78 355.3 162.42 354.41C168.17 351.3 172.63 347 176.79 340.58C178.57 350.39 174.68 356.71 169.32 362.5V362.48Z" fill="#503D1D"/>
<path d="M135.51 354.51C135.51 348.79 140.41 345.47 141.43 338.9C138.34 341.87 135.86 343.9 133.83 346.32C132.14 348.34 131.02 350.82 129.57 353.05C129.12 353.75 128.38 354.33 127.5 353.61C126.85 353.08 127.17 352.38 127.49 351.81C130.86 345.82 134.52 340.08 140.96 336.87C141.84 336.43 142.85 335.9 143.79 336.5C144.91 337.21 144.16 338.25 144.02 339.19C143.05 345.41 139.38 350.06 135.52 354.5L135.51 354.51Z" fill="#45361A"/>
<path d="M162.88 375.16C164.21 377.24 165.52 379.27 166.82 381.3C167.23 381.94 167.24 382.6 166.63 383.05C166.29 383.29 165.7 383.41 165.3 383.3C162.05 382.38 160.86 378.47 162.89 375.17L162.88 375.16Z" fill="#443B1C"/>
<path d="M163.19 372.69C163.21 368.82 164.5 366.8 167.2 365.84C167.49 365.74 168.54 366.58 168.5 366.92C168.21 369.89 165.82 370.93 163.19 372.7V372.69Z" fill="#51401F"/>
<path d="M152.77 372.06C152.71 373.5 152.37 374.58 151.21 374.61C150.04 374.64 149.56 373.54 149.58 372.5C149.6 371.29 150.11 370.07 151.51 370.12C152.81 370.17 152.68 371.46 152.78 372.06H152.77Z" fill="#534926"/>
<path d="M140.6 363.94C139.78 363.97 139.32 363.56 139.3 362.82C139.27 361.45 140.28 360.8 141.36 360.4C141.97 360.18 142.72 360.45 142.6 361.36C142.44 362.59 141.57 363.34 140.6 363.93V363.94Z" fill="#3F2E11"/>
<path d="M133.49 262.46C135.16 263.15 136.9 260.08 138.21 262.56C139.75 265.49 138.59 267.05 135.12 266.16C136.54 264.13 133.36 264.3 133.49 262.46Z" fill="#7A5653"/>
<path d="M128.72 326.65C124.58 331.75 119.27 335.4 113.67 338.69C117.8 330.49 118.61 321.75 117.9 312.76C120.71 310.99 122.3 311.69 122.15 315.08C122.06 317.07 122.84 318.94 122.65 320.89C122.24 322.54 121.93 324.23 121.5 325.89C121.18 327.11 121.87 326.18 122.33 326.05C122.91 325.9 121.9 325.81 122.52 325.53C123.29 324.54 124.07 323.57 125.44 324.65C126.28 325.86 126.88 324.48 127.6 324.44C129.35 324.47 129.37 325.38 128.72 326.64V326.65Z" fill="#1C2C2C"/>
<path d="M111.65 301.22C112.33 307.29 111.93 313.19 110.93 319.69C108.64 316.01 109.02 305.09 111.65 301.22Z" fill="#342D18"/>
<path d="M101.8 320.39C102.86 318.64 103.52 316.98 100.23 316.26C99.2099 316.04 99.7199 314.16 100.97 314.46C103.56 315.09 104.79 310.95 106.35 312.32C108.4 314.11 105.57 316.5 105.35 318.73C105.27 319.54 105.03 320.35 104.8 321.14C104.49 322.22 105.51 324.31 103.28 323.99C101.74 323.77 101.82 322.01 101.8 320.39Z" fill="#4C3719"/>
<path d="M93.6799 326.64C92.8299 322.78 94 318.54 91.03 315.04C89.72 313.49 90.6299 311.98 92.7399 311.57C96.5199 315.35 95.6401 320.22 95.8701 324.83C95.9501 326.45 94.9199 326.65 93.6799 326.64Z" fill="#292617"/>
<path d="M125.44 324.66C124.19 324.79 123.7 325.58 123.63 326.74C120.97 326.47 121.71 324.5 121.71 322.9C121.68 320.64 121.47 318.36 121.66 316.12C121.91 313.15 120.47 312.41 117.9 312.76C117.84 312.02 118.97 311.45 118.22 310.61C118.32 310.28 118.42 309.94 118.51 309.61C119.25 309.57 120 309.54 120.74 309.5C124.37 311.71 121.08 316.15 123.71 318.68C124.32 319.21 124.88 319.77 124.8 320.68C121.7 322.54 125.17 323.35 125.44 324.67V324.66Z" fill="#5B4322"/>
<path d="M109.73 321.96C111.25 326.1 110.17 329.96 108.64 333.78C107.22 329.7 107.9 325.79 109.73 321.96Z" fill="#412F0F"/>
<path d="M128.72 326.65C128.34 325.92 127.97 325.19 127.59 324.45C129.58 322.67 128.57 318.69 132.18 318.09C133.5 319.23 131.12 320.59 132.75 321.95C133.92 320 139.42 321.19 136.3 316.28C136.97 315.89 137.61 315.42 138.31 315.11C140.41 314.22 142.69 313.64 143.36 310.95C143.69 309.63 144.85 308.86 146.02 309.58C147.65 310.6 146.7 311.89 145.75 312.89C140.65 318.2 135.8 323.82 128.71 326.65H128.72Z" fill="#5B4322"/>
<path d="M124.8 320.67C124.44 320 124.07 319.34 123.71 318.67C125.2 318.15 126.7 317.28 128.32 318.87C127.62 320.45 126.23 320.6 124.8 320.67Z" fill="#1C2C2C"/>
<path d="M160.47 341.4C161.14 347.89 155.45 347.56 153.02 349.97C155.25 347.4 157.48 344.83 160.47 341.4Z" fill="#B69759"/>
<path d="M187.76 36.3201C191.45 42.5301 195.63 47.2299 199.94 52.1499C194.51 55.2599 188.82 56.4899 183.39 58.3899C181.27 59.1299 180.2 58.7301 181.13 56.0701C183.33 49.8401 185.34 43.5501 187.75 36.3201H187.76Z" fill="#0D1C37"/>
<path d="M165.77 62.66C163.24 62 161.11 64.03 158.63 63.69C159.66 57.81 161.28 52.1101 163.45 46.5401C164.63 43.5201 165.78 43.42 167.7 45.95C170.1 49.12 172.69 52.1601 175.21 55.2401C177.56 58.1101 177.35 60.0201 173.29 60.5601C170.69 60.9101 168.09 61.25 165.78 62.65L165.77 62.66Z" fill="#0E1A34"/>
<path d="M158.76 63.6201C152.56 65.8301 146.08 66.6801 139.62 67.6101C138.1 67.8301 136.56 68.01 136.54 65.74C138.06 61.23 139.52 56.7 141.1 52.22C141.99 49.7 143.23 49.1301 145.09 51.6101C147.45 54.7701 150.09 57.7299 152.44 60.9099C154.08 63.1199 156 64.2401 158.76 63.6201Z" fill="#0E1A34"/>
<path d="M166.63 82.9699C169.72 83.0299 179.85 93.75 179.42 96.5C178.95 99.47 171.31 106.56 169.03 106.13C165.35 105.44 160.74 98.23 161.66 93.76C162.35 90.39 163.9 87.1899 165.13 83.9399C165.34 83.3699 165.77 82.7299 166.63 82.9599V82.9699Z" fill="#0E4660"/>
<path d="M87.3701 109.8C88.1301 112.18 87.7101 114.63 86.8601 117.12L85.97 109.9C86.44 109.87 86.9001 109.83 87.3701 109.8Z" fill="#D1E7DD"/>
<path d="M90.21 116.37C87.88 113.17 89.4701 110.37 89.0901 107.9C89.4201 110.38 89.74 112.86 90.21 116.37Z" fill="#67A4A7"/>
<path d="M125.07 111.99C124.52 108.47 124.63 106.52 125.23 104.63C125.55 103.61 125.38 101.94 126.86 101.94C128.17 101.94 129.12 103.13 129.73 104.32C130.39 105.62 129.76 106.43 128.58 107.08C127.1 107.89 125.58 108.72 125.07 111.99Z" fill="#89A1A6"/>
<path d="M121.7 322.9C122.34 324.18 122.98 325.46 123.62 326.74C123.78 328.72 122.97 330.13 121 331.18C119.57 328.16 118.64 325.4 121.7 322.9Z" fill="#B78A44"/>
<path d="M168.83 90.3601C172.24 94.3801 169.98 97.8901 169.89 101.35C168.43 97.9901 168.33 94.5601 168.83 90.3601Z" fill="#80AAB1"/>
</svg>
