<svg width="269" height="462" viewBox="0 0 269 462" fill="none" xmlns="http://www.w3.org/2000/svg">
<path d="M152.9 415.74C149.34 420.82 144.47 424.61 139.88 428.61C114.79 450.45 85.3999 460.71 52.2599 460.66C50.0999 460.66 47.95 460.73 45.79 460.77C41.71 461.32 37.6799 461.38 33.8699 459.48C33.3499 458.76 32.6299 458.67 31.8299 458.8C24.8699 456.9 18.47 453.86 12.66 449.56C-0.150026 440.08 -3.22007 427.52 3.60993 413.2C9.07992 401.73 17.5599 392.6 26.3199 383.72C38.4699 371.4 50.9799 359.44 62.4899 346.5C66.7999 341.66 70.86 336.6 75.04 331.65C75.5 331.37 75.8999 331.43 76.2499 331.85C77.2299 334.24 75.8 335.94 74.54 337.65C71.81 341.35 68.7099 344.74 65.6299 348.14C61.3499 351.3 58.71 356.04 54.78 359.53C49.79 364.54 44.74 369.5 39.79 374.56C35.71 378.55 31.6899 382.59 27.7099 386.67C25.2199 389.78 28.5399 390.37 29.9899 391.29C38.2499 396.54 46.66 401.55 54.55 407.37C65.43 415.4 74.7899 424.99 83.4599 435.3C86.3599 438.75 88.6299 442.66 90.1299 446.9C91.5399 450.87 93.8199 452.17 97.6899 450.3C102.73 448.45 107.61 446.27 112.2 443.46C117.66 440.41 123.05 437.25 128.14 433.6C134.72 429.44 140.4 424.2 145.87 418.7C147.79 417.04 149.22 414.45 152.43 415.2C152.59 415.38 152.75 415.56 152.9 415.74Z" fill="#381E21"/>
<path d="M76.19 331.88C75.81 331.8 75.4201 331.73 75.0401 331.65C82.2601 321.27 89.47 310.88 95.59 299.81C103.74 285.07 111.2 269.97 112.6 252.85C114.32 231.79 112.48 210.93 107.2 190.45C93.82 138.48 76.22 87.85 58.39 37.3C57.75 35.48 53.73 32.5599 58.7 30.6499C59.12 30.8899 59.45 31.2199 59.7 31.6299C61.9 37.6999 64.26 43.72 66.48 49.79C67.6 52.84 68.72 55.63 72.51 56.22C73.63 56.39 74.46 57.4799 73.96 58.9099C70.61 60.4499 70.32 62.8401 71.6 66.0601C72.86 69.2301 74.18 72.3899 75.2 75.6699C77.41 81.1999 79.3901 86.82 81.1801 92.5C82.7401 97.85 84.4501 103.15 86.1701 108.44C88.2601 114.72 90.33 121 92.24 127.34C94.09 132.66 95.8 138.02 97.21 143.47C99.16 150.13 102.08 156.48 103.43 163.33C105.29 168.5 106.81 173.76 107.68 179.19C109.67 185.6 111.38 192.07 112.37 198.71C113.71 204.72 115.2 210.71 115.39 216.91C115.84 222.2 117.41 227.41 116.64 232.79C116.73 237.59 117.28 242.39 116.54 247.17C115.71 252.48 116.03 257.94 114.68 263.19C113.45 268.57 111.81 273.81 109.35 278.76C107.24 284.26 104.88 289.66 102.12 294.87C99.57 299.66 96.8001 304.34 94.0501 309.02C91.3701 313.61 88.2301 317.9 85.3001 322.32C82.9301 325.67 81.0301 329.39 77.5601 331.86C77.1101 332.02 76.65 332.02 76.19 331.89V331.88Z" fill="#302927"/>
<path d="M76.77 26.52C100.6 20.84 124.57 15.84 148.67 11.47C148.8 11.67 148.92 11.8601 149.05 12.0601C147.82 14.7401 145.75 16.2 142.79 15.96C138.86 15.64 135.21 16.5901 131.66 18.1101C131.25 18.3201 130.81 18.4801 130.37 18.5901C127.36 20.6101 122.62 19.58 120.95 23.95C119.06 24.93 118.08 23.13 116.74 22.21C115.94 24.89 117.73 27.43 116.13 29.7C115.73 29.98 115.29 30.0901 114.81 30.0601C111.62 28.8801 112.74 24.99 110.36 22.96C108.88 24.53 109.92 27.33 108.14 28.25C105.35 29.69 105.67 25.87 103.92 25.3C102.94 25.79 102.97 27.0199 102.21 27.6799C101.81 27.9699 101.37 28.07 100.88 28.04C100.08 27.82 99.59 27.07 98.68 26.79C98.07 29.42 100.34 32.27 98.11 34.73C94.65 34.95 94.9399 31.93 94.1899 29.98C93.3599 27.85 92.8 25.7301 89.79 26.6201C89.38 26.8101 88.96 26.95 88.53 27.05C86.24 27.24 85.49 29.3699 84.04 30.6299C81.26 30.4699 79.23 28.39 76.62 27.78C76.4 27.33 76.45 26.91 76.78 26.53L76.77 26.52Z" fill="#81222D"/>
<path d="M200.11 6.64989C200.9 15.9699 201.7 25.2801 202.49 34.6001C202.03 35.9701 202.63 37.46 201.98 38.8C198.61 37.66 198.05 33.74 195.27 32.01C195.18 27.42 194.82 22.86 194.24 18.3C193.77 14.6 193 10.8 195.07 7.26C197.34 5.47 197.55 7.32987 197.76 8.87987C198.45 13.8199 199.12 18.77 198.74 23.78C199.2 18.55 198.24 13.41 197.78 8.23998C197.67 6.95998 197.48 5.74997 195.7 6.72997C192.46 5.69997 189.31 4.60001 185.79 6.02001C184.39 6.59001 182.52 6.37993 181.12 5.18993C181 4.98993 180.88 4.78006 180.76 4.57006C185.95 2.41006 191.52 1.73996 196.98 0.969961C201.71 0.309961 198.94 4.77989 200.11 6.64989Z" fill="#772E3A"/>
<path d="M76.77 26.52C76.79 26.88 76.7999 27.2401 76.8199 27.6101C80.5499 31.0501 81.61 35.2899 80.58 40.1499C78.07 41.9399 77.59 39.5199 76.83 38.1699C75.57 35.9399 75.4 33.1801 73.4 30.5901C71.83 33.4201 74.39 36.5899 71.89 38.6399C69.9 39.0699 69.23 37.48 68.83 36.21C67.7 32.6 65.56 31.28 61.87 32.3C60.81 32.59 59.59 32.55 58.72 31.54C58.71 31.24 58.7 30.9399 58.7 30.6399C64.54 28.4499 70.64 27.4 76.78 26.52H76.77Z" fill="#7A1F29"/>
<path d="M148.67 11.47C152.89 9.83997 157.27 8.94012 161.78 8.62012C161.87 8.85012 161.96 9.07005 162.06 9.30005C160.66 12.56 161.43 15.76 162.22 19.01C162.82 21.51 164.09 24.1401 161.94 26.5801C158.87 26.7401 158.88 24.12 158.17 22.27C157.13 19.58 157.06 16.53 155.37 13.54C154.55 15.78 155.5 17.38 155.33 19.02C155.17 20.5 155.17 22.3699 153.4 22.6299C151.88 22.8499 151.4 21.1399 150.92 19.9199C149.89 17.2899 149.73 14.43 148.86 11.75L148.69 11.48L148.67 11.47Z" fill="#81222D"/>
<path d="M166.76 7.62012C171.25 5.77012 175.97 5.02007 180.76 4.57007L180.77 4.75C180.83 7.49 179.61 9.73007 178.01 11.8201C176.38 12.3501 175.87 10.5901 174.51 10.1001C173.43 13.9901 177.12 18.1201 173.95 21.8201C170.7 21.6701 170.92 18.8501 170.33 16.8601C169.46 13.9101 169.23 10.7401 166.97 8.34009C166.89 8.10009 166.82 7.86988 166.75 7.62988L166.76 7.62012Z" fill="#81222D"/>
<path d="M161.78 8.62985C163.24 7.28985 165.03 7.60008 166.76 7.62008L166.83 7.71993C167.9 9.94993 167.54 12.27 167.15 14.55C166.98 15.53 166.51 16.6099 165.39 16.7199C164.26 16.8299 163.8 15.7599 163.26 14.9299C162.01 13.0299 162.61 10.7199 161.83 8.70992L161.78 8.62008V8.62985Z" fill="#81222D"/>
<path d="M100.81 294.3C103.17 289.04 105.54 283.79 107.9 278.53C111.81 276.59 115.03 279.01 118.22 280.46C131.11 286.3 143.52 293.1 155.92 299.91C175.91 310.87 195.75 322.1 216.34 331.95C218.95 333.2 221.6 333.93 224.45 334.11C225.21 334.46 225.61 335.03 225.48 335.9C224.77 336.48 224.07 337.06 223.36 337.64C218.8 339.95 216.11 344.33 212.38 347.55C209.76 349.81 207.8 352.8 204.7 354.55C201.81 355.1 199.6 353.43 197.28 352.22C180.52 343.41 164.59 333.18 148.56 323.14C135.04 314.67 121.31 306.65 106.99 299.63C104.52 298.42 101.64 297.51 100.81 294.32V294.3Z" fill="#20848F"/>
<path d="M234.72 196.65C241.52 212.31 252.44 225.68 259.37 241.27C262.72 248.81 265.31 256.57 267.06 264.62C271.48 289.07 261.73 307.14 241.82 320.62C241.41 321 241 321.01 240.59 320.62C240.07 317.8 242.12 316.37 243.87 314.93C247.35 312.07 250.56 308.93 253.63 305.65C262.79 295.87 265.59 283.94 264.45 271.05C262.94 253.89 255.41 238.89 246.72 224.36C244.77 221.09 242.85 220.86 239.98 223.17C233.13 228.68 225.48 233.23 219.95 240.3C218.93 241.61 217.62 242.69 215.87 243C215.36 243.02 214.91 242.88 214.51 242.57C213.24 239.2 216.3 237.87 217.72 235.77C222.45 229.41 229 225.07 235.19 220.38C241.08 215.92 241.2 216.05 237.81 209.37C237.06 207.89 236.43 206.35 235.57 204.93C234.53 202.28 232.15 199.97 233.46 196.71C233.87 196.34 234.29 196.31 234.73 196.65H234.72Z" fill="#0C242B"/>
<path d="M240.48 320.5C240.93 320.54 241.38 320.58 241.82 320.63C236.37 325.71 230.93 330.8 225.48 335.89C225.11 335.67 224.75 335.46 224.38 335.24C224.7 331.31 228.05 329.54 230.41 327.19C232.93 324.7 233.34 323.57 229.64 321.74C218.4 316.19 210.51 307.24 205.08 296.02C200.88 286.02 199.58 275.76 202.13 265.13C202.64 257.23 206.45 250.68 210.76 244.36C211.61 243.11 212.81 242.18 214.51 242.4C214.72 242.54 214.94 242.69 215.15 242.84C216.28 245.64 214.49 247.73 213.13 249.68C205.21 261.13 204.9 274.15 207.58 286.69C211 302.71 222.27 313.04 237.22 319.31C238.28 319.75 239.52 319.73 240.47 320.5H240.48Z" fill="#162325"/>
<path d="M203.15 357.84C186.53 377.25 172.06 398.53 152.89 415.74L152.84 415.63C151.16 413.4 152.89 411.91 154.12 410.48C156.17 408.11 158.42 405.93 160.71 403.79C165.84 397.94 171.21 392.28 175.82 385.98C180.64 380.49 185.33 374.88 189.79 369.09C194.13 365.4 196.23 359.4 202.01 357.18C202.51 357.2 202.89 357.43 203.15 357.85V357.84Z" fill="#28241B"/>
<path d="M204.62 353.77C209.78 349.88 213.74 344.76 218.52 340.47C219.93 339.21 220.92 337.16 223.36 337.62C216.62 344.36 209.89 351.1 203.15 357.84C202.96 357.65 202.76 357.48 202.55 357.33C201.54 355.15 203.25 354.56 204.62 353.77Z" fill="#092627"/>
<path d="M201.57 38.6899C201.88 37.3199 202.19 35.9601 202.5 34.5901C204.82 61.6101 207.71 88.5501 211.8 115.37C214.91 135.78 220.03 155.69 226.09 175.39C225.88 175.55 225.68 175.71 225.47 175.87C221.05 174.04 221.44 169.58 220.08 166.07C217.69 160.52 216.63 154.6 215.24 148.77C212.92 142.37 211.42 135.79 210.89 129C209.35 123.09 208.37 117.08 207.81 111C206.26 104.35 205.47 97.6 205.14 90.79C203.54 84.41 203.65 77.7901 202.33 71.3701C201.84 65.0401 200.42 58.7699 201.01 52.3799C201.17 50.6399 200.43 49.2001 200.13 47.6101C199.83 44.5101 199.05 41.3199 201.57 38.6799V38.6899Z" fill="#2F2627"/>
<path d="M234.72 196.65H234.26H233.8C230.98 196.66 230.66 194.18 229.74 192.42C228.46 189.95 227.42 187.35 226.47 184.73C225.65 181.77 223.07 178.97 225.69 175.71C225.82 175.61 225.95 175.51 226.09 175.4C228.97 182.48 231.85 189.56 234.73 196.65H234.72Z" fill="#2F2627"/>
<path d="M51.44 459.52C39.34 459.14 27.3801 457.87 16.8101 450.68C2.5601 441 -3.91 428.18 6.58 410.12C10.37 403.6 15.2 397.9 20.12 392.25C21.46 390.71 22.6201 390.6 24.4101 391.64C45.2601 403.71 64.96 417.16 80.23 436.25C84.05 441.03 86.33 446.49 88.86 451.91C90.31 455.01 87.6401 454.79 86.1701 455.14C74.8101 457.89 63.2301 458.99 51.4301 459.51L51.44 459.52Z" fill="#DE3953"/>
<path d="M161.9 404.49C159.55 408.74 154.62 410.9 152.85 415.63C150.05 415.98 149.07 418.87 146.8 419.98C143.26 420.52 141.31 418 139.22 415.92C126.94 403.7 115.48 390.68 102.98 378.68C92.61 368.73 81.73 359.48 69.2 352.29C67.32 351.21 64.64 350.64 64.64 347.62C66.53 343.3 70.57 340.68 73.12 336.89C74.21 335.27 75.18 333.56 76.2 331.9L76.5601 332.01C78.7601 331.42 80.4 332.69 82.1 333.69C94.32 340.9 105.57 349.43 115.58 359.48C129.42 373.38 143.34 387.18 158.84 399.27C160.5 400.56 162.46 401.84 161.9 404.5V404.49Z" fill="#23828D"/>
<path d="M128.92 434.56C124.31 438.82 118.85 441.74 113.28 444.47C111.26 444.35 110.58 442.7 109.78 441.28C96.96 418.4 78.75 400.68 57.13 386.23C52.01 382.81 46.96 379.27 41.58 376.24C40.42 375.59 39.33 374.76 39.28 373.21C44.01 368.38 48.73 363.54 53.46 358.71C56.58 358.32 58.83 360.24 61.14 361.78C81.62 375.46 98.8799 392.65 114.94 411.16C119.53 416.46 123.49 422.19 127.17 428.13C128.37 430.06 129.98 431.97 128.92 434.55V434.56Z" fill="#D9344C"/>
<path d="M128.92 434.56C118.42 415.34 103.21 400.11 87.49 385.24C76.97 375.29 65.8 366.28 53.46 358.71C56.98 354.8 59.99 350.38 64.64 347.61C89.79 360.86 108.68 381.44 127.89 401.65C133.94 408.02 139.73 414.66 146.81 419.97C141.26 425.34 135.99 431.06 128.93 434.56H128.92Z" fill="#FBDFC8"/>
<path d="M39.28 373.21C70.18 390.49 96.85 412.16 113.28 444.47C108.64 447.78 103.7 450.42 98.05 451.58C95.67 450.98 94.69 448.96 93.71 447.06C82.12 424.68 63.41 409.56 42.4 396.82C38.43 394.41 34.23 392.37 30.16 390.13C28.43 389.17 26.53 388.32 26.22 385.99C30.57 381.73 34.93 377.47 39.28 373.21Z" fill="#F9DEC8"/>
<path d="M26.2099 385.99C37.4199 392.44 48.97 398.25 59.43 406.06C75.86 418.32 89.28 432.92 98.04 451.58C91.53 454.63 91.4899 454.62 88.9699 448.48C82.9199 433.76 71.2399 423.73 59.7399 413.61C49.8199 404.88 38.25 398.48 27.03 391.64C24.16 389.89 22.7299 388.43 26.1999 385.99H26.2099Z" fill="#1D9295"/>
<path d="M206.78 297.16C208.81 298.72 209.89 301.03 211.21 303.11C217.25 312.58 225.82 318.82 236.54 323.05C232.4 327.19 228.4 331.21 224.38 335.23C222.43 337.16 220.68 336.2 218.59 335.21C191.88 322.5 166.5 307.3 140.38 293.5C129.83 287.93 119.4 282.02 107.88 278.53C109.52 273.73 111.16 268.92 112.81 264.12C115.22 261.72 117.5 263.76 119.6 264.56C139.06 271.98 158.41 279.7 178.16 286.33C185.74 288.87 193.34 291.35 200.99 293.69C203.2 294.37 205.54 294.84 206.77 297.17L206.78 297.16Z" fill="#F8DFC6"/>
<path d="M225.68 175.71C225.18 178.91 227.95 181.3 227.85 184.4C226.96 187.09 224.58 188.1 222.31 189.08C200.59 198.56 178.11 204.63 154.19 204.71C142.68 204.75 131.22 204.46 119.87 202.5C116.69 201.95 113.07 202.21 110.93 198.94C109.36 192.52 107.79 186.09 106.22 179.67C108.08 177.33 110.65 177.76 113.13 177.96C122.91 178.72 132.68 180.1 142.5 179.56C166.84 178.23 190.85 174.98 213.87 166.41C216.29 165.51 218.75 163.95 221.48 165.62C223.3 168.81 223.21 172.8 225.68 175.72V175.71Z" fill="#D93C4D"/>
<path d="M202.22 48.1899C202.82 55.9699 203.42 63.76 204.02 71.54C203 73.83 200.88 74.3 198.74 74.78C166.66 82 134.62 89.4301 101.82 92.8401C97.0399 93.3401 92.22 93.5201 87.46 94.3701C84.84 94.8401 82.1201 94.9601 79.9301 92.8601C77.2201 87.4301 75.4199 81.6901 73.9399 75.8301C75.6399 73.2201 78.5401 73.24 81.0601 73.01C116.22 69.84 150.42 61.7799 184.53 53.1699C190.48 51.6699 196.36 49.9999 202.21 48.1899H202.22Z" fill="#1C818E"/>
<path d="M202.22 48.1899C202.33 51.3599 199.65 51.26 197.76 51.76C173.58 58.21 149.28 64.1501 124.67 68.8101C107.86 71.9901 90.93 74.0501 73.94 75.8301C70.87 71.2601 70.09 65.7901 68.07 60.8101C67.32 58.9601 68.4301 58.5799 70.0401 58.6299C71.3501 58.6699 72.67 58.52 73.98 58.46C74.51 57.57 75.17 56.83 76.19 56.49C77.88 56.03 79.67 56.3799 81.36 55.8999C82.33 55.7099 83.3 55.51 84.27 55.3C87.56 55.42 90.6601 54.03 93.9301 54.02C94.8601 53.8 95.81 53.6699 96.73 53.3999C97.87 53.1899 99.05 53.2701 100.15 52.8301C101.48 52.4201 102.79 51.9 104.18 51.74C111.31 50.74 118.47 49.9199 125.51 48.3799C126.71 48.2199 127.93 48.22 129.08 47.77C129.78 47.52 130.5 47.36 131.24 47.28C135 47.25 138.44 45.5901 142.1 45.0901C143.04 44.8201 144 44.6101 144.94 44.3501C148.33 43.8901 151.57 42.8499 154.84 41.9199C155.52 41.6299 156.22 41.43 156.94 41.3C162.87 40.38 168.56 38.56 174.26 36.79C174.69 36.6 175.13 36.4801 175.59 36.3701C176.48 36.2301 177.38 36.0999 178.2 35.6599C178.62 35.4799 179.05 35.37 179.5 35.29C181.53 35.18 183.38 34.2801 185.33 33.8401C187.03 33.2301 188.85 33.08 190.56 32.48C191.45 32.24 192.36 32.24 193.26 32.2C194.19 32.03 195.04 32.3899 195.9 32.6499C197.35 32.4599 198.79 32.2701 200.35 32.0701C200.75 34.2801 201.15 36.49 201.55 38.7C201.77 41.86 201.99 45.03 202.21 48.2L202.22 48.1899Z" fill="#F7DDCB"/>
<path d="M110.93 198.95C150.26 206.78 188.24 203.11 224.63 185.7C225.68 185.2 226.78 184.83 227.86 184.4C229.84 188.48 231.82 192.57 233.8 196.65C234.31 199.69 236.06 202.23 237.2 205.01C236.54 207.19 234.67 208 232.83 208.78C214.02 216.78 194.67 221.81 174.03 222.96C155.75 223.98 137.88 222.39 119.95 219.69C117.54 219.33 115.45 218.56 113.86 216.68C112.88 210.77 111.91 204.86 110.93 198.95Z" fill="#F8DFC6"/>
<path d="M113.86 216.68C133.06 219.97 152.28 222.03 171.87 221.1C192.41 220.13 211.93 215.63 230.72 207.51C232.84 206.59 235.04 205.83 237.2 205C239.19 208.78 243.15 212.88 242.58 216.22C242.07 219.18 236.48 221.2 233.25 223.78C228.33 227.72 223.2 231.44 219.09 236.3C207.38 240.25 195.25 241.95 182.99 242.61C162.32 243.72 141.92 241.61 121.86 236.46C119.35 235.82 116.48 235.72 115.17 232.82C114.73 227.44 114.3 222.05 113.86 216.67V216.68Z" fill="#1D858F"/>
<path d="M79.9399 92.8601C122.05 90.1201 163.04 80.86 204.02 71.54C205.79 77.79 205.97 84.2599 206.59 90.6599C205.21 93.0799 202.79 93.7801 200.34 94.3201C179.76 98.8601 159.39 104.43 138.43 107.12C128.72 108.36 119.01 109.71 109.19 109.67C103.21 109.65 97.32 111.14 91.3 110.7C88.96 110.53 86.63 110.59 84.76 108.86C82.63 103.68 80.6001 98.4801 79.9301 92.8601H79.9399Z" fill="#F7DCCA"/>
<path d="M84.76 108.87C105.01 108.1 125.27 107.49 145.31 104.08C165.94 100.57 186.23 95.4199 206.59 90.6599C207.53 97.2299 208.47 103.8 209.42 110.38C208.09 112.66 205.73 113.05 203.46 113.55C181.71 118.28 159.97 123.11 137.9 126.2C128.7 127.49 119.45 128.68 110.13 128.63C105.94 128.61 101.89 129.73 97.72 129.68C95.18 129.65 92.71 129.58 90.8 127.55C88.28 121.49 86.28 115.25 84.76 108.87Z" fill="#F58738"/>
<path d="M212.38 128.63C213.8 135.26 215.22 141.88 216.65 148.51C215.21 151.15 212.55 151.82 209.98 152.44C184.44 158.61 158.89 164.47 132.38 164.89C124.43 165.02 116.46 165.66 108.48 165.67C106.12 165.67 103.79 165.6 102.05 163.63C99.85 157.09 97.38 150.63 95.98 143.85C97.65 141.33 100.33 141.43 102.73 141.72C115.21 143.23 127.58 141.43 139.98 140.7C161.17 139.46 181.78 135.14 202.18 129.55C205.51 128.64 208.82 127.12 212.38 128.63Z" fill="#1E8590"/>
<path d="M212.38 128.63C195.61 134.02 178.49 138.01 161.07 140.56C139.48 143.72 117.78 144.91 95.98 143.85C93.45 138.68 92.2901 133.06 90.8101 127.56C128.45 127.3 165.11 120.21 201.58 111.75C204.16 111.15 206.81 110.84 209.43 110.39C210.42 116.47 211.4 122.56 212.39 128.64L212.38 128.63Z" fill="#F6DECA"/>
<path d="M102.04 163.63C141.02 164.49 179.19 159.22 216.65 148.52C218.26 154.22 219.87 159.92 221.49 165.61C186.27 179.66 149.79 183.99 112.19 179.9C110.22 179.69 108.21 179.74 106.23 179.67C104.84 174.32 103.44 168.98 102.05 163.63H102.04Z" fill="#F8DFC7"/>
<path d="M204.62 353.77C203.93 354.96 203.24 356.14 202.55 357.33C198.7 361.5 194.85 365.67 190.99 369.85C188.13 370.48 185.8 369.06 183.43 367.87C166.38 359.33 150.97 348.3 135.97 336.64C123.49 326.93 111.17 316.96 96.08 311.35C94.68 310.83 93.31 310.14 92.79 308.53C95.46 303.79 98.1401 299.04 100.81 294.3C130.24 308.17 156.89 326.81 184.86 343.19C191.3 346.96 198.03 350.26 204.62 353.77Z" fill="#F8DEC6"/>
<path d="M206.78 297.16C176.75 288.95 147.85 277.53 118.9 266.24C116.9 265.46 114.85 264.82 112.83 264.11C113.52 258.64 114.21 253.17 114.89 247.71C117.27 245.74 119.66 247.06 121.98 247.77C139.19 253 156.44 258.02 174.38 260.15C180.98 260.93 187.57 261.82 194.26 261.68C197.55 261.61 201.01 261.54 203.46 264.5C202.27 275.62 203.24 286.53 206.78 297.17V297.16Z" fill="#D83E4B"/>
<path d="M92.79 308.53C105.85 312.28 116.92 319.71 127.45 327.9C147.56 343.53 167.82 358.88 190.99 369.85C186.72 375.81 182.22 381.59 177.01 386.78C174.46 386.89 172.7 385.21 170.76 383.99C156.51 375.03 143.48 364.43 130.41 353.9C117.18 343.24 103.07 333.87 88.59 325.02C86.94 324.01 84.78 323.54 84.3 321.2L92.8 308.53H92.79Z" fill="#F99135"/>
<path d="M84.29 321.2C95.92 326.06 105.87 333.71 116.04 340.88C136.02 354.98 153.98 371.82 174.9 384.68C175.72 385.19 176.31 386.07 177.01 386.78C172.76 393.35 167.38 398.97 161.89 404.49C140.69 387.74 122.58 367.61 102.24 349.92C94.32 343.03 85.11 337.98 76.55 331.99C79.13 328.4 81.71 324.8 84.29 321.2Z" fill="#F8DEC5"/>
<path d="M203.46 264.49C172.99 263.9 143.64 257.38 114.89 247.71C114.98 242.75 115.07 237.79 115.17 232.83C137.15 238.1 159.24 242.2 182.05 240.67C192.84 239.95 203.41 238 213.99 235.98C215.68 235.66 217.5 234.61 219.09 236.31C217.57 238.34 216.05 240.37 214.52 242.4C209.02 248.86 205.39 256.25 203.46 264.49Z" fill="#FAE1C6"/>
<path d="M75.64 57.9098C75.22 58.4898 74.66 58.6699 73.98 58.4599C73.63 58.1099 73.17 57.3899 72.95 57.4599C67.44 59.1099 66.53 55.1798 65.2 51.3798C63.19 45.6098 60.91 39.9299 58.73 34.2099C58.39 33.3099 57.69 32.44 58.72 31.55C61.92 31.34 65.25 28.5198 68.11 30.3998C70.6 32.0398 69.49 36.3599 71.85 38.6899C72.05 38.8199 72.2399 38.94 72.4399 39.06C74.6899 43.36 75.3301 48.28 77.5501 52.6C77.7401 53.04 77.85 53.4999 77.92 53.9699C78.34 55.9699 76.72 56.7798 75.64 57.9098Z" fill="#EF4966"/>
<path d="M144.59 45.8001C144.07 46.0301 143.55 46.26 143.03 46.49C138.7 46.05 134.79 47.7501 130.75 48.8401C130.46 49.0001 130.17 49.1601 129.88 49.3201C126.93 49.5301 125.41 48.07 124.83 45.25C124.08 41.58 122.91 38.0399 121.22 34.6799C120.39 30.9399 118 27.2601 120.71 23.3601C119.61 18.3501 119.62 18.3199 124.91 19.6799C125.55 19.8499 125.77 19.71 125.84 19.22C126.36 15 128.76 16.97 130.79 17.7C132.19 22.39 133.33 27.16 135.01 31.77C133.32 27.14 132.1 22.3899 130.86 17.6399C133.45 13.6299 138.04 14.7099 141.6 14.1299C144.29 13.6899 146.5 12.73 148.86 11.74C151.67 12.02 151.44 14.2299 151.78 16.1699C152.12 18.0799 152.68 19.9601 153.26 22.3201C154.7 19.0601 153.1 16.57 152.68 14.04C152.34 12.01 153.04 11.2299 154.75 10.9199C156.41 10.6199 157.38 10.97 157.84 13.03C158.86 17.66 159.21 22.5199 161.86 26.6799C162.06 26.8199 162.25 26.9501 162.45 27.0901C163.62 29.1101 163.97 31.4201 164.57 33.6201C165.33 36.3901 166.67 39.6101 162.66 41.0701C159.55 42.2001 158.97 41.5601 157.23 36.0501C157.58 38.4701 159.82 40.8999 156.75 42.9099C156.62 43.2599 156.37 43.4001 156 43.3401C154.35 43.1401 152.82 41.7901 151.05 43.8701C150.52 44.4901 147.23 46.3599 145.67 43.4199C144.19 39.5399 142.98 35.5801 141.8 31.6101C140.52 27.6401 139.86 23.4901 138.93 20.6001C139.92 23.5401 140.44 27.79 141.9 31.78C142.77 35.67 144.35 39.3399 145.46 43.1599C146.81 44.5699 145.03 44.9601 144.6 45.8001H144.59Z" fill="#EF4F67"/>
<path d="M120.7 23.3602C121.4 26.9502 122.1 30.55 122.8 34.14C123.73 37.83 124.72 41.5 125.8 45.15C126.27 46.74 126.89 48.3102 125.67 49.8402C118.45 51.6702 111.25 53.59 103.68 52.93C99.0401 47.71 97.1801 41.59 97.8101 34.66C97.3801 32.25 97.0701 29.8 96.5001 27.43C96.0701 25.65 95.0001 23.7201 97.6801 23.0401C100.26 22.3801 99.75 24.97 100.48 26.21C100.72 26.62 100.73 27.16 100.85 27.64C103.63 33.72 104.86 40.2901 107.03 46.0001C105.59 40.1901 102.45 34.25 101.87 27.64C101.75 26.67 101.78 25.6501 101.48 24.7401C100.93 23.0901 101.47 22.21 103.1 21.89C104.6 21.6 105.64 21.98 106.02 23.66C106.33 25.02 106.83 26.33 107.33 27.96C108.21 26.14 107.91 24.6701 107.43 23.2801C106.62 20.8901 108.32 21.02 109.75 20.65C111.27 20.26 112.54 19.7102 112.91 22.1102C113.31 24.6802 114.14 27.18 114.78 29.71C116.31 34.32 117.18 39.0602 118.15 42.6102C118.29 38.9502 114.94 34.6 115.7 29.65C115.24 27.39 114.95 25.08 114.28 22.88C113.66 20.85 114.18 19.72 116.17 19.14C118.44 18.48 118.63 19.9601 118.76 21.5701C118.85 22.7501 119.55 23.3202 120.71 23.3702L120.7 23.3602Z" fill="#ED4C66"/>
<path d="M97.8101 34.6598C99.7701 40.7498 101.73 46.8399 103.68 52.9299C102.82 53.5499 102.31 54.8098 100.91 54.4198C100.15 54.1098 99.03 54.4999 98.6 54.0299C96.82 52.0899 97.13 54.2798 96.65 54.9098C96.1 55.0698 95.56 55.2298 95.01 55.3898C93.21 55.0498 91.16 55.35 90.02 53.37C89.76 52.96 89.5699 52.52 89.4399 52.06C87.6299 45.15 84.09 38.7098 83.67 31.4098C83.73 31.1798 83.79 30.9399 83.85 30.7099C83.26 26.7699 84.78 24.9298 88.88 25.6398C90.02 30.4098 91.42 35.11 92.47 38.32C91.31 35.15 90.2001 30.3799 88.8101 25.6899C92.4567 24.0499 94.7467 25.1165 95.6801 28.8898C96.1801 30.8998 96.2799 33.0599 97.8199 34.6799L97.8101 34.6598Z" fill="#F14F68"/>
<path d="M80.21 40.9399C79.08 36.4999 77.9501 32.0501 76.8101 27.6101C80.6401 25.2601 82.28 27.8699 83.84 30.6899L83.8 30.6201C85.79 38.0901 88 45.4899 90.84 52.6899L90.8 52.6101C90.15 56.1701 88.01 56.86 83.37 55C80.67 50.68 78.86 46.1599 80.21 40.9299V40.9399Z" fill="#F14E68"/>
<path d="M101.86 27.6299C103.94 34.1899 106.01 40.7601 108.09 47.3201C104.67 41.0701 102.4 34.4699 100.85 27.6299C101.19 27.6299 101.53 27.6299 101.86 27.6299Z" fill="#971E29"/>
<path d="M115.7 29.6399C116.46 34.4099 118.51 38.9401 118.41 43.8701C116.62 39.2801 115.03 34.6499 114.78 29.6899C115.09 29.6699 115.39 29.6499 115.7 29.6399Z" fill="#8F1925"/>
<path d="M195.91 32.6499C195.26 32.8699 194.61 33.09 193.96 33.31C192.02 33.04 192.53 31.5 192.28 30.26C190.77 22.78 190.5 15.1199 188.98 7.63988C188.68 7.01988 188.36 8.16997 188.86 7.72997C189.09 7.52997 189.22 7.59993 189.28 7.93993C190.51 14.9099 190.49 22.06 192.23 28.97C192.66 30.66 192.66 32.67 190.63 33.77C189.36 35.21 187.45 34.68 185.91 35.31C182.97 35.66 181.41 34.18 180.74 31.47C180.56 31.01 180.46 30.54 180.41 30.06C180.56 27.31 179.25 24.9299 178.41 22.4299C177.94 18.9599 176.09 15.53 178.18 12.01C177.61 9.08 177.05 6.15 180.79 4.76C183.99 5.55 187.13 4.51002 189.92 3.53002C193.62 2.24002 194.84 3.80993 195.82 6.68993L195.8 6.66991C195.51 13.8299 196.26 20.9199 197.56 27.9399C197.95 30.0699 197.46 31.4299 195.92 32.6699L195.91 32.6499Z" fill="#F14A68"/>
<path d="M195.81 6.67999C196.09 5.19999 194.84 2.67009 197.13 2.53009C199.61 2.39009 198.43 4.98998 198.71 6.41998C200.25 14.24 199.01 22.2202 200.27 30.1102C197.97 28.0602 197.92 25.41 197.78 22.73C197.49 17.33 197.53 11.88 195.8 6.64996L195.82 6.66998L195.81 6.67999Z" fill="#EE456E"/>
<path d="M80.2099 40.94C81.3599 45.16 82.51 49.3801 83.65 53.6001C84.89 54.6801 83.99 55.7501 83.62 56.8201C83.05 56.9801 82.47 57.1401 81.9 57.3001C79.12 57.5601 77.42 56.3301 76.79 53.6101L76.8299 53.68C74.8399 48.76 73.32 43.6801 71.79 38.6101L71.8399 38.67C72.1499 36.42 71.21 34.3899 70.5 32.3999C69.76 30.3399 69.5 29.14 72.23 28.49C74.46 27.96 75.28 28.11 76.1 30.51C77.3 34.03 77.3699 38.06 80.1999 40.94H80.2099Z" fill="#EF4966"/>
<path d="M161.83 8.70992C165.39 9.79992 163.72 13.4499 165.3 15.7399C167.29 13.2799 163.2 9.67993 166.84 7.71993C169.16 7.54993 170.49 7.90984 171.03 10.8798C171.7 14.5798 171.5 18.6799 174.1 21.8899C177.73 23.3299 176.99 26.73 177.57 29.55C177.02 32.28 179.55 35.6899 175.8 37.7299L175.86 37.6899C169.95 39.8099 171.22 34.5699 169.96 31.9299C168.77 29.0199 168.29 25.9399 167.56 22.9199C168.35 26.0699 168.75 29.32 170.21 32.31C170.32 33.29 170.33 34.2699 170.79 35.1899C172.11 37.8199 170.91 38.8699 168.39 39.7199C165.52 40.6799 164.8 39.15 164.41 37.02C163.77 33.5 162.5 30.1499 161.79 26.6599L161.83 26.7199C161.96 22.5699 160.27 18.7801 159.3 14.8601C158.59 11.9701 158.78 9.87995 161.82 8.73995L161.83 8.70992Z" fill="#EF4F67"/>
<path d="M175.77 29.4499C175.21 26.9299 174.65 24.4099 174.1 21.8899C173.49 18.4599 172.82 15.0401 172.3 11.6001C172.03 9.83006 170.5 7.55005 173.78 6.83005C176.99 6.12005 176.65 8.52989 177.04 10.4199C177.16 10.9999 177.79 11.47 178.19 11.99C178.97 15.39 179.84 18.77 179.78 22.3C180.76 25.03 180.79 27.9999 181.85 30.7099L181.81 30.6399C183.21 33.8599 182.55 36.0599 178.79 36.7299H178.86C175.8 35.1699 177.31 31.6699 175.79 29.4599L175.77 29.4499Z" fill="#F04D69"/>
<path d="M240.48 320.5C239.02 321.48 237.49 321.91 235.79 321.09C220.55 313.71 208.54 303.03 205.42 285.8C202.89 271.82 204.04 257.83 213.44 245.86C214.15 244.96 214.59 243.85 215.15 242.84C222.68 233.59 232.09 226.51 241.79 219.76C243.34 218.68 244.53 217.42 246.09 219.98C255.25 235.1 263.62 250.49 265.89 268.44C268.04 285.47 263.53 299.98 250.43 311.49C247.07 314.44 243.79 317.5 240.48 320.51V320.5Z" fill="#299AA1"/>
<path d="M161.79 26.6299C164.01 29.2999 163.73 32.8201 164.89 35.8501C165.47 37.3801 164.99 39.71 168.04 39.01C170.94 38.35 170.73 36.8299 169.92 34.6699C169.59 33.7999 169.81 32.72 169.78 31.74L169.88 31.6399C171.9 33.6199 170.92 38.5799 175.85 37.6799C169.74 40.4199 163.18 41.4999 156.71 42.9199C159.42 38.9799 154.57 35.4301 156.09 31.3101C157.44 32.9301 157.5 34.75 157.96 36.45C158.55 38.64 158.83 41.5999 162.22 40.4399C165.3 39.3899 163.62 36.7699 163.22 34.9099C162.64 32.1599 161.36 29.5499 161.77 26.6299H161.79Z" fill="#8D2D32"/>
<path d="M190.63 33.76C191.62 31.82 191.76 29.9099 191.34 27.6899C189.96 20.4499 188.98 13.14 189.11 5.73999C191.49 14.81 191.01 24.3601 193.97 33.3101C192.86 33.4601 191.75 33.61 190.63 33.77V33.76Z" fill="#961624"/>
<path d="M125.68 49.8401C126.16 44.3401 122.23 39.6599 122.8 34.1399C124.95 37.6799 125.43 41.7999 126.54 45.6699C127.12 47.6799 128.03 48.7701 129.87 49.3201C128.47 49.4901 127.08 49.6701 125.68 49.8401Z" fill="#871D23"/>
<path d="M145.89 43.5901C148.88 44.3801 151.6 44.61 152.02 40.48C153.45 41.52 154.71 42.4301 155.97 43.3501C152.18 44.1701 148.38 44.98 144.58 45.8C144.04 44.56 145.66 44.5499 145.77 43.6799L145.88 43.5901H145.89Z" fill="#8A2C30"/>
<path d="M83.63 56.8301C83.63 55.7601 83.65 54.6801 83.66 53.6101C86.42 56.0501 88.9101 56.4999 90.8101 52.6299C91.9101 53.9999 93.41 54.7699 95.01 55.3899C91.22 55.8699 87.43 56.3601 83.64 56.8401L83.63 56.8301Z" fill="#7E2124"/>
<path d="M130.75 48.8302C134.55 46.5102 138.37 44.3301 143.02 46.4801C138.93 47.2601 134.84 48.0402 130.75 48.8302Z" fill="#993639"/>
<path d="M178.77 36.72C181.79 35.69 182.05 33.2899 181.79 30.6299C183.09 32.2499 183.18 34.94 185.91 35.3C183.51 35.67 181.32 37.08 178.78 36.73L178.77 36.72Z" fill="#88262C"/>
<path d="M96.65 54.8999C96.4 53.0699 96.15 51.24 95.76 48.45C97.94 50.85 97.91 54.0899 100.91 54.4099C99.49 54.5699 98.07 54.7399 96.65 54.8999Z" fill="#8D2229"/>
<path d="M76.8 53.6201C78.04 55.4901 79.53 57.0101 81.91 57.3101C79.82 57.5101 77.74 57.7099 75.65 57.9099C76.04 56.4799 77.2601 55.2801 76.8101 53.6201H76.8Z" fill="#6E1A1E"/>
<path d="M175.77 29.45C177.81 31.45 177.17 34.58 178.84 36.73C178.14 38.02 176.94 37.79 175.8 37.73C177.66 34.96 175.04 32.22 175.77 29.46V29.45Z" fill="#88262C"/>
<path d="M71.8 38.6201C74.31 43.3601 75.87 48.4299 76.84 53.6899C74.15 48.9999 72.15 44.0901 71.8 38.6201Z" fill="#87131F"/>
<path d="M130.85 17.6399C133.55 22.5899 134.08 28.19 135.58 33.51C133.31 28.45 131.05 23.38 130.78 17.7L130.85 17.6399Z" fill="#81222D"/>
<path d="M141.81 31.6899C138.94 26.9899 138.82 21.5899 137.82 16.4099C139.6 21.3799 141.53 26.3099 141.84 31.6699L141.81 31.6899Z" fill="#921B2A"/>
<path d="M145.78 43.6799C143.18 40.1099 142.15 36.0099 141.8 31.6899L141.83 31.6699C144.08 35.3399 145.19 39.3901 145.88 43.5901L145.77 43.6799H145.78Z" fill="#8A2C30"/>
<path d="M128.93 34.79C128.06 31.59 127.19 28.3899 126.32 25.1899C128.61 27.9499 129.41 31.14 128.93 34.79Z" fill="#891620"/>
<path d="M148.01 29.8799C147.23 26.8299 146.45 23.77 145.67 20.72C145.99 20.64 146.31 20.56 146.64 20.49C147.43 23.54 148.21 26.5899 149 29.6499C148.67 29.7299 148.34 29.8099 148.02 29.8899L148.01 29.8799Z" fill="#81222D"/>
<path d="M110.15 37.71C111.74 40.96 113.3 44.2199 113.48 47.9299C111.63 44.7599 110.19 41.46 110.15 37.71Z" fill="#8B1621"/>
<path d="M90.84 52.7C87.11 45.78 84.7 38.4399 83.8 30.6299C86.71 37.8099 89.13 45.14 90.84 52.7Z" fill="#8B1521"/>
<path d="M88.8 25.6699C91.39 30.7799 92.4801 36.3201 93.5601 41.8701C91.3901 36.6201 88.94 31.4601 88.87 25.6201L88.8 25.6699Z" fill="#81222D"/>
<path d="M183.6 6.90991C184.41 12.3999 185.23 17.8999 186.04 23.3899C185.68 23.4399 185.31 23.49 184.95 23.55C184.12 18.07 183.29 12.5901 182.46 7.11011C182.84 7.04011 183.22 6.96991 183.6 6.90991Z" fill="#88101C"/>
<path d="M181.82 30.7C179.92 28.2 179.65 25.29 179.75 22.29C181.46 24.84 181.96 27.69 181.82 30.7Z" fill="#81222D"/>
<path d="M169.79 31.74C167.73 28.68 167.48 25.1499 167.11 21.6499C168.76 24.7799 169.92 28.0499 169.89 31.6399L169.79 31.74Z" fill="#911826"/>
</svg>
