<svg width="257" height="454" viewBox="0 0 257 454" fill="none" xmlns="http://www.w3.org/2000/svg">
<path d="M32.73 368.58C31.8 367.07 32.77 366.43 33.95 365.88C35.83 366.29 36.58 364.71 37.57 363.72C46.29 355.04 55.43 346.71 62.54 336.57C64.69 333.51 66.1 333.51 67.85 336.63C68.09 337.06 68.45 337.43 68.78 337.8C74.71 344.28 74.78 344.32 70.31 351.94C68.12 355.67 66.06 359.48 63.84 363.2C61.75 366.7 59.34 370.04 57.46 373.77C59.41 374.63 60.51 372.97 61.96 372.93C63.62 372.77 65.08 371.99 66.58 371.36C68.34 370.62 70.25 371.02 70.86 372.6C72.34 376.42 75.22 376.82 78.63 376.75C79.75 376.73 80.85 377.29 81.82 377.92C83.46 379.58 84.06 382.25 86.72 382.89C87.63 382.99 88.42 383.35 89.13 383.93C90.64 385.29 92.59 386.37 92.28 389.02C93.5 386.83 91.58 385.16 91.59 383.26C91.12 381.03 91.99 379.25 93.97 378.48C97.04 377.28 100.2 376 103.66 376.95C105.31 384.22 105.63 391.7 107.09 399.02C108.46 405.87 109.77 412.73 111.61 419.45C113 424.53 112.73 429.31 110.51 434.02C107.35 441.91 101.17 445.88 93.12 447.41C92.65 447.28 92.22 447.05 91.85 446.74C90.47 443.91 89.93 440.64 87.54 438.32C86.78 437.46 86.02 436.6 85.44 435.6C81.8 428.82 75.56 424.61 69.81 419.97C67.25 417.91 64.5 416.04 61.71 414.27C55.93 410.33 50.07 406.53 43.52 403.95C39.28 402.45 35.56 399.77 31.2 398.52C29.61 397.93 28.03 397.33 26.57 396.45C23.36 394.31 19.63 393.23 16.24 391.47C14.65 390.65 12.38 389.31 14.24 387.34C20.26 380.96 25.23 373.51 32.71 368.57L32.73 368.58Z" fill="#F3997F"/>
<path d="M100.19 19.1799L123.22 11.99C124.05 12.33 125.19 11.94 125.71 13.02C125.82 13.33 126.02 13.82 125.86 13.96C122.1 17.09 123.09 20.6999 124.66 24.4399C125.04 25.3399 125.17 26.3601 125.06 27.3601C124.95 28.3301 124.89 29.6001 123.65 29.6001C122.32 29.6001 122.83 28.0401 122.27 27.3201C122.63 28.4601 122.93 29.5899 123.55 30.6799C124.32 32.0199 124.59 33.99 122.87 34.47C121.03 34.98 121.87 32.46 120.98 31.78C121.21 34.79 123.87 37.36 122.97 40.73C121.13 43.7 118.13 44.08 115.04 44.2C114.19 44.23 114.13 44.2599 114.25 45.6899C111.01 48.6099 106.78 49.1 102.86 50.24C90.94 53.7 78.78 56.24 66.93 59.96C65.2 60.5 63.42 60.9699 61.56 60.6399C59.93 60.2499 58.42 58.9801 58.7 57.6201C59.76 52.5801 58.39 47.05 61.69 42.47C64.2 43.63 63.86 46.17 64.48 48.24C65.16 50.51 64.96 53.09 66.75 54.96C67.1 55.03 67.46 55.1001 67.82 55.1201C68.52 55.1301 69.2 55.0899 69.81 54.6699C70.07 54.3799 70.26 54.08 70.38 53.71C70.18 51.52 69.44 49.4799 68.91 47.3799C68.48 45.6799 67.79 44.1 69.72 42.45C71.54 40.89 70.12 38.38 70.26 36.29C70.32 35.3 70.33 34.16 71.46 33.78C72.52 33.42 72.81 34.4299 73.16 35.1499C73.3 35.4399 73.33 36.0801 73.38 36.0801C83.23 35.1301 78.77 43.8399 81.48 47.1399C81.55 46.8899 81.56 45.58 82.89 45.79C83.82 45.94 83.68 47.05 83.6 48.96C83.81 47.37 83.76 46.8299 83.62 46.3999C83 44.5099 80.67 41.97 83.59 40.98C85.62 40.29 85.84 43.6601 86.61 45.3701C87.47 47.2901 89.81 47.0201 91.58 46.3701C95.32 44.9901 93.35 42.8201 92.96 40.8401C92.19 36.9201 90.85 33.14 89.88 29.27C89.49 27.71 87.59 25.4701 90.06 24.5801C91.93 23.9001 92.15 26.62 93.08 27.73C93.02 27.08 92.47 26.5299 92.14 25.8899C91.73 25.0999 91.54 24.2499 92.35 23.6599C93.34 22.9399 94.27 23.41 94.97 24.21C96.67 26.14 97.26 28.5999 98.17 30.9199C99.92 35.3899 100.59 40.2101 102.66 44.5901C101.67 36.6001 98.89 29.0601 96.81 21.3401C97.24 19.5101 99.74 20.9499 100.22 19.1899L100.19 19.1799Z" fill="#BB2044"/>
<path d="M62.11 373.5C61.51 374.06 60.95 374.68 60.29 375.17C59.03 376.1 57.64 376.79 56.23 375.55C54.45 373.99 56.16 372.87 56.93 371.77C62.32 363.95 66.74 355.56 71.38 347.3C72.96 344.49 73.58 342.38 70.08 340.53C67.94 339.39 66.33 337.43 65.43 334.29C57.07 345.85 47.41 355.2 37.57 364.38C36.06 365.79 36.06 365.78 33.94 365.87C48.73 352.63 61.62 337.83 72.23 320.94C77.07 313.24 81.11 305.11 85.91 297.42C86.37 297.63 86.7 297.96 86.91 298.42C87.3 299.64 87.15 300.82 86.66 301.97C82.69 307.73 80.04 314.22 76.48 320.21C74.74 323.14 74.19 326.43 74.68 329.83C75.01 332.14 75.03 334.4 74.31 335.84C76.39 328.42 82.26 322.16 85.96 314.71C86.33 313.97 86.82 313.28 87.38 312.67C88.36 311.62 89.43 309.84 90.96 310.84C92.6 311.91 91.28 313.58 90.59 314.79C88.11 319.11 85.65 323.43 83.16 327.75C80.86 331.75 78.94 335.93 78.14 340.32C81.29 337.31 80.99 331.57 85.83 329.49C86.82 329.85 87.32 330.63 87.61 331.59C87.38 335.97 83.37 338.6 83.07 342.29C83.63 341.91 84.56 340.51 86.3 341.15C87.22 341.54 88.01 342.01 88.26 343.1C88.46 343.94 87.31 343.59 87.37 344.24C89.24 342.35 93.53 344.7 94.04 340.43C98.53 336.88 103.91 335.01 108.96 332.54C109.94 332.06 111.38 331.55 112.03 332.95C112.63 334.25 111.44 335.08 110.48 335.71C108.8 336.81 106.75 337.07 105.76 337.68C104.34 338.18 105.11 338.84 104.82 338.24C106.13 337.68 107.39 336.95 108.87 336.86C114.4 336.6 119.58 335.39 123.81 331.49C127.53 334.55 127.49 336.69 123.21 337.94C109.53 341.93 96.34 347.99 81.71 348.07C78.7 348.09 76.77 349.65 75.28 352.07C72.74 356.19 70.95 360.69 68.58 364.89C66.81 368.03 65.54 371.6 62.11 373.52V373.5Z" fill="#2F1211"/>
<path d="M85.92 297.43C90.17 285.39 94.42 273.4 96.28 260.62C98.51 245.3 97.51 230.1 96.07 214.85C95.59 213.78 95.46 212.83 96.92 212.45C98 211.03 96.79 216.11 98.62 213.03C99.29 211.9 100.77 211.64 102.14 211.67C103.18 211.81 104.11 212.11 104.42 213.28C98.61 219.01 98.53 219.98 102.74 227.25C106.49 233.74 110.93 239.75 115.23 245.86C116.97 248.33 119.08 250.42 122.28 250.91C125 250.91 124.67 248.76 125.07 247.05C125.31 246.01 125.42 244.42 127.02 244.79C128.08 245.04 128.17 246.3 127.92 247.33C127.45 249.29 127.86 251.3 127.52 252.87C128.44 251.43 126.57 248.99 128.74 247.42C129.15 247.46 129.36 247.64 129.38 247.97C129.38 248.03 129.42 248.09 129.44 248.15C131.11 237.55 134.87 227.48 137.45 217.12C137.86 215.45 139.15 213.91 138.38 211.93C135.88 212.5 136.66 216.5 133.62 216.3C131.84 214.85 133.43 210.64 129.34 211.09C128.06 211.1 126.79 211.07 125.51 210.99C124.12 210.48 121.67 211.13 122.49 208.23C129.34 206.11 136.26 206.92 143.17 207.7C143.69 207.92 144.12 208.28 144.44 208.74C139.48 221.96 138.48 236.4 132.05 249.18C134.78 243.74 137.25 238.2 139.36 232.5C139.85 231.17 140.22 229.53 142.17 229.48C143.03 230.17 143.26 231.13 143.32 232.16C143.21 237.02 139.71 240.77 138.93 245.4C138.38 246.7 139.8 247.81 139.31 249.11C138.79 250.4 137.95 251.55 136.78 252.13C131.04 254.96 130.43 259.87 130.52 265.55C130.6 270.9 131.56 276.14 131.62 281.47C131.64 282.8 131.64 284.14 131.41 285.45C130.99 287.79 129.83 289.69 127.31 289.77C124.36 289.86 123.99 287.38 123.86 285.21C123.52 279.56 123.71 273.9 123.73 268.24C123.75 262.37 122.72 257.52 117.13 253.73C110.08 248.95 105.7 241.42 100.63 233.31C100.94 248.77 99.48 262.89 95.93 276.79C94.44 282.62 92.14 288.15 90.02 293.75C89.36 295.5 88.8 297.68 86.17 297.63L85.94 297.43H85.92Z" fill="#311616"/>
<path d="M66.19 452.8C45.83 453.5 27.74 447.07 11.31 435.38C9.19999 433.28 6.86999 431.35 5.02999 429.04C0.88999 423.84 -0.760016 417.99 0.929984 411.31C3.85998 399.73 9.53999 389.76 18.22 381.6C22.95 377.16 26.52 371.39 32.73 368.59C27.41 374.2 22.17 379.88 16.73 385.37C14.24 387.89 13.28 389.27 17.68 390.84C21.16 392.07 24.86 393.18 27.83 395.65C23.23 397.71 19.76 394.4 15.85 393.17C12.45 392.16 14.02 395.23 13.25 396.37C13.68 399.09 15.97 399.48 17.99 400.13C20.53 400.95 23.07 401.74 25.4 403.05C26.26 403.53 27.38 404.2 27.08 405.27C26.68 406.64 25.26 406.53 24.13 406.33C20.68 405.71 17.47 404.26 14.1 403.33C7.2 401.42 7.22998 401.44 4.95998 408.18C2.01998 416.95 3.29999 424.62 10.72 430.65C24.12 441.55 39.36 448.12 56.66 449.15C64.76 449.63 72.94 449.7 81.09 448.02C80.9 446.35 79.4 445.36 78.75 443.91C78.1 442.45 76.66 440.78 78.57 439.52C80.18 438.46 81.46 440.06 82.2 441.25C84.55 445.04 87.94 446.59 92.24 446.54C99.52 444.9 105.74 441.74 109.14 434.6C109.73 434.65 110.24 434.95 110.78 435.14C116.72 432.85 120.33 427.64 125.05 423.85C125.74 423.27 126.31 422.57 126.92 421.91C131.35 417.11 136.44 412.78 138 405.96C138.19 405.15 138.9 404.6 139.84 404.53C140.4 406.54 142.88 404.78 143.62 406.45C142.93 411.37 139.57 414.85 136.53 418.19C125.75 430.05 114.03 440.88 99.15 447.53C90.08 451.59 80.39 453.04 70.54 453.6C69.03 453.69 67.55 453.52 66.18 452.8H66.19Z" fill="#461218"/>
<path d="M134.34 8.5C135.24 7.5 136.36 7.34993 137.6 7.67993C142.17 6.81993 146.47 4.9699 150.98 3.8999C154.75 4.0699 154.34 6.81006 154.33 9.31006C154.27 9.82006 154.14 10.3201 153.97 10.8101C152.64 13.2201 152.29 15.7299 153.22 18.3799C153.76 21.9899 153.56 25.63 153.46 29.25C153.4 31.57 152.62 33.5799 149.95 33.8899C146.86 34.2399 146.94 31.2601 146.91 29.8301C146.85 26.7301 145.1 23.84 145.75 20.72C145.12 23.9 146.21 27.0899 146.98 29.9299C147.95 33.5299 146.71 34.6801 143.91 35.6201C143.52 35.8801 143.09 35.99 142.62 35.96C142.29 35.83 141.95 35.3401 141.9 35.3601C138.33 36.5901 138.35 34.5401 138.88 31.8701C138.26 33.5101 139.21 35.2699 138.14 36.6899C135.95 36.4999 136.13 34.65 135.47 33.46C135.31 33.01 135.19 32.5401 135.1 32.0701C134.96 29.1501 134.18 26.33 133.73 23.46C133.52 22.76 133.34 22.0501 133.16 21.3401C132.69 18.7001 131.69 16.1499 131.87 13.4099C131.87 12.7199 131.94 12.0301 132.09 11.3501C132.11 9.8301 133.84 9.65 134.34 8.5Z" fill="#D7335C"/>
<path d="M151.05 4.63981C146.48 5.28981 142.39 8.02985 137.6 7.67985C144.22 5.36985 150.84 3.04992 157.46 0.749922C160.24 -0.220078 161.86 0.829853 162.38 3.67985C166.07 37.4999 174.09 70.3198 185.23 102.41C190.07 116.37 196.26 129.77 202.58 143.11C203.27 144.57 204.59 145.81 204.3 147.65C201.07 148.14 200.58 145.34 199.6 143.46C194.99 134.6 191.36 125.3 187.52 116.1C186.24 113.03 184.33 110.82 181.5 109.1C176.38 105.99 171.44 102.6 167.29 98.1999C163.12 93.7799 163.43 91.32 168.53 87.82C175.84 82.8 175.8 82.8098 173.34 73.8798C169.98 61.6998 166.66 49.4999 164.69 36.9999C164.27 34.3399 163.13 32.3299 160.87 30.9299C159.97 28.9199 159.02 26.78 162.03 25.78C163.53 25.28 162.6 24.4598 162.49 23.9198C161.17 17.4698 161.04 10.8398 159.61 4.41984C159.21 3.70984 158.67 3.2298 157.77 3.3798C155.62 4.3398 153.24 4.01981 151.04 4.63981H151.05Z" fill="#422120"/>
<path d="M87.42 175.6C75.94 137.66 60.11 101.31 46.49 64.1499C43.71 56.5599 39.69 49.41 36.3 42.04C35.38 40.04 34.34 37.8301 37.94 37.3101C38.37 37.5501 38.64 37.9199 38.75 38.3999C40.42 46.4899 44.98 53.33 48.31 60.71C48.78 61.76 49.64 62.62 49.91 63.79C51.98 71.7 54.97 79.3101 58.04 86.8501C68.79 113.22 78.68 139.9 87.55 166.96C88.32 169.31 89.51 171.59 89.06 174.21C88.79 174.99 88.41 175.65 87.44 175.61L87.42 175.6Z" fill="#401F1D"/>
<path d="M100.19 19.1799C99.94 20.9599 97.92 20.5101 97.13 21.6101C91 24.3101 84.78 26.8699 78.28 28.4199C72.92 29.6999 68.33 33.78 62.37 32.8C58.37 33.83 54.62 35.1901 50.81 37.0601C47.73 38.5801 42.49 39.4499 38.18 37.6899L37.93 37.3C45.37 34.04 53.31 32.46 61.08 30.27C74.12 26.59 87.15 22.8699 100.19 19.1699V19.1799Z" fill="#6A1D2A"/>
<path d="M87.42 175.6C87.74 175.19 88.07 174.78 88.39 174.37C90.33 174.85 90.82 176.53 91.22 178.09C93.75 187.83 96.65 197.49 97.68 207.55C97.86 209.28 98.58 211.17 96.98 212.69C96.67 213.41 96.37 214.14 96.06 214.86C93.94 201.61 91.23 188.49 87.42 175.61V175.6Z" fill="#553735"/>
<path d="M134.34 8.5C135.72 10.26 133.2 9.68006 133.1 10.5601C130.61 12.7701 132.16 15.4299 132.26 17.9399C132.31 19.3899 132.58 21.3 130.72 21.52C129.14 21.7 129.02 19.7901 128.74 18.5901C128.21 16.3001 127.61 14.13 125.29 12.98C124.6 12.65 123.91 12.33 123.22 12C126.93 10.83 130.64 9.67 134.34 8.5Z" fill="#9A0D2A"/>
<path d="M96.98 212.68C95.4 199.62 92.76 186.8 88.39 174.36C83.47 157.14 77.22 140.38 70.82 123.67C63.77 105.26 56.73 86.8399 49.79 68.3899C49.21 66.8599 47.51 65.3298 48.93 63.3798C52.42 59.9498 56.81 59.6601 61.33 59.8701C78.93 54.7601 97.03 51.4301 114.21 44.8701C123.59 40.9201 133.05 37.25 143.2 35.74H143.16C147.67 34.2 152.31 32.9999 156.63 30.9399C158.13 30.4899 159.63 30.3599 161.13 30.9199C163.76 30.2299 164.89 31.0899 165.39 33.9499C168.25 50.1399 172.26 66.06 177.1 81.77C177.68 83.66 177.36 84.55 175.47 85.56C161.95 92.77 161.97 92.88 173.92 102.29C175.09 103.21 176.23 104.34 177.57 104.88C185.95 108.23 189.03 115.54 192.06 123.19C194.98 130.59 198.56 137.73 201.93 144.95C202.43 146.01 202.45 147.68 204.29 147.64L204.19 147.59C206.09 150.48 207.03 153.92 209.23 156.65L209.18 156.59C210.73 158.83 211.41 161.57 213.23 163.65L213.19 163.6C216.02 167.97 218.07 172.85 221.7 176.7C223.51 179.63 225.32 182.55 227.12 185.48C228.47 187.56 226.82 188.56 225.53 189.5C209.72 201.02 196.59 215.43 182.92 229.25C179.44 232.03 179.15 234.94 181.89 238.62C186.23 244.47 189.74 250.9 194.31 256.6C194.62 256.95 194.88 257.33 195.14 257.72C200.6 266.59 206.95 274.85 212.45 283.7C212.74 284.08 212.98 284.48 213.21 284.9C214.88 288.33 216.48 291.8 218.03 295.3C219.53 298.7 218.95 301.29 216.32 303.8C210.56 309.31 204.98 315.01 200.24 321.46C199.99 321.87 199.7 322.25 199.4 322.61C186.76 338.21 175.27 354.61 164.96 371.86C161.65 377.39 158.81 383.24 154.6 388.21C153.75 388.85 152.83 389.23 151.74 388.9C141.23 382.05 129.56 378.56 117.21 377.08C112.46 376.82 107.68 377.5 102.95 376.63C101.67 378.97 99.4 378.41 97.32 378.73C94.57 379.16 91.35 379.63 93.07 383.91C91.66 385.14 89.94 384.74 88.32 384.84C87.9 383.97 87.14 383.68 86.24 383.64C86.13 383.53 85.9 383.37 85.92 383.31C87.22 379.69 83.3 380.28 82.17 378.63C79.25 378.58 76.46 376.8 73.39 378.32C72.05 378.98 71.35 377.84 71.21 376.45C70.76 372.12 68.96 370.74 65.1 373.63C64.2 374.3 63.05 374.98 62.11 373.51C66.35 365.7 70.54 357.87 74.86 350.12C75.88 348.28 77.12 346.47 79.78 346.61C92.32 347.23 103.76 342.61 115.41 338.99C117.62 338.3 119.82 337.6 122.03 336.93C123.4 336.51 125.6 336.86 125.83 335.26C126.04 333.82 124.88 332.2 123.13 331.59C122.92 331.49 122.71 331.38 122.5 331.29C117.52 326.45 112.97 321.19 107.59 316.77C105.54 315.35 103.89 313.43 101.73 312.15C97.09 308.24 91.68 305.51 86.59 302.3C86.47 302.1 86.36 301.89 86.25 301.68C86.22 300.34 86.19 298.99 86.16 297.65C91.53 288.97 93.99 279.21 96.14 269.44C98.76 257.54 99.68 245.43 98.89 233.22C98.82 232.15 98.45 230.93 99.8 229.67C102.29 233.41 104.6 237.14 107.17 240.69C111.46 246.63 115.77 252.64 122.82 255.64C124.81 256.49 124.39 257.95 124.51 259.32C125.24 267.8 125.18 276.29 125.04 284.79C125.02 286.35 123.78 288.94 126.79 289.01C129.51 289.07 130.29 287.06 130.17 284.53C129.8 276.71 129.67 268.88 129.11 261.08C128.83 257.17 129.81 254.54 133.5 252.7C135.82 251.54 137.7 249.48 139.77 247.82C142.25 243.25 146.62 240.33 149.82 236.37C151.25 234.6 152.88 232.94 154.3 231.12C156.12 229.08 156.98 226.46 158.46 224.21C160.39 221.64 162.1 218.94 163.6 216.11C160.21 212.01 155.14 212.18 150.63 211.07C148.38 210.52 146.01 210.47 144.16 208.81C136.86 207.93 129.56 208.49 122.26 208.81C115.88 211.91 108.93 211.96 102.09 212.58C101.03 212.92 99.59 212.94 98.99 213.66C96.54 216.61 97.51 213.27 97.01 212.67L96.98 212.68Z" fill="#F59D85"/>
<path d="M92.24 446.52C88.47 448.49 85.34 448.19 82.94 444.23C81.95 442.59 80.44 441.25 78.3 438.76C79.23 443.51 82.05 445.78 83.54 449.05C55.78 454.02 30.54 449.38 8.92002 430.75C0.740022 423.7 -0.049994 410.08 6.06001 401.16C7.25001 399.43 8.18001 400.22 9.38001 400.57C15.02 402.23 20.67 403.88 26.4 405.25C22.92 402.88 18.9 402.01 15.03 400.69C12.77 399.92 9.91001 399.13 12.06 395.62C13.53 394.42 14.24 392.41 16.19 391.71C19.88 393.6 23.71 395.07 27.84 395.65C28.48 397.17 30.63 395.94 31.24 397.52C35.58 399.21 39.2 402.64 44.15 402.83C50.5 405.65 56.71 408.74 62.21 413.07C62.63 413.98 63.08 414.95 63.96 415.41C68.44 417.74 71.62 421.47 74.81 425.2C75.37 427.05 76.38 428.24 78.54 427.73C81.94 429.2 84.09 431.77 85.14 435.3C84.81 437.79 86.86 437.85 88.37 438.46C90.65 440.71 91.1 443.84 92.25 446.62V446.53L92.24 446.52Z" fill="#BA2040"/>
<path d="M102.95 376.62C107.92 374.59 113.06 375.55 118.16 375.75C118.46 376.26 118.41 376.73 118.02 377.16C116.71 378.02 115.93 379.23 115.69 380.79C113.76 393.23 112.07 405.7 112.45 419.02C112.67 417.22 111.92 416.01 112.73 414.93C113.95 413.79 114.43 414.84 114.99 415.68C115.66 417.46 115.31 419.35 115.63 421.17C115.76 421.56 115.86 421.96 115.97 422.35C116.17 422.9 116.4 423.43 116.73 423.92C117.58 424.72 119.15 424.63 119.43 426.12C115.84 428.86 112.82 432.18 109.89 435.59C109.65 435.25 109.4 434.92 109.16 434.58C111.76 428.85 111.05 423.23 109.56 417.23C106.25 403.9 103.41 390.43 102.96 376.61L102.95 376.62Z" fill="#33100F"/>
<path d="M73.99 403.56C74.34 399.7 76.98 398.64 80.2 398.6C83.24 398.56 85.49 399.96 85.22 403.3C84.93 406.89 82.52 409.2 79.04 409.15C75.93 409.1 74.06 406.88 73.99 403.56Z" fill="#FAF7FA"/>
<path d="M35.54 374.54C38.98 374.45 41.26 375.72 41.07 379.06C40.88 382.33 38.53 384.31 35.35 384.12C32.3 383.93 30.66 381.43 30.69 378.56C30.73 375.53 32.86 374.27 35.54 374.54Z" fill="#FDF7FA"/>
<path d="M74.18 425.66C70.48 421.18 65 418.4 62.21 413.06C70.13 418.22 77.71 423.79 84.04 430.88C85.21 432.2 86.88 433.35 86.13 435.56C85.54 436.16 84.88 436.27 84.15 435.84C82.57 432.98 82.23 429.04 77.86 428.62C76.45 427.86 75.27 426.83 74.19 425.66H74.18Z" fill="#7A131E"/>
<path d="M89.1 420.89C93.63 415.33 84.24 416.85 85.88 412.67C87.29 414.72 90.21 413.46 91.8 416.28C93.68 419.61 93.98 413.75 96.29 415.21C95.09 418.46 93.94 421.59 89.1 420.89Z" fill="#5D3026"/>
<path d="M88.31 384.83C89.71 383.59 91.3 383.3 93.06 383.9C93.67 386.08 95.11 388.32 92.22 390.08C91.31 390.63 90.66 390.53 90.11 389.77C89.76 389.28 89.61 388.65 89.38 388.08C90.12 388.12 90.85 388.16 92.08 388.22C90.62 386.91 89.46 385.87 88.3 384.83H88.31Z" fill="#6D403E"/>
<path d="M44.15 402.82C38.83 403.52 35.17 400.17 31.24 397.51C36.03 398.1 39.79 401.19 44.15 402.82Z" fill="#5B090E"/>
<path d="M82.16 378.62C86.38 377.96 86.86 380.35 86.23 383.63C84.16 382.54 80.73 382.56 82.16 378.62Z" fill="#86443C"/>
<path d="M84.14 435.84C84.8 435.75 85.46 435.66 86.12 435.56C87.08 435.96 87.82 436.59 88.17 437.61C88.68 438.08 88.6 438.42 87.94 438.62C85.53 439.25 82.51 440.72 84.14 435.84Z" fill="#D07D88"/>
<path d="M87.94 438.62C88.02 438.28 88.09 437.95 88.17 437.61C91.02 439.93 92.34 442.96 92.25 446.61C90.09 444.34 90.29 440.79 87.95 438.62H87.94Z" fill="#461218"/>
<path d="M182.15 228.23C195.56 213.83 209.26 199.72 225.32 188.17C226.34 187.43 227 186.7 227.13 185.48C228.91 186.3 229.28 188.15 230.19 189.62C229.37 190.49 228.39 191.07 227.18 191.13C225.45 191.21 225.87 192.99 225.02 193.76C226.06 193.31 225.35 191.53 226.77 191.4C228.16 191.27 229.25 190.61 230.19 189.63C232.87 191.97 234.36 195.15 236.17 198.11C239.02 203.25 242.57 207.94 245.78 212.85C251.32 221.46 254.51 231.05 256.16 240.98C257.67 250.08 254.59 258.66 250.82 266.88C249.37 270.04 247.72 273.1 245.62 275.9C245.39 276.34 245.11 276.76 244.8 277.14C240.72 281.41 236.53 285.58 232.29 289.69C231.94 290 231.57 290.28 231.18 290.55C228.82 292 226.88 293.95 224.87 295.84C224.54 296.18 224.17 296.48 223.78 296.75C219.17 299.01 218.96 298.9 217.05 294.26C215.68 290.93 214.23 287.62 212.08 284.68L212.11 284.72C206.67 275.33 200.55 266.41 194.09 257.7L194.12 257.73C190.17 251.99 186.66 245.92 182.38 240.44C179.05 236.17 178.26 232.38 182.16 228.24L182.15 228.23Z" fill="#B21A3A"/>
<path d="M256.16 237.65C257.18 250.47 254.96 262.51 247.44 273.23C246.53 274.53 246.08 276.29 244.21 276.72C246.14 272.95 248.14 269.22 249.98 265.42C257.26 250.36 256.26 235.43 249.13 220.63C247.84 217.95 246.46 215.32 245.12 212.66C244.83 212.38 244.75 212.11 244.87 211.85C244.99 211.61 245.1 211.48 245.21 211.48C250.6 218.41 253.69 226.33 255.24 234.91C255.41 235.84 255.84 236.73 256.15 237.64L256.16 237.65Z" fill="#4C161B"/>
<path d="M245.22 211.49C245.19 211.88 245.16 212.27 245.13 212.66C242.04 207.87 237.67 203.87 236.18 198.09C239.63 202.26 242.87 206.57 245.22 211.48V211.49Z" fill="#4F1B21"/>
<path d="M221.71 176.7C217.23 173.4 214.96 168.67 213.2 163.6C217.01 167.33 219.12 172.17 221.71 176.7Z" fill="#4D2B25"/>
<path d="M209.24 156.66C206.44 154.26 204.76 151.24 204.2 147.6C206.77 150.12 208.36 153.2 209.24 156.66Z" fill="#422120"/>
<path d="M213.24 163.65C210.75 161.95 209.47 159.56 209.19 156.59C211.4 158.45 212.75 160.8 213.24 163.65Z" fill="#422120"/>
<path d="M62.27 31.8401C73.89 28.4301 85.51 25.0201 97.13 21.6101C101.95 28.6701 101.84 37.33 104.77 45.01C105.39 46.64 103.56 46.3499 102.97 46.6699C101.26 47.5999 101.16 45.7001 100.89 44.8501C99.28 39.8101 97.86 34.7099 96.32 29.6499C95.71 27.6299 95.08 25.58 93.01 23.74C92.32 26.88 96.14 29.06 94.13 32.22C91.96 30.16 92.76 26.67 89.71 24.71C91.47 30.77 93.53 36.1301 94.41 41.8101C94.71 43.7501 96.22 45.8001 93.05 46.5901C90.99 47.1101 91.48 48.86 91.32 50.28C89.76 49.89 90.57 48.4499 89.7 47.6699C88.5 48.3999 89.72 51.3499 87.39 50.8799C85.76 50.5599 86.38 48.65 85.96 47.46C85.26 45.46 84.55 43.4599 83.47 40.4199C82.97 44.7099 84.87 47.52 85 50.8C82.99 49.97 83.59 48.04 82.85 46.73C81.32 47.7 82.69 49.36 81.9 50.53C81.7 50.48 81.3 50.4701 81.27 50.3601C80.2 46.5401 79.27 42.6699 78.04 38.8999C77.79 38.1399 78.12 36.8801 75.87 36.6201C73.11 36.3001 74.81 38.86 73.47 38.8C72.94 37.44 72.4 36.0799 71.65 34.1699C70.46 36.9799 73.53 39.5799 71.67 41.3999C68.14 44.8599 70.75 48.1801 71.31 51.5701C71.53 52.9401 72.9 54.3099 71.22 55.6299C68.39 54.3099 68.45 51.45 67.72 49.01C67.02 46.67 66.62 44.24 65.71 41.97C65.5 41.56 65.32 41.13 65.16 40.7C64.33 37.71 61.9 35.2301 62.28 31.8401H62.27Z" fill="#D4355C"/>
<path d="M62.27 31.84C64.1 34.55 65.38 37.4998 66.16 40.6698C66.01 40.7298 65.82 40.87 65.7 40.82C65.26 40.65 64.96 40.77 65.11 41.07C66.68 44.21 67.14 47.6399 67.81 51.0199C68.13 52.6599 68.58 54.2598 67.19 55.6498L67.12 55.6898C64.76 55.2398 65.17 53.1 64.7 51.58C63.8 48.64 63.93 45.3998 62.17 42.6998C61.68 48.4098 58.06 53.97 61.31 59.87C57.18 61.04 53.04 62.2098 48.91 63.3798C43.42 56.5598 41.31 48.0298 37.31 40.4498C36.77 39.4198 37.88 38.6298 38.16 37.7098C42.18 38.1398 45.85 34.0899 50.05 36.7699C50.64 34.7599 52.21 34.1698 54.06 33.6298C56.76 32.8398 59.34 31.66 62.25 31.85L62.27 31.84Z" fill="#C2254D"/>
<path d="M125.29 12.98C127.54 11.86 129.34 11.29 129.35 15.02C129.35 16.93 130.12 18.8499 130.63 21.1399C131.72 18.5999 130.88 16.6001 130.33 14.5701C129.68 12.1701 130.44 10.69 133.11 10.55C133.08 11.37 133.06 12.2 133.03 13.02C132 16.13 133.25 18.91 134.31 21.71C134.59 22.06 134.87 22.41 135.15 22.75C133.89 26.23 135.99 29.3599 136.19 32.6899V32.6699C137.41 35.5499 137.11 37.65 133.44 38.02C129.55 38.41 126.39 41.77 122.17 40.8C121.96 37.06 119.73 33.62 120.59 29.01C121.39 31.01 121.95 32.41 122.79 34.48C123.71 30.58 120.87 28.0001 121.32 24.8301C123.24 25.4901 122.24 27.98 124.03 28.75C124.37 26.29 123.63 23.91 122.67 22C120.73 18.17 121.38 15.6999 125.2 13.9299C125.35 13.8599 125.28 13.3 125.31 12.97L125.29 12.98Z" fill="#D23258"/>
<path d="M122.16 40.8101C126.56 39.4601 131 38.2499 135.32 36.6899C137.17 36.0199 135.8 34.0199 136.17 32.6899C137.62 33.2199 136.46 35.3001 137.99 35.8301C138.8 33.8001 137.42 31.5801 138.65 29.5801C140.01 31.2901 138.25 33.59 139.84 35.2C141.78 35.2 140.77 33.3901 141.53 32.6201C142.61 33.3701 141.83 35.17 143.21 35.75C133.82 39.66 123.99 42.1599 114.22 44.8799C113.19 44.0499 112.85 42.7599 113.59 41.9199C114 41.4499 114.22 43.64 115.39 43.3C117.7 42.63 120.13 42.2601 122.16 40.8201V40.8101Z" fill="#930F26"/>
<path d="M67.21 55.6499C66.71 50.0999 65.52 44.69 63.18 38.98C64.53 39.74 65.35 40.2099 66.17 40.6699L66.2 40.72C67.78 45.64 68.55 50.77 70.06 55.71C69.08 57.26 68.15 55.8899 67.21 55.6499Z" fill="#D4355C"/>
<path d="M62.2 42.6899C65.07 44.2399 64.25 47.35 65.03 49.74C65.68 51.75 65.64 53.9799 67.15 55.6899C66.47 58.0199 65.64 57.7799 65.12 55.6899C64.06 51.3799 63.16 47.03 62.2 42.7V42.6899Z" fill="#D4355C"/>
<path d="M70.06 55.71C67.38 51.07 66.95 45.85 66.2 40.72C69.24 45.23 68.57 50.9899 71.22 55.6399C70.83 55.6599 70.44 55.69 70.06 55.71Z" fill="#C2254D"/>
<path d="M74.29 54.1499C73.22 52.4199 71.82 50.7901 72.55 48.0901C74.16 50.1601 74.54 52.0799 74.29 54.1499Z" fill="#D4355C"/>
<path d="M116.15 16.95C118.29 18.69 118.87 21.0099 118.45 23.6799C117.68 21.4399 116.92 19.19 116.15 16.95Z" fill="#D23258"/>
<path d="M86.17 329.54C82.28 333.34 82 339.54 76.35 343.68C78.14 330.61 85.91 321.39 90.88 310.9C88.02 313.52 86.27 316.93 84.17 320.12C81.92 323.54 80.64 327.46 77.81 330.64C75.42 333.31 76.26 337.84 73.39 340.57C70.07 332.56 77.8 309.18 86.25 301.66L86.14 301.61C87.86 302.63 88.34 304 87.32 305.79C88.02 304.68 88.8 303.46 90.32 304.37C92.96 305.96 95.96 307.03 98.26 309.08C100.99 311.52 97.53 312.92 96.93 314.81C92.86 319.13 90.93 324.96 86.81 329.26C86.6 329.36 86.39 329.45 86.18 329.54H86.17Z" fill="#E8A49A"/>
<path d="M86.15 341.52C83.62 341.59 82.21 344.43 79.37 344.38C83.31 340.72 83.93 335.33 87.3 331.63C87.77 329.72 89.26 328.31 90.8 329.5C93.13 331.3 90.22 332.41 89.75 333.63C91.35 331.37 93.98 329.26 92.82 325.6C92.78 324.56 93.26 323.82 94.13 323.3C99.22 324.22 100.1 319.49 102.62 316.95C104.39 314.94 106.33 315.11 108.36 316.49C109.8 318.56 108.44 319.85 107.1 321.19C104.39 323.89 101.68 326.6 98.98 329.32C101.71 326.63 104.39 323.89 107.13 321.21C108.8 319.59 110.5 318.33 112.62 320.64C114.84 323.06 113.25 324.62 111.36 325.89C105.11 330.11 100.08 336.28 92 337.63C89.93 337.98 88.98 340.68 86.85 341.42C86.62 341.45 86.38 341.47 86.15 341.5V341.52Z" fill="#DEADA1"/>
<path d="M109.29 337.58C106.81 338.21 104.34 338.84 101.86 339.46C101.81 339.34 101.76 339.21 101.72 339.09C105.21 337.15 108.71 335.22 112.2 333.28C112.08 333.03 111.96 332.79 111.84 332.54L94.4 340.82C93.06 342.45 91.63 343.18 89.96 341.24C89.85 339.87 90.75 338.97 91.77 338.52C99.41 335.12 105.63 329.6 112.38 324.87C113.38 324.17 114.29 322.59 115.72 324.03C117.44 325.77 115.07 326.46 114.57 327.64C117.34 325.02 119.33 326.73 120.8 329.01C122.36 331.44 119.72 331.95 118.45 332.96C116.37 334.61 113.81 335.52 111.78 337.26C111.02 337.89 110.25 338.53 109.29 337.58Z" fill="#E5BAA9"/>
<path d="M58.08 374.25C64.12 364.48 69.19 354.18 75.21 344.41C70.2 354.75 65.73 365.39 58.08 374.25Z" fill="#C49688"/>
<path d="M93.17 325.51C94.13 326.21 96.95 326.1 95.1 328.18C92.32 331.32 90.29 335.19 85.98 338C86.89 334.37 90.15 333.12 91.01 330.12C89.24 329.41 88.65 331.6 87.29 331.63C85.98 331.44 86.19 330.43 86.17 329.54L86.1 329.64C86.98 328.66 87.63 327.45 88.88 326.85C90.31 326.41 91.65 325.69 93.16 325.52L93.17 325.51Z" fill="#89605B"/>
<path d="M109.29 337.58C109.9 337.44 110.51 337.3 111.13 337.15C114.96 334.88 118.01 330.91 123.21 331.67L123.14 331.55C123.9 333.65 124.5 335.67 121.05 335.6C118.02 335.54 115.61 337.56 112.72 338.05C111.47 338.26 110.25 339.16 109.29 337.57V337.58Z" fill="#CCB4AA"/>
<path d="M90.31 340.76C91.65 342.44 93.04 340.89 94.41 340.83C95.13 341.33 96.32 341.72 96.47 342.35C96.65 343.11 95.48 343.37 94.7 343.59C91.56 344.5 88.37 345.05 85.19 344.85C83.79 343.1 88.95 343.63 86.16 341.51L86.13 341.59C87.48 341.05 88.65 339.68 90.32 340.75L90.31 340.76Z" fill="#887271"/>
<path d="M72.11 325.28C71.12 329.48 71.17 333.54 71.13 337.88C67.98 333.76 68.33 329.68 72.11 325.28Z" fill="#DAB8B5"/>
<path d="M102.06 212.58C108.55 210.09 115.35 209.23 122.23 208.81C123.4 210.05 125 209.45 126.38 209.8C127.08 210.59 127.53 211.59 127.29 212.55C125.5 219.65 128.36 226.65 127.64 233.72C127.38 236.26 128.44 238.6 129 241.01C129.39 242.24 129.68 243.5 129.88 244.78C129.66 245.75 129.93 246.86 129.11 247.68C127.36 249.42 129.33 252.38 126.68 254.23C126.84 251.23 126.98 248.5 127.12 245.77C125.9 248.46 127.52 252.86 122.25 252.66C115.3 246.09 111.17 237.5 105.88 229.75C104.13 227.18 101.99 224.74 101.42 221.53C101.08 219.61 100.38 217.17 102.9 216.46C105.06 215.85 106.02 218 106.59 219.71C108 223.99 111.34 227.21 112.9 231.39C114.28 235.04 115.89 238.57 117.66 241.19C115.19 237.98 115.04 232.94 112.4 228.98C109.72 223.77 108.46 217.81 104.14 213.47C103.45 213.18 102.77 212.89 102.08 212.59L102.06 212.58Z" fill="#5B3837"/>
<path d="M111.88 231.83C110.2 228.86 109.2 224.74 106.66 223.23C103.71 221.49 107.74 216.75 102.25 217.47C101.09 220.05 102.7 222.71 104.31 225.21C110.23 234.39 116.25 243.51 122.24 252.65C119.77 252.75 118.18 251.04 116.91 249.44C110.09 240.82 102.82 232.46 99.14 221.81C97.46 216.96 98.72 214.79 104.12 213.44C106.33 212.52 107.03 214.19 107.68 215.64C109.59 219.9 111.39 224.21 113.24 228.5C113.6 229.94 114.67 231.67 111.87 231.81L111.88 231.83Z" fill="#F1B1A9"/>
<path d="M142.27 229.47C138.78 236.62 136.78 244.51 131.53 251.01C131.4 250.54 131.1 250.09 131.21 249.8C135.66 238.07 137.61 225.63 141.51 213.75C141.97 212.36 141.92 210.28 144.14 209.97C147.99 209.41 149.8 210.58 148.15 214.69C145.88 218.57 144.77 222.86 143.89 227.21C143.69 228.21 144.23 229.73 142.27 229.47Z" fill="#E8A89C"/>
<path d="M129.11 247.67C129.09 246.65 129.07 245.63 129.05 244.6C127.8 238.69 129.34 232.95 130.12 227.17C132.14 223.93 130.87 219.73 133.17 216.56C133.71 215.45 135.26 215.16 135.2 213.46C135.07 209.24 137.7 209.15 141.01 210.04C137.31 222.68 133.62 235.29 129.93 247.89C129.89 248.04 129.77 248.16 129.69 248.29C129.5 248.08 129.31 247.87 129.12 247.66L129.11 247.67Z" fill="#F2AE9F"/>
<path d="M138.12 245.24C136.84 243.27 138.67 241.95 139.32 240.54C140.48 238 141.77 235.54 142.28 232.76C144.81 226.47 145.38 219.56 148.3 213.39C148.62 210.79 149.57 209.57 152.56 210.55C155.29 211.44 156.46 212.64 155.45 215.52C154.84 217.24 154.01 218.87 153.48 220.61C153.34 221.09 153.16 221.55 152.94 222C150.37 227.29 147.38 232.38 145.26 237.89C144.08 240.88 142.22 243.32 139.54 245.12C139.08 245.32 138.61 245.35 138.12 245.25V245.24Z" fill="#E8A89C"/>
<path d="M128.07 241.46C127.04 241.2 126.96 240.34 126.91 239.52C126.3 229.62 123.93 219.75 126.38 209.8C127.6 209.8 128.83 209.8 130.05 209.8C133.87 214.84 131.13 220.1 130.58 225.29C129.65 230.67 130.13 236.26 128.07 241.47V241.46Z" fill="#F6B5A8"/>
<path d="M138.12 245.24C138.54 244.83 138.96 244.42 139.38 244C142.98 243.47 144.29 240.36 145.98 237.86C149.32 232.93 152.39 227.83 154.95 222.43C155.54 221.18 156.33 219.12 157.95 219.85C159.89 220.74 158.78 222.66 158.18 224.2C157.23 226.62 155.3 228.67 155.49 231.5C150.61 237.29 145.92 243.25 139.77 247.81C137.74 247.9 137.58 246.8 138.14 245.24H138.12Z" fill="#56322E"/>
<path d="M127.52 256.47V286.43C127.29 286.45 127.05 286.47 126.82 286.49V256.61C127.05 256.56 127.29 256.52 127.52 256.47Z" fill="#C57F77"/>
<path d="M152.17 221.69C151.58 219.18 153.97 217.45 153.94 215.25C153.92 214.14 156.78 212.45 153.36 211.51C150.87 210.82 149.23 210.5 148.85 213.64C148.52 214.39 148.89 215.64 147.58 215.68C146.76 215.71 146.72 215.09 146.97 214.45C149.4 210.81 146.58 210.51 144.13 209.96C144.13 209.57 144.13 209.19 144.13 208.8C150.58 209.17 156.78 210.65 162.8 212.93C164.39 213.53 166.68 213.95 165 216.61C164.26 216.89 163.65 216.58 163.05 216.2C160.23 214.64 157.69 213.14 156.39 218.07C156 219.57 154.6 221.68 152.17 221.68V221.69Z" fill="#57302C"/>
<path d="M129.41 224.85C129.9 219.84 131.18 214.87 130.06 209.8C135.15 210.18 134.77 213.09 133.18 216.56C133.18 220.06 133.99 223.7 131.32 226.7C129.34 227.47 130.01 225.52 129.42 224.85H129.41Z" fill="#8F6862"/>
<path d="M146.97 214.46C148.41 216.08 148.08 213.6 148.85 213.65C146.79 220.06 146.73 227.17 142.27 232.76C142.27 231.67 142.27 230.57 142.27 229.48C143.12 224.25 144.04 219.04 146.97 214.46Z" fill="#76504A"/>
<path d="M119.62 425.81C118.13 425.51 116.26 426.34 115.34 424.37C125.14 411.77 128.24 396.99 129.59 381.66C127.84 385.6 125.27 389.41 127.01 394.11C127.94 396.62 124.75 397.4 124.32 399.63C123.48 404.03 122.33 408.38 121.22 412.73C120.23 416.59 118.81 420.25 115.48 422.8C115.24 422.69 115.07 422.51 114.96 422.27C115.44 414.45 118.08 407.06 119.55 399.43C120.46 394.7 121.53 389.99 122.44 385.25C122.74 383.7 123.53 382.06 122.35 380.39C120.2 381.85 120.31 384.17 120.1 386.21C119.2 395.15 116.82 403.87 116.36 412.88C116.29 414.25 116.78 416.48 114.26 416.74C113.97 416.04 113.68 415.34 113.39 414.64C111.24 412.31 112.39 409.64 112.65 407.08C113.51 398.63 114.62 390.22 116.22 381.88C116.56 380.1 116.66 378.21 118.09 376.82C118.11 376.46 118.13 376.1 118.15 375.75C127.55 376.82 136.49 379.51 145.07 383.41C147.74 384.62 150.64 385.54 152.24 388.33C153.27 390.44 152.97 391.93 150.37 392.33C147.9 392.09 148.78 389.34 147.43 388.21C145.58 390.16 148.33 395.25 142.93 394.54C140.79 391.84 144 388.73 141.56 384.62C139.59 399.26 135.53 411.96 127.18 422.91C127.13 423.69 126.86 424.31 126.05 424.55C123.74 424.1 122.22 427.76 119.62 425.79V425.81Z" fill="#462422"/>
<path d="M127.18 422.93C126 422.28 126.72 421.57 127.18 420.96C135.51 409.86 138.65 396.93 140.32 383.5C144.12 383.92 145.4 385.67 144.07 389.32C143.46 390.99 143.42 392.87 143.12 394.66C143.15 394.88 143.18 395.1 143.21 395.32C142.84 398.4 142.28 401.43 140.74 404.18C140.56 404.32 140.38 404.45 140.21 404.58C137.49 411.84 133.38 418.12 127.19 422.93H127.18Z" fill="#E6A89A"/>
<path d="M119.62 425.81C121.98 426.53 123.54 423.08 126.05 424.57C121.37 428.9 116.7 433.23 111.35 436.75C109.37 438.05 109.08 437.61 109.89 435.59C111.34 430.54 114.59 427.29 119.62 425.8V425.81Z" fill="#E6A89A"/>
<path d="M143.11 394.66C146.38 394.92 144.4 391.68 145.77 390.43C146.42 389.84 144 386.64 147.24 386.72C150.7 386.81 149.71 389.51 149.32 391.63C150.82 395.29 148.13 397.69 146.65 400.44C145.66 402.29 144.34 403.94 143.16 405.68L143.23 405.6C142.07 405.68 139.97 408.51 140.18 404.56L140.11 404.66C141.33 401.35 143.15 398.23 143.17 394.56L143.1 394.64L143.11 394.66Z" fill="#E6A89A"/>
<path d="M16.19 391.7C15.53 393.76 14.2 395.11 12.06 395.61C13.53 394.41 10.29 388.22 16.19 391.7Z" fill="#D35C7A"/>
<path d="M161.14 30.9299C160.17 32.0999 158.85 31.8 157.6 31.78C154.58 32 156.02 29.87 155.79 28.74C155.27 29.47 156.29 31.3 154.8 31.5C153.26 31.7 153.48 30.05 153.17 28.99C152.11 25.28 153.42 21.37 152.12 17.7C150.22 15.03 151.13 12.79 153.16 10.71C154.14 11.61 154.46 10.9001 154.74 10.0601C155 9.30006 154.94 9.31001 154.62 10.01C154.32 10.67 153.91 11.03 153.16 10.7C152.49 8.66995 154.65 5.6499 151.04 4.6499C153.45 3.7799 155.86 2.91005 158.28 2.05005C160.19 4.67005 157.52 7.19988 158.59 9.62988C158.62 7.31988 158.12 4.5701 160.28 2.6001C162.7 10.5401 162.9 18.84 164.1 26.98C164.23 27.84 164.54 29.27 163.05 29.23C161.8 29.2 162.39 27.5299 161.49 26.6899C161.36 28.2199 161.25 29.5799 161.13 30.9399L161.14 30.9299Z" fill="#BA1E44"/>
<path d="M152.12 17.6899C154.23 21.7699 152.51 26.4899 154.42 30.4399C156.74 27.1399 156.05 32.64 157.59 31.78C152.93 33.62 148.18 35.17 143.17 35.75C144.37 35.64 142.66 32.02 145.82 33.77C146.97 34.41 146.75 32.4 146.61 31.26C146.06 26.74 144.44 22.3001 145.76 17.6201C146.32 21.7901 146.73 25.9901 147.54 30.1101C147.73 31.0501 147.28 33.4601 149.97 32.8101C151.85 32.3601 152.27 31.3199 152.23 29.6299C152.14 25.6499 152.15 21.6699 152.12 17.6899Z" fill="#930F26"/>
<path d="M149.47 30.5801C148.83 22.8201 147.83 15.1299 146.87 7.43994C148.74 15.0399 150.89 22.5901 149.47 30.5801Z" fill="#930F26"/>
<path d="M136.18 32.71C135.32 29.45 132.97 26.34 135.14 22.77C135.49 26.08 135.83 29.4 136.18 32.71Z" fill="#9A0D2A"/>
<path d="M134.3 21.72C132.39 19.04 131.27 16.24 133.02 13.03C133.45 15.93 133.87 18.83 134.3 21.72Z" fill="#9A0D2A"/>
<path d="M180.16 93.6201C181.28 95.2401 181.33 97.4699 182.28 98.8999C186.01 104.48 181.43 103.24 178.75 103.54C177.46 103.69 176.72 102.73 176.14 101.7C175.45 100.43 174.57 99.24 174.33 97.77C174.33 93.67 178.29 95.1101 180.15 93.6201H180.16Z" fill="#C29C97"/>
<path d="M175.17 97.71C175.98 98.92 176.33 100.25 176.15 101.7C173.12 99.8 170.86 97.2001 169.21 94.0501C168.59 92.8601 167.83 91.89 169.43 90.66C171.01 89.44 172.03 89.63 173.07 91.14C176.47 92.47 173.39 95.87 175.17 97.71Z" fill="#EAB8AB"/>
<path d="M175.17 97.7099C171.64 96.4199 175.22 92.8698 173.07 91.1398C173.11 90.6398 173.15 90.1498 173.18 89.6498C175.51 89.1598 175.67 92.9298 178.14 92.1698C179.16 92.2098 179.62 93.0398 180.22 93.6698L180.16 93.61C179.74 94.23 181.84 96.28 178.92 95.55C177.33 95.15 175.23 94.9599 175.17 97.7099Z" fill="#704F4B"/>
<path d="M178.15 92.6399C177.32 94.0999 176.44 94.5801 175.35 92.8401C174.67 91.7501 173.91 90.7099 173.18 89.6499C173.27 87.4799 173.83 86.65 175.55 88.77C176.1 89.45 176 90.72 177.28 90.76C179.03 90.71 178.77 91.5899 178.14 92.6399H178.15Z" fill="#E1B1AA"/>
<path d="M160.28 2.59002C160.22 5.34002 158.34 7.77991 159.77 11.9699C156.76 7.89991 158.09 4.92997 158.28 2.03997C159.06 1.78997 159.81 1.70002 160.28 2.59002Z" fill="#D7335C"/>
<path d="M178.15 92.6399C177.86 92.0099 177.58 91.39 177.29 90.76C177.04 89.51 176.78 88.2701 176.23 85.5601C179.85 88.1301 179.89 90.9799 180.22 93.6699C179.53 93.3299 178.84 92.9799 178.15 92.6399Z" fill="#C29C97"/>
<path d="M128.17 78.7199C134.2 78.6799 139.33 81.4499 144.53 83.9899C146.97 85.1799 145.58 86.3999 144.85 87.9099C138.47 101.12 128.85 111.86 118.84 122.31C116.44 124.82 114.72 126.86 116.87 130.78C118.56 133.86 118.77 137.76 119.52 141.33C120.28 144.99 120.07 148.91 123.23 151.81C124.49 152.96 124.69 154.81 123.86 156.44C123.18 157.78 121.85 158.08 120.44 157.92C118.42 157.7 117.59 156.12 117.3 154.51C115.9 146.68 114.44 138.84 113.49 130.95C113.11 127.79 111.77 126.47 109.02 125.41C102.23 122.79 95.51 119.95 89.47 115.78C90.33 114.85 90.41 113.56 91.03 112.5C92.82 111.59 93.86 112.56 94.58 114.02C96.58 118.08 100.24 119.19 104.3 119.59C105.28 119.4 106.24 119.17 106.87 118.29C107.8 116.8 106.43 114.54 108.48 113.44C110.42 113.61 110.02 115.6 110.6 116.28C110.96 113.47 107.64 111.11 108.96 107.71C110.69 106.92 112.37 106.58 113.87 108.18C115.54 111.92 113.75 115.71 114.14 119.22C114.34 115.18 114.67 110.89 115.16 106.61C115.85 99.86 117.29 93.2199 117.79 86.4599C117.9 84.9699 117.79 83.4598 118.69 82.1498C119.06 81.7198 119.53 81.5099 120.09 81.5099C121.72 82.6699 120.17 85.7099 122.89 86.2299C119.68 96.8799 119.97 108.09 117.75 118.85C120.85 116.75 122.91 113.68 125.47 111.13C127.82 109.08 129.61 106.59 131.27 103.98C132.18 101.94 132.95 99.8299 134.61 98.2399C137.23 96.2899 138.39 93.39 139.66 90.55C141.173 88.25 140.55 86.4167 137.79 85.05C137.37 85.04 137.02 84.8998 136.69 84.6398C135.61 83.2898 134.36 82.4099 132.53 82.9899C131.36 83.2099 130.64 82.4999 129.94 81.7299C129.42 81.1799 128.82 80.7099 128.26 80.2099C128 79.9199 127.86 79.5899 127.86 79.1999C127.96 79.0399 128.06 78.8799 128.17 78.7299V78.7199Z" fill="#341617"/>
<path d="M112.99 107.72C111.75 108.95 110.52 108.44 109.29 107.7C109 107.23 108.93 106.74 109.07 106.21C111.41 101.21 110.51 95.91 110.7 90.71C110.61 94.33 110.84 97.9699 110.45 102.43C106.63 99.0999 108.15 95.44 107.74 92.26C107.32 89.01 108.78 85.7599 107.74 81.4199C105.95 84.9399 106.93 87.7001 106.77 90.3201C106.67 92.0201 107.73 94.0901 105.29 95.0701C103.03 94.7201 103.7 93.0401 103.66 91.6001C103.58 88.6601 104.27 85.63 102.59 82.73C104.01 86.14 104.18 89.45 103 92.8C99.83 91.94 101.39 88.9301 100.39 87.0901C99.71 85.8401 100.84 82.9401 98.25 83.5801C96.27 84.0701 95.68 86.25 96.58 88.53C97.93 91.91 99.07 95.36 100.56 98.7C103.37 105 106.31 111.27 107.31 118.21C107.79 120.12 105.99 120.05 105.09 120.76C99.12 118.75 95.8 113.65 92.08 109.18C87.35 103.49 82.76 97.67 78.07 91.95C75.86 91.23 74.68 92.95 73.23 94C72.8 94.49 72.4 94.99 72 95.52C71.73 95.89 71.41 96.21 71.04 96.49C69.55 97.38 68.39 96.9901 67.51 95.5601C78.07 84.9201 91.62 81.0101 105.82 78.5901C107.93 78.2301 110.06 78.0701 112.19 77.8201C112.58 78.2701 112.87 78.7801 113.06 79.3401C114.54 87.5701 112.91 95.97 114.39 104.21C114.63 105.52 114.24 106.87 112.97 107.73L112.99 107.72Z" fill="#5A3531"/>
<path d="M152.17 221.69C153.74 219.47 156.19 217.74 156.03 214.55C155.93 212.49 157.3 212.42 158.69 212.95C160.52 213.65 162.26 214.59 164.04 215.42C163.16 219.06 160.25 221.67 159.15 225.2C157.93 227.3 156.7 229.4 155.48 231.51C153.66 230.14 154.49 228.81 155.34 227.26C156.57 225.02 157.51 222.61 157.74 219.89C155.06 224.78 152.45 229.72 149.68 234.56C147.61 238.17 144.98 241.39 141.79 244.1C141.16 244.64 140.08 246.41 139.39 244.01C140.98 242.08 142.56 240.15 144.15 238.22C146.82 232.67 149.91 227.34 152.21 221.61L152.19 221.7L152.17 221.69Z" fill="#DCA59C"/>
<path d="M134.16 58.4599C134.22 54.3399 137.36 50.9299 141.13 50.8999C144.65 50.8699 148.15 54.0199 148.16 57.2199C148.16 60.6699 143.39 64.7499 139.42 64.3799C135.99 64.0599 134.11 62.0299 134.16 58.4599Z" fill="#FDF8FC"/>
<path d="M90.31 340.76C88.96 341.3 87.63 341.88 86.12 341.6C86.37 341.21 86.53 340.65 86.89 340.46C89.54 339.07 89.98 335.25 94.88 335.75C98.14 336.08 101.96 331.46 105.46 328.95C107.46 327.51 109.32 325.86 111.24 324.31C112.13 323.59 114.15 323.41 112.57 321.5C111.32 319.99 110.08 319.54 108.49 321.13C106.03 323.58 103.49 325.95 100.96 328.33C99.28 329.91 97.56 331.43 95.86 332.98C95.54 332.68 95.22 332.37 94.9 332.07C98.08 329.05 101.35 326.11 104.41 322.97C106.03 321.31 108.86 320.25 108.05 317.05C107.58 316.59 107.62 316.19 108.18 315.84C113.68 320.66 119.94 324.75 123.22 331.68C118.49 331.95 115.36 335.76 111.14 337.15C113.24 333.29 117.79 332.79 120.75 330.04C119.26 326.75 116.68 326.68 113.7 328.09C113.59 326.25 117.54 326.65 115.64 324.58C114.34 323.17 112.95 325.23 111.97 326.06C105.28 331.74 97.81 336.25 90.32 340.75L90.31 340.76Z" fill="#412520"/>
<path d="M184.94 302.76C180.63 302.72 178.06 300.45 178.04 296.65C178.02 293.2 181.22 289.98 184.72 289.94C188.54 289.89 192.01 293.14 191.99 296.73C191.97 300.31 189.07 302.79 184.94 302.76Z" fill="#FDFAFC"/>
<path d="M67.52 95.5399C68.73 96.3199 69.97 96.1798 71.23 95.6598C73.44 95.3498 73.53 96.9498 73.66 98.4398C73.82 100.21 73.99 101.96 75.8 102.94C73.78 100.47 75.4 95.9798 71.19 94.6998C71.67 94.3198 72.15 93.9299 72.62 93.5499C74.08 92.7499 75.56 92.0298 77.31 92.4398C79.42 95.1998 81.89 97.7299 82.84 101.22C82.85 101.68 82.78 102.13 82.64 102.57C82.85 108.23 87.17 110.44 91.26 112.85C91.79 114.51 92.34 116.19 89.46 115.77C81.46 111.46 74.03 106.4 67.64 99.86C66.04 98.22 65.4 97.0499 67.52 95.5399Z" fill="#6C514E"/>
<path d="M154.91 347.58C151.56 347.61 148.17 344.29 148.18 340.97C148.19 337.18 151.27 334.22 155.22 334.2C159 334.18 161.41 336.83 161.38 340.98C161.34 344.89 158.74 347.54 154.91 347.58Z" fill="#FBFAFC"/>
<path d="M187.97 174.71C183.97 174.78 181.05 172.17 181.09 168.57C181.13 165.14 184.14 162.62 188.23 162.65C191.76 162.68 194.43 164.09 194.94 167.84C195.4 171.21 191.72 174.65 187.96 174.71H187.97Z" fill="#FCF9FC"/>
<path d="M126.17 181.68C126.29 184.97 123.36 187.7 119.56 187.56C116.06 187.43 113.43 185.96 113.11 182.05C112.83 178.59 115.68 175.8 119.36 175.82C123.14 175.83 126.05 178.34 126.17 181.68Z" fill="#FDF9FB"/>
<path d="M199.23 321.65C195.34 328.79 189.92 334.85 185.24 341.43C174.24 356.87 164.81 373.31 154.4 389.12C153.83 388.68 153.74 388.16 154.13 387.55C166.62 365.69 180.33 344.64 195.76 324.73C196.7 323.51 197.25 321.73 199.24 321.65H199.23Z" fill="#351C1C"/>
<path d="M98.78 66.86C94.93 66.94 92.74 65.1899 92.34 61.7399C91.98 58.6499 95.42 55.5699 98.92 55.7199C102.19 55.8599 105.09 57.2798 104.99 60.8898C104.88 64.6098 102.53 66.92 98.78 66.86Z" fill="#FDF8FA"/>
<path d="M224.23 295.7C215.88 304.37 207.53 313.04 199.18 321.7C201.78 315.84 206.74 311.9 210.94 307.37C218.62 299.07 218.7 299.16 213.83 289.18C213.12 287.73 211.81 286.5 212.09 284.66C215.03 286.56 216.13 289.85 217.04 292.78C218.43 297.26 220.65 297.66 224.24 295.7H224.23Z" fill="#3F181B"/>
<path d="M164.18 259.61C165.98 257.75 167.87 259.92 169.67 257.86C166.75 257.94 164.32 257.04 161.87 258.29C163.32 260.06 158.89 262.74 163.27 264.15C159.43 264.46 158.75 262.44 159.02 259.75C159.32 256.88 161.4 255.93 163.89 255.81C165.16 255.75 166.45 256.35 167.74 256.39C173.46 256.56 173.31 256.81 171.43 261.91C170.4 264.69 169.24 264.3 168.36 262.79C167.36 261.07 165.49 260.87 164.18 259.6V259.61Z" fill="#973B3B"/>
<path d="M169.16 146.66C164.45 151.88 161.7 152.01 156.01 147.39C154.59 146.24 152.81 146.94 151.2 146.81C150.16 146.72 149.18 146.62 149.11 145.25C149.06 144.09 149.77 143.09 150.67 142.96C153.01 142.62 152.04 143.84 151.33 144.8C153.52 145.96 155.84 145.93 158.02 145.06C159.2 144.59 160.1 143.44 161.13 142.6C161.51 142.26 161.93 142.22 162.39 142.42C164.29 144.63 166.21 146.86 160.85 147.44C165.38 148.73 164.46 145.69 164.55 143.5C168.08 141.62 167.83 145.28 169.15 146.64L169.16 146.66Z" fill="#A2393C"/>
<path d="M162.09 142.69H161.61L161.14 142.62C161.78 141.38 162.43 140.15 163.08 138.91C166.05 136.05 168.89 137.92 171.75 139.15C173.43 140.51 173.4 142.1 171.77 143.25C170.45 144.18 170.02 145.57 169.14 146.7L169.18 146.65C166.73 147.09 167.37 143.16 164.9 143.63C163.67 144.18 162.91 143.38 162.1 142.68L162.09 142.69Z" fill="#F56571"/>
<path d="M194.09 257.69C198.8 260.11 200.05 265.27 202.93 269.11C206.54 273.93 210.36 278.75 212.11 284.71C205.8 275.91 199.22 267.28 194.09 257.69Z" fill="#560B13"/>
<path d="M182.15 228.23C178.29 233.43 181.16 237.44 184.11 241.83C187.59 247.01 191.99 251.67 194.11 257.72C187.74 251.2 183.38 243.24 178.64 235.59C176.61 232.32 180.39 230.44 182.15 228.23Z" fill="#5B0B14"/>
<path d="M95.91 314.36C95.44 312.36 100.66 311.63 97.12 308.96C96.11 308.2 95.12 307.08 93.77 308.61C93.46 308.96 91.67 310.65 92.64 308.24C93.83 305.31 91.21 305.84 90.26 305.13C88.47 303.8 88.18 305.86 87.55 306.81C86.93 307.74 86.72 308.94 85.25 309.63C85.4 306.83 88.88 304.45 86.14 301.62C92.4 303.47 97.61 307.06 102.41 311.36C102.29 311.8 102.04 312.16 101.67 312.43C100.09 313.22 98.74 314.45 96.99 314.96C96.5 314.99 96.15 314.79 95.92 314.36H95.91Z" fill="#4B221F"/>
<path d="M154.13 387.55C154.22 388.07 154.31 388.6 154.4 389.12C151.03 394.89 148.36 401.14 143.18 405.69C145 400.9 148.36 396.79 149.33 391.63C151.85 391.9 152.31 390.35 152.25 388.34C152.88 388.08 153.5 387.81 154.13 387.55Z" fill="#342423"/>
<path d="M112.18 78.7201C112.18 78.4201 112.18 78.1102 112.2 77.8102C117.53 77.9602 122.97 76.3301 128.17 78.7201L128.22 78.65C125.78 80.34 122.8 80.56 120.14 81.67L120.21 81.7001C117.35 80.8101 118.24 83.1601 118.23 84.2501C118.21 87.5201 118.06 90.7701 117.64 94.0001C117.49 95.1501 117.5 96.58 115.67 95.39C114.02 92.33 114.78 89.0202 114.68 85.8102C114.6 83.1402 114.35 80.6201 112.18 78.7301V78.7201Z" fill="#341617"/>
<path d="M176.86 263.73C178.49 265.88 179.16 268.42 176.84 268.45C173.42 268.49 172.66 270.94 170.78 272.53C168.82 274.2 166.36 276.76 163.67 271.66C167.07 273.77 169.11 272.75 170.73 270.46C169.98 268.47 168.23 270.82 167.25 269.28C170.6 267.92 175.38 269.19 176.86 263.72V263.73Z" fill="#732723"/>
<path d="M171.25 139.53C168.53 139.27 165.9 137.74 163.07 138.91C162.73 138.02 162.39 137.13 161.91 135.89C165.46 137.37 169.95 133.38 172.24 138.57C172.06 139.05 171.72 139.36 171.24 139.53H171.25Z" fill="#A2393C"/>
<path d="M161.07 270.9C158.47 273.85 156.15 272.23 154.02 271.26C152.74 270.68 153.13 269.39 153.69 268.25C154.74 266.09 156.13 264.85 158.61 265.78C158.87 268.48 154.22 267.01 155.3 269.72C156.2 272 158.76 270.4 161.06 270.9H161.07Z" fill="#78322C"/>
<path d="M171.25 139.53C171.58 139.21 171.91 138.89 172.25 138.57C175.07 141.6 174.3 143.58 169.13 146.7C169.57 145.38 168.64 143.62 171.08 142.98C172.42 142.63 173.03 140.79 171.26 139.52L171.25 139.53Z" fill="#712126"/>
<path d="M108.16 315.84C108.12 316.24 108.08 316.65 108.03 317.05C106.13 315.12 104.6 315.91 103.21 317.7C102.36 318.06 102.05 317.54 101.83 316.87C102.26 315.22 101.92 313.56 101.91 311.9C102.09 311.74 102.24 311.55 102.38 311.36C104.73 312.3 106.34 314.2 108.15 315.85L108.16 315.84Z" fill="#3E1F1D"/>
<path d="M159.15 225.2C159.49 221.3 162.2 218.58 164.04 215.42C164.36 215.82 164.68 216.22 165 216.62C163.05 219.48 161.1 222.34 159.14 225.2H159.15Z" fill="#5E302C"/>
<path d="M158.15 141.76C152.9 141.1 152.74 140.35 156.62 135.67C157.36 137.76 154.92 140.43 158.15 141.76Z" fill="#A2393C"/>
<path d="M74.18 425.66C75.96 425.96 78 425.94 77.86 428.62C74.25 430.59 74.01 428.39 74.18 425.66Z" fill="#DC7489"/>
<path d="M115.48 422.8C119.87 415.97 120.83 408.01 122.87 400.4C123.35 398.61 121.96 395.67 125.49 395.46C124.82 394.36 123.02 393.26 125.52 392.19C123.1 388.19 128.02 384.9 126.66 380.92C126.53 380.53 126.91 378.44 128.84 379.14C131.47 380.09 132.38 381.72 131.67 384.48C129.77 391.79 127.84 399.1 126.19 406.47C124.58 413.71 120.77 419.51 115.33 424.36C115.38 423.84 115.43 423.32 115.48 422.8Z" fill="#E8A499"/>
<path d="M114.26 416.75C115.79 405.98 117.3 395.21 118.87 384.45C119.11 382.83 119.63 381.25 120.02 379.64C120.49 377.68 121.79 377.5 123.45 377.99C125.1 378.47 125.33 379.56 124.97 381.06C121.91 393.85 120.11 406.96 115.61 419.4C115.28 420.32 115.18 421.32 114.97 422.28C113.4 420.61 114.78 418.56 114.27 416.75H114.26Z" fill="#E2A299"/>
<path d="M109.75 408.25C106.88 398.85 105.96 389.14 104.36 379.56C104.06 377.79 104.75 376.78 106.79 376.72C108.28 376.68 109.26 378.79 111.48 376.9C112.76 375.8 112.66 378.75 112.53 380.08C111.55 389.45 109.62 398.73 109.76 408.25H109.75Z" fill="#D69995"/>
<path d="M118.09 376.83C117.78 385.3 115.55 393.5 114.62 401.88C114.15 406.13 113.27 410.34 113.39 414.65C113.26 416.96 113.13 419.26 112.93 422.69C109.72 411.62 111.7 401.64 112.57 391.68C112.91 387.72 113.91 383.79 113.99 379.84C114.06 376.49 115.79 376.55 118.1 376.84L118.09 376.83Z" fill="#E3A29A"/>
<path d="M202.13 226.62C201.25 223.88 199.66 220.78 204.89 221.08C204.76 217.92 206.86 216.13 209.12 214.6C211.8 212.79 212.87 208.3 217.69 209.71C218.5 209.95 220.22 207.38 221.38 206C221.85 205.44 220.51 203.81 222.38 203.98C222.92 204.03 223.53 204.64 223.87 205.16C224.69 206.39 224.12 207.18 222.99 207.99C217.34 212.03 212.88 217.36 207.85 222.07C206.09 223.72 204.84 226.1 202.19 226.7L202.13 226.64V226.62Z" fill="#B35363"/>
<path d="M213.17 261.76C213.19 262.91 211.72 264.01 211.65 263.91C209.85 261.63 208.1 259.3 206.61 256.81C206.15 256.04 207.5 255 208.01 255.22C210.88 256.41 211.78 259.31 213.18 261.76H213.17Z" fill="#CC8892"/>
<path d="M244.24 276.69C241.16 282.32 236.63 286.49 231.17 289.73C235.08 284.94 239.43 280.59 244.24 276.69Z" fill="#4C161B"/>
<path d="M197.23 230.78C197.65 232.94 194.8 233.75 195.13 236.02C195.25 236.84 194.04 237.82 192.98 237.23C192.02 236.69 191.11 235.55 191.95 234.39C193.18 232.69 194.09 230.68 196.02 229.56C197.04 229.36 197.45 229.75 197.22 230.78H197.23Z" fill="#C45E72"/>
<path d="M230.2 189.62C228.85 193.2 224.54 193.27 222.71 196.29C223.5 192.05 226.09 189.93 230.2 189.62Z" fill="#CA5C79"/>
<path d="M197.23 230.78C196.83 230.37 196.43 229.97 196.03 229.56C197.12 226.63 198.5 224.29 202.13 226.62L202.19 226.68C201.4 229.08 199.4 230.03 197.24 230.78H197.23Z" fill="#B35363"/>
<path d="M192.54 225.98C190.53 229.32 188.96 231.92 187.4 234.52C187.88 231.18 187.31 227.25 192.54 225.98Z" fill="#C84D6B"/>
<path d="M228.13 203.62C226.86 203.27 226.18 202.64 226.06 201.58C225.86 199.72 228.41 200.63 228.82 198.93C228.95 198.38 230.75 199.93 230.52 200.49C230.04 201.69 228.93 202.63 228.13 203.62Z" fill="#D5989D"/>
<path d="M231.23 289.7C229.48 292.4 227.25 294.53 224.21 295.73C225.43 292.42 228.14 290.84 231.23 289.7Z" fill="#481A22"/>
<path d="M199.93 243.54C200.98 244.29 202.32 244.88 202.15 246.43C202.1 246.88 201.27 247.25 200.8 247.66C200.05 246.66 199.12 245.74 198.63 244.63C198.29 243.85 199.29 243.74 199.93 243.54Z" fill="#D18593"/>
<path d="M205.31 250.44C205.2 251.49 204.82 252.11 204.12 252.08C202.76 252.03 202.35 250.78 201.96 249.8C201.54 248.75 202.68 248.12 203.26 248.4C204.15 248.83 204.75 249.84 205.32 250.44H205.31Z" fill="#DB94A1"/>
<path d="M88.97 327.63C88.01 328.3 87.06 328.97 86.1 329.64C88.67 324.1 92.01 319.06 95.9 314.36C96.05 314.53 96.21 314.68 96.39 314.81C96.49 320.57 92.5 323.97 88.96 327.63H88.97Z" fill="#44201D"/>
<path d="M77.32 324.96C77.25 321.36 78.41 318.77 80.96 316.8C79.52 319.36 81.25 323.14 77.32 324.96Z" fill="#5E3D3B"/>
<path d="M88.97 327.63C91.45 323.36 93.92 319.08 96.4 314.81C98.43 314.19 98.75 310.33 101.93 311.9C103.36 313.41 105.31 314.89 102.22 316.68C99.37 318.78 99.12 323.88 94.22 323.61C93.87 324.25 93.52 324.88 93.18 325.52C92.38 327.42 90.98 328.11 88.98 327.64L88.97 327.63Z" fill="#E7B0A6"/>
<path d="M94.21 323.61C97.78 322.34 98.51 317.8 102.21 316.68C102.54 317.02 102.88 317.36 103.21 317.7C101.99 319.91 101.14 322.5 99.41 324.21C98.16 325.45 95.79 325.22 94.2 323.61H94.21Z" fill="#89605B"/>
<path d="M123.72 249.98C121.3 241.66 118.7 234.86 116.34 228.01C114.91 223.85 113.84 219.29 111.67 215.25C111.29 214.55 109.09 212.63 111.82 211.84C113.73 211.29 115.53 210.41 116.66 213.78C119.39 221.95 121.61 230.2 122.96 238.69C123.48 241.95 124.55 245.15 123.73 249.98H123.72Z" fill="#F2A79A"/>
<path d="M123.54 229.35C121.04 223.32 120.01 217.01 117.18 211.19C124.29 209.9 124.43 210.24 123.64 216.51C123.11 220.73 123.54 225.06 123.54 229.35Z" fill="#EDB1A8"/>
<path d="M111.88 231.83C113.24 231.1 113.16 229.78 113.25 228.52C116.53 233.63 117.59 239.61 120.02 245.08C116.56 241.06 113.57 236.83 111.89 231.83H111.88Z" fill="#DAA5A7"/>
<path d="M129.41 224.85C130.04 225.47 130.67 226.08 131.31 226.7C130.56 232.67 129.81 238.64 129.05 244.61C127.92 243.81 128.28 242.55 128.07 241.47C128.52 235.93 128.96 230.4 129.41 224.86V224.85Z" fill="#4E231E"/>
<path d="M152.2 221.6C150.98 227.85 148 233.24 144.14 238.21C145.9 232.22 148.93 226.86 152.2 221.6Z" fill="#4C221D"/>
<path d="M117.41 424.76C128.55 413.48 130.53 399.41 133.48 385.66C133.78 384.25 132.44 381.14 135.69 381.36C139.27 381.6 138.5 384.57 138.08 386.66C135.73 398.33 133.59 410.1 125.92 419.84C123.92 422.38 121.65 424.28 117.41 424.76Z" fill="#EDA799"/>
<path d="M143.19 394.58C145.06 398.82 142.21 401.64 140.13 404.68C140.75 401.19 141.25 397.67 143.19 394.58Z" fill="#461218"/>
<path d="M153.17 10.6899C155.21 9.37994 153.37 6.79001 155.21 5.01001C157.33 8.22001 154.46 10.9799 155.04 13.9399C152.76 13.4899 153.47 11.85 153.17 10.7V10.6899Z" fill="#D7335C"/>
<path d="M135.17 98.6599C134.23 100.68 133.28 102.71 132.34 104.73C128.58 105.65 128.45 109.71 126.15 111.88C123.28 114.56 121.79 118.78 117.39 119.77C120.11 107.59 122.46 95.3201 126.96 83.6201C127.48 82.2701 127.93 80.2499 130.26 80.6599C130.86 81.3199 131.46 81.9698 132.06 82.6298C133.19 85.2998 131.36 87.4399 130.66 89.7199C129.04 94.9599 127.24 100.16 125.98 103.72C127.29 98.4999 131.57 92.8501 134.7 86.6201C135.21 85.6001 135.53 83.8999 137.44 84.6699L137.89 84.57C139.18 86.96 139.63 89.3898 138.17 91.8898C136.97 94.0498 135.36 96.0399 135.18 98.6599H135.17Z" fill="#684C47"/>
<path d="M82.24 101.34C81.08 98.1601 77.36 96.4201 77.31 92.6101C76.74 90.7801 76.81 90.63 78.12 90.72C82.87 94.12 85.51 99.3599 89.18 103.69C94.23 109.64 99.08 115.72 105.09 120.75C100.47 121.59 95.37 118.47 93.96 114.13C93.62 113.08 92.67 112.18 91.25 112.85C88.58 114.18 87.14 110.68 86.67 110.73C81.69 111.23 83.44 105.87 80.78 104.36C79.39 103.57 79.32 101.35 82.21 102.59C83.8 103.26 84.56 104.85 85.85 105.86C84.46 104.5 83.16 103.07 82.23 101.34H82.24Z" fill="#E4B8AF"/>
<path d="M130.26 80.6699C125.87 86.5999 124.91 93.7598 123.34 100.63C121.84 107.19 119.9 113.56 117.39 119.78C117.08 120.29 116.14 121.69 116.3 120.11C117.4 109.58 118.88 99.09 120.32 88.6C120.48 87.43 122.73 87.3998 122.27 85.6598C122.67 80.1398 123.49 79.2998 128.24 79.6298C129.05 79.7098 129.98 79.5398 130.25 80.6598L130.26 80.6699Z" fill="#F5B3A4"/>
<path d="M107.32 118.2C103.09 107.8 98.72 97.45 94.86 86.92C94.51 85.98 94.27 81.63 98.36 81.68C99.97 81.7 101.12 81.2402 101.22 83.5902C101.34 86.5502 101.92 89.49 102.3 92.44C102.56 92.95 102.45 93.4902 101.95 93.6202C100.56 93.9902 100.73 92.4601 99.92 92.0001C105.09 96.8501 106.97 103.23 108.48 109.82C108.81 111.25 108.92 112.41 107.71 113.41C108.13 115 108.96 116.6 108.87 118.16C108.75 120.47 107.86 118 107.31 118.21L107.32 118.2Z" fill="#F0B5AE"/>
<path d="M112.18 78.7199C115.21 78.2799 116.55 79.15 116.25 82.62C115.89 86.87 116.25 91.1699 116.28 95.4599C117.11 99.2599 115.82 103.06 116.28 106.86C116.2 111.91 115.55 116.85 112.98 121.62V107.72C112.77 98.0499 111.53 88.4099 112.18 78.7199Z" fill="#F7B5A7"/>
<path d="M137.43 84.6698C133.89 90.5298 130.47 96.44 127.83 102.79C127 104.78 126.67 107.41 123.38 108.27C125.84 99.3599 128.86 90.9698 132.07 82.6398C134.44 80.3098 136.23 80.9899 137.44 84.6799L137.43 84.6698Z" fill="#ECB8AC"/>
<path d="M107.71 113.4C107.46 107.05 105.04 101.35 101.85 96.0701C100.51 93.8501 99.24 91.57 97.28 88.74C100.25 89.28 100.26 91.7101 101.5 92.8401C101.58 92.9101 101.83 92.86 101.97 92.79C102.11 92.72 102.2 92.5599 102.31 92.4299C104.69 88.7699 101.76 84.9201 102.48 80.8201C105.39 85.4401 102.84 90.6499 105.26 94.9299C106.65 95.2599 106.89 96.36 107.01 97.55C107.09 100.53 108.85 103.08 109.2 105.99C109.18 106.22 109.16 106.44 109.14 106.67C109.19 107.01 109.24 107.35 109.29 107.69C110.33 110.86 111.99 113.92 110.89 117.54C109.02 116.8 109.8 113.95 107.72 113.4H107.71Z" fill="#DDB1A9"/>
<path d="M116.29 106.86C114.13 103.06 116 99.2601 116.29 95.4601C117.92 90.9601 116.67 86.2901 117.12 81.7201C117.24 80.5301 116.48 78.7701 118.63 78.7401C120.85 78.7101 119.87 80.6001 120.2 81.6901C119.17 88.3001 118.15 94.9101 117.12 101.53C116.84 103.31 116.56 105.08 116.28 106.85L116.29 106.86Z" fill="#C6948D"/>
<path d="M137.28 91.7099C139.58 89.5099 136.83 86.88 137.88 84.58C138.35 84.31 137.85 82.6398 139.1 83.6298C139.58 84.0098 139.31 85.8799 139.73 85.4899C141.44 83.8799 143.4 84.4398 143.63 85.8898C143.94 87.8498 142.31 89.6699 140.37 90.7299C139.47 91.4499 138.77 92.7899 137.29 91.7099H137.28Z" fill="#ECB8AC"/>
<path d="M137.28 91.71C138.31 91.38 139.33 91.06 140.36 90.73C139.98 94.26 138.57 97.1099 135.17 98.6699C132.67 95.3799 136.5 94.01 137.28 91.71Z" fill="#F1C6B3"/>
<path d="M128.25 79.6299C123.62 79.0299 124.27 83.6599 122.28 85.6599C118.06 86.1999 121.22 82.7999 120.14 81.6599C121.65 77.4999 125.3 79.0599 128.22 78.6399C128.23 78.9699 128.25 79.2999 128.26 79.6299H128.25Z" fill="#C6948D"/>
<path d="M126.15 111.89C127.07 109.7 127.98 107.51 128.93 105.34C129.75 103.47 130.8 102.69 132.34 104.74C130.28 107.12 128.21 109.51 126.15 111.89Z" fill="#E0BFB2"/>
<path d="M115.09 131.95C116.94 135.28 118.43 138.88 117.46 142.97L115.09 131.95Z" fill="#8E6A66"/>
<path d="M118.28 149.1C119.9 150.85 120.94 152.27 120.87 154.18C120.87 154.35 119.88 154.77 119.64 154.61C117.8 153.45 117.99 151.63 118.28 149.1Z" fill="#A87068"/>
<path d="M100.21 108.76C99.91 111.16 103.89 111.29 102.78 114.73C99.27 110.53 96.04 106.37 92.36 103.14C88.61 99.85 85.93 95.9502 82.79 92.3202C81.85 91.2402 79.31 89.7302 81.08 88.0902C82.8 86.4902 85.41 86.0801 87.05 88.9501C87.26 89.3201 87.82 89.4901 88.22 89.7501C88.28 89.9701 88.33 90.19 88.39 90.41C88.72 90.8 87.12 91.4502 88.42 91.5802C91.79 91.9202 91.81 95.6501 94.14 97.0001C96.55 100.72 99.78 104.02 100.21 108.76Z" fill="#E6B9B1"/>
<path d="M106.18 97.5201C105.87 96.6601 105.56 95.8001 105.25 94.9501C106.13 91.2401 104.97 87.5602 105.04 83.8602C105.06 82.6102 103.89 81.0301 105.46 80.2501C106.55 79.7101 108.29 79.4601 109.29 79.9701C110.88 80.7801 110.1 82.6601 109.83 84.0201C108.73 89.6401 109.1 95.25 110.12 100.89V88.38C110.49 88.38 110.86 88.38 111.23 88.38C111.23 93.78 111.19 99.1802 111.26 104.58C111.28 106.15 110.41 106.54 109.15 106.68L109.23 106.72C107.93 103.75 106.96 100.67 106.19 97.5201H106.18Z" fill="#F2B5AC"/>
<path d="M100.21 108.76C98.02 105.08 95.84 101.4 93.65 97.7199C91.23 95.4299 90.52 91.9798 88.16 89.6498L88.22 89.7499C88.54 87.8899 86.13 87.18 86.36 85.36C92.34 82.91 92.67 82.9399 94.05 88.7299C95.64 95.3899 98.98 101.32 101.45 107.61C102.32 109.83 101.41 109.24 100.2 108.77L100.21 108.76Z" fill="#EEB7AE"/>
<path d="M71.19 94.7C75.41 93.82 75.68 97.42 75.82 99.69C75.91 101.22 78.74 101.95 76.8 103.74C76.23 104.27 75.86 105.27 74.89 104.54C73.09 103.17 71.98 101.28 72.25 99.04C72.42 97.62 73.56 96.2199 71.23 95.6699C71.22 95.3499 71.2 95.03 71.19 94.71V94.7Z" fill="#F0CBC1"/>
<path d="M78.13 90.7199C77.86 91.3499 77.59 91.98 77.32 92.61C75.82 93.22 74.42 94.35 72.63 93.55C73.98 91.67 75.4 89.9099 78.13 90.7199Z" fill="#D9BEB3"/>
<path d="M82.24 101.34C85.05 103.51 87.31 106.17 89.05 109.33C86.34 107.52 83.98 105.37 82.22 102.59C82.22 102.17 82.24 101.76 82.24 101.34Z" fill="#4F302C"/>
<path d="M162.09 142.69C163.02 143.01 163.96 143.32 164.89 143.64C166.28 146.04 166.12 147.92 163.18 148.95C161.6 149.5 160.01 150.05 158.71 148.51C158.1 147.79 158.57 147.04 159.03 146.3C160.51 143.94 161.77 146.28 163.59 146.57C163.02 145.11 162.55 143.9 162.08 142.7L162.09 142.69Z" fill="#F87376"/>
<path d="M106.18 97.52C107.61 100.45 108.98 103.4 109.22 106.72C107.05 104.03 105.78 101.05 106.18 97.52Z" fill="#572F29"/>
<path d="M88.16 89.6399C91.65 91.1999 92.08 94.84 93.65 97.71C90.31 97.34 91.2 93.31 88.87 92.04C87.02 92.67 88.98 94.52 87.71 95.26C84.67 93.14 86.93 91.4299 88.16 89.6399Z" fill="#734F48"/>
</svg>
