<svg width="269" height="455" viewBox="0 0 269 455" fill="none" xmlns="http://www.w3.org/2000/svg">
<path d="M38.2301 401.58C56.3701 390.16 69.7502 374.35 80.8602 356.26C99.9002 325.25 109.89 292.19 106.35 255.38C103.64 227.25 96.9101 200.2 87.2301 173.76C75.8901 142.79 63.9901 112.06 48.2201 83.01C45.1501 77.35 41.54 71.9699 38.19 66.4599C37.75 65.7099 38.17 65.2099 38.68 64.7299C39.92 63.4799 42.47 63.72 42.65 61.24C42.93 60.59 43.4002 60.2099 44.1102 60.1399C45.8902 60.5799 47.4502 60.3399 48.5702 58.6999C48.9102 58.3799 49.3101 58.2099 49.7801 58.1799C53.5601 58.6799 53.91 57.04 52.93 53.81C51.75 49.92 48.9402 46.47 49.5702 42.06C49.7902 41.62 50.14 41.35 50.63 41.26C54.02 43.45 54.0302 47.4401 55.6002 50.6001C56.6702 52.7701 56.48 56.1901 60.68 54.8501C65.63 53.2701 66.26 52.53 65.4 47.78C65.31 47.29 65.3701 46.8 65.4801 46.31C65.6501 45.86 65.9602 45.52 66.3702 45.28C68.3602 45.6 68.7801 47.37 69.5301 48.77C70.3901 50.39 71.4502 50.98 73.0802 49.83C73.4402 49.55 73.8201 49.3199 74.2401 49.1399C76.1201 49.1399 77.7402 48.5199 79.0902 47.2099C80.7202 46.8599 82.5201 47.2699 84.0001 46.1499C84.4301 45.9999 84.8601 45.9199 85.3101 45.8999C87.9701 45.9199 88.2902 44.6799 87.3502 42.4699C86.2302 39.8399 84.0501 37.5601 84.5201 34.3701C84.8201 33.6701 85.2902 33.22 86.1102 33.27C88.4202 35.13 88.9902 38.0299 90.3702 40.4399C91.3802 42.1999 92.1701 44.1 94.7601 43.56C95.8201 43.39 96.88 43.17 97.9 42.83C98.51 42.62 99.1301 42.44 99.7401 42.26C100.56 42 101.38 41.7099 102.19 41.4199C104.19 40.9799 105.73 39.7799 107.2 38.4499C110.04 38.6199 112.27 38.29 110.74 34.5C110.31 33.44 110.13 32.2999 110.49 31.1499C110.69 30.7099 111.02 30.41 111.47 30.25C113.19 30.65 113.77 32.1 114.13 33.5C115.01 36.88 116.87 36.6201 119.21 35.1101C120.74 34.8201 123.06 35.0199 122.17 32.4699C120.13 26.6399 119.25 20.3499 115.49 15.1799C115.38 14.9799 115.27 14.78 115.17 14.57C117.87 12.55 120.83 11.31 124.28 11.56C127.38 17.06 129.1 23.1 131.03 29.04C132.03 32.11 133.37 32.8699 135.79 30.3899C136.21 30.1699 136.66 30.0901 137.13 30.1201C140.22 30.9501 140.63 29.2601 140.1 26.8501C139.36 23.4401 138.48 20.07 137.38 16.75C136.81 15.03 135.99 13.3399 136.44 11.4299C136.73 10.7199 137.2 10.25 138.03 10.28C141.78 14.45 141.92 19.9799 143.48 24.9699C144.39 27.8799 145.61 29.55 148.7 27.29C149.13 27.09 149.57 26.9799 150.04 26.9499C153.74 27.4599 154.39 25.78 153.36 22.58C152.72 20.6 151.49 18.5699 152.92 16.3999C153.36 16.1899 153.81 16.17 154.27 16.33C156.82 18.47 156.28 22.54 159.64 24.77C160.48 19.6 155.96 15.43 157.79 10.57C158.18 10.27 158.61 10.16 159.09 10.25C162.03 12.86 161.68 16.85 163.22 20.05C163.84 21.34 164.07 23.1198 165.78 23.3798C167.72 23.6698 167.78 21.53 168.78 20.57C168.93 20.5 169.13 20.3298 169.22 20.3798C172.08 21.8065 173.91 20.8667 174.71 17.56C176.38 16.49 176.66 18.0299 177.04 18.9499C177.62 20.3499 178.2 21.6399 179.76 22.1599C181.26 23.3499 180.1 25.2101 180.87 26.5901C185.99 54.6001 191.42 82.5398 198.54 110.13C198.83 111.25 199 112.39 199.23 113.53C199.12 114.11 197.67 113.71 198.34 114.74C198.39 114.82 199.39 114.3 199.94 114.79C210.02 150.51 224.32 184.39 244.05 215.89C247.9 222.03 252.45 227.73 255.23 234.51C253.04 235.18 252.3 233.36 251.41 232.1C250.09 230.24 248.76 229.85 246.83 231.23C236.01 238.96 224.14 245.12 213.76 253.51C211.68 255.19 209.76 257.01 207.91 258.93C204.44 262.52 204.51 264.17 208.46 267.41C212.75 270.93 217.78 273.19 222.86 275.26C232.72 279.27 243 282.13 252.81 286.28C255.4 287.38 258.14 288.2 260.23 290.25C260.48 290.71 260.46 291.15 260.13 291.56C254.16 304 244.78 313.74 234.43 322.4C213.78 339.68 197.19 360.36 182.26 382.54C181.63 383.48 180.89 384.34 180.2 385.24C179.77 385.07 179.27 384.51 178.92 384.8C178.37 385.27 178.93 385.94 178.98 386.53C174.5 395.64 169.99 404.75 165.54 413.88C164.32 416.38 163.25 418.96 162.11 421.5C159.86 432.17 154.14 440.4 144.31 445.22C135.47 449.56 126.18 452.55 116.08 451.59C105.02 452.2 94.04 453.78 82.94 453.98C74.99 454.13 67.07 453.7 59.15 453.29C58.84 452.79 58.92 452.36 59.38 452.01C65.59 450.3 71.9401 451.45 78.2201 451.24C84.5901 451.02 84.66 451.11 81.63 445.27C75.61 433.69 66.64 424.53 56.96 416.09C51.22 411.09 45.5001 405.89 38.2901 402.9C37.8501 402.5 37.81 402.07 38.18 401.61L38.2301 401.58Z" fill="#092038"/>
<path d="M260.05 290.11C245.05 284.08 229.3 279.95 214.77 272.74C201.08 265.95 200.75 262.7 212.34 253.14C223.51 243.92 236.57 237.48 248.07 228.76C249.83 227.43 250.47 228.18 251.46 229.64C252.6 231.33 253.07 233.62 255.3 234.47L255.2 234.38C256.8 236.29 256.79 239.29 259.38 240.53C261.48 244.79 264.12 248.83 264.98 253.62C267.14 261.93 268.65 270.2 265.69 278.72C264.28 282.78 262.5 286.59 260.06 290.1L260.05 290.11Z" fill="#8AD1D0"/>
<path d="M74.26 49.25C74.23 49.66 74.1999 50.07 74.1799 50.48C71.5499 50.74 71.6101 48.3899 70.8701 46.9399C68.7401 42.7399 67.41 38.14 64.71 33.22C63.18 38.23 68.3799 41.18 66.3899 45.25C66.2899 45.48 66.1101 45.6199 65.8701 45.6599C62.9901 44.6199 62.6 41.77 61.54 39.47C60.65 37.53 60.0401 35.47 58.3701 34C58.2701 33.8 58.1701 33.5899 58.0701 33.3799C69.0101 28.3399 80.36 24.43 91.98 21.28C92.12 21.47 92.2499 21.6601 92.3899 21.8501C90.3799 24.0701 90.42 26.32 91.79 28.95C94.29 33.72 95.81 38.93 98.2 43.76C97.4 44.77 96.27 44.47 95.22 44.52C91.72 41.12 91.1399 36.2399 88.9399 32.1699C87.8899 30.2199 87.56 27.7799 85.24 26.4299C83.97 29.1499 87.8001 31.07 85.8201 33.53C85.5901 33.86 85.3699 34.19 85.1399 34.53C81.7799 34.16 82.87 29.97 79.79 28.72C79.26 31.17 80.74 33.0401 81.23 35.0801C82.16 39.0201 85.75 42.06 85.03 46.53H84.5601L84.0901 46.51C81.3101 46.32 81.0499 43.81 80.1499 42.03C78.2299 38.23 77.12 34.06 75 29.46C74.01 33.08 77.3099 35.67 75.4299 38.49C71.2099 38.47 72.4 33.62 69.2 31.77C70.21 36.1 72.0701 39.55 73.3401 43.2C74.0201 45.14 75.49 47 74.26 49.25Z" fill="#214142"/>
<path d="M59.1899 452.43C59.2199 452.7 59.2199 452.97 59.2099 453.25C44.0199 452.52 29.32 449.31 15.03 444.26C10.5 442.66 6.23004 440.29 3.32004 436.16C-1.52996 429.28 0.369861 420.19 8.13986 415.68C17.7399 410.11 28.11 406.09 38.2299 401.58C38.2299 401.97 38.24 402.36 38.25 402.76C37.27 405.74 34.39 406.15 32.07 407.21C25.74 410.1 19.2499 412.7 13.1299 416.01C8.33985 418.61 3.14004 421.27 3.57004 428.05C4.01004 434.99 8.77999 438.51 14.52 440.9C27.03 446.12 40.2101 448.61 53.6101 450.1C55.6901 450.33 58.0599 449.89 59.1799 452.43H59.1899Z" fill="#314243"/>
<path d="M135.83 30.55C136.54 32.92 135.01 33.3098 133.22 33.6598C132.13 33.8698 131.38 34.0698 130.99 32.6698C129.01 25.5498 125.52 18.91 124.33 11.54C125.61 11.5 126.73 10.2799 128.12 11.0099C129.51 9.57993 130.2 11.07 130.54 11.85C133.19 17.82 136.13 23.73 135.83 30.54V30.55Z" fill="#A2E6E4"/>
<path d="M49.8799 41.6498C51.3999 45.9898 52.9799 50.3199 54.4099 54.6899C54.7899 55.8499 56.88 57.28 54.73 58.31C53.12 59.09 51.09 60.9799 49.22 58.4499C45.85 53.2999 44.3601 47.4098 42.5901 41.6298C42.3501 40.8398 42.5799 39.9999 43.4299 39.5199C43.9999 39.1899 44.5699 38.8599 45.1499 38.5199C48.2699 37.2199 49.9199 38.1598 49.8799 41.6498Z" fill="#A6EAE6"/>
<path d="M107.13 38.4199C107.47 42.1599 104.16 41.4499 102.24 42.4399C98.68 40.4999 99.1201 36.48 97.5801 33.49C96.2801 30.96 95.8301 28.15 94.8101 25.53C94.1501 23.83 93.5599 22.02 95.3999 20.55C97.0499 20.71 97.48 18.6501 99 18.5701C99.63 18.8601 100.36 18.9801 100.81 19.5901C101.65 20.7701 102.05 22.11 102.28 23.51C102.96 28.57 105.86 32.87 107.16 37.72C107.15 37.95 107.13 38.1799 107.12 38.4099L107.13 38.4199Z" fill="#A3EAE9"/>
<path d="M157.75 10.5399C159.05 14.7999 160.34 19.06 161.66 23.32C162.06 24.62 162.7 25.9098 160.64 26.3898C159.07 26.7598 157.78 26.9098 157.12 24.8998C156.2 22.0798 155.05 19.3299 153.99 16.5499C150.74 13.1799 149.81 9.08996 150.31 4.56996C151.46 3.63996 152.7 3.25993 154.09 4.03993C157.41 4.34993 158.04 5.47993 157.75 10.5399Z" fill="#A0E6E4"/>
<path d="M150.31 4.57019C151.54 8.56019 152.77 12.5602 153.99 16.5502H153.51L153.03 16.5301C150.47 16.1201 150.7 13.7202 149.87 12.0802C149.1 10.5802 149.19 8.5201 146.64 7.4801C146.5 12.2301 148.71 16.0102 149.46 20.0602C149.92 22.5302 151.76 24.9102 150.01 27.5402C149.61 27.5402 149.21 27.5602 148.8 27.5602C146.4 26.8002 146.46 24.5201 145.96 22.7001C145.02 19.3301 144.11 15.9602 143.16 12.6002C142.26 9.38021 140.68 8.39017 137.81 10.5502C137.58 10.8902 137.34 11.2302 137.11 11.5702C133.39 10.9802 132.36 12.35 133.72 15.89C134.9 18.97 135.92 22.1302 136.8 25.3102C137.27 27.0002 138.17 28.7501 137 30.5301C136.61 30.5301 136.22 30.5301 135.83 30.5301C134.21 25.6001 132.7 20.6201 130.89 15.7601C130.27 14.0801 130.4 11.7801 128.12 11.0001C129.49 8.17012 132.43 8.80001 134.71 8.14001C139.84 6.66001 144.76 4.18016 150.31 4.54016V4.57019Z" fill="#294748"/>
<path d="M43.4298 39.52C44.4998 46.1 48.4699 51.78 49.2199 58.45L49.1698 58.51C46.5898 58.63 46.58 56.3501 45.86 54.8501C44.42 51.8501 43.51 48.63 42.3 45.53C41.87 44.44 41.2099 43.2199 39.7699 43.6699C37.9299 44.2499 38.4199 45.79 38.9499 46.99C40.2999 50.03 41.4399 53.1601 43.0199 56.0901C43.7499 57.4401 45.2698 58.74 43.8798 60.53L43.1798 61.48C39.9998 61.16 39.86 58.2199 38.84 56.1799C37.31 53.1299 36.4 49.7701 34.06 46.6001C31.89 49.2401 33.41 51.2901 34.06 53.3301C35.39 57.5401 38.9199 60.81 39.2199 65.46C38.8799 65.78 38.5499 66.0999 38.2099 66.4199C34.4299 61.8999 32.3398 56.4901 30.3898 51.0701C29.2198 47.8201 29.8199 45.0101 33.5199 43.3601C36.7699 41.9001 39.6999 39.67 43.4499 39.5L43.4298 39.52Z" fill="#224141"/>
<path d="M179.25 22.59C177.91 23.84 177.48 23.0599 176.83 21.7599C176 20.1399 176.78 17.9799 175.05 16.7199C171.78 13.1199 171.95 8.25997 170.34 4.03997C171.46 0.149975 171.99 0.0999749 175.37 3.53997C175.66 4.02997 175.95 4.51996 176.24 5.01996C177.29 8.82996 178.81 12.4998 179.6 16.3898C180.02 18.4698 180.76 20.61 179.26 22.6L179.25 22.59Z" fill="#ABE5E8"/>
<path d="M260.05 290.11C262.04 285.24 264.77 280.69 265.87 275.45C267.05 269.84 266.53 264.32 265.42 258.77C265.09 257.1 263.94 255.44 264.96 253.63C269.04 262.13 269.21 270.86 266.16 279.65C264.71 283.84 263.12 288.04 260.17 291.52C260.13 291.05 260.08 290.58 260.04 290.11H260.05Z" fill="#516B6D"/>
<path d="M157.75 10.54C155.77 8.80004 157.67 4.88004 154.09 4.04004C157.44 0.550039 162.17 1.9299 166.14 0.649902C166.44 1.0299 166.57 1.45994 166.53 1.93994C166.29 5.85994 168.18 9.28995 169.03 12.95C169.43 14.67 171.01 16.7599 168.11 17.9299C165.05 16.7399 165.47 13.6601 164.57 11.3101C164.16 10.2301 163.94 9.08001 163.49 8.01001C162.88 6.56001 162.7 4.22007 160.61 4.57007C158.11 4.99007 159.65 7.23995 159.53 8.69995C159.47 9.35995 159.51 10.02 159.02 10.54C158.6 10.54 158.18 10.54 157.75 10.53V10.54Z" fill="#305052"/>
<path d="M95.3899 20.5501C96.1899 28.3101 99.76 35.21 102.23 42.45C101.46 42.76 100.7 43.0699 99.9299 43.3799C97.0899 36.1999 94.2199 29.0301 92.1799 21.5701L91.96 21.2901C92.93 20.2501 94.0899 20.0901 95.3799 20.5601L95.3899 20.5501Z" fill="#214142"/>
<path d="M52.9199 35.18C54.4599 34.08 56.0901 33.2399 58.0601 33.3899L58.1299 33.45C58.5499 38.18 61.1099 42.22 62.3799 46.67C62.6999 47.79 63.2601 48.83 63.5801 49.95C63.9401 51.25 64.3701 52.88 62.8201 53.42C61.6001 53.85 60.8601 52.3801 60.3401 51.3601C58.8301 48.3801 57.6601 45.2601 56.5901 42.1101C55.8901 40.0401 55.07 38.06 53.5 36.47C53.2 36.08 53.0099 35.65 52.9299 35.16L52.9199 35.18Z" fill="#274444"/>
<path d="M179.25 22.5901C179.91 18.5401 178.34 14.8999 177.27 11.1399C176.71 9.16989 175.25 7.27002 176.24 5.02002C179.9 11.75 181.63 18.8901 180.93 26.5701C179.4 25.6501 180.77 23.5201 179.26 22.5901H179.25Z" fill="#5A6B6B"/>
<path d="M100.16 19.8701C99.4599 19.7201 99 19.3601 99 18.5701C101.94 17.4101 104.96 16.57 108.15 16.47C108.28 16.67 108.4 16.8701 108.53 17.0601C109.05 19.8601 110.35 22.4001 111.11 25.1201C111.58 26.8201 112.65 28.5401 111.32 30.3301C111.27 30.5401 111.14 30.6301 110.93 30.6101C108.05 29.9601 107.83 27.25 107.21 25.21C106.1 21.52 104.04 19.6201 100.15 19.8701H100.16Z" fill="#244547"/>
<path d="M108.15 16.48C110.32 15.14 112.57 14.1301 115.21 14.5701L115.12 14.46C115.03 18.78 116.79 22.6599 118 26.6699C118.59 28.6399 119.77 30.63 118.26 32.71C114.86 32.17 114.96 29.05 114.08 26.78C112.62 23.02 112.12 18.75 108.13 16.46V16.48H108.15Z" fill="#092038"/>
<path d="M199.99 114.76C198.84 115.61 198.76 118.16 196.5 117.18C195.34 116.68 195.18 115.56 195.69 114.28C196.55 112.13 197.78 112.33 199.28 113.5C199.91 113.7 200.14 114.12 199.99 114.75V114.76Z" fill="#C6CCC7"/>
<path d="M166.12 1.56015C166.14 1.26015 166.14 0.959992 166.14 0.649992C169.46 0.819992 173.61 -1.62987 175.36 3.54013C173.87 3.45013 173.31 0.890158 171.66 1.82016C170.41 2.52016 171.48 3.83019 171.78 4.85019C169.14 5.04019 167.76 3.07014 166.12 1.55014V1.56015Z" fill="#253639"/>
<path d="M49.8799 41.6499C48.7799 39.8799 47.9299 37.74 45.1499 38.52C47.3899 36.59 50.0799 35.6999 52.9299 35.1699L53.1799 35.49C53.3399 35.96 53.37 36.67 52.99 36.76C50.57 37.39 50.4899 39.3 50.3899 41.23C50.3099 41.48 50.1499 41.6099 49.8899 41.6399L49.8799 41.6499Z" fill="#274444"/>
<path d="M179.03 386.48C177.11 386.44 176.47 385.39 176.96 383.65C177.22 382.73 177.79 381.79 178.94 382.04C180.73 382.44 180.18 383.98 180.26 385.19C179.85 385.62 179.45 386.05 179.04 386.48H179.03Z" fill="#EAF0ED"/>
<path d="M259.36 240.53C255.97 239.84 255.7 237.02 255.18 234.38C257.47 235.82 258 238.46 259.36 240.53Z" fill="#2D4344"/>
<path d="M59.19 452.43C49.45 450.47 39.4301 450.04 29.8401 447.21C23.3201 445.29 16.7799 443.6 10.6399 440.47C0.709906 435.41 -2.02002 421.95 10.47 415.97C19.72 411.54 29 407.15 38.26 402.75C39.75 402.39 41.14 402.31 42.53 403.3C59.49 415.32 74.93 428.75 84.53 447.76C86.42 451.5 86.2499 452.8 81.6399 452.61C74.1699 452.3 66.67 452.47 59.19 452.43Z" fill="#95D3D0"/>
<path d="M79.32 91.5501C73.22 91.5901 67.39 85.9101 67.31 79.8501C67.24 74.3801 72.6099 69.48 78.6599 69.49C84.8699 69.49 90.1898 75.0801 90.1298 81.5401C90.0798 87.2901 85.52 91.5101 79.32 91.5501Z" fill="#55BFBC"/>
<path d="M118.64 93.14C124.84 93.09 130.18 98.3601 130.1 104.47C130.03 110.24 125.76 114.43 119.92 114.46C113.43 114.49 108.68 109.67 108.73 103.09C108.78 96.8202 112.39 93.2 118.64 93.15V93.14Z" fill="#E8B365"/>
<path d="M190.38 238.09C190.31 243.47 185.95 247.49 180.24 247.44C173.71 247.38 168.97 242.7 169.19 236.54C169.39 230.75 173 227.19 178.63 227.23C185.44 227.27 190.46 231.92 190.39 238.1L190.38 238.09Z" fill="#59BCB9"/>
<path d="M124.29 310.46C130.05 310.55 136.09 316.81 136.05 322.62C136.01 327.47 131.93 331.42 127.03 331.35C120.9 331.26 115 325.47 115.06 319.6C115.11 314.62 119.39 310.38 124.3 310.46H124.29Z" fill="#EDAF52"/>
<path d="M179.74 317.43C173.68 317.35 168.82 312.3 168.9 306.17C168.96 301.03 172.82 297.49 178.36 297.47C184.61 297.45 189.93 302.34 189.94 308.13C189.95 313.45 185.51 317.49 179.74 317.42V317.43Z" fill="#EC4D3B"/>
<path d="M232.19 314.77C232.26 319.99 227.98 324.95 223.37 324.99C218.41 325.03 212.34 319.03 212.27 314.03C212.2 308.68 216.52 304.47 222.14 304.41C228.24 304.34 232.11 308.33 232.19 314.77Z" fill="#A28C86"/>
<path d="M150.14 186.39C156.13 186.37 160.93 191.36 161.02 197.72C161.09 202.45 157.35 206.42 152.72 206.51C146.71 206.63 141 201.23 140.89 195.33C140.79 190.19 144.71 186.41 150.14 186.39Z" fill="#EEAB4B"/>
<path d="M105.94 418.2C111.87 418.11 117.01 422.79 117.2 428.46C117.37 433.71 113.95 437.32 108.74 437.38C102.61 437.45 96.6801 432.14 96.6101 426.53C96.5601 422.01 100.73 418.29 105.94 418.21V418.2Z" fill="#DE533F"/>
<path d="M205.21 177.83C205.34 182.58 201.72 186.29 196.77 186.48C190.93 186.7 185.61 181.84 185.43 176.12C185.27 171.05 188.59 167.08 193.2 166.82C199.07 166.49 205.05 171.98 205.21 177.83Z" fill="#DD4139"/>
<path d="M167.89 101.8C162.49 101.64 157.99 97.26 158.24 92.42C158.47 88.11 162.71 84.2801 166.98 84.5301C171.6 84.8001 176.09 89.6501 175.98 94.2501C175.87 98.7601 172.47 101.94 167.88 101.8H167.89Z" fill="#DF4B54"/>
<path d="M50.3799 41.24C48.7399 38.08 51.0699 36.84 53.1699 35.5C55.7199 35.2 55.9601 37.2599 56.6001 38.8899C58.5201 43.7399 60.43 48.6 62.78 53.3C62.19 47.89 59.7199 43.0901 57.9199 38.0901C57.3099 36.4001 56.6999 34.9399 58.1399 33.4499C60.0099 33.3799 60.83 34.3201 61.51 36.0901C62.76 39.3501 63.6801 42.8099 65.8701 45.6599C68.3301 53.4799 68.2599 53.3101 60.4399 56.3301C57.4399 57.4901 56.5401 56.5499 55.5801 53.9399C54.0001 49.6499 52.8599 45.17 50.3899 41.24H50.3799Z" fill="#AAECE9"/>
<path d="M56.19 392.09C56.2 388.84 61.27 383.64 64.28 383.79C68.06 383.98 73.4701 391.11 73.3201 395.7C73.1901 399.69 70.1901 402.44 66.1101 402.29C61.3001 402.12 56.18 396.85 56.19 392.08V392.09Z" fill="#D74644"/>
<path d="M159.02 10.56C158.7 9.28998 158.6 7.90995 158.02 6.77995C156.95 4.69995 157.28 3.37993 159.59 2.75993C161.58 2.22993 163.05 2.59 163.82 4.83C165.3 9.13 165.83 13.7499 168.19 17.7499C169.13 18.0799 169.68 18.58 169.02 19.62C169.04 20.61 168.94 21.61 169.11 22.58C169.49 24.81 167.8 24.88 166.43 25.31C164.88 25.79 163.93 25.1998 163.42 23.6698C161.97 19.2998 160.48 14.94 159.01 10.57L159.02 10.56Z" fill="#A1E6E5"/>
<path d="M169.03 19.6101C168.75 18.9901 168.47 18.3599 168.2 17.7399C169.07 13.3799 166.46 9.76997 165.62 5.77997C165.32 4.33997 163.86 2.71 166.13 1.56C169.32 0.420004 169.67 4.15005 171.79 4.86005C172.88 8.82005 173.97 12.7799 175.05 16.7299C175.08 17.8699 174.96 19.0298 175.16 20.1398C175.49 21.9598 175.98 23.44 173.29 24.1C170.34 24.83 170.52 22.8899 170.04 21.2199C169.87 20.6299 169.38 20.1401 169.04 19.6101H169.03Z" fill="#A4E8E7"/>
<path d="M137 30.5501C135.36 25.0701 133.71 19.6002 132.08 14.1202C131.66 12.7002 129.93 11.08 132.24 9.93C134.23 8.94 136.04 9.41015 137.11 11.5801C138.74 17.1401 140.43 22.6701 141.95 28.2601C142.29 29.5101 143.1 31.28 140.63 31.72C139.14 31.98 137.39 33.5601 137 30.5601V30.5501Z" fill="#9AE4E2"/>
<path d="M137.82 10.5601C136.85 7.45005 139.56 8.10008 140.97 7.59008C142.86 6.91008 143.12 8.51998 143.49 9.73998C145.29 15.68 147.04 21.6301 148.81 27.5701C149.05 30.4101 146.64 30.1899 145.09 30.4399C143.17 30.7499 143.47 28.8299 143.12 27.6399C141.43 21.9199 140.26 16.04 137.82 10.55V10.5601Z" fill="#A2E8E5"/>
<path d="M100.16 19.87C103.77 17.7 106.27 17.6398 107.5 22.6398C108.17 25.3698 109.01 28.3 110.94 30.61C111.37 32.18 111.8 33.75 112.24 35.31C112.64 36.71 114.41 38.1998 111.94 39.3798C110.09 40.2698 108.39 40.4498 107.13 38.4098L107.2 38.54C105 33.52 103.06 28.3899 101.12 23.2599C100.8 22.1299 100.48 20.99 100.17 19.86L100.16 19.87Z" fill="#9EE9E6"/>
<path d="M150.01 27.55C148.37 21.47 146.84 15.36 145.03 9.33001C144.53 7.66001 144.18 6.69988 146.17 5.93988C148.24 5.14988 149.2 5.80995 149.87 7.75995C150.89 10.6999 151.22 13.89 153.02 16.54C153.67 19.05 154.49 21.53 154.9 24.07C155.08 25.17 156.7 26.6298 155.16 27.3998C153.67 28.1498 151.76 29.69 150 27.55H150.01Z" fill="#A1EAE7"/>
<path d="M43.8701 60.54C41.8001 56.03 39.7999 51.49 37.6299 47.02C36.4699 44.63 36.25 42.9501 39.32 41.8401C42.34 40.7501 42.45 42.8199 43.27 44.6499C45.33 49.2299 45.8699 54.45 49.1599 58.51C48.4599 61.96 47.1201 63.74 43.8701 60.54Z" fill="#9DEAE3"/>
<path d="M39.1999 65.48C36.1099 61.15 34.0399 56.3099 31.9899 51.4399C31.4599 50.1799 31.1399 48.9501 31.2299 47.6101C31.3499 45.8801 32.5 44.84 34 44.56C35.54 44.28 35.59 45.9199 36.02 46.8799C38.25 51.8199 39.9999 56.99 43.1599 61.48C44.1399 65.1 40.2699 63.89 39.1899 65.47L39.1999 65.48Z" fill="#9EEDE7"/>
<path d="M108.15 16.4599C111.12 15.8899 112.13 17.51 113.25 20.05C115.16 24.35 114.87 29.6499 118.96 32.9699C119.97 33.8999 119.32 34.5599 118.6 35.2099C120 37.9099 117.4 37.6099 116.24 38.1499C114.69 38.8699 114.49 37.4799 114.05 36.4199C113.21 34.3699 112.24 32.3701 111.32 30.3601C111.14 26.9801 109.28 24.13 108.36 20.99C107.93 19.51 106.67 18.05 108.15 16.48V16.4599Z" fill="#9EE8E5"/>
<path d="M118.6 35.1999C118.72 34.4499 118.84 33.7099 118.96 32.9599C117.26 28.0499 115.82 23.03 113.75 18.29C112.77 16.04 114 15.4699 115.14 14.4499C117.91 13.9999 118.35 16.18 118.95 17.98C120.44 22.48 121.87 27.01 123.21 31.56C123.63 32.99 125.24 34.57 123.41 36C121.66 37.36 120.14 35.9299 118.61 35.1999H118.6Z" fill="#A2E7E6"/>
<path d="M92.1899 21.5601C95.1099 23.1101 95.0499 26.2901 95.7399 28.8101C97.0599 33.6901 100.27 38.0301 99.9399 43.3701C99.3599 43.5001 98.7799 43.62 98.1999 43.75C96.1099 43.81 96.06 41.94 95.52 40.71C93.67 36.5 92.4 31.98 90.09 28.05C88.03 24.53 88.5299 22.7701 92.1899 21.5601Z" fill="#A3E9E9"/>
<path d="M85.03 46.5399C82.83 41.2199 80.51 35.9399 78.51 30.5499C78.09 29.4299 76.36 27.3999 79.21 26.5599C81.61 25.8499 81.8701 27.8499 82.5701 29.2299C83.4701 30.9799 84.2899 32.7599 85.1399 34.5299C86.2899 37.2199 87.5301 39.87 88.5601 42.61C89.0201 43.82 91.0999 45.04 89.4099 46.33C88.3399 47.15 86.55 48.3199 85.02 46.5299L85.03 46.5399Z" fill="#94E8E4"/>
<path d="M109 209.72C109.25 206.32 110.73 203.87 114.04 203.93C117.39 203.99 119.59 206.34 119.68 209.69C119.77 212.98 118.15 215.54 114.4 215.43C110.73 215.33 109.49 212.71 109 209.72Z" fill="#E95E5C"/>
<path d="M85.8302 33.54C85.0402 31.73 84.1801 29.9501 83.5001 28.1001C83.1201 27.0701 81.6101 25.7999 83.7101 24.9299C85.4001 24.2299 86.8601 24.21 87.7101 26.29C90.1801 32.38 92.7201 38.45 95.2301 44.53C92.9801 45.88 91.4102 45.6599 90.3002 42.9299C89.0102 39.7199 87.3402 36.67 85.8402 33.54H85.8302Z" fill="#A0EAE7"/>
<path d="M74.26 49.2499C72.28 44.0599 70.2401 38.8999 68.3701 33.6699C67.9701 32.5399 66.76 31.09 69.06 30.09C71.63 28.97 71.2201 31.2499 71.8701 32.2299C73.3201 34.4399 72.7399 37.87 75.9599 39.04C78.1999 41.41 79.6999 44.0599 79.1699 47.4799C78.7399 51.3999 76.81 51.1599 74.27 49.2599L74.26 49.2499Z" fill="#A7E7E6"/>
<path d="M66.38 45.2499C65.34 42.4699 64.1701 39.7398 63.2901 36.9098C62.8001 35.3298 60.6702 33.3199 64.1002 32.1799C67.3202 31.1099 66.52 33.8699 67.14 35.1899C69.53 40.2599 71.08 45.7299 74.17 50.4799C71.78 53.2499 69.82 53.58 68.41 49.6C67.88 48.1 67.07 46.6999 66.38 45.2599V45.2499Z" fill="#AEEDE9"/>
<path d="M121.5 12.73C122.79 12.81 122.91 13.82 123.24 14.77C125.22 20.58 127.16 26.3899 129.29 32.1399C129.93 33.8799 129.41 34.3199 127.87 34.8899C126.37 35.4499 125.7 35.07 125.26 33.72C123.26 27.59 121.25 21.4501 119.26 15.3201C118.58 13.2301 120.66 13.52 121.5 12.73Z" fill="#A1E6E1"/>
<path d="M79.16 47.47C78.09 44.66 77.02 41.84 75.95 39.03C75.01 36.39 74.1501 33.7199 73.0901 31.1299C72.4901 29.6599 72.43 29 74.22 28.27C76.3 27.42 76.53 28.7799 76.9 29.9099C78.8 35.6599 80.5002 41.5 84.1002 46.51C83.1202 50.25 81.06 48.43 79.16 47.47Z" fill="#9CE5E2"/>
<path d="M118.39 155.4C119.3 158.37 118.15 161.24 118.22 164.06C118.24 165.01 117.73 165.68 116.69 165.32C113.4 164.17 110.51 162.25 107.71 160.22C107.03 159.73 106.87 158.72 107.45 158C108.2 157.08 109.61 157.05 110.07 157.84C114.94 166.26 115.79 160.21 117.2 155.94C117.26 155.76 117.7 155.7 118.39 155.39V155.4Z" fill="#E5EBE7"/>
<path d="M132.91 151.49C134.36 151.48 137.86 156.39 137.18 157.61C135.66 160.32 134.09 163.14 130.44 163.48C129.52 163.56 128.39 164.1 128.13 162.59C127.94 161.49 128.83 161.19 129.58 160.95C133.33 159.75 135.93 158.35 131.76 154.37C130.54 153.21 131.57 152 132.92 151.5L132.91 151.49Z" fill="#CED3D3"/>
<path d="M115.2 375.57C114.56 376.74 114.56 377.79 115.88 378.46C120.91 381 121.36 382.39 118.52 389.1C118.47 386.23 114 385.49 117.48 382.43C118.02 381.95 116.46 381.39 115.86 381C112.31 378.72 111.95 376.25 115.14 373.38C115.72 374.09 115.76 374.82 115.21 375.57H115.2Z" fill="#D8DBD9"/>
<path d="M142.91 56.6201C142.91 57.5701 142.49 58.24 141.66 58.56C138.92 59.64 132.16 54.61 132.14 51.5C132.14 50.67 132.11 49.7399 133.07 49.4499C134.41 49.0499 134.78 50.16 135.02 51.08C135.74 53.87 136.03 56.89 140.3 54.35C141.58 53.59 142.42 55.3801 142.91 56.6101V56.6201Z" fill="#CDD4D3"/>
<path d="M227.89 204.44C228.73 206.873 232.28 208.983 238.54 210.77C235.1 212.97 231.51 213.47 228.95 211.22C226.74 209.28 224.75 206.71 225.94 203.23C227.05 202.88 227.61 203.44 227.9 204.43L227.89 204.44Z" fill="#D0D4D4"/>
<path d="M129.03 249.91C130.16 250.21 130.58 251.2 130.86 252.11C131.62 254.62 132.05 257.22 133.73 259.4C134.35 260.2 133.58 260.95 132.87 261.4C132.04 261.92 131.33 261.76 130.88 260.8C129.47 257.8 128.17 254.76 127.64 251.46C127.48 250.47 128.04 249.96 129.03 249.91Z" fill="#DFE1DE"/>
<path d="M190.28 131.06C190.22 132.22 190.28 133.19 189.34 133.46C188.79 133.62 187.68 133.48 187.54 133.16C186.35 130.39 183.49 130.18 181.36 128.87C180.58 128.39 179.84 127.49 180.55 126.37C181.02 125.63 181.72 125.03 182.58 125.45C185.07 126.67 186.05 130.52 189.82 129.63C189.86 129.62 190.18 130.77 190.27 131.06H190.28Z" fill="#DDE3DE"/>
<path d="M142.39 259.76C145.52 261.24 147.7 262.29 149.31 259.57C149.82 258.71 150.53 258.61 151.29 259.45C152.06 260.3 152.17 260.91 151.39 261.96C148.76 265.47 145.86 265.17 142.39 259.76Z" fill="#C6CCCB"/>
<path d="M223.86 198.88C223.44 198.68 222.92 198.55 222.58 198.23C221.78 197.48 220.33 196.46 221.54 195.46C223.21 194.09 225.87 194.07 226.94 191.72C228.1 192.44 229.13 193.42 229.04 194.81C228.99 195.64 228.16 196.41 227.67 197.21C225.07 194.37 224.63 195.87 224.78 198.63C224.78 198.69 224.21 198.78 223.85 198.87L223.86 198.88Z" fill="#D7DCD7"/>
<path d="M96.8301 374.27C96.9801 372.71 97.8001 371.95 98.8301 372.3C101.03 373.03 102.8 374.56 104.04 376.5C104.56 377.31 104.27 378.52 103.26 379.07C101.98 379.77 101.94 378.47 101.79 377.86C101.27 375.67 99.4101 377.86 98.6101 376.81C97.9301 375.92 97.3201 374.97 96.8301 374.28V374.27Z" fill="#E6EAE6"/>
<path d="M152.95 56.3702C153.95 55.3002 154.94 54.21 155.96 53.16C157.14 51.95 158.05 52.78 158.84 53.68C159.7 54.66 160.76 55.6402 159.44 57.0702C158.65 57.9202 157.99 58.95 156.58 58.43C155.22 57.92 154.59 56.1401 152.85 56.2901L152.94 56.3702H152.95Z" fill="#D2D9D8"/>
<path d="M176.38 364.71C178.49 366.73 180.53 368.29 181.74 370.64C182.13 371.41 182.07 372.29 181.35 372.86C180.41 373.61 179.86 372.67 179.42 372.14C177.73 370.13 175.23 368.43 176.38 364.7V364.71Z" fill="#DCE0DD"/>
<path d="M121.75 394.85C121.66 396.36 120.9 397.36 119.39 397.37C117.62 397.38 116.87 395.96 116.51 394.55C116.11 393.02 117.24 391.85 118.52 391.76C120.41 391.63 121.14 393.31 121.75 394.86V394.85Z" fill="#E6EAE8"/>
<path d="M124.83 144.85C124.57 146.29 123.93 147.49 122.33 147.31C120.11 147.06 120.31 145.12 120.07 143.54C119.85 142.04 120.54 141.47 121.99 141.51C124.21 141.58 124.47 143.25 124.83 144.85Z" fill="#E0E3E0"/>
<path d="M150.71 54.77C149.66 52.91 148.9 51.8399 148.43 50.6599C147.99 49.5499 146.25 48.7199 147.36 47.2299C148.03 46.3199 149.12 46.3698 150.06 46.8798C151.5 47.6498 152.27 48.88 151.95 50.55C151.73 51.67 151.32 52.76 150.72 54.78L150.71 54.77Z" fill="#DADFDB"/>
<path d="M123.55 59.54C125.23 60.25 126.38 61.2 126.1 62.96C125.88 64.35 125.09 65.5599 123.42 65.1399C121.89 64.7499 120.64 63.75 120.85 61.97C121.03 60.42 122.51 60.11 123.56 59.54H123.55Z" fill="#E4E9E5"/>
<path d="M184.62 120.49C183.16 119.94 182.11 118.96 182.12 117.32C182.12 115.49 183.65 114.64 185.02 114.79C186.88 115 186.6 116.97 186.73 118.33C186.86 119.68 185.95 120.33 184.63 120.49H184.62Z" fill="#CBD0CF"/>
<path d="M194.17 348.64C194.02 350.55 193.14 351.51 191.35 351.6C189.46 351.69 188.48 350.48 188.51 348.92C188.53 347.66 189.4 346.46 191.06 346.39C192.8 346.32 193.88 347.03 194.17 348.64Z" fill="#EAEDE5"/>
<path d="M114.55 394.48C114.31 395.87 113.83 397.22 112.24 397.12C110.45 397 109.13 395.87 109.31 393.95C109.43 392.67 110.22 391.33 111.84 391.61C113.32 391.87 114.54 392.71 114.54 394.48H114.55Z" fill="#E7ECE6"/>
<path d="M105.18 359.7C105.01 361.1 104.33 362.24 102.77 362.18C101.19 362.12 99.95 361.39 99.95 359.49C99.95 357.83 101.05 357.02 102.39 356.97C103.99 356.9 105.16 357.79 105.18 359.7Z" fill="#EAECE8"/>
<path d="M104.64 394.01C103.1 393.8 101.75 393.21 101.7 391.38C101.67 390.08 102.48 388.94 103.8 389.34C105.15 389.75 107.45 389.32 107.46 391.63C107.46 393.16 105.94 393.6 104.63 394.01H104.64Z" fill="#DEE1E1"/>
<path d="M108.7 358.46C110.43 358.98 111.48 360.13 111.5 361.95C111.52 363.47 110.34 363.72 109.12 363.65C107.48 363.55 106.18 362.78 106.37 361.01C106.49 359.85 106.88 358.37 108.7 358.46Z" fill="#EAEEEA"/>
<path d="M182.68 347.08C184.87 347.07 185.47 348.47 185.55 350.03C185.62 351.49 184.92 352.63 183.16 352.52C181.35 352.4 180.47 351.19 180.33 349.58C180.18 347.89 181.57 347.45 182.68 347.08Z" fill="#F0F2EC"/>
<path d="M201.12 347.7C202.31 348.06 203.91 348.34 203.93 349.87C203.95 351.51 202.72 352.49 200.99 352.45C199.55 352.41 198.29 351.81 198.4 350.19C198.5 348.76 199.58 347.92 201.12 347.69V347.7Z" fill="#DBDFDB"/>
<path d="M96.3001 385.41C93.2501 385.35 91.4002 383.72 90.8502 380.82C90.7302 380.18 91.7002 379.27 92.6202 379.43C96.1102 380.07 95.87 382.97 96.17 385.52L96.2901 385.4L96.3001 385.41Z" fill="#EFF3EF"/>
<path d="M104.02 158.01C101.73 157.04 99.27 156.56 99.41 153.58C99.46 152.48 100.69 152.02 101.7 152.31C104.61 153.17 104.68 155.29 104.02 158V158.01Z" fill="#E6EAE8"/>
<path d="M93.8 363.6C93.39 364.98 92.4099 365.64 90.9499 365.57C89.4399 365.5 88.3299 364.53 88.4199 363.19C88.5299 361.55 90.1301 360.73 91.5801 360.76C93.0201 360.79 93.61 362.15 93.79 363.6H93.8Z" fill="#DDE1DD"/>
<path d="M118.81 365.24C118.52 366.44 118.03 367.62 116.65 367.56C114.78 367.48 113.64 366.12 113.28 364.44C112.98 363.06 114.08 362.26 115.36 362.24C117.31 362.2 118.23 363.58 118.81 365.24Z" fill="#F3F5F0"/>
<path d="M224.65 216.63C226.19 217.12 227.25 217.98 227.26 219.72C227.26 221.17 226.86 222.5 225.14 222.24C223.66 222.02 222.29 221.1 222.35 219.37C222.4 218.04 223.21 216.95 224.66 216.62L224.65 216.63Z" fill="#ECEEE7"/>
<path d="M138.28 163.13C139.91 163.46 140.98 164.4 140.89 166.07C140.82 167.32 139.83 168.26 138.58 167.97C137.19 167.64 135.62 166.85 135.54 165.22C135.47 163.65 136.93 163.28 138.27 163.13H138.28Z" fill="#E2E6E1"/>
<path d="M149.56 35.6699C151.59 36.1799 151.79 37.97 151.96 39.51C152.11 40.85 151.06 41.7299 149.74 41.4099C148.24 41.0499 147.13 40.02 147.14 38.28C147.14 36.7 148.14 35.9799 149.56 35.6699Z" fill="#E2E5E5"/>
<path d="M157.11 252.79C156.95 254.06 156.86 255.62 155.02 255.47C153.65 255.36 152.35 254.4 152.48 252.93C152.61 251.51 153.23 249.74 155.05 249.8C156.57 249.85 157.1 251.26 157.1 252.79H157.11Z" fill="#DFE2E0"/>
<path d="M170.1 132.46C168.42 132.51 167.3 131.9 167.05 130.35C166.78 128.73 167.77 127.77 169.26 127.69C170.65 127.61 171.88 128.27 172.15 129.83C172.44 131.5 171.43 132.22 170.1 132.46Z" fill="#EDF1EC"/>
<path d="M148.68 59.3501C150.78 59.5901 151.12 61.0501 151.28 62.5801C151.41 63.9101 150.6 65.1499 149.48 65.1799C147.25 65.2299 147.39 63.0101 146.89 61.5701C146.32 59.9301 147.78 59.7801 148.68 59.3501Z" fill="#E4ECE8"/>
<path d="M125.26 370.32C125.06 371.72 124.24 372.41 122.95 372.35C121.3 372.28 120.2 371.31 119.97 369.7C119.79 368.41 120.5 367.44 121.89 367.48C123.72 367.52 124.8 368.62 125.25 370.32H125.26Z" fill="#E9EFE7"/>
<path d="M171.1 369.17C170.85 370.66 169.45 371.07 168.53 371.1C166.7 371.17 165.41 369.8 165.3 368.07C165.21 366.59 166.76 366.54 167.9 366.59C169.56 366.67 170.5 367.73 171.09 369.17H171.1Z" fill="#E8EAE6"/>
<path d="M227.89 204.44C227.24 204.04 226.59 203.64 225.93 203.24C227.08 201.54 227.82 198.84 230.28 202.41C231.11 203.62 233.99 202.22 235.11 204.62C232.63 204.62 230.26 205.16 227.89 204.45V204.44Z" fill="#8E989D"/>
<path d="M129.09 146.5C126.95 146.35 126.47 144.91 126.24 143.47C126 142 126.97 141.41 128.31 141.49C129.75 141.58 130.83 142.31 131.06 143.78C131.31 145.39 130.13 146.02 129.09 146.5Z" fill="#E2E6E2"/>
<path d="M183.96 358.39C186.91 356.22 188.11 358.42 188.97 360.62C189.46 361.87 189.91 363.83 187.18 363.11C184.61 362.56 183.15 361.25 183.96 358.39Z" fill="#D9DFDA"/>
<path d="M141.91 48.1298C141.24 49.1298 141.69 51.2299 139.9 50.9999C138.38 50.7999 137.54 49.2198 137.55 47.6498C137.55 46.2798 138.1 44.9499 139.89 45.2799C141.38 45.5499 142 46.6298 141.91 48.1398V48.1298Z" fill="#BCC2C2"/>
<path d="M145.17 39.5501C144.88 41.0001 143.78 41.45 142.62 41.27C141.28 41.07 140.08 40.28 140.2 38.68C140.32 37.08 141.51 36.39 142.95 36.71C144.32 37.01 145.12 38.0701 145.16 39.5401L145.17 39.5501Z" fill="#DBDDDD"/>
<path d="M178.54 352.66C178.63 353.87 177.78 354.71 176.61 354.93C174.94 355.25 174.26 354.05 174.07 352.62C173.89 351.27 174.59 350.33 175.9 350.11C177.64 349.82 178.14 351.1 178.54 352.66Z" fill="#E9EBE6"/>
<path d="M125.4 269.54C123.73 269.43 122.93 268.32 123.02 266.59C123.08 265.36 123.55 264.11 125.11 264.53C126.55 264.92 127.99 265.76 127.96 267.51C127.94 268.8 126.95 269.52 125.4 269.53V269.54Z" fill="#F4F4F3"/>
<path d="M161.95 45.2599C160.61 44.9499 159.36 44.29 159.37 42.84C159.38 41.56 160.13 40.0499 161.54 39.9999C162.8 39.9499 163.86 41.0599 164.09 42.4599C164.36 44.0699 163.25 44.7499 161.94 45.2599H161.95Z" fill="#E5E9E8"/>
<path d="M145.45 156.37C143.6 156.01 142.36 155.13 142.47 153.43C142.55 152.17 143.27 150.54 144.78 150.78C146.25 151.01 147.13 152.45 147.28 154.07C147.41 155.54 146.39 156 145.45 156.37Z" fill="#ECF2EE"/>
<path d="M107.93 153.85C105.29 153.2 103.45 152.24 103.54 149.65C103.57 148.61 104.86 148 105.86 148.31C108.76 149.2 107.64 151.57 107.93 153.85Z" fill="#D6DCDA"/>
<path d="M233.77 219.85C233.58 221.28 233.49 222.66 231.55 222.55C229.89 222.46 229.15 221.37 229.15 219.94C229.15 218.49 229.88 217.38 231.6 217.44C233.18 217.5 234.04 218.2 233.78 219.85H233.77Z" fill="#E8ECEA"/>
<path d="M162.04 52.57C160.76 51.78 159.16 51.0999 159.48 49.4199C159.73 48.1299 161.01 47.2399 162.44 47.4199C164.09 47.6299 164.33 48.97 164.18 50.37C164.04 51.64 163.32 52.39 162.04 52.57Z" fill="#E7E9E3"/>
<path d="M123.18 51.8201C123.09 53.3801 123.13 54.71 121.37 54.45C119.95 54.23 118.89 53.2799 118.65 51.8999C118.44 50.6899 119.05 49.5799 120.44 49.3999C122.52 49.1299 122.71 50.8201 123.18 51.8301V51.8201Z" fill="#E7EBE9"/>
<path d="M189.65 136.94C191.42 137.45 192.24 138.82 192.54 140.51C192.8 141.98 191.83 142.67 190.53 142.6C188.66 142.51 188.25 141.05 188.08 139.51C187.94 138.27 188.14 137.23 189.65 136.94Z" fill="#F1F6F3"/>
<path d="M127.55 392.94C127.24 394.23 126.35 395.06 125.11 394.98C123.64 394.89 122.68 393.71 122.58 392.35C122.49 391.08 123.44 390.21 124.83 390.48C126.17 390.73 127.3 391.39 127.55 392.94Z" fill="#DAE0DD"/>
<path d="M131.14 242.17C130.77 243.56 130.1 244.67 128.45 244.4C126.86 244.15 126.34 242.84 126.44 241.49C126.53 240.28 127.37 239.31 128.74 239.47C130.23 239.65 130.94 240.71 131.14 242.17Z" fill="#E0E4DF"/>
<path d="M147.18 247.79C147.19 248.87 146.73 250.21 145.78 250.04C143.97 249.71 143.26 248.02 143.09 246.29C142.97 245.11 143.88 244.36 144.9 244.55C146.54 244.85 147.42 246.01 147.18 247.79Z" fill="#E8E9E8"/>
<path d="M115.65 148.03C113.85 148 113.98 146.43 113.87 145.21C113.74 143.68 114.55 142.59 116.14 142.56C118.04 142.53 117.89 144.2 118.15 145.44C118.53 147.3 117.06 147.57 115.65 148.04V148.03Z" fill="#E3E4E2"/>
<path d="M121.08 57.6999C120.28 59.0299 119.34 60.02 117.89 59.8C116.35 59.57 115.7 58.2299 115.75 56.8799C115.81 55.4599 116.97 55.05 118.28 55.3C119.7 55.57 120.52 56.5199 121.08 57.6999Z" fill="#ECEFEC"/>
<path d="M136.98 44.1998C135.43 43.7198 134.6 42.5099 134.26 41.0599C133.99 39.8999 134.89 39.1299 135.91 39.0699C137.85 38.9599 138.23 40.5999 138.49 42.0099C138.67 43.0099 138.14 43.8998 136.99 44.1898L136.98 44.1998Z" fill="#D0D1CF"/>
<path d="M241.16 218.2C241.26 219.94 240.4 220.66 239.16 220.79C237.39 220.98 237.14 219.54 236.87 218.27C236.6 216.97 237.14 215.75 238.41 215.69C240.07 215.62 240.8 217.03 241.16 218.2Z" fill="#E5EAE6"/>
<path d="M173.46 356.81C173.25 358.16 172.71 359.3 171.13 359.42C169.83 359.52 168.74 358.8 168.65 357.59C168.53 355.96 169.61 354.78 171.24 354.6C172.63 354.44 173.13 355.61 173.46 356.81Z" fill="#EBEEE9"/>
<path d="M190.85 112.55C192.02 112.92 193.22 113.56 192.95 114.86C192.68 116.16 192.8 118.26 190.86 118.27C189.41 118.27 188.89 116.61 188.69 115.33C188.45 113.8 189.41 112.94 190.84 112.56L190.85 112.55Z" fill="#E3E6E2"/>
<path d="M89.04 366.62C90.34 367.14 91.7301 367.83 91.6101 369.31C91.5001 370.76 90.13 371.49 88.71 371.4C87.22 371.3 86.98 370 86.97 368.81C86.97 367.49 87.55 366.58 89.03 366.63L89.04 366.62Z" fill="#E5E8E6"/>
<path d="M126.76 374.25C128.18 374.56 129.22 375.25 129.2 376.87C129.19 378.31 128.13 379.06 126.96 378.98C125.55 378.88 124.54 377.8 124.52 376.32C124.5 375.01 125.35 374.23 126.76 374.25Z" fill="#E6E9E7"/>
<path d="M96.18 385.53C98.86 384.61 100.21 385.9 100.38 388.4C100.46 389.63 99.3501 390.59 98.0601 390.28C95.2101 389.58 95.3301 387.6 96.3001 385.41L96.18 385.53Z" fill="#DDE6E1"/>
<path d="M111.45 150.39C109.64 150.1 108.77 149.04 108.62 147.7C108.46 146.29 109.3 144.75 110.71 144.81C112.05 144.87 112.53 146.56 112.95 147.82C113.49 149.43 111.97 149.63 111.45 150.39Z" fill="#E4E7E3"/>
<path d="M99.2601 163.65C97.0901 163.69 97.0901 162.42 97.0201 161.32C96.9201 159.78 97.09 158.24 99.13 158.23C100.31 158.23 101.64 158.96 101.54 160.1C101.4 161.65 100.22 162.87 99.2701 163.65H99.2601Z" fill="#E8EBE9"/>
<path d="M146.2 160.4C145.97 161.83 145.36 162.99 143.66 162.67C142.33 162.42 141.02 161.74 141.21 160.09C141.41 158.41 142.79 158.17 144.2 158.25C145.52 158.32 146.45 158.82 146.2 160.41V160.4Z" fill="#F1F3EF"/>
<path d="M159.24 255.62C160.75 255.83 161.73 256.83 161.86 258.18C161.97 259.37 161.1 260.36 159.75 260.49C158.06 260.66 157.32 259.52 157.2 258.1C157.09 256.79 158.06 256.05 159.24 255.61V255.62Z" fill="#E8EAEA"/>
<path d="M110.55 170.23C110.33 171.56 109.84 172.7 108.4 172.43C106.8 172.13 105.88 170.99 106.01 169.28C106.09 168.23 106.58 167.34 107.81 167.44C109.53 167.58 110.28 168.75 110.55 170.24V170.23Z" fill="#EEF1EE"/>
<path d="M122.62 171.64C122.5 172.95 122.1 174.36 120.46 174.24C118.94 174.12 118.57 172.64 118.32 171.33C118.05 169.88 118.74 169.21 120.16 169.14C121.86 169.06 122.4 170.15 122.62 171.64Z" fill="#E7E9E3"/>
<path d="M122.69 240.59C124.61 240.64 125.06 242.05 125.37 243.53C125.62 244.73 124.91 245.54 123.83 245.58C121.97 245.65 120.61 244.55 120.35 242.77C120.15 241.38 121.69 241.14 122.69 240.59Z" fill="#F0F2EC"/>
<path d="M138.66 66.7801C138.55 68.1301 137.78 69.0002 136.5 69.1202C135.2 69.2402 134.24 68.54 134.16 67.14C134.07 65.57 134.85 64.6101 136.48 64.5401C137.99 64.4801 138.38 65.6101 138.67 66.7801H138.66Z" fill="#E5EBE7"/>
<path d="M132.22 65.7201C132.13 67.0801 131.63 68.1802 130.31 68.2902C128.78 68.4102 127.73 67.36 127.75 65.93C127.76 64.89 128.22 63.5601 129.69 63.4601C131.3 63.3601 132.01 64.3501 132.22 65.7201Z" fill="#ECF2ED"/>
<path d="M142.7 62.49C144.46 62.61 145.07 63.8199 145.29 65.4199C145.48 66.7699 144.99 67.8601 143.64 67.8601C141.58 67.8701 141.96 65.7601 141.37 64.5801C140.89 63.6101 141.32 62.65 142.71 62.49H142.7Z" fill="#EBEFEE"/>
<path d="M194.69 361.45C192.77 361.34 192.26 360.04 191.54 359C192.69 358.21 193.75 357.14 195.02 356.72C195.9 356.43 196.9 357.46 197.03 358.45C197.29 360.36 195.35 360.51 194.69 361.45Z" fill="#9CADB2"/>
<path d="M178.13 118.48C179.96 118.83 181.11 119.88 181.09 121.76C181.08 122.81 180.2 123.65 179.09 123.37C177.28 122.91 176.72 121.2 176.39 119.66C176.16 118.59 177.35 118.65 178.13 118.49V118.48Z" fill="#E4E9E6"/>
<path d="M201.75 131.75C203.46 131.98 204.13 133.48 204.63 134.74C205.26 136.32 203.6 136.67 202.61 136.74C201.11 136.85 200.35 135.62 199.99 134.3C199.59 132.87 200.61 132.27 201.75 131.74V131.75Z" fill="#E2E5DF"/>
<path d="M117.96 243.39C119.77 243.59 120.41 244.71 120.45 246.08C120.49 247.37 120.19 249.07 118.72 249.09C117.59 249.1 116.34 247.98 116.21 246.48C116.08 245.02 117 244.13 117.97 243.4L117.96 243.39Z" fill="#F4F5F0"/>
<path d="M196 135.14C197.9 135.6 199.01 136.76 199.08 138.55C199.12 139.58 198.12 140.47 197.09 140.13C195.41 139.58 194.59 138.04 194.33 136.39C194.16 135.27 195.38 135.45 195.99 135.14H196Z" fill="#E7ECE9"/>
<path d="M182.85 136.83C184.31 137.55 185.03 138.76 185 140.32C184.97 141.54 184.38 142.68 182.98 142.48C181.21 142.23 180.72 140.85 180.98 139.22C181.16 138.13 181.35 136.96 182.85 136.83Z" fill="#ECF2EB"/>
<path d="M136.98 147.72C135.23 148.43 133.37 149.69 132.55 146.58C132.18 145.17 132.26 143.42 133.66 143.39C136.34 143.32 136.93 145.52 136.9 147.83L136.98 147.72Z" fill="#DADEDA"/>
<path d="M144.4 274.21C144.34 275.45 144.07 276.59 142.49 276.43C140.92 276.28 140.26 275.18 140.2 273.72C140.15 272.45 140.53 271.32 142.08 271.46C143.63 271.61 144.23 272.77 144.4 274.2V274.21Z" fill="#EBEFE8"/>
<path d="M136.33 270.66C138.02 271.19 138.59 272.37 138.33 274.03C138.18 274.99 138.07 276.3 136.86 276.16C134.79 275.92 134.58 274.06 134.52 272.44C134.48 271.45 135.08 270.59 136.33 270.65V270.66Z" fill="#DCDFDB"/>
<path d="M155.6 273.27C153.62 273.03 153.29 271.23 152.7 269.86C152.33 269.01 153.17 268.29 154.08 268.4C155.81 268.62 157.13 269.67 157.54 271.33C157.85 272.57 156.34 272.6 155.6 273.26V273.27Z" fill="#D7DCD9"/>
<path d="M132.4 270.84C132.52 272 131.77 272.94 130.55 273.03C129.34 273.12 128.18 272.27 128.26 270.98C128.34 269.75 128.81 268.08 130.21 267.92C131.8 267.73 132.11 269.33 132.4 270.84Z" fill="#DADDDA"/>
<path d="M136.9 147.83C137.83 147.23 138.43 145.95 139.78 146.19C140.96 146.4 141.96 147.03 142.26 148.3C142.51 149.36 142.11 150.22 141.18 150.83C139.73 151.77 139.1 150.54 138.38 149.74C137.83 149.14 137.45 148.39 136.99 147.72L136.91 147.83H136.9Z" fill="#DADEDA"/>
<path d="M115.08 155.98C114.99 157.37 114.84 158.63 113.52 158.26C111.92 157.82 111.52 156.16 111.23 154.72C110.98 153.49 112.02 152.75 112.97 152.84C115.02 153.03 114.13 155.28 115.09 155.97L115.08 155.98Z" fill="#D4D8D8"/>
<path d="M102.54 168.87C101.01 168.45 99.7699 167.58 99.6999 165.92C99.6599 164.96 100.46 163.74 101.49 163.97C103.06 164.31 104.61 165.21 104.58 167.17C104.56 168.29 103.64 168.8 102.54 168.87Z" fill="#E7ECE8"/>
<path d="M151.65 273.79C151.44 275 150.68 275.6 149.62 275.4C148.01 275.1 147.21 273.85 146.99 272.32C146.86 271.44 147.44 270.58 148.33 270.68C150.15 270.87 150.85 272.46 151.65 273.79Z" fill="#D7DBD8"/>
<path d="M118.83 256.8C118.52 258.08 117.43 258.85 116.38 258.94C114.94 259.06 114.55 257.54 114.49 256.47C114.42 255.26 115.14 254.16 116.61 254.31C117.99 254.45 118.3 255.75 118.83 256.8Z" fill="#D7DDD8"/>
<path d="M122.15 262.94C122.14 264.34 121.54 264.8 120.57 264.64C118.71 264.32 117.68 263.03 117.48 261.28C117.39 260.51 118.25 259.63 119.11 259.76C121.05 260.03 121.33 261.93 122.14 262.94H122.15Z" fill="#E4E8E7"/>
<path d="M160.09 265.34C159.87 263.9 159.41 262.37 161.26 261.59C162.4 261.11 163.05 261.8 163.64 262.67C164.26 263.58 164.33 264.51 163.72 265.39C162.42 267.26 161.2 265.84 159.98 265.23L160.09 265.34Z" fill="#E8EEE8"/>
<path d="M111.92 384.99C111.55 386.11 111.13 387.42 109.81 387.43C108.2 387.43 107.82 385.82 107.51 384.65C107.22 383.58 108.19 382.75 109.21 382.65C110.78 382.5 111.49 383.66 111.93 384.99H111.92Z" fill="#C5CDCF"/>
<path d="M221.19 201.44C220.96 202.63 220.27 203.62 219 203.61C217.45 203.61 216.73 202.25 216.69 200.98C216.65 199.73 217.7 198.91 219.02 199.13C220.19 199.32 221.12 200 221.18 201.44H221.19Z" fill="#ECEAE7"/>
<path d="M219.21 214.21C216.84 214.02 215.3 216.97 213.41 214.58C212.68 213.66 213.38 212.62 214.18 212.02C216.37 210.39 217.33 212.35 219.21 214.21Z" fill="#E2E4E1"/>
<path d="M189.62 120.46C191.97 121.87 192.6 123.64 191.92 125.87C191.7 126.58 190.95 127.37 190.14 126.52C188.49 124.8 188.77 122.82 189.62 120.46Z" fill="#DCE1E2"/>
<path d="M159.98 265.23C160.03 265.55 159.98 265.94 160.15 266.18C161.01 267.41 162.08 268.64 160.62 270.08C160.15 270.54 159.41 270.47 158.86 269.91C157.7 268.73 156.28 267.37 156.76 265.75C157.3 263.9 159.03 266.22 160.11 265.36L159.99 265.24L159.98 265.23Z" fill="#ECEEE8"/>
<path d="M117.94 251.52C117.36 252.51 116.72 253.58 115.39 253.48C113.94 253.37 113.46 252.25 113.71 250.98C113.93 249.87 114.44 248.52 115.89 248.91C116.96 249.2 117.85 250.13 117.93 251.52H117.94Z" fill="#E1E6E4"/>
<path d="M175.98 124.87C176.22 126.74 175.01 126.55 174.11 126.58C172.58 126.62 171.09 126.35 170.84 124.48C170.7 123.45 171.17 122.56 172.39 122.51C174.28 122.42 175.3 123.59 175.97 124.87H175.98Z" fill="#EDF4EF"/>
<path d="M137.02 242.93C137.04 244.44 136.56 245.51 134.84 245.5C133.4 245.49 132.79 244.64 132.93 243.3C133.06 241.98 133.36 240.56 135.05 240.58C136.4 240.6 136.85 241.75 137.02 242.93Z" fill="#ECF0EC"/>
<path d="M131.57 166.42C133.35 166.39 134.24 167.65 134.69 169.03C135.04 170.09 134.04 171.08 133.05 170.97C131.29 170.77 130.23 169.48 129.99 167.71C129.84 166.58 130.7 166.44 131.57 166.43V166.42Z" fill="#E1E6E3"/>
<path d="M219.27 220.08C217.73 219.78 216.98 218.97 216.87 217.69C216.78 216.58 217.31 215.69 218.46 215.54C219.82 215.37 220.7 216.16 220.86 217.48C221.02 218.79 220.2 219.57 219.27 220.08Z" fill="#CED4D2"/>
<path d="M130.82 389.31C130.36 390.24 130.12 391.49 128.79 391.02C127.42 390.53 125.8 389.92 126.19 387.99C126.4 386.95 127.38 386.33 128.47 386.63C129.8 386.99 130.8 387.8 130.82 389.31Z" fill="#D7DDD9"/>
<path d="M169.39 363.06C169.19 364.34 168.51 365.28 167.18 365.28C165.86 365.28 165.06 364.41 165.06 363.05C165.06 361.65 166.05 360.91 167.26 360.84C168.61 360.77 169.24 361.77 169.39 363.06Z" fill="#ECEEEA"/>
<path d="M112.25 172.24C112.14 170.2 112.74 169.32 114.05 169.11C115.73 168.84 116.44 169.87 116.51 171.35C116.56 172.47 116.5 173.84 114.9 173.76C113.6 173.69 112.34 173.19 112.26 172.25L112.25 172.24Z" fill="#F3F7F0"/>
<path d="M155.68 37C156.71 37.46 158.01 37.7499 157.98 39.1699C157.94 40.6599 157.05 41.5201 155.5 41.5801C154.33 41.6201 153.54 41.0299 153.67 39.8899C153.81 38.6499 153.99 37.24 155.69 37H155.68Z" fill="#E2E9E5"/>
<path d="M214.76 205.01C215.77 205.69 217.34 206.1 217.03 207.7C216.83 208.77 216 209.85 214.62 209.56C213.15 209.25 212.48 208.12 212.64 206.68C212.77 205.59 213.62 205.06 214.76 205.01Z" fill="#F5F8F2"/>
<path d="M128.94 170.88C129.08 172.28 128.25 173.09 127.06 173.21C125.33 173.38 125.04 171.89 124.84 170.63C124.65 169.4 125.02 168.33 126.52 168.27C128.28 168.21 128.27 169.88 128.94 170.88Z" fill="#E8EEED"/>
<path d="M174.01 382.42C172.65 382.08 172 381.23 172.08 379.89C172.16 378.53 173.03 377.62 174.26 377.61C175.67 377.6 176.17 378.83 176.08 380.06C175.99 381.28 175.39 382.26 174.01 382.41V382.42Z" fill="#F0F2ED"/>
<path d="M170.19 372.54C171.54 372.59 172.2 373.44 172.36 374.68C172.54 376.04 171.66 377.05 170.53 377.08C169.25 377.11 167.99 376.36 167.99 374.72C167.99 373.32 168.93 372.77 170.19 372.55V372.54Z" fill="#E8EAE6"/>
<path d="M176.57 134.49C177.77 134.89 178.84 135.64 178.77 136.88C178.69 138.16 178.08 139.6 176.45 139.62C174.88 139.64 174.72 138.15 174.72 137.08C174.72 135.96 175.15 134.77 176.57 134.49Z" fill="#DBE1DE"/>
<path d="M141.03 247.77C139.66 247.61 138.98 246.73 139.02 245.51C139.05 244.48 138.7 242.86 139.93 242.6C141.45 242.28 142.05 243.77 142.31 245.07C142.54 246.22 142.44 247.35 141.03 247.77Z" fill="#EFF1EF"/>
<path d="M110.61 369.17C110.36 370.53 109.45 370.9 108.43 370.7C107.23 370.46 106.28 369.67 106.62 368.3C106.87 367.26 107.36 365.61 108.61 366.11C109.56 366.5 110 368.16 110.61 369.17Z" fill="#DCE0E2"/>
<path d="M187.03 364.59C187.52 366.66 187.21 367.34 184.89 366.33C182.51 365.3 181.87 363.67 182.1 361.36C184.7 360.97 185.84 362.82 187.03 364.59Z" fill="#EDF2EF"/>
<path d="M98.2499 359.4C98.4599 361.38 97.6599 362.25 96.4999 362.49C94.7199 362.85 94.4299 361.31 94.1799 360.1C93.8699 358.59 95.0499 358.14 96.1999 357.99C97.6299 357.8 98.0899 358.82 98.2399 359.4H98.2499Z" fill="#E6E9E4"/>
<path d="M102.84 372.83C100.68 371.52 99.26 370.52 100.08 368.28C100.33 367.6 101.06 367.13 101.66 367.48C103.61 368.61 103.32 370.43 102.84 372.83Z" fill="#E8EDEB"/>
<path d="M115.2 375.57C115.18 374.84 115.16 374.11 115.13 373.38C115.93 372.1 116.76 370.76 118.47 372.18C119.05 372.66 119.87 373.88 119.79 373.96C118.53 375.18 116.89 375.49 115.19 375.57H115.2Z" fill="#DDE3DE"/>
<path d="M92.5 375.55C92.42 376.78 91.53 377.23 90.53 377.29C89.18 377.38 88.33 376.53 88.29 375.24C88.26 374.19 88.9201 373.33 90.1001 373.39C91.4001 373.46 92.06 374.41 92.5 375.55Z" fill="#DEE1E0"/>
<path d="M171.15 137.48C169.92 137.44 169.18 136.83 169.14 135.74C169.09 134.15 170.19 133.42 171.6 133.38C172.75 133.35 173.29 134.18 173.21 135.3C173.11 136.6 172.32 137.29 171.14 137.48H171.15Z" fill="#EAEFE9"/>
<path d="M123.25 46.7701C123.38 45.7101 124.09 45.1602 124.91 45.3602C126.59 45.7602 127.87 46.88 128 48.66C128.08 49.66 126.96 49.8002 126.17 49.6202C124.62 49.2702 123.66 48.2501 123.25 46.7701Z" fill="#EFF0EF"/>
<path d="M129.62 384.42C128.27 384.29 127.74 383.25 127.76 382.06C127.77 381.05 128.33 380.08 129.55 380.13C131 380.19 131.42 381.3 131.44 382.52C131.46 383.6 131 384.43 129.62 384.42Z" fill="#E7ECE8"/>
<path d="M126.27 149.09C126.61 150.95 129.38 151.86 128.22 154.02C127.83 154.75 126.76 154.6 126.04 154.09C123.79 152.51 125.05 150.84 126.27 149.08V149.09Z" fill="#DDE5E2"/>
<path d="M137.2 253.05C137.21 254.35 136.56 255.28 135.53 255.29C134.02 255.31 133.22 254.16 133.03 252.71C132.91 251.79 133.21 251.06 134.34 251.16C135.67 251.28 137.05 251.38 137.21 253.04L137.2 253.05Z" fill="#E7EBE9"/>
<path d="M143.14 264.58C143.09 265.81 142.2 266.3 141.22 266.34C139.63 266.4 138.88 265.38 138.91 263.87C138.93 262.78 139.68 261.88 140.67 261.91C142.19 261.94 142.69 263.31 143.14 264.59V264.58Z" fill="#DEE1DA"/>
<path d="M148.1 256.08C147.92 257.7 147.03 258.34 145.83 258.55C144.68 258.75 143.84 258.17 143.8 257.01C143.77 256 144.28 255.05 145.35 254.75C146.73 254.37 147.29 255.56 148.1 256.09V256.08Z" fill="#DCE0DC"/>
<path d="M187.03 364.59C185.39 363.51 183.74 362.44 182.1 361.36C181.77 359.77 182.64 358.94 183.96 358.38C183.52 360.98 186.66 361.15 187.18 363.1C187.13 363.6 187.08 364.09 187.03 364.59Z" fill="#536062"/>
<path d="M149.63 246.56C151.31 247.92 152.52 249.18 151.31 251.21C150.93 251.85 150.21 251.94 149.62 251.52C147.58 250.1 148.33 248.51 149.63 246.56Z" fill="#CBCFCC"/>
<path d="M130 42.29C131.37 42.18 131.62 43.3399 131.97 44.1699C132.43 45.2599 131.89 46.2999 130.8 46.4799C129.62 46.6799 129.19 45.5701 128.84 44.6001C128.42 43.4101 128.99 42.74 130 42.29Z" fill="#D7DEDE"/>
<path d="M152.86 56.29C152.98 56.58 153.04 56.9199 153.23 57.1599C154.01 58.2199 156.16 58.8299 154.68 60.6499C153.81 61.7199 152.96 60.65 152.23 60.04C150.21 58.36 151.49 57.3501 152.97 56.3701L152.87 56.28L152.86 56.29Z" fill="#D0D7D1"/>
<path d="M120.67 153.04C120.32 153.93 119.75 154.77 118.86 154.42C117.77 154 117.13 152.97 117.2 151.69C117.25 150.92 117.72 150.4 118.48 150.6C119.7 150.93 120.21 152.01 120.67 153.03V153.04Z" fill="#D5DEDD"/>
<path d="M106.67 381.81C106.2 383.21 105.19 383.8 104.08 384C103.03 384.19 102.75 383.26 102.82 382.44C102.94 381.04 104.11 380.66 105.22 380.51C106.17 380.38 106.52 381.15 106.66 381.81H106.67Z" fill="#CCD6D5"/>
<path d="M101.11 23.27C103.91 28.06 105.95 33.15 107.19 38.55C103.72 34.03 102.09 28.78 101.11 23.27Z" fill="#092038"/>
</svg>
