<svg width="215" height="422" viewBox="0 0 215 422" fill="none" xmlns="http://www.w3.org/2000/svg">
<path d="M96.5101 225.88C95.2401 223.43 96.5101 220.98 96.6401 218.56C97.8601 194.63 96.3801 170.73 96.0301 146.83C95.8301 133.22 95.17 119.61 95.62 106C105.44 100.11 114.13 92.73 123.03 85.61C125.2 83.87 126.72 81.26 129.62 80.45C130.72 80.45 131.55 80.95 132.17 81.84C132.87 83.26 132.89 84.67 132.07 86.07C129.17 91.03 126.98 96.35 124.41 101.47C123.05 104.17 120.2 105.1 118.8 107.52C114.04 113.99 107.41 118.28 101.16 123.03C107.37 118.34 113.95 114.08 118.68 107.67C119.36 106.76 120.02 105.31 121.31 105.94C122.72 106.62 121.75 108.03 121.44 109.05C119.49 115.4 117.34 121.68 114.99 127.89C119.69 115.91 122.41 103.17 129.03 91.94C130.12 90.1 130.6 87.89 132.36 86.45C135.28 85.76 135.55 88.07 136.27 89.88C136.47 90.32 136.61 90.78 136.71 91.25C137.34 94.46 135.76 98.34 139.54 100.62C140.24 101.48 140.52 102.47 140.51 103.56C140.25 120.17 137.07 136.27 132.05 152.04C130.33 155.32 126.72 154.2 124.08 155.34C118.31 157.85 116.07 163.81 119.35 168.81C122.11 173.02 126.2 174.38 130.01 172.37C135.22 169.62 137.08 164.36 135.24 159.38C134.32 156.91 130.79 156.03 131.56 152.76C132.62 151.09 133.27 149.27 133.79 147.38C134.22 145.79 134.97 144.53 136.77 146.22C141.58 155.99 139.46 165.93 137.51 175.86C136.13 182.87 133.9 189.64 131.78 196.44C132.05 198.88 130.5 200.82 129.97 203.06C128.85 207.83 130.19 211.71 133.78 213.76C138.02 216.17 141.76 215.79 145.12 212.61C148.21 209.69 149.11 204.93 147.27 201.26C145.07 196.89 141.99 195.59 136.5 196.76C136.02 196.86 135.56 197.07 135.07 197.18C131.1 197.7 132.06 195.33 132.77 193.19C135.77 184.21 138.22 175.1 139.25 165.67C139.99 158.89 140.24 152.08 136.53 145.87C135.17 144.51 135.41 142.78 135.63 141.17C136.6 134 137.77 126.86 139.38 119.53C141.92 120.62 141.62 122.75 141.88 124.32C144.6 140.78 164.26 154.18 183.39 140.91C185.16 139.68 187.24 138.96 188.98 137.68C189.33 137.33 189.72 137.03 190.14 136.77C191.49 136.13 192.68 135.26 193.7 134.17C195.04 132.74 196.9 131.39 196.13 129.15C195.31 126.76 193.14 125.69 190.77 125.41C188.83 125.18 186.8 125.03 184.91 125.83C179.22 128.23 173.96 126.78 168.82 124.12C168.39 123.91 168 123.65 167.63 123.36C159.09 113.96 153.34 102.81 147.83 91.5C153.48 103.15 159.41 114.63 168.37 124.17C170.04 126.02 172.02 127.61 173.08 129.95C174.76 133.31 177.93 135.37 180.28 138.15C182.43 140.68 182.27 142.36 178.95 143.75C162.38 150.7 145.97 141.94 141.81 124.48C140.08 117.2 140.77 110.06 140.6 102.85C141.2 98.45 141.46 94.04 140.41 89.67C140.09 88.48 139.78 87.29 139.57 86.07C139.62 83.84 139.57 81.44 142.95 83.26C143.22 83.4 143.39 83.63 143.74 83.46C143.44 83.26 143.27 82.98 143.31 82.64C143.65 80.14 145.18 79.01 147.61 78.91C152.74 80.14 156.87 83.31 161.2 86.03C175.24 94.86 188.56 104.75 202.35 113.99C204.46 116.3 204.39 119.19 204.41 122.01C204.48 132.33 204.49 142.66 204.42 152.98C204.33 166.15 205.3 179.24 207.01 192.28C207.31 194.6 207.49 196.92 207.11 199.24C206.63 202.15 204.43 203.67 202.23 205.2C193.9 211.03 184.61 215.19 175.91 220.37C171.78 222.83 167.56 225.16 164.51 229.08C157.7 237.81 157.45 245.32 164.41 253.94C172.86 264.41 182.08 274.21 191.91 283.41C193 284.43 194.3 285.23 195 286.61C195.82 289.47 193.75 290.84 192.01 292.36C182.48 300.66 172.82 308.8 164.02 317.91C159.96 322.11 156.26 326.58 152.51 331.03C150.99 332.83 149.47 334.58 147.03 335.13C133.63 334.48 120.77 331.31 108.39 326.34C100.87 323.32 93.06 320.73 86.6 315.51C85.42 313.4 82.5101 311.2 86.9101 309.38C110.76 311.3 134.72 311.98 157.62 315.95C158.5 315.45 158.32 315.76 158.01 315.71C134.39 312.21 110.54 311.25 86.7901 309.23C85.9601 308.62 85.9201 307.82 86.2701 306.95C92.1501 304.56 98.43 303.83 104.58 302.64C120.21 299.61 135.62 295.41 151.49 293.58C153.96 293.29 156.38 293.5 158.05 293.4C150.7 292.88 142.77 294.54 134.97 296.2C118.93 299.62 102.84 302.85 86.8001 306.25C84.3901 303.41 86.5 301.8 88.44 300.15C96.01 294.78 104.97 292.58 113.45 289.26C118.71 287.2 123.65 284.6 128.51 281.66C137.83 276.03 140.73 262.11 131.4 251.26C124.49 243.21 115.49 238.38 106.22 233.82C102.41 231.94 98.0801 230.58 96.5101 225.9V225.88Z" fill="#0A3F56"/>
<path d="M109.61 30.88C108.11 30.88 106.61 30.9 105.12 30.9C94.27 30.95 94.14 30.96 92.71 20.27C92.2 16.48 91.54 12.75 90.77 9.01C89.74 3.97 91.03 2.27998 96.15 1.95998C115.58 0.739978 135.03 0.689995 154.49 1.04C156.2 2.57 155.98 4.62997 155.99 6.60997C156.02 12.59 156.21 18.58 155.96 24.54C155.8 28.36 157.42 29.52 160.95 29.37C163.46 29.26 166.66 28.12 167.36 32.25C163.62 34.89 159.32 33.95 155.3 33.77C146.53 33.38 137.79 34.17 129.03 33.87C126.72 33.79 124.39 33.92 122.12 33.31C119.67 32.39 117.11 32.31 114.53 32.34C112.75 32.36 110.96 32.34 109.62 30.87L109.61 30.88Z" fill="#F8DDBF"/>
<path d="M85.36 256.85C91.29 247.63 93.52 237.07 96.32 226.71C102.9 230.56 104.71 236.48 105.15 243.84C106.17 261.06 99.37 275.62 91.01 289.81C89.66 292.1 88.4401 294.48 86.7901 296.59C85.6401 298.06 84.5501 299.57 82.3101 298.94C81.8801 298.53 81.58 298.05 81.38 297.5C80.5 291.47 82.23 285.67 83.2 279.87C84.48 272.23 83.89 264.45 85.36 256.86V256.85Z" fill="#093951"/>
<path d="M167.56 31.9C165.04 29.99 162.09 30.83 159.42 30.99C155.31 31.24 154.37 29.57 154.46 25.81C154.67 17.56 154.5 9.30001 154.49 1.04001C163.17 1.03001 171.85 1.02 180.53 1C182.41 2.81 182.38 5.19001 182.36 7.51001C182.3 13.98 181.88 20.44 181.99 26.92C182.03 28.96 181.8 31.31 179.19 31.42C176.23 31.54 175.87 28.97 175.93 26.81C176.11 21 175.91 15.19 176.02 10.43C176.01 14.23 176.16 19.07 175.97 23.91C175.82 27.85 175.11 31.63 170.43 32.85C169.64 33.18 168.82 33.34 167.96 33.2C167.34 32.92 167.2 32.49 167.55 31.9H167.56Z" fill="#FBEAD8"/>
<path d="M95.55 37.72C94.96 31.61 94.96 31.65 101.13 31.71C103.91 31.74 106.69 31.5901 109.47 31.5301C117.75 29.5201 122.49 33.85 126.05 40.61C129.83 47.77 131.7 55.35 131.67 63.43C131.39 64.2 130.94 64.82 130.19 65.19C126.61 65.19 124.77 62.28 122.33 60.41C114.72 54.53 107.12 48.63 99.7399 42.47C98.1399 41.14 96.03 40.11 95.54 37.74L95.55 37.72Z" fill="#0A3B56"/>
<path d="M95.63 61.97C95.54 54.64 95.45 47.31 95.36 39.98C96.92 39.01 97.91 40.27 98.84 41.05C108.81 49.34 118.91 57.47 129.27 65.27C129.69 65.59 129.85 66.05 129.89 66.56C128.98 69.95 126.29 70.3 123.43 70.34C114.78 69.86 106.74 66.78 98.51 64.51C97.15 64.14 96.25 63.2 95.63 61.97Z" fill="#0B3B54"/>
<path d="M204.47 0.929993C205.53 2.33999 207.78 1.41 208.71 3.09C209.9 5.16 210.57 7.26 209.18 9.5C207.12 11.3 206.48 8.79 205.21 8.16C205.14 16.02 205.59 23.9 203.22 31.56C199.96 32.92 196.68 33.42 193.32 31.93C192.85 24.35 192.83 16.77 193.27 11.05C192.23 14.64 193.49 20.23 192.97 25.71C192.78 27.72 194.36 31.26 190.86 31.27C187.44 31.27 188.1 27.76 188.06 25.38C187.98 20.07 188.03 14.75 188.03 9.44C188.03 15.3 188.07 21.15 188.01 27.01C187.99 29.07 187.74 31.37 185.12 31.45C182.47 31.53 182.09 29.27 182.07 27.19C181.99 18.43 181.91 9.66 183.63 1C190.58 0.98 197.53 0.960002 204.48 0.940002L204.47 0.929993Z" fill="#FBEDDC"/>
<path d="M183.61 0.98999C185.23 4.84999 184.85 8.95999 184.17 12.8C183.32 17.64 183.77 22.43 183.59 27.23C183.54 28.46 183.15 30.37 184.98 30.44C186.89 30.51 186.48 28.6 186.49 27.37C186.54 20.71 186.43 14.04 186.6 7.38C186.64 5.65 185.43 2.41999 188.12 2.51999C190.6 2.60999 189.4 5.81999 189.44 7.60999C189.59 13.77 189.44 19.94 189.51 26.1C189.53 27.62 188.76 29.48 191.45 31.02C191.69 21.26 190.96 11.84 193.85 2.67001C195.28 12.23 194.89 21.8 193.54 31.38C193.39 31.67 193.3 32.16 193.09 32.23C184.84 34.67 176.62 35.29 168.46 31.83C173.92 31.21 174.3 27.03 174.44 22.94C174.63 17.3 174.47 11.66 174.56 6.01001C174.58 4.65001 173.92 2.41999 175.96 2.35999C178.09 2.28999 177.48 4.54 177.49 5.88C177.55 13.02 177.49 20.15 177.53 27.29C177.53 28.53 177.12 30.42 178.95 30.46C180.81 30.51 180.46 28.62 180.47 27.38C180.51 18.58 180.5 9.78999 180.51 0.98999C181.54 0.98999 182.57 0.980001 183.6 0.970001L183.61 0.98999Z" fill="#F7D8B7"/>
<path d="M83.0101 298.84C96.0701 280.28 107.11 261.15 102.81 236.95C102 232.37 98.6 230.03 96.32 226.71C96.45 226.45 96.5101 226.17 96.5101 225.88C101.39 230.62 107.86 232.65 113.62 235.87C120.47 239.7 127.21 243.65 132.29 249.82C142.66 262.42 140.57 275.72 126.91 284.54C120.13 288.92 112.43 291.1 104.97 293.85C99.67 295.81 94.46 297.9 89.58 300.78C88.5 301.31 88.35 300.58 88.25 299.8C89.72 296.62 92.8701 295.71 95.6701 294.32C103.44 290.46 112.08 288.86 119.86 285C124.4 282.74 127.23 282.13 120.72 277.96C115.43 274.57 112.23 269.15 109.38 263.65C108.62 262.19 107.87 260.1 109.6 259.15C111.46 258.13 112.55 260.19 113.32 261.52C116.28 266.62 119.96 271.08 124.45 274.87C129.36 279.01 132.18 278.14 134.32 272.03C137.28 263.58 134.21 256.77 128.58 250.65C127 248.93 125.15 247.5 123.22 246.19C117.86 242.55 112.45 239 105.96 235.87C107.48 243.83 107.55 251.34 105.99 258.8C102.9 273.59 95.71 286.43 87.08 298.58C86.13 299.91 84.9701 301.21 83.0301 301.1C82.1601 300.35 81.4601 299.6 83.0101 298.84Z" fill="#E6E094"/>
<path d="M88.72 300.03C89 300.28 89.2899 300.54 89.5699 300.79C88.7199 302.49 85.13 302.79 86.98 305.87C86.22 306.37 86.68 306.59 87.2 306.78C86.64 307.48 86.59 308.2 87.08 308.96C87.17 309.25 87.13 309.52 86.98 309.78C83.87 312.29 87.14 313.4 88.13 315.01C87.84 315.61 87.38 316.02 86.77 316.27C85.65 316.65 84.4099 315.98 83.3199 316.67C82.8299 316.97 82.33 317.26 81.83 317.54C81.16 317.94 80.46 318.28 79.74 318.57C79.38 318.72 79 318.84 78.62 318.93C78.05 319.08 77.47 319.18 76.89 319.27C76.11 319.45 75.33 319.65 74.51 319.64C74.09 319.61 73.69 319.51 73.3 319.36C72.74 319.07 72.2599 318.68 71.8199 318.23C71.2399 317.65 70.66 317.06 70.08 316.47C69.64 316.02 69.3001 315.5 69.0601 314.92C68.8001 314.16 68.67 313.36 68.4 312.6C68.16 312.05 67.9301 311.51 67.6801 310.96C67.3301 310.21 67.0499 309.45 66.9399 308.62C66.8299 307.56 67.15 306.53 67.15 305.47C67.17 304.81 67.22 304.16 67.35 303.51C67.44 303.06 67.58 302.64 67.75 302.22C69.32 299.44 67.0301 298.51 65.4301 297.11C62.9201 294.93 58.99 294.11 58.42 290.02C58.74 289.81 59.06 289.61 59.38 289.4C62.05 288.4 63.6799 290.47 65.6899 291.48C68.4799 292.89 70.2 295.94 73.5 296.53C74.13 296.53 74.77 296.53 75.4 296.53C76.01 296.5 76.63 296.51 77.24 296.56C77.64 296.57 78.03 296.63 78.41 296.71C79.15 296.86 79.89 297.04 80.64 297.2C81.2 297.24 81.74 297.36 82.24 297.63C82.5 298.03 82.77 298.43 83.04 298.84C82.58 299.63 82.45 300.29 83.65 300.44C85.44 301.32 86.92 298.47 88.76 300.02L88.72 300.03Z" fill="#F5A31E"/>
<path d="M77.51 297.26C76.85 297.83 76.2199 297.54 75.5899 297.21C69.9399 292.6 67.26 286.66 67.53 279.37C73.78 273.55 78.4599 266.44 83.5699 259.68C85.6599 259.86 85.18 261.67 85.14 262.72C84.74 274.66 83.39 286.49 80.51 298.11C79.74 298.45 79.16 298.14 78.65 297.56C77.1 292.3 79.1599 287.51 79.8399 282.96C78.1899 287.22 78.72 292.42 77.51 297.26Z" fill="#093249"/>
<path d="M95.48 104.91C95.53 99.87 95.57 94.83 95.62 89.78C96.32 88.33 97.56 87.7 99.08 87.3C107.5 85.07 115.54 81.75 123.66 78.67C125.21 78.08 126.75 77.45 128.38 78.41C129.03 78.96 129.21 79.66 129.02 80.47C119.51 89.79 109.3 98.21 97.77 104.94C97.02 105.38 96.24 105.58 95.49 104.91H95.48Z" fill="#0C3B55"/>
<path d="M67.5699 308.43C68.4799 309.13 68.73 309.94 68.01 310.92C67.04 313.28 64.69 313.47 62.73 314.18C54.48 317.16 45.98 319.27 37.51 321.5C35.57 322.01 33.21 323.2 32.5 319.81C33.59 318.51 34.68 317.22 35.76 315.92C39.06 312.15 42.35 308.39 45.65 304.62C53.3 303.91 60.72 304.58 67.58 308.43H67.5699Z" fill="#09324D"/>
<path d="M95.65 87.95C95.66 83.61 95.6799 79.27 95.6899 74.93C96.5099 74.04 97.53 73.54 98.73 73.51C107.58 73.34 116.46 72.8 125.07 75.65C125.9 75.99 126.54 76.52 126.76 77.44C119.12 81.98 110.5 84.05 102.23 86.95C100.17 87.67 98.07 89.15 95.66 87.94L95.65 87.95Z" fill="#0D334E"/>
<path d="M95.8101 73.82C95.7901 70.56 95.78 67.2901 95.76 64.0301C97.98 62.8001 99.88 64.36 101.76 64.93C109.73 67.37 117.96 68.74 125.97 70.97C126.52 72.16 126.44 73.27 125.58 74.3C124.13 75.55 122.4 75.15 120.85 74.85C112.54 73.27 104.15 74.15 95.8 73.82H95.8101Z" fill="#103244"/>
<path d="M58.39 290.03C61.8 292.58 65.13 295.26 68.64 297.65C71.71 299.74 71.39 301.27 68.25 302.74C62.5 304.26 53.61 301.86 51.16 298.14C53.57 295.43 55.98 292.73 58.39 290.02V290.03Z" fill="#0A2542"/>
<path d="M73.83 297.41C72.85 300.18 71.74 297.76 71.05 297.31C67.09 294.77 63.87 291.15 59.35 289.41C60.64 286.19 63.72 284.43 65.65 281.74C65.99 281.69 66.4701 281.65 66.5601 281.86C68.8801 287.09 72.4599 291.73 73.8199 297.4L73.83 297.41Z" fill="#0E2D48"/>
<path d="M129.09 65.79C118.42 59.02 109.1 50.51 99.2901 42.63C98.0801 41.66 97.28 39.94 95.35 39.98C94.61 39.16 94.8301 38.42 95.5501 37.72C106.85 46.68 118.16 55.64 129.46 64.59C129.94 65.17 129.81 65.57 129.09 65.78V65.79Z" fill="#DFCE6E"/>
<path d="M130.67 63.43C129.45 54.41 127.76 45.65 122.6 37.73C119.27 32.61 115.1 30.95 109.48 31.52C109.51 31.3 109.56 31.09 109.62 30.88C113.58 31.23 117.63 30.15 121.51 31.69C129.41 39.37 131.9 49.36 133.42 59.75C133.68 61.53 134.14 63.36 132.74 64.94C131.39 65.34 130.82 64.67 130.67 63.43Z" fill="#DAD388"/>
<path d="M80.5 298.11C81.8 286.98 83.1601 275.86 84.3101 264.71C84.4701 263.11 85.3601 261.11 83.5601 259.68C84.1601 258.73 84.76 257.79 85.36 256.84C87.42 268 84.39 278.83 83.21 289.78C82.93 292.4 82.55 295.01 82.21 297.63C81.71 298.03 81.34 298.9 80.51 298.1L80.5 298.11Z" fill="#E1D88B"/>
<path d="M95.48 104.91C105.12 100.63 112.65 93.38 120.79 86.98C123.38 84.95 126 82.96 128.61 80.96C129.16 80.56 129.5 80.7 129.63 81.36C121.32 89.12 112.58 96.37 103.23 102.85C100.97 104.41 98.65 106.16 95.62 106C95.58 105.64 95.53 105.28 95.49 104.92L95.48 104.91Z" fill="#E1D86F"/>
<path d="M95.8101 73.82C102.46 71.91 109.21 72.96 115.92 73.2C119.05 73.31 122.17 73.7 125.29 73.97C126.35 74.63 126.28 75.48 125.7 76.42C115.74 75.08 105.74 74.49 95.6899 74.94C95.7299 74.57 95.7701 74.2 95.8101 73.82Z" fill="#E9CD76"/>
<path d="M95.65 87.95C104.44 86.05 112.58 82.21 121.09 79.47C122.82 78.92 124.57 78.44 126.31 77.92C126.78 77.47 127.3 77.32 127.92 77.64C128.51 77.94 128.21 78.34 128.08 78.73C117.24 82.36 106.87 87.35 95.63 89.78C95.64 89.17 95.65 88.56 95.66 87.95H95.65Z" fill="#E0D570"/>
<path d="M68.52 304.19C68.48 304.74 68.43 305.29 68.39 305.84C61.02 307.39 54.01 306.62 47.49 302.64C48.01 302.04 48.5401 301.45 49.0601 300.85C55.7901 300.53 62.23 301.93 68.51 304.19H68.52Z" fill="#201C1A"/>
<path d="M125.05 70.9C114.91 70.21 105.46 66.6 95.77 64.03C95.72 63.34 95.68 62.65 95.63 61.97C104.8 65.08 114.15 67.52 123.65 69.4C124.19 69.83 126.45 68.67 125.05 70.91V70.9Z" fill="#E1CF6D"/>
<path d="M47.49 302.64C54.16 305.63 61.26 305.83 68.39 305.84C68.12 306.7 67.8399 307.56 67.5699 308.42C60.2599 307.15 52.95 305.88 45.64 304.61C46.26 303.95 46.87 303.29 47.49 302.63V302.64Z" fill="#E3C75F"/>
<path d="M68.52 304.19C62.04 303.07 55.5599 301.96 49.0699 300.85C49.7699 299.95 50.47 299.04 51.17 298.14C52.31 300.25 54.59 299.83 56.37 300.29C60.29 301.3 64.3 301.95 68.27 302.75C68.35 303.23 68.44 303.72 68.53 304.2L68.52 304.19Z" fill="#D1AB59"/>
<path d="M73.83 297.41C71.1 292.19 68.38 286.97 65.65 281.75C66.27 280.96 66.9 280.17 67.52 279.38C69.13 285.81 72.49 291.46 75.58 297.22C75.05 297.76 74.4499 297.68 73.8199 297.42L73.83 297.41Z" fill="#D8C970"/>
<path d="M205.66 200.9C210.02 217.5 215.7 233.93 214.41 251.46C213.31 266.36 206.17 278.1 194.41 287.14C181.82 276.9 170.9 265.03 161.28 252.03C155.89 244.74 156.53 237.22 161.88 229.84C164.97 225.58 169 222.48 173.55 219.9C184.37 213.77 195.74 208.55 205.66 200.9Z" fill="#FDE4C9"/>
<path d="M125.05 70.9001C125.22 69.8101 124.12 69.89 123.65 69.39C126.12 69.17 128.51 68.8401 129.1 65.7801C129.22 65.3801 129.35 64.9901 129.47 64.5901C130.36 64.7101 130.44 63.99 130.67 63.43C131.26 63.71 131.84 64 132.43 64.29C134.41 62.79 136.68 62.09 139.12 61.83C139.83 61.78 140.51 61.89 141.16 62.17C141.55 62.38 141.87 62.69 142.12 63.05C142.44 63.77 142.87 64.41 143.72 64.61C144.41 64.98 144.97 65.53 145.67 65.88C147.37 66.34 148.92 64.91 150.62 65.51C151.24 65.83 151.66 66.31 151.84 66.99C152.03 68.47 149.74 68.86 150.3 70.5C150.65 71.21 150.98 71.92 150.87 72.74C150.55 73.7 149.67 74.23 149.19 75.06C149.04 75.6 149.23 76.0901 149.44 76.5901C149.78 77.2901 150.04 78.01 149.83 78.81C149.4 79.65 148.5 79.55 147.79 79.82C143.67 79.69 144.36 82.8001 144.21 85.5301C142.8 84.7201 140.95 80.91 140.55 85.86C137.37 87.04 139.4 89.86 138.7 91.82C138.37 92.74 138.2 93.94 136.99 93.89C135.64 93.84 136.34 92.25 135.67 91.61C135.56 91.27 135.45 90.9301 135.35 90.5901C134.73 88.7001 135.45 86.34 133.34 84.99C132.55 84.26 132.42 83.12 131.69 82.35C131 82.02 130.32 81.68 129.63 81.35C129.29 81.22 128.95 81.08 128.61 80.95C128.43 80.21 128.26 79.47 128.08 78.74C127.76 77.88 127.01 77.97 126.31 77.93C126.1 77.43 125.9 76.92 125.7 76.42C125.57 75.6 125.44 74.79 125.3 73.97C126.07 72.88 125.58 71.89 125.05 70.91V70.9001Z" fill="#F6AA2A"/>
<path d="M171.57 129.67C170.18 128.11 168.78 126.55 167.39 124.99C166.97 123.83 166.69 122.75 168.58 122.9L168.47 122.83C173.65 125.81 178.72 128.99 185.01 125.29C186.85 124.21 189.27 124.77 191.39 124.96C194.07 125.2 196.03 126.88 196.98 129.29C197.89 131.58 195.9 132.89 194.56 134.3C193.31 135.62 192.02 136.92 190.46 137.9L190.56 137.82C183.3 142.15 183.27 142.18 177.51 136.32C175.43 134.2 172.96 132.4 171.57 129.66V129.67Z" fill="#0B3850"/>
<path d="M171.57 129.67C172.71 130.83 173.96 131.91 174.98 133.16C179.14 138.24 183.47 142.6 190.56 137.83C173.35 152.42 145.02 151.22 139.86 120.62C139.03 129.01 135.46 137.04 136.81 145.71C136.64 145.85 136.48 145.99 136.31 146.12C133.08 147.31 134.56 151.49 131.92 153.06C131.39 153.33 131.21 153.16 131.33 152.6C136.12 136.44 139.35 120.02 139.55 103.1C140.28 102.2 140.98 102.35 141.66 103.15C141.38 111.46 140.98 119.72 143.63 127.85C148.76 143.51 166.63 150.14 180.82 141.48C178.31 137.1 172.87 135 171.57 129.67Z" fill="#D8D28C"/>
<path d="M86.98 309.79L86.79 309.35L87.08 308.97C106.16 309.99 125.26 310.61 144.23 313.22C150.14 314.03 156.1 314.53 161.86 315.15C159.74 316.56 112.89 313.3 86.98 309.8V309.79Z" fill="#EBE691"/>
<path d="M87.21 306.78C86.55 306.62 85.94 306.45 86.99 305.87C102.37 302.5 117.76 299.15 133.14 295.77C142.54 293.7 151.98 292.02 161.69 293.08C136.43 295.33 112.09 302.52 87.22 306.79L87.21 306.78Z" fill="#E2DD8D"/>
<path d="M131.69 82.35C132.73 82.37 133.08 83.17 133.46 83.93C134.36 85.3 133.24 86.09 132.58 87.02C124.31 101.54 120.01 117.77 113.74 133.15C113.29 132.98 112.83 132.81 112.38 132.64C115.43 124.05 118.48 115.46 121.54 106.83C120.09 106.48 119.8 107.87 118.87 108.07C118.28 108.3 118.09 108.12 118.3 107.52C122.94 101.46 126.81 94.95 129.99 88.01C130.82 86.19 131.64 84.39 131.7 82.35H131.69Z" fill="#E5CB64"/>
<path d="M147.68 334.15C147.25 334.82 146.81 335.49 146.38 336.16C144.66 336.97 142.9 336.97 141.02 336.73C123.64 334.45 107.43 328.54 91.77 320.95C89.56 319.88 87.16 318.81 86.77 315.86C87.22 315.57 87.67 315.29 88.13 315.01C103.79 324 120.46 330.12 138.36 332.75C141.47 333.21 144.58 333.69 147.69 334.15H147.68Z" fill="#E8DF86"/>
<path d="M147.8 79.82C148.22 78.98 149.02 79.08 149.76 79.01C152.37 77.92 154.23 79.66 156.13 80.85C170.66 89.9 184.79 99.57 198.7 109.54C200.2 110.61 201.73 111.65 201.83 113.76C201.48 113.9 201.13 114.04 200.78 114.18C190.44 108.77 181.73 100.93 171.89 94.76C163.88 89.74 156.18 84.23 147.8 79.82Z" fill="#E1D681"/>
<path d="M131.92 153.06C138.31 159.68 139.28 164.07 135.57 169.52C132.78 173.61 127.83 175.95 124.06 174.58C119.5 172.92 116.64 169.7 116.3 164.64C115.95 159.44 118.72 156.25 123.11 154.12C125.71 152.87 128.57 152.95 131.34 152.6C131.48 152.82 131.68 152.98 131.93 153.06H131.92Z" fill="#E4E095"/>
<path d="M155.8 207.4C159.86 205.1 164.18 203.43 167.81 200.56C170.16 198.71 172.57 196.88 174.1 194.25C175.76 191.39 176.91 188.22 173.85 185.73C170.82 183.27 167.51 184.06 164.85 186.61C161.68 189.64 159.76 193.48 158.37 197.64C157.98 198.81 158.21 200.32 156.92 201.19C156.27 194.61 161.84 185.14 167.54 183.13C170.44 182.1 173.1 182.55 175.36 184.72C177.67 186.94 177.99 189.44 176.82 192.44C174.2 199.19 162.55 207.83 155.8 207.4Z" fill="#D8D492"/>
<path d="M135.18 195.69C141.17 193.64 144.94 194.75 148.08 199.5C150.97 203.87 150.49 209.34 146.88 213.21C143.32 217.03 138.21 217.99 133.72 215.69C129.14 213.34 127.07 208.46 128.53 202.99C129.08 200.93 130.02 198.97 130.78 196.96C132.35 196.8 133 197.69 133.23 199.08C133.23 200.45 132.53 201.63 132.12 202.89C130.66 207.4 132.24 211.35 136.08 212.84C139.92 214.33 144.48 212.34 146.02 208.5C147.57 204.63 145.47 199.98 141.39 198.2C139.7 197.46 137.78 197.57 136.1 196.77C135.68 196.51 135.37 196.16 135.16 195.71L135.18 195.69Z" fill="#E6E49C"/>
<path d="M135.18 195.69L136.79 196.04C136.27 198.35 134.9 199.4 132.51 198.91C131.93 198.26 131.36 197.61 130.78 196.96C133.82 186.98 137 177.02 138.36 166.64C139.27 159.69 139.44 152.73 136.32 146.13C136.43 145.93 136.6 145.79 136.81 145.72C142.56 153.91 140.64 162.83 139.18 171.66C137.8 180 135.4 188.1 132.55 196.22C133.6 196.01 134.39 195.85 135.18 195.7V195.69Z" fill="#C5C17E"/>
<path d="M135.68 91.6C136.13 92.19 136.58 92.79 137.33 93.78C137.79 91.56 137.46 89.74 136.99 87.93C136.71 86.84 136.19 85.64 137.27 84.79C138.77 83.62 139.42 85.62 140.57 85.86C141.7 86.42 141.77 87.41 141.63 88.49C142.47 91.68 141.74 94.93 142.05 98.14C142.36 101.35 140.74 101.65 138.26 100.93C132.47 99.19 136.56 94.71 135.67 91.61L135.68 91.6Z" fill="#323F29"/>
<path d="M190.47 137.91C191.1 135.84 193.28 135.3 194.53 133.79C197.47 130.22 196.78 127.19 192.34 126.09C189.6 125.41 186.74 125.47 184.03 126.61C178.01 129.15 173.21 127.98 168.48 122.84C174.5 125.25 180.57 126.96 186.91 123.9C187.19 123.77 187.56 123.85 187.89 123.82C192.42 123.38 196.18 124.68 198.04 129.09C199.17 131.76 195.14 136.23 190.47 137.91Z" fill="#D8D28C"/>
<path d="M168.59 122.9C168.19 123.6 167.8 124.29 167.4 124.99C158.24 113.94 151.4 101.52 146.02 88.22C153.79 99.62 158.59 112.99 168.59 122.91V122.9Z" fill="#DEDA8F"/>
<path d="M118.86 108.06C113.03 115.79 105.89 121.84 96.76 125.36C104.5 120.09 111.58 114.02 118.28 107.51C118.46 107.71 118.65 107.89 118.86 108.06Z" fill="#D9D383"/>
<path d="M138.26 100.92C138.63 100.16 137.88 98.48 139.14 98.65C141.44 98.96 141.42 99.21 141.47 96.95C141.53 94.13 141.57 91.31 141.62 88.49C143.29 93.37 142.99 98.26 141.66 103.16C140.96 103.14 140.25 103.12 139.55 103.11C139.12 102.39 138.69 101.66 138.26 100.93V100.92Z" fill="#A89E5D"/>
<path d="M132.58 87.01C132.88 85.98 133.17 84.95 133.47 83.92C137.33 85.22 134.88 88.32 135.36 90.58C133.82 89.87 135.26 86.83 132.58 87V87.01Z" fill="#323F29"/>
<path d="M82.53 413.92C64.99 420.53 47.3099 425.53 28.5699 418.78C14.9199 411.63 6.43001 400.28 1.52001 385.89C-1.49999 377.04 0.549952 368.62 3.08995 360.2C3.30995 359.48 4.62993 359.09 5.43993 358.54C7.73993 356.93 9.91 358.17 12.01 358.96C19.28 361.69 26.33 364.92 33.26 368.41C33.7 368.62 34.11 368.88 34.49 369.18C42.6 374.01 50.39 379.28 57.56 385.47C60.27 387.81 62.1599 391.23 65.9399 392.26C66.3999 392.4 66.79 392.64 67.13 392.98C70.28 399.53 76.7 403.36 80.62 409.27C81.56 410.69 83.49 411.72 82.52 413.92H82.53Z" fill="#FBE5CA"/>
<path d="M33.4399 369.86C25.9799 366.65 18.5501 363.39 11.0601 360.25C9.27006 359.5 7.32996 359.1 5.44996 358.54C3.26996 355.76 6.77006 356.68 7.31006 355.67C8.31006 354.29 9.74999 353.56 11.24 352.81C30.71 343.05 49.5 332.21 66.08 317.91C67.37 316.8 68.79 316 70.53 315.89C72.36 315.47 72.8101 316.44 72.6701 318C72.6301 322.37 69.21 325.04 67.27 328.42C59.66 341.71 51.21 354.42 40.45 365.44C38.44 367.5 36.2601 369.15 33.4301 369.84L33.4399 369.86Z" fill="#0A3D56"/>
<path d="M69.1501 311.82C70.4401 312.59 70.4901 313.63 69.8101 314.83C67.6001 318.87 63.6001 321.02 60.1301 323.62C44.9501 334.99 28.9801 345.13 11.7801 353.21C10.2801 353.92 8.77004 354.6 7.12004 354.93C4.97004 353.7 7.67004 352.86 7.37004 351.78C7.34004 349.43 8.44009 347.81 10.5501 346.84C10.9301 346.25 11.3001 345.67 11.6801 345.08C12.2101 342.76 12.6301 340.38 15.5301 339.79C17.2701 337.5 19 335.2 20.74 332.91C21.94 328.69 24.27 325.44 28.57 323.91C29.07 323.55 29.5601 323.19 30.0601 322.83C43.1501 319.38 56.1101 315.49 69.1501 311.82Z" fill="#093D56"/>
<path d="M7.12 354.93C26.57 345.18 45.29 334.23 62.48 320.81C64.96 318.87 67.3701 316.83 69.8101 314.83C70.0501 315.18 70.29 315.54 70.54 315.9C51.63 332.6 30.6699 346.02 7.31995 355.67C7.36995 355.39 7.32 355.15 7.13 354.93H7.12Z" fill="#DED98D"/>
<path d="M69.15 311.82C56.49 316.79 43.4899 320.55 30.0699 322.83C30.8799 321.82 31.69 320.81 32.5 319.8C33.8 321.89 35.36 320.46 36.78 320.05C47.2 317.03 57.61 313.96 68.02 310.91C68.4 311.21 68.78 311.52 69.16 311.82H69.15Z" fill="#DAD07D"/>
<path d="M139.41 62.59C137.22 63.74 135.02 64.8 132.43 64.3C131.5 56.71 130.35 49.17 127.3 42.1C125.84 38.71 123.61 35.79 120.72 33.44C118.67 31.77 120.53 31.95 121.51 31.7C136.86 31.77 152.22 31.83 167.57 31.9C167.69 32.12 167.73 32.36 167.7 32.61C168.74 35.17 166.87 36.69 165.64 38.44C163.3 40.71 162.16 43.8 160.3 46.4C156.96 50.03 154.28 54.14 151.35 58.08C149.35 60.77 147.34 63.73 143.71 64.63C143.15 64.35 141.39 66.88 141.99 63.89C141.71 55.2 144.41 46.97 145.67 39.5C145.62 43.32 143.28 47.67 142.99 52.44C142.09 55.93 141.5 59.52 139.43 62.59H139.41Z" fill="#09344D"/>
<path d="M164.55 37.34C166.11 36.1 166.86 34.33 167.68 32.61C167.94 32.35 168.2 32.09 168.47 31.83C176.83 31.68 185.19 31.53 193.55 31.38C196.84 31.19 200.13 31 203.42 30.8C204.15 30.27 204.86 30.27 205.55 30.87L204.57 52.79C198.14 57.5 190.3 58 182.94 59.74C173.57 61.96 164.05 63.53 154.78 66.19C153.5 66.56 152.16 66.69 150.86 66.13C148.67 65.87 146.76 69.34 144.39 66.62C146.93 61.09 151.85 57.28 154.93 52.1C156.4 49.63 158.05 47.07 160.73 45.56C164.8 49.9 169.03 48.61 173.55 46.2C179.23 43.17 184.87 40.1 190.27 36.59C184.05 40.61 177.66 44.36 170.86 47.32C168.44 48.38 165.83 49.98 163.12 47.17C160.37 44.31 162.24 42.03 163.44 39.56C163.8 38.82 164.27 38.13 164.52 37.33L164.55 37.34Z" fill="#093A53"/>
<path d="M160.51 15.84C160.51 19.66 160.51 23.49 160.5 27.31C160.5 28.33 160.32 29.5 159.06 29.53C157.79 29.56 157.6 28.4 157.56 27.38C157.22 20.1 156.87 12.82 156.6 5.54C156.55 4.12 156.27 2.23001 158.47 2.14001C160.7 2.06001 160.49 3.91999 160.51 5.36999C160.56 8.85999 160.53 12.35 160.52 15.84H160.51Z" fill="#F8DDBF"/>
<path d="M205.56 30.87C204.85 30.85 204.14 30.82 203.43 30.8C201.12 26.26 203.9 21.75 203.55 17.2C203.27 13.6 203.46 9.95999 203.54 6.33999C203.57 5.13999 203.12 3.33998 205.07 3.29998C206.67 3.26998 206.47 4.86 206.52 5.95C206.59 7.49 206.74 8.91998 208.26 9.76998C208.5 16.95 208.77 24.13 205.56 30.86V30.87Z" fill="#F9DAB6"/>
<path d="M88.72 300.03C86.98 299.74 85.69 304.84 83.61 300.45C98.34 280.5 110.07 259.66 103.52 232.69C113.49 238.29 123.49 242.76 130.95 251.09C137.75 258.69 139.01 268.44 134.29 275.91C131.49 280.35 129.84 280.75 125.46 277.77C119.99 274.05 115.89 269.07 112.61 263.36C111.75 261.85 111.41 259.97 108.67 258.23C112.96 269.01 119.1 276.56 128.84 281.33C123.79 285.76 117.78 287.73 111.86 289.83C103.89 292.66 95.72 295.01 88.72 300.03Z" fill="#093E53"/>
<path d="M82.5301 413.92C78.3101 408.47 73.73 403.34 68.82 398.52C67.19 396.92 66.11 395.29 66.73 392.94C65.59 386.65 68.41 380.94 69.49 375C71.78 362.49 74.04 350.07 74.36 337.24C74.52 330.97 73.8601 324.34 76.3101 318.19C77.0201 318.17 77.7201 318.15 78.4301 318.12C80.9201 325.89 80.78 334.1 82.5 342.01C84.83 352.76 88.15 362.84 97.22 370.01C100.66 372.73 104.72 374.28 107.21 375.65C92.08 370.26 85.02 357.33 82.44 340.98C81.26 333.53 79.59 326.15 79.7 318.54C80 317.46 80.49 316.63 81.83 316.9C83.5 316.73 84.14 317.99 84.74 319.14C94.37 337.34 108.31 350.38 128.54 355.96C129.33 356.18 129.88 356.91 130.65 357.24C130.62 357.4 130.64 357.6 130.56 357.73C118.36 377.2 107.44 397.71 87.71 411.14C86.09 412.24 84.6301 413.68 82.5401 413.92H82.5301Z" fill="#0A3F55"/>
<path d="M65.65 393.15C65.26 394.47 64.53 394.06 63.88 393.44C54.95 384.87 45.6199 376.83 34.5699 371.01C34.4799 370.96 34.67 370.4 34.73 370.07C50.03 356.51 60.08 338.98 70.91 322.05C71.59 320.98 71.86 319.49 73.48 319.27C73.91 319.25 74.35 319.24 74.78 319.22C76.67 325.94 75.1 332.71 74.98 339.45C74.67 356.97 70.4799 373.9 66.5799 390.85C66.3899 391.67 66.08 392.43 65.65 393.14V393.15Z" fill="#093E56"/>
<path d="M86.77 315.86C101.36 325.07 117.37 330.54 134.18 333.89C138.24 334.7 142.31 335.41 146.38 336.16C142.45 341.68 138.55 347.21 134.59 352.71C133.58 354.12 133.03 356.14 130.71 356.06C128.5 356.88 126.46 355.93 124.5 355.26C104.71 348.43 91.09 334.98 82.74 315.96C83.98 311.7 85.44 316.1 86.78 315.86H86.77Z" fill="#0A3D54"/>
<path d="M65.65 393.15C67.9 381.78 70.46 370.45 72.3 359.02C74.43 345.87 74.59 332.53 74.78 319.23C75.29 318.88 75.8001 318.53 76.3101 318.18C76.9601 343.59 73.69 368.5 66.73 392.93C66.37 393 66.01 393.07 65.65 393.15Z" fill="#D5D07F"/>
<path d="M79.7 318.54C81.28 326.17 82.02 333.93 83.27 341.61C86.15 359.37 95.23 371.5 112.7 376.85C113.16 376.99 113.62 377.23 114 377.53C114.23 377.71 114.3 378.09 114.79 379.1C105.46 377.09 98.02 372.87 92 366.21C84.25 357.63 82.34 346.77 80.63 335.91C79.7 330.01 79.1501 324.05 78.4301 318.12C78.8501 318.26 79.28 318.4 79.7 318.55V318.54Z" fill="#E0DA89"/>
<path d="M82.73 315.96C85.81 321.45 89.09 326.78 92.96 331.78C102.7 344.37 115.31 352.33 130.7 356.06C130.69 356.46 130.67 356.85 130.65 357.24C115.43 355.09 103.82 346.9 94.02 335.53C89.11 329.83 85.3799 323.44 81.8199 316.9C81.8199 316.3 82.12 315.98 82.72 315.96H82.73Z" fill="#E1DA80"/>
<path d="M73.48 319.27C63.17 335.34 54.08 352.3 40.15 365.77C38.49 367.37 37.03 369.27 34.73 370.07C34.3 370 33.8699 369.93 33.4399 369.86C45.2699 359.18 54.8599 346.76 62.8199 332.97C65.7999 327.81 69.3701 322.99 72.6801 318.01C72.9501 318.43 73.22 318.85 73.49 319.27H73.48Z" fill="#E0DB85"/>
<path d="M77.51 297.26C77.41 291.48 77.34 285.71 80.74 280.53C79.79 286.19 78.73 291.82 78.65 297.56C78.27 297.46 77.89 297.36 77.51 297.26Z" fill="#A3A986"/>
<path d="M148.09 74.92C147.83 72.7 149.88 73.31 150.88 72.64C151.75 71.28 153.02 70.68 154.6 70.5C166.38 69.13 178.12 66.83 190.03 67.54C194.68 67.82 199.5 67.22 204.04 68.92C203.88 71.2 203.71 73.49 203.55 75.77C200.5 79.58 199.3 84.28 197.6 88.21C199.46 85.46 199.07 80.91 202.8 78.64C204.17 84.26 202.96 89.96 203.39 95.61C200.18 98.72 197.52 95.98 195 94.55C188.68 90.97 182.83 86.55 175.96 83.95C168.64 80.97 161.07 78.8701 153.34 77.3401C151.39 76.9501 149.51 76.44 148.08 74.92H148.09Z" fill="#0D3851"/>
<path d="M201.83 113.76C184.9 101.54 168 89.26 149.75 79.01C149.42 78.31 148.33 77.89 148.93 76.84C154.92 76.22 160.51 78.23 166.16 79.63C169.33 80.41 172.44 81.57 175.45 82.91C185.19 86.72 193.37 93.3 202.54 98.12C204.32 103.43 203.12 108.6 201.82 113.76H201.83Z" fill="#0B3952"/>
<path d="M150 71C148.97 70.48 147.09 71.7 146.86 69.87C146.72 68.71 148.22 68.35 149.24 67.94C150.12 67.6 150.98 67.21 151.84 66.85C157.85 63.73 164.54 62.97 171.01 61.55C180.92 59.38 190.92 57.62 200.62 54.55C201.76 54.19 202.87 53.91 203.98 54.61C204.88 59.05 205.08 63.46 203.66 67.84C199.65 69.55 195.52 68.63 191.43 68.38C178.44 67.58 165.69 70 152.85 71.26C151.83 71.36 150.91 71.58 149.99 71H150Z" fill="#093450"/>
<path d="M203.99 54.61C186.83 59.65 169.14 62.41 151.85 66.85C151.53 66.61 151.2 66.38 150.88 66.14C161.52 61.82 172.93 60.6 183.98 57.9C190.86 56.22 197.72 54.49 204.59 52.79C204.39 53.4 204.19 54 203.99 54.61Z" fill="#DACF77"/>
<path d="M150 71C167.76 67.78 185.67 67.12 203.66 67.84C203.78 68.2 203.91 68.57 204.03 68.93C201.24 69.12 198.41 69.69 195.66 69.43C180.54 68.01 165.73 70.65 150.88 72.64C150.38 72.21 149.76 71.83 150.01 70.99L150 71Z" fill="#E6DE78"/>
<path d="M202.55 98.12C196.76 96.79 192.44 92.75 187.44 89.96C183.57 87.8 179.63 85.75 175.73 83.65C175.61 83.23 175.52 82.8 176.03 82.59C176.24 82.5 176.5 82.67 176.75 82.88C183.67 85.17 189.39 89.65 195.66 93.14C198.07 94.48 200.34 96.27 203.39 95.62C203.5 96.58 203.28 97.44 202.55 98.12Z" fill="#DED98E"/>
<path d="M202.8 78.65C200.87 82.76 198.94 86.86 197.01 90.97C198.2 85.47 198.59 79.63 203.55 75.79C204.84 77.14 202.77 77.62 202.81 78.65H202.8Z" fill="#D4D09A"/>
<path d="M141.28 52.38C143.05 45.85 144.81 39.33 146.58 32.8C147.2 32.95 147.83 33.09 148.45 33.24C144.92 43.22 145.7 53.95 141.97 63.89C141.77 63.36 141.57 62.83 141.37 62.3C139.98 60.64 140.94 58.97 141.2 57.22C141.43 55.65 143.12 53.99 141.27 52.37L141.28 52.38Z" fill="#CDBC60"/>
<path d="M176.75 82.88C176.41 83.14 176.07 83.39 175.73 83.65C167.08 80.29 158.06 78.34 148.93 76.85C147 76.09 146.93 75.92 148.08 74.93C157.87 76.77 167.7 78.42 176.75 82.89V82.88Z" fill="#DCCB69"/>
<path d="M160.54 45.88C155.19 52.82 150.74 60.45 144.41 66.63C143.54 66.19 143.58 65.43 143.69 64.64C149.75 59.01 153.4 51.39 159.34 45.66C159.8 45.43 160.2 45.5 160.54 45.88Z" fill="#D2BC58"/>
<path d="M141.28 52.38C144.55 55.66 140.83 59.01 141.37 62.31C140.76 62.68 140.17 63.2 139.41 62.59C138.52 58.91 141.16 55.88 141.28 52.38Z" fill="#2C200C"/>
<path d="M136.21 163.08C136.26 167.86 131.55 172.72 126.71 172.89C121.86 173.06 117.55 168.65 117.67 163.64C117.79 158.94 122.6 154.84 127.98 154.84C132.45 154.84 136.17 158.56 136.21 163.08Z" fill="#0B384E"/>
<path d="M132.5 198.9C133.93 197.94 135.36 196.99 136.78 196.03C143.91 195.92 148.81 200.34 148.36 206.48C147.97 211.84 142.67 215.76 136.98 214.91C129.9 213.85 127.82 206.41 132.5 198.9Z" fill="#0A3A51"/>
<path d="M160.54 45.88C160.14 45.81 159.74 45.73 159.34 45.66C161 42.83 161.99 39.59 164.56 37.34C164.94 38.59 164.39 39.59 163.75 40.59C162.53 42.51 161.72 44.37 163.66 46.45C165.6 48.53 167.57 47.62 169.59 46.84C176.6 44.12 182.94 40.13 189.38 36.35C190.78 35.53 192.19 34.71 193.81 34.27C185.71 40.84 176.96 46.26 166.94 49.5C163.46 50.63 162.63 47.15 160.54 45.87V45.88Z" fill="#DFD380"/>
</svg>
