<svg width="272" height="467" viewBox="0 0 272 467" fill="none" xmlns="http://www.w3.org/2000/svg">
<path d="M20.5701 389.4C32.3201 378.36 44.19 367.44 55.78 356.24C75.32 337.37 91.64 316.19 102.25 290.91C105.34 283.54 107.01 275.78 109.66 268.3C110.56 268.48 111.37 267.86 112.27 267.98C115.8 268.77 119.31 269.27 122.74 267.14C120.94 262.82 115.49 268.17 114.09 263.53C112.98 258.18 111.84 252.82 116 248.11C118.58 245.96 122.17 246.06 125.03 244.47C123.34 240.64 119.55 243.51 117.47 241.52C116.61 238.75 117.86 237.45 120.51 237.11C127.99 236.95 135.47 237.05 142.94 237.05C145.48 237.05 147.93 236.94 149.99 235.2C153.89 232.89 158.37 233.51 162.58 232.83C186.99 228.89 210.36 222 231.8 209.34C232.8 208.75 233.85 208.26 234.99 207.98C241.38 207.29 245.42 211.36 244.93 217.97C239.75 223.87 232.45 227.23 227 232.85C216.58 243.6 208.22 255.35 208.59 271.2C208.87 283.17 213.61 293.37 221.51 302.23C227.75 309.22 235.32 314.61 242.83 320.07C243.45 321.32 242.99 322.45 242.11 323.23C238.03 326.83 234.32 330.91 229.28 333.29C226.16 332.66 225.14 334.23 225.36 337.07C223.8 341.08 221.11 343.94 216.96 345.31C212.22 344.83 211.36 345.48 211.19 349.71C210.27 354.46 206.47 357.28 203.5 360.47C194.21 370.47 185.48 380.95 176.41 391.13C174.93 392.8 173.83 395.2 170.89 394.59C169.91 393.94 170.25 392.98 170.31 392.09C170.11 392.34 169.84 392.54 169.72 392.81C169.11 394.21 170.68 394.12 171.13 394.82C172.03 397.1 170.54 398.66 169.38 400.22C151.47 424.35 130.5 444.9 102.45 457.07C99.64 458.29 96.9501 460.48 93.5601 458.74C91.8501 442.46 83.3799 429.66 71.8899 418.87C59.3799 407.12 44.9 398.36 28.27 393.45C25.47 392.62 22.3001 392.32 20.5601 389.39L20.5701 389.4Z" fill="#122F41"/>
<path d="M92.8701 459.53C87.0701 461.79 81.0399 463.22 74.9799 464.52C66.16 466.44 57.26 466.45 48.33 465.5C45 465.61 41.87 464.62 38.7299 463.71C35.6799 462.32 32.36 461.71 29.26 460.47C28.04 460.2 26.8101 459.92 25.5901 459.65C19.2501 455.78 12.8399 452.06 7.95993 446.22C4.93993 442.6 2.41003 438.86 1.81003 434.07C1.00003 430.04 1.02001 426.01 1.79001 421.98C2.83001 418 3.49996 413.88 4.98996 410.08C8.22996 401.79 14.53 395.66 20.57 389.41C50.61 397.53 75.4599 412.66 90.4799 441.09C92.5899 445.09 93.7299 449.43 94.7199 453.81C95.2399 456.13 94.9099 458.08 92.8799 459.54L92.8701 459.53Z" fill="#ECA84A"/>
<path d="M110.92 195.52C107.79 176.21 104.63 156.89 99.77 137.92C95.63 121.73 92.2899 105.33 86.6499 89.5401C87.2499 88.3201 88.43 87.73 89.45 86.97C95.4 83.89 101.8 84.0001 108.01 85.3001C119.03 87.6001 121.96 96.9301 114.71 105.55C111.44 109.44 107.49 112.4 102.77 114.37C100.91 115.15 98.06 115.33 98.48 118.35C98.95 121.71 98.75 125.6 102.96 127.07C108.05 128.84 112.52 131.75 116.99 134.66C120.5 136.95 123.65 139.69 126.26 142.96C134.23 152.95 130.23 166.08 117.63 171.52C110.58 174.56 110.56 174.57 111.9 182.07C112.22 183.88 112.52 185.68 112.71 187.5C113.32 190.44 114.93 193.62 110.91 195.51L110.92 195.52Z" fill="#0F1B32"/>
<path d="M206.99 3.55999C207.26 27.34 207.97 51.06 210.33 74.77C212.63 97.93 215.01 121.05 219.85 143.82C223.74 162.12 226.92 180.66 234.79 197.87C235.54 199.51 236.52 201.05 237.39 202.64C241.44 206.68 245.85 210.46 246.94 216.52C247.37 218.19 249.42 219.15 248.96 221.2C246.28 221.56 245 219.76 243.79 217.85C243.64 212.23 240.19 208.74 235.54 209.5C232.74 199.92 227.77 191.12 225.35 181.4C224.84 179.35 223.44 178.45 221.37 178.29C219.55 178.15 217.75 177.8 215.99 177.25C205.22 173.87 200.94 163.18 206.44 153.33C207.74 151 208.99 148.54 210.91 146.74C214.89 142.99 215.41 138.84 214.26 133.65C211.86 122.77 211.05 111.62 209.81 100.56C209.34 96.34 208.33 92.5598 205.49 89.1598C200.58 83.2698 200.7 76.5699 203.82 69.9599C205.07 67.3099 206.06 64.7798 205.71 61.8798C204.83 54.6198 204.4 47.32 203.82 40.03C203.7 38.52 203.4 37.4499 201.75 37.1999C200.29 36.5899 198.86 35.9399 198.45 34.1899C205.13 29.5699 203.76 22.5799 203.79 16.0099C203.81 12.8799 203.76 9.75981 203.79 6.62981C203.81 4.88981 203.59 3.34982 201.92 2.38982C201.56 1.95982 201.44 1.46986 201.56 0.929863C203.98 0.559863 207.19 -1.43999 206.98 3.58001L206.99 3.55999Z" fill="#1B2232"/>
<path d="M113.08 17.7301C115.53 16.5901 118.1 16.4501 120.73 16.7701C122.19 17.4901 123.22 18.8301 123.31 20.2601C123.82 28.1001 127.31 35.34 127.77 43.18C127.04 46.94 124.9 48.9501 120.92 49.0501C118.28 49.1201 115.72 49.9602 113.1 50.3402C110.5 50.7202 108.97 49.7801 107.74 47.7701C105.85 42.9401 105.01 37.8 103.35 32.9C103.24 29.23 101.77 25.8501 101.08 22.3001C101.04 21.8001 101.12 21.3202 101.29 20.8502C102.74 18.0102 105.82 19.8502 107.83 18.5902L107.76 18.6202C110.36 17.1202 111.48 18.7802 112.03 20.8602C112.51 22.6702 112.68 24.5502 113.5 25.8302C113.39 23.3302 109.85 20.8401 113.09 17.7301H113.08Z" fill="#F9AE4E"/>
<path d="M126.74 42.67C125.14 36.06 122.27 29.7101 122.5 22.7401C122.57 20.5001 120.1 19.1101 120.73 16.7701C123.03 14.3201 126.65 16.7901 129.01 14.5501C133.26 13.2901 136.93 13.4101 138.52 18.5301C139.39 20.6101 139.75 22.7801 139.67 25.0201C139.03 30.0301 140.14 34.7501 142.1 39.3301C142.61 40.2901 142.78 41.2902 142.53 42.3602C141.12 46.1602 138.3 47.27 135.24 44.91C133.4 43.49 134.3 45.1 133.98 45.47C132.3 47.39 130.05 48.0901 127.78 47.2801C125.56 46.4801 126.07 44.46 126.74 42.68V42.67Z" fill="#FAAF51"/>
<path d="M137.36 20.0701C135.85 16.3101 133.76 13.42 129.02 14.55C137.97 11.78 147.25 10.67 156.43 9.01001C169.89 6.58001 183.35 4.12994 196.81 1.68994C197.15 2.17994 197.31 2.72007 197.3 3.32007C196.07 11.2601 197.96 19.08 198.27 26.96C198.37 29.62 198.9 32.2201 197.2 34.5801C196.5 35.1401 195.72 35.2399 194.89 34.9199C192.87 30.9799 193.03 26.6399 192.8 22.4099C192.53 17.3599 191.66 12.4001 190.95 7.37012C189.36 10.6801 189.8 14.0299 190.23 17.4099C190.62 20.4899 191.41 23.67 189.2 26.48C186.12 26.98 186.27 24.44 185.97 22.72C185.3 18.97 184.78 15.1901 184.75 11.3601C184.75 10.1701 185.09 8.17991 183.15 8.40991C181.45 8.60991 181.84 10.51 181.99 11.74C182.34 14.54 182.89 17.3299 182.58 20.1499C182.39 21.8899 182.49 24.3999 180.18 24.3999C178.29 24.3999 178.13 22.06 177.98 20.45C177.65 17.02 177.33 13.6 176.14 9.23999C173.85 13.16 175.52 16.9301 173.75 19.8701C173.47 20.2801 173.11 20.5901 172.68 20.8201C170.05 20.2801 170.32 18.0399 170.01 16.1699C169.73 14.4599 170.19 12.5901 168.76 10.6001C166.71 13.0801 167.86 15.4599 168.02 17.6899C168.21 20.4299 169.25 23.2399 167.03 25.6699C164.17 25.7699 164.38 23.3699 163.84 21.6599C162.94 18.7399 163.33 15.49 161.45 12.02C159.79 14.66 161.18 17.72 159.17 19.54C156.68 20.29 156.71 18.1501 156.1 16.8101C155.52 15.5401 155.68 13.5 153.9 13.45C152.38 13.4 152.6 15.4299 151.88 16.4299C151.6 16.8299 151.32 17.22 150.93 17.52C148.72 18.21 148.64 15.54 146.76 15C145.81 19.26 147.59 23.22 147.92 27.27C148.13 29.83 149.15 32.46 146.97 34.71C143.54 34.27 143.98 31.2701 143.36 29.0701C142.18 24.8401 142.63 20.1999 140.38 16.1299C138.23 16.7999 138.66 19.07 137.36 20.05V20.0701Z" fill="#8D5526"/>
<path d="M110.92 195.52C112.46 192.89 111.96 190.29 110.78 187.7C114.46 184.6 117.57 184.42 120.41 187.14C123.38 190 124.03 194.76 120.54 197.3C114.99 201.34 114.77 206.13 115.6 212.1C116.17 216.18 116.92 220.32 116.76 224.5C116.68 226.66 116.85 228.85 115.59 230.79C115.22 231.26 114.73 231.53 114.14 231.61C113.07 219.58 111.99 207.55 110.92 195.52Z" fill="#19243A"/>
<path d="M111.76 268.53C111.02 268.8 110.08 271 109.67 268.3C111.13 259.34 112.59 250.39 114.06 241.43C114.68 239.95 113.64 238.07 115.18 236.81C117.19 236.12 119.17 235.49 119.84 238.49C117.73 238.57 118.56 240.61 117.77 241.57C117.25 243.91 116.78 246.26 116.77 248.68C112.27 253.03 115.95 258.51 114.76 263.32C114.74 265.62 113.83 267.41 111.76 268.53Z" fill="#19243A"/>
<path d="M71.3601 43.72C70.1801 39.28 68.9101 34.8599 67.8501 30.3899C67.0901 27.1499 68.0901 25.0099 71.8001 24.4299C77.8101 23.4999 83.7001 21.8 89.8201 21.52C90.1401 22 90.1401 22.47 89.8201 22.95C88.5201 24.37 86.72 24.62 84.97 24.98C81.98 25.76 78.86 26.05 75.98 27.29C70.75 28.28 70.8699 28.3299 71.6399 33.6499C72.1399 37.0599 74.7301 40.32 72.6101 43.97C72.1301 44.15 71.7101 44.05 71.3401 43.72H71.3601Z" fill="#544027"/>
<path d="M89.95 88.6299C89.08 89.7399 87.8499 89.58 86.6499 89.55C81.8699 79.37 78.99 68.5401 75.72 57.8501C75.07 56.8101 75.7201 56.5001 76.5901 56.3201C79.0201 57.6901 79.44 60.2701 80.22 62.5801C83.19 71.3701 85.91 80.2499 89.95 88.6399V88.6299Z" fill="#713910"/>
<path d="M196.87 2.61011C196.83 2.31011 196.81 1.99994 196.81 1.68994C198.4 1.42994 199.99 1.16991 201.58 0.909912C201.75 1.13991 201.78 1.3899 201.68 1.6499C203.15 2.9399 203.72 4.60002 203.74 6.52002C203.77 11.5 203.8 16.47 203.73 21.45C203.7 23.48 203.47 26.2799 201.4 26.3799C199.17 26.4899 198.93 23.6699 198.8 21.6899C198.59 18.3799 198.6 15.05 198.73 11.74C198.86 8.50999 198.25 5.50011 196.87 2.61011Z" fill="#8C480F"/>
<path d="M89.6699 22.4701C89.7199 22.1601 89.7701 21.8401 89.8301 21.5301C92.0001 20.2201 94.39 20.4701 96.76 20.5501C96.85 20.7801 96.95 21.0001 97.05 21.2301C95.83 25.4301 97.49 29.3101 98.3 33.3101C98.81 35.8001 100.1 38.4001 97.8899 40.7701C94.5399 40.5101 94.6399 37.57 93.8999 35.42C92.4199 31.13 92.2699 26.4201 89.6799 22.4901L89.6699 22.4701Z" fill="#935525"/>
<path d="M76.9399 56.73C76.5399 57.1 76.13 57.4701 75.73 57.8401C73.7 53.3101 72.4301 48.55 71.3601 43.72C71.7101 43.67 72.0599 43.6101 72.4099 43.5601C76.5399 46.1901 76.0001 51.1801 78.1201 54.8201C78.2601 55.3001 78.2699 55.78 78.1499 56.26C77.8599 56.71 77.4599 56.87 76.9399 56.74V56.73Z" fill="#543E21"/>
<path d="M113.08 17.7301C111.32 21.1101 114.55 24.29 113.38 28.93C112.61 25.82 111.99 23.9 111.69 21.93C111.33 19.56 110.21 18.3702 107.76 18.6202C109.32 17.0102 111.21 17.4601 113.09 17.7301H113.08Z" fill="#935525"/>
<path d="M107.82 18.58C106.41 20.77 102.78 18.57 101.8 21.61C99.91 22.7 98.2801 22.3499 96.8701 20.7499C96.8701 20.7499 96.76 20.5499 96.76 20.5399C100.3 19.0399 103.98 18.33 107.82 18.58Z" fill="#935525"/>
<path d="M1.78001 421.97C1.78001 426 1.79003 430.03 1.80003 434.06C0.150031 430.03 0.240012 426 1.78001 421.97Z" fill="#756644"/>
<path d="M114.92 237.48C114.71 238.82 115.03 240.27 114.05 241.44C114.08 238.16 114.11 234.89 114.13 231.62L114.54 231.57C114.78 231.72 115.03 231.87 115.27 232.01C116.56 233.93 116.38 235.75 114.91 237.48H114.92Z" fill="#122F41"/>
<path d="M76.9399 56.73C77.2299 56.7 77.52 56.63 77.79 56.53C82.64 52.55 88.8001 53.33 94.3701 52.25C108.94 49.43 123.79 48.1801 138.33 45.0901C142.49 44.2101 146.49 42.5899 150.6 41.4099C151.13 41.2099 151.68 41.1201 152.25 41.1201C157.38 41.1201 162.2 39.17 167.28 38.76C168.74 38.64 170.18 38.0499 171.58 38.9399C173.52 40.6499 172.77 42.92 172.73 44.99C172.63 49.49 173.06 53.66 177.89 55.77C182.78 57.91 189.43 56.6499 193.06 52.9599C195.71 50.2699 196.79 46.7999 198.07 43.3899C198.97 40.9799 199.16 38.12 201.88 36.73C202.73 35.68 202.35 33.32 204.54 33.77C206.43 34.16 205.47 35.9799 205.57 37.1299C206.35 46.0799 207.03 55.04 207.74 64C207.88 65.82 207.81 67.4001 206.59 69.1201C201.52 76.3101 202.22 83.3199 208.56 89.6499C210.09 91.1799 210.75 92.72 210.99 94.82C212.71 109.68 214.15 124.58 217.13 139.26C217.6 141.57 216.92 143.05 215.41 144.58C212.83 147.18 210.59 150.05 208.57 153.14C200.91 164.84 209.69 176.61 221.78 176.16C225.31 176.03 226.23 177.15 227.04 180.17C229.22 188.37 232.13 196.34 236.06 203.87C237.21 206.08 237.56 207.78 235.55 209.49C210.21 224.68 182.6 232.76 153.35 235.7C152.37 235.8 151.42 236.14 150.46 236.36C146.14 238.78 141.31 237.55 136.81 237.75C131.57 237.99 126.21 237.55 120.9 237.5C117.1 237.46 114.73 236.24 114.76 232.07L114.86 231.73L114.55 231.55C115.51 223.24 113.78 215.09 113.19 206.87C113.01 204.36 111.15 201.39 114.97 199.53C118.54 197.79 122.49 195.69 120.81 190.61C119 185.11 114.56 187.19 110.78 187.69C110.13 183.43 109.5 179.17 108.83 174.91C108.46 172.58 108.25 171.19 111.75 171.09C119.24 170.88 124.48 166.53 127.41 159.81C130.26 153.28 128.27 147.4 123.59 142.43C118.27 136.78 111.82 132.37 104.6 129.99C99.4901 128.31 97.77 125.56 96.74 120.83C95.81 116.56 95.3799 114.16 100.93 112.9C107.2 111.48 111.9 106.82 115.5 101.43C118.81 96.4699 118.05 92.29 112.89 89.24C105.46 84.85 97.7 85.3501 89.96 88.6101C88.63 88.6501 87.4501 88.72 86.8701 86.99C83.4701 76.93 79.47 67.0599 76.95 56.7099L76.9399 56.73Z" fill="#F6A83C"/>
<path d="M243.8 217.85C246.85 216.92 246.97 220.51 248.97 221.2C249.89 222.14 250.8 223.07 251.72 224.01C253.51 227.35 255.89 230.32 257.81 233.57L257.74 233.48C259.38 235.68 260.05 238.43 261.81 240.56L261.76 240.48C275.33 264.15 273.19 284.85 254.73 308.59L254.81 308.51C251.57 312.8 247.31 316.11 243.73 320.07L243.7 320.15C242.1 320.15 240.55 320.41 239 319.38C223.53 309.04 210.74 296.75 207.22 277.33C205.58 268.29 207.17 259.9 211.07 251.72C218.21 236.75 230 226.34 243.8 217.83V217.85Z" fill="#EFA745"/>
<path d="M113.76 400.46C114.9 406.82 114.06 407.65 107.52 407.18C104.6 406.97 101.69 407.43 98.7101 406.73C96.8501 406.29 95.0201 407.35 95.7501 409.96C96.8201 413.81 94.29 414.8 91.43 415.83C88.63 416.83 86.6401 416.72 85.5501 413.47C85.1401 412.25 84.2001 410.98 82.7901 412.9C80.3401 416.21 78.03 414.06 76.13 412.36C73.76 410.25 74.69 407.86 76.45 405.75C77.36 404.66 78.7001 404.08 80.0101 404.39C81.2701 404.69 80.6301 406.05 80.7601 406.95C81.1101 409.44 82.0201 410.05 83.7301 407.83C84.1501 407.28 84.8501 406.55 85.2601 407.07C89.5901 412.57 88 405.3 89.63 405.08C91.28 405.03 90.1402 407.19 91.5702 407.43C93.2502 405.02 94.2002 402.12 96.5902 400.13C99.0502 398.07 101.17 396.09 100.99 401.62C102.81 401.1 103.06 398.3 105.18 399.16C107.25 400 105.64 402.18 106.52 403.97C108.44 401.48 111.35 401.55 113.82 400.53L113.77 400.47L113.76 400.46Z" fill="#149599"/>
<path d="M67.3101 377.67C69.3101 377.55 70.54 369.72 72.69 377.38C74.66 376.77 75.56 378.22 77 379.05C78.53 379.93 79.8002 379.88 79.3702 382.14C78.9702 384.23 77.5699 385.03 75.8899 384.86C71.2599 384.39 66.63 383.78 62.18 382.26C60.71 381.76 60.6201 380.6 61.0101 379.45C61.5901 377.71 62.4601 376.14 64.2901 375.3C66.8901 374.11 66.2001 377.35 67.3101 377.67Z" fill="#16939A"/>
<path d="M154.45 308.82C152.7 307.91 150.54 309.88 148.26 309.51C146.78 309.27 144.35 310.5 144.12 308.2C143.92 306.19 145.01 303.01 147 303.06C149.29 303.12 149.59 302.02 150.53 300.8C151.28 299.82 153.04 299.55 153.5 300.52C155.04 303.8 157.4 302.87 159.81 302.21C162.32 301.52 162.74 303.88 163.55 305.14C164.41 306.48 163.99 308.26 161.96 308.44C159.67 308.65 157.44 309.74 154.47 308.83L154.45 308.82Z" fill="#149B9E"/>
<path d="M159.15 264.38C162.06 268.9 164.99 265.55 166.87 264.71C170.64 263.05 169.26 267.9 170.39 267.2C171.87 266.28 172.6 264.03 174.56 266.46C175.55 267.69 176.19 269.11 175.63 270.62C175.05 272.18 173.39 271.91 172.17 271.88C169.49 271.82 166.88 272.31 164.48 273.23C162.19 274.1 159.84 274.96 157.9 273.54C155.42 271.74 157.53 269.27 157.92 267.11C158.06 266.33 158.57 265.62 159.15 264.37V264.38Z" fill="#1598A0"/>
<path d="M118.64 314.12C115.72 313.14 112.15 313.31 108.52 314.21C107.31 314.51 105.64 314.82 105.04 313.23C104.46 311.7 104.18 309.78 105.7 308.64C107.07 307.61 107.94 305.39 110.06 305.86C113.02 306.51 117.24 306.12 119.95 306.26C121.58 306.34 123.21 308.52 125.17 309.31C125.69 309.52 125.77 310.64 125.15 311.04C123.28 312.24 122.14 314.79 118.64 314.12Z" fill="#169098"/>
<path d="M111.39 283.56C112.45 284.83 110.81 286.55 112.49 288.09C113.79 281.96 119.41 287.45 122.01 284.29C123.09 286.23 126.26 286.34 126.4 288.92C126.52 291.18 124.2 290.65 123 290.89C119.12 291.69 115.16 292.22 111.21 292.62C109.51 292.79 107.22 293.63 106.21 291.66C105.11 289.52 106.57 287.5 107.73 285.68C108.55 284.4 109.66 283.42 111.38 283.55L111.39 283.56Z" fill="#169B9F"/>
<path d="M97.7501 424.07C100.4 424.41 98.82 430.96 102.93 426.32C104.14 428.48 107.32 428.73 108.12 430.65C108.84 432.37 106.02 432.7 104.72 433.58C102.36 435.19 100.06 437.27 97.7901 433.25C96.6401 431.22 95.8301 433.81 94.7401 433.94C92.9701 434.15 90.5401 435.33 89.8101 433.43C89.0601 431.48 89.14 428.83 90.64 426.81C90.95 426.39 92.1902 426.05 92.3602 426.24C96.3402 430.79 96.7101 425.75 97.7501 424.07Z" fill="#119496"/>
<path d="M187.16 257.45C188.36 256.73 189.17 262.25 190.57 257.59C190.92 256.44 192.03 256.87 192.41 257.69C193.59 260.24 193.88 258.88 195.39 257.69C197.64 255.92 197.86 259.26 199.37 260.32C200.2 259.54 199.67 257.03 201.29 257.29C203.36 257.62 202.63 259.99 203.13 261.45C203.64 262.92 203.25 264.09 201.51 264.39C197.48 265.08 193.47 266.02 189.41 266.33C186.97 266.52 186.14 264.29 186.21 262.16C186.26 260.58 186.82 259.01 187.15 257.45H187.16Z" fill="#17979D"/>
<path d="M176.37 292.62C178.03 292.99 178.82 289.89 180.64 291.46C181.66 292.34 182.01 293.88 181.63 295.16C181.02 297.2 178.88 296.69 177.4 297.06C173.37 298.07 169.22 296.43 165.12 297.42C163.55 297.8 162.64 296.82 162.72 295.12C162.79 293.76 163.78 291.52 164.3 292C167.06 294.5 167.11 285.41 170 290.81C170.43 291.62 170.66 291.02 171.04 290.86C173.68 289.773 175.453 290.357 176.36 292.61L176.37 292.62Z" fill="#149BA3"/>
<path d="M132.88 299.95C132.73 300 131.95 300.54 131.49 300.34C129.69 299.56 126.97 301.15 126.15 299.4C125.36 297.7 127.27 295.75 128.22 294.03C128.91 292.77 129.93 291.51 130.82 293.97C131.1 294.73 131.46 295.13 132.24 294.64C135.89 292.32 139.9 294.39 143.68 293.69C145.3 293.39 146.29 294.19 146.44 295.78C146.58 297.25 146.05 298.44 144.35 298.62C140.68 299.02 137.15 300.67 132.88 299.95Z" fill="#17979C"/>
<path d="M108.63 349.48C107.31 349.61 105.99 349.69 104.68 349.89C103.34 350.09 101.83 350.48 101.29 348.82C100.75 347.16 102.01 344.29 102.5 344.53C105.13 345.78 106.2 336.87 109.19 343.56C109.22 343.64 109.55 343.69 109.58 343.65C112.52 339.18 114.19 342.24 116.2 344.61C116.71 345.21 119 343.14 118.72 345.91C118.53 347.83 117.4 349.01 115.58 349.23C113.28 349.51 110.95 349.49 108.64 349.6C108.64 349.56 108.64 349.52 108.63 349.47V349.48Z" fill="#12939B"/>
<path d="M172.32 319.68C170.25 319.87 167.96 320.1 165.66 320.26C164.31 320.36 162.92 320.31 162.26 318.84C161.54 317.23 162.33 315.95 163.45 314.87C164.39 313.96 165.41 313.13 166.41 312.28C166.78 311.96 167.18 311.68 167.57 311.37C169.53 315.97 173.55 312.61 176.48 313.57C178.52 314.24 180.44 315.35 180.13 317.11C179.74 319.36 177.35 320.15 175 320C174.18 319.95 173.37 319.8 172.32 319.67V319.68Z" fill="#1499A0"/>
<path d="M164.08 342.94C161.94 342.87 159.65 344.03 159.02 342.33C158.3 340.4 160.06 337.93 161.74 337.69C163.5 337.43 164.8 331.08 167.19 336.95C168.75 335.02 171.02 336.77 172.07 336.39C176.3 334.88 175.02 339.77 177.24 340.13C176.3 342.34 174.33 342.95 172.32 342.59C169.32 342.05 166.49 344.2 164.09 342.93L164.08 342.94Z" fill="#169A9F"/>
<path d="M220.43 329.58C218.07 329.08 216.36 328.47 214.33 329.56C212.09 330.76 209.37 331.22 208.55 327.53C207.74 323.87 211.73 323.87 213.02 321.8C215.32 325.45 218.48 320.29 221.56 322.72C223 323.86 226.11 323.3 225.86 326.4C225.55 330.28 221.72 327.93 220.43 329.58Z" fill="#179C9E"/>
<path d="M208.83 338.14C209.16 340.08 208.62 341.43 206.67 341.34C202.79 341.15 199.22 342.47 195.54 343.31C194.42 343.57 193.22 343.76 192.61 342.3C192.1 341.08 192.44 340.09 193.19 339.1C196.26 335.03 202.63 333.24 207.33 335.03C209.03 335.68 208.56 337.13 208.83 338.14Z" fill="#159DA3"/>
<path d="M164.99 372.5C167.89 370.07 170.11 368.19 172.36 366.36C172.71 366.07 173.24 366 173.68 365.83C175.23 370.59 177.33 366.94 179.27 366.21C181.84 365.24 182.73 370.51 185.75 367.98C186.16 370.27 186.17 372.29 183.27 373.02C181.06 373.58 169.74 373.61 164.99 372.51V372.5Z" fill="#149CA1"/>
<path d="M135.78 342.36C133.31 342.36 130.84 342.36 128.37 342.36C127.51 342.36 126.23 342.07 126.4 341.31C127.12 338.15 130.54 336.9 131.94 334.03C132.48 332.92 134.33 333.56 135.08 335.04C135.89 336.64 136.93 336.51 138.3 335.59C140.58 334.05 142.25 335.25 142.7 337.42C143.15 339.62 143.35 342.33 139.76 342.45C138.43 342.49 137.11 342.45 135.78 342.45C135.78 342.42 135.78 342.39 135.78 342.36Z" fill="#15949A"/>
<path d="M170.99 258.36C170.4 258.43 169.22 257.97 168.91 256.38C168.39 253.7 170.58 252.2 171.84 250.39C172.65 249.22 173.49 250.97 173.89 250.98C176.03 251.06 178.9 251.35 180.18 250.15C182.05 248.39 183.65 248.38 184.55 249.97C185.6 251.83 185.34 254.3 182.94 255.53C179.49 257.29 175.64 257.57 170.99 258.37V258.36Z" fill="#16999B"/>
<path d="M182.16 331.59C179.5 331.86 178.43 330.68 178.84 328.09C179.18 325.94 181.05 324.86 182.29 323.38C184.66 320.54 184.88 323.5 186.29 324.59C187.45 325.49 189.97 324.19 191.99 324.13C194.99 324.04 195.31 326.03 195.53 327.74C195.84 330.19 193.55 329.25 192.29 329.53C188.92 330.27 185.54 330.91 182.16 331.59Z" fill="#149B9F"/>
<path d="M129.48 257.5C127.76 257.44 126.31 257.74 125.52 256.32C124.66 254.77 125.86 253.55 126.82 253C128.38 252.09 128.5 245.9 132.17 251.36C132.99 252.58 133.7 250.83 134.31 250.25C136.24 248.38 138.45 250 140.45 249.95C141.98 249.91 141.84 252.24 141.68 253.72C141.55 254.98 140.86 256.29 139.6 256.03C135.86 255.27 132.59 257.21 129.47 257.5H129.48Z" fill="#15949C"/>
<path d="M138.99 374.77C138.96 374.05 144.79 367.08 145.51 366.96C146.31 366.82 146.84 367.26 147 367.92C147.52 370.11 148.36 370.41 150.35 369.14C152.14 367.99 153.48 369.41 154.32 370.94C155.22 372.58 154.38 373.65 152.99 374.65C149.11 377.42 144.74 376.44 140.5 376.41C139.6 376.41 139.03 375.76 139 374.78L138.99 374.77Z" fill="#13959D"/>
<path d="M99.5501 379.57C97.4301 378.5 95.3801 379.1 93.2701 379.22C91.2401 379.34 88.72 378.37 88.98 375.54C89.24 372.74 92.16 372.04 94 370.51C94.02 370.49 94.7901 371.08 94.8001 371.39C94.8601 376.25 96.8801 371.84 97.8601 371.95C98.7701 372.05 99.38 369.21 100.7 371.27C101.83 373.03 104.94 373.68 103.82 376.82C103.04 379 101.26 379.1 99.5601 379.58L99.5501 379.57Z" fill="#159097"/>
<path d="M129.12 279.59C127.7 279.51 126.15 279.82 125.8 278.49C125.22 276.27 127.04 274.89 128.34 273.48C128.97 272.79 129.42 271.1 131 272.27L138.44 272.67C140.44 272.18 143.01 272.27 143.56 274.04C144.36 276.65 142.41 278.27 139.63 278.44C137.82 278.55 135.99 278.48 134.18 278.67C132.39 278.87 130.62 279.3 129.11 279.58L129.12 279.59Z" fill="#179DA1"/>
<path d="M129.76 321.48C128.48 321.43 126.75 321.91 126.46 320.16C126.12 318.14 127.75 316.88 129.15 315.71C130.18 314.85 131.12 312.97 132.73 314.9C135.04 317.67 137.35 313.53 139.63 314.96C139.88 314.1 140.5 312.35 141.12 313.43C142.05 315.03 144.56 315.15 144.47 317.24C144.41 318.63 143.4 319.83 142.07 320.12C140.31 320.5 138.45 320.37 136.65 320.56C134.35 320.81 132.06 321.16 129.76 321.46V321.48Z" fill="#18979C"/>
<path d="M160.33 363.64C158.82 363 156.15 365.13 155.11 362.12C154.54 360.48 159.85 353.78 160.02 354.12C162.06 358.2 167.01 355.62 169.21 358.28C170.48 359.81 170.3 362.01 167.49 362.84C165.22 363.51 162.95 363.61 160.33 363.64Z" fill="#149EA1"/>
<path d="M152.13 325.89C154.56 325.57 155.52 321.75 157.92 324.17C158.99 325.25 161.74 325.88 160.65 328.62C159.63 331.19 157.43 330.36 155.59 330.65C153.26 331.02 151.01 330.48 148.73 330.19C147.01 329.97 144.37 331.92 143.95 328.82C143.66 326.61 145.06 323.86 147.22 323.47C148.72 323.2 152.89 321.57 152.13 325.89Z" fill="#169DA0"/>
<path d="M190.38 349.74C189.79 353.11 188.04 355.36 185.3 354.1C182.7 352.91 180.68 353.35 178.35 354.03C176.76 354.5 175.36 354.12 174.58 352.55C173.75 350.85 174.61 349.16 176.07 349.02C178.73 348.77 180.85 341.52 184.13 348.27C184.5 349.04 185.27 348.19 185.68 347.8C189.75 343.89 189.28 348.45 190.38 349.73V349.74Z" fill="#159AA0"/>
<path d="M51.3301 392.36C50.2101 391.75 48.9499 392.1 47.6399 392.14C44.3499 392.25 42.5599 389.31 43.9099 386.35C44.0399 386.05 44.25 385.79 44.42 385.51C47.7 389.87 51.45 382.82 54.77 385.94C54.99 386.15 55.2801 386.61 55.3701 386.57C58.4101 385.25 60.73 387.17 60.42 389.44C60 392.56 56.69 392.55 53.92 392.25C53.11 392.16 52.2801 392.31 51.3301 392.36Z" fill="#15989D"/>
<path d="M104.25 442C106.6 442.67 104.52 446.48 107.94 446.05C108.87 445.93 108.63 447.23 108.35 448.05C106.96 452.06 103.59 452.43 100.22 452.09C96.4099 451.7 95.81 448.24 95.48 445.38C95.25 443.42 97.99 442.37 99.03 443.16C101.64 445.14 103 443.52 104.25 442.01V442Z" fill="#0F8F93"/>
<path d="M189.63 308.2C188.24 308.45 186.18 308.86 184.09 309.2C182.99 309.38 181.66 309.85 180.99 308.52C180.34 307.23 180.51 305.51 181.78 305.03C183.53 304.37 183.92 299.92 187.05 303C187.22 303.17 187.88 303.19 187.91 303.12C190.17 297.34 193.24 303.88 196.02 302.64C197.52 301.97 197.41 303.77 197 304.96C195.86 308.21 193.58 309.19 189.62 308.21L189.63 308.2Z" fill="#189DA4"/>
<path d="M146.76 264.56C145.06 263.96 141.89 266.26 141.05 263.3C140.41 261.07 143.37 259.71 144.82 258.01C147.64 254.7 150.18 257.36 152.81 258.13C153.02 258.19 153.03 258.76 153.25 258.96C154.15 259.75 156.42 255.66 156.34 259.72C156.28 262.58 154.43 264.14 151.56 264.34C150.08 264.44 148.6 264.48 146.76 264.56Z" fill="#189B9B"/>
<path d="M46.47 378.21C44.53 377.42 42.5401 376.63 40.5601 375.79C39.1501 375.19 39.7501 374.48 40.3301 373.53C42.3701 370.11 45.9401 372.31 48.5701 371.14C49.2001 374.18 51.72 370.38 52.67 372.27C54.6 371.14 55.86 371.93 56.44 373.82C56.85 375.16 58 376.83 56.46 377.93C55.11 378.89 53.0502 379.14 51.8502 377.82C49.7602 375.52 48.3 377.91 46.47 378.2V378.21Z" fill="#17959C"/>
<path d="M87.3101 395.27C85.0701 394.99 82.9502 394.7 80.8202 394.48C78.7802 394.27 78.33 392.73 79.89 392.08C82.71 390.91 83.8701 388.4 85.7801 386.51C86.2301 386.06 86.8801 385.77 87.4901 385.53C91.3901 384.01 88.1502 391.13 92.0902 389.39C94.6202 388.28 96.28 387.83 94.68 391.47C93.25 394.71 90.2101 395 87.3101 395.26V395.27Z" fill="#189299"/>
<path d="M180.56 282.31C177.31 282.57 176.49 281.22 177.06 278.71C178.02 274.48 181.78 272.74 185.41 274.86C186.51 275.5 187.57 276.28 188.75 276.68C189.68 276.99 191.31 274.69 191.67 277.17C191.89 278.66 190.62 279.87 189.24 280.58C186.36 282.06 183.11 281.74 180.56 282.32V282.31Z" fill="#1599A0"/>
<path d="M148.07 278.74C148.58 284.72 151.88 282.19 153.29 281.57C155.16 280.74 156.43 278.42 156.99 282.4C157.03 282.66 157.4 283.08 157.59 283.07C159.22 282.93 161.09 282.28 160.63 285.2C160.17 288.14 157.86 287.55 155.99 287.68C153.36 287.87 150.7 288.14 148.09 287.94C144.92 287.7 141.96 286.96 145.55 282.99C146.3 282.16 146.73 281.04 148.07 278.74Z" fill="#169EA4"/>
<path d="M127.21 410.48C125.58 410.26 124 410.56 123.3 409.19C122.52 407.68 123.86 406.78 124.8 405.91C125.81 404.98 126.29 403.82 126.83 402.59C127.64 400.74 128.41 399.48 129.76 402.57C130.54 404.36 132.65 404.18 134.01 402.57C136.16 400.03 137.51 401.99 138.6 403.5C140.17 405.66 138.5 406.97 136.74 407.61C133.52 408.77 130.19 409.61 127.21 410.49V410.48Z" fill="#15909C"/>
<path d="M157.99 376.03C159.84 378.36 159.93 381.68 163.74 379.61C165.92 378.42 167.25 381.07 167.7 383.25C168.28 386.05 166.14 385.93 164.37 386.36C160.99 387.18 157.83 385.78 154.58 385.4C152 385.1 153.43 383.08 154.05 381.99C155.1 380.17 157.11 379.05 157.98 376.03H157.99Z" fill="#14969E"/>
<path d="M90.89 343.79C90.42 343.85 89.7602 343.89 89.1102 344.01C86.8002 344.44 83.86 345.02 83.19 342.28C82.6 339.83 85.64 338.35 87.4 337.28C90.25 335.55 93.3401 338.51 96.7701 337.8C98.5901 337.42 98.79 342.05 96.4 343.15C94.76 343.91 92.96 344.41 90.88 343.79H90.89Z" fill="#14919B"/>
<path d="M157.26 247.69C154.33 247.8 152.63 247.26 152.94 245.09C153.31 242.42 156.12 240.44 157.81 241.39C160.96 243.16 163.13 241.58 165.67 240.8C167.99 240.09 170.01 240.1 170.65 243.02C171.33 246.15 168.88 245.45 167.24 245.69C163.54 246.25 159.8 246.58 157.26 247.69Z" fill="#14A0A3"/>
<path d="M97.6698 362.41C97.5098 362.41 97.3399 362.46 97.1799 362.43C94.2699 362.02 90.14 362.99 89.09 359.76C87.87 355.99 92.8 356.04 94.56 353.98C96.12 352.16 96.2498 352.66 96.9098 354.5C97.6898 356.65 98.1798 359.84 101.92 357.3C102.73 356.75 103.64 357.99 103.83 359.04C104.1 360.53 103.45 361.8 102.07 362.19C100.69 362.58 99.1499 362.45 97.6799 362.54C97.6799 362.49 97.6799 362.45 97.6799 362.4L97.6698 362.41Z" fill="#188A94"/>
<path d="M200.27 283.75C201.83 282.93 201.16 280.24 203.39 280.25C203.79 280.25 204.36 281.14 204.56 281.72C205.25 283.65 204.58 285.36 203.23 286.72C200.91 289.06 197.83 289.85 194.73 290.47C193.43 290.73 192.5 289.91 192 288.76C190.98 286.45 192.45 284.6 193.28 282.67C194.28 280.34 194.71 282.33 195.43 282.96C196.37 283.78 196.91 282.73 197.42 282.22C200 279.64 199.36 283.26 200.26 283.75H200.27Z" fill="#15979C"/>
<path d="M70.7599 401.99C68.2799 401.48 65.5499 401.12 62.7199 401.11C61.1099 401.11 58.88 400.07 59.02 397.87C59.14 395.94 61.6399 396.1 62.4999 395.41C66.8899 391.86 69.9298 398.07 73.8898 396.42C74.5198 396.16 74.78 398.67 74.58 399.96C74.26 402.01 72.48 401.71 70.77 401.99H70.7599Z" fill="#149B9F"/>
<path d="M207.6 317.13C205.36 317.16 203.29 319.12 200.68 318.65C199.39 318.42 197.89 318.78 197.71 316.85C197.56 315.26 197.71 313.83 199.66 313.4C201.62 312.97 203.32 312.27 204.62 310.48C205.65 309.06 207.43 309.09 208.28 310.81C209.18 312.63 213.88 310.95 212.05 315.23C211.11 317.43 209.95 318.02 207.6 317.13Z" fill="#149A9F"/>
<path d="M97.7701 324.54C100.11 324.97 101.74 323.7 103.47 321.51C103.68 323.63 103.82 325.05 103.96 326.46C106.2 326.34 105.47 321.11 108.88 323.87C110.03 324.8 112.25 325.36 111.54 327.54C110.97 329.29 109.21 329.88 107.61 330.22C105.84 330.6 103.99 330.73 102.18 330.72C96.14 330.68 95.9901 330.44 97.8101 324.5L97.7801 324.54H97.7701Z" fill="#17939A"/>
<path d="M86.6299 354.8C83.9799 356.94 80.5801 357.62 77.1101 357.51C75.2701 357.45 71.91 359.31 71.79 356.28C71.68 353.29 74.25 350.68 77.03 348.99C77.41 348.76 78.52 349 78.75 349.37C80.64 352.4 84.9601 351.15 86.6201 354.81L86.6299 354.8Z" fill="#158B93"/>
<path d="M144.61 396.62C142.65 396.03 139.26 397.94 138.53 395.43C137.65 392.39 141.51 390.71 142.85 388.15C142.99 387.89 144.11 387.83 144.12 387.85C145.17 391.78 148.02 390.93 150.92 390.75C152.4 390.66 152.61 392.49 152.64 393.85C152.66 395.19 152.05 396.14 150.71 396.28C148.75 396.49 146.76 396.51 144.61 396.63V396.62Z" fill="#16979E"/>
<path d="M109.96 389.56C109.3 389.6 108.62 389.76 107.98 389.66C106.28 389.4 103.9 390.46 103.11 388.34C102.35 386.33 104.02 384.99 105.81 384.24C107.18 383.66 107.76 377.33 110.16 383.58C112.76 380.19 114.16 385.02 116.34 384.49C116.43 385.62 116.65 386.76 116.57 387.87C116.48 389.08 115.49 389.43 114.42 389.46C112.93 389.49 111.44 389.46 109.95 389.46C109.95 389.49 109.95 389.53 109.95 389.56H109.96Z" fill="#11959A"/>
<path d="M120.85 376.29C118.58 376.29 116.58 377.1 115.5 374.9C114.17 372.2 117.08 371.68 118.03 370.17C119.07 368.52 120.4 367.32 122.44 368.94C122.55 369.03 122.8 368.95 122.92 369.04C125.06 370.63 130.59 368.92 129.09 373.76C127.97 377.37 123.3 375.38 120.86 376.29H120.85Z" fill="#14939C"/>
<path d="M111.76 268.53C111.71 266.19 113 264.62 114.76 263.32C115.62 263.75 116.49 264.18 117.35 264.62C119.72 259.78 121.77 263.59 124.15 264.71C126.89 266 125.86 267.55 124.6 268.75C122.21 271.03 114.58 270.75 111.76 268.53Z" fill="#159B9C"/>
<path d="M66.0702 367.58C64.2402 367.58 62.4102 367.71 60.6002 367.54C58.6302 367.36 57.42 366.21 58.17 364.15C58.76 362.52 59.4001 360.29 61.9901 362.13C62.4801 362.48 63.3102 363.46 63.5602 362.81C65.4802 357.86 68.5901 363.25 71.0401 361.97C71.6001 361.68 73.6 363.53 73.64 365.11C73.68 366.96 72.2402 367.58 70.5602 367.59C69.0702 367.6 67.5702 367.59 66.0802 367.59V367.56L66.0702 367.58Z" fill="#15949D"/>
<path d="M116.77 248.69C113.28 245.78 114.47 243.54 117.77 241.58C120.6 240.32 123.25 238.51 126.16 241.95C126.76 242.66 127.67 242.96 127.7 244.19C127.74 245.83 126.98 246.53 125.42 246.82C122.52 247.36 119.65 248.05 116.77 248.68V248.69Z" fill="#17959C"/>
<path d="M142.46 407.95C144.47 408.96 143.23 410.74 144.49 411.84C147.04 409.31 149.03 409.37 150.17 413.31C151 416.18 151.06 418.03 147.23 417.03C146.8 416.92 146.27 416.6 145.96 416.74C143.56 417.86 140.49 419.57 139.11 416.47C137.6 413.09 140.84 410.63 142.46 407.95Z" fill="#13949E"/>
<path d="M117.49 439.56C116.42 439.42 115.4 439.42 114.47 439.14C113.16 438.74 111.1 438.98 111.16 436.93C111.22 434.46 113.58 433.18 114.84 431.34C115.75 430 116.82 431.17 117.62 432.05C117.94 432.4 118.51 433.03 118.64 432.96C122.53 430.73 123 433.28 122.8 436.11C122.57 439.45 120.06 439.74 117.49 439.57V439.56Z" fill="#0E9099"/>
<path d="M146.08 344.45C146.79 346.22 147.27 347.43 147.61 348.28C148.35 349.17 148.92 348.82 149.12 348.47C150.98 345.02 152.8 349.11 154.82 348.56C155.85 348.28 155.83 350.38 155.61 351.48C155.16 353.75 153.21 353.35 151.62 353.52C150.96 353.59 150.27 353.73 149.63 353.6C147.28 353.14 143.88 354.94 142.72 352.5C141.45 349.84 143.91 347.33 146.07 344.45H146.08Z" fill="#1297A2"/>
<path d="M203.85 248.27C201.92 248.67 200 249.15 198.05 249.43C196.25 249.68 194.52 249.36 194.83 246.98C195.04 245.35 195.05 244.16 197.38 242.85C200.38 241.15 203.47 243.9 205.79 241.35C206.18 240.92 207.01 240.82 207.53 241.49C208.1 242.22 208.17 243.13 207.7 243.8C206.76 245.14 205.63 246.33 204.57 247.59C204.53 248.03 204.29 248.26 203.85 248.28V248.27Z" fill="#18A0A0"/>
<path d="M129.73 427.64C127.89 427.2 125.73 428.08 124.54 426.29C123.47 424.68 124.63 423.04 125.46 421.7C126.23 420.46 127.44 417.77 128.3 421.95C128.56 423.23 130.83 423.45 132.1 421.97C132.88 421.06 133.04 419.16 134.96 420.43C136.33 421.33 136.88 422.6 136.87 424.24C136.86 426.17 135.7 426.87 134.09 427.12C132.62 427.35 131.12 427.47 129.74 427.63L129.73 427.64Z" fill="#129298"/>
<path d="M118.77 333.35C117.78 333.11 115.32 334.64 114.52 332.67C113.56 330.31 115.97 328.32 117.27 326.74C117.94 325.93 120.93 327.03 122.87 327.33C123.09 327.36 123.23 327.98 123.45 328.01C125.06 328.25 127.92 326.32 127.62 329.95C127.35 333.26 124.33 333.07 121.92 333.35C121.11 333.44 120.28 333.36 118.77 333.36V333.35Z" fill="#159698"/>
<path d="M113.8 400.52C113.97 396.73 118 391.72 121.33 392.04C122.6 392.16 124.04 394.5 124.68 396.12C125.26 397.59 124.92 399.95 122.9 400.12C119.88 400.37 116.85 402.22 113.76 400.46L113.81 400.52H113.8Z" fill="#178F99"/>
<path d="M194.53 235.37C194.13 237.86 193.68 239.67 191.04 239.94C189.09 240.14 187.18 240.83 185.25 241.27C183.9 241.58 182.51 241.74 181.93 240.07C181.43 238.63 181.24 237.1 182.32 235.81C183.3 234.64 184.46 234.41 185.81 235.38C188.2 237.09 189.7 233.78 192.2 234.19C193.69 234.43 194.61 233.89 194.53 235.37Z" fill="#169BA0"/>
<path d="M208.61 232.59C208.22 232.62 207.14 232.7 206.8 231.47C206.29 229.64 206.37 227.84 207.96 226.5C209.19 225.47 210.56 223.85 212.22 225.21C213.73 226.45 215.08 226.62 216.72 225.99C217.99 225.5 219.01 225.59 219.38 227.1C219.75 228.58 219.2 229.86 217.79 230.29C214.97 231.14 212.07 231.74 208.61 232.59Z" fill="#17A3A3"/>
<path d="M136.24 378.57C136.42 379.22 133.41 382.06 137.48 381.62C137.56 381.62 137.72 381.85 137.77 382C138.15 383.25 139.03 384.87 137.66 385.65C134.67 387.33 131.22 386.71 127.97 386.69C126.52 386.69 126.59 384.95 127.11 383.89C128.03 381.99 130.39 378.88 131.06 379.57C134.24 382.82 133.79 376.63 136.25 378.59L136.24 378.57Z" fill="#17949A"/>
<path d="M113.87 420.63C112.58 420.34 110.21 421.71 109.09 419.21C108.39 417.65 109.26 416.37 110.22 415.13C111.28 413.76 112.26 412.84 113.75 414.57C114.24 415.14 114.52 416.26 115.59 415.48C116.84 414.58 118.01 412.5 119.55 414.77C120.32 415.91 121.17 417.46 120.63 419C119.78 421.39 117.55 420.28 115.89 420.62C115.41 420.72 114.9 420.64 113.87 420.64V420.63Z" fill="#13979F"/>
<path d="M80.85 373.32C78.77 373.13 76.99 373.29 77.35 370.97C77.99 366.96 82.4599 367.37 84.4799 364.93C85.1499 367.14 89.1199 366.42 88.6899 369.5C87.8999 375.17 82.61 370.95 80.84 373.32H80.85Z" fill="#149098"/>
<path d="M114.76 232.08C115.17 235.81 117.18 236.6 120.89 236.65C130.76 236.78 140.61 236.96 150.46 236.37C149.37 238.99 146.99 238.38 145 238.41C136.61 238.51 128.22 238.48 119.84 238.5C118.4 237.19 116.57 237.79 114.93 237.48C114.88 235.68 114.82 233.88 114.77 232.09L114.76 232.08Z" fill="#2C190D"/>
<path d="M117.44 364.11C116.27 367.38 112.67 366.85 110.87 369.08C109.85 370.35 106.64 368.97 105.49 367.93C104.23 366.78 106.38 365.03 107.4 363.92C108.49 362.74 109.44 359.43 111.08 361.04C112.81 362.75 113.1 361.99 114.68 361.39C116.25 360.8 116.38 363.25 117.44 364.09V364.11Z" fill="#179297"/>
<path d="M133.78 365.67C132.37 365.29 130.26 366.28 130 364.21C129.73 362.08 131.71 360.75 132.98 359.31C133.98 358.18 135.48 358.01 136.25 359.57C137.41 361.91 140.71 358.71 141.45 361.74C142.51 361.31 143.75 360.52 143.74 362.65C143.74 364.06 142.82 364.69 141.53 364.83C138.92 365.13 136.3 365.39 133.77 365.66L133.78 365.67Z" fill="#13959A"/>
<path d="M97.8002 324.51C95.3502 324.9 92.9101 325.48 90.4401 325.62C86.9401 325.82 86.1301 324.6 87.7301 321.1C89.8301 316.51 93.51 319.53 96.15 319.22C98.64 318.92 97.7701 322.5 97.7601 324.55L97.7902 324.51H97.8002Z" fill="#17939A"/>
<path d="M36.1798 388.9C34.5398 387.86 30.04 391.29 30.34 386.34C30.41 385.11 34.1899 381.24 34.5399 381.79C36.1399 384.39 41.0899 380.29 40.9699 385.39C40.8899 388.62 39.1598 389.21 36.1898 388.91L36.1798 388.9Z" fill="#1496A0"/>
<path d="M231.04 214.82C231.87 215.14 232.67 215.75 233.05 215.55C234.49 214.8 235.9 213.38 237.07 215.69C237.99 217.51 237.26 219.17 236.06 220.7C234.7 222.43 233.08 222.69 231.32 221.56C229.6 220.45 225.91 221.25 226.67 217.77C227.04 216.07 228.96 214.65 231.04 214.82Z" fill="#178F92"/>
<path d="M155.56 406.63C154.4 406.6 153.18 406.72 152.73 405.24C152.02 402.92 153.24 400.92 154.19 399.11C155.34 396.92 155.69 399.4 156.41 399.85C157.79 400.7 158.61 398.29 161.13 399.93C164.7 402.25 162.64 402.98 161.44 404.31C159.93 405.97 157.76 406.44 155.57 406.64L155.56 406.63Z" fill="#14989E"/>
<path d="M125.73 351.08C128.83 348.78 129.16 351.95 129.55 353.41C130.17 355.69 128.03 355.94 126.4 356.26C124.61 356.61 122.81 356.89 121 357.14C119.9 357.3 118.55 357.88 118.03 356.32C117.62 355.1 118.33 353.6 119.17 353.25C121.28 352.37 122.73 349.23 125.73 351.07V351.08Z" fill="#17979C"/>
<path d="M201.01 355.13C200.89 360.43 196.71 364.24 192.02 363.53C189.97 363.22 189.42 362.44 190.45 360.58C191.8 358.16 194.41 357.56 197.07 358.48C199.69 359.39 199.1 355.63 201.01 355.13Z" fill="#179096"/>
<path d="M104.14 302.05C103.71 305.32 104.32 309.09 99.6899 309.46C98.5799 309.55 97.35 310.45 96.51 309.19C95.76 308.06 96.64 306.95 97.04 305.9C98.27 302.66 101.82 303.58 104.14 302.05Z" fill="#158C97"/>
<path d="M207.27 295.41C205.09 295.67 203.93 294.86 203.87 292.76C203.8 290.2 205.68 289.08 207.64 289.06C210.13 289.03 210.54 291.76 210.74 293.39C211.04 295.77 208.28 294.59 207.27 295.41Z" fill="#14A9A9"/>
<path d="M74.4999 348.72C72.7699 349.44 71.45 350.02 70.1 350.54C68.45 351.17 66.27 351.29 65.61 349.83C64.75 347.94 66.8299 346.67 68.2399 345.64C70.2899 344.13 70.62 345.72 71.05 347.31C71.5 348.96 73.15 347.37 74.51 348.73L74.4999 348.72Z" fill="#158B93"/>
<path d="M216.43 344.79C214.7 346.36 212.98 347.94 211.25 349.51C210.38 349.22 208.78 350.11 208.67 348.95C208.39 346.03 211.06 344.83 212.83 343.23C214.89 341.37 215.53 343.55 216.43 344.79Z" fill="#198685"/>
<path d="M75.75 338C76.2 336.07 77.81 335.4 79.24 334.7C80.58 334.05 82.4901 332.44 83.3101 334.75C83.8501 336.26 82.24 337.91 80.51 338.28C79 338.6 77.31 338.99 75.74 338H75.75Z" fill="#198A91"/>
<path d="M170.84 394.58C169.29 394.25 167.99 398.12 166.47 395.1C165.47 393.12 167.36 392.04 169.03 391.79C171.14 391.47 170.26 388.73 172.15 388.39C174.19 391.02 170.45 392.38 170.81 394.62L170.84 394.58Z" fill="#218C96"/>
<path d="M229.81 315.17C231.44 316.12 233.62 316.83 233.94 318.97C234.15 320.4 232.51 320.63 231.36 320.4C229.45 320.03 227.96 319 227.85 316.84C227.79 315.68 228.45 315.01 229.81 315.16V315.17Z" fill="#109298"/>
<path d="M203.85 248.27C204.09 248.04 204.33 247.81 204.57 247.58C206.57 248.44 207 246.36 208.12 245.61C208.95 245.05 209.68 244.13 210.66 245.07C211.72 246.1 211.24 247.5 210.41 248.18C208.36 249.84 206.07 250.5 203.86 248.27H203.85Z" fill="#169798"/>
<path d="M145.46 240.51C144.94 242.39 143.21 242.77 141.78 243.36C140.66 243.83 139.95 243.09 139.82 241.91C139.63 240.25 140.49 239.45 142.06 239.42C143.28 239.4 144.71 238.89 145.47 240.51H145.46Z" fill="#1197A6"/>
<path d="M228.61 333.42C227.42 334.43 226.23 335.44 225.05 336.44C223.53 336.3 222.91 335.57 223.88 334.23C224.9 332.84 225.77 330.93 227.77 330.99C228.96 331.03 228.57 332.5 228.62 333.41L228.61 333.42Z" fill="#1E7E80"/>
<path d="M254.73 308.59C255.84 305.02 258.62 302.5 260.57 299.47C271.49 282.56 272.59 265.06 264.21 246.83C263.27 244.78 261.5 243 261.76 240.48C271.36 254.79 273.92 270.26 268.34 286.58C265.52 294.81 261.46 302.61 254.73 308.59Z" fill="#3A2F18"/>
<path d="M48.3301 465.5C57.2401 465.83 66.11 465.31 74.98 464.52C66.2 467.68 57.2701 466.8 48.3301 465.5Z" fill="#6F694D"/>
<path d="M243.73 320.08C246.62 315.46 250.62 311.9 254.81 308.52C252.45 313.65 248.05 316.83 243.73 320.08Z" fill="#4A3B21"/>
<path d="M257.81 233.57C254.89 230.95 252.39 228.06 251.72 224.01C254.35 226.81 256.77 229.76 257.81 233.57Z" fill="#372E1B"/>
<path d="M29.26 460.47C32.73 460.64 35.87 461.75 38.73 463.71C35.36 463.24 32.04 462.66 29.26 460.47Z" fill="#6B5431"/>
<path d="M261.81 240.56C259.53 238.73 258.14 236.39 257.74 233.48C259.9 235.38 261.45 237.63 261.81 240.56Z" fill="#3A2F18"/>
<path d="M116.63 155.78C114.41 158.18 111.58 159.64 108.74 161.16C106.72 162.25 106.12 161.64 105.84 159.65C105.59 157.85 104.96 156.1 104.82 154.3C104.68 152.56 102.8 150.5 104.52 149.17C106.62 147.55 108.69 149.58 110.28 150.75C112.44 152.34 115.63 152.75 116.55 155.86L116.63 155.78Z" fill="#F7AC43"/>
<path d="M95.0601 89.3201C95.8901 91.4301 99.94 91.2601 98.96 94.6201C98.68 95.5601 97.71 96.32 97.25 95.98C95.12 94.41 96.0001 91.5801 95.0601 89.3201Z" fill="#92959D"/>
<path d="M116.55 155.86C119.13 155.11 121.12 156.29 121.28 158.65C121.48 161.52 118.88 160.31 116.23 160.92C119.61 158.5 118.16 157.13 116.63 155.76L116.54 155.85L116.55 155.86Z" fill="#BAB8B2"/>
<path d="M102 139.35C104.21 137.18 106.41 135.58 107.35 140.04C105.45 139.8 103.72 139.57 102 139.35Z" fill="#95A5A9"/>
<path d="M111.11 142.17C109.79 139.98 108.86 137.91 110.46 135.64C110.68 137.82 110.9 140 111.11 142.17Z" fill="#889BA1"/>
<path d="M118.45 145.25C112.8 145.36 116.1 141.87 114.93 140.39C117.28 141.12 116.42 143.63 118.45 145.25Z" fill="#ACB8BD"/>
<path d="M201.86 36.7501C200.8 41.6001 199.26 46.2801 197.09 50.7601C194.6 55.9001 190.48 58.3002 184.85 58.6202C174.02 59.2302 169.1 53.8402 170.86 43.0702C171.05 41.9402 171.37 40.8201 171.64 39.7001C171.36 39.3001 171.27 38.86 171.36 38.39C172.09 36.78 173.4 35.2201 175.03 35.4901C177.61 35.9101 179.5 35.7402 180.9 33.3102C181.48 32.3102 182.63 32.1701 183.48 32.9501C185.66 34.9301 188.23 33.7801 190.63 34.0001C192.03 33.7901 193.48 33.2502 194.66 34.5802C195.41 34.5002 196.16 34.4302 196.92 34.3502C197.47 33.9502 198.01 33.97 198.52 34.43C200.09 34.55 201.55 34.8201 201.87 36.7401L201.86 36.7501Z" fill="#151F30"/>
<path d="M198.51 34.44C197.98 34.41 197.45 34.3901 196.91 34.3601C196.2 25.4501 195.45 16.5301 194.83 7.61012C194.7 5.73012 194.2 3.46012 196.86 2.61012C199.82 2.29012 200.94 3.52008 200.85 6.57008C200.66 12.8301 200.79 19.0901 201.68 25.3501C201.68 17.4501 201.68 9.54992 201.68 1.64992C204.49 1.08992 205.81 1.7501 205.69 5.0901C205.41 12.8201 205.45 20.5701 205.55 28.3101C205.61 33.3101 200.94 32.4999 198.51 34.4299V34.44Z" fill="#FCAF4B"/>
<path d="M215.27 162.37C216.9 161.76 218.52 161.15 221.27 160.11C219.39 163.2 217.84 164.01 215.27 162.37Z" fill="#BAA099"/>
<path d="M96.8702 20.7501C98.5602 20.7501 100.3 20.5302 101.8 21.6102L101.76 21.5401C103.01 25.2701 103.65 29.17 104.82 32.93C106.79 37.27 108.09 41.8102 108.69 46.5502C110.18 49.0402 108.85 50.4102 106.6 50.8102C103.7 51.3302 100.04 53.7702 98.66 48.5802C97.96 46.0702 96.6901 43.5801 98.2601 40.9501C97.0901 35.8801 96.2702 30.6901 94.6102 25.7901C93.6202 22.8501 94.5502 21.7301 96.8702 20.7501Z" fill="#FAAC4E"/>
<path d="M99.8301 47.6498C101.03 48.9098 100.65 52.0498 104.08 50.6398C106.24 49.7498 109.43 50.55 108.69 46.55C109.91 48.05 110.54 49.68 113.48 48.86C116.28 48.07 119.21 46.8499 122.36 47.2899C125.83 47.7799 125.44 44.3698 126.75 42.6698C127.12 43.9198 125.91 46.1999 128.08 46.2099C129.97 46.2099 132.95 46.46 133.59 44.31C134.72 40.53 134.69 44.2198 135.2 44.3798C138.16 45.2798 140.44 44.5 141.77 41.56C144.3 41.77 146.78 41.0899 149.31 41.2099C150.35 41.3099 151.24 41.65 151.8 42.59C143.42 45.82 134.48 46.4199 125.76 48.0199C109.79 50.9599 93.78 53.7099 77.79 56.5399C77.72 56.1199 77.6501 55.7099 77.5801 55.2899C78.8701 53.0499 80.65 51.09 81.47 48.58C82.32 48.09 83.1899 48.3199 83.6799 48.9899C85.9399 52.0799 88.6 51.69 91.46 50.06C91.91 49.94 92.3601 49.8998 92.8201 49.9098C95.7901 51.1498 97.7101 49.1298 99.8101 47.6598L99.8301 47.6498Z" fill="#713910"/>
<path d="M104.82 32.9299C102.73 29.4199 101.99 25.55 101.76 21.54C103.81 25.06 104.57 28.9199 104.82 32.9299Z" fill="#935525"/>
<path d="M148.77 42.3502C146.4 42.4102 143.69 45.4401 141.77 41.5501C141.52 40.8901 141.27 40.2302 141.02 39.5702C138.9 34.9602 138.78 29.9001 137.76 25.0401C137.62 23.3801 137.49 21.7201 137.35 20.0601C137.19 18.7601 137.01 17.45 136.85 16.13C136.44 12.82 139.38 13.5702 140.93 13.0702C143.15 12.3502 142.43 14.5302 142.76 15.6102C144.67 21.8802 144.04 28.7101 147.01 34.7501C150.7 36.5701 150.55 39.2702 148.76 42.3502H148.77Z" fill="#FBB152"/>
<path d="M133.07 36.48C131.08 32.61 129.55 28.79 130.53 24.51C131.38 28.5 132.22 32.49 133.07 36.48Z" fill="#AC5112"/>
<path d="M137.76 25.04C139.65 29.7 139.91 34.7301 141.02 39.5701C137.8 35.2001 137.98 30.08 137.76 25.04Z" fill="#8D5526"/>
<path d="M190.76 35.3101C188.12 33.9701 184.47 40.04 182.44 34.18C182.51 36.54 180.43 36.9201 179.06 38.0201C178.37 38.5801 177.45 40.1401 177.01 39.0101C175.39 34.9101 173.56 38.8502 171.91 38.6102C171.18 39.2302 170.38 39.0702 169.57 38.8302C165.72 35.0702 165.47 30.6302 167.1 25.8302C166.52 21.2502 166.32 16.5802 165.26 12.1202C164.38 8.4302 166.83 8.96019 168.73 8.36019C171.77 7.39019 171.52 9.60019 171.74 11.3602C172.12 14.4202 170.86 17.6601 172.81 20.5401C173.65 23.8701 172.91 27.42 174.51 30.64C172.9 27.43 173.71 23.8701 172.76 20.5701C172.74 17.2401 172.84 13.9002 172.66 10.5802C172.52 7.91016 173.97 7.07014 176.21 6.81014C179.27 6.46014 178.61 8.70001 178.78 10.43C179.2 14.7 179.67 18.9701 180.22 24.2701C181.44 18.9701 180.22 14.83 179.86 10.63C179.7 8.73996 178.75 6.28 182.27 5.67C185.39 5.13 186.93 5.40017 186.76 9.09017C186.5 15.0302 186.85 20.95 188.86 26.65C192.85 28.81 192.53 31.9001 190.75 35.3101H190.76Z" fill="#FCAE4C"/>
<path d="M167.1 25.8402C167.99 29.9802 168.88 34.1301 169.77 38.2701C167.59 40.9501 164.69 40.0102 161.94 39.8602C160.62 39.4502 160.12 38.0301 158.84 37.4501C154.27 35.3801 153.69 34.4401 156.39 30.7301C158.91 27.2701 156.87 23.1102 158.99 19.7902C158.79 17.6402 158.74 15.4702 158.36 13.3502C158.05 11.6302 157.3 10.0601 160.05 9.77014C162.3 9.53014 163.99 9.77009 164.32 12.4701C164.73 15.7601 165.27 19.0202 165.66 22.3102C165.82 23.6502 165.78 24.9902 167.08 25.8402H167.1Z" fill="#FBAE4C"/>
<path d="M148.77 42.3501C148.18 39.8201 147.6 37.28 147.01 34.75C146.17 28.93 145.49 23.07 144.42 17.28C143.97 14.84 143.18 12.6399 146.51 11.9499C150.05 11.2099 149.42 14.01 149.83 15.97C149.95 16.55 150.47 17.0501 150.8 17.5901C151 17.7401 151.21 17.9 151.42 18.05C152.81 21.32 152.77 25.0399 154.69 28.1399C155.83 31.5299 154.9 35.2401 156.25 38.6001C156.42 41.8401 153.74 41.8401 151.72 42.5901L151.8 42.5801C150.79 42.5001 149.78 42.4301 148.77 42.3501Z" fill="#FBB053"/>
<path d="M154.84 38.7301C154.89 35.2601 153.98 31.9402 153.17 28.6102C151.51 25.1102 151.83 21.1701 150.76 17.5401L150.81 17.6002C150.81 16.1102 150.83 14.62 150.78 13.14C150.72 11.39 151.74 10.8401 153.26 10.7901C154.91 10.7301 156.33 10.5501 157.16 12.7401C158.04 15.0501 156.94 17.8401 159 19.7801C159.49 23.9201 162 28.2802 157.35 31.8102C156.43 32.5102 155.53 34.0502 156.45 35.3302C157.76 37.1502 158.47 35.18 159.52 34.69C161.26 33.87 161.51 34.3602 161.59 38.5502C161.46 40.7302 161.4 40.49 158.99 41.16C156.51 41.86 155.09 41.4901 154.83 38.7301H154.84Z" fill="#FBAE51"/>
<path d="M190.76 35.3099C190 32.4499 190.23 29.3798 188.87 26.6498C188.48 20.5598 188.2 14.4598 187.66 8.38978C187.39 5.38978 188.75 3.98 191.46 3.86C194.94 3.7 193.55 6.53982 193.71 8.17982C194.41 15.3998 194.94 22.63 195.54 29.86C195.68 31.52 195.82 33.18 194.66 34.59C193.26 34.3 192.23 35.9599 190.77 35.3099H190.76Z" fill="#FCAF4B"/>
<path d="M91.8601 50.6399C89.1001 54.5699 85.0699 54.62 83.1599 50.72C82.6699 49.71 82.5301 48.51 81.2901 48.05C77.6201 41.33 75.4 34.25 75.74 26.5C78.02 23.14 81.6201 24.18 84.7901 23.75C85.4301 24.17 85.8601 24.75 86.1001 25.46C86.6601 28.99 87.4001 32.47 88.8701 35.76C89.0501 36.22 89.16 36.6899 89.21 37.1799C89.4 41.7999 93.1601 45.7199 91.8701 50.6399H91.8601Z" fill="#FAA64F"/>
<path d="M84.75 25.3702C84.75 24.8302 84.77 24.2901 84.78 23.7501C86.16 22.3701 88.0099 22.79 89.6699 22.47C91.4899 22.11 92.6501 22.42 93.0701 24.65C93.8101 28.55 94.7699 32.42 95.9399 36.21C96.4399 37.85 96.28 39.97 98.26 40.95C98.79 43.19 99.3101 45.42 99.8301 47.65C99.5401 49.18 100.76 51.44 97.8601 51.7C96.0201 51.87 93.7799 53.99 92.6499 50.64C90.4199 46.14 89.28 41.2801 87.76 36.5301L87.8 36.6102C86.55 32.9202 85.96 29.0602 84.75 25.3602V25.3702Z" fill="#FAAB51"/>
<path d="M75.7301 26.4901C78.09 33.5501 80.4801 40.6101 81.2901 48.0501C83.6401 52.2901 82.7301 54.8601 77.5801 55.2801C74.2501 54.2101 75.1901 50.8202 74.0201 48.5802C73.2201 47.0402 72.92 45.2401 72.4 43.5501C71.47 39.5701 70.5102 35.6002 69.6102 31.6202C68.3302 25.9802 69.8401 24.7201 75.7301 26.4901Z" fill="#FCA549"/>
<path d="M182.77 182.78C182.74 189.21 177.14 194 169.7 193.12C158.13 191.75 147.77 186.82 138.07 180.64C134.11 178.12 134.18 175.68 138.01 172.8C145.43 167.22 154.24 166.84 163.1 166.46C169.89 166.16 174.93 169.05 179.27 173.75C181.59 176.27 182.99 179.23 182.76 182.78H182.77Z" fill="#152236"/>
<path d="M160.13 60.0501C160.03 69.3101 148.29 82.9601 139.27 84.3101C134.51 85.0201 130.77 82.66 129.49 77.93C129.06 76.35 128.7 74.6101 128.93 73.0301C130.29 63.5501 134.89 55.8399 142.54 50.1399C146.4 47.2599 150.75 47.7601 154.77 50.0401C158.59 52.2001 160.16 55.7501 160.13 60.0601V60.0501Z" fill="#101C31"/>
<path d="M208.91 111.77C208.57 122.89 200.93 128.22 190.97 124.46C183.2 121.52 177.34 115.75 171.46 110.17C168.91 107.74 169.74 105.13 172.46 103.02C179.68 97.4 196.21 96.8698 203.7 102.13C207.17 104.56 209.26 107.78 208.9 111.77H208.91Z" fill="#131E33"/>
<path d="M202.18 211.43C193.24 211.3 189.48 205.6 192.58 198.21C197.32 186.9 211.86 183.49 219.66 191.84C223.07 195.49 223.28 199.29 219.9 202.93C214.91 208.31 208.46 210.71 202.18 211.42V211.43Z" fill="#172439"/>
<path d="M153.12 151.73C148.13 151.67 144.01 150.68 142.36 145.76C140.71 140.81 143.47 137.49 147.13 134.82C150.23 132.56 153.75 131.09 157.57 130.46C161.53 129.81 165.45 129.95 167.62 133.91C169.94 138.14 168.97 142.39 165.95 145.91C162.54 149.89 157.88 151.51 153.11 151.73H153.12Z" fill="#111E33"/>
<path d="M161.52 221.73C161.57 214.92 167.9 208.03 174.58 207.67C178.23 207.47 180.94 209.23 182.74 212.34C184.49 215.36 184.33 218.49 182.35 221.24C179.4 225.33 175.25 228.24 171.04 230.8C167.31 233.07 161.48 227.32 161.52 221.73Z" fill="#0F2035"/>
<path d="M135.26 105.23C139.03 105.1 142.4 106.82 144.68 110.55C146.35 113.29 146.28 116.01 143.98 118.28C140.8 121.43 137.34 124.32 133.36 126.37C128.31 128.97 122.78 126.06 121.6 120.46C120.03 112.99 126.66 105.27 135.26 105.23Z" fill="#131D31"/>
<path d="M131.48 231.64C125.53 231.42 121.54 228.01 121.76 223.36C122 218.34 126.31 214.33 131.24 214.57C135.88 214.79 140.76 220.4 140.44 225.17C140.17 229.25 136.59 231.83 131.48 231.64Z" fill="#0F1F34"/>
<path d="M115.81 65.6599C115.74 70.4899 112.23 74.0999 107.81 73.8999C103.82 73.7199 99.9801 69.33 100.02 65.01C100.07 60.82 103.88 56.72 107.74 56.72C112.21 56.72 115.88 60.7899 115.81 65.6499V65.6599Z" fill="#0F1A2F"/>
<path d="M183.77 148.86C183.77 144.16 187.67 139.56 191.67 139.55C195.06 139.55 198.98 144.58 198.98 148.93C198.98 153.54 195.36 157.62 191.21 157.69C187.02 157.76 183.78 153.92 183.77 148.86Z" fill="#151E2B"/>
<path d="M169.22 92.5199C165.23 92.4899 162.52 89.5998 162.58 85.4398C162.64 81.4298 165.89 77.9299 169.67 77.8099C173.22 77.6999 177.65 81.9698 177.59 85.4498C177.53 88.8998 173.21 92.5499 169.22 92.5199Z" fill="#0E1C30"/>
<path d="M145.9 209.53C141.9 209.61 137.68 206.54 138.13 203.52C138.64 200.08 140.91 197.93 144.46 197.63C147.73 197.36 151 200.74 151.04 204.32C151.08 207.73 149.31 209.48 145.9 209.53Z" fill="#0F1C2D"/>
<path d="M185.28 76.77C181.39 76.84 179.57 74.66 179.38 70.97C179.2 67.45 182.13 63.69 184.85 63.7C187.31 63.72 190.67 68.5899 190.62 72.1499C190.57 75.6099 188.28 76.58 185.28 76.77Z" fill="#111B25"/>
<path d="M154.84 38.73C157.18 42.01 159.43 41.71 161.59 38.55C164.39 40.41 167.07 39.06 169.77 38.27C170.48 38.39 171.2 38.5001 171.91 38.6201C171.82 38.9801 171.73 39.35 171.64 39.71C164.93 40.19 158.54 42.9001 151.71 42.6001C152.68 41.2601 155.53 41.42 154.83 38.73H154.84Z" fill="#713910"/>
<path d="M185.28 41.1399C185.74 44.6999 187.82 47.2499 191.11 49.8799C185.02 48.3099 184.06 46.7399 185.28 41.1399Z" fill="#9A9DA2"/>
<path d="M87.77 36.54C90.45 40.88 91.2799 45.8599 92.6599 50.6499L92.26 50.6299L91.8601 50.6499C90.0801 46.0699 87.97 41.58 87.76 36.55L87.77 36.54Z" fill="#A54C15"/>
<path d="M172.76 20.5701C174.26 24.4001 174.21 28.45 174.54 32.45C173.21 28.59 172.37 24.65 172.81 20.54L172.76 20.5801V20.5701Z" fill="#8D5526"/>
<path d="M150.75 17.54C152.74 20.97 152.44 24.9001 153.16 28.6101C150.76 25.2701 150.64 21.43 150.75 17.54Z" fill="#8D5526"/>
<path d="M84.75 25.3701C86.95 28.8001 87.67 32.6301 87.8 36.6201C85.81 33.1301 84.9 29.3601 84.75 25.3701Z" fill="#A54C15"/>
<path d="M172.31 173.67C174.78 177.43 173.56 181.52 173.83 185.36C173.93 186.82 172.65 188.2 170.92 188.22C169.65 188.24 168.97 187.51 168.95 185.97C168.92 184.13 168.64 183.05 171.36 183.38C173.65 183.66 172.61 181.23 172.63 180C172.67 177.97 170.75 176.06 172.31 173.66V173.67Z" fill="#9EA1A3"/>
<path d="M160.64 187.35C165.26 182.98 163.31 177.22 163.57 170.73C166.2 175.71 163.17 180.49 166.37 183.94C164.46 185.08 162.55 186.22 160.64 187.36V187.35Z" fill="#C0C7C6"/>
<path d="M146.09 182.49C147.14 178.63 149.64 175.27 145.39 171.4C148.73 171.62 149.1 173.36 149.28 175.08C149.71 179.08 149.12 180.47 146.09 182.49Z" fill="#A2ABB0"/>
<path d="M152.05 184.48C153.43 182.84 154.05 182.31 154.41 181.63C154.92 180.66 153.41 178.77 155.75 178.62C156.69 178.56 156.61 179.41 156.79 180.02C157.27 181.65 157 182.93 155.22 183.54C154.62 183.75 154 183.91 152.05 184.49V184.48Z" fill="#C1C6C5"/>
<path d="M156.43 176.36C154.53 174.42 154.55 172.58 155.01 169.69C156.46 172.07 157.2 173.7 156.43 176.36Z" fill="#929AA0"/>
<path d="M141.54 69.86C143.03 70.17 143.13 67.0198 145.05 68.4298C146.53 69.5098 145.09 70.8199 145.18 72.0099C145.33 73.9399 142.98 73.5398 142.06 73.6898C140.02 74.0098 142.53 71.1399 140.62 70.7999C140.75 70.3099 141.06 70 141.54 69.86Z" fill="#75757B"/>
<path d="M141.54 69.86C141.23 70.17 140.93 70.49 140.62 70.8C138.28 70.47 135.74 71 133.28 69.06C136.46 67.54 138.97 69.16 141.54 69.86Z" fill="#C7C4C7"/>
<path d="M149.3 68.1101C148.28 66.3901 146.44 64.9901 147.31 62.6101C147.39 62.3801 148.32 62.17 148.6 62.35C151.06 63.91 149.33 66.1101 149.29 68.1101H149.3Z" fill="#8D9396"/>
<path d="M152.94 56.98C155.06 57.84 155.79 58.77 155.21 60.28C155.1 60.57 154.27 60.91 154.04 60.78C152.68 59.97 152.87 58.68 152.94 56.99V56.98Z" fill="#99A3AA"/>
<path d="M187.64 115.71C191.14 111.21 193.26 107.22 194.74 102.75C196.59 108.9 194.29 112.83 187.64 115.71Z" fill="#8F8A7C"/>
<path d="M202.42 108.89C203.81 110.57 202.66 111.99 201.88 113.33C201.15 114.59 200.57 117.17 198.6 115.65C197.01 114.43 199.8 114.03 200.27 112.94C200.85 111.6 200.2 109.41 202.43 108.89H202.42Z" fill="#D7D7D7"/>
<path d="M198.33 196.57C201.35 195.55 203.13 196.12 203.87 198.9C204.24 200.29 204.18 201.86 202.39 201.9C199.65 201.95 201.96 200.55 201.93 199.78C201.83 197.78 199.51 198.41 198.33 196.58V196.57Z" fill="#C6C9CD"/>
<path d="M208.54 196.25C208.64 197.6 207.84 197.96 207.34 197.77C205.62 197.11 204.42 195.73 203.58 194.14C203.35 193.7 203.83 192.45 204.44 192.84C206.02 193.85 207.36 195.23 208.54 196.25Z" fill="#CDCFD1"/>
<path d="M217.81 196.77C217.67 197.49 218.07 198.59 216.85 198.58C215.74 198.56 215.22 197.61 215.09 196.65C214.97 195.77 215.6 195.06 216.42 194.9C218.02 194.59 217.65 195.91 217.8 196.77H217.81Z" fill="#9DA5A1"/>
<path d="M157.86 143.56C155.79 143.1 154.43 142.8 153.06 142.5C155.39 140.04 154.86 136.39 156.72 133.78C157.16 133.16 158.26 133.35 158.9 134.05C159.49 134.69 158.94 134.86 158.57 135.41C157 137.78 155.36 140.32 157.86 143.56Z" fill="#B5B4B2"/>
<path d="M170.5 229.4C168.78 226.61 172.45 222.79 168.11 220.64C167.58 220.38 169.05 218.65 169.85 218.85C175.39 220.27 173.76 216.64 173.51 213.9C173.49 213.64 173.8 213.34 174.32 212.42C177.04 219.5 170.8 223.74 170.5 229.4Z" fill="#A89C8F"/>
<path d="M135.8 118.65C133.3 118.07 130.01 118.98 129.23 115.61C128.74 113.51 134.92 108.97 137.78 109.5C140.02 109.91 142.51 111.6 142.25 114.07C141.9 117.53 139.06 118.77 135.8 118.66V118.65Z" fill="#E2E1DD"/>
<path d="M109.59 64.0101C109.35 65.5701 108.1 65.6501 107.02 65.8001C105.74 65.9801 104.29 66.1701 103.82 64.4601C103.52 63.3501 104.05 62.35 105.2 62.4C106.77 62.47 108.51 62.4901 109.58 64.0101H109.59Z" fill="#E9EEEF"/>
<path d="M195.36 148.1C194.85 149.2 194.79 150.71 192.97 150.6C191.29 150.51 190.04 149.72 190.07 148.02C190.1 146.62 190.59 144.9 192.52 145.17C193.99 145.38 195.17 146.38 195.35 148.09L195.36 148.1Z" fill="#C9CEC9"/>
<path d="M140.69 202.9C142.55 201.8 143.42 200.37 145.1 200.94C145.36 201.03 145.57 202.28 145.32 202.71C144.32 204.48 142.87 203.8 140.69 202.89V202.9Z" fill="#BFC2C7"/>
<path d="M184.46 69.93C185.72 69.88 186.28 70.4601 186.54 71.2401C186.92 72.4101 186.06 72.6301 185.2 72.5701C184.36 72.5101 183 72.9801 183.1 71.4801C183.14 70.8901 184.07 70.35 184.46 69.94V69.93Z" fill="#96A3A9"/>
</svg>
