<svg width="260" height="452" viewBox="0 0 260 452" fill="none" xmlns="http://www.w3.org/2000/svg">
<path d="M91.36 273.77C100 246.05 98.44 218.29 91.52 190.55C81.23 149.25 66.6 109.41 50.6 70.0401C47.35 62.0401 44.14 54.03 41.1 45.95C38.67 39.48 39.15 38.83 46.03 37.57C46.41 37.97 46.5 38.43 46.31 38.95C43.6 41.06 43.02 43.5401 44.35 46.8101C45.97 50.8101 47.38 54.9001 49.13 58.8601C50.2 61.2801 51.78 61.9299 54.32 61.1499C75.75 54.4999 97.25 48.0401 118.39 40.5301C126.81 37.5401 135.45 35.22 143.48 30.96C146.59 29.31 150.69 28.76 154.28 27.5C158.16 26.14 161.46 24.5301 160.07 19.4001C159.82 18.4701 160.25 17.4301 161.01 16.6601C161.53 16.4401 162.03 16.4901 162.49 16.8101C163.81 18.2101 164.14 20.0401 164.6 21.7901C170.77 45.4001 177.27 68.9101 184.91 92.1001C185.48 93.8301 186.09 95.56 186 97.43C185.26 103.32 188.73 108.18 190.01 113.57C190.64 116.22 192.29 118.97 189.2 121.22C187.32 121.94 185.58 121.19 183.87 120.61C174.41 117.4 164.94 114.26 155.22 111.94C153.47 111.52 151.39 111.13 150.84 109.09C150.26 106.95 152.08 105.87 153.46 104.67C160.48 98.55 167.78 92.77 174.8 86.67C168.25 92.36 161.3 97.5699 154.87 103.4C153.64 104.52 152.22 105.83 150.45 104.9C148.78 104.02 148.76 102.09 148.79 100.44C149.02 87.77 147.76 75.1801 146.73 62.5801C146.68 61.9201 146.9 62.7001 146.69 62.0901C143.41 52.2201 149.19 46.51 156.18 41.35C157.72 40.22 159.08 38.92 160.34 37.5C157.22 40.97 153.18 43.4201 149.97 46.8101C147.89 49.0001 146.52 47.72 145.55 45.48C144.49 43.02 145.17 40.21 143.82 36.98C141.79 40.1 142.55 42.88 142.76 45.48C143.34 52.56 142.52 54.18 135.34 55.96C124.07 58.76 112.72 61.21 101.38 63.73C87.48 66.81 73.79 70.7801 64.72 72.5401C83.22 68.0901 106.6 62.5699 130.01 57.1599C131.5 56.8099 133.21 56.3901 134 58.0301C134.81 59.7301 133.16 60.77 132.1 61.71C122.63 70.09 112.99 78.2701 102.98 86.0201C93.11 93.6601 83.11 101.11 73.15 108.64C87.01 98.3499 100.83 88.0001 114.23 77.1001C122.11 70.6901 129.6 63.8399 137.23 57.1399C141.6 53.2999 142.57 53.7801 143.82 59.3301C144.93 64.2601 144.72 69.29 145 74.25C145.58 84.54 146.61 94.8299 146.46 105.15C146.39 109.93 145.27 110.94 140.96 110.85C122.62 110.47 104.44 112.6 86.26 114.57C82.84 114.94 79.39 115.11 75.6 115.83C95.48 113.51 114.98 111.37 134.61 110.79C135.61 110.76 136.61 110.75 137.61 110.8C138.91 110.87 140.52 110.58 141.06 112.14C141.55 113.54 140.55 114.76 139.58 115.63C135.01 119.75 130.49 123.92 125.91 128.03C114.03 138.71 101.69 148.84 90.87 158.44C106.92 144.65 124.16 129.95 140.87 114.63C141.96 113.63 143.16 112.31 144.76 112.87C146.43 113.46 146.32 115.27 146.44 116.73C147.6 131.85 147.7 147 147.5 162.15C147.46 165.28 146.74 167.54 142.93 167.97C125.53 169.97 108.15 170.32 90.79 167.72C106.37 170.07 121.99 170.22 137.67 168.56C140.18 168.29 143.82 166.66 145.07 169.2C146.53 172.16 142.53 173.5 140.68 174.92C126.53 185.74 114.04 198.39 101.14 210.57C112 200.33 122.64 189.84 134.09 180.25C137.15 177.69 140.43 175.41 143.41 172.74C145.33 171.03 146.69 171.58 147.28 174.05C147.79 176.16 148.35 178.28 148.37 180.44C148.48 190.61 149.83 200.68 150.58 210.8C150.99 216.27 150.5 217.09 145.03 217.04C131.04 216.94 117.11 218.67 103.12 218.16C117.14 218.62 131.12 216.96 145.13 217.21C146.9 217.24 149.1 216.36 149.97 218.59C150.88 220.92 148.9 222.27 147.33 223.42C143.7 226.09 139.81 228.36 135.79 230.37C125.36 235.57 115.27 241.44 104.75 246.46C103.33 247.14 101.52 247.52 100.96 249.73C106 252.3 111.58 253.36 116.93 254.92C124.26 257.06 131.69 258.93 139.2 260.41C140.52 260.67 141.79 261.05 143 261.6C144.11 262.1 145.22 262.89 145.12 264.13C145.01 265.49 143.6 265.71 142.47 265.97C126.1 269.68 109.67 273.1 92.99 275.25C92.09 275.14 91.59 274.58 91.33 273.76L91.36 273.77Z" fill="#162D3A"/>
<path d="M91.36 273.77C91.67 274.16 91.98 274.55 92.29 274.94C108.37 273.6 124.01 269.81 139.7 266.34C142.28 265.77 144.89 265.39 147.47 264.75C151.52 263.74 153.25 265.65 152 269.66C149.04 279.15 143.93 287.53 138.11 295.5C136.59 297.59 134.58 297.62 132.31 296.8C119.96 292.34 107.19 289.3 94.62 285.62C106.16 289.11 117.9 291.88 129.32 295.78C130.58 296.21 131.84 296.65 133.06 297.16C135.17 298.04 134.78 299.3 133.34 300.52C132.7 301.07 131.89 301.33 131.08 301.54C117.57 305.1 104 308.42 90.04 309.69C86.67 310 83.41 311.36 80.97 310.82C91.87 309.82 103.68 308.19 115.35 305.56C118.92 304.76 122.44 303.71 126.02 302.95C128.03 302.52 130.56 300.89 131.96 303.11C133.23 305.14 131.13 307.14 129.99 308.91C123.17 319.58 115.7 329.81 108.68 340.34C105.61 344.94 104.57 344.96 101.03 340.55C94.13 331.98 86.67 324.01 77.8 317.43C86.9 324.21 94.55 332.43 101.57 341.27C103.02 343.09 104.48 345.02 103.36 347.62C102.19 350.33 99.86 351.02 97.23 351.06C90.91 351.14 84.6 351.38 78.28 351.63C69.33 351.99 60.33 351.29 52.91 352.77C64.48 350.83 77.66 352.14 90.77 351.37C93.29 351.22 96.7 350.32 98.05 353.13C99.22 355.57 96.73 357.7 95.36 359.74C87.83 370.96 80.96 382.54 75.53 394.94C74.93 396.31 74.3 397.68 73.59 399C72.61 400.84 72.24 403.73 69.67 403.62C67.27 403.52 66.68 400.76 65.71 398.89C63.09 393.87 60.53 388.81 58.23 383.64C54.71 375.73 50.59 368.1 46.95 360.25C52.34 372.95 59.13 384.99 64.68 397.61C67.5 404.02 66.84 405.48 59.85 405.01C48.57 404.24 37.35 402.61 26.08 401.65C19.98 401.13 13.92 399.86 7.75 400.37C7.2 400.31 6.75 400.08 6.37 399.68C13.32 389.93 21.65 381.32 29.29 372.15C51.01 346.09 70.98 318.87 85.34 287.92C87.5 283.27 89.36 278.49 91.35 273.76L91.36 273.77Z" fill="#122837"/>
<path d="M7.59002 430.68C6.63002 428.7 5.66 426.73 4.7 424.75C1.16 419.97 0.880006 414.65 2.39001 409.18C3.83001 403.99 5.81998 402.89 11.24 403.67C26.16 405.82 39.67 411.67 52.48 419.36C59.34 423.48 65.43 428.65 71.44 433.9C69.26 432.2 66.9 430.71 65.58 428.12C65.56 427.62 65.68 427.15 65.93 426.71C71.58 427.96 75.46 431.9 78.21 436.39C79.94 439.23 81.68 441.88 83.96 444.26C85.08 445.43 86.76 446.7 86.06 448.41C85.44 449.92 83.3 448.86 82 449.6C65.85 452.07 49.97 450.81 34.33 446.21C24.22 443.09 15.09 438.28 7.59002 430.67V430.68Z" fill="#E9C19E"/>
<path d="M160.37 8.75003C160.91 11.45 161.44 14.15 161.98 16.84C161.58 16.88 161.18 16.92 160.79 16.95C157.64 15.22 158.2 11.81 157.34 9.09C155.83 4.31 154.97 3.62002 150.2 5.49002C131.01 13.03 111.42 19.44 92.02 26.38C91.56 26.62 91.08 26.81 90.59 26.98C79.99 30.75 69.25 34.08 58.47 37.22C54.49 38.38 50.48 40.62 46.07 38.71C46.07 38.33 46.05 37.95 46.05 37.57C77.43 29.34 107.8 18.0601 138.17 6.79007C142.51 5.18007 146.81 3.46005 151.12 1.77005C156.95 -0.509946 158.11 0.109991 159.73 6.32999C159.94 7.12999 160.17 7.93001 160.39 8.73001L160.37 8.75003Z" fill="#36302A"/>
<path d="M66.14 428.21C69.5 431.19 72.87 434.17 76.23 437.15C76.01 437.41 75.79 437.67 75.57 437.93C71.72 434.96 67.89 431.94 64.01 429.01C49.02 417.72 32.89 408.83 14.11 405.63C4.23996 403.95 0.00997329 408.7 2.55997 418.66C3.08997 420.73 3.97999 422.72 4.69999 424.74C-0.570012 420.43 0.649963 414.65 1.54996 409.19C2.12996 405.67 3.91998 402.41 6.37998 399.67C6.66998 399.69 6.94997 399.7 7.23997 399.69C8.22997 400.2 9.62995 399.55 10.35 400.79C10.42 401.35 10.02 402.25 10.96 402.35C27.04 404.06 41.04 411.23 54.84 418.95C55.27 419.19 55.7499 419.34 56.2199 419.52C58.6399 420.57 60.52 422.39 62.57 423.97C64.05 425.13 65.69 426.16 66.13 428.2L66.14 428.21Z" fill="#282119"/>
<path d="M7.59003 430.68C9.46003 430.31 10.11 431.98 11.13 432.91C17.69 438.88 25.59 442.41 33.76 445.47C33.2 446.06 32.55 446.2 31.8 445.89C30.25 445.51 28.69 445.12 27.14 444.74C20.04 440.87 12.31 437.88 7.59003 430.68Z" fill="#372F27"/>
<path d="M66.14 428.21C64.83 427.05 63.52 425.9 62.21 424.74C62.53 421.2 64.12 418.03 65.09 414.68C66.43 410.05 65.9 408.82 61.11 408.51C53.13 408 45.19 407.2 37.26 406.22C30.67 405.41 24.15 404.03 17.5 403.61C15.04 402.51 12.01 402.96 9.95001 400.81C8.95001 400.69 7.67999 401.21 7.23999 399.71C13.51 397.48 19.7 399.83 25.88 400.28C39.13 401.26 52.34 402.84 66.47 404.27C61.01 392.93 55.94 382.4 50.87 371.87C48.85 367.69 46.84 363.5 44.8 359.33C44.26 358.22 42.87 356.99 44.69 356.08C46.57 355.14 46.76 357.12 47.28 358.18C54.32 372.46 61.32 386.75 68.35 401.04C68.71 401.78 69.16 402.48 69.95 403.89C77.73 385.79 86.76 368.94 98.76 352.61C81.17 352.52 64.2 352.42 47.08 353.82C47.46 351.14 49.25 351.79 50.52 351.73C66.15 351.05 81.79 350.42 97.42 349.78C99.34 349.7 101.17 350.14 102.49 347.74C103.9 345.18 102.19 344 101.07 342.55C93.71 333.03 85.54 324.31 75.66 317.3C74.72 316.63 72.49 316.18 73.61 314.57C75 312.56 76.17 314.83 77.19 315.55C87.94 323.09 96.48 332.84 104.79 343.61C114.03 330.04 123.12 316.67 132.67 302.64C113.52 307.68 94.94 311.47 75.72 311.1C95.49 308.59 114.95 304.69 134.23 298.27C119.16 293.88 104.09 289.5 88.84 285.06C89.89 282.96 91.17 283.75 92.09 283.99C105.89 287.55 119.73 290.99 133.07 296.11C134.51 296.66 135.61 297.56 136.79 295.65C142.62 286.21 149.07 277.09 151.8 265.51C143.41 266.17 135.61 268.45 127.75 270.22C116.89 272.66 105.98 274.72 94.92 276.01C93.81 276.14 92.56 276.83 92.29 274.95C96.51 272.12 101.53 272.68 106.17 271.97C119.08 269.99 131.71 266.74 144.64 263.29C139.15 261.91 133.65 260.59 128.18 259.13C119.54 256.81 110.93 254.41 102.31 252C100.94 251.62 98.77 251.87 98.53 250.2C98.24 248.11 100.28 247.28 101.94 246.43C112.13 241.21 122.34 236.01 132.47 230.68C138.7 227.41 144.95 224.12 151.22 218.57C132.74 217.9 115.51 220.5 97.89 218.92C99.34 216.11 101.23 216.93 102.73 216.89C117.05 216.46 131.37 216.05 145.69 215.78C148.7 215.72 149.92 215.49 149.48 211.68C148 198.69 147.15 185.62 146.02 172.11C129.03 185.54 114 200.5 97.63 213.98C112.1 197.84 127.54 182.74 145.23 169.72C125.72 170.87 106.36 172.47 87.3 168.06C87.33 167.52 87.36 166.98 87.38 166.44C94.2 166.95 101.03 167.45 107.85 167.99C119.7 168.93 131.47 167.78 143.25 166.8C145.25 166.63 146.22 166.08 146.21 163.84C146.14 146.94 146.17 130.03 145.53 113.06C125.66 130.29 106.32 147.22 86.29 163.83C85.27 160.65 87.79 159.69 89.19 158.45C102.26 146.85 115.46 135.38 128.57 123.81C132.65 120.21 136.56 116.44 141.53 111.83C116.97 111.76 93.96 115.74 69.94 117.22C70.85 115.73 71.04 115.05 71.31 115.02C93.94 112.33 116.58 109.52 139.42 109.59C143.82 109.6 145.53 108.83 145.21 104.01C144.13 87.76 143.8 71.47 142.04 54.5C119.01 75.82 94.56 94.4699 69.15 111.94C90.04 93.2999 113.62 77.8799 134.66 57.4199C126.84 59.2099 120.08 60.7301 113.34 62.3101C95.74 66.4301 78.17 70.6501 60.53 74.5701C58.68 74.9801 55.35 77.19 54.6 74.04C54.16 72.18 57.79 72.94 59.54 72.52C84.36 66.56 109.2 60.7401 134.04 54.8601C135.49 54.5201 136.91 54.0401 138.34 53.6001C141.26 52.6801 142.68 51.19 141.74 47.72C140.92 44.71 141.12 41.44 140.59 38.33C140.09 35.39 142.5 35.4801 143.97 35.0601C146.31 34.3801 145.46 36.57 145.69 37.63C146.36 40.7 145.98 43.9499 147.4 47.4399C152.87 42.7399 158.18 38.18 163.48 33.63C159.98 39.81 154.45 44.0001 149.62 48.8501C148.21 50.2701 146.92 51.4399 147.2 53.8799C149.1 70.5599 150.22 87.2999 150.34 105.15C158.36 98.5499 165.66 92.43 173.12 86.49C174.69 85.24 176.71 81.7599 178.25 83.6499C180.34 86.2099 176.15 87.01 174.71 88.29C167.62 94.59 160.24 100.56 152.99 106.68C152.28 107.28 151.22 107.72 151.39 109.57C164.16 112.12 176.37 117.24 189.11 120.65C190.37 120.43 191.12 121.18 191.13 122.24C191.13 123.13 190.16 123.51 189.31 123.62C186.75 123.95 184.37 123.06 182 122.31C174.22 119.87 166.5 117.24 158.55 115.41C152.92 114.11 152.67 114.51 152.46 120.21C151.98 133.03 154.16 145.77 153.48 158.58C153.29 162.13 154.8 163.03 158.03 161.82C171.12 156.92 184.3 152.24 196.07 144.44C197.36 143.59 198.59 141.83 200.44 143.02C202.01 144.03 201.74 145.96 202.06 147.55C202.29 148.73 201.85 149.85 201.46 150.95C193.4 173.8 183.11 195.27 162.9 211.79C183.12 204.84 200.67 195.16 217.9 184.81C219.9 183.61 221.76 181.34 224.63 182.79V183.18L225.02 183.26C225.94 186.72 222.86 187.44 221.01 188.68C203.36 200.54 184.49 209.99 164.37 216.9C157.38 219.3 157.13 219.28 157.5 226.52C158.05 237.33 158.74 248.12 158.46 258.95C158.37 262.3 160.29 264.48 162.44 266.67C175.39 279.87 188.72 292.68 202.15 305.38C203.48 306.64 204.83 307.9 205.73 309.53C206.23 310.44 206.5 311.38 205.71 312.3C204.81 313.35 203.73 313.4 202.56 312.86C201.01 312.14 199.86 310.92 198.69 309.74C186.25 297.21 172.91 285.61 160.72 272.82C157.43 269.37 157.19 269.44 155.7 273.78C153.09 281.4 149.33 288.45 145.17 295.29C143.13 298.64 144.05 299.91 147.68 300.58C163.74 303.55 179.48 307.98 195.41 311.54C197.74 312.06 201.42 312.33 200.91 315.37C200.31 318.96 196.75 317.71 194.25 317.14C179.96 313.88 165.76 310.19 151.47 306.94C150.09 306.63 148.67 305.77 147.09 306.65C147.19 308.97 148.75 310.58 149.86 312.38C156.15 322.6 161.94 333.1 167.57 343.69C168.2 344.87 168.8 346.06 169.26 347.31C170.01 349.34 170.24 351.63 167.98 352.49C166.09 353.2 165.25 350.99 164.58 349.58C158.08 335.85 150.18 322.91 142.2 310.02C139.35 305.42 139.46 305.45 136.45 309.63C128.88 320.2 121.87 331.15 114.63 341.94C113.44 343.71 111.98 345.35 111.4 347.92C118.82 348.97 126.25 349.11 133.54 350.41C142.08 351.93 150.6 353.58 158.47 357.43C160.37 358.36 163.47 358.74 162.19 362.17C160.91 365.6 158.33 364.62 155.94 363.7C142.61 358.58 128.81 355.73 114.57 354.85C110.23 354.58 110.12 354.62 112.03 358.59C118.67 372.41 126.28 385.73 133.39 399.3C134.24 400.92 135.18 402.53 135.39 404.39C135.55 405.78 135.22 407.21 133.8 407.7C132.5 408.15 131.58 407.05 131.01 406.05C128.52 401.72 126.01 397.39 123.77 392.93C118.4 382.21 112.35 371.84 107.22 360.98C104.92 356.11 104.53 356.13 101.64 360.4C93.32 372.69 85.39 385.21 79.09 398.69C77.12 402.92 77.26 403.35 81.91 404.12C95.39 406.36 108.78 409.05 122.03 412.43C124.17 412.98 127.76 413.04 127.22 415.87C126.58 419.17 123.16 417.76 120.87 417.25C108.02 414.37 95.16 411.6 82.14 409.61C81.15 409.46 80.17 409.24 79.18 409.16C75 408.83 74.25 409.63 75.81 413.62C78.96 421.69 81.97 429.82 85.62 437.68C86.67 439.95 87.73 442.22 88.39 444.64C88.68 445.71 89.19 447.09 87.74 447.68C86.65 448.11 85.95 447.02 85.32 446.32C80.81 441.34 77.54 435.58 74.76 429.49C73.14 425.94 72.37 422 70.16 418.42C67.86 421.05 68.71 424.66 66.27 426.74C66.22 427.23 66.17 427.73 66.12 428.22L66.14 428.21Z" fill="#FDFCF5"/>
<path d="M224.67 182.79C217.47 186.91 210.27 191.05 203.06 195.15C190.19 202.47 176.7 208.42 162.79 213.46C162.06 213.72 161.23 213.72 159.78 213.95C161.92 211.85 163.51 210.19 165.2 208.64C182.87 192.4 192.69 171.43 200.79 149.45C201.18 148.4 201.16 147.15 201.13 146C201.09 144.01 201 142.71 198.37 144.52C185.24 153.53 170.39 158.87 155.52 164.14C153.01 165.03 152.05 165.08 152.01 161.94C151.81 146.78 151.54 131.62 150.98 116.48C150.84 112.7 151.92 112.46 155.17 113.13C166.24 115.43 176.74 119.67 187.63 122.52C188.59 122.77 190.02 123.62 190.67 122.25C191.05 121.44 189.84 121.04 189.14 120.65C190.42 118.95 189.82 117.29 189.2 115.52C187.68 111.17 186.32 106.75 184.85 102.38C184.32 100.81 183.5 99.2801 185.01 97.8101C190.35 113.97 196.05 129.99 202.69 145.68C208.36 159.08 215.54 171.5 224.68 182.81L224.67 182.79Z" fill="#122937"/>
<path d="M91.03 25.7199C100.41 21.3499 110.44 18.76 120.09 15.12C130.28 11.28 140.54 7.61992 150.75 3.82992C156.54 1.67992 156.62 1.68991 158.15 7.44991C158.99 10.6299 159.91 13.7899 160.79 16.9599C161.93 25.7299 161.97 25.84 153.55 29.17C123.03 41.27 91.69 50.9699 60.35 60.6499C49.45 64.0099 49.43 63.94 45.25 52.99C44.36 50.67 43.63 48.28 42.55 46.05C40.59 42.02 41.39 39.4899 46.06 38.7199C60.34 35.9199 74.07 31.2299 87.73 26.3599C88.84 25.9699 89.87 25.5499 91.05 25.7299C92.72 29.5699 93.9 33.58 95.15 37.56C93.83 33.6 92.87 29.5099 91.03 25.7299V25.7199Z" fill="#F0DBB5"/>
<path d="M66.29 426.73C66.39 422.36 68.18 418.5 70.16 413.41C74.71 425.99 78.62 437.78 87.53 447.31C87.46 444.78 86.35 442.96 85.56 441.02C81.63 431.34 77.72 421.66 73.78 411.99C72.38 408.55 72.28 406.75 77.17 407.46C92.47 409.69 107.55 412.92 122.64 416.21C124.14 416.54 125.7 417.43 128.23 415.63C110.41 410.28 92.89 407.52 75.01 404.22C82.79 386.02 93.49 369.75 105.01 353.04C114.09 371.74 123.56 389.52 133.11 407.39C135.85 405.39 133.91 403.71 133.11 402.15C125.74 387.85 118.29 373.58 110.9 359.29C109.85 357.25 108.93 355.15 107.73 352.61C124.77 354.18 141.2 356.03 156.67 362.65C158.47 363.42 160.37 364.86 161.49 361.96C162.64 358.97 159.63 359.36 158.39 358.8C142.76 351.77 126.03 350.38 108.34 349.41C118.29 333.41 128.72 318.18 139.52 302.78C149.41 319.01 159.38 334.95 167.34 352.12C170.18 350.27 168.21 348.57 167.48 347.01C161.9 335.12 155.26 323.82 148.42 312.62C146.79 309.95 145.27 307.22 143.1 303.48C155.84 306.52 167.51 309.31 179.18 312.09C184.83 313.44 190.48 314.74 196.12 316.14C197.94 316.59 199.7 317.24 201.41 314.82C196.47 312.69 191.27 311.96 186.25 310.78C172.69 307.59 159.1 304.49 145.47 301.6C141.12 300.68 140.97 299.35 143.25 295.77C148.87 286.93 153.63 277.62 156.35 267.27C158.79 267.93 160.08 269.97 161.68 271.51C174.47 283.92 187.2 296.4 199.94 308.86C200.89 309.79 201.84 310.73 202.83 311.62C203.56 312.28 204.31 313.08 205.35 312C206.58 310.72 205.09 310.3 204.54 309.77C200.16 305.44 195.69 301.19 191.29 296.87C180.71 286.48 170.17 276.05 159.57 265.69C158.08 264.23 157.28 262.84 157.32 260.56C157.57 247.56 156.69 234.59 155.66 221.64C155.44 218.84 156.19 218.15 158.76 217.36C180.63 210.62 200.83 200.32 220 187.92C221.93 186.67 224.06 185.55 225.08 183.27C235.31 192.01 245.04 201.29 252.05 212.87C258.94 224.24 261.46 236.6 258.2 249.79C257.52 249.72 257.03 249.35 256.65 248.81C256.45 248.43 256.31 248.03 256.23 247.61C256.16 247.19 256.15 246.77 256.17 246.34C256.26 245.3 256.62 244.3 256.77 243.27C256.79 242.85 256.83 242.43 256.87 242.01C256.92 240.93 256.9 239.86 256.87 238.79C256.83 238.35 256.83 237.9 256.83 237.46C256.87 235.65 256.34 233.93 256.02 232.18C255.94 231.74 255.9 231.3 255.86 230.86C255.81 229.34 255.4 227.88 255.06 226.41C254.88 225.59 254.69 224.77 254.44 223.97C254.23 223.38 254.06 222.78 253.86 222.18C253.62 221.59 253.37 221 253.1 220.42C251.6 216.92 249.35 213.86 247.3 210.69C246.9 210.14 246.51 209.58 246.09 209.04C242.64 204.42 238.27 200.6 234.77 196.03C233.07 193.8 231.6 194.29 229.99 196.11C227.15 199.32 223.85 202.04 220.52 204.71C220.22 205.04 219.88 205.34 219.55 205.64C218.09 206.94 216.7 208.33 215.16 209.55C214.5 210.12 213.98 210.8 213.44 211.47C210.94 214.37 207.46 216.18 205 219.12C204.54 219.61 204.06 220.07 203.58 220.54C201.93 222.34 199.74 223.53 198.18 225.42C197.9 225.77 197.59 226.09 197.25 226.39C194.18 228.91 191.19 231.52 188.1 234.02C187.65 234.48 187.17 234.92 186.7 235.36C185.46 236.52 184.25 237.73 182.81 238.65C181.92 239.25 181.11 239.95 180.37 240.73C176.3 245.09 176.33 245.34 181.48 250.84C181.97 251.31 182.44 251.79 182.91 252.28C184.42 253.91 186.1 255.39 187.5 257.13C188.03 257.81 188.54 258.51 189.14 259.13C190.3 260.39 191.32 261.77 192.56 262.97C193.03 263.42 193.48 263.89 193.92 264.36C195.28 265.77 196.28 267.47 197.57 268.93C198.02 269.4 198.47 269.88 198.92 270.35C199.99 271.46 201.04 272.58 201.89 273.86C202.28 274.38 202.66 274.92 203.07 275.42C204.2 276.76 205.56 277.9 206.61 279.32C207.12 280.04 207.6 280.78 208.18 281.46C212.85 286.69 217.87 291.61 221.94 297.36C222.37 298.47 222.22 299.61 222.08 300.75C211.06 309.8 199.71 318.41 189.81 328.81C175.15 344.22 163.51 361.63 152.99 380.02C142.1 399.06 130.29 417.56 114.82 433.35C106.12 442.23 95.77 448.17 83.24 449.8C82.97 449.58 82.87 449.36 82.96 449.13C83.05 448.9 83.14 448.79 83.23 448.79C83.69 448.06 87.41 449.14 84.89 447.16C78.63 442.24 76.9 433.52 69.55 429.66C68.3 429 67.38 427.72 66.31 426.72L66.29 426.73Z" fill="#122937"/>
<path d="M257.39 248.68C257.65 249.05 257.91 249.41 258.18 249.78C257.98 256.83 254.66 262.83 251.42 268.77C244.3 281.83 234.07 292.12 222.07 300.75C220.89 299.77 221.18 298.46 221.29 297.19C225.91 293.99 230.26 290.46 234.18 286.43C234.64 285.94 235.12 285.49 235.6 285.03C237.04 283.7 238.38 282.29 239.45 280.63C240.57 279.06 242.05 277.81 243.28 276.34C243.65 275.83 244.02 275.32 244.37 274.8C245.3 273.41 246.22 272.01 247.16 270.62C247.61 269.95 248.05 269.26 248.44 268.56C249.04 267.52 249.56 266.45 250.04 265.35C250.19 264.97 250.38 264.61 250.57 264.25C251.28 262.98 251.9 261.66 252.42 260.3C252.65 259.67 252.85 259.03 253.07 258.39C254.86 255.31 254.3 251.19 257.38 248.7L257.39 248.68Z" fill="#221C14"/>
<path d="M83.22 448.8C83.22 449.13 83.22 449.47 83.23 449.8C76.22 452.25 68.92 452.12 61.7 451.73C51.49 451.19 41.35 449.96 31.8 445.89C32.45 445.75 33.11 445.61 33.76 445.47C47.75 449.06 61.91 450.92 76.37 449.59C78.66 449.38 80.93 449.07 83.22 448.8Z" fill="#4D433D"/>
<path d="M17.12 402.63C28.12 402.72 38.84 405.43 49.78 406.13C55.09 406.47 60.38 407.02 65.68 407.42C67.3 407.54 68.86 407.67 68.19 409.91C66.73 414.81 65.2 419.68 63.62 424.54C63.55 424.74 62.7 424.69 62.21 424.75C59.85 424.13 58.46 422.16 56.66 420.76C47.74 415.46 38.75 410.33 28.85 407C25.57 405.89 22.24 405 18.88 404.23C17.94 404.01 16.79 404.2 17.12 402.64V402.63Z" fill="#0D283A"/>
<path d="M17.12 402.63C24.76 405.05 32.63 406.73 39.82 410.5C45.66 413.56 51.67 416.3 56.66 420.75C54.39 421.19 53.01 419.42 51.38 418.47C36.17 409.55 23.64 405.19 6.84996 403.14C6.82996 400.94 9.59 402.45 9.95 400.82C12.54 400.64 14.87 401.49 17.13 402.63H17.12Z" fill="#C9D0D0"/>
<path d="M155.3 214.64C153.24 199.46 153.05 184.83 152.18 170.24C152 167.31 154.11 167.28 155.93 166.62C170.58 161.29 185.16 155.8 198.68 147.51C190.63 173.81 176.87 196.2 155.31 214.64H155.3Z" fill="#142A37"/>
<path d="M100.58 249.67C117.84 241.42 134.11 233.02 150.29 223.88C151.18 235.91 152.42 247.78 152.35 259.74C152.34 261.89 152.28 263.22 149.39 262.45C133.44 258.18 117.44 254.06 100.58 249.67Z" fill="#132B39"/>
<path d="M91.03 25.72C94.03 29.6 94.58 34.3801 95.78 38.9301C93.53 34.7801 91.89 30.39 91.05 25.72H91.03Z" fill="#AF997A"/>
<path d="M257.39 248.68L253.96 259.64C252.3 260.99 250.32 261.43 248.34 260.93C243.75 259.78 239.1 260.04 234.5 260.22C220.42 260.76 206.41 258.68 192.34 259.13C190.49 259.19 188.72 258.79 187.09 257.87C185.27 256.35 183.38 254.9 182.21 252.76C187.3 251.78 192.42 252.16 197.52 252.56C215.84 254.02 234.17 252.84 252.49 253.06C253.13 252.61 252.31 251.72 252.59 252.32C252.71 252.58 252.5 252.67 252.46 252.79C252.33 253.15 252.14 253.22 251.72 253.22C233.46 252.85 215.17 254.16 196.94 252.37C191.67 251.85 186.34 252.97 181.11 251.73C180.62 251.3 180.1 250.91 179.65 250.45C176.117 246.757 176.273 243.203 180.12 239.79C187.53 238.61 194.91 239.62 201.18 239.24C196.94 239.24 191.54 239.34 186.15 239.17C184.83 239.13 182.7 240.51 182.18 237.81C183.47 236.78 184.76 235.74 186.05 234.71C189.12 233.84 192.2 234.36 195.03 234.37C192.68 233.75 189.87 234.93 187.32 233.73C190.22 230.64 193.19 227.64 196.97 225.6C199.8 223.66 203.02 224.57 206.09 224.34C209.83 224.06 213.65 225.01 217.31 223.62C219.5 222.53 221.29 220.79 223.57 219.85C226.19 219.38 228.84 218.75 231.16 220.75C231.64 222.96 229.24 223.11 228.56 224.44C235.91 224.29 243.2 224.35 250.5 224.37C252.46 224.37 254.54 224.13 256.01 225.94L256.98 230.64C255.12 232.24 252.85 231.87 250.75 231.72C237.94 230.76 225.12 231.45 212.3 231.28C207.74 231.22 203.39 229.76 200.36 230.08C203.45 229.92 207.89 231.31 212.54 231.3C227.35 231.29 242.17 231.02 256.97 231.92C257.59 233.77 258.11 235.63 257.83 237.61C255.67 238.91 253.25 238.42 251.06 238.13C239.34 236.6 227.59 237.19 215.84 237.27C215.49 237.27 215.26 237.44 215.16 237.83C214.51 238 215.58 238.36 215.18 237.83C215 237.59 215.09 237.43 215.45 237.42C229.63 236.94 243.8 236.7 257.89 238.9V242.58C251.5 243.87 245.14 243.48 238.79 242.24C227.88 242.21 216.97 242.3 206.07 241.98C206.07 241.75 206.06 241.75 206.06 241.75C205.94 241.94 206.06 242.08 206.42 242.09C217.2 242.48 227.98 242.15 238.76 242.26C244.98 244.4 251.59 242.17 257.85 243.95C257.62 244.88 257.39 245.81 257.16 246.73C252.97 247.92 248.68 246.82 245.13 247.24C248.68 247.68 252.97 246.55 257.15 247.77C257.24 248.07 257.32 248.38 257.41 248.68H257.39Z" fill="#F3DEB4"/>
<path d="M204.16 218.75C206.74 215.66 209.67 212.95 212.96 210.63C216.32 208.61 220.04 209.52 223.62 209.33C227.73 209.11 231.87 209.74 235.96 208.89C236.53 208.71 237.11 208.59 237.71 208.51C241.23 208.44 244.84 207.64 248.09 209.81C250.45 213.24 252.93 216.6 254.08 220.69C250.5 223.4 246.18 222.65 242.53 221.96C232.11 219.98 221.75 220.82 211.34 221.13C208.74 221.21 205.89 221.52 204.17 218.75H204.16Z" fill="#F2DDB4"/>
<path d="M214.25 208.84C215.86 207.45 217.47 206.07 219.08 204.68C223.19 206.07 227.48 204.65 229.72 205.09C227.46 204.83 223.18 205.88 219.04 204.73C222.85 201.02 226.72 197.38 230.43 193.57C231.73 192.23 232.4 191.89 233.89 193.43C238.58 198.29 243.12 203.26 247.12 208.71C243.88 210.15 240.3 208.27 237.07 209.75L237.17 209.71C229.87 210.83 222.53 209.98 215.21 210.15C214.45 210.17 214.11 209.61 214.26 208.83L214.25 208.84Z" fill="#F2E2BC"/>
<path d="M240.07 280.7C240.09 283.42 237.95 284.48 236.14 285.79C228.75 286.92 221.27 285.65 214.84 286.35C220.98 286.4 228.1 285.71 235.2 286.73C232.3 291.15 227.37 293.41 223.97 297.32C223.18 298.23 222.17 297.68 221.29 297.19C216.57 292.04 211.85 286.88 207.13 281.73C206.98 280.66 207.65 280.12 208.52 280.16C217.89 280.63 227.23 280.24 236.56 279.4C237.54 279.31 238.52 279.56 239.41 280.07C239.63 280.28 239.85 280.49 240.07 280.71V280.7Z" fill="#F6DCAE"/>
<path d="M253.3 260.73C252.88 262.23 252.46 263.73 251.19 264.79C249.96 265.76 248.53 266.17 247 266C231.14 264.2 215.23 265.62 199.35 265.18C196.85 265.11 194.36 265.21 192.18 263.68L188.21 259.67C188.22 257.71 189.75 258.29 190.75 258.28C208.36 258.07 225.92 259.8 243.54 259.42C246.69 259.35 250.09 259.95 253.3 260.74V260.73Z" fill="#F3DEB3"/>
<path d="M250.83 265.84C250.3 266.83 249.77 267.83 249.24 268.82C247.97 269.69 246.56 270.13 245.03 270.12C230.95 270 216.91 271.85 202.81 271.18C200.78 271.08 198.86 270.76 197.09 269.74C195.45 268.34 194.03 266.78 193.22 264.74C197.31 263.63 201.51 264.08 205.6 264.33C219.89 265.2 234.21 264.12 248.49 265.24C249.32 265.3 250.16 265.21 250.83 265.84Z" fill="#F3DCAF"/>
<path d="M248.13 270.75C247.07 272.38 246.01 274 244.95 275.63C243.12 277.07 240.94 277.42 238.78 277.06C228.51 275.36 218.17 276.51 207.87 276.18C205.52 276.11 203.19 276.14 201.18 274.64C200.13 273.35 199.09 272.06 198.04 270.77C199.07 269.99 200.28 270.24 201.41 270.27C215.52 270.64 229.59 269.79 243.68 269.34C245.12 269.29 247.42 267.95 248.12 270.76L248.13 270.75Z" fill="#F5E0B7"/>
<path d="M244.01 276.73C243.46 278.82 241.76 279.76 240.07 280.7L240.12 280.73C237.07 279.66 233.85 279.88 230.87 280.39C222.47 281.83 214.18 281.36 205.87 279.94C204.39 278.77 203.03 277.49 202.2 275.74C213.7 275.12 225.21 274.44 236.68 276.14C239.12 276.5 241.64 275.65 244.02 276.72L244.01 276.73Z" fill="#F3DDB1"/>
<path d="M250.83 265.84C231.63 265.47 212.43 265.11 193.22 264.74C192.87 264.39 192.53 264.03 192.18 263.68C211.85 263.94 231.55 262.83 251.19 264.79C251.07 265.14 250.95 265.49 250.83 265.84Z" fill="#B39F81"/>
<path d="M223.11 221.01C222.24 222.76 219.74 222.79 219.1 224.79C211.87 225.33 204.64 225.92 197.44 224.5L203.05 219.7C208.15 220.47 213.29 220.17 218.41 220.3C219.98 220.34 221.74 219.57 223.11 221.01Z" fill="#F2E2BC"/>
<path d="M227.12 224.63C227.89 222.74 229.07 221.43 231.33 221.63C234.62 219.74 238.04 221.09 241.38 221.3C245.87 221.57 250.44 220.36 254.86 221.99C254.99 222.53 255.12 223.08 255.26 223.62C255.36 224.37 255.05 225.12 254.35 225.11C245.27 225 236.18 225.93 227.12 224.63Z" fill="#F2E2BC"/>
<path d="M181.1 251.72C205.01 252.24 228.91 253.14 252.84 253.05C229.29 254.23 205.74 253.82 182.2 252.76C181.83 252.41 181.47 252.07 181.1 251.72Z" fill="#A08E6C"/>
<path d="M253.3 260.73C240.41 259.43 227.45 260.3 214.56 259.56C207.12 259.13 199.68 258.87 192.24 258.78C190.89 258.76 189.22 257.91 188.21 259.67C187.39 259.35 187.07 258.71 187.08 257.87C201.96 256.63 216.77 259.41 231.63 258.65C239.11 258.26 246.51 259.53 253.96 259.64C253.74 260.01 253.52 260.37 253.3 260.74V260.73Z" fill="#9E8D68"/>
<path d="M256.94 231.89C254.92 232.98 252.68 232.89 250.58 232.6C239.15 231.02 227.66 231.95 216.21 231.86C209.89 231.81 203.69 230.75 197.42 230.09C217.26 231.2 237.11 230.73 256.95 230.62C256.95 231.05 256.95 231.47 256.95 231.9L256.94 231.89Z" fill="#B19D79"/>
<path d="M254.86 221.98C247.02 221.86 239.17 221.75 231.33 221.63C228.69 220.18 225.88 220.9 223.11 221.01C216.44 220.32 209.61 222.02 203.05 219.7C203.42 219.38 203.79 219.07 204.16 218.75C212 220.55 219.96 219.46 227.85 219.66C236.6 219.88 245.29 221.3 254.07 220.69C254.33 221.12 254.59 221.55 254.86 221.98Z" fill="#9A8A6B"/>
<path d="M248.13 270.75C245.28 268.74 241.98 269.64 239.07 269.96C225.4 271.46 211.72 270.36 198.05 270.77C197.73 270.43 197.41 270.09 197.09 269.75C214.49 270.46 231.84 268.22 249.24 268.83C248.87 269.47 248.5 270.12 248.14 270.76L248.13 270.75Z" fill="#B7A47D"/>
<path d="M257.88 238.88C243.35 237.89 228.8 237.44 214.24 237.31C228.78 235.7 243.29 236.96 257.81 237.59C257.84 238.02 257.86 238.45 257.89 238.88H257.88Z" fill="#B4A17D"/>
<path d="M244.01 276.73C230.09 275.4 216.13 275.89 202.19 275.75C201.86 275.38 201.53 275.01 201.19 274.64C215.78 274.69 230.38 274.52 244.95 275.63C244.64 276 244.32 276.37 244.01 276.73Z" fill="#A38E6B"/>
<path d="M205.86 279.94C216.39 280.9 226.91 280.25 237.44 279.78C238.44 279.74 239.44 279.81 240.12 280.73C229.13 281.22 218.16 282.27 207.14 281.72C206.71 281.13 206.29 280.54 205.86 279.94Z" fill="#A89675"/>
<path d="M227.12 224.63C235.33 224.66 243.55 224.7 251.76 224.69C252.99 224.69 254.46 225.16 255.25 223.62C256.1 224.19 255.98 225.08 255.98 225.92C245.78 225.92 235.59 225.92 225.32 225.92C225.42 224.37 226.59 225.04 227.11 224.63H227.12Z" fill="#8F7F5D"/>
<path d="M182.17 237.79C186.23 239.81 190.55 238.29 194.73 238.67C197.48 238.92 200.26 238.72 203.03 239.77C195.39 239.77 187.76 239.77 180.12 239.77C180.8 239.11 181.49 238.45 182.17 237.79Z" fill="#897857"/>
<path d="M214.25 208.84C221.83 210.66 229.53 209.19 237.16 209.72C229.16 211.89 221.03 210.47 212.96 210.63C213.39 210.04 213.82 209.44 214.25 208.84Z" fill="#8B7D5D"/>
<path d="M197.44 224.5C204.66 224.6 211.88 224.69 219.1 224.79C211.78 226.69 204.35 225.7 196.96 225.59C197.12 225.23 197.28 224.87 197.44 224.51V224.5Z" fill="#8F7F5D"/>
<path d="M239.07 241.87C245.31 242.93 251.6 242.83 257.89 242.56C257.87 243.02 257.85 243.48 257.82 243.93C251.59 243.15 245.19 244.84 239.07 242.61C238.76 242.44 238.65 242.28 238.76 242.11C238.86 241.94 238.97 241.86 239.07 241.86V241.87Z" fill="#9C8B6B"/>
<path d="M257.13 247.76H245.27C245.27 247.41 245.27 247.07 245.26 246.72C249.22 246.72 253.18 246.72 257.13 246.72C257.13 247.07 257.13 247.41 257.13 247.76Z" fill="#9C8B6B"/>
<path d="M237.06 209.77C240.23 207.71 243.79 209.37 247.11 208.73C247.43 209.09 247.76 209.45 248.08 209.82C244.41 209.81 240.73 209.79 237.06 209.77Z" fill="#8B7D5D"/>
<path d="M187.3 233.71H196.01C196.02 234.04 196.03 234.37 196.04 234.69C192.7 234.69 189.37 234.69 186.03 234.69C186.45 234.36 186.88 234.03 187.3 233.71Z" fill="#978967"/>
<path d="M235.2 286.73H214.34C214.34 286.42 214.34 286.11 214.33 285.8C221.6 285.8 228.87 285.8 236.14 285.8C235.83 286.11 235.51 286.42 235.2 286.73Z" fill="#A28964"/>
<path d="M231.95 248.17C214.69 249.42 197.42 248.24 180.18 246.26C197.4 246.88 214.62 247.89 231.95 248.17Z" fill="#AA9775"/>
<path d="M239.07 241.87C239.1 242.12 239.1 242.37 239.07 242.62C228.01 242.62 216.94 242.62 205.88 242.62C205.88 242.37 205.88 242.12 205.88 241.87H239.07Z" fill="#837255"/>
<path d="M219.03 204.74H232.82C228.22 205.42 223.6 206.98 219.08 204.69L219.04 204.74H219.03Z" fill="#A19273"/>
</svg>
