<svg width="1662" height="1853" viewBox="0 0 1662 1853" fill="none" xmlns="http://www.w3.org/2000/svg">
<g clip-path="url(#clip0_80_7334)">
<path d="M999.528 129.924C998.567 128.469 998.386 127.68 998.338 125.915C997.874 108.146 999.645 90.1837 1000.27 72.4217C1000.59 63.3783 999.772 54.3894 999.717 45.3505C999.695 41.7985 999.063 36.2352 999.902 32.9186C1000.46 30.7046 1000.67 31.3997 1001.66 29.6586C1006.73 20.7885 992.463 6.36122 1008.61 0.84739C1014.53 -1.17462 1023.3 1.68329 1029.24 3.06681C1037.28 4.9378 1044.07 2.08948 1051.84 2.90709C1056.61 3.40981 1056.53 7.29866 1061.62 7.11409C1061.93 6.88071 1062.23 6.64362 1062.54 6.41416C1065 4.57019 1067.06 2.97398 1070.35 3.24332C1077.97 3.86611 1072.08 11.994 1083.68 5.52399C1089.93 6.85587 1088.11 10.9326 1096.83 9.82057C1107.9 8.40959 1121.29 17.1372 1131.5 13.7303C1139.6 11.0269 1165.33 18.1692 1175.7 18.9493C1183.76 19.5558 1192.42 17.4793 1200.32 18.7009C1206.74 19.6948 1212.69 24.3873 1218.98 25.0759C1225.47 25.7885 1232.22 23.4067 1238.76 23.2694C1246.86 23.0995 1255.58 24.8166 1263.72 25.5314C1265.54 27.0066 1264.93 28.1376 1266.07 29.2075C1268.32 31.306 1307.07 29.7153 1312.73 29.9179C1319.15 30.1446 1320.28 34.1106 1326.57 34.3285C1345.08 34.9691 1363.74 33.0624 1382.25 33.86C1388.23 34.1193 1393.62 36.8802 1399.59 37.17C1417.95 38.0635 1436.77 37.3705 1455.19 37.4337C1479.46 37.5165 1503.92 38.2574 1528.14 36.6253C1528.51 36.8584 1528.88 37.0981 1529.25 37.3269C1531.69 38.8175 1534.19 40.3145 1537.02 40.8789C1557.94 45.0367 1649.78 37.5383 1658.89 44.4962C1659.87 45.2437 1660.38 46.4531 1661.13 47.4315C1663.09 55.5596 1655.75 61.2646 1658.18 68.837C1660.71 76.7581 1651.01 97.8389 1656.4 103.11C1657.72 104.396 1658.42 105.22 1659.26 106.793C1657.92 111.951 1652.51 113.206 1651.35 118.421C1652.47 120.164 1653.64 121.829 1654.88 123.492C1655.54 131.389 1649.15 146.943 1648.72 157.974C1646.5 160.704 1643.58 163.576 1644 167.359C1644.56 172.448 1648.44 174.897 1648.13 180.321C1647.01 181.352 1645.91 182.517 1644.68 183.398C1643.99 189.854 1641.34 196.213 1640.83 202.295C1640.23 209.429 1641.78 214.971 1640.09 222.293C1639.96 222.875 1639.85 223.461 1639.72 224.043C1639.64 224.393 1639.54 224.74 1639.46 225.089C1639.32 227.993 1639.89 229.758 1637.27 231.652C1636.28 232.365 1634.34 232.936 1633.27 233.35C1633.7 239.719 1636.35 252.759 1634.12 258.362C1632.91 261.388 1629.24 265.191 1628.87 268.277C1628.15 274.483 1638.41 283.685 1629.14 302.384C1630.49 310.75 1628.01 319.532 1626.76 327.836C1625.42 336.838 1624.95 345.993 1623.24 354.94C1620.89 367.27 1616.95 379.274 1615.14 391.717C1611.84 414.367 1608.97 437.446 1606.14 460.179C1603.98 477.49 1605.94 499.126 1598.43 515.136C1599.11 517.888 1600.32 520.396 1599.46 523.127C1592.76 544.214 1595.32 568.749 1592.22 590.612C1591.01 599.124 1583.82 614.517 1584.61 621.366C1587.5 628.099 1587.34 640.817 1587.65 648.328C1586.34 650.32 1585.31 651.752 1583.41 653.201C1581.5 661.344 1583.22 668.537 1582.16 676.347C1580.96 685.238 1576.1 693.582 1574.83 702.464C1573.15 714.153 1574.32 726.108 1572.44 737.94C1569.82 754.412 1562.94 770.647 1561.63 787.149C1560.92 796.007 1561.34 804.933 1561.08 813.813C1560.77 824.427 1559.47 835.009 1558.97 845.619C1558 866.055 1557.66 884.283 1553.59 904.512C1555 907.515 1555.91 910.385 1556.32 913.671C1558.5 931.344 1557.16 949.345 1557.35 967.096C1557.63 994.222 1559.81 1022.05 1556.5 1049.05C1558.59 1050.63 1558.78 1051.19 1559.25 1053.91C1560.4 1060.47 1559.65 1067.68 1560.21 1074.38C1561.69 1091.94 1563.76 1109.68 1566.09 1127.14C1569.76 1154.59 1592.78 1219.33 1584.03 1242.56C1586.72 1245.24 1588.04 1245.68 1588.08 1249.76C1588.15 1257.24 1586.66 1263.95 1587.25 1271.6C1587.11 1272.08 1586.96 1272.55 1586.84 1273.03C1584.59 1281.43 1587.47 1292.77 1586.67 1301.68C1584.21 1329.09 1576.17 1376.9 1562.7 1400.68C1554.89 1414.49 1536.2 1431.32 1522.83 1439.72C1509.81 1447.91 1493.69 1452.55 1479.52 1458.45C1464.26 1464.8 1448.75 1472.74 1432.85 1477.23C1421.01 1480.58 1408.6 1481.3 1396.79 1484.86C1381.51 1489.46 1366.57 1496.22 1351.43 1501.5C1344.24 1504.01 1290.96 1525.61 1290.1 1525.43C1287.44 1524.89 1284.42 1523.98 1282.04 1525.76C1277.01 1529.53 1274.57 1535.49 1267.41 1536.28L1266.64 1534.65C1259.96 1538.51 1252.99 1541.66 1245.82 1544.51C1245.37 1544.72 1244.91 1544.93 1244.45 1545.13C1237.51 1548.14 1231.63 1546.66 1226.13 1552.86C1223.16 1556.22 1220.92 1556.94 1216.83 1557.99C1214.33 1558.63 1214.3 1559.5 1212.37 1560.41C1211.77 1560.69 1211.09 1560.74 1210.45 1560.9C1195.5 1561.72 1132.22 1592.38 1117.3 1601.08C1114.64 1602.63 1113.33 1602.99 1110.31 1603.23C1109.57 1603.29 1108.84 1603.38 1108.11 1603.44C1107.55 1603.49 1106.99 1603.53 1106.44 1603.58C1097.14 1611.97 1084.79 1618.42 1073.08 1622.81C1072.68 1622.67 1072.28 1622.52 1071.88 1622.39C1070.56 1621.95 1069.42 1621.74 1068.05 1621.57C1065.62 1623.8 1064.44 1626.13 1062.97 1629.02C1059.07 1631.4 1054.06 1630.61 1049.9 1632.57C1040.46 1637.02 1032.75 1645.75 1023.57 1650.7C1020.1 1652.58 1016.04 1652.18 1012.61 1653.91C1006.49 1657 1003.35 1664.89 997.024 1668.14C993.036 1670.19 990.397 1670.18 986.004 1669.53C985.773 1672.6 985.845 1674.79 983.687 1677.22C981.598 1677.78 980 1677.83 977.874 1677.76C975.459 1677.68 974.263 1677.85 972.123 1679.13L971.611 1680.5C970.482 1683.46 969.902 1685.94 967.109 1687.74C966.627 1687.78 966.146 1687.81 965.662 1687.86C962.986 1688.11 960.358 1688.25 957.959 1689.58C954.248 1691.61 951.591 1696.78 947.66 1699.29C936.026 1706.72 922.91 1712.41 911.844 1720.75C910.94 1722.24 910.905 1722.89 909.277 1723.62C900.129 1727.71 892.836 1734.97 883.128 1737.73C880.012 1740.04 877.251 1741.73 873.651 1743.2C866.81 1745.99 860.992 1752.56 854.283 1754.5L851.208 1753.12C846.331 1755.25 843.426 1760.13 838.615 1761.97C836.614 1762.16 834.507 1762.22 832.566 1762.73C827.081 1766.26 821.461 1769.61 816.508 1773.88C812.816 1774.28 809.092 1774.6 805.427 1775.19C795.091 1785.87 716.15 1816.77 698.293 1823.51C689.999 1826.64 680.879 1828.06 672.962 1831.99C665.593 1835.94 658.992 1835.18 651.03 1834.82C647.674 1834.67 631.901 1840.46 627.02 1841.75C624.902 1842.31 623.642 1842.37 621.503 1842.13C618.748 1843.8 618.26 1843.9 615.031 1843.95C607.687 1844.04 603.196 1848.44 594.937 1846.86C593.662 1846.62 592.396 1846.38 591.126 1846.11C579.306 1850.14 525.244 1854.27 513.784 1851.07C482.836 1853.55 450.742 1851.35 419.635 1851.34C390.686 1851.33 360.291 1853.45 331.481 1851.15C323.891 1850.54 316.796 1846.81 309.115 1846.08C308.805 1846.06 308.494 1846.04 308.184 1846.01L304.351 1846.6L303.83 1849.47C296.613 1853.66 276.955 1847.91 268.402 1846.85C257.864 1846.47 249.006 1843.17 238.873 1840.67C231.307 1838.81 223.501 1838 215.885 1836.33C206.323 1834.24 196.831 1831.17 187.226 1829.43C178.529 1827.85 169.939 1830.81 161.22 1829.05C151.011 1826.98 129.867 1818.23 121.37 1819.22C119.235 1819.47 116.971 1819.61 114.864 1819.05C110.821 1817.97 108.695 1815.83 106.716 1812.25C106.38 1811.64 106.06 1811.03 105.733 1810.42C104.609 1811.22 103.454 1811.94 102.279 1812.67C94.7874 1809.59 84.9291 1806.82 78.383 1802.18L79.076 1797.94C74.2536 1793.18 67.4743 1796.1 62.264 1789.37C60.9282 1787.64 59.8757 1786.24 58.1259 1784.89L54.2928 1785.67C46.2344 1783.36 18.5683 1764.89 14.3452 1758.06C0.969757 1736.43 -2.08101 1707.58 2.42105 1682.95C3.66097 1676.16 7.15845 1669.99 8.70127 1663.26L6.85991 1660.99C7.4766 1656.97 11.7368 1658.21 12.4494 1654.17C12.992 1651.09 10.9065 1647.69 12.5518 1644.6C18.0998 1634.16 84.0509 1583.22 96.9121 1574.16C101.386 1571.01 140.81 1548.17 143.689 1547.56C145.979 1547.07 145.18 1547.47 147.245 1546.36C147.642 1546.15 148.017 1545.89 148.402 1545.66C153.268 1541.26 160.701 1537.11 166.908 1534.96C171.194 1533.47 172.789 1533.45 176.927 1535.39L177.424 1531.65C181.205 1527.53 222.288 1514.47 229.897 1511.66C251.647 1503.64 272.03 1492.7 293.656 1484.24C307.511 1478.82 322.941 1475.74 336.339 1469.57C345.641 1465.28 353.309 1457.3 362.708 1453.09C367.766 1450.82 371.723 1452.55 376.635 1448.71C385.75 1441.59 445.231 1421.03 460.479 1415.3C469.158 1407.59 487.929 1387.3 497.65 1383.33C500.631 1382.11 501.28 1381.66 503.468 1379.27C504.998 1377.8 504.58 1378.12 505.865 1377.1C516.639 1368.59 524.532 1357.63 534.972 1349.04C549.894 1336.76 566.802 1326.8 581.605 1314.23C598.97 1299.48 613.987 1282.26 629.896 1266.02C662.771 1232.45 697.831 1199.24 724.806 1160.59C729.273 1154.19 776.658 1099.48 778.218 1098.75C779.399 1098.21 780.781 1098.3 782.062 1098.07C782.197 1095.33 782.261 1093.36 783.363 1090.8C785.22 1090.71 786.8 1090.84 788.434 1089.82C788.715 1089.64 788.95 1089.41 789.21 1089.21C794.398 1081.17 801.345 1074.03 807.061 1066.33C812.184 1059.43 816.063 1051.2 821.934 1044.96C833.607 1032.55 846.721 1021.25 857.493 1007.98C873.762 987.931 883.374 962.239 896.614 940.313C904.79 926.774 915.895 915.678 922.746 901.163C941.707 860.999 955.832 818.533 968.719 776.145C971.153 768.138 974.494 760.435 976.989 752.444C981.417 738.254 984.888 722.551 987.377 707.881C989.347 696.264 988.638 684.482 989.65 672.8C990.848 658.964 993.406 645.517 994.234 631.56C994.901 620.285 998.155 601.118 994.367 590.695C989.201 564.606 993.598 558.71 995.289 534.474L995.35 533.456C995.233 531.342 995.154 532.109 995.416 530.399C996.906 520.641 996.49 510.392 996.699 500.529C997.083 482.591 997.501 464.792 997.462 446.836C997.37 404.149 999.436 361.36 1000.23 318.678C1000.62 297.858 998.453 277.828 1000.55 256.984L999.201 253.99C1001.04 242.99 999.236 230.94 998.891 219.815C998.392 203.642 998.253 186.995 998.375 170.822L998.17 170.46C998.268 162.777 995.995 140.731 999.286 135.026C1000.59 132.768 999.99 132.432 999.528 129.924Z" fill="#FCE4B8"/>
<path d="M999.527 129.924C998.566 128.469 998.385 127.68 998.337 125.915C997.873 108.146 999.645 90.1837 1000.27 72.4217C1000.59 63.3783 999.771 54.3894 999.717 45.3505C999.695 41.7985 999.063 36.2352 999.902 32.9186C1000.46 30.7046 1000.67 31.3997 1001.66 29.6586C1006.73 20.7885 992.463 6.36122 1008.61 0.84739C1014.53 -1.17462 1023.3 1.68329 1029.24 3.06681C1037.28 4.9378 1044.07 2.08948 1051.83 2.90709C1056.61 3.40981 1056.53 7.29866 1061.62 7.11409C1061.93 6.88071 1062.23 6.64362 1062.54 6.41416C1065 4.57019 1067.06 2.97398 1070.35 3.24332C1077.97 3.86611 1072.08 11.994 1083.68 5.52399C1089.93 6.85587 1088.11 10.9326 1096.83 9.82057C1107.9 8.40959 1121.29 17.1372 1131.5 13.7303C1139.6 11.0269 1165.33 18.1692 1175.7 18.9493C1183.76 19.5558 1192.42 17.4793 1200.32 18.7009C1206.74 19.6948 1212.69 24.3873 1218.98 25.0759C1225.47 25.7885 1232.22 23.4067 1238.76 23.2694C1246.86 23.0995 1255.58 24.8166 1263.72 25.5314C1265.54 27.0066 1264.93 28.1376 1266.07 29.2075C1268.32 31.306 1307.07 29.7153 1312.73 29.9179C1319.15 30.1446 1320.28 34.1106 1326.57 34.3285C1345.08 34.9691 1363.74 33.0624 1382.25 33.86C1388.23 34.1193 1393.62 36.8802 1399.59 37.17C1417.95 38.0635 1436.77 37.3705 1455.19 37.4337C1479.46 37.5165 1503.92 38.2574 1528.14 36.6253C1528.51 36.8584 1528.87 37.0981 1529.25 37.3269C1531.69 38.8175 1534.19 40.3145 1537.02 40.8789C1557.94 45.0367 1649.78 37.5383 1658.89 44.4962C1659.87 45.2437 1660.38 46.4531 1661.13 47.4315C1663.09 55.5596 1655.75 61.2646 1658.18 68.837C1660.71 76.7581 1651.01 97.8389 1656.4 103.11C1657.72 104.396 1658.42 105.22 1659.26 106.793C1657.92 111.951 1652.51 113.206 1651.35 118.421C1652.47 120.164 1653.64 121.829 1654.88 123.492C1655.54 131.389 1649.15 146.943 1648.72 157.974C1646.5 160.704 1643.58 163.576 1644 167.359C1644.56 172.448 1648.44 174.897 1648.12 180.321C1647.01 181.352 1645.91 182.517 1644.68 183.398C1643.99 189.854 1641.34 196.213 1640.83 202.295C1640.23 209.429 1641.78 214.971 1640.09 222.293C1639.96 222.875 1639.85 223.461 1639.72 224.043C1639.64 224.393 1639.54 224.74 1639.46 225.089C1639.31 227.993 1639.89 229.758 1637.27 231.652C1636.28 232.365 1634.34 232.936 1633.27 233.35C1633.7 239.719 1636.35 252.759 1634.12 258.362C1632.91 261.388 1629.24 265.191 1628.87 268.277C1628.15 274.483 1638.41 283.685 1629.14 302.384C1620.59 308.78 1602.44 310.055 1591.92 310.909C1567.65 312.877 1542.28 311.519 1517.91 311.58C1465.2 311.786 1412.49 311.397 1359.78 310.412L1352.65 304.507C1337.8 303.822 1323.01 302.134 1308.19 300.929C1298.02 300.103 1288.04 300.079 1278 297.937C1271.86 296.627 1267.86 299.586 1262.36 298.767C1256.01 297.819 1250.91 292.24 1244.41 294.173C1242.85 294.637 1241.71 295.328 1240.03 295.302C1232.22 295.182 1222.61 292.591 1214.67 291.598C1199.39 289.734 1184.06 288.457 1168.69 287.769C1164.38 287.534 1160.54 284.524 1156.91 282.336C1131.75 282.395 1105.54 279.002 1080.59 275.71C1076.56 275.176 1071.52 271.343 1067.96 271.755C1065.15 272.084 1065.02 273.94 1061.34 273.596C1060.21 272.439 1057.04 268.767 1055.35 268.878C1052.96 269.039 1050.24 271.022 1047.75 271.046C1043.48 271.09 1026.64 263.11 1021.01 261.46C1013.33 259.209 1008.45 260.445 1000.54 256.984L999.2 253.99C1001.04 242.99 999.235 230.94 998.891 219.815C998.392 203.642 998.253 186.995 998.375 170.822L998.17 170.46C998.268 162.777 995.995 140.731 999.285 135.026C1000.59 132.768 999.989 132.432 999.527 129.924Z" fill="#E8C775"/>
<path d="M998.375 170.822C1000.2 172.753 1002.38 175.542 1004.82 176.614C1023.08 184.657 1054.63 181.652 1073.25 191.247L1077.79 193.544C1086.32 191.504 1098.65 191.478 1106.31 196.222C1107.46 196.932 1108.54 197.713 1109.62 198.512C1109.99 198.412 1110.36 198.307 1110.73 198.214C1122.91 195.102 1136.16 199.107 1147.98 202.406L1151.21 200.408C1153.88 201.343 1155.65 202.818 1157.8 204.572C1168.09 205.88 1176.52 201.136 1185.67 207.222C1187.16 208.216 1188.12 208.388 1189.88 208.345C1191.2 207.732 1193.95 205.976 1195.26 205.843C1204.48 204.906 1213.25 213.163 1227.65 209.362C1230.64 208.573 1234.84 206.917 1237.77 208.414C1239.41 209.255 1240.99 210.554 1242.47 211.661C1269.23 214.437 1295.94 215.93 1322.81 217.054C1332.8 217.471 1344.87 215.876 1354.53 217.667C1355.49 219.059 1356.4 220.465 1357.27 221.91C1371.36 222.825 1385.48 222.65 1399.59 223.197C1463.12 225.664 1526.69 225.954 1590.27 226.608C1607.37 226.784 1622.23 221.238 1639.46 225.089C1639.31 227.994 1639.89 229.759 1637.27 231.652C1636.28 232.365 1634.34 232.936 1633.27 233.35C1633.7 239.72 1636.35 252.759 1634.12 258.362C1632.91 261.389 1629.24 265.191 1628.87 268.277C1628.15 274.483 1638.41 283.685 1629.14 302.384C1620.59 308.78 1602.44 310.055 1591.92 310.909C1567.65 312.877 1542.28 311.519 1517.91 311.58C1465.2 311.787 1412.49 311.397 1359.78 310.412L1352.65 304.507C1337.8 303.823 1323.01 302.134 1308.19 300.929C1298.02 300.103 1288.05 300.079 1278 297.937C1271.86 296.627 1267.86 299.586 1262.36 298.767C1256.01 297.819 1250.91 292.241 1244.41 294.174C1242.85 294.638 1241.71 295.328 1240.03 295.302C1232.22 295.182 1222.61 292.591 1214.67 291.598C1199.39 289.734 1184.06 288.458 1168.69 287.769C1164.38 287.534 1160.54 284.524 1156.91 282.337C1131.75 282.395 1105.54 279.002 1080.6 275.71C1076.56 275.176 1071.52 271.343 1067.96 271.755C1065.15 272.084 1065.02 273.94 1061.34 273.596C1060.21 272.439 1057.04 268.767 1055.35 268.878C1052.96 269.04 1050.24 271.023 1047.75 271.047C1043.48 271.09 1026.64 263.11 1021.01 261.461C1013.33 259.21 1008.45 260.445 1000.55 256.985L999.201 253.991C1001.04 242.99 999.236 230.94 998.891 219.815C998.392 203.642 998.253 186.996 998.375 170.822Z" fill="#E8C775"/>
<path d="M999.527 129.924C1006.15 132.042 1013.73 130.007 1019.26 133.666C1020.1 134.222 1020.98 134.705 1021.84 135.23C1022.24 135.475 1022.63 135.736 1023.03 135.976C1024.26 136.708 1023.74 136.507 1025.14 136.647L1026 132.326L1027.2 132.167C1028.26 133.657 1029.07 135.043 1029.83 136.71C1040.25 139.432 1054 145.472 1064.4 144.069C1072.37 142.995 1082.44 149.658 1090.58 151.203C1099.3 152.864 1106.6 151.267 1115.32 154.452C1119.31 155.915 1125.64 158.876 1129.83 158.865C1132.66 158.859 1135.21 157.148 1138.05 157.924C1140.2 158.512 1140.77 161.53 1142.47 162.504C1149.49 166.525 1159.25 159.449 1165.87 166.675C1168.82 166.771 1170.93 166.344 1173.8 165.623C1182.62 163.404 1189.55 167.414 1197.78 170.428C1209.48 174.714 1223.68 170.792 1235.65 172.413C1238.35 172.779 1237.76 175.64 1240.81 173.855C1241.27 173.585 1242.88 171.986 1243.31 171.569C1249.03 171.739 1253.26 175.854 1259 176.178C1270.88 176.852 1282.97 176.165 1294.97 176.995C1309.95 178.031 1325.36 178.917 1340.28 180.415C1349.14 181.301 1357.85 182.942 1366.77 183.461C1411.07 186.03 1455.9 185.389 1500.28 185.389C1548.41 185.392 1596.6 185.86 1644.68 183.398C1643.99 189.854 1641.34 196.213 1640.83 202.295C1640.23 209.429 1641.78 214.971 1640.09 222.293C1639.96 222.875 1639.85 223.461 1639.72 224.043C1639.64 224.394 1639.54 224.74 1639.46 225.089C1622.23 221.238 1607.37 226.784 1590.26 226.607C1526.69 225.954 1463.12 225.664 1399.59 223.197C1385.48 222.65 1371.35 222.825 1357.27 221.909C1356.4 220.465 1355.49 219.059 1354.53 217.667C1344.87 215.875 1332.8 217.47 1322.81 217.054C1295.94 215.93 1269.23 214.437 1242.47 211.661C1240.99 210.554 1239.41 209.255 1237.77 208.414C1234.84 206.917 1230.64 208.573 1227.65 209.362C1213.25 213.162 1204.48 204.906 1195.26 205.843C1193.95 205.976 1191.2 207.732 1189.88 208.344C1188.11 208.388 1187.16 208.216 1185.67 207.222C1176.52 201.136 1168.09 205.88 1157.8 204.572C1155.65 202.818 1153.88 201.343 1151.21 200.408L1147.98 202.406C1136.16 199.107 1122.91 195.102 1110.73 198.214C1110.36 198.307 1109.99 198.412 1109.62 198.512C1108.54 197.712 1107.45 196.932 1106.31 196.222C1098.65 191.478 1086.32 191.504 1077.79 193.544L1073.25 191.247C1054.63 181.652 1023.08 184.657 1004.82 176.614C1002.38 175.542 1000.2 172.753 998.375 170.822L998.17 170.46C998.268 162.777 995.995 140.731 999.285 135.026C1000.59 132.768 999.989 132.432 999.527 129.924Z" fill="#623C27"/>
<path d="M268.402 1846.85C257.864 1846.47 249.006 1843.17 238.873 1840.67C231.307 1838.81 223.501 1838 215.885 1836.33C206.323 1834.24 196.831 1831.17 187.226 1829.43C178.529 1827.85 169.939 1830.81 161.22 1829.05C151.011 1826.98 129.867 1818.23 121.37 1819.22C119.235 1819.47 116.971 1819.61 114.864 1819.05C110.821 1817.97 108.695 1815.83 106.716 1812.25C106.38 1811.64 106.06 1811.03 105.733 1810.42C104.609 1811.22 103.454 1811.94 102.279 1812.67C94.7874 1809.59 84.9291 1806.82 78.383 1802.18L79.076 1797.94C74.2536 1793.18 67.4743 1796.1 62.264 1789.37C60.9282 1787.64 59.8757 1786.24 58.1259 1784.89L54.2928 1785.67C46.2344 1783.36 18.5683 1764.89 14.3452 1758.06C0.969757 1736.43 -2.08101 1707.58 2.42105 1682.95C3.66097 1676.16 7.15845 1669.99 8.70127 1663.26L6.85991 1660.99C7.4766 1656.97 11.7368 1658.21 12.4494 1654.17C12.992 1651.09 10.9065 1647.69 12.5518 1644.6C18.0998 1634.16 84.0509 1583.22 96.9121 1574.16C101.386 1571.01 140.81 1548.17 143.689 1547.56C145.979 1547.07 145.18 1547.47 147.245 1546.36C147.642 1546.15 148.017 1545.89 148.402 1545.66C151.218 1547.52 154.454 1549.45 156.764 1551.93C163.319 1558.95 168.581 1568.59 174.406 1576.34C184.911 1590.31 194.931 1604.6 205.36 1618.61C209.836 1624.63 215.343 1630.35 219.331 1636.66L217.459 1640.3C221.994 1652.14 231.773 1664.23 237.01 1677.4C241.632 1689.03 246.485 1700.96 249.989 1712.98C253.273 1724.25 255.267 1735.54 259.607 1746.51C260.298 1748.26 260.969 1750 261.68 1751.74L259.803 1753.85C261.826 1762.88 264.07 1771.65 266.718 1780.52C264.922 1784.61 263 1787.41 264.772 1791.83C266.441 1795.98 269.708 1800.67 269.233 1805.23C266.934 1807.7 266.387 1807.59 266.491 1810.91C268.418 1814.16 270.793 1816.95 270.839 1820.78L266.883 1825.42C267.969 1828.75 269.015 1832.09 270.021 1835.45C269.097 1837.16 268.097 1838.3 266.722 1839.67C266.26 1842.54 267.256 1844.32 268.402 1846.85Z" fill="#E8C775"/>
<path d="M1247.87 1526.13C1249.91 1519.13 1246.96 1518.03 1247.84 1513.62C1249.18 1506.95 1255.81 1502.44 1255.31 1494.95C1253.88 1493.59 1253.39 1493.07 1252.54 1491.21L1253.9 1488.83C1266.47 1482.66 1259.97 1476.52 1267.46 1467.18C1269.45 1466.51 1272.06 1465.88 1273.83 1464.8C1275.87 1463.55 1276.24 1463.01 1276.52 1460.78L1273.24 1458.93L1273.22 1456.95C1274.67 1454.69 1275.83 1453.76 1278.13 1452.49C1287.68 1447.21 1284.77 1436.41 1293.16 1427.78C1295.03 1427.6 1296.25 1427.38 1298.07 1426.78C1297.24 1425.28 1296.98 1424.62 1296.67 1422.88C1299.36 1418.59 1302.93 1418.43 1305.79 1415.12C1309.87 1410.42 1310.28 1400.39 1316.21 1396.98C1318.81 1395.49 1320.63 1397.57 1323.45 1394.8L1322.15 1392.76C1322.56 1388.87 1337.33 1379.85 1341.09 1377.06C1345.43 1373.84 1350.04 1364.32 1352.67 1362.99C1355.05 1361.8 1355.91 1363.27 1358.26 1360.96L1357.25 1358.79C1359.21 1355.06 1364.81 1354.28 1367.96 1351.56C1372.83 1347.36 1376.14 1341.04 1380.99 1336.91C1383.4 1334.86 1385.84 1336.08 1388.65 1336.59C1390.22 1334.46 1391.72 1332.33 1394.01 1330.91C1398.35 1328.21 1403.71 1327.12 1408.05 1324.36C1413.68 1320.78 1417.74 1314.4 1424.04 1311.89C1426.03 1312.29 1429.62 1313.4 1431.56 1312.74C1435.1 1311.53 1438.79 1306.37 1442.23 1304.31C1445.65 1302.26 1450.38 1301.31 1454.21 1300.16C1459.13 1298.67 1464.53 1297.43 1469.22 1295.33C1478.1 1291.35 1483.74 1285.76 1493.7 1283.11C1504.84 1280.15 1559.44 1272.66 1562.07 1271C1562.56 1270.7 1562.94 1270.25 1563.44 1269.96C1566.59 1268.15 1570.32 1268.4 1573.6 1269.61C1577.96 1271.21 1581.01 1271.62 1585.59 1271.61L1587.25 1271.6C1587.11 1272.08 1586.96 1272.55 1586.84 1273.03C1584.59 1281.43 1587.47 1292.77 1586.67 1301.68C1584.21 1329.09 1576.17 1376.9 1562.7 1400.68C1554.89 1414.49 1536.2 1431.32 1522.83 1439.72C1509.81 1447.91 1493.69 1452.55 1479.52 1458.45C1464.26 1464.8 1448.75 1472.74 1432.85 1477.23C1421.01 1480.58 1408.6 1481.3 1396.79 1484.86C1381.51 1489.46 1366.57 1496.22 1351.43 1501.5C1344.24 1504.01 1290.96 1525.61 1290.1 1525.43C1287.44 1524.89 1284.42 1523.98 1282.04 1525.76C1277.01 1529.53 1274.57 1535.49 1267.41 1536.29L1266.64 1534.65C1263.39 1530.6 1258.37 1530.52 1253.94 1528.32C1251.75 1527.23 1250.36 1526.41 1247.87 1526.13Z" fill="#E8C775"/>
<path d="M503.468 1379.27C504.68 1381.5 505.8 1383.72 506.931 1385.98C510.999 1394.1 520.206 1404.7 527.227 1410.51C540.184 1418.53 547.972 1423.94 554.383 1438.32C556.809 1443.77 558.805 1448.24 562.66 1452.88C562.943 1455.89 562.575 1458.3 561.997 1461.24C563.052 1463.16 564.287 1464.6 565.75 1466.23C565.841 1468.62 564.95 1469.94 563.817 1471.99C564.412 1474.77 565.146 1477.21 566.103 1479.88C566.85 1481.97 567.702 1484.18 567.563 1486.43C566.684 1500.53 547.65 1556.81 540.746 1570.97C532.788 1587.31 519.332 1602.21 504.366 1612.43C501.298 1611.35 500.258 1608.27 497.273 1609.29C497.425 1612.89 501.15 1612.5 499.96 1616C469.13 1637.12 424.133 1655.57 386.356 1648.27C380.147 1647.11 373.974 1645.79 367.837 1644.3C361.7 1642.81 355.608 1641.15 349.561 1639.32C343.513 1637.5 337.52 1635.52 331.581 1633.37C325.642 1631.22 319.766 1628.91 313.952 1626.44C308.138 1623.97 302.396 1621.35 296.726 1618.57C291.055 1615.79 285.463 1612.86 279.951 1609.78C274.44 1606.69 269.015 1603.46 263.678 1600.08C258.342 1596.71 253.101 1593.19 247.955 1589.52L247.729 1588.03L251.431 1584.23L251.026 1582.8L248.112 1582.9C251.396 1577.68 257.953 1574.69 262.599 1570.68C272.462 1569.33 283.052 1570.43 292.593 1568.49C302.719 1566.43 312.701 1562.46 322.412 1558.96C358.079 1546.12 388.655 1529.64 411.895 1498.79C421.978 1485.41 428.251 1469.93 437.192 1455.86C444.558 1444.26 457.528 1430.15 463.185 1418.83L460.478 1415.3C469.158 1407.59 487.929 1387.3 497.65 1383.33C500.631 1382.11 501.28 1381.66 503.468 1379.27Z" fill="#FECE72"/>
<path d="M503.468 1379.27C504.68 1381.5 505.8 1383.72 506.931 1385.98C510.999 1394.1 520.206 1404.7 527.227 1410.51C525.909 1411.42 524.503 1412.49 522.91 1412.91C517.173 1414.39 479.474 1415.52 471.158 1415.48C467.827 1415.47 465.802 1417.02 463.185 1418.83L460.479 1415.3C469.158 1407.59 487.929 1387.3 497.65 1383.33C500.631 1382.11 501.28 1381.66 503.468 1379.27Z" fill="#623C27"/>
<path d="M497.89 1449.55C500.298 1449.61 502.461 1449.51 504.651 1450.67C506.822 1451.82 508.467 1455.25 509.045 1457.55C512.289 1470.5 494.046 1505.46 486.789 1516.76C480.696 1526.25 473.168 1534.64 467.421 1544.42C466.229 1546.44 465.183 1546.19 463.013 1546.88C449.217 1565.04 427.369 1589.07 405.532 1597.06C398.921 1599.47 391.189 1600.33 384.314 1602.34L385.65 1602.79C380.753 1600.22 376.805 1598.59 371.292 1597.59C366.639 1596.62 361.331 1592.59 358.337 1588.95C358.038 1587.2 357.559 1586.52 358.454 1584.84C359.664 1582.59 361.318 1581.23 363.532 1580.01C371.98 1575.35 381.479 1572.54 389.98 1567.74C398.894 1562.71 412.934 1550.6 422.213 1548.58C430.86 1546.69 438.047 1540.2 444.887 1534.64C460.866 1521.64 466.421 1505.22 474.813 1487.21C477.694 1481.02 481.838 1474.99 482.44 1468.07C482.777 1464.19 483.052 1459.59 484.1 1455.86C484.806 1453.34 485.824 1452.56 487.962 1451.24C490.139 1451.72 492.294 1452.14 494.499 1452.47L497.89 1449.55Z" fill="#623C27"/>
<path d="M854.346 1132.32C865.902 1134.81 875.267 1142.41 885.81 1147.32C888.425 1152.66 892.779 1158.06 894.313 1163.66C898.713 1179.7 907.917 1217.12 907.738 1233.05C905.742 1235.1 903.778 1237.18 901.846 1239.29C902.87 1241.29 904.217 1242.42 905.878 1243.91L906.159 1246.05C904.773 1247.66 903.4 1248.72 901.65 1249.92C901.269 1254.11 903.509 1253.78 904.165 1257.02C904.311 1257.73 903.548 1260.38 903.402 1261.14C901.245 1272.57 900.314 1268.52 895.954 1276.95C894.367 1280.02 896.889 1283.03 895.141 1289.06C889.414 1308.8 875.49 1328.71 859.708 1341.74C855.895 1344.9 836.039 1360.57 832.341 1359.56C831.611 1359.36 830.397 1358.58 829.724 1358.18C827.03 1365.1 819.397 1368.62 812.77 1371.55C779.868 1386.13 744.666 1382.48 709.975 1378.56C690.798 1376.39 672.93 1374.12 653.934 1370.72C640.923 1368.39 627.759 1368.2 615.183 1363.57C611.223 1362.11 606.497 1359.77 604.845 1355.59C603.411 1351.97 605.187 1348.96 606.97 1345.86C608.656 1342.93 610.565 1339.97 613.546 1338.22C618.944 1335.07 628.731 1334.05 635.078 1332.38C641.731 1330.64 648.859 1329.11 655.198 1326.46C664.948 1322.38 688.979 1309.45 696.054 1302.49C705.523 1293.17 717.419 1287.05 726.789 1277.27C745.808 1257.43 758.608 1232.51 769.162 1207.47C772.918 1198.56 775.751 1189.49 780.504 1181.01C781.578 1179.1 781.223 1179.97 781.591 1177.63L779.889 1174.97C781.753 1169.14 783.394 1163.08 785.466 1157.33C787.972 1150.38 795.78 1146.39 795.985 1138.62C797.553 1137.88 798.246 1137.76 800.014 1137.84C811.524 1138.37 843.372 1135.11 854.346 1132.32Z" fill="#FECE72"/>
<path d="M830.138 1178.82C834.718 1178.62 841.214 1178.13 844.96 1181.3C857.51 1191.92 839.502 1210.31 839.358 1221.33C839.336 1222.87 840.935 1225.56 840.685 1226.91C839.972 1230.75 829.73 1241.8 828.1 1247.24C826.976 1250.99 828.643 1254.78 827.808 1258.22C826.985 1261.61 824.215 1259.69 821.923 1261.8L823.071 1267.37L821.467 1269.4L816.301 1270.01C813.694 1272.55 814.841 1276.52 813.886 1279.91C812.977 1283.14 807.29 1285.69 804.501 1287.48C804.187 1289.89 804.165 1289.04 804.335 1291.25C804.372 1291.74 804.426 1292.22 804.472 1292.7C802.633 1293.74 800.846 1294.65 798.876 1295.4L797.015 1296.11C795.904 1299.35 794.799 1303.33 792.783 1306.13C784.021 1318.29 764.686 1329.76 750.177 1331.67C747.251 1332.06 747.835 1334 744.531 1334.35L741.72 1331.06L743.001 1332.06C742.106 1329.42 739.173 1328.64 736.78 1327.44C736.789 1329.91 737.02 1328.73 736.111 1330.98L734.555 1330.14C733.089 1326.7 732.308 1323.83 731.796 1320.13L734.976 1316.31L734.069 1314.01C736.787 1310.07 742.714 1308.04 746.468 1304.96L745.712 1302.29C750.872 1297.67 759.364 1297.89 764.498 1293.54C767.68 1290.85 767.968 1288.4 768.155 1284.5C768.172 1284.13 768.181 1283.76 768.196 1283.39L770.193 1282.25C772.428 1282.46 775.072 1282.94 777.294 1282.73C780.007 1282.48 780.397 1282.03 781.803 1280L779.818 1277.45L780.452 1275.83C782.324 1276.61 782.779 1276.77 784.671 1276.81C786.919 1275.09 787.564 1273.75 788.534 1271.19C788.948 1270.09 789.314 1268.97 789.787 1267.9C791.533 1263.95 793.075 1263.14 796.993 1261.49C801.217 1259.7 801.984 1248.74 806.181 1245.06C808.82 1244.64 809.757 1244.64 811.914 1242.95L807.861 1239.46L808.066 1238.08L813.036 1235.31C813.333 1231.71 810.689 1232.21 810.384 1228.54L813.611 1228.44C814.291 1227.13 814.64 1226.26 814.854 1224.76C815.159 1222.64 816.394 1222.24 817.959 1220.83C817.97 1218.27 815.47 1218.34 814.784 1215.67C815.893 1215.21 817.17 1215.03 818.111 1214.29C818.826 1213.72 819.53 1204.96 819.887 1203.56C822.062 1194.99 824.204 1185.51 830.138 1178.82Z" fill="#623C27"/>
<path d="M1171.79 381.068C1184.35 381.635 1196.92 381.219 1209.51 381.912C1214.72 382.199 1224.11 384.265 1228.96 383.341C1229.69 383.204 1230.29 382.7 1230.95 382.38L1231.69 380.578C1238.12 380.005 1244.17 385.453 1248.83 389.397C1261.31 399.959 1267.34 403.121 1268.46 420.175C1268.67 423.446 1268.19 426.557 1267.47 429.745C1270.27 432.297 1273.02 434.991 1276.06 437.244C1273.55 441.362 1270.07 445.914 1269 450.63C1269.64 452.702 1271.14 456.2 1271.15 458.27C1271.22 466.549 1254.44 513.853 1251.32 524.781C1250.74 525.197 1250.13 525.598 1249.56 526.03C1243.07 530.861 1230.26 552.728 1222.92 560.519C1213.15 570.898 1161.73 599.73 1147.88 605.502C1143.01 607.531 1137.32 609.165 1132.11 610.017C1117.61 612.39 1100.46 610.514 1085.9 608.886C1061.72 606.182 1038.57 597.579 1014.26 597.06C1008.42 593.238 1002.79 589.035 995.387 590.438C995.043 590.501 994.707 590.608 994.367 590.695C989.201 564.607 993.598 558.71 995.289 534.474L995.35 533.456C995.749 532.382 995.849 531.144 996.546 530.238C998.03 528.309 1017.59 524.803 1021.37 523.676C1039.36 518.329 1056.03 509.981 1072.2 500.571C1072.55 498.974 1072.95 497.483 1073.49 495.941C1074.81 495.38 1076.11 494.799 1077.42 494.219C1080.68 492.774 1082.98 491.613 1085.38 488.919C1104.82 467.15 1128.04 438.946 1141.89 413.3C1143.83 409.706 1144.81 405.792 1146.62 402.175C1148.76 397.878 1163.96 384.725 1168.64 383.276C1170.81 382.6 1170.44 382.705 1171.79 381.068Z" fill="#FECE72"/>
<path d="M1198.04 417.938L1201.24 419.771C1204.05 419.697 1206.53 419.871 1209.3 420.257C1211.54 421.691 1212.56 424.01 1213.25 426.507C1216.82 439.3 1205.26 460.423 1199.58 471.418C1199.71 471.985 1200.21 474.046 1200.17 474.569C1200.02 476.221 1199.5 476.716 1198.51 477.877C1197.12 479.514 1195.64 481.187 1194.15 482.739C1190.98 486.036 1189.05 488.152 1187.67 492.626C1187.03 494.718 1186.06 498.884 1184.22 500.377C1179.64 504.097 1172.9 505.445 1168.06 509.47C1166.83 510.492 1159.31 516.263 1159.06 517.274C1158.43 519.86 1160.69 519.614 1158.21 522.512C1151.76 530.022 1121.39 552.8 1119.94 556.193C1119.67 556.84 1119.45 557.509 1119.2 558.167C1114.21 558.527 1108.39 558.845 1103.6 560.292C1095.21 562.824 1092.25 566.899 1082.74 565.654C1079.07 565.853 1075.67 565.892 1072.14 564.693C1066.14 562.663 1060.11 559.268 1057.38 553.377C1057.18 550.612 1057.28 548.306 1059.28 546.121C1062.07 543.081 1065.77 543.78 1069.44 543.926C1086.5 544.6 1128.38 515.306 1141.63 503.292C1150.05 495.659 1175.11 473.245 1175.43 461.852C1175.44 461.517 1175.41 459.442 1175.54 459.045C1176.39 456.43 1180.32 455.378 1182.65 454.219C1185.79 450.248 1184.99 441.817 1186.35 436.722C1188.34 435.334 1189.64 434.482 1190.76 432.29L1188.89 429.49L1190.51 427.047C1191.63 426.616 1193.27 426.123 1194.32 425.459C1197.31 423.554 1197.2 421.161 1198.04 417.938Z" fill="#623C27"/>
<path d="M1583.4 653.201C1580.5 651.462 1577.85 650.826 1574.52 651.072C1559.63 652.166 1543.23 651.641 1528.59 648.553C1510.24 644.685 1491.79 637.426 1472.95 637.572C1464.86 637.635 1464.12 634.471 1458.35 633.539C1453.14 632.695 1447.91 632.782 1442.68 631.76C1422.32 627.792 1407.92 614.044 1393.7 599.847C1387.19 593.347 1383.3 585.713 1378.12 578.239C1373.88 572.124 1368.69 566.661 1364.53 560.503C1356.68 548.906 1348.11 529.226 1346.2 515.504C1345.18 508.165 1345.55 500.27 1345.52 492.855C1344.95 492.194 1343.96 491.081 1343.52 490.373C1342.14 488.115 1342.56 487.322 1343.13 484.903C1344.83 483.554 1346.08 482.436 1347.32 480.641C1346.98 478.998 1346.43 477.041 1346.51 475.361C1346.74 470.516 1360.88 438.969 1364.34 433.036C1367.42 427.749 1372.35 423.471 1375.81 418.351C1380.19 411.857 1382.45 404.864 1387.54 398.577C1392.59 392.343 1399.15 386.864 1405.42 381.905C1418.28 371.741 1435.02 362.768 1451.86 364.949C1452.45 365.025 1453.04 365.121 1453.63 365.195C1458.45 365.812 1460.74 367.285 1464.59 370.281C1475.71 377.363 1500.67 400.384 1510.37 403.188C1511.24 405.287 1512.1 406.387 1511.84 408.651C1511.58 410.97 1511.66 410.312 1512.05 412.683C1514.87 430.042 1500.22 447.067 1500.88 465.136C1501.02 468.825 1501.47 473.118 1500.1 476.553L1498.3 477.753C1496.74 478.804 1495.43 479.867 1494.1 481.207C1494.93 483.807 1495.49 483.7 1497.08 485.631C1497.17 485.742 1497.16 485.905 1497.2 486.043L1495.48 487.708L1496.7 487.326C1496.57 487.66 1496.45 487.993 1496.33 488.329C1489.94 506.409 1505.03 519.305 1501.85 537.11C1512.78 552.501 1520.01 573.992 1532.32 587.489C1537.95 593.672 1548.61 592.785 1551.16 601.874C1551.36 602.602 1551.55 603.332 1551.73 604.066C1557 609.061 1574.76 621.436 1581.69 621.442C1582.32 621.444 1582.95 621.386 1583.58 621.368C1583.92 621.36 1584.27 621.366 1584.61 621.366C1587.5 628.1 1587.34 640.817 1587.65 648.328C1586.34 650.32 1585.31 651.752 1583.4 653.201Z" fill="#FECE72"/>
<path d="M1447.41 412.182C1450.27 411.855 1453.41 411.412 1456.26 412.04C1458.77 412.589 1461.18 414.182 1462.39 416.492C1466.54 424.422 1455.4 447.934 1452.35 456.359C1449.01 465.587 1452.46 476.771 1446.07 484.345C1442.38 498.873 1455.62 518.157 1457.81 529.697C1458.41 532.848 1456.35 534.332 1458.13 537.858C1460.55 542.641 1467.39 547.684 1469.02 552.251C1470.17 555.47 1468.92 558.993 1470.84 562.268C1473.05 562.51 1474.48 562.75 1476.43 563.851C1475.91 565.792 1475.45 567.729 1475.02 569.697C1476.93 572.327 1479.37 574.465 1481.7 576.701C1481.67 581.562 1482.09 586.441 1480.2 591.002C1478.11 591.571 1478.91 591.514 1476.86 591.484C1476.41 591.477 1475.95 591.449 1475.49 591.434L1474.63 592.933L1476.75 594.975L1475.83 597.187C1473.8 596.226 1472.24 595.297 1470.51 593.868C1470.23 593.186 1444.79 576.975 1440.26 570.61C1441.84 558.501 1431.66 553.094 1428.24 542.946C1425.8 535.72 1428.32 526.614 1428.49 519.2C1428.59 514.461 1425.6 512.46 1422.64 509.181L1422.74 507.27L1426.02 507.562C1426.1 500.578 1422.42 494.391 1421.61 487.559C1421.19 484.008 1422.03 482.336 1424.34 479.643C1426.32 477.342 1425.68 472.84 1425.67 469.697C1425.6 455.705 1431.91 439.974 1436.14 426.529C1437.47 422.282 1438.12 419.139 1442.37 416.969C1444.1 416.084 1445.03 415.407 1446.22 413.829C1446.63 413.289 1447.01 412.731 1447.41 412.182Z" fill="#623C27"/>
<path d="M1468.46 889.354L1469.64 890.622C1472.2 888.245 1474.14 887.676 1477.27 886.471C1488.21 882.252 1518.5 881.629 1530.46 883.344L1531.68 884.174C1541.51 890.777 1547.07 894.257 1553.59 904.512C1555 907.515 1555.91 910.385 1556.32 913.671C1558.5 931.344 1557.16 949.345 1557.35 967.096C1557.63 994.222 1559.81 1022.05 1556.5 1049.05C1555.7 1050.43 1556.04 1050 1555.15 1051.03C1549.74 1057.21 1545.17 1064.04 1539.68 1070.18C1530.95 1079.95 1519.91 1089.27 1509.98 1097.87C1507.64 1099.89 1503.16 1099.04 1500.6 1100.77C1498.43 1102.23 1496.49 1106.31 1494.36 1108.29C1490.91 1111.52 1484.97 1113.25 1480.53 1114.77C1457.55 1122.62 1437.85 1122.12 1413.91 1120.84C1388.46 1119.49 1361.4 1117.66 1336.36 1112.79C1324.05 1110.4 1311.95 1106.92 1299.68 1104.35C1287.63 1101.82 1262.85 1099.86 1254.84 1089.5C1253.22 1087.41 1252.35 1085.01 1252.95 1082.35C1257.79 1060.96 1332.45 1057.43 1350.29 1047.93C1365.79 1039.66 1388.47 1018.2 1399.65 1004.91C1406.1 997.238 1411.59 988.698 1417.65 980.712C1423.44 973.089 1429.99 965.432 1434.71 957.099C1438.77 949.921 1440.39 941.808 1444.54 934.649C1450.73 923.978 1465.21 902.187 1468.05 891.167C1468.21 890.566 1468.33 889.96 1468.46 889.354Z" fill="#FECE72"/>
<path d="M1508.36 919.535C1509.54 920.496 1510.63 921.248 1512 921.897C1517.01 924.266 1519.82 926.412 1522.11 931.536C1517.59 940.958 1516.63 949.385 1512.72 958.426C1493.41 1003.08 1477.94 1023.12 1439.76 1053.63C1435.02 1057.42 1431.05 1062.23 1426.14 1065.79C1422.19 1068.65 1420.39 1067.51 1415.85 1066.63C1412.62 1068.66 1411.3 1073.54 1409.24 1076.89C1406.04 1078.36 1406.23 1076.41 1403.92 1076.77C1403.18 1076.88 1401.15 1078.94 1400.62 1078.89C1399.33 1078.77 1398.2 1076.21 1395.34 1076.06L1393.84 1079.18L1392.3 1078.43L1389.42 1077.28C1387.88 1078.59 1387.35 1078.97 1385.35 1079.59C1384.06 1078.81 1383.74 1078.73 1382.59 1077.48C1380.08 1074.73 1376.71 1065.74 1377.39 1062.2C1381.49 1059.13 1387.19 1053.03 1392.24 1053.27L1390.02 1052.73L1391.32 1051.7C1392.74 1052.35 1393.99 1052.81 1395.5 1053.29C1402.67 1048.11 1426.4 1036.85 1430.37 1032.35C1432.15 1030.34 1432.91 1026.55 1434.66 1024.31C1437.3 1020.93 1439.74 1022.97 1442.94 1021.7C1448.52 1019.47 1455.93 1006.26 1461.24 1001.75C1463.61 1001.2 1465.9 1000.61 1468.21 999.847C1470.81 995.885 1468.59 995.246 1469.59 991.555C1470.64 987.687 1475.68 985.538 1477.4 981.544C1484.44 965.168 1490.03 948.073 1496.82 931.636C1499.65 924.785 1501.37 922.414 1508.36 919.535Z" fill="#623C27"/>
<path d="M864.413 1555.44C875.821 1553.66 887.695 1557.48 899.016 1559.29L900.151 1560.38C901.166 1561.33 902.173 1562.22 903.254 1563.1C904.993 1562.53 906.069 1561.99 907.608 1561.07C927.2 1566.42 964.851 1601.82 974.951 1619.17C976.658 1622.09 987.505 1652.35 988.303 1655.74C988.92 1658.38 988.765 1661.88 988.022 1664.47C987.521 1666.2 986.747 1667.89 986.004 1669.53C985.773 1672.6 985.845 1674.79 983.687 1677.22C981.598 1677.77 980 1677.82 977.874 1677.76C975.459 1677.68 974.263 1677.85 972.123 1679.13L971.611 1680.5C970.482 1683.46 969.902 1685.94 967.109 1687.74C966.627 1687.78 966.146 1687.81 965.662 1687.86C962.986 1688.11 960.358 1688.25 957.959 1689.57C954.248 1691.61 951.591 1696.78 947.66 1699.29C936.026 1706.72 922.91 1712.41 911.844 1720.75C910.94 1722.24 910.905 1722.89 909.277 1723.62C900.129 1727.71 892.836 1734.97 883.128 1737.73C880.012 1740.04 877.251 1741.73 873.651 1743.2C866.81 1745.99 860.992 1752.56 854.283 1754.49L851.208 1753.12C846.331 1755.25 843.426 1760.13 838.615 1761.97C838.793 1761.55 838.998 1761.15 839.149 1760.72C840.26 1757.54 841.774 1722.56 841.038 1718.23C840.837 1717.05 839.347 1714.92 838.759 1713.77C845.435 1688.18 825.34 1612.83 812.258 1589.19C813.969 1588.41 813.98 1587.98 814.991 1586.47C820.445 1584.38 825.303 1580.45 830.179 1577.24L831.899 1577.95L833.782 1578.76C838.97 1571.73 843.886 1574.63 850.498 1570.33L849.861 1568.08C851.544 1563.88 859.155 1564.48 864.413 1555.44Z" fill="#FECE72"/>
<path d="M883.127 1737.73C881.046 1724.68 886.346 1710.85 886.337 1697.4L889.024 1696.01L889.312 1694.33L886.481 1692.26C886.612 1689.67 888.869 1688.59 890.713 1686.85L890.478 1684.19C888.954 1683.18 887.898 1682.38 886.607 1681.04C888.176 1680.07 889.375 1679.04 890.696 1677.75L889.95 1675.78C887.603 1675.08 885.751 1674.41 883.674 1673.1C884.492 1669.37 885.354 1665.64 886.261 1661.93C885.082 1659.1 882.984 1658.73 880.364 1657.32C879.408 1654.87 879.992 1653.48 880.674 1651.02C882.87 1643.11 878.865 1646.41 876.525 1641C877.268 1638.56 878.111 1636.85 877.226 1634.34C875.134 1633.2 873.38 1632.13 871.589 1630.56C872.04 1628.48 872.288 1626.73 872.234 1624.59L868.795 1622.2C867.176 1619.32 866.444 1616.59 866.346 1613.29C866.246 1609.85 867.584 1606.3 870.136 1603.95C873.478 1600.87 877.662 1599.92 882.073 1600.14C886.054 1602.42 886.518 1606.07 889.198 1609.43C901.537 1624.95 907.741 1645.88 912.395 1664.88C914.766 1674.55 911.589 1684.02 913.138 1693.9C913.679 1697.34 915.169 1703.55 913.964 1706.79L909.65 1718.11L911.844 1720.75C910.94 1722.24 910.905 1722.89 909.277 1723.62C900.129 1727.71 892.835 1734.97 883.127 1737.73Z" fill="#623C27"/>
<path d="M560.594 1708.56C561.904 1711.06 563.157 1713.35 563.797 1716.13L561.786 1718.87C563.588 1720.99 563.93 1720.72 566.48 1721.45C568.709 1720.8 570.507 1720.06 572.531 1718.92C584.848 1720.06 597.271 1721.87 609.624 1720.69C610.173 1720.64 610.725 1720.61 611.274 1720.55C614.9 1720.2 617.166 1719.12 620.184 1717.13C622.252 1724.51 630.587 1730.93 628.439 1734.75C628.011 1735.51 627.532 1736.25 627.066 1736.99C628.879 1739.29 630.574 1741.51 632.056 1744.06C631.662 1745.9 631.176 1747.65 630.692 1749.47C630.138 1751.55 630.21 1752.29 630.823 1754.27C632.398 1755.01 633.88 1755.55 635.558 1756.02C637.349 1759.78 634.407 1761.82 637.046 1764.85L640.727 1765.64C645.076 1773.53 647.153 1782.44 651.045 1790.54C657.831 1804.67 667.19 1817.21 672.962 1831.99C665.593 1835.94 658.992 1835.18 651.03 1834.82C647.674 1834.67 631.901 1840.46 627.02 1841.75C624.902 1842.31 623.642 1842.37 621.502 1842.13C618.748 1843.8 618.26 1843.9 615.03 1843.95C607.687 1844.04 603.196 1848.44 594.937 1846.86C593.662 1846.62 592.396 1846.38 591.126 1846.11C579.306 1850.14 525.244 1854.27 513.784 1851.07C510.439 1842.13 508.387 1834.76 510.363 1825.35C511.405 1820.4 511.897 1819.39 508.957 1815.15C508.62 1814.67 508.271 1814.19 507.929 1813.71C508.343 1809.84 510.764 1809.21 511.5 1805.55C510.088 1802.5 508.91 1800.3 509.232 1796.81C510.816 1794.23 512.738 1791.92 512.479 1788.75C510.808 1787.5 509.631 1786.62 508.57 1784.81C510.496 1780.39 513.521 1776.41 515.198 1771.94C516.924 1767.34 517.521 1762.25 518.912 1757.53C522.963 1743.77 531.936 1730.51 542.017 1720.37C546.752 1715.6 554.669 1714.49 559.426 1709.77C559.825 1709.37 560.206 1708.96 560.594 1708.56Z" fill="#FECE72"/>
<path d="M591.126 1846.11C589.456 1842.88 589.744 1840.8 589.733 1837.23C589.724 1833.82 589.051 1831.82 586.613 1829.46C585.73 1829.57 583.828 1829.85 582.982 1829.79C577.216 1829.36 577.948 1816.28 574.869 1812.32L572.736 1813.4C567.323 1807.87 572.095 1791.58 568.755 1786.76C567.456 1784.89 566.116 1785.24 565.098 1782.73L568.134 1779.55C568.694 1775.51 565.063 1771.37 564.721 1766.94C565.253 1764.95 565.758 1763.99 567.299 1762.6C571.143 1759.1 572.93 1757.19 575.29 1752.49C575.514 1752.04 575.724 1751.6 575.939 1751.15C576.939 1752.1 577.924 1753.06 578.896 1754.04C590.977 1766.07 592.287 1772.81 592.352 1789.52C593.664 1790.54 595.157 1791.57 596.321 1792.76C598.585 1795.06 598.652 1795.87 598.356 1799.12C598.291 1799.84 598.088 1800.54 597.996 1801.25C597.12 1808.2 611.038 1828.83 615.73 1834.66C617.704 1837.11 619.587 1839.63 621.503 1842.13C618.748 1843.8 618.26 1843.9 615.031 1843.95C607.687 1844.04 603.196 1848.44 594.937 1846.86C593.662 1846.62 592.396 1846.38 591.126 1846.11Z" fill="#623C27"/>
<path d="M1210.45 1560.9C1199.56 1540.04 1217.69 1527.69 1215.75 1511.96C1215.47 1509.71 1215.45 1507.46 1215.36 1505.19C1217.28 1502.83 1218.08 1503.15 1221.12 1502.59C1225.33 1493.63 1224.32 1481.97 1228.25 1472.79C1231.78 1464.56 1239.53 1460.95 1244.17 1453.97C1247.33 1449.21 1248.13 1442.1 1250.88 1436.8C1251.18 1436.74 1254.7 1435.98 1254.78 1435.93C1257.04 1434.64 1269.01 1413.12 1272.57 1408.89C1275.29 1405.64 1279.44 1403.29 1282.84 1400.79C1286.88 1397.82 1282.95 1396.05 1283.56 1391.96L1287.02 1392.29C1293.17 1386.09 1296.38 1377.34 1302.18 1370.75C1314.54 1367.06 1315.15 1357.88 1323.41 1349.63C1327.57 1345.47 1335.01 1342.2 1340.08 1338.92C1340.35 1337.73 1340.67 1335.56 1341.2 1334.59C1343.62 1330.21 1380.24 1305.02 1386.52 1301.33C1390.51 1299 1398.42 1296.68 1401.46 1293.73C1402.63 1292.6 1402.98 1291.72 1403.65 1290.31C1403.88 1289.83 1404.09 1289.34 1404.31 1288.85C1407.34 1287.72 1409.08 1288.45 1412.22 1289.01L1412.79 1288.22L1411.81 1286.56L1412.79 1287.45L1412.19 1285.88L1412.39 1287.34L1412.97 1285.17C1424.48 1278.04 1435.28 1278.07 1446.67 1272.55L1446.39 1269.81L1447.96 1269C1450.21 1269.64 1451.69 1270.03 1454.07 1270C1455.18 1268.05 1456.33 1266.32 1457.73 1264.56C1465.34 1261.59 1476.25 1259.65 1484.47 1259.32C1498.69 1258.77 1509.82 1250.4 1523.06 1246.86C1528.39 1245.43 1567.62 1245.22 1574.6 1245.62C1578.23 1245.83 1579.84 1242.64 1584.03 1242.56C1586.72 1245.24 1588.04 1245.68 1588.08 1249.76C1588.15 1257.24 1586.66 1263.95 1587.25 1271.61L1585.59 1271.61C1581.01 1271.62 1577.96 1271.21 1573.6 1269.61C1570.31 1268.4 1566.59 1268.15 1563.44 1269.96C1562.94 1270.25 1562.56 1270.7 1562.07 1271C1559.44 1272.66 1504.84 1280.15 1493.69 1283.12C1483.74 1285.76 1478.09 1291.35 1469.22 1295.33C1464.53 1297.43 1459.13 1298.67 1454.2 1300.16C1450.38 1301.32 1445.65 1302.26 1442.23 1304.31C1438.79 1306.37 1435.1 1311.53 1431.56 1312.74C1429.62 1313.4 1426.03 1312.29 1424.04 1311.89C1417.74 1314.4 1413.68 1320.78 1408.05 1324.36C1403.71 1327.12 1398.35 1328.21 1394.01 1330.91C1391.72 1332.33 1390.22 1334.46 1388.65 1336.59C1385.84 1336.09 1383.4 1334.86 1380.99 1336.91C1376.14 1341.04 1372.83 1347.36 1367.96 1351.56C1364.81 1354.28 1359.21 1355.06 1357.25 1358.79L1358.26 1360.96C1355.91 1363.27 1355.05 1361.8 1352.67 1363C1350.04 1364.32 1345.43 1373.84 1341.09 1377.06C1337.33 1379.85 1322.56 1388.87 1322.15 1392.76L1323.45 1394.8C1320.63 1397.57 1318.81 1395.49 1316.21 1396.98C1310.28 1400.39 1309.87 1410.42 1305.79 1415.12C1302.93 1418.43 1299.36 1418.59 1296.67 1422.88C1296.98 1424.63 1297.24 1425.29 1298.07 1426.78C1296.24 1427.38 1295.03 1427.6 1293.16 1427.78C1284.77 1436.41 1287.68 1447.21 1278.13 1452.49C1275.83 1453.76 1274.67 1454.69 1273.22 1456.95L1273.24 1458.94L1276.52 1460.78C1276.24 1463.01 1275.87 1463.55 1273.83 1464.8C1272.06 1465.88 1269.45 1466.51 1267.46 1467.18C1259.97 1476.52 1266.47 1482.66 1253.9 1488.83L1252.54 1491.21C1253.39 1493.07 1253.88 1493.59 1255.31 1494.95C1255.81 1502.44 1249.18 1506.95 1247.84 1513.62C1246.96 1518.03 1249.91 1519.13 1247.87 1526.13C1250.35 1526.41 1251.75 1527.23 1253.94 1528.32C1258.37 1530.52 1263.39 1530.6 1266.64 1534.65C1259.96 1538.51 1252.99 1541.66 1245.82 1544.51C1245.37 1544.72 1244.91 1544.93 1244.45 1545.13C1237.51 1548.14 1231.63 1546.66 1226.13 1552.86C1223.16 1556.22 1220.92 1556.94 1216.83 1557.99C1214.33 1558.63 1214.3 1559.5 1212.37 1560.41C1211.77 1560.69 1211.09 1560.74 1210.45 1560.9Z" fill="#623C27"/>
<path d="M1247.87 1526.13C1250.36 1526.41 1251.75 1527.23 1253.94 1528.32C1258.37 1530.52 1263.39 1530.6 1266.64 1534.65C1259.96 1538.51 1252.99 1541.66 1245.82 1544.51C1245.42 1537.85 1241.27 1534.77 1244.16 1527.59C1244.77 1527.41 1245.39 1527.29 1245.98 1527.05C1246.63 1526.8 1247.24 1526.44 1247.87 1526.13Z" fill="#FECE72"/>
<path d="M148.402 1545.66C153.268 1541.26 160.701 1537.11 166.907 1534.96C171.194 1533.47 172.789 1533.45 176.927 1535.39C179.823 1535.06 181.734 1536.59 183.944 1538.46C195.402 1548.18 221.817 1582.31 226.356 1596.26C232.673 1600.36 240.782 1616.92 246.772 1623.68C246.149 1626.89 244.767 1631.29 246.493 1634.29C249.797 1640.04 255.75 1644.32 258.877 1650.11C262.383 1656.6 261.664 1665.52 265.269 1671.69C267.568 1675.62 272.874 1677.82 273.798 1682.4C273.107 1684.09 271.632 1686.27 272.311 1688.04C273.408 1690.89 276.003 1692.27 277.424 1695.01C279.718 1699.43 285.988 1726.25 287.245 1732.53C288.657 1733.85 290.01 1734.89 291.64 1735.93C292.27 1738.87 290.793 1741.37 289.69 1744.03C291.91 1746.44 295.805 1749.85 295.693 1753.29C295.567 1757.33 293.667 1761.83 292.453 1765.67L293.578 1765.95L295.846 1764.2L296.842 1765.28C296.526 1769.9 294.732 1776.31 296.378 1780.58L299.699 1783.63C299.557 1786.33 297.844 1788.18 296.336 1790.3C297.354 1800.4 304.567 1801.68 300.318 1813.21C301.433 1815.14 302.163 1815.75 303.872 1817.1C305.162 1826.25 302.368 1838.19 308.184 1846.01L304.351 1846.6L303.83 1849.47C296.613 1853.66 276.955 1847.91 268.402 1846.85C267.256 1844.32 266.26 1842.54 266.722 1839.67C268.097 1838.3 269.097 1837.16 270.021 1835.45C269.014 1832.09 267.968 1828.75 266.883 1825.42L270.838 1820.78C270.793 1816.95 268.417 1814.16 266.491 1810.91C266.386 1807.59 266.933 1807.7 269.232 1805.23C269.707 1800.67 266.441 1795.98 264.772 1791.83C263 1787.41 264.922 1784.61 266.718 1780.52C264.07 1771.65 261.826 1762.88 259.803 1753.85L261.68 1751.74C260.969 1750 260.298 1748.26 259.607 1746.51C255.266 1735.54 253.272 1724.25 249.989 1712.98C246.485 1700.96 241.632 1689.03 237.01 1677.4C231.773 1664.23 221.993 1652.14 217.459 1640.3L219.331 1636.65C215.343 1630.35 209.836 1624.63 205.36 1618.61C194.931 1604.6 184.911 1590.31 174.406 1576.34C168.581 1568.59 163.318 1558.95 156.764 1551.93C154.454 1549.45 151.218 1547.52 148.402 1545.66Z" fill="#623C27"/>
<path d="M1468.46 889.354C1472.01 881.984 1464.64 851.631 1461.82 843.416C1461.13 841.4 1460.72 839.618 1460.47 837.478C1462.56 835.752 1462.69 836.055 1465.24 835.771C1467.01 836.602 1468.94 837.731 1470.94 837.68C1483.1 837.378 1495.87 839.082 1508.13 839.428C1517.1 852.91 1524.05 868.484 1530.46 883.344C1518.5 881.629 1488.21 882.252 1477.27 886.471C1474.14 887.676 1472.2 888.245 1469.64 890.622L1468.46 889.354Z" fill="#623C27"/>
<path d="M560.594 1708.56L560.11 1705.96C560.391 1705.62 560.679 1705.29 560.956 1704.94C566.942 1697.51 570.5 1678.15 580.409 1675.8C584.721 1674.78 590.25 1675.66 594.771 1675.19C600.751 1674.56 606.617 1672.31 612.481 1671.8C614.287 1671.64 615.994 1672.07 617.733 1672.47C619.594 1671.41 620.857 1670.44 622.331 1668.89C622.596 1671.89 622.677 1674.76 623.932 1677.55C621.197 1690.15 619.709 1702.44 618.953 1715.3L620.184 1717.13C617.166 1719.12 614.9 1720.2 611.274 1720.55C610.725 1720.61 610.173 1720.64 609.624 1720.69C597.271 1721.87 584.848 1720.06 572.531 1718.92C570.507 1720.06 568.709 1720.8 566.48 1721.45C563.93 1720.72 563.588 1720.99 561.786 1718.87L563.797 1716.13C563.157 1713.35 561.904 1711.06 560.594 1708.56Z" fill="#623C27"/>
<path d="M789.21 1089.21C803.648 1093.09 818.281 1093.12 833.104 1094.15C841.249 1104.36 849.621 1120.09 854.346 1132.32C843.372 1135.11 811.524 1138.37 800.014 1137.84C798.246 1137.76 797.553 1137.88 795.984 1138.62C794.381 1137.43 794.642 1137.21 794.383 1135.2C792.968 1124.16 787.937 1107.57 782.062 1098.08C782.197 1095.33 782.26 1093.36 783.363 1090.8C785.22 1090.71 786.799 1090.84 788.434 1089.82C788.715 1089.64 788.95 1089.41 789.21 1089.21Z" fill="#623C27"/>
<path d="M1171.79 381.068C1169.72 379.015 1169.87 378.882 1169.89 375.853C1169.94 369.706 1171.24 363.345 1170.7 357.23C1169.91 348.416 1168.02 340.22 1168.13 331.242C1173.6 329.806 1202.71 336.677 1211.39 337.32C1214.68 343.267 1230.63 374.537 1230.26 379.246L1231.69 380.578L1230.95 382.38C1230.29 382.7 1229.69 383.203 1228.97 383.341C1224.11 384.265 1214.72 382.199 1209.51 381.911C1196.92 381.218 1184.35 381.634 1171.79 381.068Z" fill="#623C27"/>
<path d="M1464.59 370.281C1470.15 363.757 1501.58 345.799 1510.05 346.294C1518.03 346.758 1532.62 357.954 1538.94 362.896C1544.68 362.48 1550.42 361.972 1556.16 361.694C1553.01 364.08 1550.08 366.22 1546.61 368.094C1535.09 374.306 1514.43 390.87 1510.37 403.188C1500.67 400.384 1475.71 377.364 1464.59 370.281Z" fill="#623C27"/>
<path d="M812.258 1589.19C805.191 1583.65 796.843 1586.64 789.983 1582.97C785.318 1580.47 780.391 1572.87 775.695 1569.53C772.827 1567.49 770.463 1566.2 769.813 1562.58C773.115 1559.54 779.04 1559.98 783.431 1559.63C787.048 1556.06 790.829 1557.38 794.806 1555.04C799.105 1552.51 802.94 1548.08 806.839 1544.92C808.654 1543.45 812.738 1540.46 815.115 1540.27C819.561 1539.93 829.406 1547.56 834.052 1549.35C843.522 1553.01 854.361 1554.48 864.413 1555.44C859.155 1564.48 851.544 1563.88 849.861 1568.08L850.498 1570.33C843.886 1574.63 838.97 1571.73 833.782 1578.77L831.899 1577.95L830.179 1577.24C825.303 1580.45 820.445 1584.39 814.991 1586.47C813.98 1587.98 813.969 1588.41 812.258 1589.19Z" fill="#623C27"/>
<path d="M1177.48 779.098C1177.74 765.846 1177.51 742.702 1172.75 730.566C1171.87 728.322 1171.34 727.025 1171.49 724.535C1173.61 723.881 1174.06 723.876 1176.19 724.16C1182.73 725.031 1188.95 727.322 1195.42 728.487C1202.71 729.797 1211.89 729.017 1218.74 731.754C1232.13 737.104 1231.07 762.739 1236.87 774.025C1237.18 774.643 1237.52 775.251 1237.85 775.864C1248.36 775.038 1252 779.309 1259.59 785.798C1270.91 795.471 1277.38 806.866 1278.53 821.817C1279.47 834.125 1280.82 847.012 1280.85 859.313C1280.85 862.087 1281.65 864.338 1282.53 866.929L1281.68 868.555C1276.98 877.589 1269.29 912.161 1267.99 913.536C1265.93 915.717 1262.9 918.106 1263.06 921.35C1263.17 923.73 1264.13 926.243 1264.04 928.613C1263.84 933.835 1254.84 944.545 1251.6 948.799C1246.49 955.486 1241.14 961.435 1234.69 966.848C1232.98 968.28 1226.08 972.529 1225.31 974.055C1224.71 975.24 1225.64 976.872 1224.98 978.025C1223.07 981.376 1191.39 1001.04 1186.53 1003.2L1181.05 1002.83C1178.2 1005.6 1178.73 1008.77 1174.14 1008.93C1169.49 1009.09 1164.79 1007.28 1159.98 1007.5C1132.88 1008.79 1108.12 1011.33 1080.93 1007.16C1060.88 1004.09 1041.39 997.796 1021.46 994.338C1017.05 993.571 1012.7 995.079 1008.46 994.344C995.265 992.067 983.071 985.142 969.521 983.872C964.79 979.378 958.737 975.173 955.344 969.638C955.52 965.811 956.488 963.501 959.209 960.83C976.03 944.303 1016.95 942.287 1038.85 935.589C1040.66 935.037 1042.45 934.45 1044.23 933.828C1046.01 933.208 1047.78 932.553 1049.54 931.863C1051.29 931.174 1053.03 930.451 1054.76 929.694C1056.49 928.939 1058.2 928.15 1059.9 927.328C1061.6 926.505 1063.28 925.651 1064.94 924.763C1066.61 923.877 1068.26 922.958 1069.88 922.006C1071.51 921.056 1073.13 920.075 1074.72 919.062C1076.31 918.05 1077.88 917.008 1079.43 915.935C1080.98 914.862 1082.51 913.759 1084.02 912.627C1085.53 911.496 1087.02 910.336 1088.48 909.147C1089.95 907.958 1091.39 906.74 1092.8 905.495C1094.22 904.252 1095.62 902.98 1096.98 901.682C1098.35 900.383 1099.7 899.059 1101.01 897.709C1102.33 896.36 1103.62 894.985 1104.89 893.584C1106.15 892.185 1107.39 890.762 1108.6 889.315C1109.81 887.868 1110.99 886.398 1112.14 884.905C1118.1 877.267 1125.27 870.268 1129.25 861.39C1132.46 854.247 1134.53 849.357 1141.83 845.615C1145.43 839.113 1145.95 826.755 1151.54 822.268C1157.98 817.09 1160.74 801.965 1165.32 794.253C1168.62 788.701 1173.25 783.95 1177.48 779.098Z" fill="#FECE72"/>
<path d="M1177.48 779.098C1177.74 765.846 1177.51 742.702 1172.75 730.566C1171.87 728.322 1171.34 727.025 1171.49 724.535C1173.61 723.881 1174.06 723.876 1176.19 724.16C1182.73 725.031 1188.95 727.322 1195.42 728.487C1202.71 729.797 1211.89 729.017 1218.74 731.754C1232.13 737.104 1231.07 762.739 1236.87 774.025C1237.18 774.643 1237.52 775.251 1237.85 775.864C1236.33 776.52 1236.09 776.901 1234.42 776.594C1215.81 773.179 1195.84 775.31 1177.48 779.098Z" fill="#623C27"/>
<path d="M1208.12 817.918L1210.01 818.731C1213.49 818.038 1217.76 817.073 1221.26 818.184C1224.12 819.095 1226.33 821.185 1227.72 823.837C1230.2 828.574 1222.57 852.363 1220.44 857.859L1216.82 858.962C1215.22 862.503 1217.42 865.018 1216.28 867.968C1214.04 873.743 1206.72 878.127 1206.39 884.649C1206.36 885.231 1206.46 885.813 1206.47 886.395C1206.49 887.114 1206.46 887.833 1206.46 888.552L1206.47 890.258C1202.04 896.037 1196.12 900.683 1190.58 905.366C1183.57 911.291 1179.55 920.415 1172.89 925.92C1168.45 929.589 1162.44 931.411 1158.12 934.993C1155.65 937.037 1156.35 938.635 1156.42 941.577C1154.23 943.071 1152.39 942.036 1149.86 941.566C1147.56 943.194 1148.12 943.91 1147.66 946.573C1143 951.291 1137.03 955.625 1131.47 959.23C1119.73 966.846 1102.15 972.224 1088.2 969.332C1088.16 969.251 1088.09 969.175 1088.06 969.086C1086.98 965.636 1085.51 963.967 1083.07 961.267C1081.72 959.774 1082.03 959.38 1081.86 957.443L1084.15 958.639C1086.39 957.471 1087.44 949.755 1088.77 946.761C1099.83 941.62 1113.48 933.05 1125.38 931.664C1128.47 927.988 1131.82 923.268 1135.67 920.4C1139.63 917.445 1145.15 917.957 1148.59 913.83C1146.72 911.888 1147.34 912.923 1146.5 910.875C1150 909.382 1153.19 910.284 1156.73 909.528C1159.44 908.951 1159.83 908.611 1161.19 906.325C1160.71 903.95 1160.1 901.886 1160.56 899.465C1162.96 899.332 1162.2 899.308 1164.28 899.4C1164.7 899.417 1165.13 899.445 1165.55 899.467C1174.35 888.624 1188.52 871.838 1193.83 859.243C1197.17 851.326 1199.14 841.806 1201.83 833.516C1201.09 832.241 1200.56 831.137 1199.99 829.753L1201.62 828.341C1203.31 829.167 1203.88 829.524 1205.81 829.476C1205.11 827.144 1204.73 824.983 1204.44 822.568L1208.12 817.918Z" fill="#623C27"/>
<path d="M1065.06 1244.59C1064.72 1244.26 1064.37 1243.93 1064.04 1243.59C1061.29 1240.71 1046.74 1199.15 1046.78 1196.24L1048.29 1195.11C1063.09 1199.31 1082.74 1193.67 1095.77 1198.77C1104.36 1202.14 1115.54 1228.13 1119.12 1236.74C1126.92 1233.16 1135.37 1235.56 1143.2 1238.39C1159.46 1244.28 1173.99 1259.99 1180.36 1276.11C1181.17 1278.16 1181.12 1280.19 1181.38 1282.35C1182.06 1288 1190.3 1296.17 1192.67 1302.08C1195.28 1308.59 1191.93 1317.27 1193.92 1323.82C1194.45 1325.57 1196.97 1327.33 1197.68 1329.08C1199.45 1333.4 1201.22 1356.05 1198.85 1360.47C1197.17 1363.6 1194.63 1367.29 1194.57 1370.8C1196.91 1373.85 1198.1 1374.8 1197.66 1378.86C1196.99 1385.05 1195.37 1389.9 1195.82 1396.31L1194.53 1397.54C1191.24 1400.66 1188.87 1402.88 1187.57 1407.35C1182.74 1423.92 1167.47 1445.15 1154.63 1456.52C1147.12 1463.16 1136.52 1468.65 1127.72 1473.46C1120.93 1477.16 1106.61 1485.43 1098.88 1485.02L1094.97 1482.44C1093.34 1483.46 1092.49 1484.16 1091.19 1485.49C1064.65 1487.9 1037.37 1483.75 1010.89 1483.13C1008.7 1483.08 1007.56 1483.72 1005.62 1484.57C995.62 1489.01 948.998 1482 937.113 1477.45C933.716 1476.15 931.06 1474.13 928.27 1471.84C936.867 1454.28 956.845 1440.57 974.786 1433.53C977.457 1432.48 980.473 1432.77 983.267 1433.06C1001.46 1424.04 1012.26 1409.43 1025.57 1394.88C1028.3 1391.89 1031.78 1389.35 1033.99 1385.94C1039.89 1376.85 1044.63 1363.04 1048.15 1352.73C1054.21 1334.95 1057.34 1314.43 1059.13 1295.77C1060.65 1279.91 1058.21 1259.16 1065.06 1244.59Z" fill="#FECE72"/>
<path d="M1065.06 1244.59C1064.72 1244.26 1064.37 1243.93 1064.04 1243.59C1061.29 1240.71 1046.74 1199.15 1046.78 1196.24L1048.29 1195.11C1063.09 1199.31 1082.74 1193.67 1095.77 1198.77C1104.36 1202.14 1115.54 1228.13 1119.12 1236.74C1103.24 1242.72 1082.06 1243.67 1065.06 1244.59Z" fill="#623C27"/>
<path d="M1114.92 1280.58C1118.05 1280.12 1119.59 1279.67 1122.49 1281.27C1125.62 1284.92 1127.09 1287.86 1128.04 1292.6C1131.34 1308.97 1127.11 1349.75 1121.02 1365.4C1117.37 1374.77 1112.01 1383.06 1106.4 1391.34C1107.28 1393.6 1107.85 1395.05 1107.63 1397.49C1106.48 1398.43 1105.55 1399.07 1104.19 1399.72C1101.48 1401 1098.41 1411.84 1096.78 1415.22C1088.69 1431.93 1075.8 1441.35 1058.43 1447C1053.03 1448.76 1048.56 1447.95 1043.64 1445.34C1040.27 1444.12 1037.86 1438.88 1035.81 1435.86C1042.94 1429.57 1072.09 1409.18 1075.06 1404.51C1077.05 1401.38 1075.74 1396.92 1078.12 1393.61C1079.34 1391.92 1081.9 1392.34 1083.86 1392.18C1086.52 1387.22 1092.43 1378.87 1093.13 1373.42C1093.26 1372.43 1091.55 1367.34 1091.83 1366.94C1093.05 1365.17 1095.32 1365.71 1097.3 1362C1097.26 1361.64 1097.21 1361.27 1097.17 1360.91C1096.72 1356.38 1098.36 1355.52 1101.1 1352.09C1101.51 1349.07 1098.3 1349.88 1097.56 1346.57L1098.65 1345.65L1102.32 1347.46C1107.62 1340.93 1108.83 1317.89 1108.53 1309.8C1108.28 1302.87 1106.23 1294.71 1107.92 1287.93C1109.07 1283.32 1111.07 1282.92 1114.92 1280.58Z" fill="#623C27"/>
</g>
<defs>
<clipPath id="clip0_80_7334">
<rect width="1662" height="1853" fill="white"/>
</clipPath>
</defs>
</svg>
