<svg width="257" height="448" viewBox="0 0 257 448" fill="none" xmlns="http://www.w3.org/2000/svg">
<path d="M229.31 189.36C242.09 203.24 252.87 218.22 255.78 237.54C256.58 242.85 256.01 248.16 256.01 253.47C253.81 267.49 245.84 278.02 235.86 287.47C226.18 296.63 215.74 304.88 205.75 313.66C183.33 333.37 167.38 358.05 152.37 383.45C143.07 399.19 133.96 414.97 119.51 426.94C101.04 442.24 80.06 448.79 56.26 447.29C44.91 446.57 34.02 443.83 23.18 440.7C19.4 438.66 15.47 436.85 11.87 434.54C2.81999 428.74 -0.930013 420.63 1.20999 409.8C3.83999 396.47 8.93999 384.48 18.56 374.64C31.01 361.92 43.42 349.16 55.84 336.42C56.3 336.54 56.59 336.84 56.73 337.29C56.77 339.19 55.93 340.76 54.88 342.26C47.07 349.45 47.03 349.5 55.67 355.73C62.25 360.47 69.21 364.71 75.07 370.39C76.52 371.8 78.67 373 78.12 375.65C75.97 377.03 74.67 375.34 73.44 374.15C66.11 367.07 57.37 361.9 49.2 355.95C47.09 354.41 44.87 352.86 41.92 354.53C38.91 356.22 38.85 358.85 39.11 361.71C38.02 362.71 36.49 362.08 35.32 362.67C32.75 363.97 30.01 365.85 29.52 368.43C29.12 370.54 32.54 370.93 34.35 371.86C41.78 375.69 48.3 380.85 55.09 385.62C56.18 386.38 57.13 387.34 57.54 388.68C57.57 389.17 57.41 389.6 57.09 389.97C54.75 390.88 53.37 389.07 51.78 388C45.02 383.46 38.69 378.27 31.3 374.67C25.45 371.82 25.31 371.8 20.62 376.57C14.68 382.62 14.73 382.83 22.4 386.35C36.44 392.8 50.88 398.4 63.81 407.15C74.64 414.48 82.89 424.14 90.4 434.6C91.24 435.78 92.35 437.01 91.25 438.64C88 439.32 86.97 436.57 85.61 434.72C76.58 422.37 65.93 411.88 52.23 404.73C40.6 398.67 28.41 393.82 16.53 388.31C13.61 386.96 11.78 387.8 10.72 390.74C10.21 392.14 9.72001 393.56 8.98001 394.86C8.06001 396.31 7.38 397.87 6.94 399.54C5.88 403.74 5.02001 407.97 4.20001 412.22C3.02001 418.33 4.88999 423.37 8.92999 427.8C11.53 430.65 14.4 433.23 17.93 434.83C38.22 444.03 59.36 446.57 81.27 442.67C84.73 442.05 88.1 441.2 90.9 438.87C94.14 438.317 95.1767 436.337 94.01 432.93C93.63 431.82 93.23 430.72 94.01 429.6C96.75 429.09 97.33 431.4 98.19 433.03C100.08 436.65 102.43 435.31 104.8 433.85C107.71 432.06 106.08 430.23 104.67 428.53C97.77 420.22 91.82 411.16 84.5 403.19C83.41 402 82.04 400.78 83.06 398.84C87.18 398.41 88.61 401.94 90.61 404.29C96.55 411.25 101.87 418.71 108.05 425.48C111.11 428.83 116.94 427.66 118.46 423.31C119.1 421.49 117.75 420.51 116.71 419.51C111.53 414.56 106.77 409.22 102.09 403.81C100.83 402.36 98.93 401.12 99.94 398.7C102.62 397.89 103.85 400.06 105.21 401.52C109.82 406.5 114.33 411.57 119.08 416.43C121.91 419.33 124 419.19 126.36 416.22C126.77 415.7 127.29 415.28 127.74 414.79C132.66 409.53 132.63 409.14 126.81 405.25C124.33 403.59 121.89 401.87 119.6 399.95C118.29 398.85 116.43 397.86 117.32 395.54C119.46 394.44 120.76 396.11 122.18 397.11C125.04 399.12 127.77 401.32 130.75 403.16C134.8 405.65 135.61 405.14 138.75 400.16C140.92 396.72 139.69 395.11 136.51 393.71C130.5 391.06 125.54 386.79 120.4 382.84C118.78 381.59 116.67 380.39 117.22 377.68C119.63 376.26 120.87 378.37 122.38 379.46C127.77 383.36 132.76 387.84 138.92 390.62C143.22 392.56 143.68 392.08 147.47 386.06C149.66 382.58 148.08 381.03 145.37 379.3C139.48 375.53 133.66 371.63 128.19 367.24C126.69 366.04 124.64 365.14 124.98 362.62C127.72 361.13 129.39 363.34 131.12 364.64C136.59 368.74 142.25 372.56 147.93 376.36C149.79 377.61 151.67 379.14 153.25 376.14C154.62 373.55 157.79 371.03 153.82 367.99C146.67 362.52 139.89 356.62 133.26 350.54C127.77 345.5 121.83 340.88 117.85 334.39C117.86 333.89 118.08 333.51 118.52 333.25C121.54 332.8 122.92 335.23 124.61 336.9C134.42 346.59 144.69 355.74 155.59 364.18C157.3 365.51 159.29 367.47 160.72 364.25C161.93 361.52 166.67 359.23 162.3 355.35C159.44 352.81 155.38 351.18 155.02 346.55C158.37 345.26 159.49 348.5 161.61 349.75C163.66 350.96 165.3 354.87 168.11 352.31C170.97 349.7 167.68 347.57 166.08 345.71C157.31 335.52 147.91 325.98 137.1 317.9C135.33 316.58 132.88 315.65 132.93 312.77C133.26 312.41 133.65 312.19 134.13 312.1C140.46 314.24 145.09 318.95 149.78 323.27C156.48 329.45 163.17 335.71 168.9 342.87C170.28 344.59 171.66 346.38 174.1 343.93C177.73 340.31 178.52 337.74 175.95 335.7C172.83 333.22 169.8 330.63 166.72 328.1C164.05 325.91 161.15 323.86 159.83 320.42C159.83 319.92 160.04 319.53 160.46 319.26C162.85 318.72 164.09 320.52 165.52 321.83C169.44 325.44 173.54 328.83 177.77 332.06C179.15 333.11 180.54 334.89 182.56 333.3C184.58 331.71 184.85 329.77 183.27 327.63C182.87 327.09 182.77 326.41 182.9 325.72C183.23 325.37 183.64 325.16 184.12 325.07C188.26 325.81 192.38 323.7 194.23 320.05C195.09 318.35 194.35 317.22 193.26 316.1C190.74 313.48 188.02 311.04 185.62 308.32C184.43 306.97 182.39 305.59 184.47 303.39C186.92 303.52 188.18 305.45 189.72 306.9C191.9 308.96 193.96 311.14 196.11 313.23C197.66 314.75 199.25 315.84 201.25 313.9C203.23 311.99 202.34 310.37 200.79 308.76C196.02 303.81 192.28 298.1 188.8 292.21C184.57 285.03 180.82 277.59 177.58 269.91C171.37 255.18 163.75 250.15 147.61 249.99C140.13 249.92 132.69 248.79 125.19 248.8C122.77 248.8 120.2 248.4 118.05 246.89C117.78 246.41 117.79 245.93 118.06 245.45C119.46 244.29 121.19 244.14 122.79 244.43C132.97 246.26 143.33 244.67 153.56 246.24C165.32 248.04 174.49 252.53 179.52 264.24C184.29 275.35 189.32 286.42 196.39 296.37C197.64 298.13 198.76 299.97 200.08 301.69C205.59 308.85 205.67 308.86 212.78 303.46C213.32 302.97 213.89 302.52 214.47 302.07C215.97 300.93 217.59 299.94 218.89 298.54C226.4 291.29 234.8 285.03 241.63 277C252.75 263.93 255.6 249.13 251.94 232.76C249.12 220.13 242.77 209.34 234.24 199.75C233.91 199.43 233.63 199.06 233.36 198.68C232.46 196.92 231.45 195.25 229.69 194.17C229.15 193.71 228.72 193.17 228.44 192.52C228.2 191.82 228.16 191.11 228.34 190.39C228.52 189.93 228.82 189.57 229.25 189.31L229.31 189.36Z" fill="#0E2327"/>
<path d="M102.31 226.99C102.31 225.84 102.29 224.7 102.28 223.55C115.35 222.78 128.43 221.94 141.22 219.02C155.69 215.71 169.55 210.62 182.77 203.86C192.53 198.49 202.43 193.34 210.93 185.98C212.2 185.18 213.3 184.17 214.4 183.16C218.5 179.44 218.87 179.47 222.87 183.47C226.85 187.46 227.16 189.04 223.53 192.58C203.99 211.6 182.17 226.87 155.23 233.59C153.78 233.95 152.27 234.04 150.83 234.48C136.25 236.15 121.76 235.72 107.34 232.93C104.04 232.29 102.87 229.92 102.31 227V226.99Z" fill="#F0F1EC"/>
<path d="M102.32 218.74C98.38 180.67 81.52 146.82 67.48 112.05C58.98 91 50.58 69.91 42.14 48.84C41.71 47.83 42.32 47.61 43.13 47.54C46.36 50.25 46.76 54.3299 48.01 57.9499C48.58 59.6199 49.14 58.79 49.9 58.51C50.98 58.96 52.06 59.67 53.17 58.53C54.78 58.56 56.27 58.0899 57.72 57.4599C58.69 57.3099 59.19 58.9601 60.34 58.1101C61.65 57.5401 62.89 56.83 64.21 56.3C65.25 56.08 66.27 55.8201 67.23 55.3701C68.49 55.1101 69.79 55.1 71.05 54.79C72.07 54.59 73.08 54.38 74.06 54.03C75.44 53.65 76.55 52.66 77.96 52.35C78.77 52.31 79.58 52.4399 80.39 52.4599C81.61 52.4599 82.76 52.19 83.8 51.54C85.31 50.62 84.77 48.81 85.53 47.57C86.5 46.14 87.33 46.66 88.01 47.8C88.61 48.8 89.22 49.6599 90.57 49.4499C91.83 49.3199 92.29 48.08 93.23 47.52C94.8 47.66 96.28 47.4399 97.59 46.4899C98.64 46.5699 99.47 46.0199 100.31 45.4899C102.17 45.7699 104.01 45.6199 105.84 45.2299C106.7 45.1099 107.53 44.8899 108.38 44.7099C110.18 44.3699 111.84 43.63 113.48 42.88C114.72 42.5 115.23 41.26 116.19 40.54C117.57 40.31 118.93 41.1399 120.31 40.5799C121.32 40.2999 122.02 39.5399 122.83 38.9399C124.34 39.0699 125.92 39.6199 127.08 38.0799C127.68 37.7899 128.3 37.57 128.94 37.39C130.73 36.79 132.61 36.3699 134.18 35.2399C135.43 33.6399 134.49 31.33 135.94 29.8C137.54 29.16 137.8 30.45 138.19 31.43C138.62 32.5 138.93 33.6 140.46 33.01C141.67 32.56 142.17 31.3099 143.14 30.5899C144.14 30.4499 145.16 31.27 146.14 30.52C147.05 30.05 147.37 28.94 148.3 28.52C149.65 29.44 149.97 27.3 151.1 27.55C154.52 28.82 152.18 25.2699 153.44 24.7199C154.23 23.3699 155.15 23.38 155.91 24.66C156.73 26.03 157.52 27.37 159.22 27.79C159.66 28.02 160.03 28.3299 160.35 28.7099C160.45 29.2399 160.33 29.7099 159.98 30.1199C155.61 33.0099 150.45 33.93 145.67 35.8C118.55 46.43 90.72 54.82 62.37 61.5C61.56 61.69 60.76 61.9299 59.96 62.1499C51.12 64.6499 51.06 65.0301 55.24 73.1101C57.06 76.6301 59.84 76.5199 62.86 75.9899C72.2 74.3499 81.29 71.6199 90.52 69.4799C92.71 68.9699 95.02 67.85 97.12 69.82C96.84 72.48 94.53 72.6 92.74 73.05C82.89 75.5 73.14 78.4 63.1 80.07C61.62 80.32 59.24 79.78 59.34 82.26C59.42 84.51 60.62 86.3999 63.1 86.9699C65.25 87.4699 67.4 87.1601 69.55 86.8701C79.79 85.4801 89.95 83.7 100.01 81.31C102.4 80.74 104.86 79.79 107.21 81.54C107.51 84.02 105.39 84.0899 103.98 84.4499C92.38 87.3699 80.72 89.9299 68.8 91.2099C66.93 91.4099 64.07 90.1301 63.78 93.6101C63.52 96.6901 66.38 100.99 68.88 101.31C71.03 101.58 73.19 101.25 75.32 100.89C89.24 98.5098 103.06 95.71 116.44 91.02C118.86 90.17 121.39 88.7498 124.02 90.6298C124.04 93.9898 121.02 93.7199 119.12 94.4099C104.71 99.6299 89.74 102.64 74.71 105.39C72.84 105.73 69.45 104.42 69.39 107.94C69.32 111.71 72.87 115.3 76.24 115.14C81.71 114.87 87.09 113.67 92.51 112.96C94.61 112.69 97.23 111.47 98.41 114.68C96.27 116.95 93.3 116.72 90.59 117.29C87.18 118.01 83.67 118.11 80.3 118.94C78.41 119.41 75.05 117.86 75.11 121.66C75.18 126.08 78.37 129.08 82.24 128.56C89.46 127.58 96.56 125.92 103.69 124.42C105.76 123.98 107.86 123.09 109.92 124.49C110.39 127.85 107.46 127.54 105.74 127.97C99.17 129.6 92.58 131.15 85.89 132.25C80.21 133.18 79.33 135.47 82.67 140.17C83.52 141.36 85.19 141.85 85.47 143.51C84.14 151.26 87.66 155.27 94.93 154.02C115.92 150.41 136.38 144.78 156.42 137.6C158.73 136.77 160.94 135.38 163.58 136.14C164.11 136.36 164.38 136.76 164.42 137.33C162.82 140.34 159.6 140.74 156.89 141.72C137.17 148.87 117.02 154.44 96.37 158.25C94.2 158.65 90.3 157.57 90.99 162.11C91.73 166.97 94.38 169.26 98.51 168.88C104.66 168.32 110.58 166.6 116.57 165.26C118.57 164.82 121.21 163.33 122.4 166.74C115.96 171.14 108.17 170.84 101.06 172.92C99.13 173.48 95.27 171.72 96.15 176.36C96.85 180.05 98.96 181.13 102.67 180.34C118.8 176.9 134.79 172.98 150.35 167.42C152.76 166.56 155.23 164.98 157.98 166.57C158.35 170.03 155.29 169.89 153.41 170.59C138.92 176.06 124.03 180.15 108.85 183.16C107.22 183.48 105.61 183.94 103.96 184.14C100.08 184.6 98.91 186.5 100.03 190.3C101.38 194.88 102.07 195.44 106.69 194.28C115.56 192.05 124.29 189.37 133.06 186.81C134.8 186.3 136.52 185.54 138.41 186.08C138.92 186.27 139.27 186.63 139.44 187.14C138.41 189.96 135.69 190.24 133.4 190.93C124.5 193.61 115.6 196.33 106.57 198.52C103.34 199.3 101.93 200.55 102.92 203.99C103.7 206.69 103.89 209.54 104.43 212.32C104.53 213.09 104.55 213.87 104.55 214.65C104.55 215.98 104.45 217.29 103.73 218.46C103.36 218.94 102.91 219.04 102.37 218.76L102.32 218.74Z" fill="#112D31"/>
<path d="M102.31 226.99C106.01 233.61 112.85 232.36 118.63 233.11C129.44 234.52 140.34 234.87 151.18 232.99C151.52 233.49 151.57 234.02 151.34 234.57C147.58 237.25 143.14 236.98 138.89 237.19C129.53 237.66 120.29 236.14 111.03 235.13C108.85 234.89 105.75 233.09 104.95 237.09C104.1 241.31 107.08 241.92 110.25 242.6C113.03 243.19 116.45 242.5 118.19 245.78C118.19 246.05 118.19 246.32 118.19 246.58C115.19 248.83 112.14 246.72 109.12 246.65C106.72 246.59 103.4 244.4 102.75 248.72C102.16 252.61 105.71 252.62 108.14 253.14C117.57 255.15 127.07 256.89 136.38 259.4C142.94 261.17 149.58 262.97 154.34 268.42C153.77 271.52 151.69 270.32 150.31 269.54C136.21 261.58 120.18 260.44 104.92 256.58C102.41 255.95 100.71 256.52 100.15 259.34C99.54 262.37 98.7 265.28 102.8 266.68C109.88 269.1 117.03 271.29 123.89 274.34C134.34 279 143.85 285.11 151.89 293.17C161.65 302.95 172.09 311.99 181.82 321.78C182.92 322.88 184.79 323.6 184.09 325.75C183.64 325.8 183.18 325.86 182.73 325.91C180.52 326.72 179.33 325.06 178.04 323.87C169.25 315.75 160.36 307.72 152.13 299.01C138.06 284.09 120 276.31 100.98 270.18C97.35 269.01 96.32 271.06 95.28 273.82C94 277.23 96.61 277.41 98.56 277.98C120.56 284.34 138.48 297.4 155.14 312.48C157.28 314.41 160.06 316.07 160.42 319.44L160.19 319.74C157.25 321.3 155.98 318.67 154.41 317.25C144.28 308.06 133.81 299.34 121.94 292.4C114.71 288.17 107.08 284.9 99.15 282.31C96.54 281.46 93.73 279.94 91.75 283.56C89.87 287 92.31 288.33 94.56 289.85C95.13 290.24 95.41 290.85 95.42 291.56C94.78 292.53 93.82 292.58 92.8 292.49C87.12 291.99 86.44 292.62 86.42 298.38C86.42 298.88 86.4 299.36 86.18 299.82C85.46 300.76 84.35 301.24 83.54 302.07C80.3 305.44 80.61 307.4 84.83 309.61C94.82 314.84 104.8 320.12 113.59 327.27C115.65 328.94 118.51 330.27 118.19 333.73L117.91 334.01C115.47 334.85 114.28 332.9 112.82 331.67C103.31 323.66 92.37 318.04 81.27 312.68C78.89 311.53 77.17 311.9 75.84 314.24C74.94 315.83 74.02 317.46 72.06 318.01C71.55 318.06 71.17 317.86 70.92 317.41C80.25 301.75 88.78 285.66 94.34 268.26C98.62 254.87 102.64 241.32 102.32 226.99H102.31Z" fill="#102F33"/>
<path d="M43.17 47.72C42.83 48.1 42.48 48.4701 42.14 48.8401C38.2 40.3101 39.16 38.48 48.89 36C73.65 29.68 98.07 22.25 122.19 13.84C133.28 9.96997 143.9 4.80996 155.23 1.57996C155.45 1.99996 155.5 2.44002 155.38 2.90002C154.23 5.19002 151.72 5.41996 149.83 6.57996C149.27 6.92996 148.69 7.24 148.08 7.5C146.69 7.96 145.33 8.53 143.99 9.12C143.06 9.35 142.05 9.23 141.23 9.87C140.28 10.58 139.79 11.86 138.48 12.1C137.64 11.99 136.81 11.97 136 12.29C134.95 12.52 133.93 12.84 132.91 13.16C131.92 13.32 130.9 13.28 129.97 13.74C128.65 14.28 127.6 15.24 126.43 16.02C125.46 16.43 124.38 16.46 123.45 17C121.68 17.49 121.24 19.81 119.28 20.03C118.33 19.58 117.55 18.67 116.33 19.01C114.51 19.2 113.28 20.6499 111.63 21.1899C110.39 21.2699 109.13 21.17 107.94 21.66C106.23 21.94 105.2 23.4 103.74 24.1C102.16 23.79 102 25.54 100.97 26.03C99.61 25.7 97.69 24.24 98.15 27.49C98.31 28.61 98.28 29.74 97.54 30.71C94.13 31.3 95.26 27.03 92.95 26.45C90.69 26.39 89.15 27.79 87.56 29.09C86.72 29.03 85.88 28.98 85.08 29.3C83.09 29.61 83.33 31.57 82.52 32.74C80.59 33.66 79.91 30.81 78.13 31.29C76.79 31.2 75.8 32.0301 74.69 32.5601C73.9 32.8901 73.09 33.13 72.25 33.26C70.79 33.23 69.48 33.82 68.14 34.29C67.11 34.45 66.12 34.7299 65.18 35.1899C63.51 35.3899 62.22 36.51 60.71 37.09C59.67 36.92 58.92 37.59 58.1 38.05C56.72 38.07 55.37 37.45 53.98 37.91C52.9 38.06 52.29 38.8901 51.56 39.5601C48.96 39.8901 49.92 43.71 47.25 43.97C45.93 43.29 46.51 41.16 44.81 40.78C40.89 42.33 44.45 45.57 43.22 47.71L43.17 47.72Z" fill="#244C4E"/>
<path d="M102.32 218.74C102.64 218.74 102.96 218.74 103.28 218.72C107.28 221.74 111.88 221.51 116.5 221.15C137.94 219.47 158.36 214 177.81 204.83C179.59 203.99 181.31 202.84 183.46 203.22C184.08 203.41 184.31 203.81 184.16 204.44C159.44 218.15 132.69 223.86 104.69 224.72C103.5 224.76 102.84 224.47 102.29 223.56C102.3 221.96 102.32 220.35 102.33 218.75L102.32 218.74Z" fill="#143438"/>
<path d="M155.04 2.73002C155.1 2.34002 155.16 1.95999 155.23 1.56999C158.74 -0.220014 160.3 1.75001 161.36 4.72001C161.58 6.73001 161.81 8.74004 162.03 10.75C160.77 15.17 163.08 19.36 162.89 23.73C162.82 25.32 163.54 26.98 161.67 27.99C159.15 27.43 159.13 25.34 158.8 23.38C157.7 16.74 157.32 9.97004 155.27 3.50004C155.19 3.24004 155.12 2.98001 155.04 2.72001V2.73002Z" fill="#277480"/>
<path d="M55.85 336.44C60.87 330.1 65.89 323.76 70.91 317.42C71.06 317.63 71.25 317.8 71.47 317.92C72.65 319.43 74.59 320.49 74.31 322.84C73.95 323.13 73.54 323.31 73.09 323.4C66.72 324.3 64.38 328.6 66.36 335.76C63.04 336.06 59.51 334.61 56.44 336.94C56.25 336.77 56.05 336.6 55.85 336.43V336.44Z" fill="#0E2327"/>
<path d="M160.94 27.71C163.32 24.96 161.97 21.84 161.69 18.89C161.43 16.15 160.35 13.42 162.02 10.77C165.99 44.48 171.18 77.9899 182.31 110.19C189.14 129.94 196.34 149.66 209.16 166.62C214.4 173.55 220.6 179.61 226.49 185.94C227.5 187.02 228.37 188.22 229.3 189.37C229.23 189.86 229.16 190.35 229.09 190.84C224.48 193.87 221.04 198.2 216.9 201.78C206.92 210.39 196 217.54 184.63 224.07C175.78 229.15 166.08 232.04 156.26 234.53C154.49 234.98 152.64 235.3 151.15 233.71C151.15 233.47 151.15 233.23 151.15 233C174.67 228.55 194.13 216.27 212.12 201.25C215.81 198.17 219.02 194.52 222.74 191.48C225.72 189.04 225.63 187.23 222.7 184.96C221.29 183.86 220.21 182.33 219.13 181.16C216.34 183.32 213.87 185.22 211.4 187.13C210.97 186.87 210.77 186.5 210.79 186C210.83 185.84 210.86 185.68 210.92 185.53C212.03 182.56 217.09 180.76 213.3 176.33C210.95 173.59 208.64 171.07 204.87 170.54C206.41 167.49 205.07 165.13 202.91 163.13C200.47 160.87 198.63 163.27 196.72 164.26C179.91 173.01 162.45 180.27 144.66 186.76C142.99 187.37 141.23 188.2 139.4 187.09L139.14 186.78C139.11 184.04 141.47 183.9 143.17 183.26C158.42 177.6 173.29 171.02 188.08 164.28C190.5 163.18 192.85 161.95 195.1 160.54C199.56 157.75 199.62 155.07 195.26 151.97C194.6 151.5 193.72 151.35 193.14 150.71C192.9 150.04 193.14 149.44 193.38 148.81C194.43 146.06 193.05 143.81 191.32 142.11C189.66 140.48 187.9 142.35 186.4 143.14C168.14 152.73 149.12 160.39 129.26 165.95C127.22 166.52 125.15 167.49 123.08 166C123.4 162.6 126.46 162.77 128.56 162.16C141.52 158.38 154.14 153.72 166.52 148.36C173.09 145.52 179.33 141.99 185.81 138.97C190.1 136.98 187.98 134.11 187.05 131.43C185.78 127.75 183.62 130.12 181.92 130.9C177.69 132.84 173.64 135.18 169.23 136.73C167.55 137.32 165.83 138.36 164.11 136.76L163.91 136.52C164.47 133.94 166.8 133.49 168.72 132.7C172.88 131 176.8 128.81 180.84 126.87C183.65 125.52 184.27 123.61 183.01 120.79C181.67 117.79 179.62 118.23 177.25 119.2C160.32 126.11 143.27 132.68 125.35 136.66C117.89 138.32 110.46 140.1 102.94 141.51C100.98 141.88 99.02 142.34 97.06 141.51C94.57 138.4 97.95 138.68 99.14 138.4C106.1 136.74 113.1 135.21 120.09 133.69C139.05 129.59 157.19 123.08 175.07 115.72C178.58 114.28 180.16 112.58 178.51 108.58C177.25 105.51 175.71 104.96 172.79 106.15C166.32 108.79 159.9 111.6 153.22 113.68C151.34 114.27 149.47 115.21 147.43 114.22C146.33 110.78 149.45 110.9 151.1 110.32C157.87 107.95 164.48 105.19 171.11 102.5C175.37 100.78 176.49 95.8899 173.59 92.4099C172.17 90.7099 170.92 92.03 169.59 92.48C166.57 93.5 164.1 96.57 160.37 95.01C159.57 93.85 160.42 93.1801 161.17 92.5701C162.6 91.4301 164.3 90.7399 165.92 89.9199C172.01 86.8299 173.16 82.58 169.68 76.52C168.39 74.27 166.95 75.52 165.46 76.04C162.77 76.98 160.48 79.61 157.18 78.05C156.98 74.65 160.07 74.49 162.01 73.45C169.2 69.6 169.73 67.62 164.88 60.97C164.69 60.52 164.62 60.0601 164.66 59.5801C166.38 55.0701 164.73 50.8501 163.51 46.5901C162.79 40.5501 162.69 34.39 160.06 28.72L160.13 28.8199C159.64 27.9599 160.15 27.77 160.87 27.7L160.94 27.71Z" fill="#112D31"/>
<path d="M234.13 198.74C234.86 199.08 235.83 199.24 236.28 199.8C250.15 217.03 258.52 235.86 253.13 258.62C250.36 270.33 242.76 278.8 234.25 286.62C229.37 291.11 224.33 295.41 219.36 299.8C219.15 299.69 218.94 299.58 218.73 299.47C213.43 290.99 207.44 282.99 201.91 274.67C201.6 274.3 201.35 273.9 201.1 273.49C195.17 263.31 188.9 253.35 182.93 243.2C181.68 241.08 179.88 239.18 180.41 236.4C180.57 235.94 180.81 235.52 181.14 235.15C196.06 226.1 210.83 216.81 224.4 205.76C226.34 204.18 228.05 202.37 229.92 200.72C231.11 199.67 232.1 198.06 234.12 198.73L234.13 198.74Z" fill="#20858A"/>
<path d="M184.09 325.75C171.85 314.05 159.81 302.14 147.32 290.72C134.66 279.14 119.04 272.99 102.9 268C101 267.41 97.85 267.65 97.93 264.88C98.02 261.65 99.02 258.39 100.03 255.27C100.39 254.17 102.16 254.58 103.25 254.85C115.45 257.91 128 259.49 139.98 263.48C143.62 264.69 147.12 266.14 150.37 268.2C151.52 268.93 152.64 270.42 154.33 269.13C159.81 269.8 161.91 274.19 164.34 278.21C167.39 283.5 170.88 288.44 175.81 292.19C177.17 292.8 177.91 293.91 178.32 295.29C179 298.33 181.9 299.72 183.44 302.12C183.66 302.53 183.76 302.97 183.76 303.43C186.37 308.56 190.93 311.96 194.96 315.79C197.32 318.03 197.62 319.62 194.98 321.67C193.56 322.78 192.13 324 191.06 325.44C188.76 328.55 186.51 327.97 184.08 325.76L184.09 325.75Z" fill="#1A888D"/>
<path d="M82.18 443.63C72.03 447.37 61.49 445.96 51.18 445.31C40.6 444.65 30.28 441.9 20.49 437.59C18.23 436.59 15.99 435.45 13.93 434.1C3.5 427.28 0.729999 420.1 3.55 407.25C4.18 404.36 5.12002 401.53 5.92002 398.67C9.14002 398.62 11.7 400.73 14.72 401.36C16.95 402.13 19.2 402.87 21.4 403.74C35.9 410.51 51.48 415.2 64.07 425.71C66.75 427.95 69.51 430.17 71.54 432.97C74.16 436.58 76.85 439.77 81.62 440.29C82.49 441.29 83.22 442.31 82.19 443.63H82.18Z" fill="#18828C"/>
<path d="M151.17 233.71C162.16 233.06 172.35 229.2 181.76 224.14C198.01 215.41 213.36 205.15 225.8 191.2C227.09 189.75 227.92 190.11 229.11 190.84C229.16 191.48 229.2 192.12 229.25 192.76C226.88 198.31 221.85 201.47 217.59 205.15C205.45 215.64 191.9 224.14 177.82 231.76C174.36 233.63 173.79 235.4 175.57 238.8C182.68 252.39 190.79 265.38 199.07 278.26C203.66 285.4 207.96 292.73 212.69 299.78C213.54 301.04 214.31 302.32 213.96 303.95C208.553 308.923 203.627 308.44 199.18 302.5C191.95 292.9 185.49 282.73 181.63 271.38C175.91 254.55 164.08 247.32 147.04 246.87C137.42 246.61 127.81 246.15 118.2 245.78C114.79 244.3 111.09 244.29 107.51 243.63C103.23 242.83 102.13 240.65 103.35 234.95C104.16 231.17 106.93 232.88 108.91 233.19C122.24 235.31 135.58 236.77 149.06 234.79C149.9 234.67 150.7 234.52 151.18 233.72L151.17 233.71Z" fill="#15858C"/>
<path d="M177.18 295.16C176.96 294.11 176.3 293.39 175.41 292.85C170.43 288.71 166.97 283.31 163.19 278.17C160.89 274.51 157.84 271.59 154.32 269.13C143.69 261.2 130.91 259.44 118.47 256.7C113.29 255.56 108.13 254.33 102.92 253.35C98.41 252.49 101.06 249.66 101.4 247.74C101.68 246.14 100.98 243.24 104.96 244.51C109.16 245.85 113.76 245.94 118.18 246.58C128.89 248.23 139.72 248.17 150.5 248.71C162.78 249.33 172.04 254.01 177.15 265.92C182.84 279.18 188.94 292.28 198.15 303.61C199.41 305.16 200.52 306.91 202.04 308.14C205.27 310.75 205.11 312.54 201.89 315.32C199.26 317.59 198.08 317.02 195.91 315.02C191.79 311.24 188.55 306.52 183.77 303.44L183.6 303.22L183.32 303.27C182.08 299.96 178.26 298.6 177.19 295.17L177.18 295.16Z" fill="#F1F2EB"/>
<path d="M66.26 336.38C66.2 336.06 66.16 335.73 66.09 335.42C65.66 333.39 61.99 332.8 62.84 331.05C64.37 327.88 66.9 325.17 69.21 322.43C70.44 320.97 71.91 322.13 73.21 322.72C76.6 322.93 78.96 325.92 82.35 326.11C84.19 326.56 85.67 327.5 86.65 329.16C89.22 332.98 93.69 334.52 96.82 337.67C99.09 339.23 100.86 341.34 102.92 343.12C109.29 348.01 114.56 354.2 121.33 358.62C122.98 359.56 124.63 360.5 124.95 362.63C131.58 369.2 139.41 374.16 147.28 379.01C150.88 381.23 151.06 382.93 148.83 386.31C143.21 394.82 143.25 395.1 134.35 389.62C129.58 386.69 125.27 383 120.73 379.7C119.58 378.87 118.76 377.32 116.94 377.8C116.72 377.73 116.5 377.65 116.27 377.59C111.03 373.37 106.08 368.8 100.84 364.56C99.57 363.53 98.49 362.24 96.77 361.92C93.81 360.88 91.62 358.87 89.78 356.41C87.77 352.33 83.55 350.65 80.42 347.78C80.03 347.54 79.66 347.26 79.31 346.96C76.56 344.56 73.9 342.04 70.63 340.31C68.8 339.41 66.96 338.5 66.24 336.36L66.26 336.38Z" fill="#168990"/>
<path d="M85.96 329.54C84.74 328.71 83.52 327.87 82.3 327.04C79.15 326.53 76.98 324.36 74.59 322.55C73.51 321.03 70.18 321.03 71.48 317.92C71.84 317.59 72.25 317.31 72.54 316.94C78.19 309.57 78.14 309.66 86.77 313.9C97.95 319.39 108.38 326 117.91 334.01C129.51 345.67 141.4 357.01 154.57 366.9C157.61 369.19 158.48 370.87 156.03 374.37C151.85 380.36 152.05 380.63 145.87 376.48C139.95 372.5 134.2 368.28 128.33 364.23C127.33 363.54 126.61 362.05 124.97 362.64C123.69 361.63 122.42 360.61 121.14 359.59C116.55 355.56 111.64 351.88 107.42 347.43C106.15 346.09 104.78 344.91 103.13 344.09C100.72 342.05 98.99 339.23 95.97 337.9C93.25 334.39 88.59 333.18 85.97 329.55L85.96 329.54Z" fill="#ECF0EA"/>
<path d="M118.18 333.72C113.04 326.71 105.45 322.81 98.34 318.37C93.72 315.48 88.67 313.27 83.92 310.58C82.21 309.61 78.74 309.59 79.49 306.86C80.29 303.94 81.17 300.21 85.41 299.79C85.74 299.76 86.06 299.67 86.39 299.61C86.62 299.64 86.85 299.68 87.08 299.71C93.79 302.32 100.45 305.04 106.62 308.8C113.03 312.9 119.67 316.64 125.77 321.23C127.48 322.52 129.22 323.83 131.48 324.07C136.57 326.84 140.79 330.66 144.55 335.02C146.9 339.03 150.55 341.8 153.96 344.8C154.5 345.27 154.88 345.84 154.92 346.59C157.34 350.27 160.97 352.7 164.29 355.42C166.23 357.01 166.37 358.29 164.95 360.43C159.32 368.85 159.39 368.91 151.5 362.62C141.49 354.64 132.12 345.94 122.92 337.05C121.55 335.73 120.53 333.74 118.2 333.71L118.18 333.72Z" fill="#15878E"/>
<path d="M117.23 395.49C120.54 400.68 126.08 403.19 130.9 406.48C133.57 408.3 134.07 409.23 131.84 412C123.31 422.57 123.39 422.72 114.12 413.16C110.55 409.48 107.26 405.54 103.79 401.77C102.59 400.46 101.63 398.74 99.5 398.71C99.06 398.55 98.69 398.29 98.38 397.94C96.35 394.61 93.39 392.15 90.53 389.6C90.01 389.13 89.59 388.58 89.24 387.98C86.5 383.36 82.22 380.2 78.47 376.54C78.35 376.34 78.23 376.14 78.11 375.94C74.18 369.5 67.64 366.02 61.88 361.67C57.38 358.27 52.72 355.05 47.96 352.01C45.35 350.35 45.22 349.12 47.76 347.46C50.43 345.71 51.35 341.67 55.36 341.67C55.58 341.73 55.8 341.79 56.03 341.85C61.24 345.53 66.04 349.74 70.99 353.75C79.77 361.09 88.27 368.74 96.45 376.73C102.98 383.11 110 388.92 116.89 394.89C117.01 395.09 117.13 395.29 117.25 395.49H117.23Z" fill="#13848E"/>
<path d="M90.16 388.26L90.19 388.66L90.58 388.73C93.54 391.81 97.15 394.31 99.16 398.24V398.61L99.5 398.71C105.73 406.24 111.96 413.79 119.19 420.41C121.08 422.14 121.24 423.1 119.16 424.96C111.58 431.73 111.74 431.75 105.09 424.13C97.72 415.68 91.75 406.03 83.28 398.51C83.06 398.43 82.84 398.35 82.62 398.27C78.9 395.24 76.27 391 71.93 388.65C71.32 388.3 70.78 387.86 70.3 387.34C68.01 384.82 65.98 382 62.69 380.6C59.08 378.13 55.62 375.46 52.39 372.49C48.75 368.3 43.42 366.24 39.59 362.3C39.5 362.09 39.41 361.87 39.33 361.66C39.3 359.9 34.42 359.42 37.87 356.88C40.52 354.93 41.73 349.58 46.95 352.97C57.79 360.01 68.12 367.73 78.1 375.92L78.06 375.76C82.58 379.44 87.03 383.19 90.15 388.23L90.16 388.26Z" fill="#EBF0EC"/>
<path d="M90.43 355.84C92.33 357.68 94.14 359.63 96.61 360.74C103.91 365.87 110.31 372.08 117.1 377.82L116.94 377.8C123.48 384.41 130.82 389.96 139.33 393.73C142.54 395.15 142.68 396.57 140.91 399.21C133.82 409.79 136.56 408.23 126.9 402.25C123.56 400.18 120.45 397.74 117.23 395.47L117.27 395.61C109.12 389.36 101.76 382.22 94.23 375.27C86.35 368 78.8 360.35 70.13 353.99C65.56 349.38 60.13 345.81 55.22 341.61L55.35 341.65C53.61 339.59 55.96 338.48 56.43 336.93C59.46 332.45 62.75 332.52 66.25 336.37C68.28 336.82 69.35 338.52 70.73 339.82C74.26 341.61 77.04 344.41 80.11 346.82L80.07 346.79C83.53 349.79 87.71 351.96 90.42 355.83L90.43 355.84Z" fill="#EDF1ED"/>
<path d="M95.24 292.35C95.07 291.22 94.29 290.59 93.31 290.28C89.59 289.1 88.49 287.31 90.24 283.29C91.99 279.27 94.15 279.42 97.65 280.45C120.29 287.07 138.43 300.8 155.42 316.44C156.84 317.75 157.87 319.68 160.18 319.73C165.04 325.9 171.27 330.59 177.5 335.18C180.12 337.11 180.09 338.18 178.33 340.58C172.5 348.5 172.72 348.44 166.24 341.59C156.33 331.1 146.47 320.52 134.11 312.75C129.57 311.5 126.09 308.32 122.05 306.16C120.31 305.23 118.72 303.96 116.7 303.59C115.77 303.42 114.95 303.04 114.26 302.4C109.11 298.65 103.47 295.87 97.4 293.94C96.49 293.68 95.57 293.41 95.24 292.36V292.35Z" fill="#168990"/>
<path d="M160.41 319.43C141.79 301.02 121.42 285.35 95.54 278.46C92.84 277.74 92.66 276.48 93.62 274.32C94.23 272.96 94.78 271.57 95.22 270.15C95.87 268.06 96.64 267.54 99.13 268.23C122.86 274.86 143.48 286.42 160.25 304.77C167.18 312.35 174.48 319.67 182.73 325.91C183.17 326.4 183.7 326.84 184.02 327.4C184.82 328.83 188.79 329.13 185.62 332.04C183.53 333.96 182.41 337.77 178.44 334.32C172.56 329.21 166.44 324.38 160.42 319.43H160.41Z" fill="#EDF2EC"/>
<path d="M93.68 429.71C94.55 431.45 95.52 433.15 96.25 434.94C96.78 436.25 98.78 437.6 97.03 439.08C95.14 440.67 93.02 440.48 91.26 438.54L91.28 438.57C80.5 420.75 65.63 407.48 46.74 398.75C36.96 394.23 27.13 389.82 17.28 385.47C14.31 384.16 12.99 383.08 15.84 380.04C26.81 368.36 23.11 368.51 36.9 376.49C43.92 380.55 50.35 385.63 57.05 390.24C63.11 392.08 66.94 397.04 71.47 400.9C76.59 405.26 81.07 410.36 85.88 415.1C88.93 419.73 93.64 423.47 93.68 429.7V429.71Z" fill="#EEF2ED"/>
<path d="M93.68 429.71C91.24 424.98 88.33 420.54 85.17 416.26C80.06 408.99 73.27 403.34 66.86 397.33C63.72 394.39 59.75 392.39 57.14 388.83C47.56 381.49 37.85 374.34 25.75 368.95C30.9 366.39 31.94 358.71 39.34 361.67L39.23 361.62C43.55 365.57 48.86 368.17 53.26 372.01C56.7 374.29 60.01 376.74 62.92 379.7C66.25 381.47 68.22 384.82 71.26 386.92C71.56 387.07 71.77 387.3 71.91 387.61C76.27 390.71 79.7 394.77 83.3 398.65L83.29 398.5C85.87 404.52 91.12 408.52 94.81 413.71C98.74 419.23 102.94 424.58 107.29 429.77C109.33 432.2 108.7 433.39 106.25 434.53C105.35 434.95 104.37 435.28 103.6 435.88C100.58 438.24 98.7 437.57 97.33 434.02C96.66 432.28 96.1 430.12 93.68 429.71Z" fill="#118590"/>
<path d="M95.24 292.35C95.77 292.52 96.3 292.69 96.82 292.87C103.28 295.3 109.48 298.25 115.18 302.17C115.49 302.93 116.17 302.92 116.82 302.97C122.5 305.65 128.06 308.53 132.68 312.92C146.22 322.5 157.39 334.62 168.91 346.42C172.46 350.06 170.23 352.2 168.3 354.81C166.93 356.68 165.97 354.71 165.05 354.17C161.39 352.05 159.15 347.99 154.92 346.61C154.8 346.32 154.58 346.13 154.26 346.05C150.66 342.7 147 339.41 143.89 335.57C139.98 331.71 135.87 328.09 131.31 325.01C124.16 321.58 118.35 316.04 111.38 312.3C109.93 311.52 108.52 310.65 107.03 309.92C100.75 305.16 93.05 303.26 86.22 299.61L86.38 299.62C82.84 296.24 85.87 293.2 87.36 290.59C88.71 288.22 90.71 291.02 92.46 291.3C93.42 291.45 94.31 291.98 95.24 292.34V292.35Z" fill="#EFF3ED"/>
<path d="M82.18 443.63C81.84 442.64 81.5 441.66 81.17 440.67C80.27 439.68 79.03 438.99 78.28 437.92C65.66 419.63 46.44 411.31 26.74 403.71C22.08 401.91 17.38 400.2 12.71 398.44C10.68 397.68 8.54 397.01 8.03 394.45C11.66 384.93 11.78 384.68 20.74 388.82C36.8 396.24 53.65 402.17 67.74 413.41C75.34 419.48 81.09 427.19 87.2 434.6C88.41 436.07 89 438.21 91.29 438.58C91.29 438.58 91.27 438.55 91.27 438.54C90.28 443.87 85.5 442.43 82.2 443.62L82.18 443.63Z" fill="#0F868F"/>
<path d="M230.28 193.55C232.37 194.19 233.46 195.71 233.99 197.74C218.15 212.89 199.78 224.53 181.13 235.78L181.21 235.71C178.88 237.82 181.18 239.39 182.03 240.86C188.52 251.97 195.27 262.92 202.2 273.77L202.14 273.68C207.69 282.41 213.37 291.06 219.13 299.65L219.37 299.79C218.09 300.74 216.82 301.69 215.54 302.64C211.15 299.65 209.18 294.78 206.55 290.53C196.07 273.6 184.47 257.36 175.58 239.47C172.95 234.19 172.94 234.16 177.99 231.29C191.13 223.83 203.97 215.93 215.65 206.28C220.64 202.16 225.02 197.34 230.29 193.54L230.28 193.55Z" fill="#328C89"/>
<path d="M8.01999 394.44C15.98 399 24.93 401.09 33.3 404.62C51.52 412.32 69.13 420.87 80.3 438.38C80.73 439.05 80.88 439.9 81.16 440.67C80.45 442.02 77.95 437.64 77.84 441.77C77.81 442.88 76.5 441.71 76.18 441.21C65.53 424.55 48.72 416.64 31.34 409.51C27.9 408.1 24.57 406.4 21.2 404.83C19.06 403.51 17.04 401.77 14.21 402.69C11.37 401.49 8.09 401.22 5.91 398.67C6.66 397.28 6.06999 395.23 8.01999 394.44Z" fill="#509A9E"/>
<path d="M230.28 193.55C226.23 199.51 220.07 203.21 214.82 207.85C203.58 217.77 190.51 225.01 177.57 232.36C174.58 234.06 174.28 235.25 175.65 237.98C182.41 251.46 190.76 263.98 198.81 276.68C204.33 285.38 209.95 294 215.53 302.66C215 303.09 214.47 303.52 213.94 303.95C202.11 285.75 190.33 267.53 179.48 248.72C177.33 244.99 175.71 240.94 173.44 237.29C171.72 234.52 172.62 233.32 175.07 231.89C185.79 225.64 196.64 219.58 206.67 212.21C214.7 206.31 222.04 199.62 229.24 192.76C229.59 193.02 229.93 193.29 230.28 193.55Z" fill="#D7EEEF"/>
<path d="M181.13 235.78C184.7 231.54 189.89 229.63 194.37 226.75C207.26 218.46 219.85 209.79 231 199.2C231.83 198.41 232.65 197.54 233.98 197.74C234.03 198.07 234.08 198.41 234.12 198.74C218.75 213.57 200.73 224.7 182.56 235.61C182.18 235.84 181.61 235.73 181.12 235.78H181.13Z" fill="#C9E6E7"/>
<path d="M57.14 388.84C66.73 395.49 75.07 403.54 83.04 412.01C84.15 413.19 85.53 414.31 85.17 416.27C76.59 406.74 66.97 398.34 57.05 390.26C57.08 389.79 57.11 389.32 57.14 388.85V388.84Z" fill="#183B42"/>
<path d="M132.68 312.91C127.39 309.6 122.11 306.28 116.82 302.96C120.55 302.54 122.82 305.44 125.68 306.94C128.7 308.53 131.63 310.32 134.1 312.74C133.63 312.79 133.15 312.85 132.68 312.9V312.91Z" fill="#194043"/>
<path d="M184.14 204.43C184.11 204.13 184.09 203.83 184.08 203.53C183.9 201.69 185.24 200.87 186.54 200.21C193.9 196.49 200.71 191.89 207.48 187.21C208.55 186.47 209.7 185.66 211.07 186.66C211.22 186.79 211.34 186.94 211.42 187.13C203.18 194.24 193.8 199.56 184.13 204.44L184.14 204.43Z" fill="#193C3F"/>
<path d="M160.13 28.72C160.62 28.77 161.3 28.63 161.58 28.91C163.6 30.87 165.11 43.8599 163.71 46.6399C161.79 50.6799 157.29 50.0499 154.17 51.9199C142.92 55.6899 131.63 59.3501 120.55 63.6201C118.41 64.2601 116.52 65.56 114.29 65.96C108.62 66.31 103.65 69.68 97.92 69.78C97.68 69.74 97.44 69.6899 97.19 69.6399C86.37 72.0899 75.55 74.55 64.73 76.98C61.68 77.66 57.61 79.36 55.76 77.01C53.08 73.63 51.46 69.08 50.51 64.78C49.89 61.98 53.64 62.4299 55.38 61.9399C67.03 58.7099 78.78 55.81 90.48 52.75C114.22 46.54 136.98 37.4001 160.04 29.1801C160.12 29.1501 160.11 28.87 160.15 28.71L160.13 28.72Z" fill="#EDF2EE"/>
<path d="M211.08 186.65C202.08 192.28 193.09 197.91 184.09 203.53C170.27 210.01 156.18 215.67 141.18 218.89C130.62 221.16 119.98 222.35 109.2 222.79C105.78 222.93 104.03 221.87 103.28 218.73C103.28 217.48 103.29 216.23 103.3 214.98C105.2 212.25 108.26 212.7 110.97 212.12C113.41 211.6 115.8 210.89 118.23 210.35C138.33 205.12 157.55 197.58 176.08 188.27C178.71 186.95 181.45 185.65 183.42 183.3C185.1 181.24 187.3 179.97 189.8 179.19C195.02 178.03 198.88 174.67 202.68 171.23C203.14 170.69 203.66 170.35 204.39 170.72C206.23 171.56 207.77 168.36 209.34 170.01C212.05 172.86 214.49 176 216.81 179.19C217.64 180.34 216.22 181.23 215.46 182.05C214.01 183.6 212.54 185.13 211.08 186.67V186.65Z" fill="#178890"/>
<path d="M190.07 180.07L184.36 183.61C176.73 189.69 167.7 193.15 158.91 196.95C145.51 202.74 131.75 207.57 117.59 211.21C112.79 211.75 108.26 214.71 103.2 212.74C102.41 208.2 99.79 202.86 101.34 199.34C102.84 195.91 109.29 196.67 113.5 195.33C122.15 192.57 131.09 190.74 139.45 187.07C159.47 180.44 178.75 172.09 197.45 162.36C202.02 159.98 205.79 161.62 207.25 166.68C207.99 169.22 205.3 169.32 204.41 170.71C203.78 170.62 203.41 170.92 203.24 171.51C199.42 175.24 195.01 178.06 190.07 180.08V180.07Z" fill="#EDF0EC"/>
<path d="M156.86 77.6699C160.95 77.9499 163.91 75.1499 167.34 73.6999C169.71 72.6999 170.74 73.13 171.03 75.6C171.05 75.76 171.07 75.93 171.09 76.09C171.37 79.97 174.93 84.18 172.94 87.27C171.16 90.03 166.5 90.9199 163.14 92.6899C162.05 93.2699 160.49 93.35 160.26 95.03C160.08 95.21 159.9 95.39 159.72 95.58C144.66 102.38 128.82 106.86 112.95 111.26C111.79 111.58 109.97 110.34 109.37 112.42C106.04 114.76 102.52 116.16 98.43 114.55C95.69 112.34 93 114.65 90.31 114.77C87.02 114.92 83.74 115.59 80.49 116.25C72.61 117.84 71.52 117.33 68.53 110.06C67.9 108.54 67.36 106.99 66.65 105.15C84.76 102.39 102.41 98.89 119.46 92.87C121.08 92.3 123.16 92.48 124.12 90.54C124.29 90.37 124.46 90.2 124.63 90.03C127.85 88.44 131.36 87.6498 134.71 86.4098C141.32 83.8798 148.13 81.8099 154.19 77.9899C155.04 77.4599 155.9 77.0299 156.88 77.6699H156.86Z" fill="#0F8891"/>
<path d="M154.47 50.6499C157.11 48.3099 160.92 48.6299 163.71 46.6399C167.14 50.0299 167.9 56.74 165.23 59.99C162.12 63.88 157.28 64.7401 153.15 66.8501C140.65 72.1601 127.74 76.3399 114.98 80.9099C112.64 81.9399 110.35 83.3999 107.66 81.9299C101.42 81.5599 95.67 84.0401 89.67 85.0801C81.19 86.5501 72.77 88.37 64.15 88.7C60.73 88.83 56.11 83.7901 56.89 80.6201C57.37 78.6701 59.41 79.0601 60.98 78.8401C73.12 77.1301 84.84 73.6699 96.62 70.4099C96.86 70.3399 97.01 69.9199 97.2 69.6599L97.11 69.73C102.94 68.45 108.55 66.4101 114.29 64.8101C116.36 64.7101 117.32 61.8399 119.75 62.6299C130.57 59.4499 141.21 55.71 151.76 51.74C152.67 51.4 153.71 51.3599 154.48 50.6599L154.47 50.6499Z" fill="#0F8B93"/>
<path d="M164.16 136.75C170.98 135.53 176.86 132.04 182.83 128.86C185.84 127.26 187.2 127.23 188.41 130.91C190.7 137.88 190.91 137.72 184.4 141.15C166.4 150.64 147.57 158.04 128.02 163.66C126.2 164.18 123.95 164.1 123.02 166.35L122.83 166.79L122.41 166.58C121.33 165.32 120.02 165.76 118.74 166.11C112.35 167.85 105.84 169.03 99.35 170.34C94.43 171.33 91.74 169.92 90.49 165.23C90.19 164.11 89.84 162.97 89.29 161.97C87.5 158.76 88.64 158.05 92.02 157.48C115.42 153.54 138.26 147.4 160.44 138.89C161.79 138.37 163.39 138.27 164.17 136.75H164.16Z" fill="#148B92"/>
<path d="M107.66 81.92C109.96 81.68 112.29 81.53 114.16 79.91C127.75 76.23 140.86 71.2001 153.81 65.7201C157.91 64.9001 161.08 61.74 165.27 61.13C166.32 61.18 167.46 59.6902 168.25 62.0702C170.92 70.1002 170.78 70.7401 163.36 74.3101C161.16 75.3701 159.03 76.54 156.86 77.67C156.28 77.84 155.71 78.02 155.13 78.19C149.05 82.34 141.85 83.9801 135.28 87.0201C131.47 88.0101 127.78 89.36 124.09 90.7L124.11 90.5301C113.28 92.9601 102.97 97.34 91.99 99.21C84.62 100.47 77.22 101.57 69.9 103.06C66.51 103.75 65.26 102.4 64.12 99.4801C60.57 90.3901 60.5 90.8 69.75 89.67C82.57 88.1 95.26 85.68 107.66 81.92Z" fill="#EBF3F0"/>
<path d="M97.15 140.99C123.41 136.76 148.88 129.75 173.39 119.36C174.15 119.04 174.91 118.7 175.67 118.38C182.65 115.45 184.27 116.45 185.83 123.99C186.36 126.58 184.48 126.81 183.2 127.43C176.83 130.55 170.39 133.5 163.97 136.51C146.75 142.47 129.46 148.21 111.63 152.15C104.66 153.69 97.67 155.13 90.58 156.08C88.15 156.4 86.89 156.08 86.12 153.69C85.32 151.17 84.34 148.68 83.2 146.3C81.91 143.63 83.9 143.83 85.39 143.5C85.93 142.67 86.72 142.19 87.64 141.88C89.92 141.48 92.15 140.82 94.47 140.65C95.38 140.63 96.21 141.26 97.16 140.99H97.15Z" fill="#EAF1ED"/>
<path d="M98.42 114.55C101.95 113.76 105.6 113.47 108.94 111.91C116.71 108.8 124.97 107.37 132.91 104.79C142.15 101.79 151.27 98.5102 160.26 94.8502V95.0301C164.35 94.0701 167.91 91.9 171.55 89.96C173.44 88.95 174.26 89.3 175.02 91.39C178.51 100.9 178.59 100.91 169.05 104.76C161.54 107.79 153.99 110.71 146.46 113.68C144.25 116.12 141.21 116.94 138.25 117.93C133.94 118.2 130.08 120.13 126.04 121.37C125.6 121.55 125.14 121.68 124.68 121.8C120.03 122.54 115.63 124.44 110.88 124.77C110.65 124.73 110.41 124.68 110.18 124.64C100.64 125.89 91.4 128.69 81.88 130.2C77.99 130.82 76.62 129.93 75.3 126.64C72.1 118.69 71.99 118.79 80.21 117.54C86.29 116.62 92.34 115.56 98.41 114.56L98.42 114.55Z" fill="#ECF3EF"/>
<path d="M138.21 116.78C140.97 115.77 143.21 113.38 146.46 113.68C152.75 113.47 158.11 110.19 163.9 108.35C165.79 107.75 167.59 106.86 169.42 106.1C178.61 102.26 179.17 102.64 181.43 112.41C182.09 115.26 179.89 114.97 178.67 115.51C159.07 124.18 138.9 131.15 117.91 135.61C111.45 136.98 104.98 138.34 98.51 139.69C97.78 139.84 96.7 139.61 97.16 140.99C96.71 141.64 96.08 141.71 95.38 141.59C92.46 140.96 89.83 142.14 87.15 142.93C86.68 143.49 86.1 143.72 85.39 143.5C79.88 142.55 80.21 137.37 78.58 133.74C77.77 131.95 79.89 131.95 81.13 131.7C89.05 130.07 96.99 128.49 104.89 126.78C106.75 126.38 108.84 126.33 110.2 124.62L110.12 124.7C115.1 123.2 120.29 122.47 125.2 120.66L125.12 120.71C129.58 119.7 133.81 117.9 138.24 116.77L138.21 116.78Z" fill="#118991"/>
<path d="M192.99 150.68C196.12 150.33 201.17 154.95 200.86 157.89C200.69 159.59 199.1 159.75 198.02 160.34C180.51 169.95 162.03 177.36 143.44 184.53C141.94 185.11 140.16 185.17 139.18 186.76C128.67 189.66 118.16 192.54 107.65 195.47C100.48 197.47 100.49 197.5 98.65 190.55C96.9 183.95 96.93 184.08 103.86 182.79C121.47 179.51 138.67 174.7 155.49 168.52C156.5 168.15 157.84 168 158.12 166.55C158.28 166.39 158.44 166.22 158.6 166.05C163.83 163.81 169.28 162.08 174.28 159.3C174.69 159.08 175.12 158.91 175.55 158.75C181.44 156.74 186.7 153.38 192.31 150.77C192.54 150.73 192.77 150.7 193 150.67L192.99 150.68Z" fill="#13888F"/>
<path d="M122.41 166.57L122.8 166.65L123.03 166.34C145.29 160.36 166.73 152.27 187.12 141.44C188.56 140.67 190.77 137.1 192.53 141.02C193.88 144.03 198.19 147.23 192.99 150.67L193.12 150.64C187.35 154.14 181.29 157.05 175.08 159.67L175.14 159.64C169.6 162.34 163.89 164.62 158.08 166.68L158.11 166.53C145.09 170.34 132.4 175.29 119.06 178.04C112.89 179.31 106.68 180.47 100.62 182.16C97.45 183.04 96.04 182.33 95.34 179.27C94.8 176.89 94.04 174.56 93.31 171.99C103.54 171.84 112.9 168.83 122.4 166.56L122.41 166.57Z" fill="#EBF0EC"/>
<path d="M103.36 23.84C104.24 21.72 105.52 20.2499 108.11 20.8199C110.15 20.3999 110.77 22.03 111.08 23.33C112.47 29.2 113.93 35.07 114.96 41.02C115.14 42.05 114.85 42.96 114.13 43.72C112.29 44.75 110.45 45.8001 108.21 45.5501C105.79 43.7201 105.76 40.8699 105.49 38.3199C104.98 33.4599 101.9 28.98 103.36 23.85V23.84Z" fill="#2B9997"/>
<path d="M97.02 31.36C96.96 30.04 97.14 28.6501 96.77 27.4301C96.24 25.6701 95.9 24.0801 97.84 23.1501C100.4 21.9301 99.98 24.98 101.22 25.7C102.22 25.64 102.77 26.24 103 27.09C104.56 32.85 105.65 38.7201 106.87 44.5601C107.01 45.2401 106.57 45.8301 106.15 46.3501C104.14 46.3501 101.81 49.55 100.17 45.76C96.39 41.56 95.58 36.7 97.03 31.36H97.02Z" fill="#279F9D"/>
<path d="M87.6 28.84C88.18 25.85 90.69 25.64 92.97 25.1C96.75 31.91 97.59 39.38 97.93 46.97C96.79 51.1 94.85 49.63 92.84 47.7C92.34 47.64 91.74 47.5701 91.56 47.1001C89.34 41.2101 86.82 35.37 87.59 28.83L87.6 28.84Z" fill="#2AA5A3"/>
<path d="M111.38 20.8801C112.4 18.9201 114 17.93 116.22 17.95C118.79 19.44 118.58 22.2301 119 24.5501C120.02 30.1301 122.71 35.53 121.11 41.45C119.21 42.59 117.39 43.1101 115.95 40.7601C115.79 40.7401 115.51 40.76 115.48 40.69C112.9 34.34 111.07 27.8301 111.38 20.8801Z" fill="#299D9D"/>
<path d="M126.12 16.17C126.08 13.49 128.05 13.25 129.99 12.97C131.45 13.75 132.03 15.17 132.23 16.62C133.17 23.25 135.94 29.63 135.03 36.51C133.17 37.21 131.31 37.9 129.45 38.6C126.15 33.14 127.09 26.79 125.76 20.91C125.41 19.37 124.75 17.65 126.12 16.17Z" fill="#209999"/>
<path d="M149.3 5.58997C151.21 4.63997 153.13 3.68999 155.04 2.73999L155.18 2.88C157.85 11.24 159.52 19.75 159.04 28.59C155.42 29.97 156.01 25.78 154.12 24.87C153.14 24.93 152.45 24.34 152.3 23.53C151.24 17.56 149.42 11.72 149.3 5.58997Z" fill="#1E8D8C"/>
<path d="M60.56 36.72C61.49 34.52 62.81 33.26 65.3 34.7C65.64 34.7 66.13 34.6801 66.23 34.8901C69.35 41.4201 71.83 48.1101 71.06 55.5501C69.83 56.6501 68.54 56.9001 67.18 55.7801C66.69 55.8501 66.09 55.92 65.83 55.47C62.55 49.65 59.87 43.66 60.56 36.72Z" fill="#1EA3A1"/>
<path d="M119.4 19.85C120.32 18.14 120.13 15.3701 123.27 15.7901C126.81 17.9801 125.99 21.82 126.39 24.97C126.95 29.4 129.42 33.7901 127.2 38.3901C126.42 40.7301 124.58 39.82 123.01 39.75C119.59 38.46 121.1 35.1501 120.8 33.0101C120.19 28.6701 117.33 24.47 119.39 19.85H119.4Z" fill="#25999D"/>
<path d="M53.37 37.1C55.13 36.07 56.85 35.49 58.22 37.68C58.95 37.57 59.55 37.85 59.77 38.53C61.43 43.81 62.85 49.17 64.94 54.32C65.25 55.08 64.93 55.9301 64.36 56.6001C63.62 58.3701 62.2 58.79 60.46 58.55C54.82 52.48 53.01 45.15 53.37 37.1Z" fill="#1A9B9A"/>
<path d="M68.06 34.11C69.06 32.32 70.47 31.79 72.34 32.74C73.06 32.71 73.68 32.9901 73.94 33.6401C76.12 39.1701 77.67 44.88 78.85 50.7C79.02 51.52 78.74 52.33 78.03 52.9C77.19 54.64 75.78 55.15 73.97 54.73C72.7 54.84 72.17 53.9 71.91 52.98C70.26 47.31 68.69 41.62 67.36 35.87C67.21 35.21 67.61 34.6 68.07 34.1L68.06 34.11Z" fill="#1DA3A3"/>
<path d="M47.65 43.84C47.84 42.72 48.31 41.57 48.16 40.49C47.69 37.05 50.06 38.9101 51.31 38.6801C51.66 38.6601 52.15 38.66 52.22 38.87C54.26 45.15 57.09 51.1901 57.88 57.8401C56.62 60.5001 55.12 61.79 52.84 58.73C48.83 54.55 46.75 49.71 47.65 43.82V43.84Z" fill="#288F8E"/>
<path d="M74.15 32.01C75.3 30.88 76.43 29.6699 78.27 30.7099C81.59 32.2799 81.87 35.6999 82.59 38.5699C83.72 43.0899 86.51 47.5299 84.23 52.4799C82.96 53.0799 81.73 53.8099 80.23 53.4699C77.22 46.5899 75.37 39.3899 74.16 31.9999L74.15 32.01Z" fill="#1DA3A3"/>
<path d="M82.05 33.4C83.46 32.14 78.82 27 85 28.81C86.32 29.09 86.76 30.12 87.1 31.26C88.77 36.9 90.09 42.63 91.58 48.31C91.8 49.14 91.77 49.92 91.02 50.52C87.23 53.6 87.59 48.9801 86.07 47.8501C82.78 43.5801 81.73 38.68 82.06 33.4H82.05Z" fill="#29A5A6"/>
<path d="M143.54 8.93997C144.26 6.87997 145.85 6.53006 147.75 6.78006C151.49 13.4501 153.32 20.41 151.04 28.01C150.32 29.26 149.77 31.1 148.04 28.89C146.84 28.86 146.25 28.0201 146.09 27.0501C145.11 21.0301 142.84 15.19 143.54 8.93997Z" fill="#279A9D"/>
<path d="M132.36 12.8199C133.3 11.4499 134.33 10.3499 136.12 11.5799C137.49 12.4099 138.18 13.7299 138.43 15.2199C139.45 21.4899 142.23 27.5199 141.08 34.0999C134.99 37.7499 138.36 30.49 136.07 29.75C135.91 29.75 135.63 29.7899 135.6 29.7199C133.23 24.3299 131.6 18.8 132.37 12.81L132.36 12.8199Z" fill="#1E979A"/>
<path d="M138.4 11.77C139.36 10.79 139.01 8.51993 141.28 8.81993C144.1 9.99993 143.65 12.85 144.04 14.98C145.06 20.58 146.69 26.08 147.01 31.8C145.53 32.31 144.15 32.41 143.15 30.89C140.13 30.28 140.79 27.41 140.51 25.67C139.77 21.05 137.37 16.64 138.39 11.76L138.4 11.77Z" fill="#2B9495"/>
<path d="M43.17 47.72C41.44 44.28 39.27 40.75 45.11 38.99C46.9 45.05 48.45 51.1799 50.54 57.1599C50.76 57.7999 50.46 58.4399 49.95 58.9199C49.21 60.2599 48.54 62.4399 47.35 59.1699C45.96 55.3499 44.56 51.53 43.17 47.72Z" fill="#1F7A87"/>
<path d="M151.05 28.01C151.77 20.65 149.62 13.74 147.76 6.78003C148.27 6.38003 148.79 5.97996 149.3 5.57996C152.46 11.62 151.69 18.64 154.12 24.86C154.17 26 154.18 27.15 154.3 28.29C154.45 29.84 153.27 29.52 152.42 29.75C150.57 30.23 151.33 28.73 151.06 28.01H151.05Z" fill="#CDE8E9"/>
<path d="M119.4 19.8499C120.61 26.4799 121.82 33.12 123.02 39.75C122.91 40.9 122.43 41.6299 121.12 41.4499C119.49 33.6199 117.86 25.7799 116.23 17.9499C119.25 15.2999 119.05 18.0299 119.4 19.8499Z" fill="#DBEFF1"/>
<path d="M138.4 11.77C140.11 18.11 140.66 24.74 143.16 30.89C143.59 32.69 143.34 34.05 141.08 34.11C139.43 26.6 137.78 19.1 136.13 11.59C136.36 10.78 136.69 9.87998 137.67 10.09C138.02 10.17 138.17 11.18 138.41 11.76L138.4 11.77Z" fill="#CCE7E9"/>
<path d="M106.14 46.35C104.53 39.46 103.76 32.3699 101.22 25.6999C101.32 24.4999 100.99 22.7899 101.64 22.2399C102.42 21.5799 103.02 22.9799 103.36 23.8399C104.98 31.0799 106.59 38.31 108.21 45.54C107.6 46.02 107.06 46.66 106.15 46.35H106.14Z" fill="#E1F3F7"/>
<path d="M68.06 34.11C69.51 41.13 71.17 48.0999 73.97 54.7299C73.34 56.1999 72.31 56.22 71.07 55.55C69.35 48.54 68.17 41.3899 65.3 34.6999C65.68 31.9899 66.82 32.83 68.06 34.11Z" fill="#DCF1F5"/>
<path d="M132.36 12.8199C133.59 18.4699 134.83 24.11 136.06 29.76C135.73 32.01 137.48 34.57 135.03 36.5C133.35 28.65 131.67 20.7999 129.99 12.9599C130.75 12.4299 131.46 11.0699 132.36 12.8199Z" fill="#DAEFF2"/>
<path d="M49.95 58.9099C48.19 52.2999 44.88 46.07 45.11 38.98C48.86 39.08 46.11 42.58 47.65 43.83C48.94 48.96 50.46 54 52.84 58.74C52.98 59.75 53.98 61.1901 52.48 61.6101C50.44 62.1901 50.41 60.1899 49.95 58.8999V58.9099Z" fill="#DDF0F3"/>
<path d="M97.93 46.98C95.88 40.11 96.08 32.62 92.19 26.25C92.09 26.09 92.7 25.49 92.98 25.1C97.17 25.34 95.19 29.59 97.03 31.36C97.75 36.23 98.34 41.13 100.17 45.76C100 46.76 100.92 48.2101 99.23 48.5801C98.03 48.8501 98.2 47.66 97.94 46.97L97.93 46.98Z" fill="#DEEFF5"/>
<path d="M111.38 20.88C112.9 27.51 114.43 34.13 115.95 40.76C115.97 42.14 116.83 44.03 114.12 43.71C112.81 37.34 111.52 30.96 110.18 24.6C109.88 23.16 109.29 21.7999 108.1 20.8199C109.23 19.2599 110.32 19.2 111.38 20.89V20.88Z" fill="#DBF2F6"/>
<path d="M127.21 38.39C126.73 30.71 125.74 23.12 123.28 15.78C124.57 13.38 125.23 15.61 126.12 16.16C127.23 23.64 128.34 31.1099 129.45 38.5899C128.71 38.5199 127.96 38.45 127.21 38.39Z" fill="#DBF0F5"/>
<path d="M64.36 56.6001C62.31 50.2901 60.27 43.99 58.22 37.68C58.48 36.75 57.65 35.26 59.29 35.03C60.33 34.88 60.18 36.0999 60.56 36.7099C62.49 43.1599 63.48 49.93 67.18 55.77C67.14 59.11 65.62 57.4101 64.37 56.6001H64.36Z" fill="#D7ECF2"/>
<path d="M91.02 50.52C89.36 43.19 87.87 35.81 85 28.81C85.12 28.06 84.84 27.02 85.95 26.88C87.39 26.69 87.16 28.0799 87.6 28.8399C89.35 35.1299 91.1 41.4199 92.84 47.7099C93.13 49.2299 93.82 51 91.02 50.52Z" fill="#DCEEF4"/>
<path d="M159.03 28.59C157.74 20.02 156.46 11.45 155.17 2.88C158.66 3.63 157.51 6.79997 157.93 8.83997C159.21 15.07 159.97 21.41 160.93 27.71C160.68 28.08 160.44 28.46 160.19 28.83C159.8 28.75 159.41 28.67 159.02 28.59H159.03Z" fill="#E0F5F4"/>
<path d="M82.05 33.4001C83.39 38.2201 84.73 43.0301 86.06 47.8501C85.55 49.4401 87.96 52.18 84.21 52.48C83.5 44.87 81.57 37.6 78.26 30.71C79.4667 29.63 80.7267 30.5301 82.04 33.4101L82.05 33.4001Z" fill="#D9EEF2"/>
<path d="M74.15 32.01C77.15 38.89 78.34 46.28 80.22 53.48C79.35 53.83 78.53 53.9699 78.03 52.9099C76.5 46.0899 74.92 39.28 72.34 32.75C72.63 31.73 73.39 31.86 74.15 32.01Z" fill="#D8F1F3"/>
<path d="M147.01 31.8001C144 24.4101 144.51 16.15 141.28 8.82C142.14 6.88 142.84 7.89999 143.54 8.93999C145.04 15.59 146.54 22.2401 148.04 28.8901C147.79 29.8901 149.14 31.4601 147.01 31.8001Z" fill="#DAEFF3"/>
<path d="M57.88 57.85C55.69 51.46 53.5 45.07 51.31 38.68C51.27 37.21 51.84 36.5299 53.37 37.0999C55.01 44.4899 56.95 51.78 60.46 58.56C59.2 59.79 58.43 59.22 57.88 57.85Z" fill="#D1EAED"/>
<path d="M103.19 212.75C108.3 213.37 113 211.09 117.97 210.65C119.03 210.1 119.2 210.67 119.1 211.56C113.83 212.7 108.56 213.84 103.29 214.98C103.26 214.24 103.22 213.5 103.19 212.75Z" fill="#143438"/>
<path d="M74.58 322.55C77.51 323.42 79.69 325.58 82.29 327.04C78.23 327.77 76.15 324.34 73.21 322.72C73.67 322.67 74.12 322.61 74.58 322.56V322.55Z" fill="#11383C"/>
<path d="M165.27 61.1399C161.96 63.2299 158.45 64.8699 154.67 65.9199C154.06 66.2499 153.51 66.17 153.01 65.7C157.08 63.79 161.15 61.89 165.22 59.99C165.23 60.38 165.25 60.7599 165.26 61.1399H165.27Z" fill="#174044"/>
<path d="M202.2 273.77C195.84 266.74 191.93 258.08 186.65 250.33C184.07 246.53 182.15 242.28 179.58 238.47C177.81 235.84 179.22 235.78 181.2 235.71C180.84 238.06 182.32 239.66 183.43 241.46C189.1 250.71 194.73 259.99 200.33 269.29C201.16 270.67 202.4 271.93 202.19 273.77H202.2Z" fill="#C9E6E7"/>
<path d="M219.13 299.66C212.14 291.87 206.89 282.94 202.14 273.69C207.4 278.1 209.78 284.62 213.84 289.92C216.04 292.8 219.29 295.39 219.13 299.66Z" fill="#C3E5E2"/>
<path d="M163.19 278.16C167.71 282.68 171.48 287.83 175.4 292.84C174.86 293.51 174.17 293.48 173.77 292.87C170.43 287.83 165.1 284.22 163.19 278.16Z" fill="#1B4145"/>
<path d="M177.18 295.16C179.31 297.79 182.61 299.55 183.32 303.26C180.79 300.93 177.7 299.02 177.18 295.16Z" fill="#0E2327"/>
<path d="M14.21 402.69C17.61 399.89 19.16 403.18 21.2 404.83C18.87 404.12 16.54 403.41 14.21 402.69Z" fill="#A2DBDE"/>
<path d="M117.1 377.83C109.49 373.07 103.25 366.67 96.61 360.75C100.17 360.56 101.68 363.67 103.78 365.54C108.29 369.55 113.81 372.49 117.1 377.83Z" fill="#163B3E"/>
<path d="M103.73 343.56C109.62 348.81 116.07 353.45 121.13 359.6C116.52 357.78 113.57 353.8 109.85 350.83C107.14 348.66 104.72 346.11 102.18 343.73C102.66 343.35 103.18 343.29 103.73 343.56Z" fill="#14383E"/>
<path d="M90.43 355.84C86.93 352.89 82.86 350.59 80.08 346.8C84.25 348.99 88.57 351 90.43 355.84Z" fill="#194245"/>
<path d="M85.96 329.54C89.64 331.82 93.24 334.21 96.33 337.28C96.8 337.78 96.75 338.22 96.19 338.61C93.19 336.43 90.16 334.29 87.23 332.03C86.51 331.48 84.85 331.14 85.96 329.55V329.54Z" fill="#13383C"/>
<path d="M80.12 346.83C76.45 345.23 73.6 342.52 70.74 339.83C75.02 340.62 77.75 343.48 80.12 346.83Z" fill="#183F45"/>
<path d="M96.19 338.61C96.24 338.17 96.28 337.73 96.33 337.28C99.12 339 101.51 341.18 103.73 343.56C103.21 343.62 102.69 343.67 102.18 343.73C100.18 342.02 98.19 340.32 96.19 338.61Z" fill="#133438"/>
<path d="M107.69 309.56C116.12 313.85 123.74 319.39 131.31 325C130.09 326.3 129.27 325.12 128.37 324.52C120.94 319.6 113.52 314.68 106.1 309.75C106.58 309.3 107.12 309.23 107.7 309.56H107.69Z" fill="#163C3F"/>
<path d="M107.69 309.56C107.16 309.62 106.63 309.69 106.09 309.75C100.43 307.13 94.78 304.49 89.11 301.9C87.93 301.36 86.52 301.21 86.22 299.6C93.89 301.81 101.04 305.13 107.68 309.55L107.69 309.56Z" fill="#17383D"/>
<path d="M143.89 335.57C147.42 338.99 151.82 341.55 154.26 346.05C150.12 343.23 145.75 340.65 143.89 335.57Z" fill="#1B3D43"/>
<path d="M70.35 353.16C86.71 366.52 101.76 381.33 117.27 395.63C113.05 394.55 110.45 391.17 107.44 388.47C94.96 377.26 82.6 365.91 70.2 354.61C69.79 354.08 69.84 353.6 70.35 353.16Z" fill="#13353B"/>
<path d="M70.35 353.16C70.3 353.64 70.25 354.13 70.2 354.61C65.29 350.18 59.31 347 55.22 341.63C60.96 344.56 65.49 349.08 70.35 353.16Z" fill="#173D43"/>
<path d="M90.16 388.26C86.08 384.15 81.57 380.46 78.07 375.79C83.31 378.78 87.7 382.59 90.16 388.26Z" fill="#0E2327"/>
<path d="M99.17 398.23C96.31 395.06 93.45 391.89 90.59 388.72C94.69 390.77 97.84 393.68 99.17 398.23Z" fill="#0E2327"/>
<path d="M53.26 372.02C48.2 369.07 42.77 366.62 39.23 361.63C44.3 364.57 49.53 367.28 53.26 372.02Z" fill="#1A3D43"/>
<path d="M83.29 398.66C78.71 395.79 75.38 391.63 71.9 387.62C76.81 390.15 80.25 394.2 83.29 398.66Z" fill="#0E2327"/>
<path d="M71.25 386.93C67.7 385.41 65.34 382.52 62.91 379.71C66.7 380.95 69.27 383.61 71.25 386.93Z" fill="#0E2327"/>
<path d="M115.18 302.16C109.06 299.06 102.94 295.96 96.82 292.86C103.7 294.47 110.02 297.17 115.18 302.16Z" fill="#102F33"/>
<path d="M154.47 50.6499C147.97 54.7099 140.56 56.4801 133.41 58.8201C128.93 60.2901 124.79 63.1801 119.74 62.6201C131.18 58.2401 142.69 54.0499 154.47 50.6499Z" fill="#112D31"/>
<path d="M114.28 64.8C108.85 67.47 103.19 69.34 97.1 69.72C102.66 67.51 108.22 65.3 114.28 64.8Z" fill="#112D31"/>
<path d="M119.1 211.56C118.72 211.26 118.35 210.95 117.97 210.65C138.87 204.32 159.46 197.23 178.68 186.66C180.56 185.62 182.47 184.63 184.36 183.62C185.11 185.64 183.19 185.61 182.27 186.14C162.45 197.67 141.11 205.45 119.1 211.56Z" fill="#14373D"/>
<path d="M190.07 180.07C194.46 177.22 198.85 174.36 203.23 171.5C200.02 176.16 195.75 179.2 190.07 180.07Z" fill="#1D444B"/>
<path d="M160.26 94.8501C156.94 97.6801 152.72 98.59 148.79 100.05C135.77 104.86 122.5 108.87 108.94 111.91C108.79 111.83 108.59 111.79 108.51 111.67C108.38 111.45 108.32 111.19 108.24 110.94C111.27 110.15 114.31 109.4 117.33 108.57C130.92 104.84 144.37 100.72 157.38 95.25C158.25 94.89 159.3 94.9701 160.26 94.8401V94.8501Z" fill="#112D31"/>
<path d="M135.12 86.6399C141.79 83.8199 148.46 80.9999 155.13 78.1899C153.89 81.1699 150.78 81.42 148.4 82.52C144.11 84.5 139.58 85.9799 135.16 87.6799C134.81 87.4599 134.69 87.23 134.8 87C134.91 86.76 135.02 86.6399 135.13 86.6399H135.12Z" fill="#183E45"/>
<path d="M135.12 86.6399C135.13 86.9799 135.14 87.3299 135.15 87.6699C131.41 88.4999 128.1 90.8999 124.08 90.6899C127.38 88.3199 131.32 87.6699 135.12 86.6299V86.6399Z" fill="#112D31"/>
<path d="M153.01 65.7C153.56 65.77 154.12 65.8499 154.67 65.9199C141.5 71.5599 128.39 77.3399 114.16 79.9099C119.77 76.6899 126.24 75.8801 132.17 73.5601C139.08 70.8601 146.06 68.31 153.01 65.7Z" fill="#163E43"/>
<path d="M87.13 142.93C89.68 141.29 92.29 140.03 95.36 141.59C92.62 142.04 89.87 142.48 87.13 142.93Z" fill="#112D31"/>
<path d="M125.17 120.67C120.51 123.39 115.37 124.3 110.09 124.71C114.86 122.41 119.99 121.47 125.17 120.67Z" fill="#112D31"/>
<path d="M138.21 116.78C134.13 119.06 129.76 120.4 125.09 120.72C129.23 118.64 133.55 117.16 138.21 116.78Z" fill="#112D31"/>
<path d="M175.08 159.68C180.81 156.11 186.78 153.01 193.12 150.65C187.84 155.12 181.79 158.05 175.08 159.68Z" fill="#113539"/>
<path d="M158.09 166.7C163.5 163.68 169.24 161.46 175.15 159.66C170.08 163.49 164.33 165.69 158.09 166.7Z" fill="#112D31"/>
</svg>
